<svg xmlns="http://www.w3.org/2000/svg" width="235.209" height="221.971" viewBox="0 0 235.209 221.971">
  <g id="ILUSTRACIONES-10" transform="translate(-5.49 -4.985)">
    <rect id="Rectángulo_43722" data-name="Rectángulo 43722" width="9.341" height="57.284" transform="translate(89.694 169.429)" fill="#afafaf"/>
    <rect id="Rectángulo_43723" data-name="Rectángulo 43723" width="9.341" height="57.284" transform="translate(208.038 169.561)" fill="#afafaf"/>
    <rect id="Rectángulo_43724" data-name="Rectángulo 43724" width="9.341" height="22.481" transform="translate(228.002 204.365)" fill="#afafaf"/>
    <rect id="Rectángulo_43725" data-name="Rectángulo 43725" width="9.341" height="53.662" transform="translate(11.629 173.029)" fill="#afafaf"/>
    <rect id="Rectángulo_43726" data-name="Rectángulo 43726" width="9.341" height="94.737" transform="translate(31.151 131.976)" fill="#ebebeb"/>
    <rect id="Rectángulo_43727" data-name="Rectángulo 43727" width="9.341" height="33.5" transform="translate(50.672 193.213)" fill="#afafaf"/>
    <rect id="Rectángulo_43728" data-name="Rectángulo 43728" width="9.341" height="99.088" transform="translate(70.172 127.603)" fill="#afafaf"/>
    <rect id="Rectángulo_43729" data-name="Rectángulo 43729" width="9.341" height="90.52" transform="translate(109.215 136.171)" fill="#afafaf"/>
    <rect id="Rectángulo_43730" data-name="Rectángulo 43730" width="9.341" height="67.001" transform="translate(128.715 159.712)" fill="#afafaf"/>
    <rect id="Rectángulo_43731" data-name="Rectángulo 43731" width="9.341" height="99.772" transform="translate(148.237 126.941)" fill="#afafaf"/>
    <rect id="Rectángulo_43732" data-name="Rectángulo 43732" width="9.341" height="116.865" transform="translate(167.736 109.848)" fill="#afafaf"/>
    <rect id="Rectángulo_43733" data-name="Rectángulo 43733" width="9.341" height="82.79" transform="translate(187.258 143.923)" fill="#afafaf"/>
    <path id="Trazado_211927" data-name="Trazado 211927" d="M236.68,105.512s-51.763.133-115.584.133-115.606,0-115.606-.133,51.741-.132,115.606-.132S236.68,105.446,236.68,105.512Z" transform="translate(0 121.311)" fill="#263238"/>
    <path id="Trazado_211928" data-name="Trazado 211928" d="M103.881,101.341c-7.817-3.312-16.85-9.827-20.891-17.821a44.387,44.387,0,0,1,20.891,17.821" transform="translate(93.646 94.897)" fill="#263238"/>
    <path id="Trazado_211929" data-name="Trazado 211929" d="M103.131,95.763c-7.817-3.312-16.85-9.827-20.891-17.843a44.564,44.564,0,0,1,20.891,17.843" transform="translate(92.74 88.13)" fill="#263238"/>
    <path id="Trazado_211930" data-name="Trazado 211930" d="M102.111,90.251c-7.817-3.312-16.96-9.827-20.891-17.821a44.5,44.5,0,0,1,20.891,17.821" transform="translate(91.507 81.496)" fill="#263238"/>
    <path id="Trazado_211931" data-name="Trazado 211931" d="M99.588,86.03C92.235,81.613,84.13,73.95,80.95,65.47A45.867,45.867,0,0,1,99.588,86.03" transform="translate(91.181 73.086)" fill="#263238"/>
    <path id="Trazado_211932" data-name="Trazado 211932" d="M93.643,84.9C88.277,77.877,83.264,67.432,83.33,58.4A49.091,49.091,0,0,1,93.643,84.9" transform="translate(94.056 64.544)" fill="#263238"/>
    <path id="Trazado_211933" data-name="Trazado 211933" d="M88.7,88.1c1.082-9.5,4.792-21.421,11.042-28.554A57.792,57.792,0,0,1,88.7,88.1" transform="translate(100.545 65.933)" fill="#263238"/>
    <path id="Trazado_211934" data-name="Trazado 211934" d="M89.85,92.9c1.9-9.805,6.735-21.907,13.846-28.708A60.2,60.2,0,0,1,89.85,92.9" transform="translate(101.935 71.54)" fill="#263238"/>
    <path id="Trazado_211935" data-name="Trazado 211935" d="M91.16,98.638c1.9-9.8,6.625-21.907,13.868-28.708A60.243,60.243,0,0,1,91.16,98.638" transform="translate(103.518 78.476)" fill="#263238"/>
    <path id="Trazado_211936" data-name="Trazado 211936" d="M92.21,105.708C94.131,95.9,98.967,83.8,106.078,77A60.243,60.243,0,0,1,92.21,105.708" transform="translate(104.787 87.019)" fill="#263238"/>
    <path id="Trazado_211937" data-name="Trazado 211937" d="M87.908,69.56a.684.684,0,0,1,0,.155l.155.42c.132.42.309.994.552,1.7.464,1.48,1.1,3.622,1.833,6.272s1.59,5.852,2.429,9.408S94.555,95,95.35,99.13s1.391,8.1,1.921,11.726.883,6.89,1.148,9.628.464,4.991.552,6.625v2.23a.265.265,0,0,1,0,.155.931.931,0,0,0,0-.155v-.464l-.177-1.767q-.2-2.319-.663-6.625c-.309-2.871-.707-5.985-1.215-9.606s-1.17-7.575-1.943-11.7-1.612-8.06-2.429-11.616S90.912,80.8,90.183,78.15s-1.325-4.814-1.745-6.294l-.486-1.722-.132-.442a.925.925,0,0,1,.088-.133Z" transform="translate(99.482 78.029)" fill="#263238"/>
    <path id="Trazado_211938" data-name="Trazado 211938" d="M96.713,107.222c-3.312-6.934-5.742-16.673-4.108-24.292a43.305,43.305,0,0,1,4.107,24.292" transform="translate(104.634 94.184)" fill="#455a64"/>
    <path id="Trazado_211939" data-name="Trazado 211939" d="M99.193,103.162c-3.312-6.934-5.72-16.695-4.085-24.292a43.151,43.151,0,0,1,4.085,24.292" transform="translate(107.653 89.278)" fill="#455a64"/>
    <path id="Trazado_211940" data-name="Trazado 211940" d="M101.438,99.022c-3.312-6.934-5.72-16.695-4.108-24.292a43,43,0,0,1,4.108,24.292" transform="translate(110.354 84.276)" fill="#455a64"/>
    <path id="Trazado_211941" data-name="Trazado 211941" d="M102.507,94.767c-2.451-7.354-3.688-17.357-1.17-24.667a43.438,43.438,0,0,1,1.17,24.667" transform="translate(114.143 78.681)" fill="#455a64"/>
    <path id="Trazado_211942" data-name="Trazado 211942" d="M102.55,90.4c.243-7.818,2.54-17.667,7.4-23.364a42.6,42.6,0,0,1-7.4,23.364" transform="translate(117.281 74.984)" fill="#455a64"/>
    <path id="Trazado_211943" data-name="Trazado 211943" d="M101.88,85.665c5.764-5.41,14.487-10.8,22.348-11.505A43.239,43.239,0,0,1,101.88,85.665" transform="translate(116.471 83.587)" fill="#455a64"/>
    <path id="Trazado_211944" data-name="Trazado 211944" d="M100.13,88.515c6.448-5.1,16.01-9.893,24.292-9.915a44.851,44.851,0,0,1-24.292,9.915" transform="translate(114.357 88.952)" fill="#455a64"/>
    <path id="Trazado_211945" data-name="Trazado 211945" d="M97.94,93.005c6.426-5.1,16.01-9.893,24.292-9.915A45.006,45.006,0,0,1,97.94,93.005" transform="translate(111.71 94.377)" fill="#455a64"/>
    <path id="Trazado_211946" data-name="Trazado 211946" d="M94.88,98.175c6.448-5.1,16.01-9.893,24.292-9.915A45.16,45.16,0,0,1,94.88,98.175" transform="translate(108.013 100.624)" fill="#455a64"/>
    <path id="Trazado_211947" data-name="Trazado 211947" d="M116.266,77a.221.221,0,0,1,0,.133l-.133.375-.53,1.413c-.464,1.215-1.193,2.959-2.208,5.1-1.833,4.306-4.549,10.158-7.928,16.43-1.7,3.136-3.4,6.1-4.991,8.833s-3.092,4.991-4.417,6.934-2.363,3.489-3.114,4.549l-.883,1.237-.243.309h0l.2-.331.839-1.259c.751-1.06,1.789-2.65,3.047-4.593s2.738-4.417,4.417-6.978,3.246-5.587,4.947-8.833c3.379-6.272,6.139-12.1,8.016-16.364.95-2.208,1.678-3.887,2.208-5.079l.6-1.391.155-.353Z" transform="translate(104.315 87.019)" fill="#263238"/>
    <path id="Trazado_211948" data-name="Trazado 211948" d="M119.324,94.31H86.42v6.36H89.8l2.849,18.086h20.339l2.937-18.086h3.4Z" transform="translate(97.79 107.935)" fill="#f67409"/>
    <path id="Trazado_211949" data-name="Trazado 211949" d="M119.2,97.215s-7.31-.155-16.342-.155-16.342,0-16.342.155,7.332.155,16.342.155S119.2,97.281,119.2,97.215Z" transform="translate(97.911 111.258)" fill="#263238"/>
    <rect id="Rectángulo_43734" data-name="Rectángulo 43734" width="165.537" height="115.363" rx="2.73" transform="translate(52.351 5.151)" fill="#e0e0e0"/>
    <path id="Trazado_211950" data-name="Trazado 211950" d="M192.3,11.18v-.353a4.814,4.814,0,0,0-.155-1.06,5.19,5.19,0,0,0-.663-1.612,5.874,5.874,0,0,0-1.59-1.789,6.271,6.271,0,0,0-1.259-.729,5.675,5.675,0,0,0-1.546-.4,11.484,11.484,0,0,0-1.767,0H33.495a11.218,11.218,0,0,0-1.5,0,4.77,4.77,0,0,0-1.457.4,5.852,5.852,0,0,0-2.363,1.789,5.786,5.786,0,0,0-1.215,2.76,8.7,8.7,0,0,0,0,1.524V114.441a6.382,6.382,0,0,0,.265,1.723,6.758,6.758,0,0,0,.729,1.568,5.9,5.9,0,0,0,1.17,1.281,6.338,6.338,0,0,0,1.48.905,6.249,6.249,0,0,0,1.678.42H185.627a8.833,8.833,0,0,0,1.325,0,4.947,4.947,0,0,0,1.259-.287,5.9,5.9,0,0,0,3.6-3.467,7,7,0,0,0,.4-2.517V114a6.89,6.89,0,0,1-.4,2.584,6.183,6.183,0,0,1-3.732,3.622,5.3,5.3,0,0,1-1.3.287H32.258a6.294,6.294,0,0,1-1.767-.442,6.846,6.846,0,0,1-1.546-.927,7.066,7.066,0,0,1-1.215-1.347,6.625,6.625,0,0,1-.773-1.634,7.177,7.177,0,0,1-.265-1.811V11.8a12.673,12.673,0,0,1,0-1.568,5.918,5.918,0,0,1,1.259-2.871,6.117,6.117,0,0,1,2.473-1.877,6.029,6.029,0,0,1,1.524-.464,12.234,12.234,0,0,1,1.546,0H185.3a11.484,11.484,0,0,1,1.767,0,5.852,5.852,0,0,1,1.568.42,6.272,6.272,0,0,1,1.259.729A5.94,5.94,0,0,1,192.1,9.612a4.814,4.814,0,0,1,.155,1.06Z" transform="translate(25.591)" fill="#263238"/>
    <rect id="Rectángulo_43735" data-name="Rectángulo 43735" width="108.076" height="138.242" transform="translate(64.165 117.29) rotate(-90)" fill="#fff"/>
    <circle id="Elipse_6987" data-name="Elipse 6987" cx="4.417" cy="4.417" r="4.417" transform="translate(205.167 57.93)" fill="#263238"/>
    <rect id="Rectángulo_43736" data-name="Rectángulo 43736" width="34.737" height="1.833" rx="0.41" transform="translate(57.121 80.19) rotate(-90)" fill="#263238"/>
    <rect id="Rectángulo_43737" data-name="Rectángulo 43737" width="12.941" height="108.451" transform="translate(64.165 8.839)" fill="#f67409"/>
    <path id="Trazado_211951" data-name="Trazado 211951" d="M37.294,28.1h8.281V38.921H37.294a5.234,5.234,0,0,1-5.234-5.234v-.331A5.234,5.234,0,0,1,37.294,28.1Z" transform="translate(32.105 27.931)" fill="#fff"/>
    <path id="Trazado_211952" data-name="Trazado 211952" d="M36.293,16.376h0a2.363,2.363,0,0,1-2.363-2.363h0a2.363,2.363,0,0,1,2.363-2.363h0a2.363,2.363,0,0,1,2.363,2.363h0A2.363,2.363,0,0,1,36.293,16.376Z" transform="translate(34.365 8.054)" fill="#fff"/>
    <path id="Trazado_211953" data-name="Trazado 211953" d="M38.3,17.722a7.287,7.287,0,0,1-2.208.155,7.376,7.376,0,0,1-2.208-.155,9.142,9.142,0,0,1,2.208-.132,9.01,9.01,0,0,1,2.208.132Z" transform="translate(34.305 15.21)" fill="#fff"/>
    <path id="Trazado_211954" data-name="Trazado 211954" d="M38.467,23.167a9.01,9.01,0,0,1-2.208.132,9.142,9.142,0,0,1-2.208-.132,7.906,7.906,0,0,1,2.208-.132,7.8,7.8,0,0,1,2.208.132Z" transform="translate(34.51 21.778)" fill="#fff"/>
    <path id="Trazado_211955" data-name="Trazado 211955" d="M38.467,36.982a7.8,7.8,0,0,1-2.208.133,7.906,7.906,0,0,1-2.208-.133,9.143,9.143,0,0,1,2.208-.132A9.01,9.01,0,0,1,38.467,36.982Z" transform="translate(34.51 38.482)" fill="#fff"/>
    <path id="Trazado_211956" data-name="Trazado 211956" d="M38.467,44.082a7.8,7.8,0,0,1-2.208.133,7.905,7.905,0,0,1-2.208-.133,9.143,9.143,0,0,1,2.208-.132,9.01,9.01,0,0,1,2.208.133Z" transform="translate(34.51 47.061)" fill="#fff"/>
    <path id="Trazado_211957" data-name="Trazado 211957" d="M38.467,30.692a9.01,9.01,0,0,1-2.208.132,9.142,9.142,0,0,1-2.208-.132,9.142,9.142,0,0,1,2.208-.132A9.01,9.01,0,0,1,38.467,30.692Z" transform="translate(34.51 30.882)" fill="#263238"/>
    <path id="Trazado_211958" data-name="Trazado 211958" d="M170.374,115.254V6.8H32.132l.133-.133V114.989l138.242.132H32V6.67H170.485v.11C170.418,72.213,170.374,114.326,170.374,115.254Z" transform="translate(32.033 2.037)" fill="#263238"/>
    <rect id="Rectángulo_43738" data-name="Rectángulo 43738" width="1.855" height="6.25" transform="translate(158.461 98.1)" fill="#fece10"/>
    <rect id="Rectángulo_43739" data-name="Rectángulo 43739" width="1.855" height="7.133" transform="translate(142.915 97.194)" fill="#fece10"/>
    <rect id="Rectángulo_43740" data-name="Rectángulo 43740" width="1.855" height="8.635" transform="translate(146.801 95.715)" fill="#fece10"/>
    <rect id="Rectángulo_43741" data-name="Rectángulo 43741" width="1.855" height="8.149" transform="translate(150.688 96.179)" fill="#fece10"/>
    <rect id="Rectángulo_43742" data-name="Rectángulo 43742" width="1.855" height="10.909" transform="translate(154.575 93.418)" fill="#fece10"/>
    <rect id="Rectángulo_43743" data-name="Rectángulo 43743" width="1.855" height="10.865" transform="translate(162.348 93.484)" fill="#fece10"/>
    <rect id="Rectángulo_43744" data-name="Rectángulo 43744" width="1.855" height="7.287" transform="translate(166.257 97.04)" fill="#fece10"/>
    <rect id="Rectángulo_43745" data-name="Rectángulo 43745" width="1.855" height="10.379" transform="translate(170.143 93.97)" fill="#fece10"/>
    <rect id="Rectángulo_43746" data-name="Rectángulo 43746" width="1.855" height="12.72" transform="translate(174.03 91.629)" fill="#fece10"/>
    <rect id="Rectángulo_43747" data-name="Rectángulo 43747" width="1.855" height="10.445" transform="translate(177.917 93.904)" fill="#fece10"/>
    <path id="Trazado_211959" data-name="Trazado 211959" d="M113.319,72.608H67.5a3.8,3.8,0,0,1-3.776-3.776V41.448a3.8,3.8,0,0,1,3.776-3.8h45.823a3.8,3.8,0,0,1,3.776,3.8V68.832a3.8,3.8,0,0,1-3.776,3.776ZM67.5,38.025a3.423,3.423,0,0,0-3.4,3.423V68.832a3.4,3.4,0,0,0,3.4,3.4h45.823a3.4,3.4,0,0,0,3.4-3.4V41.448a3.423,3.423,0,0,0-3.4-3.423Z" transform="translate(70.361 39.471)" fill="#e0e0e0"/>
    <path id="Trazado_211960" data-name="Trazado 211960" d="M90.193,41.84H66.52s5.3-.11,11.837-.11S90.193,41.774,90.193,41.84Z" transform="translate(73.745 44.401)" fill="#e0e0e0"/>
    <path id="Trazado_211961" data-name="Trazado 211961" d="M42.67,37.79V71.622h36V37.79Z" transform="translate(44.926 39.64)" fill="#f5f5f5"/>
    <path id="Trazado_211962" data-name="Trazado 211962" d="M56.792,39.53A11.042,11.042,0,1,0,67.833,50.572,11.042,11.042,0,0,0,56.792,39.53ZM56.968,57.2a2.834,2.834,0,1,1,0,.088Z" transform="translate(48.647 41.742)" fill="#263238"/>
    <path id="Trazado_211963" data-name="Trazado 211963" d="M50.83,39.53v4.107a6.846,6.846,0,0,1,6.824,6.824,7.155,7.155,0,0,1-.331,2.076l4.019,1.082A11.042,11.042,0,0,0,50.83,39.53Z" transform="translate(54.786 41.742)" fill="#f67409"/>
    <path id="Trazado_211964" data-name="Trazado 211964" d="M50.185,49.99a6.824,6.824,0,0,1,4.041-6.227L52.5,39.92a11.174,11.174,0,0,0-6.78,10.247,3.269,3.269,0,0,0,0,.464h4.417A5.983,5.983,0,0,1,50.185,49.99Z" transform="translate(48.607 42.214)" fill="#455a64"/>
    <path id="Trazado_211965" data-name="Trazado 211965" d="M52.038,50.168a6.272,6.272,0,0,1-1.458-.155c-.177.994-.486,2.915-.751,4.417a10.379,10.379,0,0,0,2.032.2A11.042,11.042,0,0,0,62.55,46.5L58.531,45.42a6.8,6.8,0,0,1-6.493,4.748Z" transform="translate(53.577 48.859)" fill="#ff725e"/>
    <g id="Grupo_145858" data-name="Grupo 145858" transform="translate(103.407 94.279)" opacity="0.3">
      <path id="Trazado_211966" data-name="Trazado 211966" d="M52.038,50.168a6.272,6.272,0,0,1-1.458-.155c-.177.994-.486,2.915-.751,4.417a10.379,10.379,0,0,0,2.032.2A11.042,11.042,0,0,0,62.55,46.5L58.531,45.42a6.8,6.8,0,0,1-6.493,4.748Z" transform="translate(-49.83 -45.42)" fill="#f67409"/>
    </g>
    <path id="Trazado_211967" data-name="Trazado 211967" d="M51.441,45.781h-.353v.6h-.574v-.53H49.1v-.375l1.192-1.612h.618l-1.1,1.524h.662v-.552h.618v.486h.42Z" transform="translate(52.695 46.974)" fill="#263238"/>
    <path id="Trazado_211968" data-name="Trazado 211968" d="M50.24,45.113c0-.839.464-1.3,1.082-1.3s1.082.464,1.082,1.3-.486,1.325-1.082,1.325S50.24,45.952,50.24,45.113Zm1.568,0c0-.574-.2-.817-.486-.817s-.508.243-.508.817.221.817.508.817.6-.243.6-.817Z" transform="translate(54.073 46.914)" fill="#263238"/>
    <path id="Trazado_211969" data-name="Trazado 211969" d="M51.332,44.492a.618.618,0,0,1,1.237,0c0,.442-.243.707-.618.707a.64.64,0,0,1-.618-.707Zm.883,0c0-.265,0-.4-.265-.4s-.265.132-.265.4,0,.4.265.4.265-.132.265-.4Zm1.237-.662h.42l-1.723,2.584h-.42Zm-.42,1.855a.64.64,0,1,1,.275.652.64.64,0,0,1-.275-.652Zm.883,0q0-.4-.265-.4c-.155,0-.243.132-.243.4s0,.4.243.4.265-.132.265-.4Z" transform="translate(55.388 46.938)" fill="#263238"/>
    <path id="Trazado_211970" data-name="Trazado 211970" d="M64.963,50.876H55.777C60.856,50.876,64.963,50.81,64.963,50.876Z" transform="translate(49.662 55.417)" fill="#263238"/>
    <path id="Trazado_211971" data-name="Trazado 211971" d="M58.642,51.647s-2.208.11-5.1.11a41.162,41.162,0,0,1-5.1-.11c0-.11,2.208,0,5.1,0S58.642,51.581,58.642,51.647Z" transform="translate(51.898 56.324)" fill="#263238"/>
    <path id="Trazado_211972" data-name="Trazado 211972" d="M150.457,15.412H42.359l.2-.132V53.572l-.2-.132h-.2V15.28h108.3Z" transform="translate(44.31 12.44)" fill="#e0e0e0"/>
    <path id="Trazado_211973" data-name="Trazado 211973" d="M150.348,18.322s-24.292.132-54.038.132-54.06,0-54.06-.132,24.292-.132,54.06-.132S150.348,18.256,150.348,18.322Z" transform="translate(44.418 15.957)" fill="#e0e0e0"/>
    <path id="Trazado_211974" data-name="Trazado 211974" d="M150.348,20.7s-24.292.132-54.038.132-54.06,0-54.06-.132,24.292-.132,54.06-.132S150.348,20.636,150.348,20.7Z" transform="translate(44.418 18.832)" fill="#e0e0e0"/>
    <path id="Trazado_211975" data-name="Trazado 211975" d="M150.348,23.072s-24.292.132-54.038.132-54.06-.132-54.06-.132,24.292-.132,54.06-.132S150.348,23.072,150.348,23.072Z" transform="translate(44.418 21.696)" fill="#e0e0e0"/>
    <path id="Trazado_211976" data-name="Trazado 211976" d="M150.348,25.462s-24.292.132-54.038.132-54.06,0-54.06-.132,24.292-.132,54.06-.132S150.348,25.374,150.348,25.462Z" transform="translate(44.418 24.584)" fill="#e0e0e0"/>
    <path id="Trazado_211977" data-name="Trazado 211977" d="M150.348,27.842s-24.292.132-54.038.132-54.06,0-54.06-.132,24.292-.132,54.06-.132S150.348,27.754,150.348,27.842Z" transform="translate(44.418 27.46)" fill="#e0e0e0"/>
    <path id="Trazado_211978" data-name="Trazado 211978" d="M42.25,30.222s24.292-.132,54.038-.132,54.06,0,54.06.132-24.292.132-54.06.132S42.25,30.289,42.25,30.222Z" transform="translate(44.418 30.336)" fill="#e0e0e0"/>
    <path id="Trazado_211979" data-name="Trazado 211979" d="M49.262,54.074S49.13,45.4,49.13,34.707s0-19.367.132-19.367.133,8.679.133,19.367S49.329,54.074,49.262,54.074Z" transform="translate(52.732 12.513)" fill="#e0e0e0"/>
    <path id="Trazado_211980" data-name="Trazado 211980" d="M56.313,54.074S56.18,45.4,56.18,34.707s0-19.367.132-19.367.133,8.679.133,19.367S56.379,54.074,56.313,54.074Z" transform="translate(61.25 12.513)" fill="#e0e0e0"/>
    <path id="Trazado_211981" data-name="Trazado 211981" d="M63.362,54.074S63.23,45.4,63.23,34.707s0-19.367.133-19.367.133,8.679.133,19.367S63.429,54.074,63.362,54.074Z" transform="translate(69.769 12.513)" fill="#e0e0e0"/>
    <path id="Trazado_211982" data-name="Trazado 211982" d="M70.412,54.074S70.28,45.4,70.28,34.707s0-19.367.133-19.367.132,8.679.132,19.367S70.479,54.074,70.412,54.074Z" transform="translate(78.288 12.513)" fill="#e0e0e0"/>
    <path id="Trazado_211983" data-name="Trazado 211983" d="M77.462,54.074S77.33,45.4,77.33,34.707s0-19.367.132-19.367.132,8.679.132,19.367S77.529,54.074,77.462,54.074Z" transform="translate(86.807 12.513)" fill="#e0e0e0"/>
    <path id="Trazado_211984" data-name="Trazado 211984" d="M84.282,54.074S84.15,45.4,84.15,34.707s0-19.367.132-19.367.155,8.679.155,19.367S84.371,54.074,84.282,54.074Z" transform="translate(95.047 12.513)" fill="#e0e0e0"/>
    <path id="Trazado_211985" data-name="Trazado 211985" d="M91.333,54.074S91.2,45.506,91.2,34.707s0-19.367.132-19.367.155,8.679.155,19.367S91.421,54.074,91.333,54.074Z" transform="translate(103.566 12.513)" fill="#e0e0e0"/>
    <path id="Trazado_211986" data-name="Trazado 211986" d="M50.659,30.67a.95.95,0,1,1-.95-.95A.95.95,0,0,1,50.659,30.67Z" transform="translate(52.285 29.889)" fill="#fece10"/>
    <path id="Trazado_211987" data-name="Trazado 211987" d="M57.709,25.91a.95.95,0,1,1-.95-.95.95.95,0,0,1,.95.95Z" transform="translate(60.803 24.137)" fill="#fece10"/>
    <path id="Trazado_211988" data-name="Trazado 211988" d="M64.759,28.25a.95.95,0,1,1-.95-.95.95.95,0,0,1,.95.95Z" transform="translate(69.322 26.964)" fill="#fece10"/>
    <path id="Trazado_211989" data-name="Trazado 211989" d="M71.594,22.845a.972.972,0,0,1-1.369,1.369h0a.972.972,0,0,1,1.369-1.369Z" transform="translate(77.945 21.305)" fill="#fece10"/>
    <path id="Trazado_211990" data-name="Trazado 211990" d="M78.775,22.879a.976.976,0,0,1-1.391,1.369h0a.976.976,0,1,1,1.391-1.369Z" transform="translate(86.532 21.271)" fill="#fece10"/>
    <path id="Trazado_211991" data-name="Trazado 211991" d="M85.4,27.5a.994.994,0,0,1-1.391,1.391h0A.994.994,0,0,1,85.4,27.5Z" transform="translate(94.637 26.964)" fill="#fece10"/>
    <path id="Trazado_211992" data-name="Trazado 211992" d="M57.709,21.15a.95.95,0,1,1-.95-.95.95.95,0,0,1,.95.95Z" transform="translate(60.803 18.385)" fill="#455a64"/>
    <path id="Trazado_211993" data-name="Trazado 211993" d="M50.659,28.29a.95.95,0,1,1-.95-.95.95.95,0,0,1,.95.95Z" transform="translate(52.285 27.013)" fill="#455a64"/>
    <path id="Trazado_211994" data-name="Trazado 211994" d="M85.4,29.939a.994.994,0,1,1-1.3.092.994.994,0,0,1,1.3-.092Z" transform="translate(94.637 29.913)" fill="#455a64"/>
    <path id="Trazado_211995" data-name="Trazado 211995" d="M78.859,25.91a.95.95,0,1,1-.95-.95.95.95,0,0,1,.95.95Z" transform="translate(86.36 24.137)" fill="#455a64"/>
    <path id="Trazado_211996" data-name="Trazado 211996" d="M71.879,25.85a.95.95,0,1,1-.95-.95A.95.95,0,0,1,71.879,25.85Z" transform="translate(77.925 24.064)" fill="#455a64"/>
    <path id="Trazado_211997" data-name="Trazado 211997" d="M47.871,34.685a4.416,4.416,0,0,1-1.48.132,4.527,4.527,0,0,1-1.5-.133,3.688,3.688,0,0,1,1.5-.155,3.622,3.622,0,0,1,1.48.155Z" transform="translate(47.608 35.678)" fill="#e0e0e0"/>
    <path id="Trazado_211998" data-name="Trazado 211998" d="M55.093,34.685a4.527,4.527,0,0,1-1.5.132,4.637,4.637,0,0,1-1.5-.132,3.776,3.776,0,0,1,1.5-.155,3.688,3.688,0,0,1,1.5.155Z" transform="translate(56.308 35.678)" fill="#e0e0e0"/>
    <path id="Trazado_211999" data-name="Trazado 211999" d="M62.3,34.685a4.637,4.637,0,0,1-1.5.133,4.527,4.527,0,0,1-1.5-.133,3.688,3.688,0,0,1,1.5-.155,3.776,3.776,0,0,1,1.5.155Z" transform="translate(65.02 35.678)" fill="#e0e0e0"/>
    <path id="Trazado_212000" data-name="Trazado 212000" d="M69.5,34.685a4.527,4.527,0,0,1-1.5.132,4.637,4.637,0,0,1-1.5-.132,3.776,3.776,0,0,1,1.5-.155,3.688,3.688,0,0,1,1.5.155Z" transform="translate(73.72 35.678)" fill="#e0e0e0"/>
    <path id="Trazado_212001" data-name="Trazado 212001" d="M76.713,34.685a4.637,4.637,0,0,1-1.5.133,4.527,4.527,0,0,1-1.5-.133,3.688,3.688,0,0,1,1.5-.155,3.776,3.776,0,0,1,1.5.155Z" transform="translate(82.432 35.678)" fill="#e0e0e0"/>
    <path id="Trazado_212002" data-name="Trazado 212002" d="M83.153,34.685a4.527,4.527,0,0,1-1.5.132,4.637,4.637,0,0,1-1.5-.132,3.776,3.776,0,0,1,1.5-.155,3.688,3.688,0,0,1,1.5.155Z" transform="translate(90.214 35.678)" fill="#e0e0e0"/>
    <path id="Trazado_212003" data-name="Trazado 212003" d="M89.643,34.685a4.637,4.637,0,0,1-1.5.133,4.527,4.527,0,0,1-1.5-.133,3.688,3.688,0,0,1,1.5-.155,3.776,3.776,0,0,1,1.5.155Z" transform="translate(98.056 35.678)" fill="#e0e0e0"/>
    <path id="Trazado_212004" data-name="Trazado 212004" d="M42.547,32.6a5.552,5.552,0,0,1-1.215.133c-.685,0-1.193,0-1.193-.133a2.915,2.915,0,0,1,1.193-.132,2.981,2.981,0,0,1,1.215.132Z" transform="translate(41.869 33.192)" fill="#e0e0e0"/>
    <path id="Trazado_212005" data-name="Trazado 212005" d="M42.547,29.83a4.8,4.8,0,0,1-1.215.155c-.685,0-1.193,0-1.193-.155a2.915,2.915,0,0,1,1.193-.132,2.981,2.981,0,0,1,1.215.132Z" transform="translate(41.869 29.845)" fill="#e0e0e0"/>
    <path id="Trazado_212006" data-name="Trazado 212006" d="M42.547,27.085a2.981,2.981,0,0,1-1.215.132,2.915,2.915,0,0,1-1.192-.132,4.731,4.731,0,0,1,1.192-.155A5.028,5.028,0,0,1,42.547,27.085Z" transform="translate(41.869 26.517)" fill="#e0e0e0"/>
    <path id="Trazado_212007" data-name="Trazado 212007" d="M42.547,24.292a2.981,2.981,0,0,1-1.215.133,2.915,2.915,0,0,1-1.193-.132,5.467,5.467,0,0,1,1.193-.132C41.995,24.16,42.547,24.2,42.547,24.292Z" transform="translate(41.869 23.17)" fill="#e0e0e0"/>
    <path id="Trazado_212008" data-name="Trazado 212008" d="M42.547,21.53a5.552,5.552,0,0,1-1.215.132c-.685,0-1.193,0-1.193-.132a2.915,2.915,0,0,1,1.193-.132A2.981,2.981,0,0,1,42.547,21.53Z" transform="translate(41.869 19.815)" fill="#e0e0e0"/>
    <path id="Trazado_212009" data-name="Trazado 212009" d="M42.547,18.76a4.8,4.8,0,0,1-1.215.155c-.685,0-1.193,0-1.193-.155a2.915,2.915,0,0,1,1.193-.132A2.981,2.981,0,0,1,42.547,18.76Z" transform="translate(41.869 16.468)" fill="#e0e0e0"/>
    <path id="Trazado_212010" data-name="Trazado 212010" d="M42.547,16a2.981,2.981,0,0,1-1.215.132A2.915,2.915,0,0,1,40.14,16a4.731,4.731,0,0,1,1.192-.155C41.995,15.85,42.547,15.916,42.547,16Z" transform="translate(41.869 13.129)" fill="#e0e0e0"/>
    <path id="Trazado_212011" data-name="Trazado 212011" d="M42.285,44.62l-.155-.486L57.588,38.68,73.245,28.124l15.569,5.167,15.7-10.357,15.7-.044.066.044L135.211,33.49l14.465-9.562.287.442L135.189,34.13l-.133-.11L120.04,23.42l-15.37.044L88.9,33.865,73.334,28.7,57.809,39.165Z" transform="translate(44.273 21.636)" fill="#fece10"/>
    <path id="Trazado_212012" data-name="Trazado 212012" d="M135.132,44.93,119.917,34.572H104.194l-15.7-10.379-15.237-.132L57.686,39.828H42.25V39.3H57.465L73.034,23.531l15.613.132,15.7,10.379h15.723l14.906,10.136L149.862,18.01l.442.265Z" transform="translate(44.418 15.739)" fill="#455a64"/>
    <path id="Trazado_212013" data-name="Trazado 212013" d="M105.473,11.952s-5.874.133-13.117.133-13.1,0-13.1-.133,5.852-.132,13.1-.132S105.473,11.886,105.473,11.952Z" transform="translate(89.139 8.259)" fill="#263238"/>
    <path id="Trazado_212014" data-name="Trazado 212014" d="M43.12,11.944h-.95V11.37h2.584v.574H43.8v2.407H43.12Z" transform="translate(44.322 7.716)" fill="#263238"/>
    <path id="Trazado_212015" data-name="Trazado 212015" d="M45.409,14.351l-.574-.817h-.64v.817H43.51V11.37h1.281c.795,0,1.3.42,1.3,1.082a.972.972,0,0,1-.618.95l.662.95Zm-.64-2.407h-.574v1.038h.574c.42,0,.618-.2.618-.53s-.2-.508-.618-.508Z" transform="translate(45.941 7.716)" fill="#263238"/>
    <path id="Trazado_212016" data-name="Trazado 212016" d="M47.208,13.8v.552H45V11.37h2.208v.574H45.64v.64h1.391v.53H45.64V13.8Z" transform="translate(47.741 7.716)" fill="#263238"/>
    <path id="Trazado_212017" data-name="Trazado 212017" d="M48.948,11.37v2.981h-.574l-1.48-1.811v1.811H46.21V11.37h.574l1.48,1.811V11.37Z" transform="translate(49.203 7.716)" fill="#263238"/>
    <path id="Trazado_212018" data-name="Trazado 212018" d="M47.77,11.374h1.347a1.5,1.5,0,1,1,0,2.981H47.77Zm1.3,2.429a.928.928,0,0,0,0-1.855h-.618V13.8Z" transform="translate(51.088 7.711)" fill="#263238"/>
    <path id="Trazado_212019" data-name="Trazado 212019" d="M35.377,44.7l-1.833,2.208V43.049H27.758s-.64,9.054-.508,11.042a46.773,46.773,0,0,0,2.208,7.442,21.09,21.09,0,0,0,5.83-5.1,110.418,110.418,0,0,0,6.89-11.417L37.762,42.32Z" transform="translate(26.271 45.114)" fill="#ffbe9d"/>
    <path id="Trazado_212020" data-name="Trazado 212020" d="M34.232,43.21a6.912,6.912,0,0,1-.751.994c-.486.618-1.17,1.458-1.943,2.341a27,27,0,0,1-2.076,2.208,4.571,4.571,0,0,1-.972.795,6.8,6.8,0,0,1,.839-.95c.53-.552,1.237-1.369,2.01-2.208a26.236,26.236,0,0,1,2.893-3.18Z" transform="translate(27.792 46.189)" fill="#eb996e"/>
    <path id="Trazado_212021" data-name="Trazado 212021" d="M37.307,44.832S35.651,31.339,29.137,29.97L25.78,42.933l2.8,9.363,9.3-1.281Z" transform="translate(24.517 30.191)" fill="#f67409"/>
    <path id="Trazado_212022" data-name="Trazado 212022" d="M11.52,55.139l.309.972,6.4,20.074S34,82.169,39.676,79.806a21.708,21.708,0,0,0,8.237-5.764L46.721,31.377l-9.01-1.369L22.252,28.86,11.873,32.195Z" transform="translate(7.286 28.849)" fill="#f67409"/>
    <g id="Grupo_145859" data-name="Grupo 145859" transform="translate(18.895 81.758)" opacity="0.3">
      <path id="Trazado_212023" data-name="Trazado 212023" d="M31.06,49.82A66.647,66.647,0,0,1,14.74,39.75l-3.18,1.7a75.724,75.724,0,0,0,7.6,13.471,11.042,11.042,0,0,0,4.417,3.511,7.265,7.265,0,0,0,7.354-1.5c1.9-1.745,3.313-6.912,2.694-11.042C32.517,45.845,32.031,50.217,31.06,49.82Z" transform="translate(-11.56 -39.75)"/>
    </g>
    <path id="Trazado_212024" data-name="Trazado 212024" d="M29.66,43.13a19.213,19.213,0,0,0-1.082-4.262,20.824,20.824,0,0,0-2.208-3.8,5.057,5.057,0,0,1,.905.95,12.146,12.146,0,0,1,1.568,2.738,10.909,10.909,0,0,1,.773,3.07A5.388,5.388,0,0,1,29.66,43.13Z" transform="translate(25.23 36.353)" fill="#263238"/>
    <path id="Trazado_212025" data-name="Trazado 212025" d="M37.441,35.493a2.208,2.208,0,0,1-2.208-.972,2.716,2.716,0,0,0,1.678,0c.508-.243.795-.994.4-1.391s-.817-.265-1.259-.309a2.738,2.738,0,0,1-2.341-1.767,7.95,7.95,0,0,1,0-3.379,9.3,9.3,0,0,0-3.887-8.59L22.866,15a16.01,16.01,0,0,0-2.76,11.748,31.4,31.4,0,0,0,4.417,11.616A13.559,13.559,0,0,0,26.731,41.3a5.41,5.41,0,0,0,3.18,1.634,3.29,3.29,0,0,0-.53-2.959A7.067,7.067,0,0,0,34.637,38.1l-1.5-1.17a5.543,5.543,0,0,0,4.306-1.435Z" transform="translate(17.427 12.102)" fill="#263238"/>
    <path id="Trazado_212026" data-name="Trazado 212026" d="M15.524,23.892a6.625,6.625,0,0,1,4.792-6.25l8.833-2.54c3.842-.53,6.625,4.152,6.934,8.016a61.369,61.369,0,0,1,.4,12.08,8.038,8.038,0,0,1-5.742,7.464s0,3.07.133,4.969l-1.457,8.458-11.682-10L15.524,24C15.48,23.759,15.5,24.024,15.524,23.892Z" transform="translate(12.094 12.176)" fill="#ffbe9d"/>
    <path id="Trazado_212027" data-name="Trazado 212027" d="M25.236,21.4a.839.839,0,0,1-.773.861.795.795,0,0,1-.883-.729.839.839,0,0,1,.773-.861.8.8,0,0,1,.883.729Z" transform="translate(21.859 18.95)" fill="#263238"/>
    <path id="Trazado_212028" data-name="Trazado 212028" d="M26.158,20.318a9.444,9.444,0,0,0-1.634-.309c-.905.022-1.524.6-1.524.4s0-.243.331-.464a2.341,2.341,0,0,1,1.3-.442,2.208,2.208,0,0,1,1.3.375C26.114,20.075,26.2,20.274,26.158,20.318Z" transform="translate(21.158 17.539)" fill="#263238"/>
    <path id="Trazado_212029" data-name="Trazado 212029" d="M21.686,21.39a.8.8,0,0,1-.773.861.773.773,0,0,1-.861-.707.8.8,0,0,1,.773-.861.773.773,0,0,1,.861.707Z" transform="translate(17.592 18.962)" fill="#263238"/>
    <path id="Trazado_212030" data-name="Trazado 212030" d="M22.406,20.448c-.11.11-.751-.331-1.634-.309s-1.546.508-1.634.4,0-.243.331-.464a2.284,2.284,0,0,1,2.606-.066C22.34,20.161,22.45,20.448,22.406,20.448Z" transform="translate(16.452 17.696)" fill="#263238"/>
    <path id="Trazado_212031" data-name="Trazado 212031" d="M22.411,27.12a4.77,4.77,0,0,1,1.325-.265c.221,0,.442,0,.486-.243a1.281,1.281,0,0,0-.177-.662q-.353-.817-.729-1.722A30.3,30.3,0,0,1,21.66,19.81a28.311,28.311,0,0,1,2.01,4.417l.707,1.722a1.281,1.281,0,0,1,.132.883.552.552,0,0,1-.353.353h-.4A6.735,6.735,0,0,1,22.411,27.12Z" transform="translate(19.539 17.914)" fill="#263238"/>
    <path id="Trazado_212032" data-name="Trazado 212032" d="M18.46,26.63a8.149,8.149,0,0,0,8.657,3.577V28.684A16.32,16.32,0,0,1,18.46,26.63Z" transform="translate(15.672 26.155)" fill="#eb996e"/>
    <path id="Trazado_212033" data-name="Trazado 212033" d="M22.668,18.876c0,.243-.972.155-2.01.309s-1.9.464-2.032.265,0-.353.4-.6a3.4,3.4,0,0,1,1.5-.574,3.578,3.578,0,0,1,1.59.132C22.492,18.567,22.691,18.743,22.668,18.876Z" transform="translate(15.814 16.021)" fill="#263238"/>
    <path id="Trazado_212034" data-name="Trazado 212034" d="M25.932,19.117c-.132.2-.751,0-1.5,0s-1.369.177-1.5,0,0-.309.287-.508a2.208,2.208,0,0,1,2.429,0C25.909,18.808,26,19.007,25.932,19.117Z" transform="translate(21.009 16.023)" fill="#263238"/>
    <path id="Trazado_212035" data-name="Trazado 212035" d="M20.435,24.418a1.17,1.17,0,0,1,1.193-.928,1.215,1.215,0,0,1,.95.64,1.435,1.435,0,0,1,0,1.17h0a1.347,1.347,0,0,1-1.48.375,1.259,1.259,0,0,1-.663-1.259Z" transform="translate(18.048 22.36)" fill="#eb996e"/>
    <path id="Trazado_212036" data-name="Trazado 212036" d="M23.111,25.693c0-.132-.883,0-1.59-.773a4.417,4.417,0,0,1-.795-1.7,1.055,1.055,0,0,0-.155.64,2.341,2.341,0,0,0,.618,1.413,1.965,1.965,0,0,0,1.347.6C22.912,25.87,23.133,25.76,23.111,25.693Z" transform="translate(18.221 22.034)" fill="#263238"/>
    <path id="Trazado_212037" data-name="Trazado 212037" d="M16.86,16.45a9.032,9.032,0,0,1,5.19-3.578A4.925,4.925,0,0,1,26.8,14.131a5.3,5.3,0,0,0,2.1,1.237,8.679,8.679,0,0,1,3.048.64c1.656.839,2.363,3.048,3.136,4.726a45.516,45.516,0,0,1,2.915,6.227,5.786,5.786,0,0,1-1.59,6.272,7.641,7.641,0,0,0-.375-5.609c-.795-1.237-2.208-1.921-3.2-2.959s-1.391-2.981-2.672-4.2c-2.915-2.783-8.082,2.208-13.25-4.019" transform="translate(13.739 9.327)" fill="#263238"/>
    <path id="Trazado_212038" data-name="Trazado 212038" d="M34.465,23.23a19.212,19.212,0,0,0-2.8-5.3,10.18,10.18,0,0,0-13.493-1.722H17.66a8.524,8.524,0,0,0,6.625,3.2,8.414,8.414,0,0,1,4.417.4c1.259.751,1.722,2.319,2.76,3.357.707.707,1.634,1.126,2.319,1.855A7.265,7.265,0,0,1,35.216,27.8a7.177,7.177,0,0,0-.751-4.571Z" transform="translate(14.705 11.38)" fill="#263238"/>
    <path id="Trazado_212039" data-name="Trazado 212039" d="M27.264,17.817l-4.13-3.644c-3.246-.155-5.3,2.893-6.426,5.234-.817,1.767-1.06,3.71-1.7,5.543s-1.656,3.622-2.208,5.521a6.625,6.625,0,0,0,.486,5.742l.729-1.325a8.083,8.083,0,0,0,2.208,4.969l.287-1.391a7.751,7.751,0,0,0,3.114,3.357l1.877,5.1C24.371,38.288,17,37.626,27.264,17.817Z" transform="translate(8.303 11.096)" fill="#263238"/>
    <path id="Trazado_212040" data-name="Trazado 212040" d="M25.546,18.5a17.667,17.667,0,0,1-.972,3.467,6.625,6.625,0,0,1-2.208,2.849,13.493,13.493,0,0,1-4.947,1.634,5.9,5.9,0,0,0-4.13,2.716A41.959,41.959,0,0,1,14.858,22.3a12.654,12.654,0,0,1,3.931-6.625,7.221,7.221,0,0,1,6.8-.994" transform="translate(9.425 11.184)" fill="#263238"/>
    <path id="Trazado_212041" data-name="Trazado 212041" d="M19.106,21.565a2.672,2.672,0,0,0-4.085,2.694,3.092,3.092,0,0,0,4.2,3.07C19.261,27.218,19.106,21.565,19.106,21.565Z" transform="translate(11.47 19.516)" fill="#ffbe9d"/>
    <path id="Trazado_212042" data-name="Trazado 212042" d="M17.407,25l-.177.11a.905.905,0,0,1-.552,0,1.789,1.789,0,0,1-.839-1.59,2.208,2.208,0,0,1,.177-1.016.817.817,0,0,1,.53-.574.375.375,0,0,1,.42.2c0,.11,0,.2,0,.2v-.243a.42.42,0,0,0-.177-.243.574.574,0,0,0-.4,0,1.038,1.038,0,0,0-.729.662,2.429,2.429,0,0,0-.221,1.148,1.855,1.855,0,0,0,1.082,1.745.707.707,0,0,0,.64-.11C17.407,25.086,17.429,25,17.407,25Z" transform="translate(12.021 20.323)" fill="#eb996e"/>
    <path id="Trazado_212043" data-name="Trazado 212043" d="M16.646,23.583a.861.861,0,0,0-.928.64.817.817,0,0,0,1.568.442.839.839,0,0,0-.442-1.016" transform="translate(12.341 22.467)" fill="#fff"/>
    <path id="Trazado_212044" data-name="Trazado 212044" d="M16.887,23.654a1.06,1.06,0,0,1,.375.53.685.685,0,0,1-.133.663.883.883,0,0,1-.773.243.817.817,0,0,1-.508-.618.663.663,0,0,1,.221-.618,1.237,1.237,0,0,1,.618-.265.375.375,0,0,0-.2,0,.839.839,0,0,0-.508.2.861.861,0,0,0-.309.751.95.95,0,0,0,.64.773.972.972,0,0,0,.95-.309.839.839,0,0,0,.132-.8.817.817,0,0,0-.331-.442C16.953,23.654,16.887,23.631,16.887,23.654Z" transform="translate(12.298 22.462)" fill="#263238"/>
    <path id="Trazado_212045" data-name="Trazado 212045" d="M15.853,29.312H15.72a2.385,2.385,0,0,1-.309-.331,4.748,4.748,0,0,1-.861-1.391,4.88,4.88,0,0,1-.331-2.429,4.13,4.13,0,0,1,1.458-2.584,9.673,9.673,0,0,1,2.518-1.59c.839-.375,1.59-.685,2.208-1.016a10.225,10.225,0,0,0,1.789-1.281,2.363,2.363,0,0,1-.375.464,6.184,6.184,0,0,1-1.325.994,21,21,0,0,1-2.208,1.06,10.445,10.445,0,0,0-2.5,1.48A4.041,4.041,0,0,0,14.4,25.116a5.145,5.145,0,0,0,.265,2.208,7.53,7.53,0,0,0,1.192,1.987Z" transform="translate(10.506 16.561)" fill="#455a64"/>
    <path id="Trazado_212046" data-name="Trazado 212046" d="M14.954,26.607a.994.994,0,0,1-.177-.4,3.379,3.379,0,0,1-.155-1.193,4,4,0,0,1,.508-1.722,3.8,3.8,0,0,1,1.612-1.5A19.875,19.875,0,0,1,18.752,21a5.962,5.962,0,0,0,1.5-.839,3.18,3.18,0,0,0,.928-1.259s0,.155,0,.42a2.981,2.981,0,0,1-.707.994,5.72,5.72,0,0,1-1.546.905c-.618.265-1.3.486-1.965.817a3.6,3.6,0,0,0-1.5,1.5,3.842,3.842,0,0,0-.53,1.612,6.294,6.294,0,0,0,.022,1.457Z" transform="translate(11.03 16.814)" fill="#455a64"/>
    <path id="Trazado_212047" data-name="Trazado 212047" d="M21.2,18.815a10.379,10.379,0,0,0-1.59-2.65A11.483,11.483,0,0,0,17.18,14.2a2.208,2.208,0,0,1,.883.353,6.758,6.758,0,0,1,1.745,1.435,6.4,6.4,0,0,1,1.17,1.921A2.507,2.507,0,0,1,21.2,18.815Z" transform="translate(14.125 11.135)" fill="#455a64"/>
    <path id="Trazado_212048" data-name="Trazado 212048" d="M31.193,28.277a1.59,1.59,0,0,1-.53,0A11.616,11.616,0,0,1,29.25,27.9a6.625,6.625,0,0,1-.905-.42,2.208,2.208,0,0,1-.905-.773,1.259,1.259,0,0,1-.243-.618v-.662a4.152,4.152,0,0,1,.243-1.369,5.587,5.587,0,0,0,.287-1.281,1.965,1.965,0,0,0-.309-1.126,8.171,8.171,0,0,0-1.435-1.546,12.589,12.589,0,0,0-1.082-.928l-.42-.309a4.527,4.527,0,0,1,1.634,1.1,7.751,7.751,0,0,1,1.5,1.546,2.208,2.208,0,0,1,.375,1.259,5.808,5.808,0,0,1-.287,1.369,3.865,3.865,0,0,0-.243,1.281,1.457,1.457,0,0,0,0,.309v.309a1.877,1.877,0,0,0,.2.53,2.208,2.208,0,0,0,.817.707c.287.177.6.309.861.442A9.19,9.19,0,0,1,31.193,28.277Z" transform="translate(22.946 16.778)" fill="#455a64"/>
    <path id="Trazado_212049" data-name="Trazado 212049" d="M20.89,105.591l.221-5.786,10.048-.375L31,106.5,27.36,108.7Z" transform="translate(18.608 114.121)" fill="#ffbe9d"/>
    <path id="Trazado_212050" data-name="Trazado 212050" d="M31.587,102.242v.663s11.152,4.615,11.24,6.625L20.59,109.2l.42-7.4a12.676,12.676,0,0,0,10.578.442Z" transform="translate(18.246 116.985)" fill="#ff725e"/>
    <g id="Grupo_145860" data-name="Grupo 145860" transform="translate(38.836 218.785)" opacity="0.3">
      <path id="Trazado_212051" data-name="Trazado 212051" d="M31.587,102.242v.663s11.152,4.615,11.24,6.625L20.59,109.2l.42-7.4a12.676,12.676,0,0,0,10.578.442Z" transform="translate(-20.59 -101.8)" fill="#f67409"/>
    </g>
    <g id="Grupo_145861" data-name="Grupo 145861" transform="translate(40.837 221.414)" opacity="0.6">
      <path id="Trazado_212052" data-name="Trazado 212052" d="M22.123,103.012a.861.861,0,0,0,.375,1.678.972.972,0,0,0,.685-1.1.905.905,0,0,0-1.126-.552" transform="translate(-21.496 -102.99)" fill="#fff"/>
    </g>
    <g id="Grupo_145862" data-name="Grupo 145862" transform="translate(38.836 224.593)" opacity="0.6">
      <path id="Trazado_212053" data-name="Trazado 212053" d="M20.59,106.2l.11-1.767,21.266.95s.994.464.861,1.148Z" transform="translate(-20.59 -104.43)" fill="#fff"/>
    </g>
    <path id="Trazado_212054" data-name="Trazado 212054" d="M26.715,102.412a4.688,4.688,0,0,0-1.082.486c-.53.331-.839.795-.927.751s0-.663.729-1.06S26.737,102.323,26.715,102.412Z" transform="translate(23.185 117.61)" fill="#263238"/>
    <path id="Trazado_212055" data-name="Trazado 212055" d="M27.467,102.829a3.969,3.969,0,0,0-.817.751c-.375.464-.486.928-.6.928s-.177-.618.309-1.17S27.467,102.741,27.467,102.829Z" transform="translate(24.752 118.186)" fill="#263238"/>
    <path id="Trazado_212056" data-name="Trazado 212056" d="M27.289,105.115a1.528,1.528,0,0,1,0-1.126c.243-.6.795-.817.861-.729s-.287.4-.508.905S27.4,105.093,27.289,105.115Z" transform="translate(26.21 118.727)" fill="#263238"/>
    <path id="Trazado_212057" data-name="Trazado 212057" d="M16.8,105.629l.221-5.764,10.048-.375-.155,7.067-3.644,2.208Z" transform="translate(13.666 114.194)" fill="#ffbe9d"/>
    <path id="Trazado_212058" data-name="Trazado 212058" d="M27.5,102.332v.663s11.152,4.615,11.24,6.625L16.5,109.288l.42-7.4a12.676,12.676,0,0,0,10.578.442Z" transform="translate(13.304 117.094)" fill="#f67409"/>
    <g id="Grupo_145863" data-name="Grupo 145863" transform="translate(31.782 221.414)" opacity="0.6">
      <path id="Trazado_212059" data-name="Trazado 212059" d="M18.046,103.012a.927.927,0,0,0-.64,1.016.905.905,0,0,0,1.016.663.994.994,0,0,0,.685-1.1.905.905,0,0,0-1.126-.552" transform="translate(-17.396 -102.99)" fill="#fff"/>
    </g>
    <g id="Grupo_145864" data-name="Grupo 145864" transform="translate(29.804 224.726)" opacity="0.6">
      <path id="Trazado_212060" data-name="Trazado 212060" d="M16.5,106.257l.11-1.767,21.266.95s.994.442.861,1.148Z" transform="translate(-16.5 -104.49)" fill="#fff"/>
    </g>
    <path id="Trazado_212061" data-name="Trazado 212061" d="M22.625,102.472a4.688,4.688,0,0,0-1.082.486c-.53.331-.839.795-.928.751s0-.663.729-1.06S22.647,102.383,22.625,102.472Z" transform="translate(18.243 117.683)" fill="#263238"/>
    <path id="Trazado_212062" data-name="Trazado 212062" d="M23.377,102.889a3.969,3.969,0,0,0-.817.751c-.375.464-.486.927-.6.927s-.177-.618.309-1.17S23.377,102.8,23.377,102.889Z" transform="translate(19.81 118.259)" fill="#263238"/>
    <path id="Trazado_212063" data-name="Trazado 212063" d="M23.2,105.175a1.528,1.528,0,0,1,0-1.126c.243-.6.8-.817.839-.729s-.265.4-.486.905S23.309,105.153,23.2,105.175Z" transform="translate(21.268 118.8)" fill="#263238"/>
    <path id="Trazado_212064" data-name="Trazado 212064" d="M10,44.515s8.37,12.963,12.742,18.2,11.616.618,12.433-6.492.64-20.272.64-20.272l-5.94-3.467L26.1,50.456l-4.682-8.833Z" transform="translate(5.45 33.224)" fill="#ffbe9d"/>
    <path id="Trazado_212065" data-name="Trazado 212065" d="M24.857,43.723l2.5-6.272a8.678,8.678,0,0,0,1.48-.839,6.36,6.36,0,0,0,.2-3.025c-.11-.42.4-1.568,0-1.767s-1.369,0-1.391-.42c0,0,.508-1.148-.221-1.678a3.047,3.047,0,0,0-1.148-.221l-.42-2.076s-1.678-2.208-2.606-1.038c0,0-3.555,4.284-3.865,4.9a83.436,83.436,0,0,0-.375,9.253" transform="translate(16.319 25.448)" fill="#ffbe9d"/>
    <path id="Trazado_212066" data-name="Trazado 212066" d="M19,40.544V35.2a20.516,20.516,0,0,1,.132-2.783v-.773a1.413,1.413,0,0,1,.353-.729c.309-.442.662-.861.994-1.3l2.208-2.76a3.335,3.335,0,0,1,.685-.685,1.1,1.1,0,0,1,1.016,0,4.682,4.682,0,0,1,1.5,1.281h0l.132.64.287,1.435-.132-.11h.817a1.966,1.966,0,0,1,.42.155,1.038,1.038,0,0,1,.287.331,1.413,1.413,0,0,1,.132.839v.574h0a.42.42,0,0,0,.243.11h.751a.95.95,0,0,1,.42.177.685.685,0,0,1,.11.442c0,.132,0,.243,0,.375s-.11.464-.132.685a.729.729,0,0,0,0,.309v1.06a8.834,8.834,0,0,1,0,1.325,1.435,1.435,0,0,1-.2.64,1.656,1.656,0,0,1-.53.4c-.331.2-.685.375-1.038.552h0c-.8,1.9-1.435,3.467-1.877,4.571l-.53,1.237-.2.42a2.209,2.209,0,0,1,.133-.442l.486-1.259c.442-1.126,1.038-2.694,1.789-4.593h0a7.663,7.663,0,0,0,1.016-.552,1.259,1.259,0,0,0,.464-.331,1.347,1.347,0,0,0,.155-.552,8.083,8.083,0,0,0,0-1.281c0-.221,0-.442,0-.685V33.61a1.237,1.237,0,0,1,0-.4l.133-.707a1.943,1.943,0,0,0,0-.353v-.243c0-.022-.155,0-.265,0H28.01a.707.707,0,0,1-.42-.221.309.309,0,0,1,0-.132h0v-.177a2.738,2.738,0,0,0,0-.353,1.193,1.193,0,0,0,0-.685.663.663,0,0,0-.552-.353,4.417,4.417,0,0,0-.751,0h0l-.4-1.833-.132-.64h0A4.527,4.527,0,0,0,24.366,26.3a.861.861,0,0,0-.773,0,3.356,3.356,0,0,0-.6.64c-.795.95-1.524,1.855-2.208,2.738L19.8,30.96a1.48,1.48,0,0,0-.331.64v.751c0,.994-.132,1.921-.177,2.76a33.844,33.844,0,0,1-.132,4v1.082A.7.7,0,0,0,19,40.544Z" transform="translate(16.325 25.447)" fill="#eb996e"/>
    <path id="Trazado_212067" data-name="Trazado 212067" d="M25.787,27.611a8.436,8.436,0,0,1-1.1.331,10.314,10.314,0,0,0-1.126.552,6.228,6.228,0,0,1-1.5.353,2.893,2.893,0,0,0-2.208,1.325,3.688,3.688,0,0,0-.375,1.038,1.413,1.413,0,0,1,.221-1.148,2.827,2.827,0,0,1,.861-.95,3.114,3.114,0,0,1,1.48-.53,5.653,5.653,0,0,0,1.457-.331,8.083,8.083,0,0,1,1.148-.486,3.489,3.489,0,0,1,1.148-.155Z" transform="translate(16.847 27.338)" fill="#eb996e"/>
    <path id="Trazado_212068" data-name="Trazado 212068" d="M21.817,28.349a.774.774,0,0,1-.353-.53c-.066-.375,0-.64.155-.618s0,.287.11.574A.886.886,0,0,1,21.817,28.349Z" transform="translate(19.271 26.843)" fill="#eb996e"/>
    <path id="Trazado_212069" data-name="Trazado 212069" d="M26.007,28.5a9.672,9.672,0,0,1-3.29.486,3.577,3.577,0,0,0-1.237.11,1.458,1.458,0,0,0-.64.685,6.78,6.78,0,0,0-.243.927,1.48,1.48,0,0,1,0-.994,1.458,1.458,0,0,1,.729-.839,2.959,2.959,0,0,1,1.325-.155C24.506,28.695,26.007,28.43,26.007,28.5Z" transform="translate(18.15 28.397)" fill="#eb996e"/>
    <path id="Trazado_212070" data-name="Trazado 212070" d="M25.995,29.369a1.855,1.855,0,0,1-.8.177H23.256a4.527,4.527,0,0,0-1.016.132,1.237,1.237,0,0,0-.662.42,1.259,1.259,0,0,0-.221.707.375.375,0,0,1,0-.2.905.905,0,0,1,.155-.618,1.281,1.281,0,0,1,.729-.552,3.511,3.511,0,0,1,1.1-.155h1.943a3.776,3.776,0,0,1,.707.088Z" transform="translate(19.157 29.357)" fill="#eb996e"/>
    <path id="Trazado_212071" data-name="Trazado 212071" d="M23.568,30.15a1.3,1.3,0,0,1-.883.64l.11-.132v.353a3.29,3.29,0,0,1,0,1.435,3.953,3.953,0,0,1-.265-1.413v-.486h.11a4.792,4.792,0,0,0,.928-.4Z" transform="translate(20.59 30.408)" fill="#eb996e"/>
    <path id="Trazado_212072" data-name="Trazado 212072" d="M47.711,49s7.442,16.408,7.442,26.677-7.287,43.769-7.287,43.769-.994,9.3-1.965,21.686A146.852,146.852,0,0,1,42.146,164.1H34.815l-11.881.331s-5.057-20.692-4.726-28.532,1.634-16.761,1.634-16.761-6.36-25.97-7.464-30.63a50.945,50.945,0,0,1-.685-9.143,59.758,59.758,0,0,1,4.2-22.569l2.076-5.278Z" transform="translate(7.488 53.185)" fill="#263238"/>
    <path id="Trazado_212073" data-name="Trazado 212073" d="M25.048,63.84s-.95,18.373-1.965,41.031S21.316,145.9,21.4,145.9s.972-18.351,1.965-41.031S25.136,63.84,25.048,63.84Z" transform="translate(19.221 71.117)" fill="#455a64"/>
    <path id="Trazado_212074" data-name="Trazado 212074" d="M24.674,73.21a5.411,5.411,0,0,0,.155-.905c0-.574.2-1.435.287-2.5a56.134,56.134,0,0,0,0-8.281,56.092,56.092,0,0,0-1.17-8.215c-.243-1.038-.464-1.855-.618-2.429A7.287,7.287,0,0,0,23.04,50a4.859,4.859,0,0,0,.177.905c.132.574.309,1.413.508,2.451a64.438,64.438,0,0,1,1.1,8.193,64.308,64.308,0,0,1,0,8.259,21.1,21.1,0,0,1-.177,2.5,5.587,5.587,0,0,0,.022.905Z" transform="translate(21.206 54.394)" fill="#455a64"/>
    <path id="Trazado_212075" data-name="Trazado 212075" d="M12.47,60.3a1.766,1.766,0,0,0,.508.309,3.8,3.8,0,0,0,1.612.265,9.452,9.452,0,0,0,4.9-1.988A11.616,11.616,0,0,0,22.871,54.8a9.8,9.8,0,0,0,.6-1.5,1.877,1.877,0,0,0,.132-.6,12.921,12.921,0,0,1-.905,1.988,12.146,12.146,0,0,1-3.379,3.953,9.8,9.8,0,0,1-4.748,2.032,4.417,4.417,0,0,1-2.1-.375Z" transform="translate(8.434 57.656)" fill="#455a64"/>
    <path id="Trazado_212076" data-name="Trazado 212076" d="M26.37,51.71a1.48,1.48,0,0,0,.132.53,10.267,10.267,0,0,0,.508,1.369,14.486,14.486,0,0,0,2.672,4.019,14.994,14.994,0,0,0,3.82,2.915,11.194,11.194,0,0,0,1.325.6,1.987,1.987,0,0,0,.53.155s-.707-.331-1.745-.927a15.856,15.856,0,0,1-6.426-6.846A17.388,17.388,0,0,0,26.37,51.71Z" transform="translate(25.23 56.46)" fill="#455a64"/>
    <path id="Trazado_212077" data-name="Trazado 212077" d="M21.632,52.315a.645.645,0,0,1,.11-.309,1.148,1.148,0,0,1,.464-.64,1.237,1.237,0,0,1,1.1-.133,1.17,1.17,0,0,1,.729,1.082,1.148,1.148,0,0,1-.729,1.06,1.17,1.17,0,0,1-1.1-.133,1.148,1.148,0,0,1-.464-.64c0-.177,0-.287-.11-.287a.574.574,0,0,0,0,.309,1.126,1.126,0,0,0,.442.773,1.369,1.369,0,0,0,1.325.243,1.391,1.391,0,0,0,.927-1.325A1.347,1.347,0,0,0,23.4,50.99a1.435,1.435,0,0,0-1.325.221,1.17,1.17,0,0,0-.442.773.663.663,0,0,0,0,.331Z" transform="translate(19.479 55.501)" fill="#455a64"/>
    <path id="Trazado_212078" data-name="Trazado 212078" d="M17,80.54A36.042,36.042,0,0,0,20.953,82.9a42.733,42.733,0,0,0,4.063,2.208,36.946,36.946,0,0,0-3.931-2.363A34.318,34.318,0,0,0,17,80.54Z" transform="translate(13.908 91.296)" fill="#455a64"/>
    <path id="Trazado_212079" data-name="Trazado 212079" d="M39.017,34.986,24.839,56.54a.663.663,0,0,0,.618.994l16.32-2.054a.618.618,0,0,0,.442-.265L57.809,33.926a.64.64,0,0,0-.552-1.016L40.452,34.147a1.921,1.921,0,0,0-1.435.839Z" transform="translate(23.272 33.743)" fill="#e0e0e0"/>
    <path id="Trazado_212080" data-name="Trazado 212080" d="M39.016,35.082l.132-.2a2.385,2.385,0,0,1,.53-.442,2.518,2.518,0,0,1,1.082-.265h1.524l9.695-.972,3.2-.243,1.7-.133h.464a.662.662,0,0,1,.464.2.707.707,0,0,1,.11.95l-4.527,6.294L42.969,54.516l-.685.95a.927.927,0,0,1-.309.2h-.883l-2.208.287-4.417.552-8.436,1.06h-.508a.8.8,0,0,1-.552-.221.861.861,0,0,1-.221-.552.883.883,0,0,1,.2-.508l1.082-1.634,2.054-3.136,3.688-5.587,5.388-8.082,1.458-2.208.4-.552.132-.2a.574.574,0,0,1-.11.2l-.375.6-1.413,2.208-5.322,8.347-3.688,5.609c-.662,1.016-1.347,2.054-2.032,3.136l-1.082,1.634a.552.552,0,0,0-.155.375.618.618,0,0,0,.155.375.42.42,0,0,0,.177.133h.508l8.436-1.082,4.417-.552,2.208-.287h.6a.773.773,0,0,0,.243,0h.2l.685-.927L53.017,40.4l4.549-6.183a.574.574,0,0,0,0-.685.442.442,0,0,0-.243-.331H56.9l-1.7.132-3.224.221-9.695.662h-1.5a2.407,2.407,0,0,0-1.082.221,2.5,2.5,0,0,0-.685.64Z" transform="translate(23.272 33.647)" fill="#263238"/>
    <path id="Trazado_212081" data-name="Trazado 212081" d="M57.217,33.37H55.892L52.2,33.7,39.66,34.717h0l-2.407,3.644c-3.312,5.079-6.205,9.761-8.392,13.1-1.082,1.656-1.987,3-2.606,3.909l-.729,1.06a2.891,2.891,0,0,1-.287.353l.221-.4.707-1.06,2.54-3.975c2.208-3.357,5.013-8.038,8.325-13.14.817-1.259,1.634-2.473,2.407-3.622h0l12.543-.927,3.71-.265h.994Z" transform="translate(23.865 34.299)" fill="#263238"/>
    <path id="Trazado_212082" data-name="Trazado 212082" d="M35.14,34.75Z" transform="translate(35.827 35.967)" fill="#fff"/>
    <path id="Trazado_212083" data-name="Trazado 212083" d="M35.836,35a.309.309,0,0,0-.4-.243A.729.729,0,0,0,35,35a.42.42,0,0,0,0,.552c.155.2.486.133.685,0A.53.53,0,0,0,35.836,35Z" transform="translate(35.529 35.959)" fill="#fff"/>
    <path id="Trazado_212084" data-name="Trazado 212084" d="M33.388,41.327s-.64-1.546.994-1.745a56.273,56.273,0,0,1,5.918,0s2.363.265,1.855,1.943c0,0,1.391,1.237.64,2.584s-1.038.927-1.038.927.2,1.634-1.038,1.877c0,0-1.347,1.59-2.584,1.5a25.462,25.462,0,0,1-6.824-3.136c-.353-.486-.839-.773-.552-1.325,0,0-.64-1.457.751-1.678C31.467,42.277,31.6,41.084,33.388,41.327Z" transform="translate(30.357 41.712)" fill="#ffbe9d"/>
    <path id="Trazado_212085" data-name="Trazado 212085" d="M39.278,40.991a4.218,4.218,0,0,1-1.1,0h-2.65a15.7,15.7,0,0,1-2.694-.177c-.685-.155-.972-.574-.927-.574a2.915,2.915,0,0,0,.972.4,23.742,23.742,0,0,0,2.65,0h2.65A3.622,3.622,0,0,1,39.278,40.991Z" transform="translate(31.91 42.6)" fill="#eb996e"/>
    <path id="Trazado_212086" data-name="Trazado 212086" d="M39.224,43.114a.875.875,0,0,0-.353.133,4.417,4.417,0,0,1-1.016,0,8.834,8.834,0,0,1-1.5-.287l-1.745-.552a9.055,9.055,0,0,0-1.745-.353,2.518,2.518,0,0,1-1.5-.309.729.729,0,0,1-.353-.508.773.773,0,0,1,0-.464c.132-.243.309-.243.309-.243s-.132,0-.2.287a.64.64,0,0,0,.309.773,2.827,2.827,0,0,0,1.391.221,7.066,7.066,0,0,1,1.833.353l1.745.552a6.912,6.912,0,0,0,1.435.331,7.264,7.264,0,0,0,1.391.066Z" transform="translate(30.793 42.951)" fill="#eb996e"/>
    <path id="Trazado_212087" data-name="Trazado 212087" d="M37.9,43.955a3.755,3.755,0,0,1-1.1-.221c-.685-.155-1.59-.42-2.606-.751s-1.9-.662-2.54-.927a4.417,4.417,0,0,1-1.016-.486s1.634.508,3.644,1.148A35.8,35.8,0,0,1,37.9,43.955Z" transform="translate(30.377 44.207)" fill="#eb996e"/>
    <path id="Trazado_212088" data-name="Trazado 212088" d="M37.264,44.787a2.208,2.208,0,0,1-.927-.11,10.269,10.269,0,0,1-2.076-.729c-.795-.353-1.48-.729-1.987-.994a4.019,4.019,0,0,1-.773-.464A16.937,16.937,0,0,1,34.371,43.7C35.917,44.433,37.264,44.72,37.264,44.787Z" transform="translate(31.429 45.319)" fill="#eb996e"/>
    <path id="Trazado_212089" data-name="Trazado 212089" d="M14.564,30.36s-6.735,2.8-5.057,11.7,2.54,11.792,2.54,11.792L25.3,46.9Z" transform="translate(4.529 30.662)" fill="#f67409"/>
    <path id="Trazado_212090" data-name="Trazado 212090" d="M23.473,37.941l-.486.309-1.369.773c-1.17.64-2.782,1.5-4.571,2.429l-4.593,2.385-1.413.685a1.48,1.48,0,0,1-.53.221L11,44.434l1.369-.773c1.148-.64,2.76-1.5,4.549-2.429s3.423-1.789,4.615-2.385l1.391-.685A4.64,4.64,0,0,0,23.473,37.941Z" transform="translate(6.066 39.82)" fill="#263238"/>
    <path id="Trazado_212091" data-name="Trazado 212091" d="M18.978,42.616a7.994,7.994,0,0,1-.729-1.237l-1.678-3.047-1.7-3a6.382,6.382,0,0,1-.64-1.259,7.552,7.552,0,0,1,.8,1.17c.486.751,1.1,1.789,1.767,2.959s1.237,2.208,1.634,3.048A7.862,7.862,0,0,1,18.978,42.616Z" transform="translate(10.561 35.145)" fill="#263238"/>
  </g>
</svg>
