<svg xmlns="http://www.w3.org/2000/svg" width="188.813" height="238.137" viewBox="0 0 188.813 238.137">
  <g id="ILUSTRACIONES-09" transform="translate(-7 -4)">
    <path id="Trazado_211804" data-name="Trazado 211804" d="M45.484,54.6a11.465,11.465,0,0,1,3.072,0l1.6-2.293,4.379,1.72-.436,2.82A10.753,10.753,0,0,1,56.4,58.982l2.8-.55,1.88,4.333-2.293,1.674a11.465,11.465,0,0,1,0,3.072l2.293,1.6L59.356,73.5l-2.82-.436A11.464,11.464,0,0,1,54.4,75.353l.527,2.774-4.2,1.7-1.674-2.293a11.464,11.464,0,0,1-3.072,0l-1.6,2.293L40,78.1l.436-2.82a10.867,10.867,0,0,1-2.293-2.132l-2.8.55-1.88-4.333,2.293-1.674a12.541,12.541,0,0,1,0-3.072l-2.293-1.6,1.72-4.379,2.8.436a13.046,13.046,0,0,1,2.132-2.293l-.527-2.8,4.265-1.674L45.53,54.6Zm0,6.741a5.044,5.044,0,1,0,5.377.168,5.044,5.044,0,0,0-5.377-.168Z" transform="translate(34.221 62.456)" fill="#f5f5f5"/>
    <path id="Trazado_211805" data-name="Trazado 211805" d="M19.954,75.652a11.946,11.946,0,0,1,3.256,0l1.7-2.5,4.586,1.834-.459,2.981a12.864,12.864,0,0,1,2.293,2.293l3.187-.55L36.509,84.3l-2.43,1.788a11.762,11.762,0,0,1,0,3.233l2.5,1.72-1.834,4.586-2.981-.459a12.771,12.771,0,0,1-2.293,2.293l.459,2.889-4.586,1.972-1.788-2.43a11.946,11.946,0,0,1-3.256,0l-1.6,2.751L14.108,100.8l.459-2.981a12.176,12.176,0,0,1-2.293-2.293l-2.981.482L7.3,91.427l2.43-1.788a12.908,12.908,0,0,1,0-3.256L7,84.686,8.811,80.1l3,.459a10.846,10.846,0,0,1,2.293-2.293l-.5-3.141,4.586-1.995,1.788,2.453Zm0,7.154a70.489,70.489,0,1,0-.092,0Z" transform="translate(0 89.372)" fill="#ebebeb"/>
    <path id="Trazado_211806" data-name="Trazado 211806" d="M56.451,12.874a20.268,20.268,0,0,1,4.723-2.041l.963-4.586L70,6.11,71.148,10.7a18.343,18.343,0,0,1,4.769,1.88l3.99-2.614,5.64,5.457L83.094,19.5a18.961,18.961,0,0,1,2.018,4.7l4.586.963.138,7.864-4.586,1.146a19.305,19.305,0,0,1-1.88,4.769L85.96,42.91,80.5,48.573,76.445,46.12a19.351,19.351,0,0,1-4.586,2.041l-.986,4.586-7.864.138L61.885,48.3a19.236,19.236,0,0,1-4.769-1.857l-3.99,2.591-5.709-5.457,2.476-4.058a19.123,19.123,0,0,1-2.041-4.723l-4.586-.963-.138-7.864,4.586-1.123A19.833,19.833,0,0,1,49.6,20.05l-2.614-3.967,5.411-5.64L56.451,12.9Zm4.2,10.5a8.438,8.438,0,1,0,11.923-.229,8.438,8.438,0,0,0-11.923.229Z" transform="translate(46.709 2.728)" fill="#f5f5f5"/>
    <path id="Trazado_211807" data-name="Trazado 211807" d="M36.782,8.586a13.757,13.757,0,0,1,3.1-1.307l.642-3.141L45.908,4l.848,3.118a13.757,13.757,0,0,1,3.233,1.238l2.683-1.765,3.852,3.669-1.651,2.751A12.794,12.794,0,0,1,56.294,16.2l3.141.619.138,5.319-3.118.78a13.115,13.115,0,0,1-1.261,3.256l1.788,2.66-3.668,3.852-2.751-1.628a14.032,14.032,0,0,1-3.187,1.4l-.619,3.141-5.319.138-.8-3.118A14.238,14.238,0,0,1,37.4,31.376l-2.683,1.765-4.012-3.669,1.651-2.751a12.725,12.725,0,0,1-1.4-3.187l-3.164-.619L27.68,17.6l3.118-.78a13.046,13.046,0,0,1,1.238-3.256l-1.7-2.683,3.669-3.852Zm2.889,7.085a4.039,4.039,0,1,1,0,.092Z" transform="translate(26.735)" fill="#ebebeb"/>
    <path id="Trazado_211808" data-name="Trazado 211808" d="M37.432,25.43a12.221,12.221,0,0,1,3.027-1.307l.619-3h5.044l.734,2.981a12.909,12.909,0,0,1,3.072,1.192l2.545-1.674,3.646,3.508-1.582,2.614a13,13,0,0,1,1.307,3.027l3,.642v5.044l-2.981.734a12.908,12.908,0,0,1-1.192,3.072L56.348,44.8l-3.439,3.554-2.614-1.582a12.221,12.221,0,0,1-3.027,1.307l-.619,3H41.605l-.734-2.728A12.083,12.083,0,0,1,37.8,47.143l-2.545,1.674-3.646-3.508L33.19,42.7a12.22,12.22,0,0,1-1.307-3.027l-3-.619V34.006l2.981-.734a12.909,12.909,0,0,1,1.1-3.256l-1.674-2.568,3.531-3.623,2.614,1.582Zm2.683,6.878a5.411,5.411,0,1,0,3.812-1.668A5.434,5.434,0,0,0,40.115,32.309Z" transform="translate(28.287 22.133)" fill="#f5f5f5"/>
    <path id="Trazado_211809" data-name="Trazado 211809" d="M23.082,15.849a5.2,5.2,0,0,1,1.467-.642l.321-1.467h2.476l.344,1.444a6.122,6.122,0,0,1,1.513.6l1.238-.825,1.788,1.72-.78,1.284a5.755,5.755,0,0,1,.642,1.49l1.467.3v2.476l-1.467.344a6.053,6.053,0,0,1-.573,1.513l.8,1.261L30.6,27.107l-1.261-.78a5.342,5.342,0,0,1-1.49.642l-.3,1.467H25.076l-.367-1.444a6.328,6.328,0,0,1-1.49-.6l-1.261.825L20.17,25.5l.78-1.284a6.649,6.649,0,0,1-.642-1.49l-1.467-.3V19.954l1.467-.344a5.342,5.342,0,0,1,.6-1.513l-.825-1.238L21.8,15.07l1.284.78Zm1.307,3.3a2.637,2.637,0,1,0,1.88-.788A2.66,2.66,0,0,0,24.389,19.151Z" transform="translate(15.307 12.592)" fill="#f5f5f5"/>
    <path id="Trazado_211810" data-name="Trazado 211810" d="M151.02,28.048l.711,139.4-103.406-.206-7.245-6.466L47.592,26.512l97.009-8Z" transform="translate(44.059 18.759)" fill="#e0e0e0"/>
    <path id="Trazado_211811" data-name="Trazado 211811" d="M144.6,18.51l-.115,142.177-103.406.092L42.364,18.67Z" transform="translate(44.059 18.759)" fill="#fafafa"/>
    <path id="Trazado_211812" data-name="Trazado 211812" d="M144.7,18.51l-102.237.275V18.67c-.344,39.734-.8,88.915-1.261,142.154l-.138-.138H144.475l-.115.115c.138-84.055.229-141.054.229-142.154V160.94H41V160.8c.481-53.17.94-102.351,1.307-142.154h0Z" transform="translate(43.956 18.759)" fill="#263238"/>
    <path id="Trazado_211813" data-name="Trazado 211813" d="M49.434,35.973l34.759-.229a2.064,2.064,0,0,0,2.041-2.064h0A2.086,2.086,0,0,0,84.17,31.64l-34.759.252a2.041,2.041,0,0,0-2.041,2.064h0a2.041,2.041,0,0,0,2.064,2.018Z" transform="translate(52.191 35.733)" fill="#e0e0e0"/>
    <path id="Trazado_211814" data-name="Trazado 211814" d="M49.414,39.443l34.736-.229a2.064,2.064,0,0,0,2.041-2.064h0a2.041,2.041,0,0,0-2.064-2.041l-34.759.252A2.018,2.018,0,0,0,47.35,37.4h0a2.018,2.018,0,0,0,2.064,2.041Z" transform="translate(52.165 40.219)" fill="#e0e0e0"/>
    <path id="Trazado_211815" data-name="Trazado 211815" d="M49.384,42.893l34.759-.229A2.086,2.086,0,0,0,86.183,40.6h0A2.041,2.041,0,0,0,84.12,38.56l-34.759.229a2.064,2.064,0,0,0-2.041,2.064h0a2.041,2.041,0,0,0,2.064,2.041Z" transform="translate(52.126 44.68)" fill="#e0e0e0"/>
    <path id="Trazado_211816" data-name="Trazado 211816" d="M49.354,46.353,84.113,46.1a2.041,2.041,0,0,0,2.041-2.064h0A2.041,2.041,0,0,0,84.09,42.02l-34.759.229a2.064,2.064,0,0,0-2.041,2.064h0A2.086,2.086,0,0,0,49.354,46.353Z" transform="translate(52.087 49.153)" fill="#e0e0e0"/>
    <path id="Trazado_211817" data-name="Trazado 211817" d="M49.334,49.826l34.736-.252a2.018,2.018,0,0,0,2.041-2.064h0a2.041,2.041,0,0,0-2.064-2.041l-34.759.252a2.041,2.041,0,0,0-2.018,2.064h0a2.041,2.041,0,0,0,2.064,2.041Z" transform="translate(52.062 53.613)" fill="#e0e0e0"/>
    <path id="Trazado_211818" data-name="Trazado 211818" d="M49.3,53.286l34.759-.252A2.064,2.064,0,0,0,86.1,50.971h0A2.086,2.086,0,0,0,84.04,48.93l-34.759.16a2.041,2.041,0,0,0-2.041,2.064h0A2.064,2.064,0,0,0,49.3,53.286Z" transform="translate(52.022 58.086)" fill="#e0e0e0"/>
    <path id="Trazado_211819" data-name="Trazado 211819" d="M49.274,56.723l34.759-.229a2.064,2.064,0,0,0,2.041-2.064h0A2.064,2.064,0,0,0,84.01,52.39l-34.759.252a2.041,2.041,0,0,0-2.041,2.064h0a2.041,2.041,0,0,0,2.064,2.018Z" transform="translate(51.984 62.559)" fill="#e0e0e0"/>
    <path id="Trazado_211820" data-name="Trazado 211820" d="M68.164,52.884l34.759.206a2.018,2.018,0,0,0,2.041-2.041h0a2.018,2.018,0,0,0-2.018-2.041L68.164,48.78A2.041,2.041,0,0,0,66.1,50.821h0a2.041,2.041,0,0,0,2.064,2.064Z" transform="translate(76.405 57.892)" fill="#e0e0e0"/>
    <path id="Trazado_211821" data-name="Trazado 211821" d="M68.069,56.275l34.667.275A2.041,2.041,0,0,0,104.8,54.51h0a2.041,2.041,0,0,0-2.041-2.064L68.024,52.24a2.041,2.041,0,0,0-2.064,2.041h0a2.041,2.041,0,0,0,2.109,1.995Z" transform="translate(76.224 62.365)" fill="#e0e0e0"/>
    <path id="Trazado_211822" data-name="Trazado 211822" d="M67.866,59.946l34.736.229a2.041,2.041,0,0,0,2.064-2.041h0a2.018,2.018,0,0,0-1.9-2.018L68,55.91a2.018,2.018,0,0,0-2.064,2.018h0A2.041,2.041,0,0,0,67.866,59.946Z" transform="translate(76.198 67.11)" fill="#e0e0e0"/>
    <path id="Trazado_211823" data-name="Trazado 211823" d="M67.831,63.634l34.759.206a2.041,2.041,0,0,0,2.064-2.018h0a2.041,2.041,0,0,0-2.041-2.064L67.854,59.53a2.041,2.041,0,0,0-2.064,2.041h0a2.041,2.041,0,0,0,2.041,2.064Z" transform="translate(76.004 71.79)" fill="#e0e0e0"/>
    <path id="Trazado_211824" data-name="Trazado 211824" d="M67.731,67.314l34.759.206a2.064,2.064,0,0,0,2.064-2.041h0a2.087,2.087,0,0,0-2.041-2.064L67.754,63.21a2.041,2.041,0,0,0-2.064,2.041h0A2.086,2.086,0,0,0,67.731,67.314Z" transform="translate(75.875 76.547)" fill="#e0e0e0"/>
    <path id="Trazado_211825" data-name="Trazado 211825" d="M67.631,70.911l34.759.229a2.086,2.086,0,0,0,2.064-2.041h0a2.041,2.041,0,0,0-2.041-2.064L67.654,66.83a2.041,2.041,0,0,0-2.064,2.018h0a2.041,2.041,0,0,0,2.041,2.064Z" transform="translate(75.746 81.227)" fill="#e0e0e0"/>
    <path id="Trazado_211826" data-name="Trazado 211826" d="M67.531,74.574l34.759.206a2.041,2.041,0,0,0,2.063-2.041h0a2.041,2.041,0,0,0-2.041-2.041L67.554,70.47a2.086,2.086,0,0,0-2.064,2.041h0a2.064,2.064,0,0,0,2.041,2.064Z" transform="translate(75.617 85.933)" fill="#e0e0e0"/>
    <path id="Trazado_211827" data-name="Trazado 211827" d="M47.763,77.864l79.01.481a2.041,2.041,0,0,0,2.064-2.041h0a2.064,2.064,0,0,0-2.041-2.064l-79.01-.481a1.376,1.376,0,0,0-1.376,1.376V76.6A1.376,1.376,0,0,0,47.763,77.864Z" transform="translate(50.95 90.187)" fill="#e0e0e0"/>
    <path id="Trazado_211828" data-name="Trazado 211828" d="M49.544,31.4l22.928-.16a2.064,2.064,0,0,0,2.041-2.064h0a2.064,2.064,0,0,0-2.064-2.041L49.521,27.3a2.064,2.064,0,0,0-2.041,2.064h0A2.064,2.064,0,0,0,49.544,31.4Z" transform="translate(52.333 29.916)" fill="#e0e0e0"/>
    <path id="Trazado_211829" data-name="Trazado 211829" d="M59.55,18.54l1.444-1.4,17.494-.092.871,1.559Z" transform="translate(67.937 16.871)" fill="#263238"/>
    <rect id="Rectángulo_43716" data-name="Rectángulo 43716" width="8.071" height="19.81" transform="translate(147.277 35.465) rotate(90.1)" fill="#263238"/>
    <rect id="Rectángulo_43717" data-name="Rectángulo 43717" width="1.605" height="21.186" rx="0.33" transform="translate(148.191 42.909) rotate(90)" fill="#263238"/>
    <path id="Trazado_211830" data-name="Trazado 211830" d="M71.041,29.277H62.4a.8.8,0,0,1-.619-.3.734.734,0,0,1,0-.688l2.316-6.764a4.288,4.288,0,0,1-1.88-3.439,4.571,4.571,0,0,1,7.7-3.348,4.311,4.311,0,0,1-.527,6.878l2.293,6.7a.734.734,0,0,1,0,.688A.779.779,0,0,1,71.041,29.277ZM66.708,14.121h0a3.99,3.99,0,0,0-3.852,3.967,3.783,3.783,0,0,0,1.834,3.141l.16.115-2.728,7.062a.138.138,0,0,0,0,.183.16.16,0,0,0,.16,0H71a.13.13,0,0,0,.183-.183L68.657,21.3l.183-.115A3.783,3.783,0,0,0,70.7,17.95a3.737,3.737,0,0,0-1.238-2.8,4.058,4.058,0,0,0-2.751-1.032Z" transform="translate(70.707 12.28)" fill="#455a64"/>
    <path id="Trazado_211831" data-name="Trazado 211831" d="M78.708,21h-.046Z" transform="translate(68.429 21.978)" fill="#455a64"/>
    <path id="Trazado_211832" data-name="Trazado 211832" d="M79.238,17.65h-.275C79.169,17.673,79.238,17.673,79.238,17.65Z" transform="translate(68.105 17.647)" fill="#455a64"/>
    <line id="Línea_417" data-name="Línea 417" x2="7.268" y2="6.787" transform="translate(188.545 179.423)" fill="#fafafa"/>
    <path id="Trazado_211833" data-name="Trazado 211833" d="M93.448,87.348a47.206,47.206,0,0,1-3.737-3.37A44.839,44.839,0,0,1,86.18,80.47a45.035,45.035,0,0,1,3.737,3.508,42.554,42.554,0,0,1,3.531,3.37Z" transform="translate(102.365 98.861)" fill="#263238"/>
    <path id="Trazado_211834" data-name="Trazado 211834" d="M46.6,147.891H141.7l-.138.138V31.92a4.985,4.985,0,0,1,0-.55V148.051H46.32Z" transform="translate(50.833 35.384)" fill="#263238"/>
    <path id="Trazado_211835" data-name="Trazado 211835" d="M79.839,73.194a16.05,16.05,0,1,1-4.855-11.366A16.05,16.05,0,0,1,79.839,73.194Zm-23.8.39a7.7,7.7,0,1,0,7.589-7.773A7.7,7.7,0,0,0,56.04,73.583Z" transform="translate(52.67 68.88)" fill="#e0e0e0"/>
    <path id="Trazado_211836" data-name="Trazado 211836" d="M70.958,73.142a16.05,16.05,0,0,1-15.82,16.439L55,81.144a7.75,7.75,0,0,0-.252-15.385l-.138-8.438a16.05,16.05,0,0,1,16.348,15.82Z" transform="translate(61.551 68.931)" fill="#455a64"/>
    <path id="Trazado_211837" data-name="Trazado 211837" d="M66.1,82.433A18.342,18.342,0,0,1,47.25,64.09l9.836-.16a8.071,8.071,0,0,0,8.827,8.048Z" transform="translate(52.036 77.478)" fill="#f67409"/>
    <path id="Trazado_211838" data-name="Trazado 211838" d="M52.166,64A28.433,28.433,0,0,1,50.1,67.256a27.034,27.034,0,0,1-2.293,3.1A28.407,28.407,0,0,1,49.9,67.1,29.489,29.489,0,0,1,52.166,64Z" transform="translate(52.76 77.569)" fill="#263238"/>
    <path id="Trazado_211839" data-name="Trazado 211839" d="M55.174,64.4s-1.33,2.132-3.072,4.586-3.233,4.586-3.3,4.586a51.929,51.929,0,0,1,3.072-4.7,52.739,52.739,0,0,1,3.3-4.471Z" transform="translate(54.04 78.086)" fill="#263238"/>
    <path id="Trazado_211840" data-name="Trazado 211840" d="M55.686,66.3a45.468,45.468,0,0,1-2.751,4.265A47.662,47.662,0,0,1,50,74.646S51.192,72.7,52.774,70.4a49.014,49.014,0,0,1,2.912-4.1Z" transform="translate(55.591 80.542)" fill="#263238"/>
    <path id="Trazado_211841" data-name="Trazado 211841" d="M57.3,67.36A43.56,43.56,0,0,1,54.554,71.6a46.086,46.086,0,0,1-3,4.1,49.048,49.048,0,0,1,2.774-4.265A44.932,44.932,0,0,1,57.3,67.36Z" transform="translate(57.595 81.913)" fill="#263238"/>
    <path id="Trazado_211842" data-name="Trazado 211842" d="M58.1,68.69a29.649,29.649,0,0,1-2.293,3.531,35.081,35.081,0,0,1-2.476,3.37,29.642,29.642,0,0,1,2.293-3.531A38.98,38.98,0,0,1,58.1,68.69Z" transform="translate(59.896 83.632)" fill="#263238"/>
    <path id="Trazado_211843" data-name="Trazado 211843" d="M98.44,59.767h0L68.014,59.4a.55.55,0,0,1-.367-.16.527.527,0,0,1-.138-.367l.275-23.845a.527.527,0,0,1,.527-.527.55.55,0,0,1,.527.55l-.39,23.295,29.807.367a.527.527,0,1,1,0,1.055Z" transform="translate(78.228 39.431)" fill="#263238"/>
    <rect id="Rectángulo_43718" data-name="Rectángulo 43718" width="4.081" height="7.498" transform="translate(150.362 89.114) rotate(0.68)" fill="#455a64"/>
    <rect id="Rectángulo_43719" data-name="Rectángulo 43719" width="4.081" height="7.498" transform="translate(164.554 89.122) rotate(0.68)" fill="#455a64"/>
    <rect id="Rectángulo_43720" data-name="Rectángulo 43720" width="4.081" height="13.642" transform="translate(157.541 83.123) rotate(0.68)" fill="#f67409"/>
    <rect id="Rectángulo_43721" data-name="Rectángulo 43721" width="4.081" height="13.642" transform="translate(171.687 83.108) rotate(0.68)" fill="#f67409"/>
    <path id="Trazado_211844" data-name="Trazado 211844" d="M69.625,47.6a.482.482,0,0,1-.39-.161.55.55,0,0,1,0-.757l9.378-8.575a.527.527,0,0,1,.688,0l5.893,4.586,12.656-9.011a.528.528,0,1,1,.6.871L85.491,43.725a.5.5,0,0,1-.55-.023l-5.87-4.586L69.9,47.393a.5.5,0,0,1-.275.206Z" transform="translate(80.263 38.254)" fill="#455a64"/>
    <path id="Trazado_211845" data-name="Trazado 211845" d="M78.729,41.751S76,40.856,76.437,36.89a7.979,7.979,0,0,1,2.843-5.48,9.882,9.882,0,0,1,2.591,6.1,4.15,4.15,0,0,1-2.293,4.242l-.321-6.695Z" transform="translate(89.708 35.436)" fill="#455a64"/>
    <path id="Trazado_211846" data-name="Trazado 211846" d="M79.328,39.65s-1.146-2.82,2.453-5.044a8.415,8.415,0,0,1,6.351-1.422,10.57,10.57,0,0,1-3.187,6.236,4.586,4.586,0,0,1-5.113.894l5.251-4.173Z" transform="translate(93.282 37.56)" fill="#455a64"/>
    <path id="Trazado_211847" data-name="Trazado 211847" d="M87.7,31.565H80.545A2.5,2.5,0,0,1,78,29.066h0a2.476,2.476,0,0,1,2.5-2.476h7.154a2.476,2.476,0,0,1,2.5,2.476h0a2.5,2.5,0,0,1-2.454,2.5Z" transform="translate(91.79 29.205)" fill="#e0e0e0"/>
    <path id="Trazado_211848" data-name="Trazado 211848" d="M19.872,40.713a39.436,39.436,0,0,1-1.857-6.672,13.757,13.757,0,0,1,.413-6.878c.115-.321,1.1-2.545,1.467-2.522s-.367,2.086-.229,2.293a11.969,11.969,0,0,1,1.467,6.878,30.174,30.174,0,0,1-1.261,6.878" transform="translate(13.909 26.684)" fill="#263238"/>
    <path id="Trazado_211849" data-name="Trazado 211849" d="M27.176,23H27.7a10.318,10.318,0,0,1,10,9.882c.229,5.021.436,10.57.3,13.252a6.7,6.7,0,0,1-5.847,6.236l.344,5.87-5.938.3L19.839,56.7,18.487,34.028C18.257,28.228,21.376,23.229,27.176,23Z" transform="translate(14.835 24.563)" fill="#ffbe9d"/>
    <path id="Trazado_211850" data-name="Trazado 211850" d="M28.474,37.153A13.5,13.5,0,0,1,21.32,34.86a7.131,7.131,0,0,0,7.245,4.15Z" transform="translate(18.513 39.896)" fill="#eb996e"/>
    <path id="Trazado_211851" data-name="Trazado 211851" d="M26.992,29.817a.78.78,0,0,1-.78.757.757.757,0,0,1-.8-.734.8.8,0,0,1,.8-.78.757.757,0,0,1,.78.757Z" transform="translate(23.801 32.398)" fill="#263238"/>
    <path id="Trazado_211852" data-name="Trazado 211852" d="M28.087,28.915a3.849,3.849,0,0,0-1.536-.39c-.848-.023-1.49.367-1.582.275s0-.252.344-.436a2.2,2.2,0,0,1,2.5.092C28.064,28.685,28.133,28.869,28.087,28.915Z" transform="translate(23.187 31.053)" fill="#263238"/>
    <path id="Trazado_211853" data-name="Trazado 211853" d="M23.642,29.907a.78.78,0,0,1-.78.757.757.757,0,0,1-.8-.734.8.8,0,0,1,.8-.78.757.757,0,0,1,.78.757Z" transform="translate(19.47 32.514)" fill="#263238"/>
    <path id="Trazado_211854" data-name="Trazado 211854" d="M24.45,28.851a4.946,4.946,0,0,0-1.559-.39c-.848-.023-1.49.367-1.582.275s0-.229.344-.436a2.293,2.293,0,0,1,1.284-.3,1.972,1.972,0,0,1,1.215.459C24.4,28.622,24.5,28.805,24.45,28.851Z" transform="translate(18.455 31.025)" fill="#263238"/>
    <path id="Trazado_211855" data-name="Trazado 211855" d="M23.968,35.3a6.878,6.878,0,0,1,1.4-.206c.229,0,.436,0,.481-.206a1.078,1.078,0,0,0-.138-.642c-.183-.527-.367-1.1-.573-1.674a29.027,29.027,0,0,1-1.307-4.4,29.6,29.6,0,0,1,1.651,4.2c.206.573.39,1.146.55,1.674a1.238,1.238,0,0,1,0,.871.527.527,0,0,1-.367.3,1.147,1.147,0,0,1-.367,0,5.526,5.526,0,0,1-1.33.092Z" transform="translate(21.758 31.247)" fill="#263238"/>
    <path id="Trazado_211856" data-name="Trazado 211856" d="M25.042,27.76c-.138.206-.963,0-1.972-.115a12.782,12.782,0,0,1-1.949-.138c-.092-.138.138-.3.5-.481a3.233,3.233,0,0,1,1.513-.229,3.164,3.164,0,0,1,1.467.436C24.927,27.439,25.088,27.645,25.042,27.76Z" transform="translate(18.23 29.456)" fill="#263238"/>
    <path id="Trazado_211857" data-name="Trazado 211857" d="M28.326,27.752c-.183.206-.871,0-1.72,0a7.57,7.57,0,0,1-1.7,0c-.138-.115,0-.3.344-.481a2.706,2.706,0,0,1,1.4-.3,2.751,2.751,0,0,1,1.353.436C28.3,27.477,28.395,27.66,28.326,27.752Z" transform="translate(23.086 29.693)" fill="#263238"/>
    <path id="Trazado_211858" data-name="Trazado 211858" d="M20.783,29.723S17,28.462,17,32.268s4.173,3.164,4.2,3.049S20.783,29.723,20.783,29.723Z" transform="translate(12.928 32.996)" fill="#ffbe9d"/>
    <path id="Trazado_211859" data-name="Trazado 211859" d="M19.16,33.086H19a.619.619,0,0,1-.5,0,1.651,1.651,0,0,1-.757-1.467,2.476,2.476,0,0,1,.183-.963.78.78,0,0,1,.5-.5.321.321,0,0,1,.39.183v-.023a.321.321,0,0,0-.138-.252.5.5,0,0,0-.367,0,.894.894,0,0,0-.688.6,2.293,2.293,0,0,0-.252,1.055,1.743,1.743,0,0,0,.963,1.651.734.734,0,0,0,.619,0S19.183,33.109,19.16,33.086Z" transform="translate(13.405 33.645)" fill="#eb996e"/>
    <path id="Trazado_211860" data-name="Trazado 211860" d="M36.034,26.99c.619-.344-1.238-2.293-2.751-3a13.757,13.757,0,0,0-7.91-1.032,9.171,9.171,0,0,0-5.893,4.333,15.018,15.018,0,0,0-1.628,7.658,4.448,4.448,0,0,0,.55,2.293c.527.848,1.559,1.376,1.513,2.522a1.628,1.628,0,0,0,.413,1.169c.688.734,1.536,0,1.926-.665a11.1,11.1,0,0,0,.986-4.975,11.3,11.3,0,0,0-.275-3.623c-.183-.642-.481-1.238-.642-1.88a2.293,2.293,0,0,1,.252-1.9,4.173,4.173,0,0,1,.321-.321,3.921,3.921,0,0,1,3.921-.757c2.155.734,5.824,1.857,6.764,1.123a5.755,5.755,0,0,0,1.7-1.743Z" transform="translate(14.002 24.265)" fill="#263238"/>
    <path id="Trazado_211861" data-name="Trazado 211861" d="M22.787,31.52c.138,0,.16.871.917,1.467s1.674.5,1.674.642-.206.16-.6.183a2.293,2.293,0,0,1-1.4-.481,1.949,1.949,0,0,1-.711-1.238C22.649,31.726,22.741,31.52,22.787,31.52Z" transform="translate(20.256 35.578)" fill="#263238"/>
    <path id="Trazado_211862" data-name="Trazado 211862" d="M38.261,106.683l2.82.275a60.782,60.782,0,0,0,.55-15.8c-1.009-6.466-6.672-34.8-6.672-34.8L27.875,39.618l-1.307-.573L24.55,36.89l9.057,55.28Z" transform="translate(22.689 42.521)" fill="#455a64"/>
    <g id="Grupo_145850" data-name="Grupo 145850" transform="translate(49.394 87.802)" opacity="0.3">
      <path id="Trazado_211863" data-name="Trazado 211863" d="M25.49,40.55S37.367,80.674,38.123,87.163a138.627,138.627,0,0,1,.734,14.972l-1.834-.183L31.474,84.5S27.6,56.737,27.92,56.829,25.49,40.55,25.49,40.55Z" transform="translate(-25.49 -40.55)"/>
    </g>
    <path id="Trazado_211864" data-name="Trazado 211864" d="M33.989,97.1l-.481,10.409s10.593,3.875,10.707,5.824H23.74V97.1Z" transform="translate(21.642 120.361)" fill="#263238"/>
    <path id="Trazado_211865" data-name="Trazado 211865" d="M25.6,101.257a.825.825,0,0,0-.573.94.78.78,0,0,0,.94.573.779.779,0,1,0-.436-1.49" transform="translate(23.289 125.719)" fill="#e0e0e0"/>
    <path id="Trazado_211866" data-name="Trazado 211866" d="M23.77,105.078V103.45l19.626.642s.917.39.8,1.032Z" transform="translate(21.68 128.57)" fill="#455a64"/>
    <path id="Trazado_211867" data-name="Trazado 211867" d="M29.244,101.636a5.537,5.537,0,0,0-1.009.459c-.5.3-.757.734-.848.688s0-.6.665-.963S29.267,101.545,29.244,101.636Z" transform="translate(26.318 126.119)" fill="#fff"/>
    <path id="Trazado_211868" data-name="Trazado 211868" d="M29.872,102.033a3.676,3.676,0,0,0-.734.665c-.344.413-.459.871-.55.848s-.16-.55.275-1.055S29.872,101.895,29.872,102.033Z" transform="translate(27.822 126.663)" fill="#fff"/>
    <path id="Trazado_211869" data-name="Trazado 211869" d="M29.7,104.036a1.292,1.292,0,0,1,0-1.009c.229-.55.711-.757.757-.665s-.252.367-.436.825S29.812,104.036,29.7,104.036Z" transform="translate(29.212 127.136)" fill="#fff"/>
    <path id="Trazado_211870" data-name="Trazado 211870" d="M29.306,100.757H28.251c-.55,0-1.009.206-1.078.138s.39-.436,1.055-.481S29.352,100.665,29.306,100.757Z" transform="translate(26.072 124.637)" fill="#fff"/>
    <path id="Trazado_211871" data-name="Trazado 211871" d="M22.923,97.45l-.573,12.381,2.43,9.928a1.238,1.238,0,0,1-1.032,1.536h0a1.33,1.33,0,0,1-1.123-.344A97.305,97.305,0,0,1,14,111.482c0-1.055-.344-13.252-.344-13.252Z" transform="translate(8.61 120.813)" fill="#263238"/>
    <path id="Trazado_211872" data-name="Trazado 211872" d="M23.581,113.939l-9.79-10.8v.527a1.857,1.857,0,0,0,.436,1.238c.78.94,2.981,3.508,8.185,8.69a1.284,1.284,0,0,0,1.169.344Z" transform="translate(8.778 128.17)" fill="#455a64"/>
    <g id="Grupo_145851" data-name="Grupo 145851" transform="translate(24.196 227.287)" opacity="0.6">
      <path id="Trazado_211873" data-name="Trazado 211873" d="M15.646,101.464a.78.78,0,0,1,.183,1.009.734.734,0,0,1-1.009.183.8.8,0,0,1-.206-1.055.78.78,0,0,1,1.078,0" transform="translate(-14.5 -101.386)" fill="#fff"/>
    </g>
    <path id="Trazado_211874" data-name="Trazado 211874" d="M16.871,106.169a2.741,2.741,0,0,1,1.123-.94,3.829,3.829,0,0,1,1.49-.115.817.817,0,0,0-.436-.183,2.155,2.155,0,0,0-1.146.161,2,2,0,0,0-.848.757C16.848,105.985,16.825,106.169,16.871,106.169Z" transform="translate(12.736 130.46)" fill="#fff"/>
    <path id="Trazado_211875" data-name="Trazado 211875" d="M17.235,106.608a4.456,4.456,0,0,1,1.123-.5,7.953,7.953,0,0,1,1.238,0,1.422,1.422,0,0,0-1.307-.138C17.533,106.035,17.166,106.585,17.235,106.608Z" transform="translate(13.221 131.695)" fill="#fff"/>
    <path id="Trazado_211876" data-name="Trazado 211876" d="M16.15,105.3a12.727,12.727,0,0,1,1.674-.894,11.283,11.283,0,0,1,1.88-.39A3.462,3.462,0,0,0,16.15,105.3Z" transform="translate(11.829 129.178)" fill="#fff"/>
    <path id="Trazado_211877" data-name="Trazado 211877" d="M16.08,103.146a8.445,8.445,0,0,1,1.651-.206c.917-.023,1.6.206,1.651.138a2.706,2.706,0,0,0-1.651-.413A2.751,2.751,0,0,0,16.08,103.146Z" transform="translate(11.739 127.545)" fill="#fff"/>
    <path id="Trazado_211878" data-name="Trazado 211878" d="M16.11,101.579a7.75,7.75,0,0,1,1.72-.252,5.549,5.549,0,0,1,1.651.459s0-.206-.39-.367a2.935,2.935,0,0,0-1.261-.367,3,3,0,0,0-1.284.229,1.032,1.032,0,0,0-.436.3Z" transform="translate(11.778 125.466)" fill="#fff"/>
    <path id="Trazado_211879" data-name="Trazado 211879" d="M17.833,102.281V101.8a3.279,3.279,0,0,0-.344-1.238,1.353,1.353,0,0,0-.619-.688.482.482,0,0,0-.573,0,.757.757,0,0,0-.206.55,1.765,1.765,0,0,0,1.559,1.7,2.109,2.109,0,0,0,2.086-1.032.688.688,0,0,0,0-.6.5.5,0,0,0-.527-.3,2.293,2.293,0,0,0-.825.413,4.058,4.058,0,0,0-.894.94c-.161.275-.206.436-.183.436a4.907,4.907,0,0,1,1.192-1.215,1.674,1.674,0,0,1,.734-.344.3.3,0,0,1,.3.16.5.5,0,0,1,0,.39,1.926,1.926,0,0,1-1.834.894,1.582,1.582,0,0,1-1.33-1.422.734.734,0,0,1,.115-.413.321.321,0,0,1,.321,0c.252,0,.413.367.55.573a4.448,4.448,0,0,1,.481,1.674Z" transform="translate(11.751 123.824)" fill="#fff"/>
    <path id="Trazado_211880" data-name="Trazado 211880" d="M50.3,60.05A46.383,46.383,0,0,1,52.59,74.334c0,2.706-4.31,77.382-4.31,77.382l-12.45.527.5-70.114-1.009.252S29.8,112.51,29.455,117.37c-.3,4.356-4.586,36.158-4.586,36.158l-11.349-.321,1.811-40.973,2.5-40.216,1.1-11.716Z" transform="translate(8.429 72.462)" fill="#263238"/>
    <path id="Trazado_211881" data-name="Trazado 211881" d="M22.79,72.275a5.423,5.423,0,0,0,.527.275,6.145,6.145,0,0,0,1.559.459,3.279,3.279,0,0,0,1.146,0,2.293,2.293,0,0,0,1.169-.6,3.049,3.049,0,0,0,.688-1.284,8.912,8.912,0,0,1,.275-1.49c.3-2.041.481-3.9.6-5.251V62.806a2.293,2.293,0,0,0,0-.6,2.476,2.476,0,0,0,0,.573,6.192,6.192,0,0,1-.16,1.6c-.16,1.33-.367,3.164-.688,5.2a4.861,4.861,0,0,1-.848,2.637,2.591,2.591,0,0,1-2.132.642,7.473,7.473,0,0,1-1.559-.367Z" transform="translate(20.414 75.255)" fill="#455a64"/>
    <path id="Trazado_211882" data-name="Trazado 211882" d="M25.042,62.4a.481.481,0,0,0-.252,0,.94.94,0,0,0-.688.252,1.192,1.192,0,0,0-.481.963,1.247,1.247,0,0,0,2.132.688,1.192,1.192,0,0,0,.183-1.078,1.009,1.009,0,0,0-.39-.6h-.252a1.146,1.146,0,0,1,.459.734.966.966,0,1,1-1.9.321,1.192,1.192,0,0,1,.367-.8C24.652,62.354,25.042,62.468,25.042,62.4Z" transform="translate(21.487 75.478)" fill="#455a64"/>
    <path id="Trazado_211883" data-name="Trazado 211883" d="M15.73,67.482h1.6a11.464,11.464,0,0,0,3.714-1.009A11.281,11.281,0,0,0,24.19,64.3a7.43,7.43,0,0,0,.78-.871c.16-.206.252-.344.229-.344s-.413.436-1.123,1.078a13.757,13.757,0,0,1-3.141,2.086A13.366,13.366,0,0,1,17.312,67.3C16.349,67.345,15.73,67.345,15.73,67.482Z" transform="translate(11.286 76.379)" fill="#455a64"/>
    <path id="Trazado_211884" data-name="Trazado 211884" d="M18.09,60.16l.252.115.757.3c.619.252,1.559.6,2.751.986s2.568.8,4.173,1.192,3.325.757,5.2,1.055,3.646.481,5.273.6,3.1.138,4.333.138h-.023a32.812,32.812,0,0,1-4.31-.206c-1.6-.206-3.416-.321-5.273-.619s-3.6-.642-5.182-1.009-3-.78-4.173-1.146L19.1,60.641l-.757-.252Z" transform="translate(14.337 72.604)" fill="#263238"/>
    <path id="Trazado_211885" data-name="Trazado 211885" d="M50.155,24.23l-5.5,9.7-1.582-.344L46.1,37.918l6.489-.459-1.169-.55,3.279-5.342,1.513,2.683,2.109,3.737,6.191-3.76-5.915-9.744Z" transform="translate(46.632 26.154)" fill="#f67409" fill-rule="evenodd"/>
    <g id="Grupo_145852" data-name="Grupo 145852" transform="translate(101.326 50.567)" opacity="0.3">
      <path id="Trazado_211886" data-name="Trazado 211886" d="M52.038,24.31l-3.9,7.085,3.623,6.42,6.191-3.76Z" transform="translate(-48.14 -24.31)" fill-rule="evenodd"/>
    </g>
    <path id="Trazado_211887" data-name="Trazado 211887" d="M44.076,46.36l10.318.229v1.33l2.683-4.952-2.293-5.159-.206,1.467-5.938-.138L50.611,36.2l1.949-2.8L46.3,29.76l-5.64,9.171Z" transform="translate(43.516 33.303)" fill="#f67409" fill-rule="evenodd"/>
    <g id="Grupo_145853" data-name="Grupo 145853" transform="translate(84.107 62.994)" opacity="0.3">
      <path id="Trazado_211888" data-name="Trazado 211888" d="M40.63,38.878l8.162.138,3.737-5.64L46.27,29.73Z" transform="translate(-40.63 -29.73)" fill-rule="evenodd"/>
    </g>
    <path id="Trazado_211889" data-name="Trazado 211889" d="M64.473,40.29l-5.228-9.722,1.7-1.009H54.957l-3.783,5.2,1.765-.6L55.9,40.222l-3.1-.16-4.265-.206L48.4,47.077l11.464.206Z" transform="translate(53.522 33.044)" fill="#f67409" fill-rule="evenodd"/>
    <g id="Grupo_145854" data-name="Grupo 145854" transform="translate(101.945 72.853)" opacity="0.3">
      <path id="Trazado_211890" data-name="Trazado 211890" d="M59.782,41.482l-3.9-7.085-7.36-.367-.115,7.222Z" transform="translate(-48.41 -34.03)" fill-rule="evenodd"/>
    </g>
    <path id="Trazado_211891" data-name="Trazado 211891" d="M49.531,22l-.252.206-.78.573a30.085,30.085,0,0,0-2.728,2.293,28.064,28.064,0,0,0-6.6,9.515,28.614,28.614,0,0,0-2.132,11.464,32.993,32.993,0,0,0,.3,3.462,6.371,6.371,0,0,0,.138.963,1.651,1.651,0,0,1,0,.321v-.321c0-.206-.252-.459-.252-.963a30.012,30.012,0,0,1-.367-3.554,27.17,27.17,0,0,1,8.781-21.094,26.824,26.824,0,0,1,2.8-2.293c.344-.252.619-.413.8-.527Z" transform="translate(38.566 23.271)" fill="#263238"/>
    <path id="Trazado_211892" data-name="Trazado 211892" d="M54.4,57.6a1.675,1.675,0,0,1,.275-.206c.16-.16.436-.344.757-.6a29.622,29.622,0,0,0,2.66-2.293,27.789,27.789,0,0,0,8.231-21.14,29.535,29.535,0,0,0-.367-3.646,5.92,5.92,0,0,0-.16-.963,1.075,1.075,0,0,1,0-.321,1.444,1.444,0,0,1,0,.321,7.541,7.541,0,0,0,.229.94,30.905,30.905,0,0,1,.459,3.531,27.307,27.307,0,0,1-8.3,21.3,30.084,30.084,0,0,1-2.728,2.293c-.344.252-.619.413-.8.527A1.009,1.009,0,0,1,54.4,57.6Z" transform="translate(61.279 31.596)" fill="#263238"/>
    <path id="Trazado_211893" data-name="Trazado 211893" d="M66.224,30.05V30.3l.138.78a12.129,12.129,0,0,1,.183,1.238,16.048,16.048,0,0,1,.138,1.651v1.995a11.36,11.36,0,0,1-.16,2.293,28.822,28.822,0,0,1-1.078,5.159A30.677,30.677,0,0,1,63.5,48.278a22.925,22.925,0,0,1-1.169,1.995l-.573.848-.573.78c-.367.5-.734.917-1.055,1.284a8.669,8.669,0,0,1-.848.917l-.55.55-.206.183.16-.206.527-.6.8-.94c.3-.39.665-.8,1.009-1.307l.55-.78c.206-.275.367-.573.573-.871s.734-1.261,1.146-1.972a36.686,36.686,0,0,0,1.995-4.838,32.42,32.42,0,0,0,1.078-5.113,20.629,20.629,0,0,0,.183-2.293V33.925A7.258,7.258,0,0,0,66.43,32.3a4.437,4.437,0,0,1,0-1.238v-.78C66.224,30.142,66.2,30.05,66.224,30.05Z" transform="translate(66.606 33.678)" fill="#263238"/>
    <path id="Trazado_211894" data-name="Trazado 211894" d="M39.322,43.38,33.8,49.089l-.206,4.952,6.741,1.238h0l.39-2.981,3.668-4.884Z" transform="translate(34.376 50.911)" fill="#ffbe9d"/>
    <path id="Trazado_211895" data-name="Trazado 211895" d="M26,38.09s5.732,1.995,7.154,4.884S40.376,58.84,40.376,58.84l2.293,1.972.55-1.353,8.231,1.353a41.821,41.821,0,0,1-3.462,9.9,7.7,7.7,0,0,1-11.1,2.293,17.769,17.769,0,0,1-3-5.319Z" transform="translate(24.563 44.072)" fill="#455a64"/>
    <path id="Trazado_211896" data-name="Trazado 211896" d="M41.2,49.865l.252-1.834-7.245-1.49L33.73,48.7Z" transform="translate(34.557 54.996)" fill="#e0e0e0"/>
    <path id="Trazado_211897" data-name="Trazado 211897" d="M30.971,62.61a7.522,7.522,0,0,1,0-1.009c0-.642-.138-1.582-.275-2.751-.275-2.293-.734-5.5-1.422-8.988a63.65,63.65,0,0,0-2.293-8.8,17.082,17.082,0,0,0-1.123-2.5c-.321-.55-.55-.825-.527-.848a1.032,1.032,0,0,1,.183.183c.115.138.252.344.436.619a13.069,13.069,0,0,1,1.215,2.476,53.837,53.837,0,0,1,2.293,8.827c.688,3.485,1.1,6.7,1.33,9.011.115,1.169.183,2.109.206,2.774v.734C30.994,62.518,30.994,62.61,30.971,62.61Z" transform="translate(23.696 43.581)" fill="#263238"/>
    <path id="Trazado_211898" data-name="Trazado 211898" d="M28.613,40.57S29.9,47.7,31.341,56.62s2.545,16.05,2.453,16.05-1.284-7.131-2.728-16.05S28.521,40.593,28.613,40.57Z" transform="translate(27.935 47.278)" fill="#263238"/>
    <path id="Trazado_211899" data-name="Trazado 211899" d="M17.84,40l2.178-5L31.8,42.818l1.284-3.141,4.586,13.161,6.076,26.184a87.124,87.124,0,0,1,1.032,13.39c-.3,1.376-.459,2.293-1.72,2.866l-1.215.16L28.8,95.874,19.881,45.616Z" transform="translate(14.014 40.077)" fill="#f5f5f5"/>
    <g id="Grupo_145855" data-name="Grupo 145855" transform="translate(26.053 117.173)" opacity="0.3">
      <path id="Trazado_211900" data-name="Trazado 211900" d="M15.356,89.334s16.806,3.118,20.635,1.995a4.586,4.586,0,0,0,3.393-4.93s-.413-11.143-.78-15.316c-.436-4.792-1.674-17.723-1.674-17.723L15.31,86.56Z" transform="translate(-15.31 -53.36)"/>
    </g>
    <path id="Trazado_211901" data-name="Trazado 211901" d="M24.206,40.739,24,46.724l3.623,32.65a53.49,53.49,0,0,0,5.228,5.938L35.464,78,26.958,45.715l-1.765-5.2Z" transform="translate(21.978 47.201)" fill="#f67409"/>
    <path id="Trazado_211902" data-name="Trazado 211902" d="M18.375,42.286c-6.718,3.279-7.589,9.171-5.434,16.371.367,1.192.619,1.834,1.123,3.233,2.178,6.076,7.291,16.669,7.062,18.893-.39,4.058-3.921,18.159-5.113,25.06a14.376,14.376,0,0,0-.206,4.425s22.584,4.586,25.083,2.293.138-14.147,0-20.91a151.76,151.76,0,0,0-2.706-26.184C37.2,61.339,35.731,54,34.081,49.026a61.906,61.906,0,0,0-7.131-13.6h0L25,38.732S20.576,41.323,18.375,42.286Z" transform="translate(6.326 40.633)" fill="#455a64"/>
    <path id="Trazado_211903" data-name="Trazado 211903" d="M16.23,65.319h1.078l2.843.252c2.43.206,5.8.527,9.63.917l-.138.115c.527-1.376,1.123-2.82,1.72-4.288v-.206l.115.252c-5.273-.5-10-.963-13.115-1.307h0l-1.651,3.1L16.253,65l-.183.3a1.536,1.536,0,0,1,.115-.275l.413-.848,1.6-3.233h0c3.118.252,7.841.688,13.138,1.169h.206v.436c-.6,1.49-1.192,2.912-1.72,4.288v.115h0c-3.921-.413-7.337-.825-9.744-1.123l-2.8-.344h-.757Z" transform="translate(11.726 73.613)" fill="#263238"/>
    <g id="Grupo_145856" data-name="Grupo 145856" transform="translate(28.667 135.883)" opacity="0.3">
      <path id="Trazado_211904" data-name="Trazado 211904" d="M16.794,64.684l-.344,1.33,13.6,1.444,1.032-5.938L29.29,66.014Z" transform="translate(-16.45 -61.52)"/>
    </g>
    <path id="Trazado_211905" data-name="Trazado 211905" d="M23.45,41.551l.115.229,1.353,1.674.986-.229.16-2.2L24.551,38.41Z" transform="translate(21.267 44.486)" fill="#ff725e"/>
    <path id="Trazado_211906" data-name="Trazado 211906" d="M34.381,43.912a33.521,33.521,0,1,1,55.9,31.022h0a33.521,33.521,0,0,1-55.9-31.022ZM97.938,56.592a37.175,37.175,0,1,0,.092,0Z" transform="translate(34.525 16.903)" fill="#455a64"/>
    <path id="Trazado_211907" data-name="Trazado 211907" d="M34.381,43.912a33.521,33.521,0,1,1,55.9,31.022h0a33.521,33.521,0,0,1-55.9-31.022ZM97.938,56.592a37.175,37.175,0,1,0,.092,0Z" transform="translate(34.525 16.903)" fill="#263238"/>
    <g id="Grupo_145857" data-name="Grupo 145857" transform="translate(68.231 33.978)" opacity="0.3">
      <path id="Trazado_211908" data-name="Trazado 211908" d="M34.381,43.912a33.521,33.521,0,1,1,55.9,31.022h0a33.521,33.521,0,0,1-55.9-31.022ZM97.938,56.592a37.175,37.175,0,1,0,.092,0Z" transform="translate(-33.705 -17.075)"/>
    </g>
    <path id="Trazado_211909" data-name="Trazado 211909" d="M34.046,43.326A33.544,33.544,0,1,1,89.807,74.371h0A33.521,33.521,0,0,1,34.046,43.326ZM97.6,56.006a31.274,31.274,0,1,0-31.71,25.221A31.274,31.274,0,0,0,97.6,56.006Z" transform="translate(34.126 15.862)" fill="#263238"/>
    <path id="Trazado_211910" data-name="Trazado 211910" d="M22,84.106l-1.078-.917c-.94-.94-.413-3.027.573-4.058L58.955,40.29l5.021,4.838L26.558,83.808a3.348,3.348,0,0,1-4.563.3Z" transform="translate(17.357 46.916)" fill="#263238"/>
    <path id="Trazado_211911" data-name="Trazado 211911" d="M37.245,42.385A.894.894,0,0,1,38,42.179a1.742,1.742,0,0,1,.6.413,6.878,6.878,0,0,1,1.926,4.586,2.109,2.109,0,0,1-.871,1.949l-.734-.436c-.252-.321-.94-.825-1.032-1.192a16.44,16.44,0,0,0-.8-4.173A.94.94,0,0,1,37.245,42.385Z" transform="translate(38.815 49.338)" fill="#ffbe9d"/>
    <path id="Trazado_211912" data-name="Trazado 211912" d="M38.59,43.955a4.15,4.15,0,0,0-.757-.986,1.123,1.123,0,0,0-.986-.3c-.527.16-.78.917-.711,1.6a5.663,5.663,0,0,0,.642,1.995l1.857,4.058.344-.275a.527.527,0,0,0,.8-.16,2.155,2.155,0,0,0,.183-1.1A10.845,10.845,0,0,0,38.59,43.955Z" transform="translate(37.653 49.97)" fill="#ffbe9d"/>
    <path id="Trazado_211913" data-name="Trazado 211913" d="M38.9,46.846a9.836,9.836,0,0,0-1.834-2.568,2.293,2.293,0,0,0-.848-.642.825.825,0,0,0-.986.275,1.169,1.169,0,0,0,.138.986,48.15,48.15,0,0,0,3.187,5.594l1.1-1.1C40.136,48.474,39.357,47.717,38.9,46.846Z" transform="translate(36.428 51.159)" fill="#ffbe9d"/>
    <path id="Trazado_211914" data-name="Trazado 211914" d="M25.317,54.658l.963-.206,5.09-4.333,2.774-2.293a1.7,1.7,0,0,1,.825-.367L37.721,47a1.582,1.582,0,0,1-.825,1.88l-1.513.78L34.007,51.31l.229.275s9.171,1.4,9.607,2.086a.94.94,0,0,1-.252,1.444,1.33,1.33,0,0,1-.688,0,1.651,1.651,0,0,1-.871,1.949s1.009,1.307-.757,1.926a2.889,2.889,0,0,1-1.49,1.33,63.33,63.33,0,0,1-6.878.94H26.257l-1.307.229Z" transform="translate(23.206 55.591)" fill="#ffbe9d"/>
    <path id="Trazado_211915" data-name="Trazado 211915" d="M35.645,50.737a6.626,6.626,0,0,1-2.5.138,9.767,9.767,0,0,1-2.476-.367,15.706,15.706,0,0,1,2.5,0C34.545,50.691,35.645,50.669,35.645,50.737Z" transform="translate(30.601 60.062)" fill="#eb996e"/>
    <path id="Trazado_211916" data-name="Trazado 211916" d="M34.75,51.458a2.155,2.155,0,0,1-.619,0l-1.467.16a10.089,10.089,0,0,1-1.513,0h-.619a2.225,2.225,0,0,0,.619-.138,5.362,5.362,0,0,1,1.49,0h1.49C34.52,51.366,34.75,51.412,34.75,51.458Z" transform="translate(30.419 61.291)" fill="#eb996e"/>
    <path id="Trazado_211917" data-name="Trazado 211917" d="M34.787,52.294a10.822,10.822,0,0,1-2.43.321,5.985,5.985,0,0,0-1.674.252c-.39.16-.573.367-.619.344s.115-.3.527-.527a4.2,4.2,0,0,1,1.743-.344A9.171,9.171,0,0,1,34.787,52.294Z" transform="translate(29.808 62.357)" fill="#eb996e"/>
    <path id="Trazado_211918" data-name="Trazado 211918" d="M23.89,51.375l1.467,8.6L29.347,58.8,28.155,49.77Z" transform="translate(21.836 59.172)" fill="#e0e0e0"/>
    <path id="Trazado_211919" data-name="Trazado 211919" d="M23.89,51.44l.275-.138.825-.344,3.118-1.215h.115v.138c.321,2.293.734,5.319,1.192,8.621v.39H29.3l-3.989,1.169h-.138v-.138c-.413-2.545-.757-4.723-.986-6.236l-.275-1.765V51.3a2.706,2.706,0,0,1,.138.642l.344,1.788c.3,1.513.688,3.646,1.123,6.145l-.183-.115,3.989-1.169v-.229c-.436-3.325-.825-6.328-1.123-8.644h.138l-3.1,1.123-.871.3Z" transform="translate(21.836 59.107)" fill="#263238"/>
    <path id="Trazado_211920" data-name="Trazado 211920" d="M19.034,38.28s-6.649,2.637-7.154,8.873a218.945,218.945,0,0,0,1.376,21.988c.619,7.681,2.912,12.152,8.759,13.069,4.035.642,20.635-7.291,20.635-7.291L41.136,65.45,25.912,69.9l-1.49-18.343s-.138-1.422-.527-3.325" transform="translate(6.309 44.318)" fill="#455a64"/>
    <path id="Trazado_211921" data-name="Trazado 211921" d="M23.787,48.41a2.132,2.132,0,0,1,0,.367c0,.252.138.619.206,1.123s.183,1.1.275,1.811l.229,2.5c.3,3.76.757,9.171,1.307,15.752l.046-.16,15.293-4.586h.138v.138c.481,3.049.986,6.214,1.49,9.469h0C39.011,76.589,35,78.354,30.8,79.959a56.222,56.222,0,0,1-5.87,1.88,11.468,11.468,0,0,1-1.513.252,4.93,4.93,0,0,1-1.536,0,11.143,11.143,0,0,1-2.843-.917,8.575,8.575,0,0,1-2.293-1.788,8.713,8.713,0,0,1-1.6-2.293,19.741,19.741,0,0,1-1.559-5.342c-.275-1.788-.367-3.531-.527-5.228s-.321-3.347-.459-4.952c-.275-3.187-.481-6.168-.619-8.9,0-1.353-.115-2.66,0-3.9V46.989a9.56,9.56,0,0,1,.321-1.651,10.409,10.409,0,0,1,.527-1.49,9.378,9.378,0,0,1,.757-1.238,10.8,10.8,0,0,1,1.651-1.926A14.949,14.949,0,0,1,18.1,38.643l.825-.413H19.2l-.275.138-.8.413a15.591,15.591,0,0,0-2.8,2.064,10.8,10.8,0,0,0-1.651,1.926,12.542,12.542,0,0,0-.711,1.238,9.171,9.171,0,0,0-.527,1.467,11.464,11.464,0,0,0-.3,1.628q0,.86,0,1.788v3.875c.16,2.706.39,5.686.665,8.873.138,1.6.3,3.256.459,4.952s.275,3.439.55,5.228a19.9,19.9,0,0,0,1.536,5.251,9.171,9.171,0,0,0,1.559,2.293,7.841,7.841,0,0,0,2.064,1.9,9.813,9.813,0,0,0,2.774.894,4.586,4.586,0,0,0,1.467,0,6.614,6.614,0,0,0,1.467-.275,50.763,50.763,0,0,0,5.847-1.857c4.2-1.6,8.185-3.37,11.946-5.136v.138c-.527-3.256-1.009-6.443-1.49-9.469h.16L25.85,70.077h0v-.115c-.5-6.6-.94-12.014-1.238-15.775l-.183-2.476a11.7,11.7,0,0,0-.229-1.834l-.183-1.1Z" transform="translate(6.371 44.253)" fill="#263238"/>
    <path id="Trazado_211922" data-name="Trazado 211922" d="M29.919,60.176l-.138-.206-.344-.688c-.3-.6-.757-1.444-1.307-2.476-1.1-2.086-2.751-4.907-4.586-8.025s-3.348-6.007-4.356-8.139c-.5-1.078-.871-1.949-1.123-2.568l-.275-.711V37.11l.115.229.321.688c.275.6.688,1.467,1.215,2.522,1.032,2.109,2.591,4.975,4.4,8.094s3.439,5.961,4.586,8.071c.527,1.055.94,1.926,1.215,2.522l.3.688Z" transform="translate(13.949 42.805)" fill="#263238"/>
    <path id="Trazado_211923" data-name="Trazado 211923" d="M19.094,45.127a9.171,9.171,0,0,1-.206-1.055,7.543,7.543,0,0,0-.963-2.293,7.177,7.177,0,0,0-1.7-1.857,6.876,6.876,0,0,1-.848-.642,3.256,3.256,0,0,1,.963.481,6.489,6.489,0,0,1,1.811,1.88,6.4,6.4,0,0,1,.917,2.453,2.5,2.5,0,0,1,.023,1.032Z" transform="translate(10.834 45.61)" fill="#263238"/>
    <path id="Trazado_211924" data-name="Trazado 211924" d="M16.91,56.178a4.907,4.907,0,0,1,.917-2.43,4.586,4.586,0,0,1,1.834-1.857,23.155,23.155,0,0,0-1.6,1.995A25.451,25.451,0,0,0,16.91,56.178Z" transform="translate(12.812 61.913)" fill="#263238"/>
    <path id="Trazado_211925" data-name="Trazado 211925" d="M28.5,38.5v.481a5.689,5.689,0,0,1-.413,1.284,43.973,43.973,0,0,1-1.88,4.1v.138h-.115l-.573-.275a37.191,37.191,0,0,1-3.6-3.21l-1.032-1.009-.367-.367a1.628,1.628,0,0,1,.436.321l1.1.963c.917.8,2.132,2.018,3.623,3.118l.527.183H26c.78-1.582,1.422-3.027,1.834-4.058S28.361,38.5,28.5,38.5Z" transform="translate(17.479 44.602)" fill="#263238"/>
    <path id="Trazado_211926" data-name="Trazado 211926" d="M27.235,40.427a4.929,4.929,0,0,1-.252.573c-.183.344-.413.871-.757,1.444l-.115.16v-.161l-.6-.8A14.789,14.789,0,0,1,24.14,38.73a24.236,24.236,0,0,1,1.6,2.774l.481.825h-.115c.367-.527.619-1.032.825-1.353S27.212,40.4,27.235,40.427Z" transform="translate(22.159 44.899)" fill="#263238"/>
  </g>
</svg>
