<svg xmlns="http://www.w3.org/2000/svg" width="221.277" height="219.592" viewBox="0 0 221.277 219.592">
  <g id="ILUSTRACIONES-22" transform="translate(-7.002 -7.14)">
    <path id="Trazado_215765" data-name="Trazado 215765" d="M90.19,133.115c-9.423-4.749-12.979-15.564-14.1-25.609a10.84,10.84,0,0,1,0-4.973,3.456,3.456,0,0,1,3.879-2.362c1.318.4,2.064,1.765,2.934,2.859a9.8,9.8,0,0,0,4.451,3.158,3.754,3.754,0,0,0,3.456-.174c1.318-.995,1.193-3.008.945-4.674-.448-3.083-.92-6.166-1.392-9.249a15.34,15.34,0,0,1-.2-4.973,5.172,5.172,0,0,1,2.685-4.028,3.158,3.158,0,0,1,4.177,1.517,19.893,19.893,0,0,1,.348,2.064,1.74,1.74,0,0,0,1.243,1.492,2.29,2.29,0,0,0,1.716-1.019,22.228,22.228,0,0,0,3.083-6.539,29.986,29.986,0,0,1,2.71-6.614,9.075,9.075,0,0,1,5.569-4.3,5.42,5.42,0,0,1,6.042,2.884,8.23,8.23,0,0,1-1.293,6.912,39.086,39.086,0,0,1-6.539,8.578,2.984,2.984,0,0,0-1.094,1.566c-.2,1.144.995,2.113,2.138,2.312a20.837,20.837,0,0,0,3.928-.124,3.779,3.779,0,0,1,3.481,1.467c.92,1.616-.249,3.58-1.467,4.973a31.949,31.949,0,0,1-8.6,6.763,10.394,10.394,0,0,0-3.232,2.213,3.058,3.058,0,0,0-.472,3.655,3.158,3.158,0,0,0,3.58.8,21.16,21.16,0,0,0,3.431-1.914,5.917,5.917,0,0,1,6.862.3,5.321,5.321,0,0,1,1.218,4.575,11.984,11.984,0,0,1-1.914,4.451A32.322,32.322,0,0,1,105.556,130.6a22.128,22.128,0,0,1-15.365,2.66" transform="translate(102.261 92.772)" fill="#f5f5f5"/>
    <path id="Trazado_215766" data-name="Trazado 215766" d="M82.26,125.877a147.712,147.712,0,0,1,3.58-16.832c.4-1.467.771-2.934,1.169-4.376s.771-2.834,1.218-4.2a75.409,75.409,0,0,1,3.108-7.708c1.094-2.486,2.213-4.625,3.307-6.713s2.113-4,3.133-5.719a60.445,60.445,0,0,1,5.445-7.782l1.666-1.939.472-.5.149-.149v.174l-.448.522-1.616,1.964A62.9,62.9,0,0,0,98.1,80.378c-1.019,1.716-2.039,3.63-3.108,5.719s-2.188,4.326-3.282,6.713a74.92,74.92,0,0,0-3.058,7.683c-.472,1.343-.845,2.76-1.218,4.2s-.771,2.884-1.169,4.351a147.692,147.692,0,0,0-3.605,16.808" transform="translate(111.857 93.371)" fill="#e0e0e0"/>
    <path id="Trazado_215767" data-name="Trazado 215767" d="M87.732,92.907a3.058,3.058,0,0,1-.274-.7c-.149-.448-.348-1.094-.6-1.89-.472-1.616-1.044-3.879-1.666-6.365s-1.243-4.724-1.74-6.34c-.249-.8-.448-1.442-.6-1.89a6.494,6.494,0,0,1-.2-.7,4.065,4.065,0,0,1,.323.646c.174.423.423,1.094.7,1.89.547,1.591,1.193,3.829,1.815,6.315l1.591,6.365c.2.771.348,1.417.5,1.939A3.134,3.134,0,0,1,87.732,92.907Z" transform="translate(112.452 100.906)" fill="#e0e0e0"/>
    <path id="Trazado_215768" data-name="Trazado 215768" d="M105.411,79.38a4.553,4.553,0,0,1-.821.224l-2.287.547c-1.914.5-4.55,1.268-7.459,2.263s-5.42,1.989-7.235,2.76c-.92.373-1.666.721-2.163.945a5.418,5.418,0,0,1-.8.323,3.456,3.456,0,0,1,.87-.547c.5-.249,1.218-.622,2.113-1.019,1.815-.845,4.351-1.865,7.235-2.859a74.022,74.022,0,0,1,7.459-2.163c.97-.224,1.765-.373,2.312-.472Z" transform="translate(115.41 107.372)" fill="#e0e0e0"/>
    <path id="Trazado_215769" data-name="Trazado 215769" d="M91.015,107.619a1.268,1.268,0,0,1-.174-.249l-.472-.721c-.423-.622-.995-1.542-1.691-2.685-1.367-2.287-3.182-5.52-5.122-9.1s-3.729-6.837-4.973-9.15l-1.591-2.735-.423-.746c0-.174-.149-.273,0-.273l.174.224.472.721c.423.622.995,1.566,1.666,2.71,1.392,2.287,3.182,5.495,5.147,9.1s3.7,6.813,4.973,9.125l1.591,2.76c.149.3.3.547.423.746a.846.846,0,0,1,0,.273Z" transform="translate(103.301 111.206)" fill="#e0e0e0"/>
    <path id="Trazado_215770" data-name="Trazado 215770" d="M109.257,87.059l-.249.149-.8.4-2.884,1.417c-2.486,1.218-5.793,2.909-9.473,4.8s-6.962,3.431-9.448,4.575c-1.218.6-2.238,1.044-2.934,1.343l-.8.348h-.3l.273-.174.771-.4L86.308,98.1c2.486-1.193,5.793-2.884,9.5-4.774s7.061-3.531,9.523-4.7l2.934-1.318.82-.348Z" transform="translate(112.036 118.638)" fill="#e0e0e0"/>
    <path id="Trazado_215771" data-name="Trazado 215771" d="M20.075,40.429,14.9,30.16a14.644,14.644,0,0,0-6.862,7.459A13.575,13.575,0,0,0,9.26,50.324a15.388,15.388,0,0,0,.97,1.367h0l11.039-8.951Z" transform="translate(0 34.215)" fill="#e0e0e0"/>
    <path id="Trazado_215772" data-name="Trazado 215772" d="M25.688,32.245a13.575,13.575,0,0,0-13.476-2.039l-.423.149-.249.124-.771.348h0l5.122,10.219,1.218,2.486,13.749-3.456h0a14.147,14.147,0,0,0-1.044-2.81,14.918,14.918,0,0,0-4.127-5.022Z" transform="translate(5.6 32.876)" fill="#ebebeb"/>
    <path id="Trazado_215773" data-name="Trazado 215773" d="M19.854,37.731,8.84,46.682A14.2,14.2,0,0,0,33.7,34.25L19.954,37.681" transform="translate(2.732 40.294)" fill="#f5f5f5"/>
    <rect id="Rectángulo_44225" data-name="Rectángulo 44225" width="51.492" height="46.072" transform="translate(37.678 45.902)" fill="#f5f5f5"/>
    <rect id="Rectángulo_44226" data-name="Rectángulo 44226" width="51.492" height="46.072" transform="translate(33.004 49.407)" fill="#ebebeb"/>
    <path id="Trazado_215774" data-name="Trazado 215774" d="M90.9,24.806h16.111A16.111,16.111,0,1,1,90.528,8.72Z" transform="translate(100.755 2.348)" fill="#e0e0e0"/>
    <path id="Trazado_215775" data-name="Trazado 215775" d="M83.223,23.251,82.85,7.14a16.957,16.957,0,0,1,11.661,4.625,16.633,16.633,0,0,1,4.973,11.288Z" transform="translate(112.734 0)" fill="#f5f5f5"/>
    <path id="Trazado_215776" data-name="Trazado 215776" d="M26.809,60.7a11.711,11.711,0,0,1,1.815-1.865L28.2,56.346l3.655-1.566,1.417,1.939a9.175,9.175,0,0,1,2.611,0l1.343-1.989,3.7,1.467-.373,2.486A8.628,8.628,0,0,1,42.423,60.5l2.486-.448,1.566,3.655-1.939,1.417a10.194,10.194,0,0,1,0,2.611L46.525,69.1l-1.542,3.7L42.5,72.433a9.8,9.8,0,0,1-1.815,1.84l.448,2.486-3.655,1.566-1.417-1.939a9.173,9.173,0,0,1-2.611,0L32.08,78.375l-3.7-1.467.373-2.486a9.945,9.945,0,0,1-1.865-1.815l-2.362.448-1.492-3.63,1.939-1.417a10.169,10.169,0,0,1,0-2.486L22.98,64.153l1.492-3.7,2.362.373Zm4,4.127a4.252,4.252,0,1,0,2.25-2.409,4.276,4.276,0,0,0-2.25,2.409Z" transform="translate(23.748 70.734)" fill="none"/>
    <path id="Trazado_215777" data-name="Trazado 215777" d="M26.378,60.439v-.273a7.036,7.036,0,0,1,.373-.7A4.451,4.451,0,0,1,29.088,57.8a4.177,4.177,0,0,1,2.014,0,4.376,4.376,0,0,1,3.257,5.942,4.252,4.252,0,0,1-1.74,2.089,4.376,4.376,0,0,1-4.7,0,4.252,4.252,0,0,1-1.392-1.442,4.152,4.152,0,0,1-.472-2.959,2.834,2.834,0,0,1,.2-.746c0-.174,0-.273.124-.249a5.942,5.942,0,0,0-.224,1.019,4.2,4.2,0,0,0,.622,2.71,4.127,4.127,0,0,0,1.343,1.367,4.2,4.2,0,0,0,2.089.622,4.028,4.028,0,0,0,2.337-.646,4.1,4.1,0,0,0,1.641-1.964,4.4,4.4,0,0,0,.174-2.486,4.3,4.3,0,0,0-3.207-3.033,4.2,4.2,0,0,0-1.939,0,4.4,4.4,0,0,0-2.287,1.566,8.65,8.65,0,0,0-.547.845Z" transform="translate(28.182 75.119)" fill="#e0e0e0"/>
    <path id="Trazado_215778" data-name="Trazado 215778" d="M26.809,60.8h-.6l-1.79-.249h0c-.373.945-.845,2.213-1.442,3.7h0l1.989,1.367h0a9.945,9.945,0,0,0,0,2.486h0L23.03,69.528V69.4l1.591,3.655H24.5l2.362-.448h0a9.6,9.6,0,0,0,1.84,1.765h0l-.373,2.486v-.149l3.7,1.467h-.149l1.367-1.989h0a9.945,9.945,0,0,0,2.486,0h0l1.417,1.939H37l3.655-1.566v.149l-.448-2.486h0A9,9,0,0,0,42,72.387h1.815l1.193.174H44.86l1.467-3.7v.149l-1.989-1.367h0a9.8,9.8,0,0,0,0-2.486h0l1.939-1.417v.149L44.71,60.229h.149l-2.486.423h0a9.647,9.647,0,0,0-1.815-1.815h0l.373-2.486h0l-3.7-1.467h.124l-1.367,1.989h0a9.7,9.7,0,0,0-2.486,0h0L32.08,54.934h0l-3.655,1.542h0l.423,2.486h0A11.09,11.09,0,0,0,27.431,60.3l-.3.373h-.124v-.124a2.759,2.759,0,0,1,.3-.373A8.976,8.976,0,0,1,28.7,58.787h0L28.226,56.3h0l3.655-1.591h0L33.3,56.649h0a9.323,9.323,0,0,1,2.636,0h0L37.3,54.66h0l3.7,1.467h0l-.373,2.486h0a9.325,9.325,0,0,1,1.89,1.815H42.4l2.486-.448h0l1.591,3.655h0l-1.939,1.442v-.149a10.392,10.392,0,0,1,0,2.635V67.44l1.989,1.367h0v.124L45.108,72.91H42.721a11.064,11.064,0,0,1-1.84,1.89V74.65l.423,2.486h0L37.649,78.7h0l-1.417-1.939h.124a9.424,9.424,0,0,1-2.635,0h.124l-1.367,1.989h0l-3.7-1.467h0l.4-2.486h0a10.07,10.07,0,0,1-1.865-1.84h0l-2.486.423h0l-1.79-3.829h0l1.964-1.417h0a10.219,10.219,0,0,1,0-2.486h0L23.03,64.207h0l1.492-3.68h0l1.765.3h.448Z" transform="translate(23.748 70.63)" fill="#e0e0e0"/>
    <path id="Trazado_215779" data-name="Trazado 215779" d="M26.426,60.526a2.337,2.337,0,0,1,.224-.472,3.754,3.754,0,0,1,.97-1.193,4.7,4.7,0,0,1,2.213-.995,4.276,4.276,0,1,1,.2,8.5,4.351,4.351,0,0,1-2.486-.945A4.475,4.475,0,0,1,26.1,63.211a4.2,4.2,0,0,1-.149-1.367,3.306,3.306,0,0,1,.149-.8v-.5h0v.124h.149a2.118,2.118,0,0,1-.2.547,4.177,4.177,0,0,0,.174,2.486,4.053,4.053,0,0,0,1.616,1.964,4.252,4.252,0,0,0,2.486.671,3.978,3.978,0,0,0,2.263-.7,4.425,4.425,0,0,0,.274-7.086,4.451,4.451,0,0,0-3.058-.746,4.277,4.277,0,0,0-2.188.995A3.754,3.754,0,0,0,26.649,60a1.467,1.467,0,0,0-.174.348.373.373,0,0,0,0,.149v-.149a2.833,2.833,0,0,1,.149-.373,3.9,3.9,0,0,1,.945-1.268,4.466,4.466,0,0,1,7.36,3.133,4.724,4.724,0,0,1-.448,2.213,4.5,4.5,0,0,1-1.566,1.79,4.749,4.749,0,0,1-2.486.746,4.451,4.451,0,0,1-2.486-.721,4.376,4.376,0,0,1-1.716-2.064,4.277,4.277,0,0,1-.124-2.76,2.486,2.486,0,0,1,.224-.6h0s.124.174,0,.149h0v.572a3.033,3.033,0,0,0,0,.646,3.754,3.754,0,0,0,.149,1.293A4.078,4.078,0,0,0,27.818,65.2a4.2,4.2,0,0,0,2.238.9,4.028,4.028,0,0,0,4.376-4.028,4.177,4.177,0,0,0-1.616-3.282,4.4,4.4,0,0,0-2.959-.8,4.451,4.451,0,0,0-2.163.92,4.65,4.65,0,0,0-.995,1.144,4.8,4.8,0,0,1-.274.472Z" transform="translate(28.135 75.033)" fill="#e0e0e0"/>
    <path id="Trazado_215780" data-name="Trazado 215780" d="M27,60.786l-2.486-.373h0l-1.293,3.754h0l2.014,1.392h.124a10.218,10.218,0,0,0,0,2.486h-.124l-1.989,1.467h0l1.641,3.779h0l2.486-.448v.05h0V72.77a9.274,9.274,0,0,0,1.865,1.815h.025l-.4,2.486h0l3.854,1.542h0l1.392-2.064.149.149h-.124v-.2a9.275,9.275,0,0,0,2.611,0v.224h-.124l.124-.174,1.492,2.039h-.149l3.854-1.641v.124l-.472-2.486H41.5a9.946,9.946,0,0,0,1.815-1.865l.149.174h-.124v-.224l2.486.373h-.149l1.542-3.879v.149l-2.561-1.392.2-.149h-.249a9.249,9.249,0,0,0,0-2.611h.249l-.2-.149,2.039-1.492V63.7c-.522-1.193-1.069-2.486-1.666-3.829h.149l-2.486.448v.149h.124l-.149.2a9.946,9.946,0,0,0-1.865-1.79L41,58.7h-.373l.4-2.486v.149l-3.854-1.517h.149l-1.392,2.064-.174-.2h0v.249a11.339,11.339,0,0,0-2.486,0v-.249h0l-.174.2-1.467-1.989H31.8L28.046,56.56V56.41l.448,2.486h-.249l.224.174A8.5,8.5,0,0,0,26.9,60.637v.149h-.2l.249-.273a5.469,5.469,0,0,1,.5-.572,8.427,8.427,0,0,1,1.119-.995h0l-.448-2.486h.273l-.174-.2,3.68-1.566v.273h0l.149-.224,1.442,1.989h0a9.946,9.946,0,0,1,2.71,0h-.124L37.47,54.72l.149.2h0V54.67l3.7,1.492-.174.174H41.4L41,58.822V58.7a10.244,10.244,0,0,1,1.964,1.914h0l2.486-.448v.3h0l.174-.149,1.591,3.655h-.249V63.82l.2.124-1.989,1.467h0a10.269,10.269,0,0,1,0,2.76v-.124l2.039,1.392-.174.149v-.149h.224l-2.089,3.456L45,72.746h0v.224L42.517,72.6h.124a10.268,10.268,0,0,1-1.914,1.964h0l.472,2.486h-.224V76.9l.149.149-3.68,1.591v-.522h.149v.174l-1.467-2.014h0a10.119,10.119,0,0,1-2.735,0h0L32,78.315l-.124-.149h.149v.2l-3.7-1.492h.373l.373-2.486h0A9.523,9.523,0,0,1,27.1,72.5h0l-2.486.448v-.05h0l-1.392-3.381h0l1.989-1.442h0a9.945,9.945,0,0,1,0-2.685h0l-1.989-1.268h0l1.467-3.729h0l2.362.348H26.48l-1.815-.249h0l-1.442,3.68h0v-.124h.124l2.039,1.367h0a8.8,8.8,0,0,0,0,2.66h0L23.4,69.538l-.149.124v-.2h0v-.025l1.591,3.655v.224l-.2-.124h.025l2.486-.448h0a9.8,9.8,0,0,0,1.914,1.865h0L28.693,77.1v.273l-.149-.224h0l-.149-.249h.249l3.7,1.467h-.4l.149-.249,1.392-2.039h0a9.772,9.772,0,0,0,2.685,0h0l1.467,2.014.2.249h-.771l.3-.124,3.655-1.591.3-.124-.149.273v.149l-.149.273v-.3l-.472-2.486h0a9.224,9.224,0,0,0,1.865-1.939h0l2.486.4h.348l-.3.174h-.124l-.3.174v-.323L46,69.19l.124-.323v.82l-.273-.2-1.392-1.566h0a9.547,9.547,0,0,0,0-2.66h0l1.989-1.467.3-.224v.373h0v.373l-.149-.348-1.566-3.655-.149-.348.323.174h.124l.323.174h-.373l-2.486.472h0a9.6,9.6,0,0,0-1.89-1.865h0l.4-2.486v-.373l.2.348h0l.174.323h-.348l-3.7-1.492-.348-.149h.472l.373-.124-.224.323L36.5,57.306h0a9.547,9.547,0,0,0-2.66,0h0L32.4,55.316l-.224-.323h.746l-.373.149-3.655,1.566-.373.149.2-.323h0l.174-.348v.4l.448,2.486h0a8.056,8.056,0,0,0-1.069.995,5.2,5.2,0,0,0-.5.547l-.249.273h-.2v-.3a8.429,8.429,0,0,1,1.616-1.641l.4-.323-.174.472h0l-.174.448v-.472l-.448-2.486h0L32.3,54.944h0l1.467,1.989.3.4-.472-.2h0l-.448-.2h.5a10.616,10.616,0,0,1,2.66,0h.472l-.448.2h0l-.448.2.273-.423,1.392-2.039h0L41.4,56.386h0l-.373,2.486v.472l-.174-.448h0l-.224-.6.373.273a9.746,9.746,0,0,1,1.914,1.865l.3.373-.448-.174h0l-.646-.174h.472l2.486-.472h0l1.666,3.829h0L44.73,65.287l-.373.273.174-.423h0l.174-.4v.448a9.6,9.6,0,0,1,0,2.66V68.3l-.05-.373h0l-.174-.423.373.273,2.064,1.417h0l-1.566,3.879h0l-2.486-.4h-.423l.4-.149h0l.4-.149-.249.323a9.772,9.772,0,0,1-1.865,1.914l-.323.249.149-.373h0l.149-.4v.423L41.547,77h0l-3.829,1.641h0L36.251,76.6l-.224-.3.348.149H36.5l.348.149h-.373a10.616,10.616,0,0,1-2.66,0h-.373l.348-.149h0l.348-.149-.224.3L32.5,78.663h0L28.643,77.1h0l.373-2.486v-.025h0v.3l-.249-.174a9.771,9.771,0,0,1-1.914-1.865l-.174-.249h.273l.3.124h-.3l-2.486.448h0l-1.616-3.8h0l2.014-1.442.2-.124V68h0v0a10.443,10.443,0,0,1,0-2.635v-.025h0v.174h-.174l-2.014-1.392h0l1.716-3.655h0l1.79.323H27Z" transform="translate(23.555 70.645)" fill="#e0e0e0"/>
    <path id="Trazado_215781" data-name="Trazado 215781" d="M36.466,60.386a3.258,3.258,0,0,1,.746-.8l-.174-1.019,1.542-.646.6.82a4.227,4.227,0,0,1,1.119,0l.572-.845,1.566.622-.174,1.019a3.357,3.357,0,0,1,.8.771l1.019-.2.646,1.566-.82.6a4,4,0,0,1,0,1.094l.845.572-.622,1.566L43.1,65.359a3.9,3.9,0,0,1-.771.8l.2.995-1.566.671-.6-.82a4.027,4.027,0,0,1-1.094,0l-.572.845-1.566-.622.149-1.019a3.779,3.779,0,0,1-.8-.746l-.995.174-.671-1.542.82-.6a4.227,4.227,0,0,1,0-1.119L34.8,61.8l.622-1.566,1.019.174ZM38.132,62.1a1.815,1.815,0,1,0,1.024-1.045A1.815,1.815,0,0,0,38.132,62.1Z" transform="translate(41.317 75.446)" fill="#e0e0e0"/>
    <path id="Trazado_215782" data-name="Trazado 215782" d="M36.2,60.272a2.263,2.263,0,0,1,.2-.4,2.014,2.014,0,0,1,.995-.7,1.914,1.914,0,0,1,.845,0,2.039,2.039,0,0,1,.9.448,1.268,1.268,0,0,1,.323.4,1.666,1.666,0,0,1,.224.522,2.014,2.014,0,0,1,0,1.144,2.039,2.039,0,0,1-.746.9l-.522.224h-.522a1.766,1.766,0,0,1-.945-.3,1.939,1.939,0,0,1-.6-.6,1.914,1.914,0,0,1-.224-1.193,1.74,1.74,0,0,1,0-.448s0,.174,0,.448a1.641,1.641,0,0,0,.249,1.144,1.567,1.567,0,0,0,.572.572,1.74,1.74,0,0,0,.9.273,1.765,1.765,0,0,0,.5,0,1.641,1.641,0,0,0,.472-.224,1.616,1.616,0,0,0,.721-.845,1.741,1.741,0,0,0,0-1.069,1.243,1.243,0,0,0-.2-.5,2.487,2.487,0,0,0-.323-.4,1.691,1.691,0,0,0-.821-.4,1.517,1.517,0,0,0-.82,0,1.666,1.666,0,0,0-.97.646C36.27,60.123,36.221,60.3,36.2,60.272Z" transform="translate(43.253 77.275)" fill="#e0e0e0"/>
    <path id="Trazado_215783" data-name="Trazado 215783" d="M36.555,60.327H35.536l-.622,1.591h0l.82.572h0a3.108,3.108,0,0,0,0,1.069h0l-.82.6h0l.671,1.542h0l.995-.2h0a4.426,4.426,0,0,0,.771.746h0l-.149.995h0l1.591.622h0l.572-.845h0a4.028,4.028,0,0,0,1.094,0h0l.6.845h0l1.542-.671h0l-.2-.995h0a4.4,4.4,0,0,0,.746-.771h0l1.019.149h0l.622-1.566h0l-.82-.572h0a4,4,0,0,0,0-1.094h0l.82-.6h0L44.113,60.2h0l-.995.2h0a3.9,3.9,0,0,0-.8-.771h0l.149-1.019h0l-1.566-.622h0l-.572.845h0a3.854,3.854,0,0,0-1.069,0h0l-.6-.845h0l-1.566.646h0l.174,1.019h0a4.549,4.549,0,0,0-.6.572l-.149.149h0l.124-.149a4.376,4.376,0,0,1,.6-.6h0l-.2-.995h0l1.542-.671h0l.6.82h0a4.2,4.2,0,0,1,1.119,0h0l.572-.845h0l1.566.622h0l-.174.995h0a6.017,6.017,0,0,1,.8.8h0l.995-.2h0l.671,1.542h0l-.845.6h0a4.226,4.226,0,0,1,0,1.119h0l.845.572h0l-.622,1.566h0l-.995-.149h0a3.928,3.928,0,0,1-.771.8h0l.2,1.019h0l-1.566.671h0l-.622-.945h0a4.2,4.2,0,0,1-1.119,0h0l-.6.845h0l-1.566-.622h0l.149-1.019h0a3.928,3.928,0,0,1-.8-.771h0l-1.019.2h0l-.671-1.566h0l.845-.6h0a4.2,4.2,0,0,1,0-1.119h0l-.845-.572h0l.622-1.566h0l.746.124h.273Z" transform="translate(41.227 75.505)" fill="#e0e0e0"/>
    <path id="Trazado_215784" data-name="Trazado 215784" d="M34.065,52.582a7.085,7.085,0,0,1,1.268-1.318l-.3-1.691,2.486-1.119.995,1.392a6.514,6.514,0,0,1,1.939,0l.97-1.417,2.635,1.044-.273,1.691A7.085,7.085,0,0,1,45.1,52.433l1.666-.3,1.144,2.685-1.367.995a7.609,7.609,0,0,1,0,1.84l1.392.97-1.044,2.636-1.666-.273A7.21,7.21,0,0,1,43.936,62.3l.323,1.666-2.486,1.119-1.019-1.367a7.459,7.459,0,0,1-1.84,0l-.945,1.293L35.358,63.97l.124-1.691a7.211,7.211,0,0,1-1.318-1.293l-1.691.323-1.119-2.486L32.747,57.8a6.515,6.515,0,0,1,0-1.84l-1.417-.945,1.044-2.685,1.691.273Zm2.81,2.909a3.033,3.033,0,1,0,3.844-1.48,3.033,3.033,0,0,0-3.844,1.48Z" transform="translate(36.159 61.37)" fill="#f5f5f5"/>
    <path id="Trazado_215785" data-name="Trazado 215785" d="M33.653,52.46A2.486,2.486,0,0,1,34,51.788a2.934,2.934,0,0,1,1.641-1.193,3.033,3.033,0,0,1,2.884.646,3.357,3.357,0,0,1,.945,1.542,3.232,3.232,0,0,1,0,1.939A3.381,3.381,0,0,1,38.2,56.214a3.182,3.182,0,0,1-.845.348,2.759,2.759,0,0,1-.9,0,2.884,2.884,0,0,1-1.542-.472,2.834,2.834,0,0,1-.995-1.044,3.033,3.033,0,0,1-.4-1.989,2.71,2.71,0,0,1,.224-.7,6.093,6.093,0,0,0-.149.721A3.033,3.033,0,0,0,34.026,55a3.282,3.282,0,0,0,.97.97,2.934,2.934,0,0,0,1.492.448,3.084,3.084,0,0,0,.82,0,2.959,2.959,0,0,0,1.765-4.4,2.785,2.785,0,0,0-.547-.646,3.083,3.083,0,0,0-1.392-.7,3.133,3.133,0,0,0-1.367,0,2.984,2.984,0,0,0-1.616,1.094,6.093,6.093,0,0,0-.5.7Z" transform="translate(39.381 64.402)" fill="#f5f5f5"/>
    <path id="Trazado_215786" data-name="Trazado 215786" d="M34.08,52.567h-.423l-1.268-.249h0L31.37,54.8h0l1.417.97h0a6.39,6.39,0,0,0,0,1.815h0l-1.367,1.019h0L32.538,61.1h0l1.666-.323h0A6.962,6.962,0,0,0,35.5,62.264h0l-.273,1.691h0l2.636,1.019h0l.945-1.417h0a7.459,7.459,0,0,0,1.815,0h0l.995,1.367h0L44.1,63.805h0l-.224-1.542h0a6.962,6.962,0,0,0,1.268-1.293h0l1.691.249h0l1.094-2.76h0l-1.392-.97h0a6.34,6.34,0,0,0,0-1.815h0L47.9,54.656h0l-1.119-2.486h0l-1.691.323h0A7.808,7.808,0,0,0,43.8,51.225h0l.273-1.666h0l-2.486-1.044h0L40.47,49.832h0a7.459,7.459,0,0,0-1.815,0h0l-1.019-1.367h0l-2.486,1.119h0l.323,1.691h0a6.266,6.266,0,0,0-.995.945l-.224.249h0l.224-.273a7.459,7.459,0,0,1,.995-.97h0l-.323-1.666h0l2.486-1.119h0l.995,1.392h0a6.589,6.589,0,0,1,1.84,0h0l.97-1.392h0l2.635,1.044h0l-.249,1.666h0a6.614,6.614,0,0,1,1.318,1.318h0l1.691-.3h0l1.119,2.486h0l-1.367.995h0a6.688,6.688,0,0,1,0,1.865h0l1.392.945h0L46.934,61.1h0l-1.691-.273h0a6.638,6.638,0,0,1-1.293,1.343h0l.3,1.691h0l-2.486,1.094h0l-1.019-1.367h0a6.738,6.738,0,0,1-1.865,0h0l-.97,1.392h0L35.422,63.93h0l.075-1.666h0a7.458,7.458,0,0,1-1.343-1.293h0l-1.666.3h0L31.37,58.783h0l1.367-1.019h0a6.738,6.738,0,0,1,0-1.865h0l-1.417-.97h0l1.044-2.486h0l1.243.2h.323Z" transform="translate(36.144 61.385)" fill="#f5f5f5"/>
    <path id="Trazado_215787" data-name="Trazado 215787" d="M83.895,79.583l21.855-3.357A22.079,22.079,0,1,1,86.331,57.579Z" transform="translate(81.506 74.772)" fill="#f5f5f5"/>
    <path id="Trazado_215788" data-name="Trazado 215788" d="M75.135,57.54,72.5,74.472l16.609-3.108A22.2,22.2,0,0,0,75.135,57.54Z" transform="translate(97.351 74.911)" fill="#e0e0e0"/>
    <rect id="Rectángulo_44227" data-name="Rectángulo 44227" width="94.629" height="82.123" transform="translate(133.526 36.131)" fill="#fafafa"/>
    <path id="Trazado_215789" data-name="Trazado 215789" d="M152.644,101.012V18.79H57.89l.273.1v82.049H57.89V18.74h94.754v82.272Z" transform="translate(75.636 17.241)" fill="#263238"/>
    <path id="Trazado_215790" data-name="Trazado 215790" d="M138.575,27.779H61.549V65.7l-.149-.149h.025V27.63H138.6Z" transform="translate(80.853 30.455)" fill="#e0e0e0"/>
    <path id="Trazado_215791" data-name="Trazado 215791" d="M138.575,30.325s-17.4.149-38.588.149-38.588,0-38.588-.149S78.68,30.2,99.988,30.2,138.575,30.251,138.575,30.325Z" transform="translate(80.853 34.274)" fill="#e0e0e0"/>
    <path id="Trazado_215792" data-name="Trazado 215792" d="M138.575,32.425s-17.4.149-38.588.149-38.588,0-38.588-.149S78.68,32.3,99.988,32.3,138.575,32.351,138.575,32.425Z" transform="translate(80.853 37.395)" fill="#e0e0e0"/>
    <path id="Trazado_215793" data-name="Trazado 215793" d="M138.575,34.549H61.4S78.68,34.4,99.988,34.4,138.575,34.45,138.575,34.549Z" transform="translate(80.853 40.517)" fill="#e0e0e0"/>
    <path id="Trazado_215794" data-name="Trazado 215794" d="M138.575,36.649H61.4S78.68,36.5,99.988,36.5,138.575,36.575,138.575,36.649Z" transform="translate(80.853 43.638)" fill="#e0e0e0"/>
    <path id="Trazado_215795" data-name="Trazado 215795" d="M138.575,38.749s-17.4.124-38.588.124-38.588,0-38.588-.124S78.68,38.6,99.988,38.6,138.575,38.675,138.575,38.749Z" transform="translate(80.853 46.76)" fill="#e0e0e0"/>
    <path id="Trazado_215796" data-name="Trazado 215796" d="M61.4,40.849S78.68,40.7,99.988,40.7s38.588,0,38.588.149-17.255.124-38.588.124S61.4,40.924,61.4,40.849Z" transform="translate(80.853 49.881)" fill="#e0e0e0"/>
    <path id="Trazado_215797" data-name="Trazado 215797" d="M67.639,66.178s-.149-8.628-.149-19.244,0-19.244.149-19.244,0,8.6,0,19.244S67.714,66.178,67.639,66.178Z" transform="translate(89.904 30.544)" fill="#e0e0e0"/>
    <path id="Trazado_215798" data-name="Trazado 215798" d="M73.77,66.178V27.69s.149,8.6.149,19.244S73.845,66.178,73.77,66.178Z" transform="translate(99.239 30.544)" fill="#e0e0e0"/>
    <path id="Trazado_215799" data-name="Trazado 215799" d="M80.089,66.178s-.149-8.628-.149-19.244,0-19.244.149-19.244,0,8.6,0,19.244Z" transform="translate(108.409 30.544)" fill="#e0e0e0"/>
    <path id="Trazado_215800" data-name="Trazado 215800" d="M86.309,66.178s-.149-8.628-.149-19.244,0-19.244.149-19.244.149,8.6.149,19.244S86.384,66.178,86.309,66.178Z" transform="translate(117.654 30.544)" fill="#e0e0e0"/>
    <path id="Trazado_215801" data-name="Trazado 215801" d="M92.44,66.178V27.69s.149,8.6.149,19.244S92.515,66.178,92.44,66.178Z" transform="translate(126.988 30.544)" fill="#e0e0e0"/>
    <path id="Trazado_215802" data-name="Trazado 215802" d="M138.546,30.25a5.883,5.883,0,0,1-.572.472l-1.74,1.218-6.464,4.475c-5.52,3.779-13.227,9.025-22,14.918h-.124l-6.564-2.213-8.9-3.008H92.4L76.785,56.555h0L65.6,60.409l-3.083,1.044-.82.249h0l.771-.323,2.884-1.169,11.139-4.028h0L91.927,45.69h.124l8.9,3.008,6.564,2.213h-.249c8.8-5.917,16.559-11.114,22.128-14.918l6.564-4.351,1.79-1.144Z" transform="translate(80.882 34.349)" fill="#f67409"/>
    <circle id="Elipse_7083" data-name="Elipse 7083" cx="0.945" cy="0.945" r="0.945" transform="translate(156.599 89.785)" fill="#f67409"/>
    <path id="Trazado_215803" data-name="Trazado 215803" d="M75.28,37.125a.945.945,0,1,1-.945-.945.945.945,0,0,1,.945.945Z" transform="translate(98.674 43.163)" fill="#f67409"/>
    <path id="Trazado_215804" data-name="Trazado 215804" d="M81.485,39.185a.92.92,0,0,1-.92.945.945.945,0,0,1,0-1.89.92.92,0,0,1,.92.945Z" transform="translate(107.934 46.225)" fill="#f67409"/>
    <path id="Trazado_215805" data-name="Trazado 215805" d="M87.79,35.035a.945.945,0,1,1-.945-.945.945.945,0,0,1,.945.945Z" transform="translate(117.268 40.056)" fill="#f67409"/>
    <path id="Trazado_215806" data-name="Trazado 215806" d="M138.739,53.5l-.273-.174-.845-.5-3.108-2.039L123.15,43.329h.249l-15.44,10.393h-.224l-.149-.2-8.13-10.965L92,32.613h.4L76.879,48.227h0L65.542,52.2l-3.158.97-.82.249h0l.8-.3,3.108-1.094,11.437-3.9h0l15.44-15.714.2-.224.2.249,7.459,9.945,8.105,10.965h-.348l15.49-10.318h0l11.238,7.633,3.058,2.113.8.572C138.664,53.4,138.764,53.473,138.739,53.5Z" transform="translate(80.689 37.232)" fill="#455a64"/>
    <path id="Trazado_215807" data-name="Trazado 215807" d="M75.279,32.9a.945.945,0,1,1-.945-.92.945.945,0,0,1,.945.92Z" transform="translate(98.674 36.92)" fill="#455a64"/>
    <path id="Trazado_215808" data-name="Trazado 215808" d="M69.06,39.225a.945.945,0,1,1-.945-.945.945.945,0,0,1,.945.945Z" transform="translate(89.429 46.284)" fill="#455a64"/>
    <path id="Trazado_215809" data-name="Trazado 215809" d="M81.485,41.325a.92.92,0,0,1-.92.945.945.945,0,0,1,0-1.89.92.92,0,0,1,.92.945Z" transform="translate(107.934 49.405)" fill="#455a64"/>
    <circle id="Elipse_7084" data-name="Elipse 7084" cx="0.945" cy="0.945" r="0.945" transform="translate(203.018 80.263)" fill="#455a64"/>
    <path id="Trazado_215810" data-name="Trazado 215810" d="M66.784,44.77a9.025,9.025,0,0,1-2.984,0,7.459,7.459,0,0,1,2.984,0Z" transform="translate(84.42 55.706)" fill="#e0e0e0"/>
    <path id="Trazado_215811" data-name="Trazado 215811" d="M73.094,44.77a9,9,0,0,1-2.984,0,7.459,7.459,0,0,1,2.984,0Z" transform="translate(93.799 55.706)" fill="#e0e0e0"/>
    <path id="Trazado_215812" data-name="Trazado 215812" d="M79.454,44.77a9.025,9.025,0,0,1-2.984,0A7.459,7.459,0,0,1,79.454,44.77Z" transform="translate(103.252 55.706)" fill="#e0e0e0"/>
    <path id="Trazado_215813" data-name="Trazado 215813" d="M85.769,44.769a4.3,4.3,0,0,1-1.492,0,4.2,4.2,0,0,1-1.467,0,7.247,7.247,0,0,1,1.467-.149A3.52,3.52,0,0,1,85.769,44.769Z" transform="translate(112.675 55.707)" fill="#e0e0e0"/>
    <path id="Trazado_215814" data-name="Trazado 215814" d="M92.184,44.77a9,9,0,0,1-2.984,0,7.459,7.459,0,0,1,2.984,0Z" transform="translate(122.172 55.706)" fill="#e0e0e0"/>
    <path id="Trazado_215815" data-name="Trazado 215815" d="M62.006,42.931a4.973,4.973,0,0,1-2.486,0A5.793,5.793,0,0,1,62.006,42.931Z" transform="translate(78.058 52.996)" fill="#e0e0e0"/>
    <path id="Trazado_215816" data-name="Trazado 215816" d="M62.006,40.5a5.793,5.793,0,0,1-2.486,0A4.973,4.973,0,0,1,62.006,40.5Z" transform="translate(78.058 49.355)" fill="#e0e0e0"/>
    <path id="Trazado_215817" data-name="Trazado 215817" d="M62.006,38.09a5.793,5.793,0,0,1-2.486,0,4.814,4.814,0,0,1,1.193-.149C61.385,37.941,62.006,37.916,62.006,38.09Z" transform="translate(78.058 45.778)" fill="#e0e0e0"/>
    <path id="Trazado_215818" data-name="Trazado 215818" d="M62.006,35.6a4.848,4.848,0,0,1-2.486,0,5.793,5.793,0,0,1,2.486,0Z" transform="translate(78.058 42.101)" fill="#e0e0e0"/>
    <path id="Trazado_215819" data-name="Trazado 215819" d="M62.006,33.174a5.793,5.793,0,0,1-2.486,0A4.973,4.973,0,0,1,62.006,33.174Z" transform="translate(78.058 38.461)" fill="#e0e0e0"/>
    <path id="Trazado_215820" data-name="Trazado 215820" d="M62.006,30.734a5.793,5.793,0,0,1-2.486,0,4.973,4.973,0,0,1,2.486,0Z" transform="translate(78.058 34.834)" fill="#e0e0e0"/>
    <path id="Trazado_215821" data-name="Trazado 215821" d="M62.006,28.271a4.973,4.973,0,0,1-2.486,0,5.793,5.793,0,0,1,2.486,0Z" transform="translate(78.058 31.206)" fill="#e0e0e0"/>
    <rect id="Rectángulo_44228" data-name="Rectángulo 44228" width="22.178" height="1.566" transform="translate(141.855 45.081)" fill="#f67409"/>
    <path id="Trazado_215822" data-name="Trazado 215822" d="M123.114,24.339s-13.874.149-30.98.149-30.955,0-30.955-.149,13.849-.149,30.955-.149S123.114,24.265,123.114,24.339Z" transform="translate(80.526 25.342)" fill="#263238"/>
    <path id="Trazado_215823" data-name="Trazado 215823" d="M99.562,47.76s-8.454.149-18.871.149-18.871,0-18.871-.149,8.453,0,18.871,0S99.562,47.685,99.562,47.76Z" transform="translate(81.477 60.275)" fill="#263238"/>
    <path id="Trazado_215824" data-name="Trazado 215824" d="M70.256,48.909a28.513,28.513,0,0,1-4.028.149,28.818,28.818,0,0,1-4.028-.149,31.525,31.525,0,0,1,4.028,0,31.227,31.227,0,0,1,4.028,0Z" transform="translate(82.042 61.985)" fill="#263238"/>
    <path id="Trazado_215825" data-name="Trazado 215825" d="M106.8,47.6s-6.017.149-13.426.149-13.426,0-13.426-.149,6.017-.124,13.426-.124S106.8,47.521,106.8,47.6Z" transform="translate(108.424 59.942)" fill="#263238"/>
    <path id="Trazado_215826" data-name="Trazado 215826" d="M89.9,48.3a27.025,27.025,0,0,1-4.2.149,27.025,27.025,0,0,1-4.2-.149,34.267,34.267,0,0,1,4.2,0,34.265,34.265,0,0,1,4.2,0Z" transform="translate(110.728 61.079)" fill="#263238"/>
    <rect id="Rectángulo_44229" data-name="Rectángulo 44229" width="51.492" height="46.072" transform="translate(29.473 53.485)" fill="#fafafa"/>
    <path id="Trazado_215827" data-name="Trazado 215827" d="M67.616,72.015v-46H16.149V72.09l-.149-.2h.149V25.67H67.715v46.2Z" transform="translate(13.374 27.542)" fill="#263238"/>
    <path id="Trazado_215828" data-name="Trazado 215828" d="M31.238,29.174s-2.71.124-6.067.124a52.108,52.108,0,0,1-6.042-.124A45.4,45.4,0,0,1,25.147,29C28.479,29,31.238,29,31.238,29.174Z" transform="translate(18.026 32.491)" fill="#263238"/>
    <path id="Trazado_215829" data-name="Trazado 215829" d="M52.647,30.549s-7.459.124-16.633.124-16.633,0-16.633-.124,7.459-.149,16.633-.149S52.647,30.475,52.647,30.549Z" transform="translate(18.398 34.572)" fill="#263238"/>
    <rect id="Rectángulo_44230" data-name="Rectángulo 44230" width="2.163" height="2.163" transform="translate(37.206 70.989)" fill="#263238"/>
    <rect id="Rectángulo_44231" data-name="Rectángulo 44231" width="2.163" height="2.163" transform="translate(42.551 70.989)" fill="#263238"/>
    <rect id="Rectángulo_44232" data-name="Rectángulo 44232" width="2.163" height="2.163" transform="translate(47.996 70.889)" fill="#f67409"/>
    <rect id="Rectángulo_44233" data-name="Rectángulo 44233" width="2.163" height="2.163" transform="translate(53.243 70.989)" fill="#263238"/>
    <rect id="Rectángulo_44234" data-name="Rectángulo 44234" width="2.163" height="2.163" transform="translate(58.563 70.989)" fill="#263238"/>
    <rect id="Rectángulo_44235" data-name="Rectángulo 44235" width="2.163" height="2.163" transform="translate(63.909 70.989)" fill="#263238"/>
    <rect id="Rectángulo_44236" data-name="Rectángulo 44236" width="2.163" height="2.163" transform="translate(69.254 70.989)" fill="#263238"/>
    <rect id="Rectángulo_44237" data-name="Rectángulo 44237" width="2.163" height="2.163" transform="translate(37.206 75.588)" fill="#263238"/>
    <rect id="Rectángulo_44238" data-name="Rectángulo 44238" width="2.163" height="2.163" transform="translate(42.551 75.588)" fill="#263238"/>
    <rect id="Rectángulo_44239" data-name="Rectángulo 44239" width="2.163" height="2.163" transform="translate(47.897 75.588)" fill="#263238"/>
    <rect id="Rectángulo_44240" data-name="Rectángulo 44240" width="2.163" height="2.163" transform="translate(53.243 75.588)" fill="#263238"/>
    <rect id="Rectángulo_44241" data-name="Rectángulo 44241" width="2.163" height="2.163" transform="translate(58.563 75.588)" fill="#263238"/>
    <rect id="Rectángulo_44242" data-name="Rectángulo 44242" width="2.163" height="2.163" transform="translate(64.008 75.489)" fill="#f67409"/>
    <rect id="Rectángulo_44243" data-name="Rectángulo 44243" width="2.163" height="2.163" transform="translate(69.254 75.588)" fill="#263238"/>
    <rect id="Rectángulo_44244" data-name="Rectángulo 44244" width="2.163" height="2.163" transform="translate(37.206 80.213)" fill="#263238"/>
    <rect id="Rectángulo_44245" data-name="Rectángulo 44245" width="2.163" height="2.163" transform="translate(42.651 80.114)" fill="#f67409"/>
    <rect id="Rectángulo_44246" data-name="Rectángulo 44246" width="2.163" height="2.163" transform="translate(47.897 80.213)" fill="#263238"/>
    <rect id="Rectángulo_44247" data-name="Rectángulo 44247" width="2.163" height="2.163" transform="translate(53.243 80.213)" fill="#263238"/>
    <rect id="Rectángulo_44248" data-name="Rectángulo 44248" width="2.163" height="2.163" transform="translate(58.563 80.213)" fill="#263238"/>
    <rect id="Rectángulo_44249" data-name="Rectángulo 44249" width="2.163" height="2.163" transform="translate(63.909 80.213)" fill="#263238"/>
    <rect id="Rectángulo_44250" data-name="Rectángulo 44250" width="2.163" height="2.163" transform="translate(69.254 80.213)" fill="#263238"/>
    <rect id="Rectángulo_44251" data-name="Rectángulo 44251" width="2.163" height="2.163" transform="translate(37.206 84.813)" fill="#263238"/>
    <rect id="Rectángulo_44252" data-name="Rectángulo 44252" width="2.163" height="2.163" transform="translate(42.551 84.813)" fill="#263238"/>
    <rect id="Rectángulo_44253" data-name="Rectángulo 44253" width="2.163" height="2.163" transform="translate(47.897 84.813)" fill="#263238"/>
    <rect id="Rectángulo_44254" data-name="Rectángulo 44254" width="2.163" height="2.163" transform="translate(53.342 84.713)" fill="#f67409"/>
    <rect id="Rectángulo_44255" data-name="Rectángulo 44255" width="2.163" height="2.163" transform="translate(58.563 84.813)" fill="#263238"/>
    <rect id="Rectángulo_44256" data-name="Rectángulo 44256" width="2.163" height="2.163" transform="translate(63.909 84.813)" fill="#263238"/>
    <rect id="Rectángulo_44257" data-name="Rectángulo 44257" width="2.163" height="2.163" transform="translate(69.254 84.813)" fill="#263238"/>
    <rect id="Rectángulo_44258" data-name="Rectángulo 44258" width="2.163" height="2.163" transform="translate(37.206 89.437)" fill="#263238"/>
    <rect id="Rectángulo_44259" data-name="Rectángulo 44259" width="2.163" height="2.163" transform="translate(42.551 89.437)" fill="#263238"/>
    <rect id="Rectángulo_44260" data-name="Rectángulo 44260" width="2.163" height="2.163" transform="translate(47.897 89.437)" fill="#263238"/>
    <rect id="Rectángulo_44261" data-name="Rectángulo 44261" width="2.163" height="2.163" transform="translate(53.243 89.437)" fill="#263238"/>
    <rect id="Rectángulo_44262" data-name="Rectángulo 44262" width="2.163" height="2.163" transform="translate(58.563 89.437)" fill="#263238"/>
    <rect id="Rectángulo_44263" data-name="Rectángulo 44263" width="2.163" height="2.163" transform="translate(64.008 89.338)" fill="#f67409"/>
    <rect id="Rectángulo_44264" data-name="Rectángulo 44264" width="2.163" height="2.163" transform="translate(69.254 89.437)" fill="#263238"/>
    <path id="Trazado_215830" data-name="Trazado 215830" d="M40.446,24.494V14.648H32.639v-.124h0v9.821h-.2V14.4h0l.149-.149h7.931v9.8a.423.423,0,0,1-.075.448Z" transform="translate(37.809 10.568)" fill="#263238"/>
    <path id="Trazado_215831" data-name="Trazado 215831" d="M44.284,32.951V8.709h-7.31c.273-.273,0,0,.149-.124h0V32.826H36.9V8.709h0s-.149.124,0-.149h7.459V32.826a.7.7,0,0,0-.075.124Z" transform="translate(44.339 2.111)" fill="#263238"/>
    <path id="Trazado_215832" data-name="Trazado 215832" d="M48.569,27.228a2.716,2.716,0,0,0,0-.3v-14.3H41.11l.124-.124h0V27.179H41.16V12.559h0l.149-.149h7.459V27A2.486,2.486,0,0,0,48.569,27.228Z" transform="translate(50.695 7.833)" fill="#263238"/>
    <path id="Trazado_215833" data-name="Trazado 215833" d="M53.063,31.019V10.357H45.38c.273-.273,0,0,.149-.124h0V31.242h-.05V10.009h0s-.149.124.124-.149h7.832V30.621A1.371,1.371,0,0,0,53.063,31.019Z" transform="translate(57.042 4.043)" fill="#263238"/>
    <path id="Trazado_215834" data-name="Trazado 215834" d="M49.71,76.434c.82,1.939,4.276,46.942,3.9,46.246l8.7-.572.547-46.718Z" transform="translate(63.478 101.441)" fill="#ffbe9d"/>
    <path id="Trazado_215835" data-name="Trazado 215835" d="M60.424,94.9V94l-9.274.174V96.81h.572a133.521,133.521,0,0,0,14.644-.224C68.306,96.213,60.424,94.9,60.424,94.9Z" transform="translate(65.618 129.102)" fill="#f67409"/>
    <g id="Grupo_145961" data-name="Grupo 145961" transform="translate(116.768 223.787)" opacity="0.3">
      <path id="Trazado_215836" data-name="Trazado 215836" d="M54.531,96.4a2.486,2.486,0,0,0-1.218-1.591,3.605,3.605,0,0,0-2.163-.522V96.4Z" transform="translate(-51.15 -94.276)"/>
    </g>
    <g id="Grupo_145962" data-name="Grupo 145962" transform="translate(116.867 224.743)" opacity="0.3">
      <path id="Trazado_215837" data-name="Trazado 215837" d="M64.218,94.66s2.76.622,2.486.995a106.516,106.516,0,0,1-15.515.274v-.149H63.472S63.671,94.71,64.218,94.66Z" transform="translate(-51.19 -94.66)"/>
    </g>
    <path id="Trazado_215838" data-name="Trazado 215838" d="M51.11,95.189h7.757c2.163,0,4.127,0,5.544-.149h0l-5.544.149Z" transform="translate(65.559 130.648)" fill="#263238"/>
    <path id="Trazado_215839" data-name="Trazado 215839" d="M56.115,95.823a3.731,3.731,0,0,1,.3-.671,3.283,3.283,0,0,1,.572-.522,1.218,1.218,0,0,0-.671.472.97.97,0,0,0-.2.721Z" transform="translate(72.985 130.038)" fill="#263238"/>
    <path id="Trazado_215840" data-name="Trazado 215840" d="M55,95.061s.149,0,.273-.3.224-.323.2-.348-.174,0-.3.3A1.4,1.4,0,0,1,55,95.061Z" transform="translate(71.34 129.707)" fill="#263238"/>
    <path id="Trazado_215841" data-name="Trazado 215841" d="M54.7,94.822a1.045,1.045,0,0,0,.323-.2c.149,0,.273-.224.249-.249s-.174,0-.323.2S54.677,94.8,54.7,94.822Z" transform="translate(70.893 129.647)" fill="#263238"/>
    <path id="Trazado_215842" data-name="Trazado 215842" d="M54.5,94.274a1.468,1.468,0,0,0,.5,0,1.168,1.168,0,0,0,.472,0,1.168,1.168,0,0,0-.472,0,1.343,1.343,0,0,0-.5,0Z" transform="translate(70.597 129.474)" fill="#263238"/>
    <path id="Trazado_215843" data-name="Trazado 215843" d="M54.43,94.067a1.368,1.368,0,0,0,.547,0,1.144,1.144,0,0,0,.547,0h-.547A3.456,3.456,0,0,0,54.43,94.067Z" transform="translate(70.493 129.184)" fill="#263238"/>
    <path id="Trazado_215844" data-name="Trazado 215844" d="M55.12,94.736a1.317,1.317,0,0,0,.6,0l.646-.124h.348a.16.16,0,0,0,.149-.149.174.174,0,0,0,0-.2,1.243,1.243,0,0,0-1.343.273,1.044,1.044,0,0,0-.174.323.7.7,0,0,0,0,.149,1.517,1.517,0,0,1,.273-.423.87.87,0,0,1,.5-.273.97.97,0,0,1,.7,0v.2h-.323l-.6.124a3.158,3.158,0,0,1-.771.1Z" transform="translate(71.519 129.36)" fill="#263238"/>
    <path id="Trazado_215845" data-name="Trazado 215845" d="M55.7,94.961a.547.547,0,0,0,0-.323.672.672,0,0,0-.174-.348.547.547,0,0,0-.5-.249.2.2,0,0,0-.174.224.9.9,0,0,0,0,.224l.3.273a.845.845,0,0,0,.348.2s-.124,0-.3-.249a1.367,1.367,0,0,1-.249-.273s-.149-.3,0-.323a.646.646,0,0,1,.4.224.622.622,0,0,1,.174.3A.57.57,0,0,1,55.7,94.961Z" transform="translate(71.113 129.16)" fill="#263238"/>
    <path id="Trazado_215846" data-name="Trazado 215846" d="M51.17,94.315h.671a3.157,3.157,0,0,1,1.492.472,2.635,2.635,0,0,1,.97,1.044,1.964,1.964,0,0,1,.174.547v-.149a.92.92,0,0,0,0-.4,2.337,2.337,0,0,0-.97-1.119,3.506,3.506,0,0,0-1.566-.472h-.671Z" transform="translate(65.648 129.458)" fill="#263238"/>
    <path id="Trazado_215847" data-name="Trazado 215847" d="M53,94.827a6.292,6.292,0,0,0,1.343,0,5.2,5.2,0,0,0,1.343,0H54.343C53.6,94.827,53,94.8,53,94.827Z" transform="translate(68.368 130.314)" fill="#263238"/>
    <path id="Trazado_215848" data-name="Trazado 215848" d="M52.24,94.83v.224c0,.224,0,.224.124.224s0-.124,0-.249a.348.348,0,0,0-.124-.2Z" transform="translate(67.238 130.335)" fill="#263238"/>
    <path id="Trazado_215849" data-name="Trazado 215849" d="M52,94.61l.149.174c.149.174.2.124.2,0s0,0-.124-.174S52,94.585,52,94.61Z" transform="translate(66.881 129.884)" fill="#263238"/>
    <path id="Trazado_215850" data-name="Trazado 215850" d="M51.572,94.556h.522c.025,0,0,0-.224-.149A.183.183,0,0,0,51.572,94.556Z" transform="translate(66.24 129.64)" fill="#263238"/>
    <path id="Trazado_215851" data-name="Trazado 215851" d="M51.29,94.38Z" transform="translate(65.826 129.667)" fill="#263238"/>
    <path id="Trazado_215852" data-name="Trazado 215852" d="M43,75.9c.249.845,4.8,46.345,4.8,46.345l8.7-.572L57.073,75.9Z" transform="translate(53.504 102.199)" fill="#ffbe9d"/>
    <path id="Trazado_215853" data-name="Trazado 215853" d="M54.019,94.966v-.8l-9.249.174V96.98h.572a133.393,133.393,0,0,0,14.644-.224C61.876,96.234,54.019,94.966,54.019,94.966Z" transform="translate(56.135 129.354)" fill="#f67409"/>
    <g id="Grupo_145963" data-name="Grupo 145963" transform="translate(100.856 224.111)" opacity="0.3">
      <path id="Trazado_215854" data-name="Trazado 215854" d="M48.131,96.53a2.486,2.486,0,0,0-1.218-1.591,3.605,3.605,0,0,0-2.163-.522V96.53Z" transform="translate(-44.75 -94.406)"/>
    </g>
    <g id="Grupo_145964" data-name="Grupo 145964" transform="translate(100.88 225.066)" opacity="0.3">
      <path id="Trazado_215855" data-name="Trazado 215855" d="M57.788,94.79s2.785.622,2.486.995a106.383,106.383,0,0,1-15.515.273v-.149H57.067S57.341,94.84,57.788,94.79Z" transform="translate(-44.76 -94.79)"/>
    </g>
    <path id="Trazado_215856" data-name="Trazado 215856" d="M44.72,95.344h7.832a51,51,0,0,0,5.52-.174h0l-5.544.149H44.72Z" transform="translate(56.061 130.841)" fill="#263238"/>
    <path id="Trazado_215857" data-name="Trazado 215857" d="M49.739,95.953a2.486,2.486,0,0,1,.3-.671,3.7,3.7,0,0,1,.547-.522,1.218,1.218,0,0,0-.646.472C49.664,95.605,49.689,95.953,49.739,95.953Z" transform="translate(63.474 130.231)" fill="#263238"/>
    <path id="Trazado_215858" data-name="Trazado 215858" d="M48.612,95.172s.149,0,.273-.3a.945.945,0,0,1,.2-.323c-.025,0-.149,0-.273.273S48.587,95.172,48.612,95.172Z" transform="translate(61.84 129.919)" fill="#263238"/>
    <path id="Trazado_215859" data-name="Trazado 215859" d="M48.313,94.952l.323-.2c.149,0,.249-.224.224-.249s-.149,0-.323.2S48.288,94.927,48.313,94.952Z" transform="translate(61.394 129.84)" fill="#263238"/>
    <path id="Trazado_215860" data-name="Trazado 215860" d="M48.11,94.4a1.268,1.268,0,0,0,.472,0,1.342,1.342,0,0,0,.5,0,1.342,1.342,0,0,0-.5,0A1.268,1.268,0,0,0,48.11,94.4Z" transform="translate(61.1 129.668)" fill="#263238"/>
    <path id="Trazado_215861" data-name="Trazado 215861" d="M48,94.19a1.094,1.094,0,0,0,.547,0,.994.994,0,0,0,.547,0Z" transform="translate(60.936 129.384)" fill="#263238"/>
    <path id="Trazado_215862" data-name="Trazado 215862" d="M48.73,94.793a1.268,1.268,0,0,0,.6,0,3.431,3.431,0,0,0,.622,0H50.3l.149-.149a.174.174,0,0,0,0-.2,1.193,1.193,0,0,0-1.318.274.8.8,0,0,0-.2.323s0,.149,0,.149a.821.821,0,0,1,.249-.423.97.97,0,0,1,.5-.274,1.193,1.193,0,0,1,.721,0s0,.149,0,.2h-.945a3.034,3.034,0,0,1-.721.1Z" transform="translate(62.021 129.627)" fill="#263238"/>
    <path id="Trazado_215863" data-name="Trazado 215863" d="M49.313,95.09a.4.4,0,0,0,0-.323.671.671,0,0,0-.174-.348.572.572,0,0,0-.5-.249.2.2,0,0,0-.2.224,1.019,1.019,0,0,0,.124.224.945.945,0,0,0,.273.273,1.367,1.367,0,0,0,.348.2s-.124,0-.273-.224l-.273-.3s-.149-.273,0-.3a.472.472,0,0,1,.4.2.622.622,0,0,1,.174.3C49.338,94.966,49.288,95.09,49.313,95.09Z" transform="translate(61.587 129.354)" fill="#263238"/>
    <path id="Trazado_215864" data-name="Trazado 215864" d="M44.77,94.459h.7a3.332,3.332,0,0,1,1.492.472,2.735,2.735,0,0,1,.87,1.019c.149.323.174.547.2.547v-.149a1.766,1.766,0,0,0,0-.4,2.262,2.262,0,0,0-.945-1.119,3.58,3.58,0,0,0-1.566-.472h-.7Z" transform="translate(56.135 129.637)" fill="#263238"/>
    <path id="Trazado_215865" data-name="Trazado 215865" d="M46.57,95.04a6.662,6.662,0,0,0,1.367,0,9.1,9.1,0,0,0,1.343,0,9.95,9.95,0,0,0-1.343,0C47.192,95.04,46.595,94.89,46.57,95.04Z" transform="translate(58.811 130.548)" fill="#263238"/>
    <path id="Trazado_215866" data-name="Trazado 215866" d="M45.85,95.006v.2c0,.2,0,.224.149.224s0,0,0-.249S45.85,95.006,45.85,95.006Z" transform="translate(57.74 130.582)" fill="#263238"/>
    <path id="Trazado_215867" data-name="Trazado 215867" d="M45.581,94.74v.174c0,.174.2,0,.224,0s0,0-.149-.174S45.581,94.715,45.581,94.74Z" transform="translate(57.313 130.078)" fill="#263238"/>
    <path id="Trazado_215868" data-name="Trazado 215868" d="M45.17,94.686h.522c.025,0,0,0-.224-.149S45.17,94.661,45.17,94.686Z" transform="translate(56.73 129.833)" fill="#263238"/>
    <path id="Trazado_215869" data-name="Trazado 215869" d="M44.89,94.517h.149S44.89,94.492,44.89,94.517Z" transform="translate(56.314 129.853)" fill="#263238"/>
    <path id="Trazado_215870" data-name="Trazado 215870" d="M72,49.72h0c1.74-1.119,2.834-2.064,4.028-2.76s2.014-1.268,1.84-1.542,0-.224-3.008.92c0,0,4.1-1.666,2.934-2.014a19.168,19.168,0,0,0-3.953,1.218c2.859-.845,3.779-1.616,3.63-2.039s-4.326,1.069-4.326,1.069a36.48,36.48,0,0,0,3.655-1.591c.5-.4-.249-.547-.9-.522s-4.973.945-6.116,1.119a.721.721,0,0,1-.92-.622,4.625,4.625,0,0,0-1.293-3.481c-.423-.274-.945.224-.721.746a6.439,6.439,0,0,1,.273,1.79,4.674,4.674,0,0,1-.149,1.442,12.656,12.656,0,0,1-.448,1.367L58.42,57.477l3.506,8.677Z" transform="translate(76.424 47.947)" fill="#ffbe9d"/>
    <path id="Trazado_215871" data-name="Trazado 215871" d="M64.34,43.476a7.459,7.459,0,0,0,2.014-.7,8.652,8.652,0,0,0,1.89-.97,7.459,7.459,0,0,0-2.014.721,8.006,8.006,0,0,0-1.89.945Z" transform="translate(85.223 51.531)" fill="#eb996e"/>
    <path id="Trazado_215872" data-name="Trazado 215872" d="M64.12,42.982a9.523,9.523,0,0,0,2.188-.646,8.951,8.951,0,0,0,2.089-.9,9.945,9.945,0,0,0-2.188.646A9.049,9.049,0,0,0,64.12,42.982Z" transform="translate(84.896 50.981)" fill="#eb996e"/>
    <path id="Trazado_215873" data-name="Trazado 215873" d="M63.89,42.442a8.329,8.329,0,0,0,2.064-.547,8.678,8.678,0,0,0,1.989-.845,9.176,9.176,0,0,0-2.089.572,7.608,7.608,0,0,0-1.964.82Z" transform="translate(84.554 50.401)" fill="#eb996e"/>
    <path id="Trazado_215874" data-name="Trazado 215874" d="M70.406,39.206V72.4L48.824,79.509l.2-10.592s-4.451-13.948-4.451-14.172-.423-15.216-.423-15.216l7.981-1.939h9.945Z" transform="translate(55.214 45.258)" fill="#f67409"/>
    <path id="Trazado_215875" data-name="Trazado 215875" d="M54.09,38.39a23.544,23.544,0,0,0-3.953,2.188c-.771.6-7.459,12.432-11.711,20.338a7.459,7.459,0,0,0,3.232,10.219L54.09,77.177l3.729-10.393-7.086-3.829,5.37-9.324L54.139,38.39" transform="translate(45.374 46.448)" fill="#f67409"/>
    <path id="Trazado_215876" data-name="Trazado 215876" d="M46.945,57.527l-4.625-.348V53.326l6.738-1.716Z" transform="translate(52.494 66.097)" fill="#e8505b"/>
    <path id="Trazado_215877" data-name="Trazado 215877" d="M42.34,53.714a9.945,9.945,0,0,0,2.263,0,3.456,3.456,0,0,0,2.039-.945,5.1,5.1,0,0,0,1.044-2.909l.771-5.37A5.271,5.271,0,0,0,44.3,47.648a16.012,16.012,0,0,0-1.119,5.321" transform="translate(52.524 55.514)" fill="#e8505b"/>
    <path id="Trazado_215878" data-name="Trazado 215878" d="M56.434,38.24l8.7,19.766,5.594-7.683A10.741,10.741,0,0,1,75.7,61.263l-6.763,9.2a6.29,6.29,0,0,1-9.3-1.79L53.55,58.006Z" transform="translate(69.185 46.225)" fill="#f67409"/>
    <path id="Trazado_215879" data-name="Trazado 215879" d="M45.87,38.853,58.426,52.925l2.486-14.918a30.109,30.109,0,0,0-15.042.845Z" transform="translate(57.77 45.015)" fill="#ffbe9d"/>
    <path id="Trazado_215880" data-name="Trazado 215880" d="M68.008,62.212l-.273-.224-.671-.646-2.486-2.486c-2.064-2.138-4.973-5.147-7.882-8.528l-7.708-8.7L46.65,38.99l-.622-.721-.2-.249.249.224.671.671L49.236,41.4c2.014,2.188,4.749,5.246,7.782,8.628s5.768,6.44,7.782,8.6l2.486,2.486.646.7Z" transform="translate(57.711 45.898)" fill="#263238"/>
    <path id="Trazado_215881" data-name="Trazado 215881" d="M48.838,59.7a2.71,2.71,0,0,1-.249-.646l-.522-1.84c-.472-1.566-1.119-3.68-1.865-6.042s-1.343-4.525-1.716-6.091c-.2-.8-.348-1.417-.423-1.865a2.909,2.909,0,0,1-.124-.7,2.736,2.736,0,0,1,.224.671l.5,1.84c.448,1.566,1.094,3.7,1.815,6.042s1.367,4.525,1.765,6.091c.2.771.373,1.417.472,1.865a5.766,5.766,0,0,1,.124.671Z" transform="translate(54.902 52.586)" fill="#263238"/>
    <path id="Trazado_215882" data-name="Trazado 215882" d="M40.5,48.564v-.273a.97.97,0,0,1,.448-.671,1.566,1.566,0,0,1,1.144-.323,3.655,3.655,0,0,1,1.367.5c1.691,1.044,3.183,1.616,3.158,1.691a10.616,10.616,0,0,1-3.307-1.442,3.431,3.431,0,0,0-1.243-.5,1.367,1.367,0,0,0-1.019.224,1.094,1.094,0,0,0-.448.547C40.525,48.465,40.525,48.564,40.5,48.564Z" transform="translate(49.789 59.67)" fill="#263238"/>
    <path id="Trazado_215883" data-name="Trazado 215883" d="M48.017,49.292s-.5.522-1.218,1.417a20.388,20.388,0,0,0-2.486,3.754,19.891,19.891,0,0,0-1.566,4.2c-.274,1.119-.373,1.84-.423,1.84s0-.174,0-.522a10.567,10.567,0,0,1,.224-1.343,17.4,17.4,0,0,1,1.492-4.3,17.106,17.106,0,0,1,2.486-3.754,12.757,12.757,0,0,1,.97-.995C47.868,49.391,47.992,49.267,48.017,49.292Z" transform="translate(52.466 62.647)" fill="#263238"/>
    <path id="Trazado_215884" data-name="Trazado 215884" d="M54.42,40.22a1.959,1.959,0,0,0,.224.746,12.365,12.365,0,0,1,.522,2.113,32.321,32.321,0,0,1,.945,7.111,35.479,35.479,0,0,1-.8,7.136c-.174.9-.323,1.616-.448,2.113a3.182,3.182,0,0,1-.2.771,4.5,4.5,0,0,1,0-.8l.373-2.138a42.518,42.518,0,0,0,.821-7.086,36.077,36.077,0,0,0-.845-7.061l-.448-2.138a3.554,3.554,0,0,1-.149-.771Z" transform="translate(70.478 49.167)" fill="#263238"/>
    <path id="Trazado_215885" data-name="Trazado 215885" d="M58.17,52.163a15.712,15.712,0,0,1,0-2.884,16.531,16.531,0,0,1,.348-2.859,15.713,15.713,0,0,1,0,2.884A15.664,15.664,0,0,1,58.17,52.163Z" transform="translate(75.953 58.383)" fill="#263238"/>
    <path id="Trazado_215886" data-name="Trazado 215886" d="M60.671,52.564a23.969,23.969,0,0,1-1.417-3.207A23.572,23.572,0,0,1,58.11,46a22.379,22.379,0,0,1,1.417,3.207A22.377,22.377,0,0,1,60.671,52.564Z" transform="translate(75.963 57.758)" fill="#263238"/>
    <path id="Trazado_215887" data-name="Trazado 215887" d="M63.885,56.352V54.487a11.487,11.487,0,0,0-1.044-4.451,14.023,14.023,0,0,0-2.486-3.729c-.8-.845-1.343-1.318-1.293-1.343s.149,0,.4.3a9.624,9.624,0,0,1,1.019.92,12.432,12.432,0,0,1,2.486,3.754,10.965,10.965,0,0,1,.92,4.475,9.123,9.123,0,0,1,0,1.367A1.715,1.715,0,0,1,63.885,56.352Z" transform="translate(77.373 56.208)" fill="#263238"/>
    <path id="Trazado_215888" data-name="Trazado 215888" d="M55.721,40.431a6.264,6.264,0,0,1-.6-.249,3.8,3.8,0,0,0-1.691-.3,4.053,4.053,0,0,0-2.362.845,20.213,20.213,0,0,0-2.014,2.486A3.531,3.531,0,0,1,47.69,44.26a3.431,3.431,0,0,1-1.566.174,5.1,5.1,0,0,1-2.486-1.044,10.838,10.838,0,0,1-1.293-1.218c-.3-.3-.448-.472-.423-.5l.5.423a13.078,13.078,0,0,0,1.343,1.119,4.749,4.749,0,0,0,2.362.97,3.049,3.049,0,0,0,2.71-1.144A17.4,17.4,0,0,1,50.9,40.556a3.978,3.978,0,0,1,2.486-.845,3.73,3.73,0,0,1,1.74.4l.423.249Z" transform="translate(51.898 48.409)" fill="#fafafa"/>
    <path id="Trazado_215889" data-name="Trazado 215889" d="M50.7,52.753h-.149a1.044,1.044,0,0,1-.448,0,2.486,2.486,0,0,1-1.591-.472,4.376,4.376,0,0,1-1.566-1.914c-.4-.845-.646-1.84-1.044-2.81a6.39,6.39,0,0,0-1.641-2.486,6.614,6.614,0,0,0-2.039-1.218,9.747,9.747,0,0,0-2.163-.472h.6a6.216,6.216,0,0,1,1.641.3,6.663,6.663,0,0,1,2.138,1.243,6.166,6.166,0,0,1,1.716,2.486c.4.995.646,1.989,1.019,2.81a4.5,4.5,0,0,0,1.467,1.84A2.635,2.635,0,0,0,50.1,52.6C50.478,52.778,50.7,52.7,50.7,52.753Z" transform="translate(49.135 53.864)" fill="#fafafa"/>
    <path id="Trazado_215890" data-name="Trazado 215890" d="M39.16,56.458a2.063,2.063,0,0,0,.547,0,2.163,2.163,0,0,0,1.019-1.044,8.08,8.08,0,0,0,.646-2.138,9.945,9.945,0,0,1,.8-2.685,3.953,3.953,0,0,1,.9-1.193,4.252,4.252,0,0,1,1.193-.721A5.594,5.594,0,0,1,46.52,48.3a9.15,9.15,0,0,1,1.542.174,1.641,1.641,0,0,1,.547.149H46.52a5.644,5.644,0,0,0-2.163.423,3.655,3.655,0,0,0-1.939,1.79,10.815,10.815,0,0,0-.8,2.611,7.783,7.783,0,0,1-.721,2.188,2.138,2.138,0,0,1-1.169,1.044,1.467,1.467,0,0,1-.423,0A1.747,1.747,0,0,1,39.16,56.458Z" transform="translate(47.797 61.174)" fill="#fafafa"/>
    <path id="Trazado_215891" data-name="Trazado 215891" d="M48.642,51.7a17.579,17.579,0,0,0-3.108.448,16.136,16.136,0,0,0-2.884,1.243,5.992,5.992,0,0,1,2.81-1.517A6.315,6.315,0,0,1,48.642,51.7Z" transform="translate(52.984 66.036)" fill="#fafafa"/>
    <path id="Trazado_215892" data-name="Trazado 215892" d="M59.528,43.431l-.622.249a8.826,8.826,0,0,0-1.566.92c-.6.472-1.268,1.119-1.989,1.815a11.537,11.537,0,0,1-2.685,2.039,5.569,5.569,0,0,1-3.307.472,10.766,10.766,0,0,1-2.611-.82c-.7-.348-1.243-.646-1.616-.87l-.572-.373s.87.448,2.287,1.044a10.418,10.418,0,0,0,2.486.771,5.321,5.321,0,0,0,3.158-.472,12.581,12.581,0,0,0,2.486-1.964,20.213,20.213,0,0,1,2.064-1.79,6.588,6.588,0,0,1,1.616-.87A2.113,2.113,0,0,1,59.528,43.431Z" transform="translate(55.823 53.938)" fill="#fafafa"/>
    <path id="Trazado_215893" data-name="Trazado 215893" d="M60.169,44.343a29.835,29.835,0,0,0-4.252.373c-2.312.373-4.152.945-4.177.87a4.972,4.972,0,0,1,1.169-.472,21.409,21.409,0,0,1,2.959-.671,17.853,17.853,0,0,1,3.033-.2,4.973,4.973,0,0,1,1.268.1Z" transform="translate(66.495 55.139)" fill="#fafafa"/>
    <path id="Trazado_215894" data-name="Trazado 215894" d="M59.222,42.783a5.992,5.992,0,0,1-1.169-.273l-2.735-.8-2.76-.8a6.762,6.762,0,0,1-1.119-.4,3.68,3.68,0,0,1,1.169.2c.721.174,1.716.423,2.785.746s2.039.622,2.735.87a4.525,4.525,0,0,1,1.094.448Z" transform="translate(66.049 49.613)" fill="#fafafa"/>
    <path id="Trazado_215895" data-name="Trazado 215895" d="M58,41.87a13.813,13.813,0,0,0-1.591.995c-.82.6-1.417,1.218-1.492,1.169a3.779,3.779,0,0,1,1.318-1.392A3.605,3.605,0,0,1,58,41.87Z" transform="translate(71.221 51.62)" fill="#fafafa"/>
    <path id="Trazado_215896" data-name="Trazado 215896" d="M62.806,45.74v.4a4.3,4.3,0,0,1-.448,1.069,7.857,7.857,0,0,1-2.611,2.735,15.664,15.664,0,0,1-3.406,1.616,9.124,9.124,0,0,1-1.492.448,6.514,6.514,0,0,1,1.417-.622A19.667,19.667,0,0,0,59.6,49.718a8.628,8.628,0,0,0,2.611-2.611q.332-.669.6-1.367Z" transform="translate(71.117 57.372)" fill="#fafafa"/>
    <path id="Trazado_215897" data-name="Trazado 215897" d="M59.021,58.9a7.956,7.956,0,0,1-.273-1.716c0-1.069-.224-2.486-.3-4.2s0-3.133,0-4.2a7.732,7.732,0,0,1,0-1.74s0,.671,0,1.74,0,2.486.149,4.2.149,3.108.224,4.177A14.923,14.923,0,0,1,59.021,58.9Z" transform="translate(76.394 59.304)" fill="#fafafa"/>
    <path id="Trazado_215898" data-name="Trazado 215898" d="M67.161,46.862a18.5,18.5,0,0,0-3.879-1.517,18.971,18.971,0,0,0-4.152-.4,4.425,4.425,0,0,1,1.218-.174,11.636,11.636,0,0,1,3.008.3,11.064,11.064,0,0,1,2.785,1.144A4.028,4.028,0,0,1,67.161,46.862Z" transform="translate(77.479 55.927)" fill="#fafafa"/>
    <path id="Trazado_215899" data-name="Trazado 215899" d="M64.774,45.049s-.174,0-.448-.3a2.337,2.337,0,0,0-1.268-.274h-.2v-.2l.149-.472a5.42,5.42,0,0,0,0-2.486,1.8,1.8,0,0,1,.323.671,3.307,3.307,0,0,1,0,1.79,2.909,2.909,0,0,1-.149.5l-.149-.174a2.088,2.088,0,0,1,1.367.423C64.7,44.826,64.8,45.025,64.774,45.049Z" transform="translate(83.023 50.802)" fill="#eb996e"/>
    <path id="Trazado_215900" data-name="Trazado 215900" d="M52.807,50v.8S43.086,62.531,42.315,70.686c-.646,6.663,1.119,57.185,1.119,57.185l31.875-3.555L73.817,50.671Z" transform="translate(52.275 63.704)" fill="#263238"/>
    <path id="Trazado_215901" data-name="Trazado 215901" d="M54.556,54.42v2.536c0,1.616-.149,3.978-.3,6.912-.3,5.818-.8,13.874-1.442,22.775s-1.268,16.932-1.74,22.75l-.6,6.887-.2,1.865v.5a.6.6,0,0,1,0,.174V116.28l.522-6.912c.423-5.843,1.019-13.874,1.666-22.75s1.169-16.932,1.517-22.775l.4-6.912V54.569Z" transform="translate(64.325 70.273)" fill="#455a64"/>
    <path id="Trazado_215902" data-name="Trazado 215902" d="M50.558,60.214a1.243,1.243,0,0,0-.4.646.92.92,0,0,0,.149.746.845.845,0,0,0,1.442-.423,1,1,0,0,0-.273-.721,1.318,1.318,0,0,0-.7-.323.423.423,0,0,1,.224,0,.9.9,0,0,1,.6.224,1.094,1.094,0,0,1,.4.9,1.019,1.019,0,0,1-.771.9,1,1,0,0,1-1.119-.348,1.044,1.044,0,0,1-.149-.945.9.9,0,0,1,.373-.522C50.459,60.214,50.558,60.189,50.558,60.214Z" transform="translate(63.773 78.751)" fill="#455a64"/>
    <path id="Trazado_215903" data-name="Trazado 215903" d="M50.164,64.925a.987.987,0,0,0-.4.646.92.92,0,0,0,.149.746.8.8,0,0,0,.845.224.82.82,0,0,0,.622-.646,1,1,0,0,0-.273-.721,1.318,1.318,0,0,0-.7-.323h.224a1,1,0,0,1,.6.224,1.169,1.169,0,0,1,.4.9,1.094,1.094,0,0,1-.771.9,1.019,1.019,0,0,1-1.144-.348,1.119,1.119,0,0,1-.149-.945,1.019,1.019,0,0,1,.373-.522C50.089,64.9,50.164,64.9,50.164,64.925Z" transform="translate(63.198 85.776)" fill="#455a64"/>
    <path id="Trazado_215904" data-name="Trazado 215904" d="M49.708,69.494a1.367,1.367,0,0,0-.423.646.945.945,0,0,0,.174.746.771.771,0,0,0,.845.224.8.8,0,0,0,.6-.646,1.044,1.044,0,0,0-.273-.721,1.318,1.318,0,0,0-.7-.323.423.423,0,0,1,.224,0,.87.87,0,0,1,.6.249,1.069,1.069,0,0,1,.4.87,1.019,1.019,0,0,1-.771.9,1,1,0,0,1-1.119-.348,1.044,1.044,0,0,1-.149-.945.9.9,0,0,1,.373-.522C49.609,69.494,49.708,69.469,49.708,69.494Z" transform="translate(62.51 92.544)" fill="#455a64"/>
    <path id="Trazado_215905" data-name="Trazado 215905" d="M49.324,74.714a1.243,1.243,0,0,0-.4.646.92.92,0,0,0,.149.746.8.8,0,0,0,.845.224.721.721,0,0,0,.6-.646.845.845,0,0,0-.273-.721c-.323-.348-.7-.273-.671-.323a.423.423,0,0,1,.224,0,.9.9,0,0,1,.6.249,1.169,1.169,0,0,1,.4.87,1.094,1.094,0,0,1-.8.9,1,1,0,0,1-1.119-.348,1.119,1.119,0,0,1-.149-.945,1.019,1.019,0,0,1,.373-.522Q49.324,74.689,49.324,74.714Z" transform="translate(61.95 100.303)" fill="#455a64"/>
    <path id="Trazado_215906" data-name="Trazado 215906" d="M57.293,38.1a.739.739,0,0,1-.273.5,2.263,2.263,0,0,1-1.343.547,2.81,2.81,0,0,1-2.163-.646,3.108,3.108,0,0,1-1.144-2.486,5.868,5.868,0,0,1,.8-2.486,14.766,14.766,0,0,1,1.019-1.641c.622-.92,1.144-1.392,1.293-1.293s0,.746-.448,1.74l-.7,1.74a6.117,6.117,0,0,0-.6,1.964,2.138,2.138,0,0,0,.622,1.591,2.039,2.039,0,0,0,1.318.622C56.572,38.3,57.169,37.922,57.293,38.1Z" transform="translate(67.431 34.832)" fill="#263238"/>
    <path id="Trazado_215907" data-name="Trazado 215907" d="M51.871,32.424a3.431,3.431,0,0,0,2.138-3.605,4.227,4.227,0,0,0-2.785-3.282,5.569,5.569,0,0,0-4.4.4,5.694,5.694,0,0,0-2.785,3.008,4.451,4.451,0,0,0,.373,4.028,4.674,4.674,0,0,0,4.774,1.716,6.589,6.589,0,0,0,4.127-3.257" transform="translate(54.579 26.929)" fill="#263238"/>
    <path id="Trazado_215908" data-name="Trazado 215908" d="M45,25.615a1.74,1.74,0,0,1,1.119,0,4,4,0,0,1,2.089,1.666,7.459,7.459,0,0,1,.945,2.486,2.984,2.984,0,0,1,.149,1.094,8.155,8.155,0,0,1-.348-1.044,8.3,8.3,0,0,0-.995-2.486,3.953,3.953,0,0,0-1.914-1.616A6.165,6.165,0,0,0,45,25.615Z" transform="translate(56.477 27.323)" fill="#455a64"/>
    <path id="Trazado_215909" data-name="Trazado 215909" d="M46.81,25.29a1.939,1.939,0,0,1,.448.746,5.644,5.644,0,0,1,0,4.1c-.174.5-.373.771-.4.746a10.194,10.194,0,0,0,.448-2.81A9.6,9.6,0,0,0,46.81,25.29Z" transform="translate(59.167 26.977)" fill="#455a64"/>
    <path id="Trazado_215910" data-name="Trazado 215910" d="M43.781,27a5.928,5.928,0,0,0,.5.995,4.152,4.152,0,0,0,1.914,1.74,4.3,4.3,0,0,0,2.486.323,10.91,10.91,0,0,0,1.069-.3,2.163,2.163,0,0,1-1.044.472,4.028,4.028,0,0,1-2.735-.249,4.152,4.152,0,0,1-1.964-1.89A2.287,2.287,0,0,1,43.781,27Z" transform="translate(54.662 29.518)" fill="#455a64"/>
    <path id="Trazado_215911" data-name="Trazado 215911" d="M47.11,25.658a.4.4,0,0,1,.174,0,.92.92,0,0,1,.572-.124,1.417,1.417,0,0,1,.82.273,1.666,1.666,0,0,1,.646.87,2.685,2.685,0,0,1,0,1.89,1.566,1.566,0,0,1-.373.472h-.2a1.417,1.417,0,0,0,.5-.6,2.71,2.71,0,0,0,.075-1.74,1.865,1.865,0,0,0-.6-.82,1.691,1.691,0,0,0-.771-.274,1.367,1.367,0,0,0-.845.05Z" transform="translate(59.613 27.33)" fill="#263238"/>
    <path id="Trazado_215912" data-name="Trazado 215912" d="M50.114,46.765a24.366,24.366,0,0,1-4-7.136,10.965,10.965,0,0,1,.323-7.459,10.84,10.84,0,0,1,14.321-4.7,7.459,7.459,0,0,1,3.953,6.116" transform="translate(57.38 28.6)" fill="#263238"/>
    <path id="Trazado_215913" data-name="Trazado 215913" d="M50.94,27a11.686,11.686,0,0,1,5.147,1.74,6.39,6.39,0,0,1,2.71,5.843,13.972,13.972,0,0,1-1.939,3.9,36.023,36.023,0,0,1-2.785,4.426" transform="translate(65.306 29.518)" fill="#263238"/>
    <path id="Trazado_215914" data-name="Trazado 215914" d="M47.37,34.786a7.136,7.136,0,0,1,7.459-7.011,7.285,7.285,0,0,1,6.763,7.31,70.712,70.712,0,0,1-.224,7.931,5.818,5.818,0,0,1-3.829,4.973,4.351,4.351,0,0,1-.995,0h0l.2,4.3a4.724,4.724,0,0,1-4.674,4.973,4.973,4.973,0,0,1-4.649-5.221Z" transform="translate(60 30.658)" fill="#ffbe9d"/>
    <path id="Trazado_215915" data-name="Trazado 215915" d="M53.17,31.68a.644.644,0,1,1-.547-.522A.547.547,0,0,1,53.17,31.68Z" transform="translate(66.781 35.679)" fill="#263238"/>
    <path id="Trazado_215916" data-name="Trazado 215916" d="M54.1,31.432a2.968,2.968,0,0,0-1.144-.249c-.622,0-1.094.323-1.144.249s0-.174.224-.323a1.616,1.616,0,0,1,.92-.3,1.74,1.74,0,0,1,.92.3C54.073,31.282,54.123,31.407,54.1,31.432Z" transform="translate(66.574 35.181)" fill="#263238"/>
    <path id="Trazado_215917" data-name="Trazado 215917" d="M50.711,31.674a.6.6,0,1,1-.6-.522.547.547,0,0,1,.6.522Z" transform="translate(63.198 35.685)" fill="#263238"/>
    <path id="Trazado_215918" data-name="Trazado 215918" d="M51.618,31.5a3.236,3.236,0,0,0-1.144-.273c-.547,0-1.094.323-1.144.224s0-.149.224-.3a1.616,1.616,0,0,1,.92-.3,1.541,1.541,0,0,1,.92.3A.342.342,0,0,1,51.618,31.5Z" transform="translate(62.887 35.241)" fill="#263238"/>
    <path id="Trazado_215919" data-name="Trazado 215919" d="M51.373,36.151a5.122,5.122,0,0,1,1.019-.174c.174,0,.323,0,.348-.174a2.993,2.993,0,0,0,0-.472,9.572,9.572,0,0,0-.472-1.218A19.369,19.369,0,0,1,51,30.88a21.409,21.409,0,0,1,1.318,3.083c.149.448.3.845.448,1.243a.746.746,0,0,1,0,.622.323.323,0,0,1-.249.224.572.572,0,0,1-.273,0,5.867,5.867,0,0,1-.87.1Z" transform="translate(65.395 35.285)" fill="#263238"/>
    <path id="Trazado_215920" data-name="Trazado 215920" d="M54.325,36.966A9.945,9.945,0,0,1,48.88,35.35a4.724,4.724,0,0,0,5.495,2.785Z" transform="translate(62.244 41.929)" fill="#eb996e"/>
    <path id="Trazado_215921" data-name="Trazado 215921" d="M52.158,33.848a1.119,1.119,0,0,0-1.019-.423,1.019,1.019,0,0,0-.721.373.671.671,0,0,0,0,.746.771.771,0,0,0,.82.224,2.785,2.785,0,0,0,.82-.5l.174-.174a.174.174,0,0,0,0-.224" transform="translate(64.361 39.055)" fill="#eb996e"/>
    <path id="Trazado_215922" data-name="Trazado 215922" d="M50.472,33.15a1.519,1.519,0,0,0,.7,1.169,4.97,4.97,0,0,0,1.318.5c.025.1-.174.149-.472.149a1.865,1.865,0,0,1-1.094-.373,1.442,1.442,0,0,1-.547-.995C50.348,33.324,50.423,33.15,50.472,33.15Z" transform="translate(64.456 38.659)" fill="#263238"/>
    <path id="Trazado_215923" data-name="Trazado 215923" d="M52.081,30.963c0,.174-.671,0-1.417.174s-1.343.273-1.442.124,0-.224.323-.4a2.486,2.486,0,0,1,1.044-.373,2.188,2.188,0,0,1,1.119.149C51.982,30.739,52.106,30.864,52.081,30.963Z" transform="translate(62.698 34.68)" fill="#263238"/>
    <path id="Trazado_215924" data-name="Trazado 215924" d="M53.931,30.907c-.124.124-.547,0-1.069,0H51.793c-.1,0,0-.224.224-.348a1.442,1.442,0,0,1,.87-.249,1.616,1.616,0,0,1,.845.3C53.906,30.684,53.981,30.833,53.931,30.907Z" transform="translate(66.516 34.437)" fill="#263238"/>
    <path id="Trazado_215925" data-name="Trazado 215925" d="M47.659,38.275a8.329,8.329,0,0,0,7.086-2.213A9.721,9.721,0,0,0,58.2,29c0-.547,0-1.79-.448-1.89a3.008,3.008,0,0,0-1.989,0c-2.113.6-5.992.97-7.459,2.834A13.078,13.078,0,0,0,46.69,37.23" transform="translate(58.94 29.432)" fill="#263238"/>
    <path id="Trazado_215926" data-name="Trazado 215926" d="M54.968,34.884h.448a2.6,2.6,0,0,0,1.79-2.337,3.506,3.506,0,0,0-.522-2.163,5.52,5.52,0,0,0-1.566-1.641,9.274,9.274,0,0,0-1.666-.9l-1.169-.5H51.96l.348.124a4.042,4.042,0,0,1,1.193.448,7.931,7.931,0,0,1,1.666.9,5.644,5.644,0,0,1,1.616,1.641,3.8,3.8,0,0,1,.522,2.263,2.685,2.685,0,0,1-.771,1.691,2.486,2.486,0,0,1-1.094.646A2.162,2.162,0,0,1,54.968,34.884Z" transform="translate(66.822 30.039)" fill="#263238"/>
    <path id="Trazado_215927" data-name="Trazado 215927" d="M45.74,33.645l.547.373a3.73,3.73,0,0,0,1.616.522,5.3,5.3,0,0,0,2.486-.423,16.634,16.634,0,0,0,2.785-1.542,15.838,15.838,0,0,0,2.486-1.914,9.051,9.051,0,0,0,1.591-2.014,10.269,10.269,0,0,0,.87-2.238,3.878,3.878,0,0,1,0,.646,5.172,5.172,0,0,1-.622,1.666,8.254,8.254,0,0,1-1.591,2.113,16.335,16.335,0,0,1-2.486,1.989,20.089,20.089,0,0,1-2.834,1.542,5.694,5.694,0,0,1-2.636.373,3.754,3.754,0,0,1-1.666-.622,2.886,2.886,0,0,1-.373-.323Z" transform="translate(57.577 28.641)" fill="#455a64"/>
    <path id="Trazado_215928" data-name="Trazado 215928" d="M51.077,26.9a24.862,24.862,0,0,0-2.834,1.989A22.6,22.6,0,0,0,45.93,31.5a1.54,1.54,0,0,1,.472-.92,9.6,9.6,0,0,1,1.641-1.89,10.343,10.343,0,0,1,2.089-1.417A3.978,3.978,0,0,1,51.077,26.9Z" transform="translate(57.859 29.37)" fill="#455a64"/>
    <path id="Trazado_215929" data-name="Trazado 215929" d="M49.164,31.744a1.691,1.691,0,0,0-1.865.249,1.765,1.765,0,0,0-.5,1.517,1.815,1.815,0,0,0,.82,1.243,1.566,1.566,0,0,0,1.144.348" transform="translate(59.125 36.311)" fill="#ffbe9d"/>
    <path id="Trazado_215930" data-name="Trazado 215930" d="M48.181,33.531a.4.4,0,0,1-.423,0,.845.845,0,0,1-.448-.224.945.945,0,0,1-.249-.547.87.87,0,0,1,.149-.572.8.8,0,0,1,.423-.3h.423a3.33,3.33,0,0,0-.348.124.689.689,0,0,0,.1,1.268C48.007,33.506,48.156,33.481,48.181,33.531Z" transform="translate(59.537 36.786)" fill="#eb996e"/>
    <path id="Trazado_215931" data-name="Trazado 215931" d="M50.97,46.577a2.156,2.156,0,0,1-1.218.174,4.973,4.973,0,0,1-3.033-1.517,4.8,4.8,0,0,1-1.193-2.163,5.3,5.3,0,0,1,.149-2.834,5.544,5.544,0,0,1,1.84-2.486,6.813,6.813,0,0,1,3.058-1.169,16.633,16.633,0,0,0,2.81-.671,8.951,8.951,0,0,0,4.973-4.774,11.313,11.313,0,0,0,.771-2.959c0-.721,0-1.169.2-1.169s.273.4.348,1.169a8.28,8.28,0,0,1-.348,3.232,9.1,9.1,0,0,1-2.785,4.127,9.746,9.746,0,0,1-2.486,1.542A13.452,13.452,0,0,1,51,37.85a5.818,5.818,0,0,0-2.486.92,4.127,4.127,0,0,0-1.442,1.89,4.4,4.4,0,0,0-.224,2.163,3.978,3.978,0,0,0,.8,1.765,4.973,4.973,0,0,0,2.486,1.641C50.523,46.453,50.97,46.453,50.97,46.577Z" transform="translate(57.071 29.533)" fill="#455a64"/>
    <path id="Trazado_215932" data-name="Trazado 215932" d="M45.5,35.761c0-.2,1.044-.323,2.685-.522A17.653,17.653,0,0,0,54.2,33.647a9,9,0,0,0,2.486-2.014A7.31,7.31,0,0,0,58.031,29.3c.522-1.467.373-2.486.572-2.486s.249.224.373.7a4.973,4.973,0,0,1,0,2.113,7.21,7.21,0,0,1-1.293,2.859A9.1,9.1,0,0,1,54.7,34.965a11.512,11.512,0,0,1-3.58,1.144,14.917,14.917,0,0,1-3.008.2C46.544,36.159,45.5,35.935,45.5,35.761Z" transform="translate(57.22 29.236)" fill="#455a64"/>
    <path id="Trazado_215933" data-name="Trazado 215933" d="M48.545,47.288,47,65.488a1.367,1.367,0,0,0,1.417,1.492l13.625-.373a1.392,1.392,0,0,0,1.343-1.243l1.84-17.827a1.367,1.367,0,0,0-1.392-1.517h-13.9a1.392,1.392,0,0,0-1.392,1.268Z" transform="translate(59.446 57.788)" fill="#455a64"/>
    <path id="Trazado_215934" data-name="Trazado 215934" d="M52.351,47.66a.82.82,0,1,1-.82-.82.82.82,0,0,1,.82.82Z" transform="translate(64.964 59.007)" fill="#fafafa"/>
    <path id="Trazado_215935" data-name="Trazado 215935" d="M51.791,49.31a9.2,9.2,0,0,0-2.188.9,8.23,8.23,0,0,1-1.542.945l-1.417.373L44.68,57.44l11.885.4s3.282-2.337,2.884-2.486a2.337,2.337,0,0,0-2.238.522c-.87.9-2.287-.348-2.287-.348a32.97,32.97,0,0,0,6.39-2.014c.5-.6,1.069-.7.746-1.293s-2.785-.249-3.605-.249a22.647,22.647,0,0,0-2.71.348s3.68-1.318,3.978-1.467c.746-.4,0-1.218-1.019-.97A46.519,46.519,0,0,1,53.879,51.2l-2.138-.174Z" transform="translate(56.001 62.678)" fill="#ffbe9d"/>
    <rect id="Rectángulo_44265" data-name="Rectángulo 44265" width="35.505" height="4.873" transform="translate(26.092 196.523)" fill="#263238"/>
    <path id="Trazado_215936" data-name="Trazado 215936" d="M50.329,88.263H14.65V83.29H50.329Zm-35.554-.124h35.38V83.389H14.774Z" transform="translate(11.367 113.183)" fill="#263238"/>
    <path id="Trazado_215937" data-name="Trazado 215937" d="M16,84.62l5.122,25.211h18.9l4.948-23.6Z" transform="translate(13.374 115.16)" fill="#263238"/>
    <path id="Trazado_215938" data-name="Trazado 215938" d="M16,93.8l2.735,3.754H41.709L44.966,93.8Z" transform="translate(13.374 128.805)" fill="#455a64"/>
    <path id="Trazado_215939" data-name="Trazado 215939" d="M21.412,116.093s-.149-11.686-.2-26.081,0-26.081,0-26.081.174,11.661.2,26.081S21.487,116.093,21.412,116.093Z" transform="translate(21.089 84.408)" fill="#263238"/>
    <path id="Trazado_215940" data-name="Trazado 215940" d="M26.394,73.15v.273l-.323.771-.249.547-.224.646-.273.771a3.183,3.183,0,0,1-.273.87,38.339,38.339,0,0,0-.995,4.351c-.249,1.641-.448,3.481-.547,5.42a70.687,70.687,0,0,0,.3,9.945,22.429,22.429,0,0,0,.3,2.984v.845l-.149-.82c0-.7-.249-1.716-.4-2.984a66.434,66.434,0,0,1-.348-9.945,50,50,0,0,1,.572-5.47A36.35,36.35,0,0,1,24.828,77l.3-.87.3-.771.249-.646c0-.2.174-.373.249-.547l.373-.746Z" transform="translate(24.014 98.112)" fill="#263238"/>
    <path id="Trazado_215941" data-name="Trazado 215941" d="M26.97,69.35a1.665,1.665,0,0,1-.124.4l-.373,1.218-.249.771-.3.945c-.2.671-.448,1.442-.671,2.312l-.348,1.343-.323,1.492c-.249,1.019-.448,2.113-.671,3.257-.373,2.337-.721,4.973-.97,7.608s-.323,5.3-.348,7.633,0,4.475.124,6.266a16.009,16.009,0,0,0,.124,2.486,8.723,8.723,0,0,1,0,1.815v1.144l-.149-1.144c0-.472-.124-1.094-.174-1.79s-.124-1.517-.174-2.486c0-1.765-.149-3.9-.174-6.266s.124-4.973.348-7.658.6-5.3.995-7.608c.249-1.169.423-2.263.671-3.282l.348-1.492.373-1.343c.249-.87.5-1.641.721-2.312l.3-.92.3-.8.5-1.218A2.861,2.861,0,0,1,26.97,69.35Z" transform="translate(22.543 92.464)" fill="#263238"/>
    <path id="Trazado_215942" data-name="Trazado 215942" d="M24.277,117.205h0v-1.964c0-1.343-.224-3.282-.373-5.669-.3-4.823-.746-11.462-1.566-18.747-.4-3.655-.9-7.111-1.392-10.269-.249-1.566-.5-3.058-.771-4.426s-.522-2.685-.771-3.879-.472-2.238-.7-3.158-.4-1.74-.572-2.486l-.373-1.517v-.373a.7.7,0,0,1,0-.149h0v.4l.423,1.492c.174.646.4,1.442.622,2.362s.5,1.989.721,3.182.547,2.486.8,3.854.547,2.884.82,4.451c.5,3.133.995,6.614,1.392,10.268.82,7.31,1.243,13.948,1.492,18.747.149,2.486.224,4.351.273,5.694v2.089Z" transform="translate(15.987 85.359)" fill="#263238"/>
    <path id="Trazado_215943" data-name="Trazado 215943" d="M27.836,67.934A3.555,3.555,0,0,0,24.331,65,5.445,5.445,0,0,0,20.1,67.287a13.55,13.55,0,0,0-2.039,4.525,30.88,30.88,0,0,0-1.243,12.034,18.225,18.225,0,0,0,4.973,10.84,2.064,2.064,0,0,0,1.74.771,2.238,2.238,0,0,0,.9-.547,27,27,0,0,0,8.727-20.462,8.329,8.329,0,0,0-1.069-4.475c-.845-1.293-2.81-2.635-4.252-2.138" transform="translate(14.392 85.999)" fill="#f67409"/>
    <path id="Trazado_215944" data-name="Trazado 215944" d="M21.58,64.462c-.771,1.417-1.542,2.834-2.337,4.252a.4.4,0,0,1-.224.224c-.124,0-.224,0-.3-.224l-6.191-9.5,1.442-.8Z" transform="translate(8.216 76.219)" fill="#e8505b"/>
    <g id="Grupo_145965" data-name="Grupo 145965" transform="translate(20.746 134.639)" opacity="0.2">
      <path id="Trazado_215945" data-name="Trazado 215945" d="M21.58,64.462c-.771,1.417-1.542,2.834-2.337,4.252a.4.4,0,0,1-.224.224c-.124,0-.224,0-.3-.224l-6.191-9.5,1.442-.8Z" transform="translate(-12.53 -58.42)" fill="#f67409"/>
    </g>
    <path id="Trazado_215946" data-name="Trazado 215946" d="M34.141,74.828,13.032,62.4c-.2,0-.448-.273-.5-.5a1.176,1.176,0,0,1,.373-.845A14.47,14.47,0,0,1,24.171,56.6a12.929,12.929,0,0,1,10.219,6.34,11.611,11.611,0,0,1-.249,11.909" transform="translate(8.212 73.485)" fill="#f67409"/>
    <path id="Trazado_215947" data-name="Trazado 215947" d="M14,57.317h.273a6.788,6.788,0,0,1,.8,0A15.612,15.612,0,0,1,18,57.541,17.164,17.164,0,0,1,31.653,69.9a16.16,16.16,0,0,1,.522,2.909v.6a1.144,1.144,0,0,1-.174.472,3.331,3.331,0,0,0,0-1.069,16.807,16.807,0,0,0-.6-2.909A17.156,17.156,0,0,0,17.879,57.665a16.311,16.311,0,0,0-2.884-.3Z" transform="translate(10.401 74.562)" fill="#263238"/>
    <path id="Trazado_215948" data-name="Trazado 215948" d="M24.6,60.47a4.676,4.676,0,0,1-1.069.472c-.671.274-1.591.6-2.66.945s-2.014.6-2.71.771a5.792,5.792,0,0,1-1.144.224,4.252,4.252,0,0,1,1.094-.4l2.685-.845,2.685-.87a4.078,4.078,0,0,1,1.119-.3Z" transform="translate(14.89 79.265)" fill="#263238"/>
    <path id="Trazado_215949" data-name="Trazado 215949" d="M18.753,56.87A11.636,11.636,0,0,1,19,59.356a8.528,8.528,0,0,1-.149,2.486,19.2,19.2,0,0,1,0-2.486,12.556,12.556,0,0,1-.1-2.486Z" transform="translate(17.433 73.915)" fill="#263238"/>
    <path id="Trazado_215950" data-name="Trazado 215950" d="M12.66,60.366a9.473,9.473,0,0,1,1.517-.547c.97-.3,2.312-.671,3.8-1.019s2.834-.646,3.829-.82a6.887,6.887,0,0,1,1.616-.2,12.187,12.187,0,0,1-1.591.373l-3.8.9-3.8.945Z" transform="translate(8.41 75.267)" fill="#263238"/>
    <path id="Trazado_215951" data-name="Trazado 215951" d="M31.823,65.706a8.8,8.8,0,0,0-6.017-1.566,18.473,18.473,0,0,0-6.564,1.716,20.139,20.139,0,0,0-9.05,7.111A11.885,11.885,0,0,0,8.924,84.055a1.566,1.566,0,0,0,.721.87,1.666,1.666,0,0,0,1.193,0,67.131,67.131,0,0,0,11.934-4.8,22.377,22.377,0,0,0,9.025-8.8,7.707,7.707,0,0,0,.92-2.81,3.506,3.506,0,0,0-.92-2.81" transform="translate(1.629 84.646)" fill="#f67409"/>
    <path id="Trazado_215952" data-name="Trazado 215952" d="M31.052,64.585l-.3.124-.845.273-.622.224-.721.273c-.5.2-1.094.4-1.74.721l-.97.448c-.348.149-.7.348-1.069.547s-1.467.82-2.263,1.268a43.189,43.189,0,0,0-4.8,3.555,38.836,38.836,0,0,0-4.127,4.3c-.572.746-1.119,1.417-1.566,2.089s-.472.671-.671.97l-.572.945c-.4.572-.671,1.144-.945,1.616s-.249.472-.373.671l-.273.6-.4.8-.149.273v-.3l.448-.92.273-.6.348-.671c.273-.5.547-1.069.92-1.666l.547-.945c.2-.323.448-.646.671-.995s.995-1.367,1.542-2.089a37.3,37.3,0,0,1,4.152-4.351,39.011,39.011,0,0,1,4.848-3.58c.8-.448,1.542-.92,2.287-1.268l1.069-.522,1.019-.448c.622-.3,1.218-.5,1.74-.7l.721-.249.646-.2.845-.224C30.927,64.585,31.027,64.56,31.052,64.585Z" transform="translate(2.449 85.345)" fill="#263238"/>
    <path id="Trazado_215953" data-name="Trazado 215953" d="M17.321,67.66s-1.964.7-4.426,1.417A38.312,38.312,0,0,1,8.42,70.246s1.964-.7,4.426-1.417a36.978,36.978,0,0,1,4.475-1.169Z" transform="translate(2.108 89.952)" fill="#263238"/>
    <path id="Trazado_215954" data-name="Trazado 215954" d="M11.9,77.2a5.893,5.893,0,0,1,0-1.392c0-.845,0-2.014,0-3.307a18.674,18.674,0,0,1,.174-3.332A8.727,8.727,0,0,1,12.2,67.8a6.589,6.589,0,0,1,0,1.367v6.638a10.889,10.889,0,0,1-.3,1.392Z" transform="translate(7.226 90.16)" fill="#263238"/>
    <path id="Trazado_215955" data-name="Trazado 215955" d="M15.687,76.261a53.056,53.056,0,0,1-.5-5.346,49.2,49.2,0,0,1-.249-5.346,51.069,51.069,0,0,1,.5,5.321C15.637,73.849,15.737,76.236,15.687,76.261Z" transform="translate(11.797 86.846)" fill="#263238"/>
    <path id="Trazado_215956" data-name="Trazado 215956" d="M11.06,65.489a7.755,7.755,0,0,1,1.392,0h3.431a23.142,23.142,0,0,1,3.406.149,9.692,9.692,0,0,1,1.392,0,9.27,9.27,0,0,1-1.417,0H15.859l-3.406-.149a5.321,5.321,0,0,1-1.392,0Z" transform="translate(6.031 86.678)" fill="#263238"/>
    <path id="Trazado_215957" data-name="Trazado 215957" d="M19.12,93.46V89.383c0-1.243.124-2.785.273-4.451s.4-3.481.746-5.37.771-3.68,1.193-5.3.9-3.058,1.318-4.252.8-2.163,1.069-2.81l.323-.746a1.714,1.714,0,0,1,.124-.249v.273l-.273.771c-.249.646-.6,1.616-.995,2.81s-.845,2.635-1.268,4.252-.82,3.406-1.169,5.3-.6,3.7-.771,5.346-.273,3.158-.3,4.426,0,2.263,0,2.984V93.46Z" transform="translate(18.011 87.797)" fill="#263238"/>
    <path id="Trazado_215958" data-name="Trazado 215958" d="M23.38,71.61a6.613,6.613,0,0,1-.82.92c-.547.547-1.343,1.268-2.213,2.064s-1.716,1.442-2.337,1.914-.995.746-1.019.7a7.462,7.462,0,0,1,.92-.845l2.263-1.964,2.263-1.989a6.042,6.042,0,0,1,.945-.8Z" transform="translate(14.845 95.823)" fill="#263238"/>
    <path id="Trazado_215959" data-name="Trazado 215959" d="M25.817,78.883a8.08,8.08,0,0,1-.9-1.243l-2.089-3.033L20.72,71.6a10.943,10.943,0,0,1-.87-1.268,6.49,6.49,0,0,1,.995,1.144c.6.746,1.367,1.79,2.213,2.984s1.517,2.287,2.014,3.108a9.548,9.548,0,0,1,.746,1.318Z" transform="translate(19.096 93.921)" fill="#263238"/>
    <path id="Trazado_215960" data-name="Trazado 215960" d="M26.86,67.006s-2.163,1.542-4.973,3.332a58.453,58.453,0,0,1-5.1,3.108s2.188-1.542,4.973-3.332A44.606,44.606,0,0,1,26.86,67.006Z" transform="translate(14.548 88.965)" fill="#263238"/>
    <path id="Trazado_215961" data-name="Trazado 215961" d="M27.284,73.5A43.661,43.661,0,0,1,23.9,70.392,39.981,39.981,0,0,1,20.72,67.11a38.84,38.84,0,0,1,3.357,3.108A39.98,39.98,0,0,1,27.284,73.5Z" transform="translate(20.389 89.135)" fill="#263238"/>
    <path id="Trazado_215962" data-name="Trazado 215962" d="M24.03,77.991l1.914-.174A9.274,9.274,0,0,0,29.8,76.649a14.919,14.919,0,0,1,1.79-.9,23.67,23.67,0,0,1,7.459-.92,30.83,30.83,0,0,0,11.984-3.058,1.193,1.193,0,0,0,.522-.472c.373-.7-.348-1.343-.97-1.716a39.483,39.483,0,0,0-10.119-4.973,13.327,13.327,0,0,0-10.89,1.318c-3.63,2.486-4.973,7.658-5.594,12.059" transform="translate(25.235 84.519)" fill="#f67409"/>
    <path id="Trazado_215963" data-name="Trazado 215963" d="M51.531,69.978l-.224-.149-.9-.472c-.8-.423-1.914-1.019-3.332-1.716a34.237,34.237,0,0,0-5.172-1.989,16.832,16.832,0,0,0-6.688-.522,11.338,11.338,0,0,0-6.29,2.735,13.526,13.526,0,0,0-3.158,4.451c-.671,1.442-1.094,2.66-1.392,3.481l-.348.97a2.759,2.759,0,0,1,0,.323,3.259,3.259,0,0,1,0-.348l.273-.97a35.157,35.157,0,0,1,1.318-3.531,14.073,14.073,0,0,1,3.307-4.674,11.561,11.561,0,0,1,6.241-2.71,17.4,17.4,0,0,1,6.788.572,30.635,30.635,0,0,1,5.172,2.064c1.417.7,2.486,1.343,3.307,1.765l.87.522Z" transform="translate(25.306 85.62)" fill="#263238"/>
    <path id="Trazado_215964" data-name="Trazado 215964" d="M39.82,72.27S37.333,70.7,34.25,68.665s-5.445-3.754-5.42-3.8S31.316,66.4,34.4,68.466,39.869,72.22,39.82,72.27Z" transform="translate(32.443 85.79)" fill="#263238"/>
    <path id="Trazado_215965" data-name="Trazado 215965" d="M34.365,64.812a6.986,6.986,0,0,1-1.815.323,6.812,6.812,0,0,1-1.84,0,11.116,11.116,0,0,1,1.815-.2A9.945,9.945,0,0,1,34.365,64.812Z" transform="translate(35.238 85.714)" fill="#263238"/>
    <path id="Trazado_215966" data-name="Trazado 215966" d="M28.89,64.23a4.674,4.674,0,0,1-.8,1.293,6.191,6.191,0,0,1-1.044,1.169,4.973,4.973,0,0,1,.82-1.268A5.42,5.42,0,0,1,28.89,64.23Z" transform="translate(29.798 84.854)" fill="#263238"/>
    <path id="Trazado_215967" data-name="Trazado 215967" d="M33.223,71.64a9.6,9.6,0,0,1-1.193-.646c-.721-.448-1.691-1.094-2.735-1.84s-1.964-1.467-2.611-1.989a11.737,11.737,0,0,1-1.044-.9,7.857,7.857,0,0,1,1.144.746l2.66,1.939,2.685,1.89A7.685,7.685,0,0,1,33.223,71.64Z" transform="translate(27.702 87.886)" fill="#263238"/>
    <path id="Trazado_215968" data-name="Trazado 215968" d="M27.755,73.309A4.028,4.028,0,0,0,23.4,76.442a8.9,8.9,0,0,0,1.119,5.42,27.349,27.349,0,0,0,7.459,9.945,18.5,18.5,0,0,0,11.561,4.177c-.771-3.555.2-7.285-.224-10.915A14.247,14.247,0,0,0,30.738,72.637c-1.169,0-2.486-.323-2.984.746" transform="translate(24.294 97.282)" fill="#f67409"/>
    <path id="Trazado_215969" data-name="Trazado 215969" d="M40.864,95.5H40.59a3.83,3.83,0,0,1-.671-.448,7.185,7.185,0,0,1-1.79-2.486c-.3-.547-.622-1.169-.945-1.84l-.97-2.163a22.8,22.8,0,0,0-1.193-2.312,17.405,17.405,0,0,0-1.666-2.238c-1.243-1.467-2.486-2.735-3.729-3.953a26.627,26.627,0,0,1-2.859-3.406,13.252,13.252,0,0,1-1.392-2.66,2.913,2.913,0,0,0-.224-.771v-.3s.124.373.4,1.044a13.75,13.75,0,0,0,1.442,2.486,28.766,28.766,0,0,0,2.76,3.357C30.893,81,32.236,82.293,33.5,83.736a17.829,17.829,0,0,1,1.666,2.287,17.4,17.4,0,0,1,1.218,2.337l.945,2.163c.3.7.622,1.293.9,1.865a7.161,7.161,0,0,0,1.716,2.486C40.515,95.247,40.864,95.5,40.864,95.5Z" transform="translate(26.974 97.77)" fill="#263238"/>
    <path id="Trazado_215970" data-name="Trazado 215970" d="M27.69,85.621a4.824,4.824,0,0,1,.149-1.218c.149-.746.4-1.79.7-2.909a29.593,29.593,0,0,1,.92-2.834,5.992,5.992,0,0,1,.5-1.119,5.694,5.694,0,0,1-.323,1.193c-.224.721-.522,1.716-.845,2.834s-.572,2.138-.771,2.859A7.882,7.882,0,0,1,27.69,85.621Z" transform="translate(30.749 104.637)" fill="#263238"/>
    <path id="Trazado_215971" data-name="Trazado 215971" d="M36.547,78.455a5.518,5.518,0,0,1-1.293-.273c-.771-.224-1.865-.5-3.058-.771s-2.312-.472-3.108-.622a5.248,5.248,0,0,1-1.268-.3,6.39,6.39,0,0,1,1.318,0,16.423,16.423,0,0,1,3.108.547c1.193.273,2.287.6,3.058.845A9.148,9.148,0,0,1,36.547,78.455Z" transform="translate(30.942 103.026)" fill="#263238"/>
    <path id="Trazado_215972" data-name="Trazado 215972" d="M25,83.923a10.443,10.443,0,0,1,.2-1.417c.174-.87.423-2.064.771-3.357s.7-2.486.97-3.307a10.594,10.594,0,0,1,.547-1.343,6.042,6.042,0,0,1-.348,1.392c-.224.845-.572,2.014-.9,3.307s-.622,2.486-.845,3.332a6.788,6.788,0,0,1-.4,1.392Z" transform="translate(26.751 100.119)" fill="#263238"/>
    <path id="Trazado_215973" data-name="Trazado 215973" d="M35.6,74.829a46.89,46.89,0,0,1-4.973-.4,47.067,47.067,0,0,1-4.973-.671,36.054,36.054,0,0,1,4.973.423C33.333,74.605,35.6,74.779,35.6,74.829Z" transform="translate(27.717 99.019)" fill="#263238"/>
    <path id="Trazado_215974" data-name="Trazado 215974" d="M50.3,85.334H14.67s7.981-.124,17.827-.124S50.3,85.26,50.3,85.334Z" transform="translate(11.397 116.037)" fill="#455a64"/>
    <path id="Trazado_215975" data-name="Trazado 215975" d="M41.093,89.41H29.084C35.7,89.41,41.093,89.335,41.093,89.41Z" transform="translate(15.009 122.23)" fill="#455a64"/>
    <path id="Trazado_215976" data-name="Trazado 215976" d="M40.775,90h0Z" transform="translate(15.128 123.157)" fill="#455a64"/>
    <path id="Trazado_215977" data-name="Trazado 215977" d="M41.7,88.974H16.84s5.544-.124,12.432-.124S41.7,88.9,41.7,88.974Z" transform="translate(14.622 121.447)" fill="#455a64"/>
    <path id="Trazado_215978" data-name="Trazado 215978" d="M83.766,83.385A5.669,5.669,0,0,1,86.7,86.692a9.945,9.945,0,0,1,.373,4.451A17.4,17.4,0,0,1,83.318,99.3a11.91,11.91,0,0,1-3.158-7.757c-.273-3.008,1.094-8.6,3.605-8.155" transform="translate(108.686 113.287)" fill="#f67409"/>
    <path id="Trazado_215979" data-name="Trazado 215979" d="M82.748,95.678a4.724,4.724,0,0,1,1.218-4.649,6.34,6.34,0,0,1,4.649-1.815,2.71,2.71,0,0,1,2.113.8,2.039,2.039,0,0,1,.174,2.064,3.854,3.854,0,0,1-1.417,1.616,8.255,8.255,0,0,1-6.663,1.989" transform="translate(112.314 121.978)" fill="#f67409"/>
    <path id="Trazado_215980" data-name="Trazado 215980" d="M81.355,102.5a1.841,1.841,0,0,1,0-.6,8.493,8.493,0,0,1,.348-1.641,20.064,20.064,0,0,1,1.815-5.2,10.343,10.343,0,0,1,3.754-4,6.116,6.116,0,0,1,1.542-.671,2.261,2.261,0,0,1,.6,0,18.128,18.128,0,0,0-2.014.995,10.741,10.741,0,0,0-3.58,3.978,22.6,22.6,0,0,0-1.89,4.973,16.262,16.262,0,0,1-.572,2.163Z" transform="translate(110.475 123.709)" fill="#263238"/>
    <path id="Trazado_215981" data-name="Trazado 215981" d="M81.516,85.13a4.351,4.351,0,0,1,0,1.019,20.149,20.149,0,0,0,.149,2.735c0,2.337.149,5.544,0,9.1s0,6.763-.2,9.075a11.907,11.907,0,0,1-.174,2.735,4.1,4.1,0,0,1,0,1.019,6.616,6.616,0,0,1,0-1.019V86.149A1.9,1.9,0,0,1,81.516,85.13Z" transform="translate(110.389 115.918)" fill="#263238"/>
    <path id="Trazado_215982" data-name="Trazado 215982" d="M86.163,97.648a11.188,11.188,0,0,0-5.942-8.354,2.337,2.337,0,0,0-2.486,0,2.263,2.263,0,0,0-.249,2.486A9.547,9.547,0,0,0,86.163,97.9" transform="translate(104.374 121.575)" fill="#f67409"/>
    <path id="Trazado_215983" data-name="Trazado 215983" d="M78.531,90.18a1.665,1.665,0,0,1,.547.224,3.655,3.655,0,0,1,.6.323,4.971,4.971,0,0,1,.771.5,10.616,10.616,0,0,1,1.79,1.542,13.3,13.3,0,0,1,1.74,2.337,14.42,14.42,0,0,1,1.169,2.685,11.913,11.913,0,0,1,.448,2.337,5.918,5.918,0,0,1,0,.92,3.084,3.084,0,0,1,0,.7,1.79,1.79,0,0,1,0,.572,21.3,21.3,0,0,0-.149-2.163,17.779,17.779,0,0,0-.522-2.263,12.755,12.755,0,0,0-2.834-4.973,12.258,12.258,0,0,0-1.716-1.591C79.252,90.6,78.482,90.23,78.531,90.18Z" transform="translate(106.312 123.424)" fill="#263238"/>
  </g>
</svg>
