<svg xmlns="http://www.w3.org/2000/svg" width="80.612" height="70.831" viewBox="0 0 80.612 70.831">
  <g id="Grupo_146148" data-name="Grupo 146148" transform="translate(-370 -5252.751)">
    <g id="calendario" transform="translate(370 5243.433)">
      <g id="Grupo_146059" data-name="Grupo 146059" transform="translate(0 9.319)">
        <path id="Trazado_216243" data-name="Trazado 216243" d="M75.5,9.319H5.117A5.123,5.123,0,0,0,0,14.436v60.6A5.123,5.123,0,0,0,5.117,80.15H25.352a1.181,1.181,0,1,0,0-2.362H5.117a2.759,2.759,0,0,1-2.755-2.755V26.352H6.613a1.181,1.181,0,1,0,0-2.362H2.362V14.436A2.759,2.759,0,0,1,5.117,11.68H75.5a2.759,2.759,0,0,1,2.755,2.755v9.555H12.123a1.181,1.181,0,1,0,0,2.362H78.251V46.407a9.384,9.384,0,0,1-9.373,9.373H61.36A5.123,5.123,0,0,0,56.243,60.9v7.518a9.384,9.384,0,0,1-9.373,9.373H30.863a1.181,1.181,0,1,0,0,2.362H75.5a5.123,5.123,0,0,0,5.117-5.117v-60.6A5.123,5.123,0,0,0,75.5,9.319ZM58.6,68.415V60.9a2.759,2.759,0,0,1,2.755-2.755h7.518a11.7,11.7,0,0,0,8.484-3.635,18.416,18.416,0,0,1-4.529,7.384L62.353,72.37A18.423,18.423,0,0,1,54.969,76.9,11.7,11.7,0,0,0,58.6,68.415ZM75.5,77.788H58.935a20.925,20.925,0,0,0,5.088-3.748L74.5,63.56a20.929,20.929,0,0,0,3.749-5.088v16.56A2.759,2.759,0,0,1,75.5,77.788Z" transform="translate(0 -9.319)" fill="#30610c"/>
        <path id="Trazado_216244" data-name="Trazado 216244" d="M25.89,22.264a3.626,3.626,0,1,0-3.626,3.626A3.63,3.63,0,0,0,25.89,22.264Zm-4.891,0a1.264,1.264,0,1,1,1.264,1.264A1.266,1.266,0,0,1,21,22.264Z" transform="translate(-8.856 -13.747)" fill="#30610c"/>
        <path id="Trazado_216245" data-name="Trazado 216245" d="M128.4,22.264a3.626,3.626,0,1,0-3.626,3.626A3.63,3.63,0,0,0,128.4,22.264Zm-4.891,0a1.264,1.264,0,1,1,1.264,1.264A1.266,1.266,0,0,1,123.505,22.264Z" transform="translate(-57.565 -13.747)" fill="#30610c"/>
        <path id="Trazado_216246" data-name="Trazado 216246" d="M77.35,25.658a1.181,1.181,0,1,0,0-2.362H43.115a1.181,1.181,0,0,0,0,2.362Z" transform="translate(-19.926 -15.961)" fill="#30610c"/>
        <path id="Trazado_216247" data-name="Trazado 216247" d="M73.851,74.55a2.608,2.608,0,0,0-1.857.769L67.5,79.81l-1.317-1.317a2.626,2.626,0,0,0-3.714,0l-1.13,1.13a2.629,2.629,0,0,0,0,3.714l3.793,3.793a3.353,3.353,0,0,0,4.735,0l6.967-6.967a2.629,2.629,0,0,0,0-3.714l-1.13-1.13a2.608,2.608,0,0,0-1.857-.769Zm1.317,3.943L68.2,85.46a.988.988,0,0,1-1.4,0l-3.793-3.793a.264.264,0,0,1,0-.374l1.13-1.13a.265.265,0,0,1,.374,0l2.152,2.152a1.181,1.181,0,0,0,1.67,0l5.326-5.326h0a.264.264,0,0,1,.373,0l1.13,1.13A.265.265,0,0,1,75.168,78.493Z" transform="translate(-28.784 -40.315)" fill="#30610c"/>
        <path id="Trazado_216248" data-name="Trazado 216248" d="M72.657,62.947A1.181,1.181,0,1,0,74.444,61.4a15.8,15.8,0,1,0,3,5.208,1.181,1.181,0,0,0-2.234.768,13.507,13.507,0,1,1-2.552-4.431Z" transform="translate(-22.141 -31.459)" fill="#30610c"/>
      </g>
    </g>
  </g>
</svg>
