<svg xmlns="http://www.w3.org/2000/svg" width="393.973" height="727.457" viewBox="0 0 393.973 727.457">
  <g id="Grupo_146154" data-name="Grupo 146154" transform="translate(-187 -3630.612)">
    <g id="ILUSTRACIONES-02" transform="translate(178.12 3625.521)">
      <rect id="Rectángulo_43660" data-name="Rectángulo 43660" width="21.589" height="86.354" transform="translate(287.255 73.097)" fill="#e0e0e0"/>
      <rect id="Rectángulo_43661" data-name="Rectángulo 43661" width="21.589" height="67.524" transform="translate(319.051 91.927)" fill="#e0e0e0"/>
      <rect id="Rectángulo_43662" data-name="Rectángulo 43662" width="21.589" height="52.075" transform="translate(351.331 107.308)" fill="#e0e0e0"/>
      <rect id="Rectángulo_43663" data-name="Rectángulo 43663" width="21.589" height="30.969" transform="translate(381.265 128.483)" fill="#e0e0e0"/>
      <path id="Trazado_211546" data-name="Trazado 211546" d="M168.042,60.012A74.836,74.836,0,0,0,62.858,63.529a73.732,73.732,0,0,0,3.587,104.563,74.9,74.9,0,0,0,105.184-3.587,73.732,73.732,0,0,0-3.587-104.494Zm-24.83,78.146a35.728,35.728,0,0,1-50.281,1.724,35.314,35.314,0,0,1-1.724-50.005,35.8,35.8,0,0,1,50.281-1.655,35.176,35.176,0,0,1,1.448,50.212Z" transform="translate(200.325 206.555)" fill="#f5f5f5"/>
      <path id="Trazado_211547" data-name="Trazado 211547" d="M62.591,63.812a74.836,74.836,0,0,1,105.46-3.793L141.5,88.228a35.8,35.8,0,0,0-50.281,1.655,35.314,35.314,0,0,0,1.724,50.005L66.453,168.1A73.732,73.732,0,0,1,62.591,63.812Z" transform="translate(200.317 206.548)" fill="#ebebeb"/>
      <path id="Trazado_211548" data-name="Trazado 211548" d="M86.468,41.28c36.694,34.142,41.384,89.665,6.9,126.083L56.12,135.083c16.416-17.45,20-40.763,2.414-57.041Z" transform="translate(278.588 213.423)" fill="#fafafa"/>
      <path id="Trazado_211549" data-name="Trazado 211549" d="M41.772,67.11,37.91,366.8H210.342V71.248Z" transform="translate(171.198 365.75)" fill="#f5f5f5"/>
      <path id="Trazado_211550" data-name="Trazado 211550" d="M53.3,67.44,51.71,364.851h77.25V69.3Z" transform="translate(252.581 367.696)" fill="#e0e0e0"/>
      <path id="Trazado_211551" data-name="Trazado 211551" d="M39.25,67.9v61.248h81.664V70.8Z" transform="translate(179.101 370.409)" fill="#e0e0e0"/>
      <path id="Trazado_211552" data-name="Trazado 211552" d="M43.34,71.048v9.035H68.308V70.22Z" transform="translate(203.221 384.091)" fill="#f5f5f5"/>
      <rect id="Rectángulo_43664" data-name="Rectángulo 43664" width="25.796" height="3.725" transform="translate(246.561 471.83)" fill="#f5f5f5"/>
      <path id="Trazado_211553" data-name="Trazado 211553" d="M39.25,99.04v61.248h81.664V101.937Z" transform="translate(179.101 554.051)" fill="#e0e0e0"/>
      <path id="Trazado_211554" data-name="Trazado 211554" d="M43.34,102.188v9.1H68.308V101.36Z" transform="translate(203.221 567.732)" fill="#f5f5f5"/>
      <rect id="Rectángulo_43665" data-name="Rectángulo 43665" width="25.796" height="3.725" transform="translate(246.561 686.612)" fill="#f5f5f5"/>
      <path id="Trazado_211555" data-name="Trazado 211555" d="M39.25,77.92v61.248h81.664V80.748Z" transform="translate(179.101 429.5)" fill="#e0e0e0"/>
      <path id="Trazado_211556" data-name="Trazado 211556" d="M43.34,81.068V90.1H68.308V80.24Z" transform="translate(203.221 443.182)" fill="#f5f5f5"/>
      <rect id="Rectángulo_43666" data-name="Rectángulo 43666" width="25.796" height="3.725" transform="translate(246.561 540.941)" fill="#f5f5f5"/>
      <rect id="Rectángulo_43667" data-name="Rectángulo 43667" width="81.664" height="61.317" transform="translate(217.316 580.807)" fill="#e0e0e0"/>
      <path id="Trazado_211557" data-name="Trazado 211557" d="M43.26,93.209v8.553H66.78V92.45Z" transform="translate(202.749 515.187)" fill="#f5f5f5"/>
      <rect id="Rectángulo_43668" data-name="Rectángulo 43668" width="24.278" height="3.449" transform="translate(246.009 624.053)" fill="#f5f5f5"/>
      <rect id="Rectángulo_43669" data-name="Rectángulo 43669" width="293.273" height="334.726" transform="translate(9.294 5.918)" fill="#fafafa"/>
      <path id="Trazado_211558" data-name="Trazado 211558" d="M302.567,340.643a14.277,14.277,0,0,1,0-1.586V5.918l.483.414H9.294l.414-.414V340.643l-.414-.414H8.88V5.435h294.1V340.574Z" transform="translate(0 0)" fill="#263238"/>
      <rect id="Rectángulo_43670" data-name="Rectángulo 43670" width="237.543" height="190.572" transform="translate(32.745 32.679)" fill="#e0e0e0"/>
      <rect id="Rectángulo_43671" data-name="Rectángulo 43671" width="7.794" height="2.276" transform="translate(49.367 189.386)" fill="#263238"/>
      <rect id="Rectángulo_43672" data-name="Rectángulo 43672" width="10.001" height="2.276" transform="translate(66.955 201.387)" fill="#263238"/>
      <rect id="Rectángulo_43673" data-name="Rectángulo 43673" width="10.001" height="2.276" transform="translate(101.718 201.387)" fill="#263238"/>
      <rect id="Rectángulo_43674" data-name="Rectángulo 43674" width="10.001" height="2.276" transform="translate(136.411 201.387)" fill="#263238"/>
      <rect id="Rectángulo_43675" data-name="Rectángulo 43675" width="10.001" height="2.276" transform="translate(171.104 201.387)" fill="#263238"/>
      <rect id="Rectángulo_43676" data-name="Rectángulo 43676" width="10.001" height="2.276" transform="translate(205.798 201.387)" fill="#263238"/>
      <rect id="Rectángulo_43677" data-name="Rectángulo 43677" width="10.001" height="2.276" transform="translate(240.56 201.387)" fill="#263238"/>
      <rect id="Rectángulo_43678" data-name="Rectángulo 43678" width="7.794" height="2.276" transform="translate(49.367 159.382)" fill="#263238"/>
      <rect id="Rectángulo_43679" data-name="Rectángulo 43679" width="7.794" height="2.276" transform="translate(49.367 102.894)" fill="#263238"/>
      <rect id="Rectángulo_43680" data-name="Rectángulo 43680" width="7.794" height="2.276" transform="translate(49.367 74.477)" fill="#263238"/>
      <rect id="Rectángulo_43681" data-name="Rectángulo 43681" width="7.794" height="2.276" transform="translate(49.712 131.104)" fill="#263238"/>
      <path id="Trazado_211559" data-name="Trazado 211559" d="M206.281,147.835H16.813v-.552l-.483-.483H206.075Z" transform="translate(43.935 43.758)" fill="#263238"/>
      <path id="Trazado_211560" data-name="Trazado 211560" d="M201.235,24s-41.384.483-91.8.483S17.56,24.485,17.56,24s41.384-.552,91.872-.552S201.235,23.726,201.235,24Z" transform="translate(51.188 108.274)" fill="#263238"/>
      <path id="Trazado_211561" data-name="Trazado 211561" d="M201.235,19.843s-41.384.483-91.8.483-91.872,0-91.872-.483,41.384-.483,91.872-.483S201.235,19.567,201.235,19.843Z" transform="translate(51.188 84.154)" fill="#263238"/>
      <path id="Trazado_211562" data-name="Trazado 211562" d="M201.235,15.733s-41.384.483-91.8.483-91.872,0-91.872-.483,41.384-.483,91.872-.483S201.235,15.457,201.235,15.733Z" transform="translate(51.188 59.916)" fill="#263238"/>
      <path id="Trazado_211563" data-name="Trazado 211563" d="M201.235,28.033s-41.384.483-91.8.483-91.872,0-91.872-.483,41.384-.483,91.872-.483S201.235,27.757,201.235,28.033Z" transform="translate(51.188 132.453)" fill="#263238"/>
      <path id="Trazado_211564" data-name="Trazado 211564" d="M17.83,139.524V114.487l15.657-24.21L44.04,98.416l21.8-33.8,12.829,9.035L96.528,42.479l14.484,11.794L132.739,12.89,156.19,59.1l18.968-23.175,22.278-6.346V139.524Z" transform="translate(52.781 45.999)" fill="#455a64"/>
      <path id="Trazado_211565" data-name="Trazado 211565" d="M199.7,14.059H176.527c-4.966,6.552-11.174,14.691-18.347,24H112.658C106.588,48.132,100.1,58.753,93.345,70.2L74.24,102.068l-.345.621-.483-.552L48.582,67.651h.69L26.511,102.965l-6.346,9.794-1.724,2.552a5.035,5.035,0,0,1-.621.828l.552-.9,1.586-2.621,6-9.656L48.444,67.444v-.483l.345.483L74.24,101.517h-.828c6-10,12.346-20.692,18.968-31.521s13.243-22.071,19.312-32.141H157.9c6.9-9.242,13.795-17.381,18.485-23.865h23.175Z" transform="translate(52.722 52.486)" fill="#f67409"/>
      <path id="Trazado_211566" data-name="Trazado 211566" d="M26.731,24.375A1.793,1.793,0,0,1,24.938,26.1a1.724,1.724,0,1,1,0-3.38,1.724,1.724,0,0,1,1.793,1.655Z" transform="translate(82.505 103.763)" fill="#f67409"/>
      <path id="Trazado_211567" data-name="Trazado 211567" d="M34.411,20.074a1.724,1.724,0,0,1-1.793,1.655,1.724,1.724,0,1,1,0-3.38A1.793,1.793,0,0,1,34.411,20.074Z" transform="translate(127.796 77.992)" fill="#f67409"/>
      <path id="Trazado_211568" data-name="Trazado 211568" d="M40.381,19a1.724,1.724,0,0,1-1.793,1.655,1.724,1.724,0,1,1,0-3.38A1.724,1.724,0,0,1,40.381,19Z" transform="translate(163.003 71.682)" fill="#f67409"/>
      <path id="Trazado_211569" data-name="Trazado 211569" d="M236.656,41.243s-49.867.483-111.943.483-111.943,0-111.943-.483,49.867-.483,111.943-.483S236.656,40.967,236.656,41.243Z" transform="translate(22.94 210.356)" fill="#263238"/>
      <path id="Trazado_211570" data-name="Trazado 211570" d="M236.656,43s-49.867.552-111.943.552S12.77,43.547,12.77,43s49.867-.483,111.943-.483S236.656,42.719,236.656,43Z" transform="translate(22.94 220.674)" fill="#263238"/>
      <path id="Trazado_211571" data-name="Trazado 211571" d="M236.656,44.753s-49.867.483-111.943.483-111.943,0-111.943-.483,49.867-.483,111.943-.483S236.656,44.477,236.656,44.753Z" transform="translate(22.94 231.056)" fill="#263238"/>
      <path id="Trazado_211572" data-name="Trazado 211572" d="M236.656,46.69s-49.867.483-111.943.483-111.943,0-111.943-.483S62.637,46,124.713,46,236.656,46.414,236.656,46.69Z" transform="translate(22.94 241.258)" fill="#263238"/>
      <path id="Trazado_211573" data-name="Trazado 211573" d="M47.566,103.312a96.561,96.561,0,0,0,9.518-35.866c.69-5.587,2-13.795-1.931-17.036s-4.552-9.587-9.38-12.484a14.76,14.76,0,0,0-15.933,0" transform="translate(123.607 179.877)" fill="#263238"/>
      <path id="Trazado_211574" data-name="Trazado 211574" d="M58.823,134.8h0a16.553,16.553,0,0,1-17.8-15.864c-.345-8.966-.69-18.071-.69-18.071A16.278,16.278,0,0,1,25.716,86.1c-.966-13.795-.483-44.694-.483-44.694h0a46.971,46.971,0,0,1,47.384,3.1l-.9,47.453v25.589a15.657,15.657,0,0,1-12.9,17.243Z" transform="translate(95.728 184.811)" fill="#ffbe9d"/>
      <path id="Trazado_211575" data-name="Trazado 211575" d="M48.816,79.112a6.9,6.9,0,0,1,9.242-1.655,7.794,7.794,0,0,1,2.621,9.794,10.208,10.208,0,0,1-6.9,4.966A5.242,5.242,0,0,0,49.712,97.8c.414,3.38,6,4.69,8.553,7.449a32.279,32.279,0,0,0,18.485,6.9c5.794.69,5.1.759,8.415-3.932a18.692,18.692,0,0,0,3.311-10.967l1.035-30.21a42.491,42.491,0,0,0-.69-10.691,14.622,14.622,0,0,0-5.656-8.9,43.936,43.936,0,0,0-11.174-3.518,93.8,93.8,0,0,1-13.036-6.9,15.864,15.864,0,0,0-14.277-.966c-3.1,1.586-5.242,4.69-8.277,6.415-4.414,2.483-10.346,1.931-12.415,8.346a10.76,10.76,0,0,0,0,6.9A15.864,15.864,0,0,0,45.5,66.214a20.692,20.692,0,0,0,0,9.449c.483,1.448.69,3.725,2.966,3.794" transform="translate(85.733 175.315)" fill="#263238"/>
      <path id="Trazado_211576" data-name="Trazado 211576" d="M27.554,47.65a2.227,2.227,0,0,0,1.724.621,3.1,3.1,0,0,0,2.483-3.035,3.311,3.311,0,0,0-2.276-3.38,2.564,2.564,0,0,0-1.931,0s.69-.621,2.138,0a3.931,3.931,0,0,1-.414,7.794,1.793,1.793,0,0,1-1.517-.759A1.035,1.035,0,0,1,27.554,47.65Z" transform="translate(109.409 215.192)" fill="#eb996e"/>
      <path id="Trazado_211577" data-name="Trazado 211577" d="M29.49,38.994a5.036,5.036,0,0,1,1.1-1.173,9.38,9.38,0,0,1,4.138-1.586,11.656,11.656,0,0,1,6.414,1.035,14.208,14.208,0,0,1,6,5.311,30.969,30.969,0,0,1,4.207,13.795,33.591,33.591,0,0,1,.345,5.863,32.764,32.764,0,0,1-1.1-5.794A32.418,32.418,0,0,0,46.319,43.27,13.8,13.8,0,0,0,40.8,38.235a11.656,11.656,0,0,0-6-1.173,11.932,11.932,0,0,0-5.311,1.931Z" transform="translate(121.543 183.154)" fill="#455a64"/>
      <path id="Trazado_211578" data-name="Trazado 211578" d="M27.392,55.327h-.483a4.482,4.482,0,0,1-1.379-.621,5.173,5.173,0,0,1-1.586-1.793,4.621,4.621,0,0,1-.414-3.1,5.518,5.518,0,0,1,2.207-3.173,7.587,7.587,0,0,1,4.276-.828,5.656,5.656,0,0,0,4.276-1.242A32.907,32.907,0,0,0,37.6,41.05a16.278,16.278,0,0,1,8.415-4.9,17.933,17.933,0,0,1,7.863,0,17.657,17.657,0,0,1,5.035,1.862,5.863,5.863,0,0,1,1.517,1.242,22.141,22.141,0,0,0-6.9-2.414,19.243,19.243,0,0,0-7.587,0,16.484,16.484,0,0,0-7.932,4.621,21.866,21.866,0,0,1-3.449,3.725,5.311,5.311,0,0,1-2.276,1.035,9.036,9.036,0,0,1-2.345,0,7.587,7.587,0,0,0-3.862.621,4.759,4.759,0,0,0-1.931,2.621,4.276,4.276,0,0,0,1.586,4.414,10.207,10.207,0,0,0,1.655,1.448Z" transform="translate(85.775 180.615)" fill="#455a64"/>
      <path id="Trazado_211579" data-name="Trazado 211579" d="M39.7,79.8s.621,0,1.724-1.035a11.173,11.173,0,0,0,3.725-4.138,10.07,10.07,0,0,0,.621-7.863,10.484,10.484,0,0,0-2.483-4.069,19.589,19.589,0,0,0-4.207-3.1,51.119,51.119,0,0,1-4.621-2.759,15.449,15.449,0,0,1-3.794-3.518,16,16,0,0,1-3.1-8,14.208,14.208,0,0,1,.414-5.725q.252-.6.552-1.173V37.93a19.313,19.313,0,0,0-.276,7.38,16.691,16.691,0,0,0,3.035,7.449A13.794,13.794,0,0,0,34.876,56c1.379.966,2.966,1.793,4.552,2.759A17.381,17.381,0,0,1,43.842,62,10.829,10.829,0,0,1,41.5,79.107,4.277,4.277,0,0,1,39.7,79.8Z" transform="translate(109.467 193.667)" fill="#455a64"/>
      <path id="Trazado_211580" data-name="Trazado 211580" d="M60.019,61l-1.724.414a26.141,26.141,0,0,1-4.9,0,30.142,30.142,0,0,1-15.036-5.173A23.52,23.52,0,0,1,28.223,43.968a10.07,10.07,0,0,1,0-4.552,3.656,3.656,0,0,1,.69-1.655,11.932,11.932,0,0,0,0,6.346A24,24,0,0,0,38.638,55.9a31.452,31.452,0,0,0,14.553,5.311C57.467,61.28,59.95,60.8,60.019,61Z" transform="translate(112.533 192.665)" fill="#455a64"/>
      <path id="Trazado_211581" data-name="Trazado 211581" d="M34.717,46.988a23.865,23.865,0,0,1,18.623-8.415,17.105,17.105,0,0,1,15.588,12.07,42.28,42.28,0,0,1-.966,15.795,15.174,15.174,0,0,0,4.276,14.484,24.141,24.141,0,0,0,9.035,3.035,9.932,9.932,0,0,1,7.518,5.311A7.656,7.656,0,0,1,84.1,98.1a16.9,16.9,0,0,1-10.76,0,9.173,9.173,0,0,1-4,10.829,12.07,12.07,0,0,1-12-.483,17.726,17.726,0,0,1-7.311-9.932,8.967,8.967,0,0,1-12.277,2.345A12.829,12.829,0,0,1,32.785,88.51a24.485,24.485,0,0,1,6.208-12.346,33.247,33.247,0,0,0,4.345-5.518,6.9,6.9,0,0,0,0-6.9,4.138,4.138,0,0,0-6-1.242" transform="translate(139.974 197.438)" fill="#263238"/>
      <path id="Trazado_211582" data-name="Trazado 211582" d="M42.746,57.95a4.9,4.9,0,0,1-4.069,0,9.794,9.794,0,0,1-5.932-7.656,10.415,10.415,0,0,1,.69-5.518,10.07,10.07,0,0,1,2.552-3.656,6.9,6.9,0,0,1,3.587-2,15.543,15.543,0,0,0-3.1,2.483,10.07,10.07,0,0,0-2.69,8.484,9.518,9.518,0,0,0,5.173,6.9,10.9,10.9,0,0,0,3.794.966Z" transform="translate(140.084 200.685)" fill="#e8505b"/>
      <path id="Trazado_211583" data-name="Trazado 211583" d="M40.115,56.886a7.587,7.587,0,0,1-3.1-.345,16.623,16.623,0,0,1-6.9-3.518,16.9,16.9,0,0,1-4.345-6.139c-.759-1.793-.828-2.966-.69-3.035a28.764,28.764,0,0,1,1.31,2.759,19.727,19.727,0,0,0,4.345,5.656,19.451,19.451,0,0,0,6.139,3.587C38.667,56.472,40.115,56.679,40.115,56.886Z" transform="translate(95.192 228.579)" fill="#eb996e"/>
      <path id="Trazado_211584" data-name="Trazado 211584" d="M45.827,87.775h-.621a6.483,6.483,0,0,1-1.793-.828,9.725,9.725,0,0,1-3.793-5.794,10.829,10.829,0,0,1,0-4.966,19.657,19.657,0,0,1,1.793-5.242c1.724-3.587,4.414-6.9,6.346-10.9a18.14,18.14,0,0,0,2-6,11.38,11.38,0,0,0-.621-5.725,11.725,11.725,0,0,0-6.9-6.9,12.139,12.139,0,0,0-6.9-.414,7.574,7.574,0,0,0-2.483.621h.621a7.31,7.31,0,0,1,1.724-.69,12,12,0,0,1,14.484,7.242,12.415,12.415,0,0,1,.759,6.208,19.175,19.175,0,0,1-2.069,6.277C46.31,64.738,43.62,68.118,41.964,71.5a15.036,15.036,0,0,0-1.793,9.656,10,10,0,0,0,3.38,5.725C44.93,87.5,45.9,87.637,45.827,87.775Z" transform="translate(141.417 208.725)" fill="#455a64"/>
      <path id="Trazado_211585" data-name="Trazado 211585" d="M65.879,99.449h-.828a15.935,15.935,0,0,1-2.414-.414,14.208,14.208,0,0,1-6.9-5.518,20.692,20.692,0,0,1-3.035-12.829,131.045,131.045,0,0,1,2.621-16,33.59,33.59,0,0,0,.552-8.208,19.658,19.658,0,0,0-1.655-7.311,13.381,13.381,0,0,0-9.449-7.932,19.933,19.933,0,0,0-8.691,0c-2.069.414-3.1.9-3.173.828l.621-.345a21.111,21.111,0,0,1,2.345-.828,19.036,19.036,0,0,1,8.9-.345,13.8,13.8,0,0,1,10.139,8.208,20.692,20.692,0,0,1,1.862,7.725,34.485,34.485,0,0,1-.552,8.415A140.294,140.294,0,0,0,53.6,80.757a19.933,19.933,0,0,0,2.69,12.415,13.794,13.794,0,0,0,6.9,5.518,20.212,20.212,0,0,0,2.69.759Z" transform="translate(141.712 206.915)" fill="#455a64"/>
      <path id="Trazado_211586" data-name="Trazado 211586" d="M62.813,57.68,34.12,80.1l12,19.8L80.746,74.44Z" transform="translate(148.848 310.139)" fill="#ffbe9d"/>
      <path id="Trazado_211587" data-name="Trazado 211587" d="M86.678,63.331s0-2.414-6.139-2.759a55.6,55.6,0,0,0-6.9,0,16.9,16.9,0,0,1-3.035-5.794,18.278,18.278,0,0,1,1.379-5.932l6.346-.552L76.608,43.95l-4.69.345L59.3,45.812,54.26,67.884,19.774,132.235a16.554,16.554,0,0,0,6.9,24.141h0c8.9,4.345,20.692-4.828,24.141-13.795L69.71,70.5l6.9-5.242,9.587-1.793" transform="translate(48.147 229.169)" fill="#ffbe9d"/>
      <path id="Trazado_211588" data-name="Trazado 211588" d="M15.75,376.4l46.9-269.96h0v-1.173h0c8-31.659,20.692-41.8,20.692-41.8l71.8,4.483c6.07,10.967,6.9,37.314,6.9,37.314.9,3.242-15.174,264.787-15.174,264.787l-24-.69L109.622,121.89,39.753,377.5Z" transform="translate(40.514 344.284)" fill="#ffbe9d"/>
      <path id="Trazado_211589" data-name="Trazado 211589" d="M30.035,111.313V108.83l24.692.759v8H53.071a310.4,310.4,0,0,1-39.108-.966C9.067,115.106,30.035,111.313,30.035,111.313Z" transform="translate(25.609 611.785)" fill="#f67409"/>
      <g id="Grupo_145840" data-name="Grupo 145840" transform="translate(71.369 722.369)" opacity="0.6">
        <path id="Trazado_211590" data-name="Trazado 211590" d="M17.94,115.4a7.863,7.863,0,0,1,3.242-4.759,8.691,8.691,0,0,1,5.794-1.517v6.415Z" transform="translate(-17.94 -109.084)" fill="#fff"/>
      </g>
      <g id="Grupo_145841" data-name="Grupo 145841" transform="translate(38.808 725.305)" opacity="0.6">
        <path id="Trazado_211591" data-name="Trazado 211591" d="M19.778,109.51s-7.38,1.724-6.483,2.9a250.36,250.36,0,0,0,41.384,1.173v-.69l-32.693-.621S21.226,109.579,19.778,109.51Z" transform="translate(-13.219 -109.51)" fill="#fff"/>
      </g>
      <path id="Trazado_211592" data-name="Trazado 211592" d="M54.6,110.531h-20.9l-14.76-.621h.069l14.691.552H54.6Z" transform="translate(26.007 618.154)" fill="#263238"/>
      <path id="Trazado_211593" data-name="Trazado 211593" d="M16.357,113.067a6.9,6.9,0,0,0-.759-2,9.035,9.035,0,0,0-1.448-1.586,3.173,3.173,0,0,1,1.724,1.448A2.454,2.454,0,0,1,16.357,113.067Z" transform="translate(31.079 615.618)" fill="#263238"/>
      <path id="Trazado_211594" data-name="Trazado 211594" d="M16.607,111.24a4,4,0,0,1-.759-.9c0-.552-.552-1.035-.483-1.1a4,4,0,0,1,.759.9C16.469,110.688,16.676,111.171,16.607,111.24Z" transform="translate(38.209 614.203)" fill="#263238"/>
      <path id="Trazado_211595" data-name="Trazado 211595" d="M17.077,110.529a1.16,1.16,0,0,1-.828-.552c-.414-.552-.69-.69-.621-.759s.414,0,.828.552S17.146,110.46,17.077,110.529Z" transform="translate(39.739 613.948)" fill="#263238"/>
      <path id="Trazado_211597" data-name="Trazado 211597" d="M18.636,108.877a2.483,2.483,0,0,1-1.448,0,2.758,2.758,0,0,1-1.517,0h1.448C17.946,108.946,18.567,108.808,18.636,108.877Z" transform="translate(40.043 611.945)" fill="#263238"/>
      <path id="Trazado_211598" data-name="Trazado 211598" d="M19.385,111.037a3.241,3.241,0,0,1-1.586,0l-1.655-.414-.966-.414a.938.938,0,0,1-.345-1.035,3.035,3.035,0,0,1,3.587.9,3.1,3.1,0,0,1,.483.966s0,.414,0,.414a2.552,2.552,0,0,0-.69-1.241,2.759,2.759,0,0,0-1.31-.9,2.9,2.9,0,0,0-1.862,0v.621h.9l1.655.483Z" transform="translate(34.672 612.337)" fill="#263238"/>
      <path id="Trazado_211599" data-name="Trazado 211599" d="M15.461,111.6a1.311,1.311,0,0,1,0-1.035,2.759,2.759,0,0,1,.483-1.035,1.38,1.38,0,0,1,1.31-.69.552.552,0,0,1,.483.69v.621l-.828.9a3.036,3.036,0,0,1-.9.552l.759-.69a10.145,10.145,0,0,0,.69-.9s.414-.828,0-.9a1.242,1.242,0,0,0-1.035.552,2.551,2.551,0,0,0-.483.966A1.646,1.646,0,0,0,15.461,111.6Z" transform="translate(38.182 611.84)" fill="#263238"/>
      <path id="Trazado_211600" data-name="Trazado 211600" d="M26.935,109.12H25.073a8.139,8.139,0,0,0-4,1.448,6.9,6.9,0,0,0-2.552,3.173c-.414.966-.483,1.655-.552,1.586v-.138a5.725,5.725,0,0,1,0-1.242,7.311,7.311,0,0,1,2.552-3.38,8.829,8.829,0,0,1,4.207-1.379h1.379Z" transform="translate(53.401 613.495)" fill="#263238"/>
      <path id="Trazado_211601" data-name="Trazado 211601" d="M23.633,109.71a14.139,14.139,0,0,1-3.587,0,13.31,13.31,0,0,1-3.587,0h7.173Z" transform="translate(44.701 616.975)" fill="#263238"/>
      <path id="Trazado_211602" data-name="Trazado 211602" d="M18.495,109.8l-.345.621v-.138C18.15,109.521,18.426,109.728,18.495,109.8Z" transform="translate(54.668 617.026)" fill="#263238"/>
      <path id="Trazado_211603" data-name="Trazado 211603" d="M19.021,109.7v.483c0,.483-.552.414-.621,0s0,0,.414-.552S18.952,109.628,19.021,109.7Z" transform="translate(56.004 615.057)" fill="#263238"/>
      <path id="Trazado_211604" data-name="Trazado 211604" d="M20.029,109.719H18.65s0-.414.552-.483A.782.782,0,0,1,20.029,109.719Z" transform="translate(57.617 614.138)" fill="#263238"/>
      <path id="Trazado_211605" data-name="Trazado 211605" d="M19.795,109.24h0Z" transform="translate(59.713 614.203)" fill="#263238"/>
      <path id="Trazado_211606" data-name="Trazado 211606" d="M33.15,47.86a47.591,47.591,0,0,1,19.037,7.863c22.692,14.691,60.7,45.8,57.523,60.213-2.69,12.277-32.279,27.175-32.279,27.175L58.187,120.006l11.794-6.9L41.013,93.8Z" transform="translate(143.127 252.227)" fill="#263238"/>
      <path id="Trazado_211607" data-name="Trazado 211607" d="M141.708,95.872l-.966,3.449-3.311,16L136.6,138.7a75.112,75.112,0,0,1,17.519,40.832L67.286,189.675a173.4,173.4,0,0,1,6.277-38.832c5.035-8.484,4.828-34.073,3.862-34.969A11.036,11.036,0,0,1,75.011,99.6s-26.968,28.348-29.865,30.9a16.691,16.691,0,0,1-22.968,2.483c-11.863-10.622,0-24.347,0-24.347L68.114,56.9a22.486,22.486,0,0,1,11.518-7.518c4.828-1.1,9.725-1.724,9.725-1.724h30.279a50.828,50.828,0,0,1,9.035,1.1,21.657,21.657,0,0,1,13.243,16.416A96.561,96.561,0,0,1,141.708,95.872Z" transform="translate(47.329 251.048)" fill="#263238"/>
      <path id="Trazado_211608" data-name="Trazado 211608" d="M39.938,51.63a12.555,12.555,0,0,1,0,2.552v6.9a182.846,182.846,0,0,1-2.966,22.485c-.552,2.966-1.173,5.863-1.793,8.484h0c0,6.9-.552,12.622-.759,16.76v4.828a6.21,6.21,0,0,1,0,1.793,6.9,6.9,0,0,1,0-1.793v-4.828c0-4.207,0-10.07.414-16.829h0c.621-2.621,1.173-5.449,1.793-8.415,1.655-8.691,2.759-16.622,3.242-22.347,0-2.9.414-5.242.483-6.9a12.549,12.549,0,0,1-.414-2.69Z" transform="translate(150.272 274.46)" fill="#455a64"/>
      <path id="Trazado_211609" data-name="Trazado 211609" d="M35.212,55A174.559,174.559,0,0,1,51.076,65.415,171.049,171.049,0,0,1,66.388,76.589s-6.9-4.414-15.864-10.346S35.074,55.345,35.212,55Z" transform="translate(155.274 294.334)" fill="#455a64"/>
      <path id="Trazado_211610" data-name="Trazado 211610" d="M44.693,50.08l.414.345a6.208,6.208,0,0,1,1.1,1.173,13.1,13.1,0,0,1,2.345,5.38,17.312,17.312,0,0,1-.483,8.691,35.727,35.727,0,0,1-4.9,9.518,30.348,30.348,0,0,1-3.587,4.207c-1.242,1.31-2.621,2.345-3.793,3.449-2.414,2.138-4.483,4.207-6.208,5.932s-3.035,3.173-4,4.207L24.07,94.5a13.8,13.8,0,0,1,1.242-1.793c.828-1.1,2.138-2.621,3.794-4.414s3.656-3.931,6.07-6.139c1.242-1.1,2.552-2.207,3.725-3.449a34.482,34.482,0,0,0,3.518-4.138,35.381,35.381,0,0,0,4.759-9.173,17.519,17.519,0,0,0,.69-8.277,15.657,15.657,0,0,0-3.173-7.035Z" transform="translate(89.58 265.319)" fill="#455a64"/>
      <path id="Trazado_211611" data-name="Trazado 211611" d="M25.59,71.255,26.625,59.53H85.941L85.6,68.7Z" transform="translate(98.544 321.049)" fill="#455a64"/>
      <path id="Trazado_211612" data-name="Trazado 211612" d="M24.859,56.181a19.618,19.618,0,0,0-3.242,3.449,16.14,16.14,0,0,0-3.449,10.484,15.726,15.726,0,0,0,4.276,10.208,39.041,39.041,0,0,0,3.518,3.173,2.52,2.52,0,0,1-1.173-.483A11.311,11.311,0,0,1,21.962,80.8a15.864,15.864,0,0,1-4.828-10.622,16.416,16.416,0,0,1,3.931-11.036A12.275,12.275,0,0,1,23.686,56.8C24.445,56.319,24.859,56.112,24.859,56.181Z" transform="translate(48.649 301.223)" fill="#455a64"/>
      <path id="Trazado_211613" data-name="Trazado 211613" d="M55.253,108.5l6.759,15.657-30.141-.345-.621-16Z" transform="translate(131.922 605.77)" fill="#f67409"/>
      <path id="Trazado_211614" data-name="Trazado 211614" d="M31.31,109.846a37.53,37.53,0,0,0,4.207,0H60.072a36.01,36.01,0,0,0-4.207,0H35.517A17.932,17.932,0,0,0,31.31,109.846Z" transform="translate(132.276 617.046)" fill="#263238"/>
      <path id="Trazado_211615" data-name="Trazado 211615" d="M33.318,107.86a23.037,23.037,0,0,0,0,6.346,23.589,23.589,0,0,0,.828,6.277,20.071,20.071,0,0,0,0-6.345,21.657,21.657,0,0,0-.828-6.277Z" transform="translate(142.822 606.065)" fill="#263238"/>
      <path id="Trazado_211616" data-name="Trazado 211616" d="M61.589,113.533,31.517,112.5l-.207-2.828,28.762.207,1.517,3.311" transform="translate(132.276 616.739)" fill="#fff" opacity="0.6"/>
      <path id="Trazado_211617" data-name="Trazado 211617" d="M169,86.646c22.623,71.525-6.552,158.638.414,241.405.69,8.208,4,18-3.656,22.692a12.485,12.485,0,0,1-6.9,1.655,51.728,51.728,0,0,1-16.691-5.518,49.04,49.04,0,0,0-32.762-1.31,51.041,51.041,0,0,1-21.933,5.1c-9.932-1.517-16.347-11.311-25.52-15.519s-18.416-2.414-27.589-2.621h0a21.106,21.106,0,0,1-19.519-26.693C28.642,255.767,73.888,93.06,93.96,63.4l60.006-2.552A88.494,88.494,0,0,1,169,86.646Z" transform="translate(30.726 328.833)" fill="#f67409"/>
      <path id="Trazado_211618" data-name="Trazado 211618" d="M56.912,69.47a30.965,30.965,0,0,1-3.242,4.138,96.553,96.553,0,0,1-8.9,9.035,58.075,58.075,0,0,1-10.415,6.9,18.9,18.9,0,0,1-4.828,2.207A132.428,132.428,0,0,0,44.152,81.609a123.966,123.966,0,0,0,8.966-8.76,28.763,28.763,0,0,1,3.794-3.38Z" transform="translate(121.779 379.668)" fill="#263238"/>
      <g id="Grupo_145842" data-name="Grupo 145842" transform="translate(116.79 476.106)" opacity="0.1">
        <path id="Trazado_211619" data-name="Trazado 211619" d="M59.941,73.38a255.752,255.752,0,0,0-10.07,153.051,16.14,16.14,0,0,1-.345,13.036,10.691,10.691,0,0,1-15.381.759,26.417,26.417,0,0,1-7.311-15.519c-8.208-42.694,6.9-85.526,22.83-125.876" transform="translate(-24.525 -73.38)"/>
      </g>
    </g>
  </g>
</svg>
