<svg xmlns="http://www.w3.org/2000/svg" width="66.881" height="75.899" viewBox="0 0 66.881 75.899">
  <g id="grafico-de-barras" transform="translate(0)">
    <path id="Trazado_216323" data-name="Trazado 216323" d="M2.545,93.085H38.928a1.112,1.112,0,1,0,0-2.224H34.552V50.741a.322.322,0,0,1,.321-.321h13.62V90.861H44.117a1.112,1.112,0,1,0,0,2.224H64.336a2.548,2.548,0,0,0,2.544-2.545V66.124a1.112,1.112,0,1,0-2.224,0V90.54a.322.322,0,0,1-.321.321H50.717V36.519a.322.322,0,0,1,.321-.321h13.3a.322.322,0,0,1,.321.321V60.935a1.112,1.112,0,1,0,2.224,0V36.519a2.548,2.548,0,0,0-2.545-2.545h-13.3a2.548,2.548,0,0,0-2.545,2.545V48.2H34.874a2.547,2.547,0,0,0-2.545,2.545V62.418H18.709a2.547,2.547,0,0,0-2.544,2.545V76.64H2.545A2.548,2.548,0,0,0,0,79.185V90.54a2.548,2.548,0,0,0,2.545,2.545ZM18.388,64.962a.321.321,0,0,1,.321-.321h13.62v26.22H18.388v-25.9ZM2.224,79.184a.322.322,0,0,1,.321-.321h13.62v12H2.545a.322.322,0,0,1-.321-.321Zm0,0" transform="translate(0 -17.186)" fill="#30610c"/>
    <path id="Trazado_216324" data-name="Trazado 216324" d="M14.841,50.021a3.68,3.68,0,0,0,3.365-5.158l10.9-9.592a3.68,3.68,0,0,0,5.263-4.63l10.9-9.592a3.681,3.681,0,0,0,5.262-4.63l10.9-9.592a3.677,3.677,0,1,0-1.469-1.669l-10.9,9.592A3.676,3.676,0,0,0,43.8,19.38L32.9,28.972A3.676,3.676,0,0,0,27.64,33.6l-10.9,9.592a3.677,3.677,0,1,0-1.9,6.828Zm48.492-47.8a1.454,1.454,0,1,1-1.086,2.418,1.456,1.456,0,0,1,1.086-2.418ZM48.255,16.935l.013.014a1.467,1.467,0,1,1-.013-.014ZM31.005,30.667a1.454,1.454,0,1,1-1.1,2.4,1.46,1.46,0,0,1,1.1-2.4ZM15.94,45.393a1.454,1.454,0,1,1-2.553.95,1.454,1.454,0,0,1,2.553-.95Zm0,0" transform="translate(-5.647)" fill="#30610c"/>
  </g>
</svg>
