<svg xmlns="http://www.w3.org/2000/svg" width="87.009" height="63.925" viewBox="0 0 87.009 63.925">
  <g id="ordenador-portatil" transform="translate(0 -20.375)">
    <g id="Grupo_146069" data-name="Grupo 146069" transform="translate(0 20.375)">
      <g id="Grupo_146068" data-name="Grupo 146068">
        <path id="Trazado_216319" data-name="Trazado 216319" d="M85.737,72.572H84.185V26.735a6.367,6.367,0,0,0-6.36-6.36H9.184a6.367,6.367,0,0,0-6.36,6.36V72.572H1.272A1.272,1.272,0,0,0,0,73.844,10.468,10.468,0,0,0,10.457,84.3h66.1A10.468,10.468,0,0,0,87.009,73.844,1.272,1.272,0,0,0,85.737,72.572ZM5.368,26.735a3.82,3.82,0,0,1,3.816-3.816H77.825a3.82,3.82,0,0,1,3.816,3.816V72.572h-4.3V65.806a1.272,1.272,0,0,0-2.544,0v6.766H12.208V51.225a1.272,1.272,0,1,0-2.544,0V72.572h-4.3ZM52.694,75.116A2.92,2.92,0,0,1,50.07,76.76H36.939a2.92,2.92,0,0,1-2.624-1.644Zm23.859,6.641h-66.1a7.926,7.926,0,0,1-7.811-6.641H31.631A5.468,5.468,0,0,0,36.939,79.3H50.07a5.468,5.468,0,0,0,5.309-4.188H84.363A7.926,7.926,0,0,1,76.553,81.757Z" transform="translate(0 -20.375)" fill="#30610c"/>
      </g>
    </g>
    <g id="Grupo_146071" data-name="Grupo 146071" transform="translate(9.664 27.438)">
      <g id="Grupo_146070" data-name="Grupo 146070" transform="translate(0 0)">
        <path id="Trazado_216320" data-name="Trazado 216320" d="M83.469,32.844H18.332a1.272,1.272,0,0,0-1.272,1.272V51.543a1.272,1.272,0,1,0,2.544,0V35.388H82.2V66.124a1.272,1.272,0,1,0,2.544,0V34.116A1.272,1.272,0,0,0,83.469,32.844Z" transform="translate(-17.06 -32.844)" fill="#30610c"/>
      </g>
    </g>
    <g id="Grupo_146073" data-name="Grupo 146073" transform="translate(32.632 43.092)">
      <g id="Grupo_146072" data-name="Grupo 146072">
        <path id="Trazado_216321" data-name="Trazado 216321" d="M78.437,61.491a3.46,3.46,0,0,0-4.893,0L66.039,69l-2.529-2.53a3.46,3.46,0,1,0-4.893,4.893l4.976,4.976a3.46,3.46,0,0,0,4.893,0l9.951-9.951a3.46,3.46,0,0,0,0-4.893Zm-1.8,3.094-9.951,9.951a.915.915,0,0,1-1.295,0L60.417,69.56a.916.916,0,1,1,1.295-1.295l3.429,3.429a1.272,1.272,0,0,0,1.8,0l8.4-8.4a.916.916,0,1,1,1.295,1.295Z" transform="translate(-57.605 -60.477)" fill="#30610c"/>
      </g>
    </g>
    <g id="Grupo_146075" data-name="Grupo 146075" transform="translate(24.866 32.59)">
      <g id="Grupo_146074" data-name="Grupo 146074" transform="translate(0 0)">
        <path id="Trazado_216322" data-name="Trazado 216322" d="M62.584,41.938a18.649,18.649,0,0,0-9.767,2.753,1.272,1.272,0,0,0,1.331,2.168A16.158,16.158,0,1,1,50.517,49.9a1.272,1.272,0,1,0-1.9-1.691,18.688,18.688,0,1,0,13.967-6.272Z" transform="translate(-43.897 -41.938)" fill="#30610c"/>
      </g>
    </g>
  </g>
</svg>
