<svg id="algoritmo_2_" data-name="algoritmo (2)" xmlns="http://www.w3.org/2000/svg" width="66.48" height="64.245" viewBox="0 0 66.48 64.245">
  <g id="Grupo_146042" data-name="Grupo 146042" transform="translate(0 0)">
    <path id="Trazado_216179" data-name="Trazado 216179" d="M53.95,16.606a3.284,3.284,0,1,0,3.284-3.284A3.288,3.288,0,0,0,53.95,16.606Zm4.62,0a1.336,1.336,0,1,1-1.336-1.336A1.338,1.338,0,0,1,58.57,16.606Z" transform="translate(-30.6 -8.673)" fill="#30610c"/>
    <path id="Trazado_216180" data-name="Trazado 216180" d="M32.525,16.606a3.284,3.284,0,1,0,3.284-3.284,3.288,3.288,0,0,0-3.284,3.284Zm4.62,0a1.336,1.336,0,1,1-1.336-1.336A1.338,1.338,0,0,1,37.146,16.606Z" transform="translate(-18.448 -8.673)" fill="#30610c"/>
    <path id="Trazado_216181" data-name="Trazado 216181" d="M11.1,16.606a3.284,3.284,0,1,0,3.284-3.284A3.288,3.288,0,0,0,11.1,16.606Zm4.62,0a1.336,1.336,0,1,1-1.336-1.336A1.338,1.338,0,0,1,15.721,16.606Z" transform="translate(-6.296 -8.673)" fill="#30610c"/>
    <path id="Trazado_216182" data-name="Trazado 216182" d="M63.559,2.582H2.921A2.925,2.925,0,0,0,0,5.5v37.82a.974.974,0,0,0,1.948,0V18.447H38.381a.974.974,0,1,0,0-1.948H1.948V5.5a.975.975,0,0,1,.974-.974H63.559a.975.975,0,0,1,.974.974v11H42.625a.974.974,0,1,0,0,1.948H64.532V63.905a.975.975,0,0,1-.974.974H2.921a.975.975,0,0,1-.974-.974V47.567a.974.974,0,0,0-1.948,0V63.905a2.925,2.925,0,0,0,2.921,2.921H63.559a2.925,2.925,0,0,0,2.921-2.921V5.5a2.925,2.925,0,0,0-2.921-2.921Z" transform="translate(0 -2.582)" fill="#30610c"/>
    <path id="Trazado_216183" data-name="Trazado 216183" d="M75.359,80.893a.974.974,0,0,0-1.265.545L70.72,89.924a.974.974,0,1,0,1.81.72L75.9,82.157A.974.974,0,0,0,75.359,80.893Z" transform="translate(-40.072 -46.96)" fill="#30610c"/>
    <path id="Trazado_216184" data-name="Trazado 216184" d="M89.206,82.235a.974.974,0,0,0-1.668,1.006l1.969,3.266L87.53,89.922a.974.974,0,1,0,1.685.976l2.266-3.913a.973.973,0,0,0-.009-.991Z" transform="translate(-49.571 -47.493)" fill="#30610c"/>
    <path id="Trazado_216185" data-name="Trazado 216185" d="M58.57,86.507l1.969-3.266a.974.974,0,0,0-1.668-1.006L56.6,85.995a.973.973,0,0,0-.009.991L58.862,90.9a.974.974,0,1,0,1.685-.976Z" transform="translate(-32.026 -47.493)" fill="#30610c"/>
    <path id="Trazado_216186" data-name="Trazado 216186" d="M52.354,45.675H36.783a2.275,2.275,0,0,0-2.272,2.272v2.838h-4.3a4.225,4.225,0,0,0-4.22,4.22v4.329a2.255,2.255,0,0,0-.633.443l-4.72,4.72a2.272,2.272,0,0,0,0,3.214l4.72,4.72a2.259,2.259,0,0,0,.633.443V77.2a4.225,4.225,0,0,0,4.22,4.22h4.3v2.838a2.275,2.275,0,0,0,2.272,2.272h9.394a.974.974,0,1,0,0-1.948H36.783a.325.325,0,0,1-.325-.325V76.638a.325.325,0,0,1,.325-.325H52.355a.325.325,0,0,1,.325.325v7.624a.325.325,0,0,1-.325.325H50.422a.974.974,0,1,0,0,1.948h1.933a2.275,2.275,0,0,0,2.272-2.272V81.424h4.3a4.225,4.225,0,0,0,4.22-4.22V72.875a2.26,2.26,0,0,0,.633-.443l4.72-4.72a2.272,2.272,0,0,0,0-3.214l-4.72-4.72a2.258,2.258,0,0,0-.633-.443V55.005a4.225,4.225,0,0,0-4.22-4.22h-4.3V47.947a2.275,2.275,0,0,0-2.272-2.272Zm-15.9,2.272a.325.325,0,0,1,.325-.325H52.355a.325.325,0,0,1,.325.325v7.624a.325.325,0,0,1-.325.325H36.783a.325.325,0,0,1-.325-.325ZM22.016,66.334a.325.325,0,0,1,0-.459l4.72-4.72a.325.325,0,0,1,.459,0l4.721,4.72a.325.325,0,0,1,0,.459L27.2,71.055a.325.325,0,0,1-.459,0Zm45.105-.459a.325.325,0,0,1,0,.459l-4.72,4.72a.325.325,0,0,1-.459,0l-4.721-4.72a.325.325,0,0,1,0-.459l4.721-4.72a.325.325,0,0,1,.459,0Zm-8.2-13.142A2.275,2.275,0,0,1,61.2,55.005v4.329a2.255,2.255,0,0,0-.633.443L55.844,64.5a2.272,2.272,0,0,0,0,3.214l4.721,4.72a2.255,2.255,0,0,0,.633.443V77.2a2.275,2.275,0,0,1-2.272,2.272h-4.3V76.638a2.275,2.275,0,0,0-2.272-2.272H36.783a2.275,2.275,0,0,0-2.272,2.272v2.838h-4.3A2.275,2.275,0,0,1,27.94,77.2V72.875a2.255,2.255,0,0,0,.633-.443l4.721-4.72a2.272,2.272,0,0,0,0-3.214l-4.721-4.72a2.255,2.255,0,0,0-.633-.443V55.005a2.275,2.275,0,0,1,2.272-2.272h4.3v2.838a2.275,2.275,0,0,0,2.272,2.272H52.355a2.275,2.275,0,0,0,2.272-2.272V52.733Z" transform="translate(-11.329 -27.024)" fill="#30610c"/>
  </g>
</svg>
