<svg id="algoritmo" xmlns="http://www.w3.org/2000/svg" width="52.31" height="66.48" viewBox="0 0 52.31 66.48">
  <path id="Trazado_216192" data-name="Trazado 216192" d="M20.434,54.38V52.906a1.629,1.629,0,0,0-1.628-1.628H2.1V19.785H9.98a.983.983,0,0,0,.129-.01l8.371,4.9V31.3H9.306a1.725,1.725,0,0,0-1.722,1.723v4.992a1.725,1.725,0,0,0,1.722,1.723h9.175v1.289H9.306a1.725,1.725,0,0,0-1.722,1.723v4.992a1.725,1.725,0,0,0,1.722,1.723h2.187a.977.977,0,0,0,0-1.953H9.537V42.979H29.378V47.51H17.548a.977.977,0,1,0,0,1.953h12.06a1.725,1.725,0,0,0,1.723-1.723V42.749a1.725,1.725,0,0,0-1.723-1.723H20.434V39.737h9.174a1.725,1.725,0,0,0,1.723-1.723V33.022A1.725,1.725,0,0,0,29.608,31.3H20.434V24.533l7.95-4.657a1.237,1.237,0,0,0,0-2.135l-7.95-4.657V9.56h2.153a.977.977,0,1,0,0-1.953H7.651V1.953H31.264V7.606H28.7a.977.977,0,1,0,0,1.953h2.618a1.906,1.906,0,0,0,1.9-1.9V1.9a1.906,1.906,0,0,0-1.9-1.9H7.6A1.906,1.906,0,0,0,5.7,1.9V7.656a1.906,1.906,0,0,0,1.9,1.9H18.481v3.378l-8.371,4.9a.983.983,0,0,0-.129-.009h-8.2A1.629,1.629,0,0,0,.15,19.46V51.6a1.63,1.63,0,0,0,1.628,1.628h16.7V54.38a6.089,6.089,0,1,0,1.953,0Zm8.944-21.128v4.531H9.537V33.252ZM19.332,14.7l7.01,4.105-7.01,4.105-7.009-4.105Zm.125,49.823a4.136,4.136,0,1,1,4.136-4.136A4.141,4.141,0,0,1,19.458,64.526Zm0,0" transform="translate(-0.15 0)" fill="#30610c"/>
  <path id="Trazado_216193" data-name="Trazado 216193" d="M67.949,53.254H65.475a1.629,1.629,0,0,0-1.628,1.628v2.344a1.629,1.629,0,0,0,1.628,1.628h2.474a1.629,1.629,0,0,0,1.628-1.628V54.881A1.629,1.629,0,0,0,67.949,53.254ZM67.623,56.9H65.8V55.207h1.823Zm0,0" transform="translate(-36.278 -30.205)" fill="#30610c"/>
  <path id="Trazado_216194" data-name="Trazado 216194" d="M81.372,66.038h4.514a.977.977,0,1,0,0-1.953H81.372a.977.977,0,0,0,0,1.953Zm0,0" transform="translate(-45.664 -36.348)" fill="#30610c"/>
  <path id="Trazado_216195" data-name="Trazado 216195" d="M106.138,64.085H97.487a.977.977,0,1,0,0,1.953h8.651a.977.977,0,0,0,0-1.953Zm0,0" transform="translate(-54.804 -36.348)" fill="#30610c"/>
  <path id="Trazado_216196" data-name="Trazado 216196" d="M81.372,58.605h1.923a.977.977,0,1,0,0-1.953H81.372a.977.977,0,0,0,0,1.953Zm0,0" transform="translate(-45.664 -32.132)" fill="#30610c"/>
  <path id="Trazado_216197" data-name="Trazado 216197" d="M110.159,58.605h3.077a.977.977,0,0,0,0-1.953h-3.077a.977.977,0,1,0,0,1.953Zm0,0" transform="translate(-61.992 -32.132)" fill="#30610c"/>
  <path id="Trazado_216198" data-name="Trazado 216198" d="M91.246,58.605H97a.977.977,0,1,0,0-1.953H91.246a.977.977,0,1,0,0,1.953Zm0,0" transform="translate(-51.265 -32.132)" fill="#30610c"/>
  <path id="Trazado_216199" data-name="Trazado 216199" d="M67.949,128.056H65.475a1.629,1.629,0,0,0-1.628,1.628v2.344a1.629,1.629,0,0,0,1.628,1.628h2.474a1.629,1.629,0,0,0,1.628-1.628v-2.344A1.629,1.629,0,0,0,67.949,128.056Zm-.326,3.646H65.8v-1.693h1.823Zm0,0" transform="translate(-36.278 -72.632)" fill="#30610c"/>
  <path id="Trazado_216200" data-name="Trazado 216200" d="M85.886,138.887H81.372a.977.977,0,0,0,0,1.953h4.514a.977.977,0,1,0,0-1.953Zm0,0" transform="translate(-45.664 -78.775)" fill="#30610c"/>
  <path id="Trazado_216201" data-name="Trazado 216201" d="M106.138,138.887H97.487a.977.977,0,1,0,0,1.953h8.651a.977.977,0,0,0,0-1.953Zm0,0" transform="translate(-54.804 -78.775)" fill="#30610c"/>
  <path id="Trazado_216202" data-name="Trazado 216202" d="M81.372,133.407h1.923a.977.977,0,1,0,0-1.953H81.372a.977.977,0,0,0,0,1.953Zm0,0" transform="translate(-45.664 -74.559)" fill="#30610c"/>
  <path id="Trazado_216203" data-name="Trazado 216203" d="M113.236,131.454h-3.077a.977.977,0,1,0,0,1.953h3.077a.977.977,0,0,0,0-1.953Zm0,0" transform="translate(-61.992 -74.559)" fill="#30610c"/>
  <path id="Trazado_216204" data-name="Trazado 216204" d="M91.246,131.454a.977.977,0,1,0,0,1.953H97a.977.977,0,1,0,0-1.953Zm0,0" transform="translate(-51.265 -74.559)" fill="#30610c"/>
</svg>
