<svg id="algoritmo_1_" data-name="algoritmo (1)" xmlns="http://www.w3.org/2000/svg" width="69.911" height="70" viewBox="0 0 69.911 70">
  <g id="Grupo_145971" data-name="Grupo 145971" transform="translate(4.68 4.376)">
    <g id="Grupo_145970" data-name="Grupo 145970">
      <path id="Trazado_216143" data-name="Trazado 216143" d="M12.4,10.426a1,1,0,0,0-.151-.369,1.017,1.017,0,0,0-.127-.156.982.982,0,0,0-.156-.127,1.055,1.055,0,0,0-.369-.153.986.986,0,0,0-.4,0A1.088,1.088,0,0,0,11,9.68a1.04,1.04,0,0,0-.332.221,1.023,1.023,0,0,0,.724,1.748,1.11,1.11,0,0,0,.2-.019,1.04,1.04,0,0,0,.191-.059,1.109,1.109,0,0,0,.177-.094,1.177,1.177,0,0,0,.156-.127,1.08,1.08,0,0,0,.127-.156,1.091,1.091,0,0,0,.094-.177,1.016,1.016,0,0,0,.057-.191.984.984,0,0,0,0-.4Z" transform="translate(-10.369 -9.601)" fill="#30610c"/>
    </g>
  </g>
  <g id="Grupo_145973" data-name="Grupo 145973" transform="translate(8.111 4.376)">
    <g id="Grupo_145972" data-name="Grupo 145972">
      <path id="Trazado_216144" data-name="Trazado 216144" d="M19.923,10.426a1.088,1.088,0,0,0-.059-.192.992.992,0,0,0-.094-.176.935.935,0,0,0-.127-.156,1.044,1.044,0,0,0-.332-.221,1.061,1.061,0,0,0-.193-.059.986.986,0,0,0-.4,0,1.042,1.042,0,0,0-.191.059,1,1,0,0,0-.46.377,1.079,1.079,0,0,0-.094.176,1.072,1.072,0,0,0-.078.392,1.036,1.036,0,0,0,.3.725,1.17,1.17,0,0,0,.156.127,1.1,1.1,0,0,0,.177.094,1.022,1.022,0,0,0,.191.059,1.1,1.1,0,0,0,.2.019,1.018,1.018,0,0,0,.568-.172,1.187,1.187,0,0,0,.156-.127,1.032,1.032,0,0,0,.3-.725A1,1,0,0,0,19.923,10.426Z" transform="translate(-17.896 -9.601)" fill="#30610c"/>
    </g>
  </g>
  <g id="Grupo_145975" data-name="Grupo 145975" transform="translate(11.539 4.377)">
    <g id="Grupo_145974" data-name="Grupo 145974">
      <path id="Trazado_216145" data-name="Trazado 216145" d="M27.447,10.427a.993.993,0,0,0-.151-.369,1.1,1.1,0,0,0-.127-.156.989.989,0,0,0-.156-.127,1.056,1.056,0,0,0-.368-.153,1.037,1.037,0,0,0-.4,0,1.091,1.091,0,0,0-.193.059.952.952,0,0,0-.176.094.935.935,0,0,0-.156.127,1,1,0,0,0-.128.156,1.083,1.083,0,0,0-.093.176,1.041,1.041,0,0,0-.079.392,1,1,0,0,0,.021.2.945.945,0,0,0,.059.191,1.012,1.012,0,0,0,.221.333,1.087,1.087,0,0,0,.156.127,1.046,1.046,0,0,0,.176.094,1,1,0,0,0,.392.078,1.111,1.111,0,0,0,.2-.019,1.032,1.032,0,0,0,.191-.059,1.1,1.1,0,0,0,.177-.094,1.187,1.187,0,0,0,.156-.127,1.109,1.109,0,0,0,.127-.157,1.031,1.031,0,0,0,.094-.176,1.016,1.016,0,0,0,.057-.191,1,1,0,0,0,.02-.2A.985.985,0,0,0,27.447,10.427Z" transform="translate(-25.419 -9.603)" fill="#30610c"/>
    </g>
  </g>
  <g id="Grupo_145977" data-name="Grupo 145977" transform="translate(15.752 4.376)">
    <g id="Grupo_145976" data-name="Grupo 145976">
      <path id="Trazado_216146" data-name="Trazado 216146" d="M52.8,9.6H35.687a1.024,1.024,0,0,0,0,2.048H52.8a1.024,1.024,0,1,0,0-2.048Z" transform="translate(-34.663 -9.602)" fill="#30610c"/>
    </g>
  </g>
  <g id="Grupo_145979" data-name="Grupo 145979" transform="translate(36.891 4.376)">
    <g id="Grupo_145978" data-name="Grupo 145978">
      <path id="Trazado_216147" data-name="Trazado 216147" d="M84.426,9.6H82.072a1.024,1.024,0,1,0,0,2.048h2.353a1.024,1.024,0,1,0,0-2.048Z" transform="translate(-81.048 -9.602)" fill="#30610c"/>
    </g>
  </g>
  <g id="Grupo_145981" data-name="Grupo 145981" transform="translate(45.929 16.997)">
    <g id="Grupo_145980" data-name="Grupo 145980">
      <path id="Trazado_216148" data-name="Trazado 216148" d="M105.575,37.3H101.9a1.024,1.024,0,1,0,0,2.048h3.671a1.024,1.024,0,1,0,0-2.048Z" transform="translate(-100.879 -37.297)" fill="#30610c"/>
    </g>
  </g>
  <g id="Grupo_145983" data-name="Grupo 145983" transform="translate(42.571 16.997)">
    <g id="Grupo_145982" data-name="Grupo 145982">
      <path id="Trazado_216149" data-name="Trazado 216149" d="M95.539,38.121a1.1,1.1,0,0,0-.059-.193.954.954,0,0,0-.094-.176,1,1,0,0,0-.283-.283,1,1,0,0,0-.176-.094,1.077,1.077,0,0,0-.192-.059,1.011,1.011,0,0,0-.4,0,1.031,1.031,0,0,0-.191.059,1.009,1.009,0,0,0-.177.094.994.994,0,0,0-.156.127,1.026,1.026,0,0,0,0,1.448,1.072,1.072,0,0,0,.156.128,1.109,1.109,0,0,0,.177.094,1.016,1.016,0,0,0,.191.057,1,1,0,0,0,.2.021.977.977,0,0,0,.2-.021.993.993,0,0,0,.369-.151,1.031,1.031,0,0,0,.456-.852A.988.988,0,0,0,95.539,38.121Z" transform="translate(-93.512 -37.297)" fill="#30610c"/>
    </g>
  </g>
  <g id="Grupo_145985" data-name="Grupo 145985" transform="translate(0)">
    <g id="Grupo_145984" data-name="Grupo 145984">
      <path id="Trazado_216150" data-name="Trazado 216150" d="M67.491,46.54H62.518c0-8.968.211-9.136-.6-9.5l-5.784-2.607a1.024,1.024,0,1,0-.842,1.867L59,37.97,47.208,43.287,35.413,37.97l11.794-5.316,3.722,1.678a1.024,1.024,0,1,0,.842-1.867l-3.54-1.6V22.984H53.2a2.52,2.52,0,0,0,2.518-2.518V15.576A2.52,2.52,0,0,0,53.2,13.058H48.232v-8.8A4.261,4.261,0,0,0,43.97,0H41.456a1.024,1.024,0,1,0,0,2.048H43.97a2.213,2.213,0,0,1,2.214,2.214v4.49H2.147V4.262A2.213,2.213,0,0,1,4.361,2.048H36.677a1.024,1.024,0,1,0,0-2.048H4.361A4.261,4.261,0,0,0,.1,4.262v44a4.26,4.26,0,0,0,4.262,4.262H8.55a1.024,1.024,0,1,0,0-2.048H4.361a2.213,2.213,0,0,1-2.214-2.214V10.8H46.184v2.258H41.211a2.52,2.52,0,0,0-2.518,2.518v4.891h0a2.518,2.518,0,0,0,2.518,2.517h4.973v7.884c-14.752,6.65-13.82,6.177-14.041,6.438-.431.5-.164.264-.245,9.234H26.924a2.52,2.52,0,0,0-2.518,2.518V50.48H13.33a1.024,1.024,0,1,0,0,2.048H24.407v1.421a2.521,2.521,0,0,0,2.518,2.518H31.9v7.077a2.521,2.521,0,0,0,2.518,2.518h4.278v1.421A2.52,2.52,0,0,0,41.211,70H53.205a2.52,2.52,0,0,0,2.518-2.518V66.061H60a2.52,2.52,0,0,0,2.518-2.518V56.467h4.973a2.52,2.52,0,0,0,2.518-2.518V49.058A2.521,2.521,0,0,0,67.491,46.54Zm-26.281-25.6a.476.476,0,0,1-.469-.469V15.576a.476.476,0,0,1,.469-.469H53.205a.476.476,0,0,1,.469.469v4.891a.476.476,0,0,1-.469.469H41.211Zm-7.265,18.62c7.641,3.424,10.812,4.92,12.237,5.522v3.37a2.034,2.034,0,0,1-2.032,2.032H41.436V49.058a2.52,2.52,0,0,0-2.518-2.518H33.945ZM26.924,54.418a.476.476,0,0,1-.469-.469V49.058a.476.476,0,0,1,.469-.469H38.919a.476.476,0,0,1,.469.469v4.891a.476.476,0,0,1-.469.469H26.924ZM53.205,67.951H41.211a.476.476,0,0,1-.469-.469V62.591a.475.475,0,0,1,.469-.469H53.205a.476.476,0,0,1,.469.469v4.891h0A.476.476,0,0,1,53.205,67.951Zm7.265-4.408a.476.476,0,0,1-.469.469H55.723V62.591a2.52,2.52,0,0,0-2.518-2.518H41.211a2.52,2.52,0,0,0-2.518,2.518v1.421H34.415a.476.476,0,0,1-.469-.469V56.467h4.973a2.52,2.52,0,0,0,2.518-2.518V52.528h2.715a4.085,4.085,0,0,0,4.08-4.08V45.072L60.47,39.555v6.985H55.5a2.52,2.52,0,0,0-2.518,2.518v4.891A2.521,2.521,0,0,0,55.5,56.467H60.47Zm7.491-9.594a.476.476,0,0,1-.469.469H55.5a.476.476,0,0,1-.469-.469V49.058a.476.476,0,0,1,.469-.469H67.491a.476.476,0,0,1,.469.469v4.891Z" transform="translate(-0.099)" fill="#30610c"/>
    </g>
  </g>
  <g id="Grupo_145987" data-name="Grupo 145987" transform="translate(60.215 50.479)">
    <g id="Grupo_145986" data-name="Grupo 145986">
      <path id="Trazado_216151" data-name="Trazado 216151" d="M136.923,110.767h-3.671a1.024,1.024,0,1,0,0,2.048h3.671a1.024,1.024,0,1,0,0-2.048Z" transform="translate(-132.228 -110.767)" fill="#30610c"/>
    </g>
  </g>
  <g id="Grupo_145989" data-name="Grupo 145989" transform="translate(56.857 50.48)">
    <g id="Grupo_145988" data-name="Grupo 145988">
      <path id="Trazado_216152" data-name="Trazado 216152" d="M126.886,111.592a1.068,1.068,0,0,0-.152-.368.957.957,0,0,0-.128-.156,1,1,0,0,0-.156-.128.942.942,0,0,0-.176-.093.972.972,0,0,0-.191-.059,1.034,1.034,0,0,0-.924.28.95.95,0,0,0-.128.156.937.937,0,0,0-.093.176.946.946,0,0,0-.059.192.968.968,0,0,0-.021.2,1.025,1.025,0,0,0,1.024,1.024,1.009,1.009,0,0,0,.2-.02.969.969,0,0,0,.191-.059.942.942,0,0,0,.176-.093,1.03,1.03,0,0,0,.456-.852A.979.979,0,0,0,126.886,111.592Z" transform="translate(-124.859 -110.768)" fill="#30610c"/>
    </g>
  </g>
  <g id="Grupo_145991" data-name="Grupo 145991" transform="translate(45.929 64.012)">
    <g id="Grupo_145990" data-name="Grupo 145990">
      <path id="Trazado_216153" data-name="Trazado 216153" d="M105.575,140.462H101.9a1.024,1.024,0,1,0,0,2.048h3.671a1.024,1.024,0,1,0,0-2.048Z" transform="translate(-100.879 -140.462)" fill="#30610c"/>
    </g>
  </g>
  <g id="Grupo_145993" data-name="Grupo 145993" transform="translate(42.571 64.013)">
    <g id="Grupo_145992" data-name="Grupo 145992">
      <path id="Trazado_216154" data-name="Trazado 216154" d="M95.259,140.762a1,1,0,0,0-.156-.127,1.091,1.091,0,0,0-.176-.094,1.077,1.077,0,0,0-.192-.059,1.011,1.011,0,0,0-.591.059,1.121,1.121,0,0,0-.177.094,1.078,1.078,0,0,0-.156.127,1.027,1.027,0,0,0,0,1.449.982.982,0,0,0,.156.127,1.1,1.1,0,0,0,.177.094,1.03,1.03,0,0,0,.191.059.99.99,0,0,0,.2.021.976.976,0,0,0,.2-.021,1.065,1.065,0,0,0,.192-.059,1.089,1.089,0,0,0,.176-.094.937.937,0,0,0,.156-.127,1.024,1.024,0,0,0,0-1.449Z" transform="translate(-93.511 -140.462)" fill="#30610c"/>
    </g>
  </g>
  <g id="Grupo_145995" data-name="Grupo 145995" transform="translate(31.642 50.479)">
    <g id="Grupo_145994" data-name="Grupo 145994">
      <path id="Trazado_216155" data-name="Trazado 216155" d="M74.226,110.767H70.555a1.024,1.024,0,0,0,0,2.048h3.671a1.024,1.024,0,0,0,0-2.048Z" transform="translate(-69.531 -110.767)" fill="#30610c"/>
    </g>
  </g>
  <g id="Grupo_145997" data-name="Grupo 145997" transform="translate(28.283 50.479)">
    <g id="Grupo_145996" data-name="Grupo 145996">
      <path id="Trazado_216156" data-name="Trazado 216156" d="M64.19,111.591a1.061,1.061,0,0,0-.059-.192,1.03,1.03,0,0,0-.094-.176,1.018,1.018,0,0,0-.127-.156,1.08,1.08,0,0,0-.156-.128,1.088,1.088,0,0,0-.369-.152,1.038,1.038,0,0,0-.769.152,1.071,1.071,0,0,0-.156.128,1,1,0,0,0-.127.156,1.021,1.021,0,0,0-.094.176,1.042,1.042,0,0,0-.059.192.979.979,0,0,0,0,.4,1.051,1.051,0,0,0,.059.192,1.03,1.03,0,0,0,.094.176.955.955,0,0,0,.127.156,1.024,1.024,0,0,0,1.449,0,.955.955,0,0,0,.127-.156,1.02,1.02,0,0,0,.094-.176,1.031,1.031,0,0,0,.059-.192.977.977,0,0,0,.02-.2A1.008,1.008,0,0,0,64.19,111.591Z" transform="translate(-62.161 -110.766)" fill="#30610c"/>
    </g>
  </g>
  <g id="Grupo_145999" data-name="Grupo 145999" transform="translate(5.547 16.246)">
    <g id="Grupo_145998" data-name="Grupo 145998">
      <path id="Trazado_216157" data-name="Trazado 216157" d="M15.084,35.649h-1.79a1.024,1.024,0,1,0,0,2.048h1.79a1.024,1.024,0,0,0,0-2.048Z" transform="translate(-12.269 -35.649)" fill="#30610c"/>
    </g>
  </g>
  <g id="Grupo_146001" data-name="Grupo 146001" transform="translate(5.547 21.162)">
    <g id="Grupo_146000" data-name="Grupo 146000">
      <path id="Trazado_216158" data-name="Trazado 216158" d="M15.084,46.436h-1.79a1.024,1.024,0,1,0,0,2.048h1.79a1.024,1.024,0,0,0,0-2.048Z" transform="translate(-12.269 -46.436)" fill="#30610c"/>
    </g>
  </g>
  <g id="Grupo_146003" data-name="Grupo 146003" transform="translate(5.547 26.078)">
    <g id="Grupo_146002" data-name="Grupo 146002">
      <path id="Trazado_216159" data-name="Trazado 216159" d="M15.084,57.223h-1.79a1.024,1.024,0,1,0,0,2.048h1.79a1.024,1.024,0,0,0,0-2.048Z" transform="translate(-12.269 -57.223)" fill="#30610c"/>
    </g>
  </g>
  <g id="Grupo_146005" data-name="Grupo 146005" transform="translate(32.638 16.178)">
    <g id="Grupo_146004" data-name="Grupo 146004">
      <path id="Trazado_216160" data-name="Trazado 216160" d="M74.043,35.5h-1.3a1.024,1.024,0,1,0,0,2.048h1.3a1.024,1.024,0,1,0,0-2.048Z" transform="translate(-71.717 -35.499)" fill="#30610c"/>
    </g>
  </g>
  <g id="Grupo_146007" data-name="Grupo 146007" transform="translate(20.62 16.246)">
    <g id="Grupo_146006" data-name="Grupo 146006">
      <path id="Trazado_216161" data-name="Trazado 216161" d="M54.947,35.649H46.37a1.024,1.024,0,0,0,0,2.048h8.577a1.024,1.024,0,1,0,0-2.048Z" transform="translate(-45.346 -35.649)" fill="#30610c"/>
    </g>
  </g>
  <g id="Grupo_146009" data-name="Grupo 146009" transform="translate(11.962 16.178)">
    <g id="Grupo_146008" data-name="Grupo 146008">
      <path id="Trazado_216162" data-name="Trazado 216162" d="M32.219,35.5H27.372a1.024,1.024,0,1,0,0,2.048h4.847a1.024,1.024,0,1,0,0-2.048Z" transform="translate(-26.348 -35.5)" fill="#30610c"/>
    </g>
  </g>
  <g id="Grupo_146011" data-name="Grupo 146011" transform="translate(15.775 26.01)">
    <g id="Grupo_146010" data-name="Grupo 146010">
      <path id="Trazado_216163" data-name="Trazado 216163" d="M53.9,57.073H35.738a1.024,1.024,0,1,0,0,2.048H53.9a1.024,1.024,0,1,0,0-2.048Z" transform="translate(-34.714 -57.073)" fill="#30610c"/>
    </g>
  </g>
  <g id="Grupo_146013" data-name="Grupo 146013" transform="translate(26.804 21.094)">
    <g id="Grupo_146012" data-name="Grupo 146012">
      <path id="Trazado_216164" data-name="Trazado 216164" d="M62.332,46.286H59.939a1.024,1.024,0,1,0,0,2.048h2.393a1.024,1.024,0,1,0,0-2.048Z" transform="translate(-58.915 -46.286)" fill="#30610c"/>
    </g>
  </g>
  <g id="Grupo_146015" data-name="Grupo 146015" transform="translate(11.962 21.094)">
    <g id="Grupo_146014" data-name="Grupo 146014">
      <path id="Trazado_216165" data-name="Trazado 216165" d="M38.315,46.287H27.372a1.024,1.024,0,1,0,0,2.048H38.315a1.024,1.024,0,1,0,0-2.048Z" transform="translate(-26.348 -46.287)" fill="#30610c"/>
    </g>
  </g>
  <g id="Grupo_146017" data-name="Grupo 146017" transform="translate(33.045 21.094)">
    <g id="Grupo_146016" data-name="Grupo 146016">
      <path id="Trazado_216166" data-name="Trazado 216166" d="M74.528,46.286h-.895a1.024,1.024,0,0,0,0,2.048h.895a1.024,1.024,0,1,0,0-2.048Z" transform="translate(-72.609 -46.286)" fill="#30610c"/>
    </g>
  </g>
  <g id="Grupo_146019" data-name="Grupo 146019" transform="translate(11.963 26.01)">
    <g id="Grupo_146018" data-name="Grupo 146018">
      <path id="Trazado_216167" data-name="Trazado 216167" d="M28.376,57.9a1.083,1.083,0,0,0-.057-.192,1.035,1.035,0,0,0-.094-.176,1.016,1.016,0,0,0-.128-.156.929.929,0,0,0-.156-.127.951.951,0,0,0-.176-.094,1.066,1.066,0,0,0-.191-.059,1.035,1.035,0,0,0-.925.28,1.009,1.009,0,0,0-.128.156,1.031,1.031,0,0,0-.094.176,1.061,1.061,0,0,0-.057.193.976.976,0,0,0-.02.2,1.01,1.01,0,0,0,.02.2,1.036,1.036,0,0,0,.057.191,1,1,0,0,0,.222.333.949.949,0,0,0,.156.127,1.035,1.035,0,0,0,.176.094,1.065,1.065,0,0,0,.191.059,1.063,1.063,0,0,0,.4,0,1.063,1.063,0,0,0,.191-.059,1.041,1.041,0,0,0,.176-.094,1.009,1.009,0,0,0,.156-.127,1.032,1.032,0,0,0,.3-.725A.977.977,0,0,0,28.376,57.9Z" transform="translate(-26.349 -57.074)" fill="#30610c"/>
    </g>
  </g>
  <g id="Grupo_146021" data-name="Grupo 146021" transform="translate(5.547 40.825)">
    <g id="Grupo_146020" data-name="Grupo 146020">
      <path id="Trazado_216168" data-name="Trazado 216168" d="M15.084,89.583h-1.79a1.024,1.024,0,1,0,0,2.048h1.79a1.024,1.024,0,0,0,0-2.048Z" transform="translate(-12.269 -89.583)" fill="#30610c"/>
    </g>
  </g>
  <g id="Grupo_146023" data-name="Grupo 146023" transform="translate(5.547 35.91)">
    <g id="Grupo_146022" data-name="Grupo 146022">
      <path id="Trazado_216169" data-name="Trazado 216169" d="M15.084,78.8h-1.79a1.024,1.024,0,1,0,0,2.048h1.79a1.024,1.024,0,0,0,0-2.048Z" transform="translate(-12.269 -78.796)" fill="#30610c"/>
    </g>
  </g>
  <g id="Grupo_146025" data-name="Grupo 146025" transform="translate(5.547 30.994)">
    <g id="Grupo_146024" data-name="Grupo 146024">
      <path id="Trazado_216170" data-name="Trazado 216170" d="M15.084,68.009h-1.79a1.024,1.024,0,1,0,0,2.048h1.79a1.024,1.024,0,0,0,0-2.048Z" transform="translate(-12.269 -68.009)" fill="#30610c"/>
    </g>
  </g>
  <g id="Grupo_146027" data-name="Grupo 146027" transform="translate(26.405 40.894)">
    <g id="Grupo_146026" data-name="Grupo 146026">
      <path id="Trazado_216171" data-name="Trazado 216171" d="M60.365,89.733h-1.3a1.024,1.024,0,1,0,0,2.048h1.3a1.024,1.024,0,1,0,0-2.048Z" transform="translate(-58.04 -89.733)" fill="#30610c"/>
    </g>
  </g>
  <g id="Grupo_146029" data-name="Grupo 146029" transform="translate(17.187 40.894)">
    <g id="Grupo_146028" data-name="Grupo 146028">
      <path id="Trazado_216172" data-name="Trazado 216172" d="M44.066,89.733H38.836a1.024,1.024,0,1,0,0,2.048h5.231a1.024,1.024,0,1,0,0-2.048Z" transform="translate(-37.811 -89.733)" fill="#30610c"/>
    </g>
  </g>
  <g id="Grupo_146031" data-name="Grupo 146031" transform="translate(11.963 40.894)">
    <g id="Grupo_146030" data-name="Grupo 146030">
      <path id="Trazado_216173" data-name="Trazado 216173" d="M29.328,89.733H27.372a1.024,1.024,0,1,0,0,2.048h1.956a1.024,1.024,0,1,0,0-2.048Z" transform="translate(-26.348 -89.733)" fill="#30610c"/>
    </g>
  </g>
  <g id="Grupo_146033" data-name="Grupo 146033" transform="translate(15.775 35.978)">
    <g id="Grupo_146032" data-name="Grupo 146032">
      <path id="Trazado_216174" data-name="Trazado 216174" d="M47.67,78.946H35.738a1.024,1.024,0,1,0,0,2.048H47.67a1.024,1.024,0,1,0,0-2.048Z" transform="translate(-34.714 -78.946)" fill="#30610c"/>
    </g>
  </g>
  <g id="Grupo_146035" data-name="Grupo 146035" transform="translate(20.746 31.063)">
    <g id="Grupo_146034" data-name="Grupo 146034">
      <path id="Trazado_216175" data-name="Trazado 216175" d="M56.485,68.16h-9.84a1.024,1.024,0,1,0,0,2.048h9.84a1.024,1.024,0,0,0,0-2.048Z" transform="translate(-45.62 -68.16)" fill="#30610c"/>
    </g>
  </g>
  <g id="Grupo_146037" data-name="Grupo 146037" transform="translate(11.963 31.062)">
    <g id="Grupo_146036" data-name="Grupo 146036">
      <path id="Trazado_216176" data-name="Trazado 216176" d="M32.219,68.159H27.372a1.024,1.024,0,1,0,0,2.048h4.847a1.024,1.024,0,0,0,0-2.048Z" transform="translate(-26.348 -68.159)" fill="#30610c"/>
    </g>
  </g>
  <g id="Grupo_146039" data-name="Grupo 146039" transform="translate(33.938 31.062)">
    <g id="Grupo_146038" data-name="Grupo 146038">
      <path id="Trazado_216177" data-name="Trazado 216177" d="M76.319,68.459a1.081,1.081,0,0,0-.156-.128,1.1,1.1,0,0,0-.176-.094,1.062,1.062,0,0,0-.192-.057.986.986,0,0,0-.4,0,1.032,1.032,0,0,0-.191.057,1.05,1.05,0,0,0-.178.094,1.087,1.087,0,0,0-.156.128,1.024,1.024,0,1,0,1.449,0Z" transform="translate(-74.568 -68.159)" fill="#30610c"/>
    </g>
  </g>
  <g id="Grupo_146041" data-name="Grupo 146041" transform="translate(11.963 35.979)">
    <g id="Grupo_146040" data-name="Grupo 146040">
      <path id="Trazado_216178" data-name="Trazado 216178" d="M28.377,79.771a1.082,1.082,0,0,0-.057-.193,1.045,1.045,0,0,0-.094-.176,1.024,1.024,0,0,0-.128-.156,1.036,1.036,0,0,0-.332-.221,1.067,1.067,0,0,0-.191-.059,1.044,1.044,0,0,0-.4,0,1.074,1.074,0,0,0-.191.059.951.951,0,0,0-.176.094.9.9,0,0,0-.156.127,1.011,1.011,0,0,0-.128.156,1.021,1.021,0,0,0-.094.176,1.061,1.061,0,0,0-.057.193.976.976,0,0,0-.02.2,1.012,1.012,0,0,0,.02.2,1,1,0,0,0,.151.367,1.043,1.043,0,0,0,.284.284,1.021,1.021,0,0,0,.176.094,1.049,1.049,0,0,0,.191.057,1,1,0,0,0,.2.021,1.013,1.013,0,0,0,.2-.021,1.068,1.068,0,0,0,.191-.057,1.04,1.04,0,0,0,.176-.094,1.023,1.023,0,0,0,.156-.128.936.936,0,0,0,.128-.156,1,1,0,0,0,.151-.367,1,1,0,0,0,.021-.2A.987.987,0,0,0,28.377,79.771Z" transform="translate(-26.349 -78.948)" fill="#30610c"/>
    </g>
  </g>
</svg>
