<svg xmlns="http://www.w3.org/2000/svg" width="390.895" height="395.287" viewBox="0 0 390.895 395.287">
  <g id="ILUSTRACIONES-23" transform="translate(-6.417 -6.56)">
    <path id="Trazado_215984" data-name="Trazado 215984" d="M91.235,70.827a7.492,7.492,0,0,1-.226-2.031,19.043,19.043,0,0,0-.271-2.437,28.61,28.61,0,0,0-.677-3.294,30.732,30.732,0,0,0-3.385-8.439A31.275,31.275,0,0,0,78.825,45.6a30.417,30.417,0,0,0-13.042-6.092,31.184,31.184,0,0,0-16.427,1.038,28.793,28.793,0,0,0-7.943,4.062,31.6,31.6,0,0,0-3.61,2.888,33.215,33.215,0,0,0-3.114,3.565,30.913,30.913,0,0,0-.9,36.735,34.12,34.12,0,0,0,2.933,3.7,31.905,31.905,0,0,0,3.475,3.069,29.154,29.154,0,0,0,7.762,4.513,31.358,31.358,0,0,0,29.65-3.61,32.448,32.448,0,0,0,8.3-8.665A29.785,29.785,0,0,0,89.7,78.544a30.962,30.962,0,0,0,.812-3.249,14.489,14.489,0,0,0,.361-2.437,7.176,7.176,0,0,1,.361-1.986,11.463,11.463,0,0,1,0,2.031,13.268,13.268,0,0,1-.226,2.482,21.392,21.392,0,0,1-.632,3.34,30.462,30.462,0,0,1-3.655,8.62A32.358,32.358,0,0,1,47.37,100.567a29.649,29.649,0,0,1-8.213-4.513A40.93,40.93,0,0,1,35.5,92.8a36.642,36.642,0,0,1-3.114-3.881,32.493,32.493,0,0,1,.948-38.811,36.42,36.42,0,0,1,3.294-3.7,40.249,40.249,0,0,1,3.791-3.069,30.733,30.733,0,0,1,8.439-4.2A32.711,32.711,0,0,1,87.715,54.129a31,31,0,0,1,3.2,9.026,20.668,20.668,0,0,1,.5,3.34,12.093,12.093,0,0,1,0,2.482A10.6,10.6,0,0,1,91.235,70.827Z" transform="translate(70.259 108.578)" fill="#ebebeb"/>
    <path id="Trazado_215985" data-name="Trazado 215985" d="M78.389,41.449a8.584,8.584,0,0,1-1.625,1.444l-2.031,1.489-1.309.857-1.58.857A36.419,36.419,0,0,1,53.026,50.61H50.183l-2.708-.451-1.354-.226-1.264-.316-2.437-.677a42.92,42.92,0,0,1-7.988-3.7,17.1,17.1,0,0,1-6.183-5.1,55.843,55.843,0,0,0,6.815,4.016,45.537,45.537,0,0,0,7.852,3.2l2.347.632,1.218.271h1.264l2.617.361h2.708a39.263,39.263,0,0,0,18.052-4.107l1.625-.677,1.354-.767,2.166-1.218C77.621,41.674,78.3,41.358,78.389,41.449Z" transform="translate(76.698 117.964)" fill="#ebebeb"/>
    <path id="Trazado_215986" data-name="Trazado 215986" d="M28,56.053a9.756,9.756,0,0,1,1.625-1.4L31.7,53.164l1.309-.9,1.534-.812A36.1,36.1,0,0,1,53.5,47.027h2.843l2.708.406H60.4l1.264.361c.812.226,1.67.406,2.437.677a40.3,40.3,0,0,1,7.988,3.655,18.052,18.052,0,0,1,6.183,5.1,64.133,64.133,0,0,0-6.814-4.017,50.59,50.59,0,0,0-7.807-3.2l-2.392-.587L60.042,49.1H58.778L56.161,48.7H53.453A38.18,38.18,0,0,0,35.4,52.8l-1.625.677-1.309.767-2.211,1.173C28.9,56.053,28.226,56.369,28,56.053Z" transform="translate(75.819 142.036)" fill="#ebebeb"/>
    <path id="Trazado_215987" data-name="Trazado 215987" d="M90.513,46.616a282.918,282.918,0,0,1-31.951,0A287.2,287.2,0,0,1,26.61,44.991a283.855,283.855,0,0,1,32,0,284.9,284.9,0,0,1,31.906,1.625Z" transform="translate(70.936 133.421)" fill="#ebebeb"/>
    <path id="Trazado_215988" data-name="Trazado 215988" d="M33.714,101.5a288.818,288.818,0,0,1,0-31.951A293.332,293.332,0,0,1,35.384,37.6a284.306,284.306,0,0,1,0,32,300.517,300.517,0,0,1-1.67,31.906Z" transform="translate(94.339 109.041)" fill="#ebebeb"/>
    <path id="Trazado_215989" data-name="Trazado 215989" d="M45.744,101.458a25.543,25.543,0,0,1-7.717-7.627A42.692,42.692,0,0,1,32.3,83.451a37.954,37.954,0,0,1-2.437-14.306,37.141,37.141,0,0,1,3.2-14.171A44.362,44.362,0,0,1,39.29,44.911,27.484,27.484,0,0,1,47.278,37.6a66,66,0,0,0-7,8.078,49.236,49.236,0,0,0-5.731,9.928,37.006,37.006,0,0,0-2.979,13.539A39.082,39.082,0,0,0,33.83,82.684a46.618,46.618,0,0,0,5.19,10.2,104.7,104.7,0,0,0,6.724,8.575Z" transform="translate(82.31 109.041)" fill="#ebebeb"/>
    <path id="Trazado_215990" data-name="Trazado 215990" d="M35.064,37.6a25.543,25.543,0,0,1,7.717,7.627,43.55,43.55,0,0,1,5.686,10.38A38.991,38.991,0,0,1,50.95,69.912,36.1,36.1,0,0,1,47.7,84.083a44.362,44.362,0,0,1-6.228,10.064,27.709,27.709,0,0,1-7.943,7.311,63.856,63.856,0,0,0,6.95-8.078,46.077,46.077,0,0,0,5.777-9.928A37.006,37.006,0,0,0,49.19,69.912a39.262,39.262,0,0,0-2.256-13.539,44.723,44.723,0,0,0-5.19-10.2C38.043,40.488,34.884,37.826,35.064,37.6Z" transform="translate(95.246 109.041)" fill="#ebebeb"/>
    <rect id="Rectángulo_44266" data-name="Rectángulo 44266" width="35.139" height="52.123" transform="matrix(0.19, -0.982, 0.982, 0.19, 14.904, 391.296)" fill="#ebebeb"/>
    <path id="Trazado_215991" data-name="Trazado 215991" d="M61.132,94.148l-.587.361-1.67.993-6.183,3.52L32.114,110.44h0l-.587-.451L16.138,91.937l-4.513-5.551-1.218-1.534q-.5-.542-.406-.542l.451.451,1.309,1.489L16.5,91.711l15.524,18.052.316.361h-.316L52.648,98.8l6.273-3.385,1.715-.857Z" transform="translate(12.541 273.129)" fill="#e0e0e0"/>
    <path id="Trazado_215992" data-name="Trazado 215992" d="M8.47,105.607s4.513-4.062,10.65-9.026S30,87.961,30.087,88.051s-4.513,4.062-10.65,9.026S8.56,105.877,8.47,105.607Z" transform="translate(7.212 286.266)" fill="#e0e0e0"/>
    <path id="Trazado_215993" data-name="Trazado 215993" d="M17.074,88.72s2.979,5.37,6.453,12.14,6.183,12.32,6.047,12.365-3.024-5.19-6.453-12.14S16.8,88.765,17.074,88.72Z" transform="translate(37.374 288.621)" fill="#e0e0e0"/>
    <path id="Trazado_215994" data-name="Trazado 215994" d="M117.151,73.066A15.976,15.976,0,1,0,87.411,81.1h0c.632,1.038,1.4,1.76,2.166,2.843L98.6,96.217a2.888,2.888,0,0,0,4.513,0l9.026-12.095s1.67-2.031,2.3-3.069h0a15.66,15.66,0,0,0,2.708-7.988Zm-15.976,6.95a7.04,7.04,0,1,1,7.04-7.04,7.04,7.04,0,0,1-7.04,7.04Z" transform="translate(276.758 177.237)" fill="#f5f5f5"/>
    <path id="Trazado_215995" data-name="Trazado 215995" d="M144.946,42.068a33.531,33.531,0,0,1-34.614,32.358,36.1,36.1,0,0,1-5.867-.722,33.441,33.441,0,1,1,40.616-31.59Z" transform="translate(252.213 3.664)" fill="#f5f5f5"/>
    <path id="Trazado_215996" data-name="Trazado 215996" d="M131.187,35.766a25.543,25.543,0,1,1-24.505-26.31A25.543,25.543,0,0,1,131.187,35.766Z" transform="translate(258.886 10.101)" fill="#f5f5f5"/>
    <path id="Trazado_215997" data-name="Trazado 215997" d="M131.351,35.812a1.4,1.4,0,0,1,0-.406V33.285a4.51,4.51,0,0,0,0-1.038,17.286,17.286,0,0,0-.451-2.663,22.563,22.563,0,0,0-2.617-6.815A25.363,25.363,0,0,0,98.227,11.036a34.029,34.029,0,0,0-3.339,1.309l-1.58.9a11.551,11.551,0,0,0-1.58.993,29.066,29.066,0,0,0-2.933,2.347,25.678,25.678,0,0,0-2.572,2.843,24.144,24.144,0,0,0-3.836,6.814,27.572,27.572,0,0,0-1.715,7.943,27.527,27.527,0,0,0,1.038,7.988,24.55,24.55,0,0,0,3.475,7.085,30.106,30.106,0,0,0,2.347,3.024,35.557,35.557,0,0,0,2.8,2.482,26.226,26.226,0,0,0,3.024,2.121A35.155,35.155,0,0,0,96.6,58.422a25.408,25.408,0,0,0,30.6-9.883,25,25,0,0,0,3.114-6.544,17.513,17.513,0,0,0,.587-2.617V36.218a1.4,1.4,0,0,1,0-.406v3.61a17.512,17.512,0,0,1-.587,2.617,23.966,23.966,0,0,1-3.024,6.769,25.859,25.859,0,0,1-17.691,11.6A26.13,26.13,0,0,1,96.06,58.873a24.46,24.46,0,0,1-3.294-1.58,22.565,22.565,0,0,1-3.114-2.121A25.23,25.23,0,0,1,86.809,52.6a26.444,26.444,0,0,1-2.437-3.024A24.821,24.821,0,0,1,80.9,42.356a27.438,27.438,0,0,1-1.083-8.168,27.347,27.347,0,0,1,1.625-8.123,24.5,24.5,0,0,1,3.926-6.95,22.88,22.88,0,0,1,2.618-2.888,25.094,25.094,0,0,1,3.024-2.392l1.58-1.038,1.625-.9a31.819,31.819,0,0,1,3.43-1.354,26.265,26.265,0,0,1,13.539-.632,25.047,25.047,0,0,1,10.651,5.19,25.588,25.588,0,0,1,6.273,7.491,25.09,25.09,0,0,1,2.572,6.95,24.158,24.158,0,0,1,.406,2.663,10.459,10.459,0,0,1,0,1.083v2.527Z" transform="translate(257.82 9.649)" fill="#e0e0e0"/>
    <path id="Trazado_215998" data-name="Trazado 215998" d="M96.99,44.15v4.513H92.928V44.15A18.864,18.864,0,0,1,83,40.81l2.256-4.784a16.292,16.292,0,0,0,7.672,2.933V32.326c-4.513-1.128-9.3-2.708-9.026-8.394,0-4.2,3.2-7.762,9.477-8.349V11.07h3.971v4.513a18.052,18.052,0,0,1,8.033,2.527l-2.076,4.874a16.336,16.336,0,0,0-6.047-2.166v6.769c4.513,1.083,9.026,2.663,9.026,8.259C106.332,39.953,103.263,43.473,96.99,44.15ZM93.335,26.5V20.863c-2.121.451-2.979,1.58-2.979,2.888S91.62,25.918,93.335,26.5Zm6.679,9.7c0-1.4-1.128-2.166-2.843-2.8V38.87c1.9-.361,2.8-1.4,2.843-2.663Z" transform="translate(269.03 15.843)" fill="#e0e0e0"/>
    <path id="Trazado_215999" data-name="Trazado 215999" d="M98.641,36a17.6,17.6,0,0,1-24.55,4.513A16.924,16.924,0,0,1,71.7,38.523a17.6,17.6,0,1,1,27.077-2.3Z" transform="translate(211.734 7.254)" fill="#f5f5f5"/>
    <path id="Trazado_216000" data-name="Trazado 216000" d="M92.3,30.755A13.539,13.539,0,1,1,89,12.071,13.539,13.539,0,0,1,92.3,30.755Z" transform="translate(214.92 10.51)" fill="#f5f5f5"/>
    <path id="Trazado_216001" data-name="Trazado 216001" d="M91.892,30.556h0l.451-.722.271-.406v-.542a11.324,11.324,0,0,0,.587-1.264,13.223,13.223,0,0,0,.812-3.791,13.538,13.538,0,0,0-.632-5.009,13.223,13.223,0,0,0-3.159-5.28,13.538,13.538,0,0,0-6.047-3.52,12.186,12.186,0,0,0-1.85-.361H80.609a14.757,14.757,0,0,0-1.986,0,15.3,15.3,0,0,0-1.941.5,12.275,12.275,0,0,0-3.655,1.9,15.749,15.749,0,0,0-2.979,3.024,14.3,14.3,0,0,0-1.85,3.836,11.733,11.733,0,0,0-.542,4.107,14.122,14.122,0,0,0,0,1.986,13.547,13.547,0,0,0,.5,1.941c0,.632.5,1.218.722,1.805a7.163,7.163,0,0,0,.993,1.58,13.539,13.539,0,0,0,11.418,5.731,13.132,13.132,0,0,0,4.919-1.173A11.778,11.778,0,0,0,89.5,32.858a10.293,10.293,0,0,0,.993-.948A3.383,3.383,0,0,0,90.9,31.5l.316-.361.677-.406h0l-.361.5-.316.406-.361.406a5.5,5.5,0,0,1-1.038.993,12.635,12.635,0,0,1-3.249,2.121,13.608,13.608,0,0,1-16.653-4.513c-.361-.542-.677-1.083-.993-1.67a12.768,12.768,0,0,1-.767-1.805,14.208,14.208,0,0,1-.5-1.986,15.428,15.428,0,0,1,0-2.031,12.229,12.229,0,0,1,.542-4.2,13.539,13.539,0,0,1,1.9-3.881,14.171,14.171,0,0,1,3.024-3.114,13.539,13.539,0,0,1,3.746-1.941,14.215,14.215,0,0,1,1.986-.5,15.433,15.433,0,0,1,2.031,0h1.941a11.779,11.779,0,0,1,1.9.361A13.945,13.945,0,0,1,90.9,13.543a13.539,13.539,0,0,1,3.159,5.325,13.177,13.177,0,0,1,.587,5.145,12.049,12.049,0,0,1-.857,3.791,11.32,11.32,0,0,1-.587,1.264l-.271.5v.406l-.361.542Z" transform="translate(215.009 10.302)" fill="#e0e0e0"/>
    <path id="Trazado_216002" data-name="Trazado 216002" d="M73.835,26.325l-1.354,1.941-1.715-1.218,1.309-1.85a9.793,9.793,0,0,1-3.385-4.513l2.392-1.444a8.439,8.439,0,0,0,2.527,3.52l1.941-2.888c-1.58-1.805-3.294-3.881-1.625-6.363a4.513,4.513,0,0,1,6.589-.948l1.309-1.941,1.715,1.218-1.264,1.85a9.658,9.658,0,0,1,2.8,3.475L82.77,18.7A8.529,8.529,0,0,0,80.74,15.99l-2.031,2.933C80.333,20.684,82,22.76,80.333,25.2a4.513,4.513,0,0,1-6.5,1.128ZM77.31,17.3l1.805-2.256a1.883,1.883,0,0,0-2.166.406c-.406.406-.271,1.4.361,2.031Zm0,6.183c.406-.587,0-1.264-.451-2.031l-1.625,2.392c1.128.587,1.805.406,2.211-.181Z" transform="translate(218.76 14.262)" fill="#e0e0e0"/>
    <path id="Trazado_216003" data-name="Trazado 216003" d="M30.881,65.286s-5.822,2.347.9,14.712A160.841,160.841,0,0,0,43.111,98.5s1.218,2.888-1.218,3.385-7.852,0-9.026,2.843,1.309,6,5.957,8.439,14.622,8.214,15.524,8.755,1.805,1.85,0,2.482-13.539,2.166-12.636,7.9,15.524,10.335,17.059,10.966,1.9,1.173,1.805,1.986-4.242.993-7.672,1.58-7.311,1.9-6.408,5.145,9.387,9.838,29.469,11.282h9.387l4.874-8.033c9.432-18.052,8.259-28.522,5.957-31s-5.37,0-7.717,2.708-4.513,6-5.37,5.686-1.083-1.038-.767-2.618,3.791-16.021-.451-19.992-12,5.506-13.539,6.544-1.986-.451-1.986-1.444.451-12.591.812-18.052-.451-8.575-3.926-9.206-5.551,4.242-7.085,6.047-3.52-.767-3.52-.767a162.873,162.873,0,0,0-9.7-19.36c-6.95-12.365-12.32-8.439-12.32-8.439" transform="translate(77.722 204.377)" fill="#ebebeb"/>
    <path id="Trazado_216004" data-name="Trazado 216004" d="M79.295,156.45c-5.1-9.026-13.81-25.227-21.391-39.082s-14.441-26.355-19.5-35.426l-5.957-10.7-1.58-2.933-.451-.767V67.32a.5.5,0,0,1,0,.226l.451.767,1.67,2.888c1.444,2.482,3.475,6.138,6,10.65,5.1,9.026,12,21.527,19.541,35.381S74.376,147.289,79.43,156.36" transform="translate(84.321 213.445)" fill="#e0e0e0"/>
    <path id="Trazado_216005" data-name="Trazado 216005" d="M31.2,73.89h.677l1.76.587c1.444.5,3.475,1.218,5.686,2.076l5.641,2.211,1.76.677a2.255,2.255,0,0,1,.587.271h-.632a8.189,8.189,0,0,1-1.76-.542l-5.6-2.211-5.686-2.166-1.805-.406Z" transform="translate(87.061 236.525)" fill="#e0e0e0"/>
    <path id="Trazado_216006" data-name="Trazado 216006" d="M34.91,89.684s1.264-4.242,3.024-9.432,3.159-9.387,3.249-9.342-1.264,4.242-2.979,9.432S35,89.729,34.91,89.684Z" transform="translate(100.094 226.056)" fill="#e0e0e0"/>
    <path id="Trazado_216007" data-name="Trazado 216007" d="M37.28,91.422l.361-.587L38.679,89.3c.9-1.309,2.166-3.114,3.43-5.145s2.437-3.926,3.2-5.325l.948-1.625.361-.587a1.17,1.17,0,0,1-.271.632,18.046,18.046,0,0,0-.857,1.67,59.708,59.708,0,0,1-3.114,5.37c-1.309,2.076-2.572,3.881-3.52,5.145l-1.128,1.489C37.461,91.287,37.28,91.467,37.28,91.422Z" transform="translate(108.419 246.115)" fill="#e0e0e0"/>
    <path id="Trazado_216008" data-name="Trazado 216008" d="M33.69,79.57h2.347l5.731.406,5.686.5h0l-5.731-.406-5.686-.5H34.322C33.916,79.615,33.69,79.615,33.69,79.57Z" transform="translate(95.808 256.478)" fill="#e0e0e0"/>
    <path id="Trazado_216009" data-name="Trazado 216009" d="M35.23,84.1H38.3l7.311.451,7.311.542,2.211.226H52.921l-7.311-.451-7.356-.587H36.042A4.875,4.875,0,0,1,35.23,84.1Z" transform="translate(101.218 272.392)" fill="#e0e0e0"/>
    <path id="Trazado_216010" data-name="Trazado 216010" d="M39.72,99.285a1.254,1.254,0,0,1,.451-.767l1.264-2.031c1.083-1.67,2.572-4.017,4.152-6.679s2.933-5.054,3.881-6.815l1.173-2.076a3.656,3.656,0,0,1,.451-.767l-.361.812c0,.5-.632,1.218-1.083,2.121-.9,1.805-2.256,4.242-3.836,6.9s-3.069,4.964-4.2,6.634l-1.354,1.941Z" transform="translate(116.991 258.516)" fill="#e0e0e0"/>
    <path id="Trazado_216011" data-name="Trazado 216011" d="M132.622,46.169s-6.815-3.61-13.223,12.5A201.27,201.27,0,0,0,110.915,83.9s-1.76,3.43-4.2,1.534-6-7.582-9.658-6.138-4.513,5.957-3.34,12.275,3.791,20.308,4.016,21.572-.316,3.114-2.166,2.121-12.907-11.237-17.42-5.731,2.121,22.565,2.8,24.415.406,2.753-.451,3.294-4.287-3.2-7.537-5.957-7.491-5.416-9.838-1.986-1.986,16.562,12.546,36.69l7.311,9.026L94.4,172.982c24.279-5.145,33.441-14.667,33.982-18.774s-4.513-5.009-8.665-5.145-9.3.361-9.567-.632,0-1.805,1.85-2.753,18.052-9.026,18.5-16.2-14.486-6.815-16.743-7.266-1.173-2.256,0-3.069,12.185-9.477,17.465-13.268S138.8,98.2,137,94.548s-8.259-1.715-11.282-1.941-2.076-3.926-2.076-3.926a201.325,201.325,0,0,0,10.425-24.46c6.092-16.2-1.625-18.052-1.625-18.052" transform="translate(195.399 137.929)" fill="#ebebeb"/>
    <path id="Trazado_216012" data-name="Trazado 216012" d="M66.32,165.624c4.513-11.914,12.907-32.9,19.992-51s13.539-34.434,18.052-46.3l5.641-14.08c.677-1.67,1.173-2.933,1.489-3.836l.406-.993V49.1a1.4,1.4,0,0,0,0,.316l-.361,1.038L110.1,54.29c-1.218,3.34-3.024,8.168-5.28,14.125C100.3,80.284,93.894,96.666,86.764,114.763s-15.57,39.082-20.128,50.951" transform="translate(210.434 149.439)" fill="#e0e0e0"/>
    <path id="Trazado_216013" data-name="Trazado 216013" d="M70.84,55a2.165,2.165,0,0,1,.361.767,9.325,9.325,0,0,0,.857,2.121c.677,1.76,1.58,4.242,2.527,7l2.347,7.085.767,2.166a3.657,3.657,0,0,1,0,.812,3.925,3.925,0,0,1-.361-.767,9.327,9.327,0,0,0-.857-2.121C75.8,70.3,74.947,67.546,74,65.019l-2.392-7.085-.767-2.121Z" transform="translate(226.313 170.166)" fill="#e0e0e0"/>
    <path id="Trazado_216014" data-name="Trazado 216014" d="M72.65,66.506s5.009-2.166,11.282-4.513S95.3,57.48,95.3,57.48,90.3,59.646,84.068,61.993,72.7,66.6,72.65,66.506Z" transform="translate(232.671 178.878)" fill="#e0e0e0"/>
    <path id="Trazado_216015" data-name="Trazado 216015" d="M70,67.663h3.159a69.238,69.238,0,0,0,7.582-.857c3.069-.406,5.37-1.128,7.311-1.489l2.3-.406h.857a2.8,2.8,0,0,1-.857.271l-2.256.5c-1.9.406-4.513.9-7.491,1.264s-5.686.632-7.627.722h-2.3A2.617,2.617,0,0,1,70,67.663Z" transform="translate(223.362 204.979)" fill="#e0e0e0"/>
    <path id="Trazado_216016" data-name="Trazado 216016" d="M67.43,61.87l.542.587,1.264,1.715c1.083,1.444,2.527,3.475,4.107,5.731S76.366,74.19,77.4,75.68l1.173,1.76.406.677-.542-.587L77.178,76c-1.083-1.444-2.527-3.475-4.107-5.731s-3.024-4.287-4.016-5.777l-1.218-2.031a7.029,7.029,0,0,1-.406-.587Z" transform="translate(214.334 194.299)" fill="#e0e0e0"/>
    <path id="Trazado_216017" data-name="Trazado 216017" d="M64.385,66.9l.632.767,1.625,2.211,5.37,7.266L77.247,84.5l1.534,2.256a4.783,4.783,0,0,1,.542.857l-.632-.767-1.67-2.211L71.7,77.37c-2.076-2.888-3.926-5.461-5.235-7.356l-1.579-2.256A1.861,1.861,0,0,1,64.385,66.9Z" transform="translate(203.614 211.969)" fill="#e0e0e0"/>
    <path id="Trazado_216018" data-name="Trazado 216018" d="M67.64,74.477a4.736,4.736,0,0,1,1.083,0l2.888-.361c2.482-.316,5.867-.767,9.567-1.4s7.13-1.218,9.522-1.67l2.888-.542a4.512,4.512,0,0,1,1.083,0l-1.038.316-2.843.632c-2.437.542-5.822,1.218-9.522,1.805s-7.13,1.038-9.613,1.264l-2.933.271Z" transform="translate(215.071 224.52)" fill="#e0e0e0"/>
    <path id="Trazado_216019" data-name="Trazado 216019" d="M82,74.981a20.8,20.8,0,0,0,32-18.458,14.577,14.577,0,0,0,3.655-3.791,14.4,14.4,0,0,1-4.062,1.173,7.356,7.356,0,0,0,3.249-4.016,15.706,15.706,0,0,1-4.513,1.76,7.356,7.356,0,0,0-12.772,6.769,20.669,20.669,0,0,1-15.073-7.672,7.356,7.356,0,0,0,2.256,9.793,7.492,7.492,0,0,1-3.34-.9A7.4,7.4,0,0,0,89.311,66.9a8.259,8.259,0,0,1-3.34,0,7.356,7.356,0,0,0,6.86,5.054A14.441,14.441,0,0,1,82,74.981Z" transform="translate(265.517 148.695)" fill="#455a64"/>
    <rect id="Rectángulo_44267" data-name="Rectángulo 44267" width="62.955" height="50.364" transform="matrix(0.972, -0.233, 0.233, 0.972, 29.002, 316.026)" fill="#ebebeb"/>
    <path id="Trazado_216020" data-name="Trazado 216020" d="M72.741,71.88H71.567l-3.294.857L55.727,75.761,11.5,86.457h0c3.52,14.577,7.491,31.275,11.734,48.965h0l61.2-14.712h0c-3.475-14.757-6.408-27.077-8.439-35.562l-2.3-9.928-.948-2.437v-.9a7.583,7.583,0,0,0,.226.857l.632,2.618,2.392,9.883c2.076,8.529,5.054,20.8,8.62,35.562h0L23.1,135.6h0c-4.2-17.691-8.214-34.388-11.688-48.965h0L55.727,76.122l12.5-3.2,3.294-.812h.812Z" transform="translate(17.54 229.464)" fill="#263238"/>
    <rect id="Rectángulo_44268" data-name="Rectángulo 44268" width="58.533" height="44.001" transform="matrix(0.972, -0.233, 0.233, 0.972, 31.855, 318.592)" fill="#f67409"/>
    <g id="Grupo_145966" data-name="Grupo 145966" transform="translate(42.128 330.001)" opacity="0.3">
      <path id="Trazado_216021" data-name="Trazado 216021" d="M14.33,109.595,27.824,78.23,44.16,91.949l6.228-10.921L71.283,95.966Z" transform="translate(-14.33 -78.23)"/>
    </g>
    <g id="Grupo_145967" data-name="Grupo 145967" transform="translate(63.046 318.968)" opacity="0.3">
      <path id="Trazado_216022" data-name="Trazado 216022" d="M28.148,79.372a4.641,4.641,0,1,1-9.026,2.166,4.513,4.513,0,0,1,3.43-5.6,4.513,4.513,0,0,1,5.6,3.43Z" transform="translate(-18.965 -75.785)"/>
    </g>
    <path id="Trazado_216023" data-name="Trazado 216023" d="M92.014,73.73h40.616A24.279,24.279,0,0,1,156.91,98.009v21.346a20.534,20.534,0,0,1-20.444,20.534H88.314A20.534,20.534,0,0,1,67.78,119.356V98.009A24.28,24.28,0,0,1,92.014,73.73Z" transform="translate(215.563 235.963)" fill="#fff"/>
    <path id="Trazado_216024" data-name="Trazado 216024" d="M82.347,73.73h60.293a14.486,14.486,0,0,1,14.486,14.486H67.77A14.486,14.486,0,0,1,82.347,73.73Z" transform="translate(215.528 235.962)" fill="#e0e0e0"/>
    <path id="Trazado_216025" data-name="Trazado 216025" d="M74.555,77.583a2.663,2.663,0,1,1-2.663-2.663,2.617,2.617,0,0,1,2.663,2.663Z" transform="translate(220.657 240.143)" fill="#fff"/>
    <path id="Trazado_216026" data-name="Trazado 216026" d="M76.355,77.583a2.663,2.663,0,1,1-2.663-2.663,2.618,2.618,0,0,1,2.663,2.663Z" transform="translate(226.98 240.143)" fill="#fff"/>
    <path id="Trazado_216027" data-name="Trazado 216027" d="M78.145,77.583a2.663,2.663,0,1,1-2.663-2.663,2.663,2.663,0,0,1,2.663,2.663Z" transform="translate(233.268 240.143)" fill="#fff"/>
    <path id="Trazado_216028" data-name="Trazado 216028" d="M153.34,140.14h.812a4.029,4.029,0,0,0,3.069-4.513V78.449a4.34,4.34,0,0,0-3.475-4.152,5.28,5.28,0,0,0-1.489,0H71.882a4.513,4.513,0,0,0-3.024,1.986A4.919,4.919,0,0,0,68.226,78v58.217a4.512,4.512,0,0,0,.316,1.534,3.926,3.926,0,0,0,2.3,2.031,4.512,4.512,0,0,0,1.534,0h-.09a5.281,5.281,0,0,1-1.67,0,4.057,4.057,0,0,1-2.888-3.926V77.772a4.866,4.866,0,0,1,4.062-4.062,14.94,14.94,0,0,1,1.986,0h78.344a6.047,6.047,0,0,1,1.58,0,4.757,4.757,0,0,1,3.746,4.513c0,.993,0,1.941,0,2.933V135.4a4.064,4.064,0,0,1-3.2,4.558,2.753,2.753,0,0,1-.9.181Z" transform="translate(215.387 235.712)" fill="#263238"/>
    <rect id="Rectángulo_44269" data-name="Rectángulo 44269" width="32.267" height="32.267" transform="translate(291.331 333.701)" fill="#e0e0e0"/>
    <rect id="Rectángulo_44270" data-name="Rectángulo 44270" width="33.26" height="2.753" transform="translate(331.722 335.687)" fill="#e0e0e0"/>
    <rect id="Rectángulo_44271" data-name="Rectángulo 44271" width="33.26" height="2.753" transform="translate(331.722 342.005)" fill="#e0e0e0"/>
    <rect id="Rectángulo_44272" data-name="Rectángulo 44272" width="33.26" height="2.753" transform="translate(331.722 348.323)" fill="#e0e0e0"/>
    <rect id="Rectángulo_44273" data-name="Rectángulo 44273" width="33.26" height="2.753" transform="translate(331.722 354.641)" fill="#e0e0e0"/>
    <path id="Trazado_216029" data-name="Trazado 216029" d="M170.8,364.553H57.976a25.227,25.227,0,0,1-24.55-25.814V41.654a25.227,25.227,0,0,1,24.6-25.814H170.844a25.227,25.227,0,0,1,24.55,25.814V338.739A25.227,25.227,0,0,1,170.8,364.553Z" transform="translate(94.854 32.6)" fill="#263238"/>
    <path id="Trazado_216030" data-name="Trazado 216030" d="M164.816,18.215H142.928a5.6,5.6,0,0,0-5.325,5.822v4.152a5.551,5.551,0,0,1-5.28,5.822H89.766a5.6,5.6,0,0,1-5.506-5.822v-4.2a5.6,5.6,0,0,0-5.325-5.822H52.309A17.6,17.6,0,0,0,35.115,36.222v289.91a17.6,17.6,0,0,0,17.149,18.052H164.816a17.691,17.691,0,0,0,17.194-18.052V36.312A17.645,17.645,0,0,0,164.816,18.215Z" transform="translate(100.791 40.785)" fill="#fff"/>
    <path id="Trazado_216031" data-name="Trazado 216031" d="M47,86.261V94.79a.948.948,0,0,1-1.4.812L38.874,91.09a.993.993,0,0,1,0-1.58L45.6,85.268a.9.9,0,0,1,1.4.993Z" transform="translate(112.646 275.872)" fill="#e0e0e0"/>
    <path id="Trazado_216032" data-name="Trazado 216032" d="M61.684,90.847a5.867,5.867,0,1,1-5.867-5.867,5.867,5.867,0,0,1,5.867,5.867Z" transform="translate(152.928 275.483)" fill="#e0e0e0"/>
    <rect id="Rectángulo_44274" data-name="Rectángulo 44274" width="10.831" height="10.831" rx="1.2" transform="translate(256.717 361.23)" fill="#e0e0e0"/>
    <path id="Trazado_216033" data-name="Trazado 216033" d="M86.144,20.08h13.9a24.279,24.279,0,0,1,24.279,24.279v1.4A20.534,20.534,0,0,1,103.79,66.292H82.444A20.534,20.534,0,0,1,62,45.713v-1.4A24.28,24.28,0,0,1,86.144,20.08Z" transform="translate(195.258 47.495)" fill="#fff"/>
    <path id="Trazado_216034" data-name="Trazado 216034" d="M72.019,20.08h42.151a10.109,10.109,0,0,1,10.109,10.109H62A10.109,10.109,0,0,1,72.109,20.08Z" transform="translate(195.258 47.495)" fill="#e0e0e0"/>
    <path id="Trazado_216035" data-name="Trazado 216035" d="M66.691,22.761a1.85,1.85,0,1,1-1.85-1.85,1.805,1.805,0,0,1,1.85,1.85Z" transform="translate(198.736 50.41)" fill="#fff"/>
    <path id="Trazado_216036" data-name="Trazado 216036" d="M68.175,22.778a1.805,1.805,0,0,1-1.85,1.805,1.828,1.828,0,1,1,1.85-1.805Z" transform="translate(202.938 50.393)" fill="#fff"/>
    <circle id="Elipse_7085" data-name="Elipse 7085" cx="1.85" cy="1.85" r="1.85" transform="translate(273.099 71.32)" fill="#fff"/>
    <path id="Trazado_216037" data-name="Trazado 216037" d="M120.5,66.414h.542a3.745,3.745,0,0,0,1.489-.542,3.881,3.881,0,0,0,1.579-1.941,9.478,9.478,0,0,0,0-3.475V24.489a4.875,4.875,0,0,0-.587-1.9,4.513,4.513,0,0,0-3.294-2.121H67.337a6.679,6.679,0,0,0-1.354,0,4.513,4.513,0,0,0-3.565,3.249,9.975,9.975,0,0,0,0,2.617V61.45a7.084,7.084,0,0,0,0,2.211,3.7,3.7,0,0,0,3.2,2.482h-.045a4.062,4.062,0,0,1-3.52-2.753,7.041,7.041,0,0,1,0-2.347V25.03a4.964,4.964,0,0,1,0-1.4,4.919,4.919,0,0,1,3.971-3.565,7.265,7.265,0,0,1,1.4,0H120.5a4.784,4.784,0,0,1,4.2,4.513V62.4a4.512,4.512,0,0,1-.271,1.625,3.836,3.836,0,0,1-1.67,1.941,3.475,3.475,0,0,1-1.534.542,1.625,1.625,0,0,1-.722-.09Z" transform="translate(195.112 47.328)" fill="#263238"/>
    <path id="Trazado_216038" data-name="Trazado 216038" d="M90.308,30.5a7.718,7.718,0,0,0-1.9-4.062,7.175,7.175,0,0,0-3.746-2.347,5.777,5.777,0,0,0-4.513.857,5.958,5.958,0,0,0-1.9,2.076,6.724,6.724,0,0,0-1.715-1.85,6.047,6.047,0,0,0-4.513-.948,7.356,7.356,0,0,0-3.791,2.3A7.447,7.447,0,0,0,66.3,30.633a9.025,9.025,0,0,0,1.083,5.6A13.539,13.539,0,0,0,71.9,40.471c2.888,1.76,6.724,3.971,6.724,3.971s3.249-2.392,6.183-4.152a13.132,13.132,0,0,0,4.513-4.152,9.026,9.026,0,0,0,.993-5.641Z" transform="translate(210.094 61.085)" fill="#f67409"/>
    <path id="Trazado_216039" data-name="Trazado 216039" d="M35.514,13.15H56.951A24.279,24.279,0,0,1,81.23,37.429v6.95A20.534,20.534,0,0,1,60.7,64.913H31.814A20.534,20.534,0,0,1,11.28,44.379V37.43A24.279,24.279,0,0,1,35.514,13.15Z" transform="translate(17.083 23.15)" fill="#fff"/>
    <path id="Trazado_216040" data-name="Trazado 216040" d="M22.607,13.15h47.25A11.327,11.327,0,0,1,81.185,24.477H11.28A11.327,11.327,0,0,1,22.607,13.15Z" transform="translate(17.083 23.15)" fill="#e0e0e0"/>
    <circle id="Elipse_7086" data-name="Elipse 7086" cx="2.076" cy="2.076" r="2.076" transform="translate(33.508 40.497)" fill="#fff"/>
    <circle id="Elipse_7087" data-name="Elipse 7087" cx="2.076" cy="2.076" r="2.076" transform="translate(39.871 40.497)" fill="#fff"/>
    <circle id="Elipse_7088" data-name="Elipse 7088" cx="2.076" cy="2.076" r="2.076" transform="translate(46.189 40.497)" fill="#fff"/>
    <path id="Trazado_216041" data-name="Trazado 216041" d="M77.364,65.044h.451a4.739,4.739,0,0,0,1.625-.677,3.971,3.971,0,0,0,1.534-2.347,11.827,11.827,0,0,0,0-1.85V17.613a4.432,4.432,0,0,0-4.6-4.107H16.8a8.259,8.259,0,0,0-1.489,0,4.513,4.513,0,0,0-3.7,3.836V59.854a6.454,6.454,0,0,0,0,2.482,3.791,3.791,0,0,0,3.836,2.437h.271a4.152,4.152,0,0,1-2.527-.632,4.2,4.2,0,0,1-1.67-2.076,3.249,3.249,0,0,1-.271-1.309V17.388a4.829,4.829,0,0,1,4.107-4.242,9.025,9.025,0,0,1,1.534,0H76.507a4.829,4.829,0,0,1,4.2,2.211,4.513,4.513,0,0,1,.767,2.256V60.17a8.619,8.619,0,0,1,0,1.9,3.926,3.926,0,0,1-1.625,2.347,3.881,3.881,0,0,1-1.67.677Z" transform="translate(16.978 23.019)" fill="#263238"/>
    <path id="Trazado_216042" data-name="Trazado 216042" d="M46.423,46.827l-1.941-3.069A10.786,10.786,0,0,1,42.5,37.485v-6.86a11.282,11.282,0,0,0-9.748-11.1V16.274A1.534,1.534,0,0,0,31.26,14.74h0a1.534,1.534,0,0,0-1.534,1.534v3.2A11.282,11.282,0,0,0,19.8,30.625v7.085A11.1,11.1,0,0,1,17.45,44.48L15.6,46.827Z" transform="translate(32.259 28.736)" fill="#f67409"/>
    <path id="Trazado_216043" data-name="Trazado 216043" d="M20.813,25.178a4.739,4.739,0,0,0,5.009-.857,4.513,4.513,0,0,0,1.264-1.941H18.06A4.513,4.513,0,0,0,20.813,25.178Z" transform="translate(40.901 55.574)" fill="#f67409"/>
    <path id="Trazado_216044" data-name="Trazado 216044" d="M114.221,86.056l-31.59-7.762a4.062,4.062,0,0,1-2.979-4.919L90.348,29.6a4.062,4.062,0,0,1,4.964-2.979l20.037,4.874,11.418,19.857L119,82.942A4.107,4.107,0,0,1,114.221,86.056Z" transform="translate(256.853 70.017)" fill="#f67409"/>
    <g id="Grupo_145968" data-name="Grupo 145968" transform="translate(369.041 101.512)" opacity="0.3">
      <path id="Trazado_216045" data-name="Trazado 216045" d="M89.886,27.6,86.862,39.92a3.791,3.791,0,0,0,2.8,4.513l11.688,3.024Z" transform="translate(-86.769 -27.6)"/>
    </g>
    <path id="Trazado_216046" data-name="Trazado 216046" d="M97.577,32.855a49.191,49.191,0,0,1-7.356-1.489A51.943,51.943,0,0,1,83,29.29a44.046,44.046,0,0,1,7.4,1.489,45.81,45.81,0,0,1,7.176,2.076Z" transform="translate(269.03 79.849)" fill="#fafafa"/>
    <path id="Trazado_216047" data-name="Trazado 216047" d="M106.759,36.75s-5.461-1.038-12.14-2.663-12-3.114-11.959-3.249S88.121,31.876,94.8,33.5A118.824,118.824,0,0,1,106.759,36.75Z" transform="translate(267.835 85.25)" fill="#fafafa"/>
    <path id="Trazado_216048" data-name="Trazado 216048" d="M108.52,38.536s-5.912-1.128-13.178-2.933S82.255,32.263,82.3,32.128s5.912,1.128,13.178,2.933S108.565,38.4,108.52,38.536Z" transform="translate(266.57 89.782)" fill="#fafafa"/>
    <path id="Trazado_216049" data-name="Trazado 216049" d="M108.265,39.783s-5.957-1.173-13.223-2.933A132.627,132.627,0,0,1,82,33.33s5.957,1.173,13.178,2.933S108.265,39.6,108.265,39.783Z" transform="translate(265.517 94.041)" fill="#fafafa"/>
    <path id="Trazado_216050" data-name="Trazado 216050" d="M107.965,41s-5.957-1.128-13.223-2.888-13.087-3.34-13.042-3.52,5.957,1.173,13.178,2.933S108.011,40.73,107.965,41Z" transform="translate(264.463 98.419)" fill="#fafafa"/>
    <path id="Trazado_216051" data-name="Trazado 216051" d="M107.665,42.186s-5.957-1.173-13.178-2.933S81.355,35.913,81.4,35.778s5.957,1.128,13.223,2.888S107.711,42.051,107.665,42.186Z" transform="translate(263.409 102.605)" fill="#fafafa"/>
    <path id="Trazado_216052" data-name="Trazado 216052" d="M109.311,68.634,78.758,62H9.44l42.873,7.4h56.773C109.9,69.311,110.033,68.724,109.311,68.634Z" transform="translate(10.62 194.756)" fill="#e0e0e0"/>
    <path id="Trazado_216053" data-name="Trazado 216053" d="M6.566,55.768,20.1,99.182H89.378l-13.539-45.4a3.34,3.34,0,0,0-3.2-2.392H9.77a3.385,3.385,0,0,0-3.2,4.378Z" transform="translate(0 157.484)" fill="#e0e0e0"/>
    <path id="Trazado_216054" data-name="Trazado 216054" d="M9.22,62h0Z" transform="translate(9.847 194.756)" fill="#263238"/>
    <path id="Trazado_216055" data-name="Trazado 216055" d="M22.4,59.551a3.926,3.926,0,1,1-3.926-3.881A3.881,3.881,0,0,1,22.4,59.551Z" transform="translate(28.571 172.519)" fill="#fff"/>
    <path id="Trazado_216056" data-name="Trazado 216056" d="M53.018,54.831s-5.957,5.28-13.042,11.959-13.268,11.688-13.539,11.6,5.731-5.416,13.042-11.914S52.928,54.741,53.018,54.831Z" transform="translate(70.297 169.568)" fill="#263238"/>
    <path id="Trazado_216057" data-name="Trazado 216057" d="M32.223,54.4S30.96,58.326,29.2,63.02a84.433,84.433,0,0,1-3.43,8.529s1.218-3.926,3.024-8.665a80.827,80.827,0,0,1,3.43-8.484Z" transform="translate(67.986 168.058)" fill="#263238"/>
    <path id="Trazado_216058" data-name="Trazado 216058" d="M47.738,60.518s-4.513.9-10.019,1.76S27.61,63.722,27.61,63.586s4.513-.9,10.019-1.76S47.692,60.427,47.738,60.518Z" transform="translate(74.449 189.514)" fill="#263238"/>
    <path id="Trazado_216059" data-name="Trazado 216059" d="M64.685,105.73H64.1l-1.67-.361-6.228-1.4L34.9,98.78h0l-2.708-9.026C29.078,79.1,26.234,69.491,24.2,62.677c-.993-3.475-1.805-6.318-2.392-8.3l-.632-2.256V51.53h0v.587l.722,2.211,2.482,8.259c2.121,7,4.964,16.608,8.123,27.077l2.708,9.026h0l21.256,4.919,6.228,1.534,1.625.406Z" transform="translate(51.861 157.976)" fill="#263238"/>
    <path id="Trazado_216060" data-name="Trazado 216060" d="M103.265,113.579h0A22.565,22.565,0,0,1,80.7,91.015h0A22.565,22.565,0,0,1,103.265,68.45h0a22.565,22.565,0,0,1,22.565,22.565h0A22.565,22.565,0,0,1,103.265,113.579Z" transform="translate(260.95 217.414)" fill="#f67409"/>
    <path id="Trazado_216061" data-name="Trazado 216061" d="M87.153,97.276h5.461V83.738H96.45l.406-4.513H92.614V76.607c0-1.083,0-1.534,1.264-1.534h2.979V70.56H93.065c-4.107,0-5.912,1.76-5.912,5.235V79.45H84.31v4.513h2.843Z" transform="translate(273.632 224.827)" fill="#fff"/>
    <path id="Trazado_216062" data-name="Trazado 216062" d="M63.492,56.924h0A25.137,25.137,0,0,1,38.31,31.742h0A25.182,25.182,0,0,1,63.492,6.56h0A25.182,25.182,0,0,1,88.674,31.742h0A25.182,25.182,0,0,1,63.492,56.924Z" transform="translate(112.037 0)" fill="#455a64"/>
    <path id="Trazado_216063" data-name="Trazado 216063" d="M54.6,11.316h5.551a8.665,8.665,0,0,1,2.572.5,4.513,4.513,0,0,1,2.617,2.617,8.664,8.664,0,0,1,.5,2.572V28.149a8.665,8.665,0,0,1-.5,2.572,4.017,4.017,0,0,1-1.038,1.58,4.2,4.2,0,0,1-1.579,1.038,7.672,7.672,0,0,1-2.572.451H49.008a7.672,7.672,0,0,1-2.572-.451,4.513,4.513,0,0,1-2.617-2.3,7.672,7.672,0,0,1-.451-2.572V17.318a7.672,7.672,0,0,1,.451-2.572,4.2,4.2,0,0,1,1.038-1.58,4.016,4.016,0,0,1,1.58-1.038,8.665,8.665,0,0,1,2.572-.5h5.6m0-2.482H48.873a11.869,11.869,0,0,0-3.34.632A7,7,0,0,0,43.1,11.406a6.859,6.859,0,0,0-1.58,2.437,10.063,10.063,0,0,0-.677,3.34V28.556a10.38,10.38,0,0,0,.677,3.385,6.95,6.95,0,0,0,4.016,4.016,9.342,9.342,0,0,0,3.34.632H60.291a9.026,9.026,0,0,0,3.34-.632,6.86,6.86,0,0,0,2.437-1.58,7,7,0,0,0,1.625-2.437,11.913,11.913,0,0,0,.632-3.385V17.183a11.552,11.552,0,0,0-.632-3.34A7.446,7.446,0,0,0,63.63,9.782a11.553,11.553,0,0,0-3.34-.632H54.6" transform="translate(120.925 9.098)" fill="#fff"/>
    <path id="Trazado_216064" data-name="Trazado 216064" d="M49.405,10.57a7.085,7.085,0,1,0,7.085,7.085,7.085,7.085,0,0,0-7.085-7.085m0,11.688a4.513,4.513,0,1,1,4.513-4.513,4.513,4.513,0,0,1-4.513,4.513" transform="translate(126.124 14.087)" fill="#fff"/>
    <path id="Trazado_216065" data-name="Trazado 216065" d="M48.49,11.81a1.67,1.67,0,1,1-1.67-1.67,1.715,1.715,0,0,1,1.67,1.67" transform="translate(136.066 12.576)" fill="#fff"/>
    <path id="Trazado_216066" data-name="Trazado 216066" d="M35.015,78.129h0A22.565,22.565,0,0,1,12.45,55.565h0A22.565,22.565,0,0,1,35.015,33h0A22.565,22.565,0,0,1,57.579,55.565h0A22.565,22.565,0,0,1,35.015,78.129Z" transform="translate(21.193 92.882)" fill="#455a64"/>
    <path id="Trazado_216067" data-name="Trazado 216067" d="M39.371,46.774a12.14,12.14,0,0,0-24.234,0s0,.316,0,.5A12.1,12.1,0,0,0,16.9,53.5L14.73,59.952l6.679-2.121a12.32,12.32,0,0,0,5.867,1.489A12.05,12.05,0,0,0,39.371,47.225ZM27.231,57.2a9.973,9.973,0,0,1-5.6-1.715l-3.926,1.264L18.972,53a10.109,10.109,0,0,1-1.941-5.777q0-.474,0-.948a10.2,10.2,0,0,1,20.308,0,4.515,4.515,0,0,1,0,.767A10.2,10.2,0,0,1,27.231,57.2Z" transform="translate(29.203 101.221)" fill="#fff" fill-rule="evenodd"/>
    <path id="Trazado_216068" data-name="Trazado 216068" d="M27.678,44.687l-2.031-.948h-.677c-.226,0-.767.948-.9,1.173s-.361.226-.677,0A8.123,8.123,0,0,1,21,43.468a8.439,8.439,0,0,1-1.625-2.031c0-.316,0-.451,0-.632l.451-.5h0v-.361a.632.632,0,0,0,0-.5l-.948-2.211c-.226-.587-.5-.5-.677-.5h-.135a.993.993,0,0,0-.812.361,3.2,3.2,0,0,0-1.038,2.437,4.107,4.107,0,0,0,0,1.038A7.221,7.221,0,0,0,17.3,42.611a12.546,12.546,0,0,0,5.1,4.513c3.024,1.173,3.024.767,3.565.722a2.933,2.933,0,0,0,1.986-1.4,2.121,2.121,0,0,0,0-1.4A1.309,1.309,0,0,0,27.678,44.687Z" transform="translate(34.306 106.016)" fill="#fff" fill-rule="evenodd"/>
    <path id="Trazado_216069" data-name="Trazado 216069" d="M35.44,69.349l4.2-22.294L51.6,45.34l-.9,24.009Z" transform="translate(101.955 136.231)" fill="#cc675d"/>
    <path id="Trazado_216070" data-name="Trazado 216070" d="M51.6,76.384a29.424,29.424,0,0,0,8.71-8.214C62.878,63.658,69.332,61,68.7,59.777a4.2,4.2,0,0,0-5.145-.857c-1.715,1.038-5.641,5.686-7.356,3.475s-1.941-13.087-2.3-16.517-1.58-6.408-2.8-5.6-1.67,1.354-1.309,5.37.406,10.7-.587,9.522-1.4-16.969-2.753-17.284a2.572,2.572,0,0,0-3.069,2.753V55.49a56.5,56.5,0,0,0-2.166-11.418c-.812-2.121-2.933.5-2.617,2.347a64.083,64.083,0,0,1,1.534,13.539A52.485,52.485,0,0,0,37.38,49.848c-.857-.5-2.3,1.85-1.9,3.926.632,3.249,1.715,9.613,2.076,13.539a17.059,17.059,0,0,0,3.43,9.748A61.963,61.963,0,0,0,51.6,76.384Z" transform="translate(101.865 109.88)" fill="#cc675d"/>
    <path id="Trazado_216071" data-name="Trazado 216071" d="M37.53,49.748v-.587a7.627,7.627,0,0,1,.948-1.4A7.717,7.717,0,0,1,43.4,45.326H46.42a5.371,5.371,0,0,0,2.211-.767,18.051,18.051,0,0,1,1.9-1.218l-.406.451a10.109,10.109,0,0,1-1.309,1.038,5.01,5.01,0,0,1-2.347.9H43.442A7.943,7.943,0,0,0,38.7,47.943,15.66,15.66,0,0,0,37.53,49.748Z" transform="translate(109.297 129.205)" fill="#9c4741"/>
    <g id="Grupo_145969" data-name="Grupo 145969" transform="translate(142.701 115.733)" opacity="0.3">
      <path id="Trazado_216072" data-name="Trazado 216072" d="M183.666,201.108c-2.527-2.8-7.04-1.76-10.831-1.4-11.553,1.038-22.339-7.266-27.754-17.51a88.994,88.994,0,0,1-7.807-33.666,14.847,14.847,0,0,1,2.572-12.365,16.7,16.7,0,0,1,10.109-2.979,62.73,62.73,0,0,0,22.565-6.86,23.6,23.6,0,0,0,9.026-7.311,10.47,10.47,0,0,0,.677-11.012,15.976,15.976,0,0,0-11.012-5.6,343.24,343.24,0,0,0-50.319-5.957,139.5,139.5,0,0,0,0-30.372A46.032,46.032,0,0,0,108.21,39,28.025,28.025,0,0,0,80.5,31.874,22.835,22.835,0,0,0,79.328,74.43C85.375,77,93.272,77.589,96.3,83.456a12.05,12.05,0,0,1-1.76,12.411,39.759,39.759,0,0,1-10.019,8.575,221.811,221.811,0,0,0-38,33.486l-9.748,14.8c-1.128,4.513,4.107,9.026,9.026,8.62a23.738,23.738,0,0,0,12.681-6.228,22.564,22.564,0,0,1,12.591-5.912,15.57,15.57,0,0,1,13.9,11.327,44.362,44.362,0,0,1,.722,19.045c-1.219,11.012-3.656,23.6-13.539,29.018a75.182,75.182,0,0,1-16.878,4.513c-5.6,1.534-11.463,5.551-11.734,11.418A14.577,14.577,0,0,0,52.2,236.58c4.513,2.572,23.557,3.2,27.078,6.9s1.264,8.529,1.038,16.969a18.458,18.458,0,0,0,5.1,14.125c3.791,3.43,5.145,4.513,9.928,2.708,7.627-3.024,9.026-12.907,13.087-20.082a18.638,18.638,0,0,1,11.057-9.387,11.6,11.6,0,0,1,13.223,5.19c1.805,3.385,1.9,8.259,5.415,9.793s8.033-2.979,8.3-7.311-1.489-8.575-1.173-12.907c.722-9.026,9.974-14.532,18.322-18.052s18.052-7.356,20.85-15.885A7.491,7.491,0,0,0,183.666,201.108Z" transform="translate(-36.616 -30.751)"/>
    </g>
    <path id="Trazado_216073" data-name="Trazado 216073" d="M64.81,98.452,77.988,92.54,68.2,71.51l-14.035,7.4Z" transform="translate(167.717 228.164)" fill="#ffbf9d"/>
    <path id="Trazado_216074" data-name="Trazado 216074" d="M78.393,73.12,58.175,84.493l-8.168,1.128c-3.114.451-2.166,2.888-1.76,6l5.28,37.909s4.062,1.264,4.874-1.715,9.522-25.769,9.522-25.769l19.315-9.3Z" transform="translate(145.334 233.82)" fill="#e0e0e0"/>
    <path id="Trazado_216075" data-name="Trazado 216075" d="M78.313,73.12v.316l.451.993,1.76,3.836,6.589,14.4h0L67.843,102h0c-1.76,4.513-3.655,9.612-5.6,14.848-.993,2.617-1.986,5.28-2.933,8.033-.271.677-.5,1.354-.722,2.031L58.231,128a1.671,1.671,0,0,1,0,.5v.271h0a3.475,3.475,0,0,1-2.121.9,7.853,7.853,0,0,1-2.3-.271h0v-.5c-1.444-10.335-2.8-20.128-4.062-29.108-.271-2.211-.587-4.513-.857-6.544a18.623,18.623,0,0,0-.5-3.114,10.245,10.245,0,0,1,0-3.114,1.85,1.85,0,0,1,.271-.9,3.43,3.43,0,0,1,1.444-.5l2.843-.406,5.325-.722h0l14.847-8.259,4.016-2.256,1.038-.542h0l-1.038.587-4.016,2.3L58.411,84.718h0l-5.325.767-2.843.406a3.024,3.024,0,0,0-1.58.226,1.534,1.534,0,0,0-.722,1.128,8.574,8.574,0,0,0,0,2.979,24.654,24.654,0,0,0,.451,3.114l.9,6.544c1.264,9.026,2.618,18.774,4.062,29.063v.406h0a5.956,5.956,0,0,0,2.166.271,2.843,2.843,0,0,0,1.9-.767,5.145,5.145,0,0,0,.812-1.9c.271-.722.5-1.4.722-2.076.993-2.753,1.986-5.415,2.979-8.033L67.573,102h0l19.315-9.026h0l-6.363-14.4-1.76-3.926-.451-.993Z" transform="translate(145.414 233.82)" fill="#263238"/>
    <path id="Trazado_216076" data-name="Trazado 216076" d="M59.179,72.738l-4.874,3.114a1.76,1.76,0,0,0-.587,2.256l9.026,18.052a1.715,1.715,0,0,0,2.166.857l5.235-2.031a1.76,1.76,0,0,0,.948-2.392l-9.477-19a1.76,1.76,0,0,0-2.437-.858Z" transform="translate(165.496 231.764)" fill="#e0e0e0"/>
    <path id="Trazado_216077" data-name="Trazado 216077" d="M63.066,92.609a18.052,18.052,0,0,1-1.715-2.572c-.993-1.67-2.347-3.971-3.7-6.544a72.652,72.652,0,0,1-3.114-6.86l-.767-2.121a1.838,1.838,0,0,0-.226-.812,16.473,16.473,0,0,1,1.309,2.8c.812,1.76,1.9,4.152,3.249,6.769s2.618,4.919,3.52,6.589a20.483,20.483,0,0,1,1.444,2.753Z" transform="translate(165.535 235.857)" fill="#263238"/>
    <path id="Trazado_216078" data-name="Trazado 216078" d="M53.91,77.083a7.04,7.04,0,0,1,3.52-2.843,6.949,6.949,0,0,1,4.513-.677,19.583,19.583,0,0,0-4.287,1.083,18.635,18.635,0,0,0-3.746,2.437Z" transform="translate(166.839 234.956)" fill="#263238"/>
    <path id="Trazado_216079" data-name="Trazado 216079" d="M54.46,79.313a20.939,20.939,0,0,1,4.107-2.572A21.437,21.437,0,0,1,63.08,74.8a38.315,38.315,0,0,1-4.242,2.347,27.077,27.077,0,0,1-4.378,2.166Z" transform="translate(168.771 239.721)" fill="#263238"/>
    <path id="Trazado_216080" data-name="Trazado 216080" d="M55.43,81.516a14.578,14.578,0,0,0,4.152-1.986,16.833,16.833,0,0,0,2.933-3.43,2.888,2.888,0,0,1-.542,1.264,8.439,8.439,0,0,1-2.211,2.527,9.252,9.252,0,0,1-3.024,1.489C55.972,81.606,55.43,81.606,55.43,81.516Z" transform="translate(172.179 244.288)" fill="#263238"/>
    <path id="Trazado_216081" data-name="Trazado 216081" d="M48,85.3a12.273,12.273,0,0,1,1.76-.767A11.643,11.643,0,0,0,53.416,81.6,10.47,10.47,0,0,0,55.4,77.54a14.526,14.526,0,0,1,.406-1.85,4.513,4.513,0,0,1,0,1.941,9.026,9.026,0,0,1-1.941,4.242,10.019,10.019,0,0,1-3.746,2.843A4.513,4.513,0,0,1,48,85.3Z" transform="translate(146.078 242.848)" fill="#263238"/>
    <path id="Trazado_216082" data-name="Trazado 216082" d="M48.72,83.753a3.334,3.334,0,0,1,1.309-.542,6.408,6.408,0,0,1,3.52,0,9.7,9.7,0,0,1,2.933,1.9c.632.632.948,1.083.9,1.128a6.272,6.272,0,0,1-1.128-.857,10.606,10.606,0,0,0-2.888-1.715,6.543,6.543,0,0,0-3.249-.316A12.642,12.642,0,0,1,48.72,83.753Z" transform="translate(148.607 268.406)" fill="#263238"/>
    <path id="Trazado_216083" data-name="Trazado 216083" d="M77.835,82.233A139.04,139.04,0,0,0,51.7,81.06c-6.273,1.264-18.052,8.755-17.059,20.082a22.565,22.565,0,0,0,17.826,20.895c9.026,1.444,60.473,6.634,80.33,6.363,16.788,0,25.949-4.513,24.009-7.13,0,0,17.691-6.724,19.541-7.491s27.439-13.539,30.191-18.052,9.026-20.8-2.166-28.838-30.688-2.618-34.118,0a105.249,105.249,0,0,0-10.786,6.318l-5.686-3.881c-.406.316-47.025,3.565-65.482,4.513C85.1,73.885,77.835,82.233,77.835,82.233Z" transform="translate(98.959 197.087)" fill="#263238"/>
    <path id="Trazado_216084" data-name="Trazado 216084" d="M56.885,80.7c-.542-2.211-.767-3.024,0-4.513A12.725,12.725,0,0,1,59.5,72.444,3.881,3.881,0,0,1,61.849,71c1.309,0,2.211,1.218,2.933,2.3,2.527,4.062,5.19,7.988,8.033,11.824A20.128,20.128,0,0,0,78.592,90.9c.857.5,1.941,1.128,1.9,2.121S79.72,94.377,79,94.738a27.884,27.884,0,0,1-4.062,1.941,8.123,8.123,0,0,1-4.242.677,8.3,8.3,0,0,1-3.475-1.941,31.139,31.139,0,0,1-10.47-15.389" transform="translate(175.553 226.372)" fill="#263238"/>
    <path id="Trazado_216085" data-name="Trazado 216085" d="M56.646,79.86h0l.226.542a7.879,7.879,0,0,0,.767,2.031,31.185,31.185,0,0,0,4.2,6.9A34.391,34.391,0,0,0,65.626,93.4c.722.632,1.534,1.354,2.392,1.986a6.454,6.454,0,0,0,2.888,1.264,9.025,9.025,0,0,0,3.34-.542c1.083-.406,2.166-.9,3.294-1.444a17.6,17.6,0,0,0,1.58-.857A1.986,1.986,0,0,0,80.158,92.5a1.715,1.715,0,0,0-.857-1.4c-.5-.361-1.128-.632-1.67-1.038a24.324,24.324,0,0,1-5.054-5.19c-1.444-1.986-2.843-3.926-4.107-5.777s-2.437-3.7-3.52-5.415a7.853,7.853,0,0,0-1.715-2.256,2.031,2.031,0,0,0-2.347,0,8.576,8.576,0,0,0-1.76,1.625,14.666,14.666,0,0,0-1.354,1.67,5.867,5.867,0,0,0-1.309,3.114A10.153,10.153,0,0,0,56.781,80v.542a.814.814,0,0,1,0,.226h0v-.587a9.026,9.026,0,0,1-.361-2.166,5.822,5.822,0,0,1,1.264-3.249,14.984,14.984,0,0,1,1.354-1.715,9.025,9.025,0,0,1,1.805-1.67A2.3,2.3,0,0,1,62.2,71.06a2.256,2.256,0,0,1,1.309.542,9.431,9.431,0,0,1,1.85,2.347c1.038,1.67,2.211,3.475,3.52,5.325s2.663,3.791,4.107,5.777a22.564,22.564,0,0,0,5.145,5.461c.542.361,1.128.632,1.67,1.038a2.752,2.752,0,0,1,.722.722,1.4,1.4,0,0,1,.271,1.038,2.121,2.121,0,0,1-1.173,1.58,11.914,11.914,0,0,1-1.67.9,31.045,31.045,0,0,1-3.34,1.444,8.393,8.393,0,0,1-3.475.542,6.544,6.544,0,0,1-3.069-1.354c-.857-.677-1.625-1.354-2.392-2.031a34.566,34.566,0,0,1-3.791-4.107,30.642,30.642,0,0,1-4.107-7,19.772,19.772,0,0,1-.722-2.121v-.542A6.3,6.3,0,0,1,56.646,79.86Z" transform="translate(175.656 226.539)" fill="#455a64"/>
    <path id="Trazado_216086" data-name="Trazado 216086" d="M98.265,64.07h-.542l-1.489.361c-1.264.361-3.114.993-5.415,1.805l-3.7,1.264a13,13,0,0,0-3.43,2.8c-2.3,2.166-4.829,4.513-7.446,7.221-5.054,5.19-9.567,10.019-13,13.629C61.62,92.908,60.357,94.4,59.5,95.39l-1.038,1.173-.361.406.316-.451.948-1.218c.857-1.038,2.076-2.527,3.7-4.513,3.159-3.655,7.717-8.529,12.907-13.539,2.618-2.618,5.145-5.054,7.446-7.221a13.946,13.946,0,0,1,3.565-2.843c1.4-.406,2.618-.812,3.746-1.218,2.3-.767,4.152-1.354,5.461-1.715l1.534-.271h.542Z" transform="translate(181.558 201.712)" fill="#455a64"/>
    <path id="Trazado_216087" data-name="Trazado 216087" d="M91.095,86.9h-.5l-1.444-.948-5.28-2.663-7.807-4.016a74.6,74.6,0,0,0-9.7-4.513A29.376,29.376,0,0,0,60.948,73.5a7.762,7.762,0,0,1-2.572-.812,6.5,6.5,0,0,1-1.941-1.715A7.582,7.582,0,0,0,52.6,68.582a15.794,15.794,0,0,0-3.971-.451c-2.482,0-4.513.406-5.912.406h-.135c1.354,0,3.385-.361,5.867-.5a14.758,14.758,0,0,1,4.107.406,11.058,11.058,0,0,1,2.166.9,7.626,7.626,0,0,1,1.85,1.579,6.95,6.95,0,0,0,1.85,1.625,8.394,8.394,0,0,0,2.482.767,25.046,25.046,0,0,1,5.461,1.264A78.577,78.577,0,0,1,76.112,79.1C79,80.676,81.618,82.03,83.874,83.2l5.19,2.8,1.444.767Z" transform="translate(119.906 215.929)" fill="#455a64"/>
    <path id="Trazado_216088" data-name="Trazado 216088" d="M64.464,96.84,50.88,94.087,55.664,72.38,70.331,76.4Z" transform="translate(156.195 231.22)" fill="#ffbf9d"/>
    <path id="Trazado_216089" data-name="Trazado 216089" d="M58.137,73.32l21.256,6.453,6.724-.542a3.791,3.791,0,0,1,4.016,3.43L93.2,120.886s-4.513,1.038-5.867-1.534S73.8,98.186,73.8,98.186L53.85,93.673Z" transform="translate(166.628 234.522)" fill="#e0e0e0"/>
    <path id="Trazado_216090" data-name="Trazado 216090" d="M57.751,73.355a2.034,2.034,0,0,1,0,.361v1.038l-.767,4.016c-.722,3.52-1.76,8.529-3.024,14.8h0l19.992,4.513h0l8.123,12.636,4.287,6.86,1.038,1.805a2.979,2.979,0,0,0,1.489,1.173,7.718,7.718,0,0,0,4.062,0v0c-.767-9.838-1.534-19.18-2.211-27.709,0-2.166-.316-4.242-.5-6.273V83.6a14.268,14.268,0,0,0,0-1.444,3.881,3.881,0,0,0-.5-1.264,3.746,3.746,0,0,0-2.166-1.534,10.154,10.154,0,0,0-2.617,0l-5.1.406h0L64.34,74.98,60.1,73.671l-1.083-.361h-.045l1.083.316,4.242,1.264L79.909,79.4h0l5.1-.406h1.354a3.656,3.656,0,0,1,1.4,0,3.836,3.836,0,0,1,2.347,1.67,3.791,3.791,0,0,1,.542,1.4v1.444l.271,3.024c0,2.031.316,4.107.5,6.228.677,8.529,1.444,18.052,2.256,27.709v.406h0a8.169,8.169,0,0,1-4.513,0,3.069,3.069,0,0,1-1.67-1.354c-.361-.587-.677-1.173-1.083-1.76-1.4-2.347-2.843-4.513-4.242-6.86L74.088,98.221h0L54.141,93.483h0c1.309-6.273,2.392-11.327,3.114-14.848l.857-3.971.226-1.038a1.4,1.4,0,0,1-.587-.271Z" transform="translate(167.015 234.487)" fill="#263238"/>
    <path id="Trazado_216091" data-name="Trazado 216091" d="M59.857,72.707,65.9,74.964a1.715,1.715,0,0,1,1.083,2.031L61.933,96.626a1.76,1.76,0,0,1-1.941,1.309L54.351,96.9a1.76,1.76,0,0,1-1.4-2.166l5.325-21.346A1.218,1.218,0,0,1,59.857,72.707Z" transform="translate(163.284 232.066)" fill="#e0e0e0"/>
    <path id="Trazado_216092" data-name="Trazado 216092" d="M59.733,72.705a2.257,2.257,0,0,0-.632,0,1.038,1.038,0,0,0-.632.361,1.986,1.986,0,0,0-.361.993c-.406,1.625-.948,3.926-1.625,6.724s-1.534,6.228-2.437,9.928L53.325,93.6l-.361,1.489a1.58,1.58,0,0,0,.361,1.264,1.715,1.715,0,0,0,.587.406h2.3l3.294.5a2.257,2.257,0,0,0,.767,0,1.354,1.354,0,0,0,.677-.226,1.715,1.715,0,0,0,.5-.5,3.43,3.43,0,0,0,.271-.722l.767-3.114,1.534-5.822c.993-3.746,1.85-7.085,2.572-9.928a2.707,2.707,0,0,0,0-.993,1.85,1.85,0,0,0-.361-.857c-.361-.5-1.038-.587-1.579-.812l-2.392-.632-1.76-.677-.587-.271h.632l1.76.632,2.8.993.857.316a1.624,1.624,0,0,1,.812.542,1.986,1.986,0,0,1,.451.993,3.114,3.114,0,0,1,0,1.128c-.722,2.8-1.534,6.183-2.482,9.928q-.722,2.753-1.489,5.822l-.812,3.114a2.888,2.888,0,0,1-.271.812,3.025,3.025,0,0,1-.632.677,2.122,2.122,0,0,1-.857.271,1.852,1.852,0,0,1-.5,0h-.406l-3.249-.5-1.58-.271a2.616,2.616,0,0,1-.812,0,1.625,1.625,0,0,1-.722-.5,1.941,1.941,0,0,1-.451-1.625,8.937,8.937,0,0,1,.361-1.489l.722-2.888,2.527-9.928c.722-2.753,1.309-5.054,1.715-6.679,0-.361,0-.767.451-.993a1.218,1.218,0,0,1,.677-.406.813.813,0,0,1,.5,0Z" transform="translate(163.407 232.068)" fill="#263238"/>
    <path id="Trazado_216093" data-name="Trazado 216093" d="M62.57,75.831a9.026,9.026,0,0,0-8.71-1.715,18.051,18.051,0,0,1,4.513,0A21.665,21.665,0,0,1,62.57,75.831Z" transform="translate(166.663 235.712)" fill="#263238"/>
    <path id="Trazado_216094" data-name="Trazado 216094" d="M62.476,77.747a17.511,17.511,0,0,0-4.513-1.625,20.893,20.893,0,0,0-4.513-.9,30.6,30.6,0,0,0,4.513,1.354C60.445,77.251,62.476,77.838,62.476,77.747Z" transform="translate(165.223 241.197)" fill="#263238"/>
    <path id="Trazado_216095" data-name="Trazado 216095" d="M61.429,80.476a18.05,18.05,0,0,1-4.513-1.083A15.524,15.524,0,0,1,53.17,76.64s0,.542.767,1.173a9.026,9.026,0,0,0,6.047,2.8A2.8,2.8,0,0,0,61.429,80.476Z" transform="translate(164.239 246.185)" fill="#263238"/>
    <path id="Trazado_216096" data-name="Trazado 216096" d="M69.031,82.051a6.319,6.319,0,0,1-1.805-.361,10.561,10.561,0,0,1-3.881-1.9,9.386,9.386,0,0,1-2.708-3.385c-.5-.993-.677-1.67-.767-1.67a4.829,4.829,0,0,0,.451,1.805,9.522,9.522,0,0,0,2.753,3.61,9.026,9.026,0,0,0,4.107,1.85A4.514,4.514,0,0,0,69.031,82.051Z" transform="translate(187.776 239.511)" fill="#263238"/>
    <path id="Trazado_216097" data-name="Trazado 216097" d="M68.227,81.52a3.565,3.565,0,0,0-1.354,0,6.227,6.227,0,0,0-3.249.948,8.3,8.3,0,0,0-2.347,2.392,2.888,2.888,0,0,0-.587,1.218s.361-.406.857-1.038a10.2,10.2,0,0,1,2.347-2.211,6.814,6.814,0,0,1,2.979-.993C67.685,81.566,68.227,81.611,68.227,81.52Z" transform="translate(190.657 263.102)" fill="#263238"/>
    <path id="Trazado_216098" data-name="Trazado 216098" d="M59.348,99.018a31.59,31.59,0,0,0,5.777-18.052,8.078,8.078,0,0,0-.632-4.152,7,7,0,0,0-2.437-2.437,25.544,25.544,0,0,0-4.513-2.572,1.58,1.58,0,0,0-1.489,0c-.5.271-.587.993-.632,1.58A59.57,59.57,0,0,1,50.1,95.679a2.121,2.121,0,0,0,1.67,2.979l3.7.5a13.541,13.541,0,0,0,3.881-.135Z" transform="translate(152.781 228.546)" fill="#263238"/>
    <path id="Trazado_216099" data-name="Trazado 216099" d="M59.407,99.435H56.834a10.7,10.7,0,0,1-3.2-.361L51.6,98.8a2.347,2.347,0,0,1-1.625-1.67,2.438,2.438,0,0,1,0-1.264l.5-1.218c.361-.767.677-1.625.993-2.482a56.1,56.1,0,0,0,1.85-5.686,64.174,64.174,0,0,0,2.031-13.539A2.527,2.527,0,0,1,55.616,72a1.309,1.309,0,0,1,.9-.5,4.512,4.512,0,0,1,1.805.542,22.561,22.561,0,0,1,3.069,1.715A13.9,13.9,0,0,1,64.1,75.832a5.551,5.551,0,0,1,1.309,3.024,18.055,18.055,0,0,1,0,3.114l-.271,2.888a46.081,46.081,0,0,1-1.218,5.37,25.949,25.949,0,0,1-2.979,6.95,12,12,0,0,1-1.173,1.715l-.316.406h0l.316-.451,1.083-1.715a27.889,27.889,0,0,0,2.843-6.95,38.133,38.133,0,0,0,.948-5.1,28.569,28.569,0,0,0,.271-2.888,16.923,16.923,0,0,0,0-3.024,4.919,4.919,0,0,0-1.219-2.8,13.087,13.087,0,0,0-2.618-2.031,25.136,25.136,0,0,0-3.069-1.67,3.746,3.746,0,0,0-1.579-.5c-.542,0-.812.542-.857,1.083A59.525,59.525,0,0,1,53.495,86.8a52.618,52.618,0,0,1-1.85,5.686c-.316.9-.677,1.715-1.038,2.527s-.361.812-.5,1.173a2.391,2.391,0,0,0,0,1.128,2.031,2.031,0,0,0,1.4,1.444l1.986.316c1.264,0,2.347.361,3.2.406h2.708Z" transform="translate(152.722 228.129)" fill="#455a64"/>
    <path id="Trazado_216100" data-name="Trazado 216100" d="M65.427,83.149s-.722-1.128-1.986-2.888a32.449,32.449,0,0,0-5.686-6.138,36.556,36.556,0,0,0-7.04-4.513c-1.941-.9-3.249-1.309-3.2-1.4s.361,0,.948,0a20.616,20.616,0,0,1,2.437.857,28.568,28.568,0,0,1,7.221,4.513A29.019,29.019,0,0,1,63.8,79.945,13.539,13.539,0,0,1,65.066,82.2,3.582,3.582,0,0,1,65.427,83.149Z" transform="translate(144.355 216.435)" fill="#455a64"/>
    <path id="Trazado_216101" data-name="Trazado 216101" d="M68.8,67.7a14.124,14.124,0,0,1-1.941,2.347,70.941,70.941,0,0,0-4.513,5.641c-1.625,2.347-2.979,4.513-3.926,6.138a20.349,20.349,0,0,1-1.534,2.618,15.072,15.072,0,0,1,1.173-2.8A46.211,46.211,0,0,1,61.9,75.372a49.64,49.64,0,0,1,4.513-5.641A15.159,15.159,0,0,1,68.8,67.7Z" transform="translate(177.307 214.78)" fill="#455a64"/>
    <path id="Trazado_216102" data-name="Trazado 216102" d="M73.534,28.819A6.183,6.183,0,0,0,68.3,27.645a3.294,3.294,0,0,1-2.256,0,4.874,4.874,0,0,1-1.264-1.083,3.159,3.159,0,0,0-4.513.451,2.8,2.8,0,0,1-.767.993c-1.354.993-3.385-1.625-4.784-.632a3.836,3.836,0,0,1,1.85,1.083,1.625,1.625,0,0,1,0,1.986c-1.264,1.444-3.881-.993-5.325.226s-.677,2.076-1.625,2.437a3.384,3.384,0,0,1-1.173,0,2.618,2.618,0,0,0-2.437,2.572c0,1.128.767,2.392,0,3.249a2.663,2.663,0,0,1-1.941.542,6.273,6.273,0,0,0,1.083,2.8,4.062,4.062,0,0,0-.632,5.6,9.026,9.026,0,0,0-2.031,2.663,3.069,3.069,0,0,0,.406,3.159,3.115,3.115,0,0,1,.5.587,1.128,1.128,0,0,1,0,.767,19.136,19.136,0,0,0-.226,3.2,1.961,1.961,0,0,0,2.166,1.85,1.309,1.309,0,0,1,.722,0,.632.632,0,0,1,.316.451,7.537,7.537,0,0,1,0,2.256A3.069,3.069,0,0,0,47,64.967a1.309,1.309,0,0,0,1.986,0l-.451,3.655a2.257,2.257,0,0,0,.451,2.031c.767.587,1.9,0,2.3-.993s.406-1.85.857-2.708a10.838,10.838,0,0,0,.5-1.038,2.391,2.391,0,0,1,.271-.857c.451-.451,1.264,0,1.264.722a3.43,3.43,0,0,1-.722,1.67c-.316.542-.542,1.264,0,1.715s.5.361.677.632-.587,1.85-.632,2.888a2.527,2.527,0,0,0,1.218,1.805c.767.587,2.076.948,2.392,0s0-.632,0-.948a2.482,2.482,0,0,1,.632-.948,4.513,4.513,0,0,0,1.083-2.527c-.632,1.083-1.309,2.437-.587,3.475s.767.677,1.173,1.038,1.354,1.534,2.166,2.166a2.437,2.437,0,0,0,2.8.406,2.347,2.347,0,0,0,1.354,2.482,2.437,2.437,0,0,0,2.8-.722,1.444,1.444,0,0,1,.542-.632,1.219,1.219,0,0,1,.9,0,4.964,4.964,0,0,0,4.513-2.572h-.948a11.6,11.6,0,0,0,4.919-2.166,3.971,3.971,0,0,0,1.083-4.874c-.406-.677-1.173-1.309-.948-2.076s.677-.812,1.128-1.038l6.092-3.069A5.686,5.686,0,0,0,88.382,60.5a2.076,2.076,0,0,0-.542-2.888,5.912,5.912,0,0,1,1.9-2.663c.993-.767,2.166-1.218,3.2-1.941a3.385,3.385,0,0,0,1.625-3.114c-.271-1.218-2.076-1.941-2.8-.948,0-1.9,3.2-2.437,3.249-4.287S93.03,42.583,91.9,41.59c0-.542.632-.948.767-1.489s-.948-2.076-2.076-2.437-2.437-.677-2.843-1.805.406-2.572-.361-3.52a1.354,1.354,0,0,0-1.805,0c-1.128-2.031-4.919,0-6.363-1.715a.948.948,0,0,1,0-.5.767.767,0,0,1,0-.451A13.04,13.04,0,0,1,80.8,28.1a1.805,1.805,0,0,0,.587-2.031c-.361-.677-1.67-.451-1.58.271a1.67,1.67,0,0,0-2.482.857,1.76,1.76,0,0,0-2.256,0,6.182,6.182,0,0,0-1.354,2.031" transform="translate(125.778 67.097)" fill="#263238"/>
    <path id="Trazado_216103" data-name="Trazado 216103" d="M47.627,39.9a13.539,13.539,0,0,1,4.513-8.033,8.439,8.439,0,0,1,3.34-2.121,3.385,3.385,0,0,1,3.61,1.038v2.211c.632,3.43-1.76,6.679-2.708,10.064-.406,1.489-.677,3.249-1.986,3.971a3.249,3.249,0,0,1-2.347,0,6.724,6.724,0,0,1-4.423-7.13Z" transform="translate(144.6 80.883)" fill="#f67409"/>
    <path id="Trazado_216104" data-name="Trazado 216104" d="M49.164,59.565a7.085,7.085,0,0,1,0-9.026,4.513,4.513,0,0,1,0-5.731,13.539,13.539,0,0,1,4.829-3.881,9.477,9.477,0,0,1,10.425-7.9,10.831,10.831,0,0,1,11.6-4.062,11.147,11.147,0,0,0,3.2.406,21.208,21.208,0,0,0,2.3-.542,10.2,10.2,0,0,1,10.741,5.461,10.02,10.02,0,0,0,1.038,1.76,13.043,13.043,0,0,0,2.256,1.489,6.634,6.634,0,0,1,3.069,4.739,12.635,12.635,0,0,0,.632,4.919c.406.722,1.083,1.264,1.444,1.986.993,2.211-1.309,4.784-.632,7.085,0,.451.406.9.587,1.354a4.107,4.107,0,0,1,0,2.933,5.777,5.777,0,0,0-.722,2.211,5.461,5.461,0,0,0,.5,1.67,15.119,15.119,0,0,1-3.294,7.943l-36.374,3.7a6.815,6.815,0,0,1-5.777-5.37,2.753,2.753,0,0,0-.5-1.309,2.843,2.843,0,0,0-1.038-.542c-2.437-1.038-3.024-4.242-3.024-6.9a2.978,2.978,0,0,0,0-1.083A3.475,3.475,0,0,0,49.164,59.565Z" transform="translate(144.463 77.373)" fill="#263238"/>
    <path id="Trazado_216105" data-name="Trazado 216105" d="M50.214,51.924a19.406,19.406,0,0,1,8.755-18.052,24.685,24.685,0,0,1,9.026-3.114A14.712,14.712,0,0,1,76.75,31.8,19.947,19.947,0,0,1,87.806,45.335a131.51,131.51,0,0,1,1.805,24.054,15.209,15.209,0,0,1-10.2,14.622l1.264,9.026-12.817,7.672L54.32,94.932Z" transform="translate(153.567 84.112)" fill="#cc675d"/>
    <path id="Trazado_216106" data-name="Trazado 216106" d="M54.93,41.047A2.437,2.437,0,0,1,58.5,38.926a2.753,2.753,0,0,1,1.218,2.708h0c-.406.767-.677,1.489-1.534,1.67h-.406a2.482,2.482,0,0,1-1.85-.451A2.347,2.347,0,0,1,54.93,41.047Z" transform="translate(170.422 112.725)" fill="#9c4741"/>
    <path id="Trazado_216107" data-name="Trazado 216107" d="M56.784,36.83c0-.226,1.489.5,3.159,0s2.753-1.218,2.979-1.038,0,.451-.542.948a4.242,4.242,0,0,1-2.347,1.083,4.2,4.2,0,0,1-2.527-.451C56.965,37.417,56.739,37.056,56.784,36.83Z" transform="translate(176.917 102.59)" fill="#263238"/>
    <path id="Trazado_216108" data-name="Trazado 216108" d="M57.565,48.539a9.3,9.3,0,0,1,2.708-.722c.406,0,.812,0,.857-.5a2.031,2.031,0,0,0-.406-1.264c-.451-.993-.993-2.031-1.534-3.159A58.128,58.128,0,0,1,55.67,35a53.251,53.251,0,0,1,4.2,7.988c.5,1.083.993,2.166,1.489,3.159a2.843,2.843,0,0,1,.361,1.67,1.128,1.128,0,0,1-.677.677h-.722a11.283,11.283,0,0,1-2.753.045Z" transform="translate(173.022 99.907)" fill="#263238"/>
    <path id="Trazado_216109" data-name="Trazado 216109" d="M69.683,44.754A31.591,31.591,0,0,1,52.94,41.73a16.337,16.337,0,0,0,17.149,6.092Z" transform="translate(163.431 123.549)" fill="#9c4741"/>
    <path id="Trazado_216110" data-name="Trazado 216110" d="M62.857,35.053c-.226.451-1.534.271-3.024.5s-2.708.767-3.069.406,0-.587.451-1.038a4.2,4.2,0,0,1,2.347-1.038,4.919,4.919,0,0,1,2.572.316C62.857,34.6,63.083,34.873,62.857,35.053Z" transform="translate(176.35 95.793)" fill="#263238"/>
    <path id="Trazado_216111" data-name="Trazado 216111" d="M59.318,36.26A11.234,11.234,0,0,1,56.339,37.3c-1.67.226-2.979-.5-3.159-.271s0,.451.767.767a4.242,4.242,0,0,0,2.572.451,4.062,4.062,0,0,0,2.3-1.083C59.273,36.711,59.408,36.305,59.318,36.26Z" transform="translate(164.049 104.334)" fill="#263238"/>
    <path id="Trazado_216112" data-name="Trazado 216112" d="M52.839,36.325c.361.361,1.625,0,3.159-.406s2.888,0,3.159-.5,0-.587-.767-.857a5.176,5.176,0,0,0-5.1.722C52.794,35.738,52.659,36.144,52.839,36.325Z" transform="translate(162.81 97.003)" fill="#263238"/>
    <path id="Trazado_216113" data-name="Trazado 216113" d="M57.49,40.124c0-.9-1.309-2.979-2.211-3.024-2.437,0-6.724.361-6.273,6.408a6.228,6.228,0,0,0,9.026,5.731S57.716,43.238,57.49,40.124Z" transform="translate(149.495 107.285)" fill="#cc675d"/>
    <path id="Trazado_216114" data-name="Trazado 216114" d="M53.808,44.179,53.4,44.4a1.4,1.4,0,0,1-1.083,0,3.52,3.52,0,0,1-1.85-3.069,4.513,4.513,0,0,1,0-2.076,1.9,1.9,0,0,1,.993-1.218.767.767,0,0,1,.9.361v.406a.5.5,0,0,0,0-.5.948.948,0,0,0-.361-.5,1.128,1.128,0,0,0-.857,0,1.986,1.986,0,0,0-1.4,1.4,5.054,5.054,0,0,0-.316,2.347,3.791,3.791,0,0,0,2.347,3.43,1.4,1.4,0,0,0,1.309-.316C53.808,44.36,53.808,44.179,53.808,44.179Z" transform="translate(151.01 109.502)" fill="#9c4741"/>
    <path id="Trazado_216115" data-name="Trazado 216115" d="M93.122,48.089A4.964,4.964,0,0,1,90.1,43.847c-1.083.406-2.3-.9-3.024-1.805S85.5,40.688,85.45,39.56a1.083,1.083,0,0,0,0-.677c0-.316-.587-.361-.948-.451a5.551,5.551,0,0,1-3.971-3.565,12.275,12.275,0,0,1-5.641,1.4,4.513,4.513,0,0,1-7.627.271,3.971,3.971,0,0,1-2.527,2.211,11.056,11.056,0,0,1-3.43.5A4.784,4.784,0,0,1,58.6,44.885a.848.848,0,0,0-.722.5,1.083,1.083,0,0,0,0,.9,3.7,3.7,0,0,1-2.121,4.964,2.8,2.8,0,0,1,0,4.513c-.271,0-.632.5-.587.812a.992.992,0,0,0,0,.361A5.19,5.19,0,0,1,56.7,59.552,1.986,1.986,0,0,1,55.259,61.9a2.663,2.663,0,0,1,1.173,1.715c0,.722-1.173,2.347-1.9,2.121l-4.107-1.58c-2.572-2.979,0-6.769,0-10.7a26.215,26.215,0,0,1,2.661-11.5,19.542,19.542,0,0,1,2.62-4.246A27.711,27.711,0,0,1,60,34.009a23.468,23.468,0,0,1,6.408-3.7,21.03,21.03,0,0,1,13.539,1.4,19.9,19.9,0,0,1,4.513,2.256,18.051,18.051,0,0,1,4.2,4.513,21.978,21.978,0,0,1,3.7,8.259" transform="translate(150.598 81.538)" fill="#263238"/>
    <path id="Trazado_216116" data-name="Trazado 216116" d="M100.814,49.291a3.882,3.882,0,0,0-.542-.812l-.767-.993A3.2,3.2,0,0,1,98.919,46a9.565,9.565,0,0,1,0-2.031,9.7,9.7,0,0,0-.271-2.482,7.131,7.131,0,0,0-1.309-2.527,13.042,13.042,0,0,0-1.128-1.083,10.471,10.471,0,0,0-1.4-.857,5.641,5.641,0,0,1-1.354-.948,8.575,8.575,0,0,1-.9-1.534,10.334,10.334,0,0,0-2.3-3.024A11.011,11.011,0,0,0,86.869,29.3a10.787,10.787,0,0,0-2.076-.542,7.221,7.221,0,0,0-2.211,0H81.454l-1.083.316a6.047,6.047,0,0,1-2.211,0,14.782,14.782,0,0,1-2.3-.451,13.539,13.539,0,0,0-2.347,0,11.1,11.1,0,0,0-2.437,0,12.139,12.139,0,0,0-2.437.632,8.259,8.259,0,0,0-3.926,3.114l-.271.406h0a9.7,9.7,0,0,0-10.605,8.033h0a24.548,24.548,0,0,0-2.8,1.76,9.928,9.928,0,0,0-2.211,2.347,5.641,5.641,0,0,0-.812,2.933,3.881,3.881,0,0,0,.993,2.708h0a6.95,6.95,0,0,0-1.534,4.513,7.266,7.266,0,0,0,1.173,4.062,9.438,9.438,0,0,0,.632.767l.632.677a1.67,1.67,0,0,1,.361.812,5.191,5.191,0,0,1,0,.857,13.133,13.133,0,0,0,.361,3.114A6.59,6.59,0,0,0,51.668,67.7a3.836,3.836,0,0,0,1.4,1.218l1.038.451.316.226a.451.451,0,0,0-.271-.226,8.749,8.749,0,0,0-1.083-.5,4.513,4.513,0,0,1-1.354-1.264,6,6,0,0,1-.948-2.3,12.725,12.725,0,0,1-.361-3.069,6.051,6.051,0,0,0,0-.9A2.978,2.978,0,0,0,50,60.483a4.83,4.83,0,0,0-.632-.722,4.826,4.826,0,0,1-.632-.722,7.175,7.175,0,0,1-1.128-3.971,6.589,6.589,0,0,1,1.534-4.287h0a3.61,3.61,0,0,1-.993-2.572,5.37,5.37,0,0,1,.857-2.843,8.349,8.349,0,0,1,2.121-2.256c.857-.632,1.805-1.173,2.753-1.76h0a9.026,9.026,0,0,1,3.43-5.867,9.252,9.252,0,0,1,6.86-1.986h0l.226-.406a7.852,7.852,0,0,1,3.836-3.024,15.073,15.073,0,0,1,2.347-.632,14.576,14.576,0,0,1,2.392,0,13.855,13.855,0,0,1,2.392.226,22.472,22.472,0,0,1,2.3.406h1.173l1.128-.226,1.083-.316h1.083a11.012,11.012,0,0,1,2.121,0,10.425,10.425,0,0,1,5.37,2.753,10.651,10.651,0,0,1,2.256,2.933,6.679,6.679,0,0,0,.948,1.534,5.145,5.145,0,0,0,1.4,1.038,10.334,10.334,0,0,1,1.4.812,6.139,6.139,0,0,1,1.083,1.083,7.581,7.581,0,0,1,1.309,2.437,9.387,9.387,0,0,1,.271,2.437,9.434,9.434,0,0,0,0,2.031,3.43,3.43,0,0,0,.587,1.534l.767.948a3.429,3.429,0,0,1,.451.632Z" transform="translate(144.214 77.267)" fill="#455a64"/>
    <path id="Trazado_216117" data-name="Trazado 216117" d="M52.06,30.088l.587-.361a5.416,5.416,0,0,1,1.805-.677,5.28,5.28,0,0,1,2.753,0,5.371,5.371,0,0,1,2.663,2.076,5.774,5.774,0,0,1,.5.9,1.128,1.128,0,0,1,0,.857V33.2h.316a3.475,3.475,0,0,1,2.617,0,3.61,3.61,0,0,1,1.534,1.4,4.513,4.513,0,0,1,.451,1.354v.5h0a.947.947,0,0,0,0-.361,3.2,3.2,0,0,0-.361-1.4,3.249,3.249,0,0,0-1.58-1.534,3.7,3.7,0,0,0-2.8,0h0a1.309,1.309,0,0,0,0-1.083,6.817,6.817,0,0,0-.5-.993A5.506,5.506,0,0,0,57.2,29a5.19,5.19,0,0,0-2.843,0,5.28,5.28,0,0,0-1.805.767l-.406.316Z" transform="translate(160.34 78.148)" fill="#455a64"/>
    <path id="Trazado_216118" data-name="Trazado 216118" d="M49.25,31.453l.316.271a6.1,6.1,0,0,0,.993.542,3.339,3.339,0,0,0,1.715.361,2.888,2.888,0,0,0,1.986-.767h0l.271.316a2.076,2.076,0,0,0,.316.316,5.19,5.19,0,0,0,2.211,1.128,5.009,5.009,0,0,0,1.986,0,4.513,4.513,0,0,0,1.264-.406l.406-.271a5.911,5.911,0,0,1-1.715.5,5.6,5.6,0,0,1-1.9,0,5.1,5.1,0,0,1-2.076-1.083l-.316-.271-.226-.316h0a2.843,2.843,0,0,1-1.85.722,3.52,3.52,0,0,1-1.625-.271C49.746,31.769,49.3,31.408,49.25,31.453Z" transform="translate(150.469 87.434)" fill="#455a64"/>
    <path id="Trazado_216119" data-name="Trazado 216119" d="M48.428,34.038a1.985,1.985,0,0,0,0,.406,2.076,2.076,0,0,0,1.4.767,4.107,4.107,0,0,0,2.347-.451,8.261,8.261,0,0,0,1.264-.632A2.211,2.211,0,0,0,54.521,33h-.226a10.154,10.154,0,0,0,2.618,1.309,4.513,4.513,0,0,0,2.347,0,2.888,2.888,0,0,0,1.354-.812l.316-.316h0l-.406.406a3.746,3.746,0,0,1-1.354.677,4.874,4.874,0,0,1-2.256,0A12,12,0,0,1,54.385,33h0a1.85,1.85,0,0,1-.948.993,7.853,7.853,0,0,1-1.218.632,4.513,4.513,0,0,1-2.211.5,2.392,2.392,0,0,1-1.4-.677C48.518,34.219,48.473,34.038,48.428,34.038Z" transform="translate(147.545 92.882)" fill="#455a64"/>
    <path id="Trazado_216120" data-name="Trazado 216120" d="M46.542,26.84H46.9a1.805,1.805,0,0,1,.993.542,2.482,2.482,0,0,1,.767,1.534,7.941,7.941,0,0,1,0,2.256h0a4.513,4.513,0,0,1,2.8.9,3.61,3.61,0,0,1,1.805,2.753,3.475,3.475,0,0,1-.993,2.888l-.226.226h.361a4.513,4.513,0,0,1,3.249,1.128,3.881,3.881,0,0,1,1.264,2.437,3.791,3.791,0,0,1,0,1.85,3.205,3.205,0,0,1-.226.677h0a1.354,1.354,0,0,0,0-.451,3.881,3.881,0,0,0,0-1.9,4.2,4.2,0,0,0-1.264-2.572A4.513,4.513,0,0,0,52,37.9v.226a3.61,3.61,0,0,0,1.083-3.069,3.971,3.971,0,0,0-.677-1.76,4.061,4.061,0,0,0-1.264-1.218,5.19,5.19,0,0,0-3.114-.632h0a10.516,10.516,0,0,0,0-2.347,2.8,2.8,0,0,0-.857-1.58,1.76,1.76,0,0,0-1.038-.5H45.73Z" transform="translate(138.103 71.242)" fill="#455a64"/>
    <path id="Trazado_216121" data-name="Trazado 216121" d="M43,33.444h.451a5.009,5.009,0,0,0,1.715.271,6.589,6.589,0,0,0,2.572-.542A6.725,6.725,0,0,0,50.4,31.1h0a5.325,5.325,0,0,0,3.971,2.256,4.062,4.062,0,0,0,3.971-2.527h0a3.069,3.069,0,0,0,1.083,1.309,5.19,5.19,0,0,0,1.444.677,7.086,7.086,0,0,0,2.572,0l1.58-.406.587-.226h-.587a11.509,11.509,0,0,1-1.625.361,5.957,5.957,0,0,1-2.482,0,3.565,3.565,0,0,1-2.392-1.85v0a3.881,3.881,0,0,1-3.746,2.347,4.919,4.919,0,0,1-3.746-2.121h0a6.318,6.318,0,0,1-3.52,2.121,6.047,6.047,0,0,1-2.482.542A6.95,6.95,0,0,1,43,33.444Z" transform="translate(128.513 83.818)" fill="#455a64"/>
    <path id="Trazado_216122" data-name="Trazado 216122" d="M45.11,40.646h0a1.083,1.083,0,0,0,.5,0,3.52,3.52,0,0,0,1.805-.451,4.242,4.242,0,0,0,1.941-1.941,4.513,4.513,0,0,0,.361-3.34h0a5.461,5.461,0,0,0,3.385,0,6.273,6.273,0,0,0,2.437-1.309,7.583,7.583,0,0,0,1.218-1.354l.316-.632a9.612,9.612,0,0,1-1.67,1.85,5.686,5.686,0,0,1-2.392,1.219,4.919,4.919,0,0,1-3.2,0h-.226v.226h0a4.513,4.513,0,0,1-2.166,5.054,3.881,3.881,0,0,1-1.715.5A1.038,1.038,0,0,1,45.11,40.646Z" transform="translate(135.925 88.034)" fill="#455a64"/>
    <path id="Trazado_216123" data-name="Trazado 216123" d="M53.829,26.791a6,6,0,0,1,.587,2.482,5.19,5.19,0,0,1-.587,2.708,5.777,5.777,0,0,1-2.347,2.437,5.641,5.641,0,0,1-1.85.632h0a7.13,7.13,0,0,1,.542,2.617,7.311,7.311,0,0,1-.316,2.166l-.271.767a.767.767,0,0,1-.406.361.316.316,0,0,1-.361,0h.361a.722.722,0,0,0,.5-.406,3.925,3.925,0,0,0,.316-.767,6.318,6.318,0,0,0,.361-2.211,6.544,6.544,0,0,0-.5-2.708h0a5.551,5.551,0,0,0,1.941-.677,5.731,5.731,0,0,0,2.437-2.527,6.047,6.047,0,0,0,.542-2.8,5.956,5.956,0,0,0-.406-1.9V26.52Z" transform="translate(148.958 70.118)" fill="#455a64"/>
    <path id="Trazado_216124" data-name="Trazado 216124" d="M55.222,38.59c.226,0,.587,1.489,2.166,2.347s3.2.271,3.249.5-.271.361-.993.542a3.971,3.971,0,0,1-2.708-.316,3.34,3.34,0,0,1-1.715-1.986C54.861,39.041,55.132,38.59,55.222,38.59Z" transform="translate(170.807 112.519)" fill="#263238"/>
    <path id="Trazado_216130" data-name="Trazado 216130" d="M95.045,52.507a63.951,63.951,0,0,1-3.52,13.81L78.3,67.941S71.984,57.245,70.224,53a8.033,8.033,0,0,0-1.986-2.979A2.076,2.076,0,0,1,70.5,46.64a13.538,13.538,0,0,1,2.617,2.708,37.991,37.991,0,0,1,2.482,4.2,9.523,9.523,0,0,0,1.444-4.513c0-2.482-1.264-11.824-1.354-14.4s1.489-2.888,2.933-2.392S79.792,43.752,81.1,44.2a5.46,5.46,0,0,1,3.43-.451,6.77,6.77,0,0,1,2.166,1.58s1.309-1.444,2.663-1.128a4.513,4.513,0,0,1,2.347,1.85s1.218-1.354,2.121-.948S95.406,47.949,95.045,52.507Z" transform="translate(215.059 89.531)" fill="#cc675d"/>
    <path id="Trazado_216131" data-name="Trazado 216131" d="M70.337,40.493a32.809,32.809,0,0,1,0,20.85,9.025,9.025,0,0,0-.767,2.8l9.748,4.016,6.634-3.52L84.418,39.5Z" transform="translate(221.851 115.715)" fill="#cc675d"/>
    <path id="Trazado_216132" data-name="Trazado 216132" d="M81.891,44.106s-.316-.857-.9-2.211a9.026,9.026,0,0,0-1.4-2.166,5.867,5.867,0,0,0-2.572-1.715,10.605,10.605,0,0,0-5.686,0,1.986,1.986,0,0,1-1.038,0,2.031,2.031,0,0,1-.632-.587,1.985,1.985,0,0,1-.271-.587l.406.5a1.49,1.49,0,0,0,.587.406,1.219,1.219,0,0,0,.9,0,10.424,10.424,0,0,1,5.912,0,5.822,5.822,0,0,1,2.708,1.85,7.312,7.312,0,0,1,1.354,2.3,7.943,7.943,0,0,1,.542,1.715C81.891,43.88,81.936,44.106,81.891,44.106Z" transform="translate(221.219 106.371)" fill="#9c4741"/>
    <path id="Trazado_216133" data-name="Trazado 216133" d="M76.072,35.888a2.755,2.755,0,0,1,0,.677,6.543,6.543,0,0,1,0,1.941,9.027,9.027,0,0,1-.632,2.8,4.513,4.513,0,0,1-.857,1.489,1.805,1.805,0,0,1-1.9.5,2.527,2.527,0,0,1-1.309-1.354,9.793,9.793,0,0,1-.542-1.625,13.986,13.986,0,0,1-.316-2.843,17.654,17.654,0,0,1,0-1.941c0-.406,0-.677.226-.677a25.138,25.138,0,0,0,0,2.618,13.131,13.131,0,0,0,.406,2.708,8.7,8.7,0,0,0,.5,1.534,2.572,2.572,0,0,0,1.128,1.173,1.309,1.309,0,0,0,1.4-.406,3.656,3.656,0,0,0,.767-1.354,9.839,9.839,0,0,0,.722-2.663A11.455,11.455,0,0,0,76.072,35.888Z" transform="translate(225.097 99.38)" fill="#9c4741"/>
    <path id="Trazado_216134" data-name="Trazado 216134" d="M76.727,35.531v2.8a9.883,9.883,0,0,1-.451,3.069,5.461,5.461,0,0,1-.948,1.625,2.347,2.347,0,0,1-1.85.812,2.076,2.076,0,0,1-.677-.09,1.94,1.94,0,0,1-.677-.812,5.506,5.506,0,0,1-.316-1.85v-3.2a27.62,27.62,0,0,1,0-2.8,12.187,12.187,0,0,1,.271,2.8V40.9a5.46,5.46,0,0,0,.316,1.67,1.309,1.309,0,0,0,1.309.812,2.031,2.031,0,0,0,1.534-.677,3.972,3.972,0,0,0,.857-1.444,11.013,11.013,0,0,0,.542-2.933,24.952,24.952,0,0,1,.09-2.8Z" transform="translate(229.587 100.188)" fill="#9c4741"/>
    <path id="Trazado_216135" data-name="Trazado 216135" d="M76.969,36.441v1.128a2.843,2.843,0,0,1-2.211,1.625,1.625,1.625,0,0,1-1.489-.587,1.985,1.985,0,0,1-.361-1.218,2.211,2.211,0,0,1,0-1.128s0,.451,0,1.083a1.806,1.806,0,0,0,.361.993,1.173,1.173,0,0,0,1.128.406,2.708,2.708,0,0,0,1.986-1.309A3.827,3.827,0,0,0,76.969,36.441Z" transform="translate(233.317 104.334)" fill="#9c4741"/>
    <path id="Trazado_216136" data-name="Trazado 216136" d="M119.379,91.894l2.933-45.129A80.511,80.511,0,0,0,99.748,43.47s-.271,8.394-11.824,9.026C75.6,53.083,73.8,45.275,73.8,45.275l-23.061,5.1a23.558,23.558,0,0,0-6.228,4.287l6.273,40.616,6,29.469L47.4,144.559s25.678,8.575,40.616,9.3,36.1-15.344,36.1-15.344l-7.13-15.57Z" transform="translate(133.818 129.662)" fill="#f67409"/>
    <path id="Trazado_216137" data-name="Trazado 216137" d="M79.225,45.84,53.005,66.87,37.029,67.5s-3.881,24.054-1.354,27.077a11.057,11.057,0,0,0,10.019,5.551c5.6,0,5.957-1.444,14.035-7.311s28.3-21.075,28.3-21.075Z" transform="translate(99.779 137.987)" fill="#f67409"/>
    <path id="Trazado_216138" data-name="Trazado 216138" d="M62.534,44.275l18.052,3.159a128.618,128.618,0,0,0,16.066,1.85v-3.34l21.481-1.805s1.534,24.686-2.031,29.83S61,75.1,61,75.1Z" transform="translate(191.746 132.015)" fill="#f67409"/>
    <path id="Trazado_216139" data-name="Trazado 216139" d="M63.306,46.4s-.226,4.784-.812,10.7-1.128,10.7-1.264,10.7.271-4.829.812-10.741S63.171,46.4,63.306,46.4Z" transform="translate(192.463 139.955)" fill="#263238"/>
    <path id="Trazado_216140" data-name="Trazado 216140" d="M44.78,48.83s1.173,4.513,2.392,10.019a92.635,92.635,0,0,1,1.9,10.109c-.135,0-1.173-4.513-2.347-10.019A100.548,100.548,0,0,1,44.78,48.83Z" transform="translate(134.766 148.491)" fill="#263238"/>
    <path id="Trazado_216141" data-name="Trazado 216141" d="M73.954,63.825l-.451-.632c-.271-.451-.632-1.083-1.038-1.9a30.777,30.777,0,0,1-2.527-6.5,31.143,31.143,0,0,1-1.038-7.04V45.592a3.248,3.248,0,0,1,0-.812s0,1.128,0,2.933a42.423,42.423,0,0,0,1.128,6.995,37.958,37.958,0,0,0,2.347,6.634,21.527,21.527,0,0,1,1.58,2.482Z" transform="translate(219.407 134.264)" fill="#263238"/>
    <path id="Trazado_216142" data-name="Trazado 216142" d="M39.861,71.214s.226-1.128.542-3.024a42.918,42.918,0,0,0,.451-7.4,38.9,38.9,0,0,0-1.218-7.311c-.5-1.85-.857-2.979-.812-2.979a2.166,2.166,0,0,1,.361.767,11.472,11.472,0,0,0,.767,2.121,30.237,30.237,0,0,1,1.173,7.4,32.131,32.131,0,0,1-.542,7.446c-.226.948-.406,1.715-.587,2.211a3.113,3.113,0,0,1-.135.767Z" transform="translate(113.826 154.358)" fill="#263238"/>
  </g>
</svg>
