<svg id="computadora" xmlns="http://www.w3.org/2000/svg" width="84.192" height="84.191" viewBox="0 0 84.192 84.191">
  <path id="Trazado_216205" data-name="Trazado 216205" d="M14.4,48h5.432v2.716H14.4Zm0,0" transform="translate(-6.252 -20.841)" fill="#30610c"/>
  <path id="Trazado_216206" data-name="Trazado 216206" d="M80.118,21.727a4.079,4.079,0,0,0,4.074-4.074V4.074A4.079,4.079,0,0,0,80.118,0H61.107a4.079,4.079,0,0,0-4.074,4.074V17.653a4.079,4.079,0,0,0,4.074,4.074h4.074v2.716H62.465v2.716h6.79V40.738h-5.6a9.494,9.494,0,0,0-3.911-2.313c.007-.137.009-.27.009-.4a10.855,10.855,0,0,0-20.013-5.837,10.807,10.807,0,0,0-4.43-.952,10.924,10.924,0,0,0-10.152,7.007,9.44,9.44,0,0,0-2.866,1.14H12.221V35.306h5.432a4.079,4.079,0,0,0,4.074-4.074V4.074A4.079,4.079,0,0,0,17.653,0H4.074A4.079,4.079,0,0,0,0,4.074V31.232a4.079,4.079,0,0,0,4.074,4.074H9.505V42.1H19.4a9.453,9.453,0,0,0-1.32,2.716H12.221V59.749H6.79a4.079,4.079,0,0,0-4.074,4.074V76.044H0v4.074a4.079,4.079,0,0,0,4.074,4.074H25.8a4.079,4.079,0,0,0,4.074-4.074V76.044H27.159V63.823a4.079,4.079,0,0,0-4.074-4.074H14.937V47.527h2.716a9.518,9.518,0,0,0,9.505,9.505H57.033a9.513,9.513,0,0,0,9.4-8.148h5.54V59.749H62.465V84.191H84.192V59.749H74.686V46.169H66.424a9.4,9.4,0,0,0-.845-2.716h6.39v-16.3h6.79V24.443H76.044V21.727Zm-61.107,0H2.716V8.148h16.3ZM4.074,2.716H17.653a1.359,1.359,0,0,1,1.358,1.358V5.432H2.716V4.074A1.359,1.359,0,0,1,4.074,2.716ZM2.716,31.232v-6.79h16.3v6.79a1.359,1.359,0,0,1-1.358,1.358H4.074A1.359,1.359,0,0,1,2.716,31.232ZM27.159,80.118A1.359,1.359,0,0,1,25.8,81.476H4.074a1.359,1.359,0,0,1-1.358-1.358V78.76H27.159Zm-2.716-16.3V76.044H5.432V63.823A1.359,1.359,0,0,1,6.79,62.465h16.3A1.359,1.359,0,0,1,24.443,63.823ZM65.181,81.476V73.328h16.3v8.148Zm16.3-10.863h-16.3V62.465h16.3Zm-24.443-16.3H27.159a6.787,6.787,0,0,1-.815-13.525l.891-.107.251-.862a8.125,8.125,0,0,1,12.081-4.659l1.3.8.646-1.381a8.129,8.129,0,0,1,15.415,4.7l-.2,1.343,1.343.2a6.785,6.785,0,0,1-1.03,13.492Zm4.074-51.6H80.118a1.359,1.359,0,0,1,1.358,1.358v9.505H59.749V4.074A1.359,1.359,0,0,1,61.107,2.716ZM59.749,17.653V16.3H81.476v1.358a1.359,1.359,0,0,1-1.358,1.358H61.107A1.359,1.359,0,0,1,59.749,17.653Zm13.579,6.79H67.9V21.727h5.432Zm0,0" fill="#30610c"/>
  <path id="Trazado_216207" data-name="Trazado 216207" d="M120,115.2h2.716v2.716H120Zm0,0" transform="translate(-52.104 -50.02)" fill="#30610c"/>
  <path id="Trazado_216208" data-name="Trazado 216208" d="M134.4,134.4h2.716v2.716H134.4Zm0,0" transform="translate(-58.356 -58.356)" fill="#30610c"/>
  <path id="Trazado_216209" data-name="Trazado 216209" d="M129.6,115.2h5.432v2.716H129.6Zm0,0" transform="translate(-56.272 -50.02)" fill="#30610c"/>
  <path id="Trazado_216210" data-name="Trazado 216210" d="M120,134.4h5.432v2.716H120Zm0,0" transform="translate(-52.104 -58.356)" fill="#30610c"/>
</svg>
