<svg id="software" xmlns="http://www.w3.org/2000/svg" width="102.4" height="102.4" viewBox="0 0 102.4 102.4">
  <g id="Grupo_146136" data-name="Grupo 146136">
    <path id="Trazado_216483" data-name="Trazado 216483" d="M97.782,82.3H4.618A3.118,3.118,0,0,1,1.5,79.182V21.418A3.118,3.118,0,0,1,4.618,18.3H97.782a3.118,3.118,0,0,1,3.118,3.118V79.182A3.118,3.118,0,0,1,97.782,82.3Z" fill="#000a9b"/>
    <path id="Trazado_216484" data-name="Trazado 216484" d="M97.782,18.3h-6A3.118,3.118,0,0,1,94.9,21.418V79.182A3.118,3.118,0,0,1,91.782,82.3h6a3.118,3.118,0,0,0,3.118-3.118V21.418A3.118,3.118,0,0,0,97.782,18.3Z" fill="#000a9b"/>
    <rect id="Rectángulo_44304" data-name="Rectángulo 44304" width="52" height="87.4" transform="translate(94.9 24.3) rotate(90)" fill="#fff"/>
    <path id="Trazado_216485" data-name="Trazado 216485" d="M77,100.9H25.4a3,3,0,0,1-3-3h0a3,3,0,0,1,3-3H77a3,3,0,0,1,3,3h0A3,3,0,0,1,77,100.9Z" fill="#000a9b"/>
    <path id="Trazado_216486" data-name="Trazado 216486" d="M77,94.9H70.975a3,3,0,0,1,0,6H77a3,3,0,0,0,0-6Z" fill="#000a9b"/>
    <path id="Trazado_216487" data-name="Trazado 216487" d="M70.139,94.9H32.261A15.824,15.824,0,0,0,38.72,82.3H63.68A15.824,15.824,0,0,0,70.139,94.9Z" fill="#fff"/>
    <path id="Trazado_216488" data-name="Trazado 216488" d="M63.68,82.3H58.014a15.824,15.824,0,0,0,6.459,12.6h5.667A15.824,15.824,0,0,1,63.68,82.3Z" fill="#fff"/>
    <path id="Trazado_216489" data-name="Trazado 216489" d="M70.6,38.269V62.731L51.2,72,31.8,62.731V38.269L51.2,29Z" fill="#f67409"/>
    <path id="Trazado_216490" data-name="Trazado 216490" d="M70.6,38.269l-6,2.867L45.632,31.66,51.2,29Z" fill="#f67409"/>
    <path id="Trazado_216491" data-name="Trazado 216491" d="M51.2,47.537V72L31.8,62.731V38.269Z" fill="#54aa13"/>
    <path id="Trazado_216492" data-name="Trazado 216492" d="M51.2,47.537V72l19.4-9.269V38.269Z" fill="#fece2f"/>
    <path id="Trazado_216493" data-name="Trazado 216493" d="M70.6,38.269l-6,2.867.09,24.42,5.91-2.823Z" fill="#fece2f"/>
    <circle id="Elipse_7090" data-name="Elipse 7090" cx="3" cy="3" r="3" transform="translate(75.275 1.5)" fill="#f67409"/>
    <circle id="Elipse_7091" data-name="Elipse 7091" cx="3" cy="3" r="3" transform="translate(48.2 1.5)" fill="#f67409"/>
    <circle id="Elipse_7092" data-name="Elipse 7092" cx="3" cy="3" r="3" transform="translate(21.125 1.5)" fill="#f67409"/>
    <path id="Trazado_216494" data-name="Trazado 216494" d="M97.782,16.8H76.8a1.5,1.5,0,0,0,0,3H97.782A1.62,1.62,0,0,1,99.4,21.418V79.182A1.62,1.62,0,0,1,97.782,80.8H4.618A1.62,1.62,0,0,1,3,79.182V21.418A1.62,1.62,0,0,1,4.618,19.8H37.575v3H7.5A1.5,1.5,0,0,0,6,24.3V63.933a1.5,1.5,0,1,0,3,0V25.8H37.575v8.047l-6.422,3.068a1.51,1.51,0,0,0-.853,1.354V62.731a1.5,1.5,0,0,0,.853,1.354l19.4,9.269a1.518,1.518,0,0,0,1.293,0l10.906-5.211a1.5,1.5,0,1,0-1.293-2.707L52.7,69.621V48.483l16.4-7.835V61.786L66.872,62.85a1.5,1.5,0,1,0,1.293,2.707l3.081-1.472a1.5,1.5,0,0,0,.853-1.354V38.269a1.508,1.508,0,0,0-.853-1.354l-6.422-3.068V25.8H93.4v49H9V70.333a1.5,1.5,0,0,0-3,0V76.3a1.5,1.5,0,0,0,1.5,1.5H94.9a1.5,1.5,0,0,0,1.5-1.5v-52a1.5,1.5,0,0,0-1.5-1.5H64.825v-3H70.4a1.5,1.5,0,0,0,0-3H64.825v-3h13.45a1.5,1.5,0,0,0,1.5-1.5V8.742a4.5,4.5,0,1,0-3,0V10.8H63.325a1.5,1.5,0,0,0-1.5,1.5v4.5H52.7V8.742a4.5,4.5,0,1,0-3,0V16.8H40.575V12.3a1.5,1.5,0,0,0-1.5-1.5H25.625V8.742a4.5,4.5,0,1,0-3,0V12.3a1.5,1.5,0,0,0,1.5,1.5h13.45v3H4.618A4.624,4.624,0,0,0,0,21.418V79.182A4.624,4.624,0,0,0,4.618,83.8h32.52a14.3,14.3,0,0,1-5.365,9.6H25.4a4.5,4.5,0,0,0,0,9H77a4.5,4.5,0,0,0,0-9H70.63a14.44,14.44,0,0,1-5.368-9.6H97.782a4.624,4.624,0,0,0,4.618-4.618V21.418A4.624,4.624,0,0,0,97.782,16.8ZM78.275,3a1.5,1.5,0,1,1-1.5,1.5A1.5,1.5,0,0,1,78.275,3ZM51.2,3a1.5,1.5,0,1,1-1.5,1.5A1.5,1.5,0,0,1,51.2,3ZM24.125,3a1.5,1.5,0,1,1-1.5,1.5A1.5,1.5,0,0,1,24.125,3Zm16.45,22.8H49.7v2.254l-9.125,4.36ZM67.12,38.269,51.2,45.875,35.28,38.269,51.2,30.663ZM33.3,40.648l16.4,7.835V69.621L33.3,61.786Zm28.525-8.234L52.7,28.054V25.8h9.125Zm0-12.614v3H52.7v-3ZM49.7,19.8v3H40.575v-3ZM78.5,97.9A1.5,1.5,0,0,1,77,99.4H25.4a1.5,1.5,0,0,1,0-3H77A1.5,1.5,0,0,1,78.5,97.9ZM66.328,93.4H36.072a16.917,16.917,0,0,0,4.083-9.6H62.244A16.918,16.918,0,0,0,66.328,93.4Z"/>
  </g>
</svg>
