<svg xmlns="http://www.w3.org/2000/svg" width="102.4" height="102.397" viewBox="0 0 102.4 102.397">
  <g id="colaboracion" transform="translate(0 -0.001)">
    <g id="Grupo_146135" data-name="Grupo 146135">
      <path id="Trazado_216438" data-name="Trazado 216438" d="M92.749,79.032H81.173a8.755,8.755,0,0,0-6.058,8.328V99.313A1.586,1.586,0,0,0,76.7,100.9H97.222a1.586,1.586,0,0,0,1.586-1.586V87.36a8.755,8.755,0,0,0-6.058-8.328Z" fill="#fece2f"/>
      <path id="Trazado_216439" data-name="Trazado 216439" d="M92.749,79.032H88.871a8.755,8.755,0,0,1,6.058,8.328V100.9h2.293a1.586,1.586,0,0,0,1.586-1.586V87.36A8.754,8.754,0,0,0,92.749,79.032Z" fill="#fece2f"/>
      <path id="Trazado_216440" data-name="Trazado 216440" d="M21.228,79.032H9.651A8.755,8.755,0,0,0,3.593,87.36V99.313A1.586,1.586,0,0,0,5.179,100.9H25.7a1.586,1.586,0,0,0,1.586-1.586V87.36A8.755,8.755,0,0,0,21.228,79.032Z" fill="#54aa13"/>
      <path id="Trazado_216441" data-name="Trazado 216441" d="M21.228,79.032H17.349a8.755,8.755,0,0,1,6.058,8.328V100.9H25.7a1.586,1.586,0,0,0,1.586-1.586V87.36a8.754,8.754,0,0,0-6.058-8.328Z" fill="#54aa13"/>
      <path id="Trazado_216442" data-name="Trazado 216442" d="M59.882,77.526H42.518a3.164,3.164,0,0,1-3.164-3.164V66.1a11.846,11.846,0,1,1,23.692,0v8.266A3.164,3.164,0,0,1,59.882,77.526Z" fill="#f67409"/>
      <path id="Trazado_216443" data-name="Trazado 216443" d="M51.2,54.25a11.9,11.9,0,0,0-2.035.178A11.847,11.847,0,0,1,58.977,66.1v8.266a3.164,3.164,0,0,1-3.164,3.164h4.069a3.164,3.164,0,0,0,3.164-3.164V66.1A11.846,11.846,0,0,0,51.2,54.25Z" fill="#f67409"/>
      <path id="Trazado_216444" data-name="Trazado 216444" d="M18.652,54.25H12.226c-4.585,0-8.319,4.37-8.356,9.793-.034,4.875-.569,9.769-2.37,12.73a44.138,44.138,0,0,0,27.878,0c-1.8-2.961-2.336-7.855-2.37-12.73C26.971,58.619,23.238,54.25,18.652,54.25Z" fill="#365e7d"/>
      <path id="Trazado_216445" data-name="Trazado 216445" d="M22.963,65.349c.029,4.694.42,9.4,1.641,12.771a33.833,33.833,0,0,0,4.775-1.347c-1.8-2.961-2.336-7.855-2.37-12.73-.037-5.423-3.771-9.793-8.356-9.793H14.606c4.586,0,8.319,4.953,8.357,11.1Z" fill="#2b4d66"/>
      <path id="Trazado_216446" data-name="Trazado 216446" d="M15.439,86.591a2.53,2.53,0,0,1-2.53-2.53V79.155h5.06v4.906a2.53,2.53,0,0,1-2.53,2.53Z" fill="#ffcbbe"/>
      <path id="Trazado_216447" data-name="Trazado 216447" d="M15.439,81.434a8.177,8.177,0,0,1-8.177-8.177V66.474a.382.382,0,0,1,.411-.38c3.765.261,7.9-.186,10.031-1.673a.378.378,0,0,1,.463.023A6.355,6.355,0,0,0,23.2,66.108a.382.382,0,0,1,.417.379v6.77A8.177,8.177,0,0,1,15.439,81.434Z" fill="#ffddce"/>
      <path id="Trazado_216448" data-name="Trazado 216448" d="M23.2,66.107a6.377,6.377,0,0,1-3.252-.5v7.649A8.178,8.178,0,0,1,13.6,81.224a8.174,8.174,0,0,0,10.012-7.968v-6.77A.383.383,0,0,0,23.2,66.107Z" fill="#ffcbbe"/>
      <path id="Trazado_216449" data-name="Trazado 216449" d="M56.988,79.032H45.412a8.755,8.755,0,0,0-6.058,8.328V99.313a1.586,1.586,0,0,0,1.586,1.586H61.461a1.586,1.586,0,0,0,1.586-1.586V87.36A8.755,8.755,0,0,0,56.988,79.032Z" fill="#fff"/>
      <path id="Trazado_216450" data-name="Trazado 216450" d="M56.988,79.032H53.11a8.755,8.755,0,0,1,6.058,8.328V100.9H61.46a1.586,1.586,0,0,0,1.586-1.586V87.36A8.754,8.754,0,0,0,56.988,79.032Z" fill="#fff"/>
      <path id="Trazado_216451" data-name="Trazado 216451" d="M51.2,86.591a2.53,2.53,0,0,1-2.53-2.53V79.155h5.06v4.906a2.53,2.53,0,0,1-2.53,2.53Z" fill="#ffcbbe"/>
      <path id="Trazado_216452" data-name="Trazado 216452" d="M51.2,81.434a8.177,8.177,0,0,1-8.177-8.177V66.474a.382.382,0,0,1,.411-.38c3.765.261,7.9-.186,10.031-1.673a.378.378,0,0,1,.463.023,6.355,6.355,0,0,0,5.033,1.664.382.382,0,0,1,.417.379v6.77A8.177,8.177,0,0,1,51.2,81.434Z" fill="#ffddce"/>
      <path id="Trazado_216453" data-name="Trazado 216453" d="M58.96,66.107a6.377,6.377,0,0,1-3.252-.5v7.649a8.178,8.178,0,0,1-6.343,7.968,8.174,8.174,0,0,0,10.012-7.968v-6.77A.382.382,0,0,0,58.96,66.107Z" fill="#ffcbbe"/>
      <path id="Trazado_216454" data-name="Trazado 216454" d="M90.174,54.25H83.748c-4.585,0-8.319,4.37-8.356,9.793-.034,4.875-.569,9.769-2.37,12.73a44.138,44.138,0,0,0,27.878,0c-1.8-2.961-2.336-7.855-2.37-12.73C98.493,58.619,94.759,54.25,90.174,54.25Z" fill="#365e7d"/>
      <path id="Trazado_216455" data-name="Trazado 216455" d="M94.485,65.349c.029,4.694.42,9.4,1.641,12.771a33.833,33.833,0,0,0,4.775-1.347c-1.8-2.961-2.336-7.855-2.37-12.73-.037-5.423-3.771-9.793-8.356-9.793H86.128C90.714,54.25,94.447,59.2,94.485,65.349Z" fill="#2b4d66"/>
      <path id="Trazado_216456" data-name="Trazado 216456" d="M86.961,86.591a2.53,2.53,0,0,1-2.53-2.53V79.155h5.06v4.906a2.53,2.53,0,0,1-2.53,2.53Z" fill="#ffcbbe"/>
      <path id="Trazado_216457" data-name="Trazado 216457" d="M86.961,81.434a8.177,8.177,0,0,1-8.177-8.177V66.474a.382.382,0,0,1,.411-.38c3.765.261,7.9-.186,10.031-1.673a.378.378,0,0,1,.463.023,6.355,6.355,0,0,0,5.033,1.664.382.382,0,0,1,.417.379v6.77A8.177,8.177,0,0,1,86.961,81.434Z" fill="#ffddce"/>
      <path id="Trazado_216458" data-name="Trazado 216458" d="M94.721,66.107a6.377,6.377,0,0,1-3.252-.5v7.649a8.178,8.178,0,0,1-6.343,7.968,8.174,8.174,0,0,0,10.012-7.968v-6.77A.383.383,0,0,0,94.721,66.107Z" fill="#ffcbbe"/>
      <path id="Trazado_216459" data-name="Trazado 216459" d="M96.963,1.5H5.438A3.938,3.938,0,0,0,1.5,5.439V37.057a3.937,3.937,0,0,0,3.937,3.937h3.7a1.491,1.491,0,0,1,1.217.629l3.864,5.451a1.492,1.492,0,0,0,2.434,0l3.864-5.451a1.491,1.491,0,0,1,1.217-.629H44.9a1.491,1.491,0,0,1,1.217.629l3.864,5.451a1.492,1.492,0,0,0,2.434,0l3.864-5.451a1.492,1.492,0,0,1,1.217-.629H80.664a1.491,1.491,0,0,1,1.217.629l3.864,5.451a1.492,1.492,0,0,0,2.434,0l3.864-5.451a1.492,1.492,0,0,1,1.217-.629h3.7a3.937,3.937,0,0,0,3.937-3.937V5.439A3.938,3.938,0,0,0,96.963,1.5Z" fill="#fff"/>
      <g id="Grupo_146132" data-name="Grupo 146132">
        <path id="Trazado_216460" data-name="Trazado 216460" d="M96.963,1.5h-5.5A3.937,3.937,0,0,1,95.4,5.439V38.857a3.914,3.914,0,0,1-.634,2.137h2.2a3.937,3.937,0,0,0,3.937-3.937V5.439A3.937,3.937,0,0,0,96.963,1.5Z" fill="#fff"/>
      </g>
      <g id="Grupo_146133" data-name="Grupo 146133">
        <path id="Trazado_216461" data-name="Trazado 216461" d="M81.175,17a4.175,4.175,0,0,1,3.784,5.953l5.9,5.6a12.17,12.17,0,0,0-9.687-19.54q-.32,0-.637.017Z" fill="#54aa13"/>
        <path id="Trazado_216462" data-name="Trazado 216462" d="M81.175,9.013q-.32,0-.637.017l.027.343a14.432,14.432,0,0,1,6.691,15.763l3.605,3.418A12.171,12.171,0,0,0,81.175,9.013Z" fill="#54aa13"/>
        <path id="Trazado_216463" data-name="Trazado 216463" d="M76.993,21.185A4.182,4.182,0,0,1,81.175,17l-.637-7.974a12.173,12.173,0,0,0-6.646,21.91l4.418-6.714a4.167,4.167,0,0,1-1.317-3.041Z" fill="#2432ff"/>
        <path id="Trazado_216464" data-name="Trazado 216464" d="M84.959,22.956a4.172,4.172,0,0,1-6.649,1.27L73.893,30.94a12.172,12.172,0,0,0,16.97-2.387Z" fill="#fece2f"/>
        <path id="Trazado_216465" data-name="Trazado 216465" d="M87.257,25.135a14.445,14.445,0,0,1-5.369,8.2,12.153,12.153,0,0,0,8.975-4.783Z" fill="#fece2f"/>
      </g>
      <path id="Trazado_216466" data-name="Trazado 216466" d="M16.685,27.92H10.608a.746.746,0,0,1-.746-.746V18.8a.746.746,0,0,1,.746-.746h6.077a.746.746,0,0,1,.746.746v8.378A.746.746,0,0,1,16.685,27.92Z" fill="#fece2f"/>
      <path id="Trazado_216467" data-name="Trazado 216467" d="M16.685,18.049H13.534a.746.746,0,0,1,.746.746v8.378a.746.746,0,0,1-.746.746h3.151a.746.746,0,0,0,.746-.746V18.8a.746.746,0,0,0-.746-.746Z" fill="#fece2f"/>
      <path id="Trazado_216468" data-name="Trazado 216468" d="M29.985,27.92H23.908a.746.746,0,0,1-.746-.746V16.8a.746.746,0,0,1,.746-.746h6.077a.746.746,0,0,1,.746.746V27.174A.746.746,0,0,1,29.985,27.92Z" fill="#54aa13"/>
      <path id="Trazado_216469" data-name="Trazado 216469" d="M29.985,16.049h-2.9a.746.746,0,0,1,.746.746V27.174a.746.746,0,0,1-.746.746h2.9a.746.746,0,0,0,.746-.746V16.8a.746.746,0,0,0-.746-.746Z" fill="#54aa13"/>
      <path id="Trazado_216470" data-name="Trazado 216470" d="M43.285,27.92H37.208a.746.746,0,0,1-.746-.746V12.8a.746.746,0,0,1,.746-.746h6.077a.746.746,0,0,1,.746.746V27.174A.746.746,0,0,1,43.285,27.92Z" fill="#2432ff"/>
      <path id="Trazado_216471" data-name="Trazado 216471" d="M43.285,12.049H40.207a.746.746,0,0,1,.746.746V27.173a.746.746,0,0,1-.746.746h3.077a.746.746,0,0,0,.746-.746V12.8a.746.746,0,0,0-.746-.746Z" fill="#2432ff"/>
      <g id="Grupo_146134" data-name="Grupo 146134">
        <path id="Trazado_216472" data-name="Trazado 216472" d="M28.509,64.032c-.043-6.221-4.464-11.283-9.856-11.283H12.226c-5.392,0-9.814,5.062-9.856,11.283C2.331,69.685,1.607,73.71.218,75.994a1.5,1.5,0,0,0,.763,2.187,34.953,34.953,0,0,0,4.732,1.353A10.224,10.224,0,0,0,2.093,87.36V99.313A3.089,3.089,0,0,0,5.178,102.4H9.91a1.5,1.5,0,0,0,0-3H5.179a.086.086,0,0,1-.086-.086V87.36a7.229,7.229,0,0,1,4.244-6.6,9.7,9.7,0,0,0,2.072,1.291v2.01a4.03,4.03,0,1,0,8.06,0v-2.01a9.7,9.7,0,0,0,2.072-1.291,7.229,7.229,0,0,1,4.244,6.6V99.313a.086.086,0,0,1-.086.086H15.908a1.5,1.5,0,0,0,0,3H25.7a3.089,3.089,0,0,0,3.086-3.086V87.36a10.224,10.224,0,0,0-3.621-7.826A34.915,34.915,0,0,0,29.9,78.181a1.5,1.5,0,0,0,.763-2.187c-1.389-2.284-2.112-6.308-2.151-11.961Zm-6.392,9.224a6.677,6.677,0,0,1-13.354,0V67.647c2.261.063,6.312-.069,9.072-1.552a7.658,7.658,0,0,0,4.282,1.531v5.63Zm-5.647,10.8a1.03,1.03,0,1,1-2.06,0V82.878a9.6,9.6,0,0,0,2.06,0Zm8.049-7.455a9.631,9.631,0,0,0,.6-3.349v-6.77a1.882,1.882,0,0,0-2.045-1.874,4.87,4.87,0,0,1-3.93-1.309,1.879,1.879,0,0,0-2.3-.114c-1.615,1.125-5.175,1.678-9.069,1.408a1.882,1.882,0,0,0-2.015,1.877v6.782a9.631,9.631,0,0,0,.6,3.349Q4.931,76.3,3.61,75.9C4.756,73.122,5.334,69.22,5.37,64.053c.031-4.579,3.107-8.3,6.856-8.3h6.426c3.749,0,6.825,3.725,6.856,8.3.036,5.167.613,9.069,1.759,11.846q-1.318.4-2.75.707Z"/>
        <path id="Trazado_216473" data-name="Trazado 216473" d="M51.2,52.75a13.258,13.258,0,0,0-5.983,1.422,1.5,1.5,0,0,0-2.964-.234l-.211.989-.022-.016a1.5,1.5,0,0,0-1.79,2.407l.572.425A13.28,13.28,0,0,0,37.854,66.1v8.266a4.669,4.669,0,0,0,4.3,4.648,10.222,10.222,0,0,0-4.3,8.35V99.313A3.089,3.089,0,0,0,40.94,102.4H61.461a3.089,3.089,0,0,0,3.086-3.086V87.36a10.222,10.222,0,0,0-4.3-8.35,4.669,4.669,0,0,0,4.3-4.648V66.1A13.362,13.362,0,0,0,51.2,52.75Zm6.677,20.507a6.677,6.677,0,0,1-13.354,0V67.647c2.263.063,6.312-.07,9.072-1.552a7.658,7.658,0,0,0,4.282,1.531v5.63ZM50.17,82.878a9.6,9.6,0,0,0,2.06,0v1.183a1.03,1.03,0,1,1-2.06,0ZM61.546,99.313a.086.086,0,0,1-.086.086H40.939a.086.086,0,0,1-.086-.086V87.36a7.229,7.229,0,0,1,4.244-6.6,9.685,9.685,0,0,0,2.072,1.291v2.01a4.03,4.03,0,1,0,8.06,0v-2.01A9.69,9.69,0,0,0,57.3,80.76a7.229,7.229,0,0,1,4.244,6.6V99.313Zm0-24.951a1.666,1.666,0,0,1-1.04,1.542,9.646,9.646,0,0,0,.371-2.647v-6.77a1.882,1.882,0,0,0-2.045-1.874A4.871,4.871,0,0,1,54.9,63.3a1.879,1.879,0,0,0-2.3-.114c-1.615,1.125-5.175,1.678-9.069,1.408a1.882,1.882,0,0,0-2.015,1.877v6.782a9.645,9.645,0,0,0,.371,2.647,1.666,1.666,0,0,1-1.04-1.542V66.1a10.346,10.346,0,1,1,20.692,0v8.266Z"/>
        <path id="Trazado_216474" data-name="Trazado 216474" d="M100.03,64.032c-.043-6.221-4.464-11.283-9.856-11.283H83.748c-5.392,0-9.814,5.062-9.856,11.283-.039,5.653-.763,9.677-2.151,11.961a1.5,1.5,0,0,0,.763,2.187,34.953,34.953,0,0,0,4.732,1.353,10.224,10.224,0,0,0-3.621,7.826V99.313A3.089,3.089,0,0,0,76.7,102.4H97.221a3.089,3.089,0,0,0,3.086-3.086V93.519a1.5,1.5,0,0,0-3,0v5.794a.086.086,0,0,1-.086.086H76.7a.086.086,0,0,1-.086-.086V87.36a7.23,7.23,0,0,1,4.244-6.6,9.694,9.694,0,0,0,2.072,1.291v2.01a4.03,4.03,0,0,0,8.06,0v-2.01a9.7,9.7,0,0,0,2.072-1.291,7.23,7.23,0,0,1,4.244,6.6v.162a1.5,1.5,0,1,0,3,0V87.36a10.224,10.224,0,0,0-3.621-7.826,34.961,34.961,0,0,0,4.732-1.353,1.5,1.5,0,0,0,.763-2.187c-1.388-2.284-2.112-6.309-2.151-11.961Zm-6.392,3.595v5.629a6.677,6.677,0,0,1-13.354,0V67.647c2.262.062,6.31-.07,9.072-1.552A7.658,7.658,0,0,0,93.638,67.627ZM87.991,84.061a1.03,1.03,0,0,1-2.06,0V82.878a9.606,9.606,0,0,0,2.06,0Zm8.049-7.455a9.631,9.631,0,0,0,.6-3.349v-6.77a1.882,1.882,0,0,0-2.045-1.874A4.866,4.866,0,0,1,90.664,63.3a1.877,1.877,0,0,0-2.3-.114c-1.615,1.125-5.175,1.677-9.07,1.408a1.882,1.882,0,0,0-2.015,1.877v6.782a9.631,9.631,0,0,0,.6,3.349q-1.429-.306-2.75-.707c1.146-2.777,1.724-6.679,1.759-11.846.031-4.579,3.107-8.3,6.856-8.3h6.426c3.749,0,6.825,3.725,6.856,8.3.036,5.167.613,9.069,1.759,11.846Q97.471,76.3,96.04,76.606Z"/>
        <path id="Trazado_216475" data-name="Trazado 216475" d="M81.175,34.858A13.673,13.673,0,1,0,80.46,7.531h0a13.672,13.672,0,0,0,.716,27.326ZM78.493,21.185a2.679,2.679,0,1,1,2.682,2.682,2.685,2.685,0,0,1-2.682-2.682Zm2.682,10.672a10.58,10.58,0,0,1-5.2-1.35l2.76-4.194a5.664,5.664,0,0,0,6.434-1.094l3.627,3.439a10.582,10.582,0,0,1-7.619,3.2ZM91.848,21.185a10.57,10.57,0,0,1-1.262,5.039l-3.892-3.69a5.687,5.687,0,0,0-4.119-6.856l-.409-5.119a10.687,10.687,0,0,1,9.682,10.627Zm-21.345,0A10.666,10.666,0,0,1,79.167,10.7l.4,5.034a5.674,5.674,0,0,0-3.121,8.594L73.58,28.687a10.572,10.572,0,0,1-3.077-7.5Z"/>
        <path id="Trazado_216476" data-name="Trazado 216476" d="M8.362,18.8v8.378a2.249,2.249,0,0,0,2.246,2.246h6.077a2.249,2.249,0,0,0,2.246-2.246V18.8a2.249,2.249,0,0,0-2.246-2.246H10.608A2.248,2.248,0,0,0,8.362,18.8Zm3,.754h4.569v6.87H11.362Z"/>
        <path id="Trazado_216477" data-name="Trazado 216477" d="M23.908,29.42h6.077a2.249,2.249,0,0,0,2.246-2.246V16.8a2.249,2.249,0,0,0-2.246-2.246H23.908A2.249,2.249,0,0,0,21.662,16.8V27.174a2.249,2.249,0,0,0,2.246,2.246Zm.754-11.87h4.569v8.87H24.662Z"/>
        <path id="Trazado_216478" data-name="Trazado 216478" d="M43.285,29.42a2.249,2.249,0,0,0,2.246-2.246V12.8a2.249,2.249,0,0,0-2.246-2.246H37.208A2.249,2.249,0,0,0,34.962,12.8V27.174a2.249,2.249,0,0,0,2.246,2.246Zm-5.323-15.87h4.569V26.42H37.962Z"/>
        <path id="Trazado_216479" data-name="Trazado 216479" d="M51.463,16.149h8.612a1.5,1.5,0,0,0,0-3H51.463a1.5,1.5,0,0,0,0,3Z"/>
        <path id="Trazado_216480" data-name="Trazado 216480" d="M51.463,21.485h8.612a1.5,1.5,0,0,0,0-3H51.463a1.5,1.5,0,0,0,0,3Z"/>
        <path id="Trazado_216481" data-name="Trazado 216481" d="M51.463,26.82h8.612a1.5,1.5,0,0,0,0-3H51.463a1.5,1.5,0,0,0,0,3Z"/>
        <path id="Trazado_216482" data-name="Trazado 216482" d="M96.963,0H16.533a1.5,1.5,0,0,0,0,3h80.43A2.44,2.44,0,0,1,99.4,5.439V37.057a2.44,2.44,0,0,1-2.437,2.438h-3.7a3,3,0,0,0-2.44,1.262l-3.85,5.451L83.1,40.756a3,3,0,0,0-2.44-1.261H57.5a3,3,0,0,0-2.44,1.262l-3.85,5.451-3.864-5.451A3,3,0,0,0,44.9,39.495H21.737a3,3,0,0,0-2.44,1.262l-3.85,5.451-3.864-5.451a3,3,0,0,0-2.44-1.261h-3.7A2.44,2.44,0,0,1,3,37.057V5.439A2.44,2.44,0,0,1,5.438,3h5.1a1.5,1.5,0,0,0,0-3h-5.1A5.444,5.444,0,0,0,0,5.439V37.057a5.444,5.444,0,0,0,5.438,5.438l3.7,0L13,47.942a2.991,2.991,0,0,0,4.881,0l3.857-5.447,23.159,0,3.864,5.451a2.991,2.991,0,0,0,4.881,0L57.5,42.494l23.159,0,3.864,5.451a2.991,2.991,0,0,0,4.881,0l3.857-5.447h3.7a5.444,5.444,0,0,0,5.437-5.438V5.439A5.443,5.443,0,0,0,96.963,0Z"/>
      </g>
    </g>
  </g>
</svg>
