<svg xmlns="http://www.w3.org/2000/svg" width="110.765" height="83.824" viewBox="0 0 110.765 83.824">
  <g id="supervisado_1_" data-name="supervisado (1)" transform="translate(0 -12.425)">
    <g id="Grupo_146137" data-name="Grupo 146137" transform="translate(1.5 13.925)">
      <ellipse id="Elipse_7093" data-name="Elipse 7093" cx="53.883" cy="30.309" rx="53.883" ry="30.309" transform="translate(0 20.206)" fill="#f2fbff"/>
      <circle id="Elipse_7094" data-name="Elipse 7094" cx="23.574" cy="23.574" r="23.574" transform="translate(30.309 31.278)" fill="#dff6fd"/>
      <path id="Trazado_216495" data-name="Trazado 216495" d="M75.132,36.8c14.26,8.3,23.626,19.646,23.626,21.375,0,2.775-24.124,30.309-53.883,30.309a55.984,55.984,0,0,1-21.583-4.6c8.625,5.023,19.041,8.934,30.256,8.934,29.759,0,53.883-27.534,53.883-30.309C107.431,60.455,94.146,44.761,75.132,36.8Z" transform="translate(0.334 -12)" fill="#dff6fd"/>
      <circle id="Elipse_7095" data-name="Elipse 7095" cx="23.574" cy="23.574" r="23.574" transform="translate(30.309 26.941)" fill="#54aa13"/>
      <path id="Trazado_216496" data-name="Trazado 216496" d="M58.308,39.479A23.582,23.582,0,0,1,37.692,80.763,23.576,23.576,0,1,0,58.308,39.479Z" transform="translate(1.546 -11.775)" fill="#54aa13"/>
      <circle id="Elipse_7096" data-name="Elipse 7096" cx="16.838" cy="16.838" r="16.838" transform="translate(37.044 33.677)" fill="#8a92ff"/>
      <path id="Trazado_216497" data-name="Trazado 216497" d="M50.06,64.084,48.446,62.47a3.368,3.368,0,0,0-4.762,0h0a3.368,3.368,0,0,0,0,4.762l4.763,4.763a3.368,3.368,0,0,0,4.762,0l6.94-6.94a3.368,3.368,0,0,0,0-4.762h0a3.368,3.368,0,0,0-4.762,0l-3.792,3.792A1.084,1.084,0,0,1,50.06,64.084Z" transform="translate(1.967 -10.106)" fill="#000a9b"/>
      <path id="Trazado_216498" data-name="Trazado 216498" d="M67.89,61.18a16.761,16.761,0,0,0-2.307-8.512A23.614,23.614,0,0,1,52.967,77.91,16.841,16.841,0,0,0,67.89,61.18Z" transform="translate(2.831 -10.665)" fill="#000a9b"/>
      <path id="Trazado_216499" data-name="Trazado 216499" d="M50.827,60.851,48.446,58.47a3.368,3.368,0,0,0-4.762,0h0a3.368,3.368,0,0,0,0,4.762l4.763,4.763a3.368,3.368,0,0,0,4.762,0l6.94-6.94a3.368,3.368,0,0,0,0-4.762h0a3.368,3.368,0,0,0-4.762,0Z" transform="translate(1.967 -10.443)" fill="#54aa13"/>
      <path id="Trazado_216500" data-name="Trazado 216500" d="M51.461,27.4h0a3.368,3.368,0,0,1-3.368-3.368V17.293a3.368,3.368,0,0,1,3.368-3.368h0a3.368,3.368,0,0,1,3.368,3.368v6.735A3.368,3.368,0,0,1,51.461,27.4Z" transform="translate(2.421 -13.925)" fill="#fece2f"/>
      <path id="Trazado_216501" data-name="Trazado 216501" d="M37.875,29.149h0a3.368,3.368,0,0,1-4.6-1.233l-3.368-5.833a3.368,3.368,0,0,1,1.233-4.6h0a3.368,3.368,0,0,1,4.6,1.233l3.368,5.833A3.368,3.368,0,0,1,37.875,29.149Z" transform="translate(0.853 -13.664)" fill="#fece2f"/>
      <path id="Trazado_216502" data-name="Trazado 216502" d="M65.309,29.149h0a3.368,3.368,0,0,0,4.6-1.233l3.368-5.833a3.368,3.368,0,0,0-1.233-4.6h0a3.368,3.368,0,0,0-4.6,1.233l-3.368,5.833A3.368,3.368,0,0,0,65.309,29.149Z" transform="translate(3.728 -13.664)" fill="#fece2f"/>
      <path id="Trazado_216503" data-name="Trazado 216503" d="M27.082,40.394c8.225-4.481,17.92-7.832,28.3-7.832,29.759,0,53.883,27.534,53.883,30.309S85.141,93.18,55.383,93.18,1.5,65.647,1.5,62.871c0-1.532,7.349-10.606,18.939-18.43" transform="translate(-1.5 -12.357)" fill="none" stroke="#000" stroke-linecap="round" stroke-linejoin="round" stroke-miterlimit="10" stroke-width="3"/>
      <path id="Trazado_216504" data-name="Trazado 216504" d="M35.972,78.62a23.516,23.516,0,1,1,6.461,4.792" transform="translate(0.853 -11.834)" fill="none" stroke="#000" stroke-linecap="round" stroke-linejoin="round" stroke-miterlimit="10" stroke-width="3"/>
      <path id="Trazado_216505" data-name="Trazado 216505" d="M65.979,51.723a16.813,16.813,0,1,1-5.8-4.889" transform="translate(1.375 -11.311)" fill="none" stroke="#000" stroke-linecap="round" stroke-linejoin="round" stroke-miterlimit="10" stroke-width="3"/>
      <path id="Trazado_216506" data-name="Trazado 216506" d="M50.827,60.851,48.446,58.47a3.368,3.368,0,0,0-4.762,0h0a3.368,3.368,0,0,0,0,4.762l4.763,4.763a3.368,3.368,0,0,0,4.762,0l6.94-6.94a3.368,3.368,0,0,0,0-4.762h0a3.368,3.368,0,0,0-4.762,0Z" transform="translate(1.967 -10.443)" fill="none" stroke="#000" stroke-linecap="round" stroke-linejoin="round" stroke-miterlimit="10" stroke-width="3"/>
      <path id="Trazado_216507" data-name="Trazado 216507" d="M51.461,27.4h0a3.368,3.368,0,0,1-3.368-3.368V17.293a3.368,3.368,0,0,1,3.368-3.368h0a3.368,3.368,0,0,1,3.368,3.368v6.735A3.368,3.368,0,0,1,51.461,27.4Z" transform="translate(2.421 -13.925)" fill="none" stroke="#000" stroke-linecap="round" stroke-linejoin="round" stroke-miterlimit="10" stroke-width="3"/>
      <path id="Trazado_216508" data-name="Trazado 216508" d="M37.875,29.149h0a3.368,3.368,0,0,1-4.6-1.233l-3.368-5.833a3.368,3.368,0,0,1,1.233-4.6h0a3.368,3.368,0,0,1,4.6,1.233l3.368,5.833A3.368,3.368,0,0,1,37.875,29.149Z" transform="translate(0.853 -13.664)" fill="none" stroke="#000" stroke-linecap="round" stroke-linejoin="round" stroke-miterlimit="10" stroke-width="3"/>
      <path id="Trazado_216509" data-name="Trazado 216509" d="M65.309,29.149h0a3.368,3.368,0,0,0,4.6-1.233l3.368-5.833a3.368,3.368,0,0,0-1.233-4.6h0a3.368,3.368,0,0,0-4.6,1.233l-3.368,5.833A3.368,3.368,0,0,0,65.309,29.149Z" transform="translate(3.728 -13.664)" fill="none" stroke="#000" stroke-linecap="round" stroke-linejoin="round" stroke-miterlimit="10" stroke-width="3"/>
    </g>
  </g>
</svg>
