<svg xmlns="http://www.w3.org/2000/svg" width="70.024" height="70" viewBox="0 0 70.024 70">
  <g id="Grupo_145588" data-name="Grupo 145588" transform="translate(-559.58 -140.42)">
    <path id="Trazado_152962" data-name="Trazado 152962" d="M628.772,210.42H609.355a1.74,1.74,0,0,1-.785-1.679c.03-1.91.012-3.821.008-5.732,0-.239-.027-.478-.04-.708H595.8v2.242c.243.012.443.029.643.032,1.13.015,1.362.183,1.722,1.253.3.9.612,1.807.912,2.712.317.96.188,1.314-.666,1.881h-7.657c-.855-.566-.983-.921-.666-1.883s.64-1.944.969-2.913a1.288,1.288,0,0,1,1.469-1.047c.284-.005.567,0,.829,0v-2.334H563.922c-1.8,0-2.012-.207-2.012-1.979V159.531q0-4.921-.008-9.841c0-.229-.027-.575-.172-.669a5.442,5.442,0,0,1-2.151-3.128v-1.64c1.321-3.164,2.337-3.828,5.856-3.828h56.726c.957,0,1.914-.013,2.871.006a4.61,4.61,0,0,1,4.317,3.2,4.541,4.541,0,0,1-1.591,5.121,1.161,1.161,0,0,0-.506,1.072q.019,18.824.01,37.649v.767c.231.01.385.022.54.024,1.525.022,1.79.287,1.79,1.791,0,6.263-.008,12.527.012,18.79A1.592,1.592,0,0,1,628.772,210.42ZM608.58,199.879c0-1.419-.025-2.763.01-4.1a1.185,1.185,0,0,0-.872-1.275c-3.476-1.415-6.936-2.868-10.407-4.3a2.9,2.9,0,0,1-1.748-1.714,2.787,2.787,0,0,1,.607-3.044,2.954,2.954,0,0,1,3.315-.785q3.967,1.368,7.938,2.728a10.143,10.143,0,0,0,2.656.833c2.673.111,5.353.04,7.88.04a15.215,15.215,0,0,1-2.218-1.317c-3.044-2.534-3.327-7.8-.634-10.784a5.157,5.157,0,0,1,8.14.2,8.242,8.242,0,0,1,1.645,3.886V149.784h-60.6v50.094Zm-13.991-52.465h29.73c.274,0,.548.009.82-.011a2.308,2.308,0,0,0,2.038-2.884,2.392,2.392,0,0,0-2.657-1.764h-59.87a5.834,5.834,0,0,0-.615.014,2.322,2.322,0,0,0-1.873,3.343,2.37,2.37,0,0,0,2.354,1.31Q579.552,147.4,594.588,147.414Zm16.33,60.62h16.3V190.593h-.851q-8.067,0-16.133-.008a3.619,3.619,0,0,1-1.136-.166c-2.8-.944-5.6-1.913-8.392-2.874-.667-.229-1.334-.455-2-.689-.44-.155-.837-.026-.928.4-.047.222.24.551.44.776.122.138.364.171.554.25L608.99,192.5a3.07,3.07,0,0,1,1.929,2.851q0,5.912,0,11.824Zm4.685-26.992a5.385,5.385,0,0,0,1.272,3.813,2.833,2.833,0,0,0,4.372.068,5.677,5.677,0,0,0-.076-7.412,2.817,2.817,0,0,0-4.136-.014A4.945,4.945,0,0,0,615.6,181.041Zm9.329,7.195v-5.7c-.656,2.729-1.994,4.82-5,5.7ZM596.37,208.072c-.138-1.132-.169-1.161-1.218-1.161h-1.161c-1.021,0-1.106.084-1.162,1.161Z" transform="translate(0 0)" fill="#30610c"/>
    <path id="Trazado_152965" data-name="Trazado 152965" d="M594.434,185.266c.548.88,1.106,1.709,1.588,2.58a2.883,2.883,0,0,1,.371,1.272c.041,1.731.022,3.463.016,5.194,0,1.033-.423,1.452-1.456,1.455-1.818.006-3.635,0-5.494,0v-2.306h4.61a24.716,24.716,0,0,0-.064-4.28,8.423,8.423,0,0,0-1.406-2.475c-1.292.506-2.5,1.089-3.775,1.461a15.155,15.155,0,1,1-2.884-29.687,14.592,14.592,0,0,1,8.4,3.426.828.828,0,0,0,1.076.149,11.122,11.122,0,0,1,6.376-1.3c1.267.1,2.549.017,3.881.017v2.33h-.915c-1.39,0-2.787.086-4.169-.023a7.918,7.918,0,0,0-4.009,1.046,15.195,15.195,0,0,1-2.146,21.142ZM592.32,163.34a12.705,12.705,0,0,0-14.649-.464,12.845,12.845,0,0,0-5.156,14.63,12.611,12.611,0,0,0,11.05,8.8v-.739q0-5.738,0-11.477c0-1.307.358-1.667,1.658-1.667h12.286a13.088,13.088,0,0,0-2.764-6.843.758.758,0,0,0-1.073-.286c-2.212.956-4.442,1.87-6.667,2.8-.6.248-1.2.484-1.827.737l-.884-2.134Zm-1.062,21.276-2.843-4.563,1.982-1.227,2.752,4.387c2.383-1.859,4.571-6.21,4.259-8.416H585.932v11.565A12.527,12.527,0,0,0,591.259,184.616Z" transform="translate(-4.154 -7.506)" fill="#30610c"/>
    <path id="Trazado_152966" data-name="Trazado 152966" d="M588.263,228.489v2.258H569.7v-2.258Z" transform="translate(-4.217 -36.695)" fill="#30610c"/>
    <path id="Trazado_152967" data-name="Trazado 152967" d="M588.255,236.507v2.255H569.7v-2.255Z" transform="translate(-4.215 -40.036)" fill="#30610c"/>
    <path id="Trazado_152968" data-name="Trazado 152968" d="M588.241,220.5v2.227H569.676V220.5Z" transform="translate(-4.207 -33.366)" fill="#30610c"/>
    <path id="Trazado_152969" data-name="Trazado 152969" d="M588.26,212.482v2.246H569.7v-2.246Z" transform="translate(-4.216 -30.026)" fill="#30610c"/>
    <path id="Trazado_152970" data-name="Trazado 152970" d="M637.658,164.745v-2.23h17.434v2.23Z" transform="translate(-32.532 -9.206)" fill="#30610c"/>
    <path id="Trazado_152971" data-name="Trazado 152971" d="M637.66,172.73v-2.235H655.1v2.235Z" transform="translate(-32.533 -12.531)" fill="#30610c"/>
    <path id="Trazado_152972" data-name="Trazado 152972" d="M637.67,180.733V178.48h17.418v2.253Z" transform="translate(-32.537 -15.858)" fill="#30610c"/>
    <path id="Trazado_152973" data-name="Trazado 152973" d="M655.1,186.49v2.235H637.673V186.49Z" transform="translate(-32.539 -19.196)" fill="#30610c"/>
    <path id="Trazado_152974" data-name="Trazado 152974" d="M636.1,206.518v2.246H625.715v-2.246Z" transform="translate(-27.556 -27.541)" fill="#30610c"/>
    <path id="Trazado_152975" data-name="Trazado 152975" d="M625.668,202.75v-2.245h10.4v2.245Z" transform="translate(-27.536 -25.035)" fill="#30610c"/>
    <path id="Trazado_152976" data-name="Trazado 152976" d="M625.677,194.484h10.4v2.247h-10.4Z" transform="translate(-27.54 -22.526)" fill="#30610c"/>
    <path id="Trazado_152977" data-name="Trazado 152977" d="M613.743,232.755h-8.107v-2.242h8.107Z" transform="translate(-19.19 -37.538)" fill="#30610c"/>
    <path id="Trazado_152978" data-name="Trazado 152978" d="M613.728,226.754h-8.079v-2.248h8.079Z" transform="translate(-19.195 -35.035)" fill="#30610c"/>
    <path id="Trazado_152979" data-name="Trazado 152979" d="M613.772,236.52v2.23h-8.1v-2.23Z" transform="translate(-19.206 -40.041)" fill="#30610c"/>
    <path id="Trazado_152980" data-name="Trazado 152980" d="M671.9,244.531v2.23h-2.256v-2.23Z" transform="translate(-45.861 -43.379)" fill="#30610c"/>
    <path id="Trazado_152981" data-name="Trazado 152981" d="M665.934,252.727H663.7v-2.259h2.234Z" transform="translate(-43.383 -45.853)" fill="#30610c"/>
    <path id="Trazado_152982" data-name="Trazado 152982" d="M671.9,252.745h-2.232v-2.231H671.9Z" transform="translate(-45.869 -45.872)" fill="#30610c"/>
  </g>
</svg>
