<svg xmlns="http://www.w3.org/2000/svg" width="338.09" height="306.274" viewBox="0 0 338.09 306.274">
  <g id="ILUSTRACIONES-19" transform="translate(-7.37 -14.015)">
    <path id="Trazado_215225" data-name="Trazado 215225" d="M70.9,28.151a14.432,14.432,0,0,1,14.028,6.387c5.175,8.085,19.688,27.773,19.688,27.773l18.313-12.128,7.722,9.217s-11.4,17.384-20.213,21.265-20.213-5.741-20.213-5.741L78.541,61.382Z" transform="translate(193.302 42.604)" fill="#ffbe9d"/>
    <path id="Trazado_215226" data-name="Trazado 215226" d="M110.382,40.887c-.364.526-8.49,30.28-15.2,33.756C92.756,75.9,64.7,67.408,64.7,67.408a78.792,78.792,0,0,1,1.213-9.339c.364,0,22.639,1.415,22.639,1.415L97.365,34.5Z" transform="translate(174.438 62.33)" fill="#ae7461"/>
    <path id="Trazado_215227" data-name="Trazado 215227" d="M83.472,48.089A40.423,40.423,0,0,0,80.36,43a34.081,34.081,0,0,1-5.377-5.215,1.172,1.172,0,0,0-1.011,1.738,12.492,12.492,0,0,0,2.749,4.407c.849.768.2,1.375-.606,1.334s-6.1-1.536-6.1-1.536a26.2,26.2,0,0,0-6.59-2.223,1.253,1.253,0,0,0-.364,1.819c.323.283,5.134,3.032,5.134,3.032l2.709.889A49.606,49.606,0,0,0,61.48,45.5a1.092,1.092,0,0,0-.283,1.658,18.638,18.638,0,0,0,4.043,1.375l5.053,1.617L60.469,48.7s-.97,0-1.092.768.849,1.415.849,1.415l10.026,2.466a29.877,29.877,0,0,0-5.943-.728c-.485.485-.4,1.011,0,1.213a50.61,50.61,0,0,0,5.821,1.7l9.662,1.738,4.568,1.172L86.181,48.9Z" transform="translate(158.212 72.31)" fill="#ae7461"/>
    <path id="Trazado_215228" data-name="Trazado 215228" d="M68.519,49.3a41.118,41.118,0,0,1,3.355-4.973,32.87,32.87,0,0,0,5.619-4.973,1.172,1.172,0,0,1,.93,1.779,12.492,12.492,0,0,1-2.951,4.326c-.889.728-.243,1.334.566,1.334S82.3,45.535,82.3,45.535a25.468,25.468,0,0,1,6.711-1.9,1.213,1.213,0,0,1,.243,1.819C88.935,45.737,84,48.244,84,48.244l-2.749.768a49.038,49.038,0,0,1,9.7-1.294,1.092,1.092,0,0,1,0,1.658,19.931,19.931,0,0,1-4.043,1.172l-5.134,1.415,9.9-1.011s.97,0,1.091.809-.93,1.375-.93,1.375L81.7,55.157a30.926,30.926,0,0,1,5.983-.485c.445.526.364,1.011,0,1.253S81.739,57.3,81.739,57.3l-9.7,1.334-4.649.93-1.617-9.5Z" transform="translate(177.693 77.087)" fill="#ffbe9d"/>
    <path id="Trazado_215229" data-name="Trazado 215229" d="M55.85,50.515a91.683,91.683,0,0,0,8.085,13.866c2.143,1.658,41.761-6.953,41.761-6.953a89.379,89.379,0,0,0-1.5-9.339C103.837,48.09,68.989,51,68.989,51L64.946,39.6Z" transform="translate(147.51 77.847)" fill="#ffbe9d"/>
    <path id="Trazado_215230" data-name="Trazado 215230" d="M77.867,43.01,48.234,33.55,45,44.789S67.235,56.027,75.118,58.938c6.428,2.385,8.853,2.992,11.6,0,1.5-1.577,5.983-7.6,10.066-13.22L85.427,34.237Z" transform="translate(114.497 59.439)" fill="#ffbe9d"/>
    <path id="Trazado_215231" data-name="Trazado 215231" d="M81.882,29.28S69.754,31.746,66.035,39.67A197.649,197.649,0,0,1,47.681,65.462l-31.735-.93L11.62,72.618S32.238,84.382,41.738,85.8a22.316,22.316,0,0,0,20.213-8.085L73.514,64.532Z" transform="translate(12.931 46.447)" fill="#f5f5f5"/>
    <path id="Trazado_215232" data-name="Trazado 215232" d="M55.07,44.766a40.427,40.427,0,0,1,2.3-5.539,33.149,33.149,0,0,0,4.568-5.983,1.172,1.172,0,0,1,1.213,1.577,12.613,12.613,0,0,1-2.021,4.811c-.728.889,0,1.375.809,1.172s5.9-2.426,5.9-2.426,5.377-3.477,6.185-3.194a1.253,1.253,0,0,1,.606,1.779c-.243.323-4.568,3.719-4.568,3.719l-2.506,1.294a49.28,49.28,0,0,1,9.056-3.113,1.132,1.132,0,0,1,.526,1.577A19.608,19.608,0,0,1,73.1,42.421l-4.73,2.385,9.5-2.951s.97,0,1.213.606S78.437,44,78.437,44L68.9,48.04a28.622,28.622,0,0,1,5.781-1.617c.526.4.566.889,0,1.213a56.587,56.587,0,0,1-5.5,2.506l-9.258,3.194-4.366,1.819L52.2,46.019Z" transform="translate(136.404 58.492)" fill="#ae7461"/>
    <path id="Trazado_215233" data-name="Trazado 215233" d="M38.83,29.026A15.847,15.847,0,0,1,53.02,35.98L70.323,62.7,94.3,57.649l5.134,9.9A256.065,256.065,0,0,1,74.891,81.581c-8.773,4.043-16.858-4.043-16.858-4.043L46.713,62.823Z" transform="translate(95.723 45.569)" fill="#f5f5f5"/>
    <path id="Trazado_215234" data-name="Trazado 215234" d="M72.784,46.078A88.372,88.372,0,0,1,64.7,59.945c-2.143,1.658-29.188-5.7-29.188-5.7a82.836,82.836,0,0,1,1.5-9.015c.364,0,22.639,1.375,22.639,1.375l3.679-6.994Z" transform="translate(85.621 77.878)" fill="#ffbe9d"/>
    <path id="Trazado_215235" data-name="Trazado 215235" d="M52.652,48.2a36.383,36.383,0,0,0-2.83-4.69A30.482,30.482,0,0,1,44.567,38.7s-1.375,0-.889,1.617a11.683,11.683,0,0,0,2.466,4.043c.768.728,0,1.253-.566,1.172s-5.66-1.375-5.66-1.375A23.852,23.852,0,0,0,33.894,42.1a1.092,1.092,0,0,0-.323,1.658c.283.283,4.649,2.789,4.649,2.789l2.466.809a42.084,42.084,0,0,0-8.247-1.577.93.93,0,0,0-.283,1.455,16.17,16.17,0,0,0,3.76,1.294l4.609,1.5-9.015-1.375s-.849,0-.97.728.768,1.294.768,1.294l9.177,2.264a27.935,27.935,0,0,0-5.458-.687c-.445.445-.364.93,0,1.132a47.212,47.212,0,0,0,5.336,1.536l8.813,1.657,4.043,1.051L55,48.928Z" transform="translate(70.46 75.109)" fill="#ffbe9d"/>
    <path id="Trazado_215236" data-name="Trazado 215236" d="M21.51,36.5a12.613,12.613,0,0,1,12.128,5.538C38.085,48.95,50.7,66.293,50.7,66.293L66.546,55.823l6.711,8.085S63.392,78.745,55.832,82.1s-17.464-4.973-17.464-4.973L28.261,65.4Z" transform="translate(43.024 68.093)" fill="#f67409"/>
    <path id="Trazado_215237" data-name="Trazado 215237" d="M34.4,50.4a35.377,35.377,0,0,1,.809-5.377,32.1,32.1,0,0,0,2.668-6.266,1.092,1.092,0,0,1,1.455,1.092,12.128,12.128,0,0,1-.728,4.69c-.445.93.283,1.213.97.889s4.649-3.477,4.649-3.477,4.043-4.043,4.73-4.043a1.092,1.092,0,0,1,.93,1.415,49.234,49.234,0,0,1-3.194,4.285l-1.981,1.7a43.58,43.58,0,0,1,7.277-4.73.93.93,0,0,1,.809,1.253c0,.485-2.951,2.628-2.951,2.628l-3.638,3.113,7.722-4.69s.809-.323,1.172.283a1.942,1.942,0,0,1,0,1.5L47.378,50.4a25.025,25.025,0,0,1,4.73-2.709c.566.243.687.687.4,1.011a49.482,49.482,0,0,1-4.285,3.477l-7.439,4.851-3.436,2.587L32.38,52.3Z" transform="translate(76.098 72.705)" fill="#ffbe9d"/>
    <path id="Trazado_215238" data-name="Trazado 215238" d="M34.782,42.615a60.641,60.641,0,0,1-3.76-10.228,21.709,21.709,0,0,1-.2-10.794c0-.526,1.415-4.043,1.981-4.043s-.283,3.315,0,3.638a18.8,18.8,0,0,1,3.194,10.673,46.9,46.9,0,0,1-1.132,10.875" transform="translate(69.573 10.756)" fill="#263238"/>
    <path id="Trazado_215239" data-name="Trazado 215239" d="M55.106,65.968c-.2-2.587-.4-4.609-.364-4.609a10.511,10.511,0,0,0,8.409-10.511c0-4.043-1.172-12.9-2.143-20.739A16.171,16.171,0,0,0,44.07,15.838h-.849c-9.1.97-13.341,9.177-12.128,18.233l3.153,31.776L41.159,72.6a8.085,8.085,0,0,0,13.947-6.67Z" transform="translate(71.564 5.474)" fill="#ae7461"/>
    <path id="Trazado_215240" data-name="Trazado 215240" d="M45.492,29.21A21.386,21.386,0,0,1,33.93,26.38a11,11,0,0,0,11.764,5.053Z" transform="translate(80.814 37.623)" fill="#6f4439"/>
    <path id="Trazado_215241" data-name="Trazado 215241" d="M39.328,22.137a1.239,1.239,0,0,1-2.466.243,1.253,1.253,0,0,1,1.132-1.334,1.213,1.213,0,0,1,1.334,1.092Z" transform="translate(89.727 21.37)" fill="#263238"/>
    <path id="Trazado_215242" data-name="Trazado 215242" d="M41.678,21.055a6.039,6.039,0,0,0-2.466-.4c-1.334.081-2.3.768-2.466.606s0-.364.485-.687A3.436,3.436,0,0,1,39.171,20a3.315,3.315,0,0,1,1.981.526C41.6,20.691,41.718,21.014,41.678,21.055Z" transform="translate(89.197 18.207)" fill="#263238"/>
    <path id="Trazado_215243" data-name="Trazado 215243" d="M36.521,22.29a1.213,1.213,0,0,1-1.132,1.294,1.172,1.172,0,0,1-1.334-1.051A1.213,1.213,0,0,1,35.187,21.2a1.172,1.172,0,0,1,1.334,1.092Z" transform="translate(81.174 21.823)" fill="#263238"/>
    <path id="Trazado_215244" data-name="Trazado 215244" d="M38.588,21.406c0,.2-1.132-.485-2.506-.4s-2.264.768-2.426.606,0-.364.485-.687a3.153,3.153,0,0,1,1.94-.687,3.315,3.315,0,0,1,1.981.526C38.507,21.042,38.628,21.325,38.588,21.406Z" transform="translate(79.795 18.907)" fill="#263238"/>
    <path id="Trazado_215245" data-name="Trazado 215245" d="M36.913,31.3a10.147,10.147,0,0,1,2.183-.485c.364,0,.647,0,.728-.364a2.142,2.142,0,0,0-.283-1.011l-1.253-2.385A43.619,43.619,0,0,1,35.7,20.34a46.409,46.409,0,0,1,3.113,6.509L39.9,29.436a1.819,1.819,0,0,1,.243,1.334.97.97,0,0,1-.526.526,1.779,1.779,0,0,1-.606,0A7.8,7.8,0,0,1,36.913,31.3Z" transform="translate(86.199 19.245)" fill="#263238"/>
    <path id="Trazado_215246" data-name="Trazado 215246" d="M39.434,20.348c0,.364-1.5,0-3.113,0s-2.911.243-3.072,0,.2-.445.768-.768a4.73,4.73,0,0,1,2.345-.485,4.892,4.892,0,0,1,2.345.566C39.232,19.863,39.515,20.186,39.434,20.348Z" transform="translate(78.625 15.437)" fill="#263238"/>
    <path id="Trazado_215247" data-name="Trazado 215247" d="M41.228,20.116c0,.283-1.132,0-2.264,0s-2.062.323-2.264,0,0-.445.4-.768a3.4,3.4,0,0,1,1.86-.566,2.951,2.951,0,0,1,1.819.526C41.187,19.672,41.349,19.955,41.228,20.116Z" transform="translate(89 14.496)" fill="#263238"/>
    <path id="Trazado_215248" data-name="Trazado 215248" d="M35.467,22.073s-6.1-1.536-5.66,4.447a4.528,4.528,0,0,0,6.387,4.043Z" transform="translate(68.2 23.98)" fill="#ae7461"/>
    <path id="Trazado_215249" data-name="Trazado 215249" d="M33.129,27.155h-.243a1.051,1.051,0,0,1-.809,0A2.547,2.547,0,0,1,30.7,24.972a3.719,3.719,0,0,1,.2-1.536,1.132,1.132,0,0,1,.728-.849.526.526,0,0,1,.606.243s0,.283,0,.283a.364.364,0,0,0,0-.364A.97.97,0,0,0,32,22.385a1.011,1.011,0,0,0-.606,0A1.5,1.5,0,0,0,30.38,23.4a4.043,4.043,0,0,0-.243,1.7,2.749,2.749,0,0,0,1.738,2.466,1.213,1.213,0,0,0,.93-.243A2.4,2.4,0,0,0,33.129,27.155Z" transform="translate(69.244 25.326)" fill="#6f4439"/>
    <path id="Trazado_215250" data-name="Trazado 215250" d="M58.043,21.233c.93-.606-2.264-3.477-4.73-4.366a21.467,21.467,0,0,0-12.492-.606,14.554,14.554,0,0,0-8.732,7.519,23.811,23.811,0,0,0-1.577,12.128,6.872,6.872,0,0,0,1.132,3.558c.97,1.253,2.628,1.94,2.709,3.76A2.466,2.466,0,0,0,35.161,45c1.172,1.051,2.426,0,2.951-1.294A17.5,17.5,0,0,0,39,35.625a16.615,16.615,0,0,0-.889-5.66c-.364-.97-.93-1.86-1.253-2.87a3.679,3.679,0,0,1,0-2.992l.445-.566a6.347,6.347,0,0,1,6.1-1.7c3.436.889,9.339,2.183,10.754.93a9.258,9.258,0,0,0,2.426-2.951Z" transform="translate(69.799 4.849)" fill="#263238"/>
    <path id="Trazado_215251" data-name="Trazado 215251" d="M40.051,25.036s0,.323-.687.485a3.234,3.234,0,0,1-1.981,0,3.638,3.638,0,0,1-1.7-1.092c-.323-.4-.4-.728-.323-.768a10.148,10.148,0,0,0,2.223,1.051A10.682,10.682,0,0,0,40.051,25.036Z" transform="translate(85.082 29.346)" fill="#263238"/>
    <path id="Trazado_215252" data-name="Trazado 215252" d="M50.184,80l-.445,15.241s16.171,5.5,16.171,8.328l-30.967.323L34.7,80Z" transform="translate(83.157 200.772)" fill="#263238"/>
    <path id="Trazado_215253" data-name="Trazado 215253" d="M36.708,83.558a1.172,1.172,0,0,0-.849,1.375,1.253,1.253,0,0,0,1.415.849,1.172,1.172,0,1,0-.687-2.183" transform="translate(86.606 211.242)" fill="#e0e0e0"/>
    <path id="Trazado_215254" data-name="Trazado 215254" d="M34.79,87.7V85.31l29.673.566s1.415.566,1.253,1.5Z" transform="translate(83.431 216.929)" fill="#455a64"/>
    <path id="Trazado_215255" data-name="Trazado 215255" d="M40.679,83.8a2.519,2.519,0,0,0-1.536.687c-.768.687-1.132,1.091-1.253,1.051s0-.93.97-1.455S40.679,83.678,40.679,83.8Z" transform="translate(92.742 212.012)" fill="#fff"/>
    <path id="Trazado_215256" data-name="Trazado 215256" d="M40.864,84a6.367,6.367,0,0,0-1.132,1.011c-.526.606-.647,1.253-.768,1.253s-.283-.809.364-1.577A1.922,1.922,0,0,1,40.864,84Z" transform="translate(95.791 212.941)" fill="#fff"/>
    <path id="Trazado_215257" data-name="Trazado 215257" d="M39.942,86.816a1.807,1.807,0,0,1,0-1.5c.364-.809,1.092-1.091,1.172-.97s-.364.526-.687,1.213S40.063,86.816,39.942,86.816Z" transform="translate(98.614 213.927)" fill="#fff"/>
    <path id="Trazado_215258" data-name="Trazado 215258" d="M40.875,83.413H39.258c-.849,0-1.536.323-1.577,0s.526-.647,1.536-.728S40.956,83.291,40.875,83.413Z" transform="translate(92.222 208.922)" fill="#fff"/>
    <path id="Trazado_215259" data-name="Trazado 215259" d="M39.749,79.89,38.738,98.325l3.477,14.8a1.94,1.94,0,0,1-1.617,2.3h0a2.1,2.1,0,0,1-1.738-.566c-2.83-2.789-13.22-13.1-13.058-14.473s0-19.486,0-19.486Z" transform="translate(56.075 200.437)" fill="#263238"/>
    <path id="Trazado_215260" data-name="Trazado 215260" d="M40.538,100.851,25.782,84.68v.768a2.628,2.628,0,0,0,.647,1.86c1.172,1.415,4.487,5.255,12.371,13.058a2.183,2.183,0,0,0,1.779.566Z" transform="translate(56.014 215.012)" fill="#455a64"/>
    <g id="Grupo_145930" data-name="Grupo 145930" transform="translate(84.218 293.656)" opacity="0.6">
      <path id="Trazado_215261" data-name="Trazado 215261" d="M28.121,83.321a1.092,1.092,0,0,1,.283,1.5,1.253,1.253,0,0,1-1.577.283,1.213,1.213,0,0,1-.243-1.617,1.253,1.253,0,0,1,1.617,0" transform="translate(-26.379 -83.187)" fill="#fff"/>
    </g>
    <path id="Trazado_215262" data-name="Trazado 215262" d="M28.42,88.225a6.589,6.589,0,0,1,1.738-1.375,6.832,6.832,0,0,1,2.264-.364,1.638,1.638,0,0,1-.687-.243,3.436,3.436,0,0,0-1.738,0,3.113,3.113,0,0,0-1.334,1.092C28.42,87.942,28.38,88.185,28.42,88.225Z" transform="translate(64.008 219.431)" fill="#fff"/>
    <path id="Trazado_215263" data-name="Trazado 215263" d="M28.73,88.067a16.541,16.541,0,0,1,1.738-.728,17.84,17.84,0,0,1,1.9,0,2.466,2.466,0,0,0-2.021-.2,2.264,2.264,0,0,0-1.617.93Z" transform="translate(64.992 222.096)" fill="#fff"/>
    <path id="Trazado_215264" data-name="Trazado 215264" d="M27.81,87.353A10.676,10.676,0,0,1,30.4,86.06a22.325,22.325,0,0,1,2.911-.566,4.892,4.892,0,0,0-3.032.2,4.366,4.366,0,0,0-2.466,1.657Z" transform="translate(62.193 217.028)" fill="#fff"/>
    <path id="Trazado_215265" data-name="Trazado 215265" d="M27.77,84.975a11.677,11.677,0,0,1,2.547-.283c1.415,0,2.466.364,2.506.243a4.043,4.043,0,0,0-2.506-.647A4.042,4.042,0,0,0,27.77,84.975Z" transform="translate(62.071 213.787)" fill="#fff"/>
    <path id="Trazado_215266" data-name="Trazado 215266" d="M27.823,83.693a12.131,12.131,0,0,1,2.628-.364,8.086,8.086,0,0,1,2.506.728s0-.283-.606-.566a4.81,4.81,0,0,0-1.9-.566,4.406,4.406,0,0,0-1.9.323C28.025,83.45,27.783,83.652,27.823,83.693Z" transform="translate(62.22 209.652)" fill="#fff"/>
    <path id="Trazado_215267" data-name="Trazado 215267" d="M30.479,85.589a1.859,1.859,0,0,0,0-.687,4.366,4.366,0,0,0-.526-1.86,1.819,1.819,0,0,0-.889-1.051.809.809,0,0,0-.93,0,1.132,1.132,0,0,0-.323.849,2.709,2.709,0,0,0,2.345,2.547A3.315,3.315,0,0,0,33.39,83.85a.97.97,0,0,0,0-.889.768.768,0,0,0-.809-.4,2.749,2.749,0,0,0-1.294.566,4.891,4.891,0,0,0-1.375,1.415c-.283.364-.364.606-.323.606a9.1,9.1,0,0,1,1.86-1.779,2.345,2.345,0,0,1,1.132-.485.525.525,0,0,1,.445.2.687.687,0,0,1,0,.606,2.992,2.992,0,0,1-2.83,1.294,2.3,2.3,0,0,1-2.021-2.143.808.808,0,0,1,.4-.364.525.525,0,0,1,.485,0,2.143,2.143,0,0,1,.809.889,6.549,6.549,0,0,1,.606,2.223Z" transform="translate(62.192 206.382)" fill="#fff"/>
    <path id="Trazado_215268" data-name="Trazado 215268" d="M87.279,50.087A56.354,56.354,0,0,1,89.867,68.36c0,4.043-8.813,112.67-8.813,112.67L60.84,182.2V80.447l-1.658.4s-8.449,43.863-8.975,50.938c-.445,6.347-7.034,52.555-7.034,52.555L24.86,185.557l2.385-60.64L30.762,66.5l1.617-17.06Z" transform="translate(53.217 107.787)" fill="#455a64"/>
    <path id="Trazado_215269" data-name="Trazado 215269" d="M33.49,65.513l.809.4a10.672,10.672,0,0,0,2.3.687,5.054,5.054,0,0,0,1.738,0,3.638,3.638,0,0,0,1.779-.849,4.043,4.043,0,0,0,1.011-1.86,18.273,18.273,0,0,0,.445-2.143c.526-2.951.849-5.66,1.011-7.6V51a4.651,4.651,0,0,0,0,.849l-.323,2.264c-.243,1.941-.606,4.609-1.092,7.56A7.075,7.075,0,0,1,39.8,65.513,4.043,4.043,0,0,1,36.6,66.4a12.694,12.694,0,0,1-2.3-.566,3.235,3.235,0,0,0-.808-.323Z" transform="translate(79.475 112.534)" fill="#263238"/>
    <path id="Trazado_215270" data-name="Trazado 215270" d="M36.423,51.16a.768.768,0,0,0-.4,0,1.643,1.643,0,0,0-.526,3.234,1.779,1.779,0,0,0,1.94-.445,1.692,1.692,0,0,0-.283-2.426.647.647,0,0,0-.364,0,1.59,1.59,0,0,1,.687,1.092,1.455,1.455,0,0,1-.323,1.253A1.541,1.541,0,0,1,34.6,53.06a1.617,1.617,0,0,1,.566-1.172,2.3,2.3,0,0,1,1.253-.728Z" transform="translate(81.757 112.94)" fill="#263238"/>
    <path id="Trazado_215271" data-name="Trazado 215271" d="M81.346,51.361,78.152,36.12l-8.57-.97-1.011-4.487-4.528,4.285L46.3,26.66l-1.617,6.63-15.6,6.873-.526,42.61V100.48l-2.021,18.03a11.643,11.643,0,0,0,.728,5.983l44.874.566a81.708,81.708,0,0,0,9.217-.889,4.77,4.77,0,0,0,4.043-4.326c.728-14.149.849-56.6.849-56.6Z" transform="translate(57.937 38.475)" fill="#f5f5f5"/>
    <path id="Trazado_215272" data-name="Trazado 215272" d="M43.243,113.188a.485.485,0,0,0,0-.2V100.938c0-7.6,0-18.071-.323-29.633-.243-5.781-.606-11.279-1.294-16.171s-1.7-9.5-2.426-13.22-1.7-6.63-2.264-8.692l-.647-2.345v-.606a.4.4,0,0,1,0-.2v.849l.566,2.385c.526,2.062,1.253,5.013,2.1,8.692s1.819,8.085,2.506,13.058,1.011,10.471,1.253,16.171c.445,11.562.485,22.033.485,29.592v12.29Z" transform="translate(87.955 48.85)" fill="#263238"/>
    <path id="Trazado_215273" data-name="Trazado 215273" d="M46.05,34.823H45.039l-2.992.283L31.092,36.4h-.2c.526,5.013,1.172,11,1.86,17.464h0l1.658,1.051a26,26,0,0,0,3.113,1.7,9.1,9.1,0,0,0,3.4.97,6.468,6.468,0,0,0,3.275-.849,13.947,13.947,0,0,0,2.628-1.86l1.132-1.051a2.183,2.183,0,0,0,.768-1.415,10.106,10.106,0,0,0,.2-2.87,45.963,45.963,0,0,0-.606-5.134c-.566-3.072-1.172-5.538-1.617-7.236a5.983,5.983,0,0,0-.526-1.94c-.121-.445-.2-.687-.243-.687a6.632,6.632,0,0,0,0,.728l.445,1.94c.364,1.7.93,4.043,1.415,7.277a37.355,37.355,0,0,1,.526,5.053,10.874,10.874,0,0,1,0,2.789,1.981,1.981,0,0,1-.687,1.132,13.387,13.387,0,0,1-1.092,1.051,14.311,14.311,0,0,1-2.547,1.779,6.226,6.226,0,0,1-3.072.809,9.1,9.1,0,0,1-3.153-.93c-1.051-.485-2.062-1.051-3.113-1.658l-1.617-1.092h0c-.687-6.468-1.375-12.451-1.9-17.464l-.2.2L41.724,34.9l3.032-.364h.809Z" transform="translate(71.564 62.451)" fill="#263238"/>
    <path id="Trazado_215274" data-name="Trazado 215274" d="M39.409,29.873a44.471,44.471,0,0,0-7.2-3.113L31,33.754l19.4,9.015V34.684S44.5,32.379,39.409,29.873Z" transform="translate(71.899 38.779)" fill="#f5f5f5"/>
    <path id="Trazado_215275" data-name="Trazado 215275" d="M31,37.418a75.443,75.443,0,0,0,8.085-.566,58.537,58.537,0,0,0,8.085-1.132,75.437,75.437,0,0,0-8.085.606A57.244,57.244,0,0,0,31,37.418Z" transform="translate(71.899 66.042)" fill="#263238"/>
    <g id="Grupo_145931" data-name="Grupo 145931" transform="translate(104.88 115.749)" opacity="0.3">
      <path id="Trazado_215276" data-name="Trazado 215276" d="M46.529,39.3A21.629,21.629,0,0,1,43.82,43.87a6.832,6.832,0,0,1-4.043,2.3,7.236,7.236,0,0,1-4.043-1.091,11.117,11.117,0,0,1-4.245-5.256s2.911,1.738,4.528,2.547a7.358,7.358,0,0,0,4.609.849,12.694,12.694,0,0,0,6.226-4.043" transform="translate(-31.49 -39.18)"/>
    </g>
    <g id="Grupo_145932" data-name="Grupo 145932" transform="translate(104.678 73.18)" opacity="0.3">
      <path id="Trazado_215277" data-name="Trazado 215277" d="M48.9,29.742l1.577,9.945L31.44,28.65,48.9,37.018Z" transform="translate(-31.44 -28.65)"/>
    </g>
    <path id="Trazado_215278" data-name="Trazado 215278" d="M38.743,31.27a281.212,281.212,0,0,1,7.6,41.2c1.011,9.662,1.9,22.4,1.9,22.4L44.2,100.319l-6.873-5.458S36.8,67.614,36.2,58.477c-.526-7.479,0-26.641,0-26.641Z" transform="translate(86.997 52.502)" fill="#f67409"/>
    <path id="Trazado_215279" data-name="Trazado 215279" d="M35.77,30.421l1.577-1.011L39.125,32.4l.243,4.528-2.466.485L35.77,34.787Z" transform="translate(86.412 46.842)" fill="#ff725e"/>
    <path id="Trazado_215280" data-name="Trazado 215280" d="M35.72,28.69a10.712,10.712,0,0,0,1.011,1.617c.606,1.011,1.455,2.385,2.264,4.043v.4a38.769,38.769,0,0,0,1.5-4.043,6.492,6.492,0,0,1,.283-1.253,1.16,1.16,0,0,0,0-.445s-.2.606-.566,1.658a36.59,36.59,0,0,1-1.536,4.043h.243v-.4a29.955,29.955,0,0,0-2.385-4.043c-.323-.485-.606-.889-.809-1.132Z" transform="translate(86.26 44.652)" fill="#263238"/>
    <path id="Trazado_215281" data-name="Trazado 215281" d="M30.93,28.4h.243l.809.4,2.87,1.375,9.379,4.69C46.494,36,48.6,37.011,50.456,37.86h0v0h0l-6.1-2.992c-3.679-1.86-6.994-3.477-9.419-4.609l-2.911-1.294-.809-.364Z" transform="translate(71.686 43.769)" fill="#263238"/>
    <path id="Trazado_215282" data-name="Trazado 215282" d="M36.162,32.433a2.668,2.668,0,0,0,.93-.485c.485-.323.849-.647.809-.728a2.345,2.345,0,0,0-.93.485C36.486,32.029,36.122,32.352,36.162,32.433Z" transform="translate(87.597 52.35)" fill="#263238"/>
    <path id="Trazado_215283" data-name="Trazado 215283" d="M36.05,34.77a17.625,17.625,0,0,0,1.092-2.345A10.228,10.228,0,0,0,37.95,30s-.526,1.051-1.092,2.345a10.228,10.228,0,0,0-.809,2.426Z" transform="translate(87.264 48.638)" fill="#263238"/>
    <path id="Trazado_215284" data-name="Trazado 215284" d="M41.538,32a1.453,1.453,0,0,1,0,.4V53.548c0,5.983-.283,11.32-.323,15.2v5.9a3.312,3.312,0,0,0,0,.4V53.507c0-5.943.283-11.32.323-15.2V32.526a1.456,1.456,0,0,1,0-.526Z" transform="translate(102.96 54.723)" fill="#263238"/>
    <path id="Trazado_215285" data-name="Trazado 215285" d="M30.392,22.886,39.2,21.673a13.786,13.786,0,0,0-.445-2.223A37.071,37.071,0,0,0,30.23,20.5S30.351,22.563,30.392,22.886Z" transform="translate(69.556 16.537)" fill="#f5f5f5"/>
    <path id="Trazado_215286" data-name="Trazado 215286" d="M26,33.41s1.051,4.245,2.143,9.5,1.86,9.581,1.779,9.622-1.092-4.043-2.183-9.541S26,33.41,26,33.41Z" transform="translate(56.685 59.013)" fill="#263238"/>
    <path id="Trazado_215287" data-name="Trazado 215287" d="M72.19,37Z" transform="translate(197.227 69.936)" fill="#455a64"/>
    <path id="Trazado_215288" data-name="Trazado 215288" d="M72.19,37.06Z" transform="translate(197.227 70.119)" fill="#455a64"/>
    <path id="Trazado_215289" data-name="Trazado 215289" d="M72.19,37Z" transform="translate(197.227 69.936)" fill="#455a64"/>
    <path id="Trazado_215290" data-name="Trazado 215290" d="M17.5,79.26,13.13,102.546,24,103.88l6.832-22.194Z" transform="translate(17.526 198.521)" fill="#ffbe9d"/>
    <path id="Trazado_215291" data-name="Trazado 215291" d="M31.422,85.416s-8.571,3.76-11.36-1.5l-1.375,2.021-7.358,14.8a2.1,2.1,0,0,0,.728,2.709,2.183,2.183,0,0,0,2.264,0c3.679-2.3,17.141-10.713,17.3-12.128l.687-4.043a1.981,1.981,0,0,0-.889-2.021Z" transform="translate(11.362 212.7)" fill="#455a64"/>
    <g id="Grupo_145933" data-name="Grupo 145933" transform="translate(23.783 302.684)" opacity="0.6">
      <path id="Trazado_215292" data-name="Trazado 215292" d="M11.43,99.084,30.916,85.42v.809c0,.93-.606,1.213-1.132,1.7a148.645,148.645,0,0,1-16.171,11,2.143,2.143,0,0,1-1.981,0Z" transform="translate(-11.43 -85.42)" fill="#fff"/>
    </g>
    <g id="Grupo_145934" data-name="Grupo 145934" transform="translate(40.78 299.64)" opacity="0.6">
      <path id="Trazado_215293" data-name="Trazado 215293" d="M16.224,84.719a1.213,1.213,0,0,0,.889,2.224,1.334,1.334,0,0,0,.687-1.617,1.294,1.294,0,0,0-1.7-.526" transform="translate(-15.634 -84.667)" fill="#fff"/>
    </g>
    <path id="Trazado_215294" data-name="Trazado 215294" d="M15.8,88.989a6.994,6.994,0,0,0-1.5-1.9A6.63,6.63,0,0,0,12.08,86.2h.768a3.558,3.558,0,0,1,1.738.687,3.275,3.275,0,0,1,1.132,1.455A3.31,3.31,0,0,1,15.8,88.989Z" transform="translate(14.331 219.637)" fill="#263238"/>
    <path id="Trazado_215295" data-name="Trazado 215295" d="M15.188,88.959a6.355,6.355,0,0,0-1.617-1.172,15.53,15.53,0,0,0-1.94-.647,2.3,2.3,0,0,1,2.143.243C14.9,87.949,15.309,88.959,15.188,88.959Z" transform="translate(12.962 222.012)" fill="#263238"/>
    <path id="Trazado_215296" data-name="Trazado 215296" d="M17.785,88.652A29.905,29.905,0,0,0,15.4,86.631a19.2,19.2,0,0,0-2.87-1.253,4.81,4.81,0,0,1,3.113.889,4.69,4.69,0,0,1,2.143,2.385Z" transform="translate(15.7 217.104)" fill="#263238"/>
    <path id="Trazado_215297" data-name="Trazado 215297" d="M18.106,86.141a14.357,14.357,0,0,0-2.547-.93c-1.415-.364-2.709-.243-2.709-.364a4.487,4.487,0,0,1,2.789,0,4.285,4.285,0,0,1,2.466,1.294Z" transform="translate(16.674 214.845)" fill="#263238"/>
    <path id="Trazado_215298" data-name="Trazado 215298" d="M15.077,87.743a2.426,2.426,0,0,1,.283-.728A5.093,5.093,0,0,1,16.654,85.4a2.426,2.426,0,0,1,1.213-.687.849.849,0,0,1,.849.485,1.334,1.334,0,0,1,0,.97,2.992,2.992,0,0,1-3.436,1.577,3.517,3.517,0,0,1-2.547-2.911,1.253,1.253,0,0,1,.323-.93.93.93,0,0,1,.97,0,2.87,2.87,0,0,1,1.011,1.132,6.347,6.347,0,0,1,.728,1.981c0,.485,0,.768,0,.768A9.824,9.824,0,0,0,14.713,85.2a2.911,2.911,0,0,0-.889-.97.4.4,0,0,0-.526,0,.728.728,0,0,0,0,.606A3.072,3.072,0,0,0,15.481,87.3a2.587,2.587,0,0,0,2.951-1.253,1.051,1.051,0,0,0,0-.687.445.445,0,0,0-.566-.243,2.345,2.345,0,0,0-1.172.526A8.085,8.085,0,0,0,15.077,87.743Z" transform="translate(16.307 212.232)" fill="#263238"/>
    <path id="Trazado_215299" data-name="Trazado 215299" d="M29.061,78.83l4.366,23.326L22.552,103.49,15.72,81.256Z" transform="translate(25.406 197.212)" fill="#ffbe9d"/>
    <path id="Trazado_215300" data-name="Trazado 215300" d="M17.816,84.955s8.571,3.76,11.36-1.455l1.375,1.981,7.358,14.8a2.1,2.1,0,0,1-3.032,2.749c-3.638-2.264-17.1-10.713-17.262-12.128l-.728-3.841A2.1,2.1,0,0,1,17.816,85Z" transform="translate(28.889 211.422)" fill="#455a64"/>
    <g id="Grupo_145935" data-name="Grupo 145935" transform="translate(46.301 300.986)" opacity="0.6">
      <path id="Trazado_215301" data-name="Trazado 215301" d="M36.4,98.624,17,85v.849c0,.889.566,1.172,1.132,1.7a155.569,155.569,0,0,0,16.171,11,2.143,2.143,0,0,0,1.981,0Z" transform="translate(-17 -85)" fill="#fff"/>
    </g>
    <g id="Grupo_145936" data-name="Grupo 145936" transform="translate(46.442 297.913)" opacity="0.6">
      <path id="Trazado_215302" data-name="Trazado 215302" d="M18.713,84.321a1.182,1.182,0,1,1-1.577.566,1.334,1.334,0,0,1,1.7-.526" transform="translate(-17.035 -84.24)" fill="#fff"/>
    </g>
    <path id="Trazado_215303" data-name="Trazado 215303" d="M20.239,88.569a5.5,5.5,0,0,1,1.455-1.9,6.064,6.064,0,0,1,2.264-.889h-.768a3.4,3.4,0,0,0-1.738.687,3.355,3.355,0,0,0-1.132,1.5A1.091,1.091,0,0,0,20.239,88.569Z" transform="translate(39.12 218.359)" fill="#263238"/>
    <path id="Trazado_215304" data-name="Trazado 215304" d="M20.736,88.559a10.307,10.307,0,0,1,1.617-1.213,15.525,15.525,0,0,1,1.941-.647,2.426,2.426,0,0,0-2.143.243C21.019,87.548,20.614,88.357,20.736,88.559Z" transform="translate(40.604 220.714)" fill="#263238"/>
    <path id="Trazado_215305" data-name="Trazado 215305" d="M19.4,88.261a18.435,18.435,0,0,1,2.385-2.021,20.216,20.216,0,0,1,2.87-1.294,4.73,4.73,0,0,0-3.113.93A4.528,4.528,0,0,0,19.4,88.261Z" transform="translate(36.604 215.797)" fill="#263238"/>
    <path id="Trazado_215306" data-name="Trazado 215306" d="M19.08,85.73a12.675,12.675,0,0,1,2.547-.889c1.415-.323,2.668-.243,2.709-.364a4.043,4.043,0,0,0-2.789,0A4.043,4.043,0,0,0,19.08,85.73Z" transform="translate(35.63 213.638)" fill="#263238"/>
    <path id="Trazado_215307" data-name="Trazado 215307" d="M22.854,87.119a2.507,2.507,0,0,0-.283-.687,5.134,5.134,0,0,0-1.294-1.658,2.709,2.709,0,0,0-1.415-.647.93.93,0,0,0-.809.526,1.334,1.334,0,0,0,.081,1.172,2.992,2.992,0,0,0,3.436,1.536,3.436,3.436,0,0,0,2.506-2.87,1.011,1.011,0,0,0-.283-.93.809.809,0,0,0-.97,0,2.628,2.628,0,0,0-1.011,1.132,5.215,5.215,0,0,0-.728,1.981V87.4A9.9,9.9,0,0,1,23.1,84.855a2.668,2.668,0,0,1,.93-.97.4.4,0,0,1,.526,0,.728.728,0,0,1,0,.606A3.072,3.072,0,0,1,22.329,87,2.628,2.628,0,0,1,19.418,85.7a.849.849,0,0,1,0-.687.485.485,0,0,1,.445-.283,2.345,2.345,0,0,1,1.213.526,9.984,9.984,0,0,1,1.779,1.86Z" transform="translate(35.251 211.117)" fill="#263238"/>
    <path id="Trazado_215308" data-name="Trazado 215308" d="M16.512,78.355,11.62,80.579S15.946,53.614,17,46.863c1.7-10.875,6.307-23.326,21.871-22.033,0,0,11.683.93,15.039,9.419,1.86,4.568,1.981,16.9,2.264,31.088l.283,2.426c1.415,6.145,1.577,10.471,3.355,16.535a90.92,90.92,0,0,1,.728,32.342l-13.058,1.253Z" transform="translate(12.931 32.624)" fill="#263238"/>
    <path id="Trazado_215309" data-name="Trazado 215309" d="M30.162,26.45l-1.011-.97L18.276,29.725a3.072,3.072,0,0,0-2.87,2.87l-.283,35.414a9.9,9.9,0,0,0,1.86,6.387l1.5,2.021a8.085,8.085,0,0,0,13.341-.687,3.4,3.4,0,0,0,.4-.93,2.911,2.911,0,0,0,0-.768c.364-2.83.4-5.3.4-5.3.243-3.113.323-4.407.323-4.366a10.632,10.632,0,0,0,8.49-9.177,69.858,69.858,0,0,0,.647-15.807A12.128,12.128,0,0,0,30.162,26.45Z" transform="translate(23.537 34.885)" fill="#ffbe9d"/>
    <path id="Trazado_215310" data-name="Trazado 215310" d="M20.023,31.051A1.113,1.113,0,1,1,18.932,30a1.092,1.092,0,0,1,1.092,1.051Z" transform="translate(31.735 48.638)" fill="#263238"/>
    <path id="Trazado_215311" data-name="Trazado 215311" d="M22.714,31.1a1.092,1.092,0,0,1-1.132,1.051A1.011,1.011,0,0,1,20.531,31.1a1.092,1.092,0,0,1,2.183,0Z" transform="translate(40.041 48.668)" fill="#263238"/>
    <path id="Trazado_215312" data-name="Trazado 215312" d="M24.819,30.426a5.516,5.516,0,0,0-2.1-.606c-1.172-.081-2.1.485-2.223.323s0-.323.485-.566a3.194,3.194,0,0,1,1.779-.445,2.87,2.87,0,0,1,1.7.647C24.819,30.1,24.9,30.386,24.819,30.426Z" transform="translate(39.796 45.988)" fill="#263238"/>
    <path id="Trazado_215313" data-name="Trazado 215313" d="M21.817,30.669a5.068,5.068,0,0,0-2.062-.809c-1.172-.162-2.1.243-2.223,0s0-.323.566-.526a3.113,3.113,0,0,1,1.819-.243,2.547,2.547,0,0,1,1.577.849C21.817,30.346,21.9,30.629,21.817,30.669Z" transform="translate(30.79 45.745)" fill="#263238"/>
    <path id="Trazado_215314" data-name="Trazado 215314" d="M19.56,39.014a12.494,12.494,0,0,1,1.94-.2c.323,0,.606,0,.687-.283a1.577,1.577,0,0,0,0-.889l-.849-2.385a37.514,37.514,0,0,1-1.617-6.1,38.85,38.85,0,0,1,2.1,5.983c.283.809.526,1.617.728,2.345a1.779,1.779,0,0,1,0,1.213.768.768,0,0,1-.526.4h-.485a6.751,6.751,0,0,1-1.981-.081Z" transform="translate(37.09 46.051)" fill="#263238"/>
    <path id="Trazado_215315" data-name="Trazado 215315" d="M28.08,37.9a22.114,22.114,0,0,1-11.32-3.76,11.117,11.117,0,0,0,11.158,5.821Z" transform="translate(28.571 61.234)" fill="#eb996e"/>
    <path id="Trazado_215316" data-name="Trazado 215316" d="M22.029,32.961a2.183,2.183,0,0,0-1.86-.889,2.062,2.062,0,0,0-1.415.606,1.253,1.253,0,0,0,0,1.415,1.415,1.415,0,0,0,1.536.485,4.043,4.043,0,0,0,1.536-.809.97.97,0,0,0,.364-.323.445.445,0,0,0,0-.445" transform="translate(33.974 54.934)" fill="#eb996e"/>
    <path id="Trazado_215317" data-name="Trazado 215317" d="M18.873,31.74A3.179,3.179,0,0,0,20.045,34,7.834,7.834,0,0,0,22.471,35.1c0,.162-.323.243-.93.243a3.315,3.315,0,0,1-2.021-.849,2.709,2.709,0,0,1-.889-1.9C18.63,32.063,18.792,31.74,18.873,31.74Z" transform="translate(34.261 53.932)" fill="#263238"/>
    <path id="Trazado_215318" data-name="Trazado 215318" d="M22.971,29.258c0,.283-1.294,0-2.709,0a7.441,7.441,0,0,1-2.709-.2c-.162-.2,0-.4.687-.647a4.447,4.447,0,0,1,2.1-.4,4.285,4.285,0,0,1,2.021.566C22.849,28.813,23.052,29.137,22.971,29.258Z" transform="translate(30.809 42.547)" fill="#263238"/>
    <path id="Trazado_215319" data-name="Trazado 215319" d="M24.568,29.116c-.243.243-1.051,0-2.021,0s-1.819,0-1.981-.243,0-.4.445-.647a2.83,2.83,0,0,1,1.658-.323,2.466,2.466,0,0,1,1.536.647C24.568,28.711,24.649,28.994,24.568,29.116Z" transform="translate(39.965 42.204)" fill="#263238"/>
    <path id="Trazado_215320" data-name="Trazado 215320" d="M16.326,48.161s6.024,1.94,9.622-12.977a20.214,20.214,0,0,1,6.024-9.217l-1.941-.606S17.9,28.635,17.9,28.756s-3.072,6.185-3.072,6.185Z" transform="translate(22.698 34.519)" fill="#263238"/>
    <path id="Trazado_215321" data-name="Trazado 215321" d="M10.55,60.72l15.2,67.432,8.571,25.509,13.422-3.8-6.63-88.495Z" transform="translate(9.676 142.109)" fill="#263238"/>
    <path id="Trazado_215322" data-name="Trazado 215322" d="M21.741,86.173S13.13,107.2,12.281,114.23,10.3,135.009,10.3,135.009l55.385,1.415a94.842,94.842,0,0,0,0-30.522,67.836,67.836,0,0,0-5.538-18.516c-.566-1.617,3.517-29.633,3.517-29.633l-.445-17.262-6.347-3.76H47.654c-5.013,6.185-11.36,3.153-17.95-.283-2.547-1.294-12.128,5.821-12.128,5.821a198.287,198.287,0,0,0,1.374,24.822C20.2,76.471,21.741,86.173,21.741,86.173Z" transform="translate(8.915 67.779)" fill="#f67409"/>
    <path id="Trazado_215323" data-name="Trazado 215323" d="M14.088,59.879a5.013,5.013,0,0,0,1.455,3.072,12.856,12.856,0,0,1,1.94,4.043s1.051,5.9,1.294,7.8.243,3.638-1.253,3.275-1.981-1.5-2.223-5.013l-.849-1.819L13.6,72.613v5.619S17.4,81.952,17.12,83s-1.011.849-1.011.849l-.606.606L9.682,80.416,7.62,72.977l.728-9.5V56.038l6.266-.768Z" transform="translate(0.761 125.526)" fill="#ffbe9d"/>
    <path id="Trazado_215324" data-name="Trazado 215324" d="M30.13,37.21S19.3,40.727,18,47.236,14.364,73.513,13.96,76.222,11.534,83.3,10.24,91.382c-1.5,9.379-2.87,22.275-2.87,22.275l8.611.566s4.649-11.239,7.075-19.93,3.558-11.643,4.77-16.171a59.387,59.387,0,0,0,1.86-12.734Z" transform="translate(0 70.575)" fill="#f67409"/>
    <path id="Trazado_215325" data-name="Trazado 215325" d="M18.872,45.025s1.455-1.375.687-2.062a8.611,8.611,0,0,0-3.6-.768s2.83-1.172,3.072-2.87-.526-2.183-1.092-1.94-2.021,1.86-3.113,2.547a29.551,29.551,0,0,0-2.87,2.426,1.658,1.658,0,0,0-.323,2.506s-2.1,1.7-.97,2.87c0,0-1.779,1.092-1.011,2.547l.526.93s-1.577.93,0,2.789l2.668-2.628s2.466,0,2.709-.97a7.358,7.358,0,0,0,0-1.7s2.992-.485,3.315-1.577a2.83,2.83,0,0,0,0-2.1Z" transform="translate(6.366 70.927)" fill="#ae7461"/>
    <path id="Trazado_215326" data-name="Trazado 215326" d="M9.465,45a3.679,3.679,0,0,0,.445.647C9.586,45.687,9.424,45.323,9.465,45Z" transform="translate(6.355 94.278)" fill="#263238"/>
    <path id="Trazado_215327" data-name="Trazado 215327" d="M26.811,89.243a48.755,48.755,0,0,0,2.83-13.017A43.1,43.1,0,0,0,26.407,64.1,18.677,18.677,0,0,1,25.6,51.565,49.727,49.727,0,0,1,29.034,45.5c1.132-2.021,9.46-17.788,8.651-19.971L15.774,35.475a226.392,226.392,0,0,0-2.749,49c.323,3.841,3.153,21.588,5.134,24.9.566.97,6.064,2.1,6.064,2.1s.364-3.517.4-3.275q.574,2.3,1.375,4.528c1.577,1.334,4.043,3.032,5.619,2.749a66.219,66.219,0,0,1-4.811-26.237Z" transform="translate(16.256 35.037)" fill="#263238"/>
    <path id="Trazado_215328" data-name="Trazado 215328" d="M27.378,60.88c-.728,3.355-6.751,27.814-6.387,37.274s-4.73,35.98-5.377,39.74c-.849,4.932-2.223,15-2.223,15l11.562,1.334s14.473-35.9,15.807-46.127A55.668,55.668,0,0,1,46.1,87.885c2.345-4.043,10.066-26.156,10.066-26.156" transform="translate(18.317 142.596)" fill="#263238"/>
    <path id="Trazado_215329" data-name="Trazado 215329" d="M56.07,61.608v.485l-.485,1.375-1.86,5.377c-.849,2.3-1.86,5.175-3.072,8.449-.606,1.658-1.294,3.4-2.021,5.256-.364.93-.768,1.86-1.172,2.83l-.687,1.455c-.243.485-.485,1.011-.768,1.455A31.248,31.248,0,0,0,43.5,94.717a63.594,63.594,0,0,0-1.617,7.358c-.243,1.253-.445,2.587-.647,4.043l-.283,2.021-.364,2.021a74.4,74.4,0,0,1-2.264,8.085c-1.738,5.619-3.8,11.441-6.024,17.424S27.69,147.8,25.143,154.226h0l-3.4-.4-8.085-.93h-.2l1.415-9.581.687-4.649c.243-1.536.566-3.072.809-4.568,1.092-6.024,2.062-11.845,2.911-17.384a154.877,154.877,0,0,0,1.779-15.726V97.345a34.122,34.122,0,0,1,0-3.517c.243-2.264.485-4.447.849-6.509,1.334-8.085,2.83-14.877,4.043-19.445l1.213-5.215.323-1.334V60.88a2.184,2.184,0,0,1,0,.445L27.205,62.7l-1.172,5.215c-.97,4.568-2.426,11.158-3.76,19.445-.323,2.062-.566,4.043-.809,6.509v7.156c-.243,4.973-.97,10.228-1.738,15.766s-1.819,11.32-2.911,17.343c-.243,1.536-.566,3.032-.768,4.568l-.687,4.69-1.415,9.541v-.243l8.085.97,3.4.364h-.2q3.8-9.46,7.156-18.516c2.223-5.983,4.285-11.8,6.064-17.424.889-2.789,1.658-5.538,2.264-8.085l.364-2.021.283-2.021A24.673,24.673,0,0,1,42,101.913c.445-2.547.97-5.013,1.617-7.358a30.887,30.887,0,0,1,2.587-6.468c.283-.485.526-.97.768-1.455l.687-1.415,1.172-2.83c.768-1.86,1.415-3.6,2.062-5.256,1.253-3.275,2.264-6.1,3.113-8.409l1.94-5.336.526-1.415a2.828,2.828,0,0,1-.4-.364Z" transform="translate(18.53 142.596)" fill="#455a64"/>
    <path id="Trazado_215330" data-name="Trazado 215330" d="M22.833,38.94a2.507,2.507,0,0,1,.283.728,16.932,16.932,0,0,0,.566,2.062,40.75,40.75,0,0,1,1.092,6.913,44.468,44.468,0,0,1,0,7.034,15.643,15.643,0,0,1-.283,2.1,2.709,2.709,0,0,1,0,.768V55.636a58.662,58.662,0,0,0,0-6.953,54.578,54.578,0,0,0-.97-6.913C23.075,40.032,22.792,38.94,22.833,38.94Z" transform="translate(47.037 75.839)" fill="#263238"/>
    <path id="Trazado_215331" data-name="Trazado 215331" d="M12.094,40.57v1.172l.485,3.194c.4,2.749,1.011,6.387,1.658,10.471s1.334,7.681,1.779,10.43l.566,3.194a10.794,10.794,0,0,1,0,1.132,3.074,3.074,0,0,0-.364-1.132l-.687-3.113C15,63.25,14.317,59.53,13.63,55.447s-1.213-7.8-1.536-10.471c-.2-1.375-.283-2.466-.364-3.234A3.76,3.76,0,0,1,12.094,40.57Z" transform="translate(13.266 80.799)" fill="#263238"/>
    <path id="Trazado_215332" data-name="Trazado 215332" d="M30.228,49.372a13.057,13.057,0,0,1-2.143.485c-1.334.243-3.194.526-5.256.768s-4.043.4-5.3.485a9.5,9.5,0,0,1-2.223,0l2.183-.323,5.255-.606,5.3-.647A8.085,8.085,0,0,1,30.228,49.372Z" transform="translate(24.159 107.532)" fill="#263238"/>
    <path id="Trazado_215333" data-name="Trazado 215333" d="M35.03,49.215s-4.043,1.9-9.379,4.043-9.5,4.043-9.541,3.719,4.043-1.94,9.379-4.043S34.99,49.093,35.03,49.215Z" transform="translate(26.593 107.083)" fill="#263238"/>
    <path id="Trazado_215334" data-name="Trazado 215334" d="M89.564,65.135l.445-33.878c.364-8.449-4.043-15.686-12.694-15.847h-.768A15.079,15.079,0,0,0,62.114,29.923c-.323,7.317-.526,15.4-.323,19.324a9.662,9.662,0,0,0,8.571,8.975s0,4.932,0,7.317L76.87,74.6v.485Z" transform="translate(165.34 4.245)" fill="#ffbe9d"/>
    <path id="Trazado_215335" data-name="Trazado 215335" d="M63.85,28.647A19.4,19.4,0,0,0,74.28,25.13a10.066,10.066,0,0,1-10.39,5.781Z" transform="translate(171.851 33.82)" fill="#eb996e"/>
    <path id="Trazado_215336" data-name="Trazado 215336" d="M62.62,21.419a1.213,1.213,0,0,0,1.172,1.132,1.092,1.092,0,0,0,1.132-1.092,1.172,1.172,0,0,0-2.3,0Z" transform="translate(168.109 19.743)" fill="#263238"/>
    <path id="Trazado_215337" data-name="Trazado 215337" d="M62.288,20.874a5.205,5.205,0,0,1,2.223-.606c1.253-.04,2.183.566,2.3.4s0-.364-.485-.606a3.4,3.4,0,0,0-1.86-.526,2.992,2.992,0,0,0-1.779.687C62.328,20.51,62.207,20.793,62.288,20.874Z" transform="translate(167.026 16.811)" fill="#263238"/>
    <path id="Trazado_215338" data-name="Trazado 215338" d="M65.4,21.419a1.213,1.213,0,0,0,1.172,1.132A1.091,1.091,0,0,0,67.7,21.459a1.172,1.172,0,0,0-2.3,0Z" transform="translate(176.567 19.743)" fill="#263238"/>
    <path id="Trazado_215339" data-name="Trazado 215339" d="M65.308,20.785a5.528,5.528,0,0,1,2.223-.566c1.253-.04,2.183.526,2.3.364s0-.323-.485-.606a3.4,3.4,0,0,0-1.86-.485,3.274,3.274,0,0,0-1.779.647C65.348,20.462,65.227,20.745,65.308,20.785Z" transform="translate(176.215 16.658)" fill="#263238"/>
    <path id="Trazado_215340" data-name="Trazado 215340" d="M66.766,30.009a11.723,11.723,0,0,0-2.021-.283c-.323,0-.647,0-.687-.283a1.738,1.738,0,0,1,0-.93c.283-.768.566-1.617.849-2.466a35.7,35.7,0,0,0,1.819-6.387,45.161,45.161,0,0,0-2.345,6.226c-.283.849-.526,1.7-.809,2.466a1.859,1.859,0,0,0,0,1.253.728.728,0,0,0,.526.445h.526A6.508,6.508,0,0,0,66.766,30.009Z" transform="translate(170.674 17.176)" fill="#263238"/>
    <path id="Trazado_215341" data-name="Trazado 215341" d="M65.163,19.841c0,.283,1.375,0,2.83,0s2.709,0,2.83-.283,0-.4-.728-.647a4.932,4.932,0,0,0-2.183-.364,4.77,4.77,0,0,0-2.143.687C65.284,19.355,65.082,19.679,65.163,19.841Z" transform="translate(175.794 13.761)" fill="#263238"/>
    <path id="Trazado_215342" data-name="Trazado 215342" d="M62.254,19.827c.243.283,1.253,0,2.466,0h2.506c.243,0,0-.445-.526-.687a4.285,4.285,0,0,0-4.043.2C62.254,19.261,62.132,19.544,62.254,19.827Z" transform="translate(166.858 14.341)" fill="#263238"/>
    <path id="Trazado_215343" data-name="Trazado 215343" d="M68.6,21.036s5.5-1.86,5.539,3.679A4.043,4.043,0,0,1,68.64,29Z" transform="translate(186.304 20.449)" fill="#ffbe9d"/>
    <path id="Trazado_215344" data-name="Trazado 215344" d="M69,25.613h.243a1.051,1.051,0,0,0,.728,0,2.385,2.385,0,0,0,1.092-2.183,3.113,3.113,0,0,0-.283-1.375,1.092,1.092,0,0,0-.728-.728.485.485,0,0,0-.566.283s0,.243,0,.283a.364.364,0,0,1,0-.323.97.97,0,0,1,.243-.364.728.728,0,0,1,.526,0,1.5,1.5,0,0,1,1.011.849,3.356,3.356,0,0,1,.364,1.577,2.547,2.547,0,0,1-1.415,2.385.93.93,0,0,1-.849,0Z" transform="translate(187.521 21.734)" fill="#eb996e"/>
    <path id="Trazado_215345" data-name="Trazado 215345" d="M68.08,22.41a2.852,2.852,0,0,1-1.294,2.183c-1.294.889-2.466.728-2.466.93s.283.243.889.243a2.911,2.911,0,0,0,2.021-.687,2.709,2.709,0,0,0,1.011-1.819C68.282,22.733,68.161,22.41,68.08,22.41Z" transform="translate(173.281 25.543)" fill="#263238"/>
    <path id="Trazado_215346" data-name="Trazado 215346" d="M59,26.891a1.294,1.294,0,0,1,.606-.768,3.679,3.679,0,0,1,2.062-.364,11.481,11.481,0,0,0,5.417-1.334,6.265,6.265,0,0,1-1.5-1.051,3.558,3.558,0,0,1-1.051-3.436.809.809,0,0,1,.445-.526,1.3,1.3,0,0,1,.93.526,2.992,2.992,0,0,0,2.83,1.132,4.568,4.568,0,0,0,2.1-.647h0l.809-.849h0a17.343,17.343,0,0,1,5.7-4.285A18.839,18.839,0,0,1,87.3,14.278,7.722,7.722,0,0,1,93.12,20.14a5.741,5.741,0,0,1,5.862-.606h0a7.358,7.358,0,0,1,4.043,5.175,1.172,1.172,0,0,0,0,.364,8.732,8.732,0,0,0,2.911,2.789s.445.243.485.485a.606.606,0,0,1-.364.566,3.76,3.76,0,0,1-1.738.768,10.228,10.228,0,0,0,.728,1.5c.283.4.566.889.364,1.334a.97.97,0,0,1-.97.4,2.143,2.143,0,0,1-.97-.445l.728,1.738a5.134,5.134,0,0,1-2.345,0c-.445,2.062-.728,5.862-1.253,7.236a8.409,8.409,0,0,0-2.547,0c-.97.323-.566,2.021-1.819,1.536-.647-.243-1.658-2.628-1.86-3.275a31.29,31.29,0,0,1-1.536-13.381A10.147,10.147,0,0,0,89.684,24.1h0a9.177,9.177,0,0,0-6.994-.4c-1.658.849-2.587,2.587-3.841,4.043a11.562,11.562,0,0,1-8.49,4.285c-.323,2.426-.364,6.428-.445,8.732l-2.021-4.568h0l-.4-.809h0q-.172-.616-.4-1.213h0a1.415,1.415,0,0,1-2.1-1.86,2.951,2.951,0,0,1,.687-.728,2.264,2.264,0,0,1-2.143.606,1.819,1.819,0,0,1-1.294-1.738,1.536,1.536,0,0,1,.889-1.213,5.053,5.053,0,0,1-2.87-.606C59.526,28.144,59,27.619,59,26.891Z" transform="translate(157.094 0)" fill="#263238"/>
    <path id="Trazado_215347" data-name="Trazado 215347" d="M66.8,15.77a4.567,4.567,0,0,1,.809.93A5.862,5.862,0,0,1,68.9,19.368a10.47,10.47,0,0,1,.2,2.062v2.385a19.563,19.563,0,0,0,0,2.668,8.084,8.084,0,0,0,0,1.375,2.991,2.991,0,0,0,.606,1.375,1.213,1.213,0,0,0,1.132.364,1.86,1.86,0,0,0,1.051-.606,4.366,4.366,0,0,0,.728-2.062h0a7.843,7.843,0,0,0,1.011,1.7,2.587,2.587,0,0,0,1.577.809,1.455,1.455,0,0,0,.849,0,1.9,1.9,0,0,0,.566-.566,1.577,1.577,0,0,0,0-.728.97.97,0,0,0-.283-.647h0a4.852,4.852,0,0,0,1.779,1.294h.526l-.526-.2a5.457,5.457,0,0,1-1.7-1.334h0a1.132,1.132,0,0,1-.445,1.7,1.5,1.5,0,0,1-.728,0,2.506,2.506,0,0,1-1.5-.809,6.628,6.628,0,0,1-.97-1.657v.04a3.8,3.8,0,0,1-1.132,2.3,1.779,1.779,0,0,1-.889.566,1.172,1.172,0,0,1-1.011-.323,3.355,3.355,0,0,1-.526-1.294,7.6,7.6,0,0,1,0-1.334V21.389a8.569,8.569,0,0,0-.243-2.1,5.619,5.619,0,0,0-1.334-2.668,3.4,3.4,0,0,0-.849-.849Z" transform="translate(180.827 5.34)" fill="#455a64"/>
    <path id="Trazado_215348" data-name="Trazado 215348" d="M60.62,27.377h0l.364.2.485.243a7.358,7.358,0,0,0,3.477.606,9.46,9.46,0,0,0,5.3-1.658,15.443,15.443,0,0,0,4.043-4.892c.606-1.011,1.051-2.021,1.577-2.951a11.32,11.32,0,0,1,1.779-2.466,5.579,5.579,0,0,1,2.345-1.455,4.043,4.043,0,0,1,1.213,0,3.517,3.517,0,0,1,1.132.2,4.972,4.972,0,0,1,1.7,1.011,4.528,4.528,0,0,1,.93,1.172A8.084,8.084,0,0,1,85.4,18.6V18.12a4.286,4.286,0,0,0-.323-.93,4.649,4.649,0,0,0-.93-1.213,4.851,4.851,0,0,0-1.738-1.051,5.5,5.5,0,0,0-1.172-.243,4.447,4.447,0,0,0-1.253,0,5.539,5.539,0,0,0-2.426,1.5,10.512,10.512,0,0,0-1.819,2.506c-.526.93-.97,1.94-1.577,2.911a15.686,15.686,0,0,1-4.043,4.851,9.056,9.056,0,0,1-4.77,1.9,7.277,7.277,0,0,1-3.436-.526A9.864,9.864,0,0,1,60.62,27.377Z" transform="translate(162.023 1.899)" fill="#455a64"/>
    <path id="Trazado_215349" data-name="Trazado 215349" d="M60.42,16.91l.323.2a3.355,3.355,0,0,0,.849.4,8.085,8.085,0,0,0,3.113.647,8.409,8.409,0,0,0,1.779,0l1.375-.364.889-.4c.2,0,.283,0,.283-.2l-1.213.445A9.581,9.581,0,0,1,66.444,18a11.725,11.725,0,0,1-1.738,0l-1.7-.2a9.34,9.34,0,0,1-1.375-.4,10.226,10.226,0,0,0-1.213-.485Z" transform="translate(161.415 8.809)" fill="#455a64"/>
    <path id="Trazado_215350" data-name="Trazado 215350" d="M147.964,61.054s-8.328-15-11.8-20.941a17.222,17.222,0,0,0-8.085-7.156,144.414,144.414,0,0,0-16.939-6.387h0a13.866,13.866,0,0,1-11.36,6.185,9.864,9.864,0,0,1-8.651-4.447h0l-18.516,5.66c-2.1.728-17.869,20.577-17.869,20.577l.93.93L66.949,67.037l2.87,2.951v7.843l-1.9,30a22.675,22.675,0,0,1-.849,2.87,67.144,67.144,0,0,0-1.5,12.128h.243c1.981.606,4.043,1.092,6.024,1.5h.485a65.45,65.45,0,0,0,16.413.606H89.1a175.209,175.209,0,0,0,34.848-7.317l-1.051-5.5a12.815,12.815,0,0,0-1.577-4.892l.93-16.171,2.264-25.024h0l.606,2.709Z" transform="translate(144.132 38.201)" fill="#455a64"/>
    <path id="Trazado_215351" data-name="Trazado 215351" d="M123.943,190.312l-3.072-64.683L116.828,62.28l-1.7-13.22a170.4,170.4,0,0,1-33.918,7.56h-.364a58.74,58.74,0,0,1-22.922-2.183c-.243,1.779-.445,4.245-.526,6.428h0v4.649c0,4.285,10.147,122.13,10.147,122.13H71.59V186.35h0l-.526-12.209H87.235v14.594H87.8L86.79,78.289l1.617.4s8.854,47.34,9.419,55.021c.526,6.873,7.722,56.962,7.722,56.962h2.1v-1.213h0v-2.951a4.407,4.407,0,0,1-.525-.687,1.132,1.132,0,0,1,0-.97.728.728,0,0,1,.445-.4l-.4-9.5,14.715,1.294-.566,14.069Z" transform="translate(152.226 106.631)" fill="#263238"/>
    <path id="Trazado_215352" data-name="Trazado 215352" d="M72.888,85.8a2.708,2.708,0,0,1,1.375.445c.93.566,1.172,1.5,1.011,1.536s-.526-.606-1.334-1.091a4.041,4.041,0,0,0-1.132-.526l-3.113,1.213a2.1,2.1,0,0,1,.93.728c.687.809.566,1.7.445,1.7s-.323-.728-.849-1.374a7.11,7.11,0,0,0-.97-.849L66.3,88.827a2.3,2.3,0,0,1,.768.93,1.864,1.864,0,0,1,0,1.617A2.283,2.283,0,0,0,66.5,90a2.628,2.628,0,0,1-.606-1.051A42.809,42.809,0,0,0,57,93.881h.243L87.967,92.87V84.057L72.524,83.41Zm8.368-.364a1.375,1.375,0,0,1,1.658-.768h0a1.294,1.294,0,0,1,.889,1.5,1.213,1.213,0,0,1-1.455.93A1.415,1.415,0,0,1,81.256,85.431Z" transform="translate(151.009 211.148)" fill="#455a64"/>
    <path id="Trazado_215353" data-name="Trazado 215353" d="M64.092,86.18a1.213,1.213,0,0,0,1.455-.93,1.294,1.294,0,0,0-.889-1.5h0A1.375,1.375,0,0,0,63,84.522,1.415,1.415,0,0,0,64.092,86.18Z" transform="translate(169.184 212.016)" fill="#e0e0e0"/>
    <path id="Trazado_215354" data-name="Trazado 215354" d="M57.77,86c-.364.243-1.132.768-1.011,1.536A2.789,2.789,0,0,1,57.77,86Z" transform="translate(150.238 219.028)" fill="#263238"/>
    <path id="Trazado_215355" data-name="Trazado 215355" d="M58.165,86.549l-.4.243a2.789,2.789,0,0,0-1.011,1.536H88.809V85.74Z" transform="translate(150.248 218.237)" fill="#263238"/>
    <path id="Trazado_215356" data-name="Trazado 215356" d="M61.3,84h-.081Z" transform="translate(162.598 212.943)" fill="#fff"/>
    <path id="Trazado_215357" data-name="Trazado 215357" d="M63.315,85.961A1.882,1.882,0,0,0,62.3,84.425a2.709,2.709,0,0,0-1.375-.445V84.3h0a4.04,4.04,0,0,1,1.132.526C62.79,85.355,63.194,86.042,63.315,85.961Z" transform="translate(162.967 212.882)" fill="#fff"/>
    <path id="Trazado_215358" data-name="Trazado 215358" d="M60,84.394l.2.243h.445C60.2,84.313,60,84.313,60,84.394Z" transform="translate(160.137 214.004)" fill="#fff"/>
    <path id="Trazado_215359" data-name="Trazado 215359" d="M61,85.421c.526.647.687,1.375.849,1.375s.243-.889-.445-1.7a2.1,2.1,0,0,0-.93-.728H60.03A7.117,7.117,0,0,1,61,85.421Z" transform="translate(160.228 214.069)" fill="#fff"/>
    <path id="Trazado_215360" data-name="Trazado 215360" d="M59.2,84.7v.243h.323S59.2,84.663,59.2,84.7Z" transform="translate(157.703 215.07)" fill="#fff"/>
    <path id="Trazado_215361" data-name="Trazado 215361" d="M60.332,87.277a2.089,2.089,0,0,0-.768-2.547H59.24c0,.243.4.606.606,1.051S60.17,87.277,60.332,87.277Z" transform="translate(157.824 215.164)" fill="#fff"/>
    <path id="Trazado_215362" data-name="Trazado 215362" d="M83.687,84a1.415,1.415,0,0,1-.485,1.294,1.253,1.253,0,0,1-1.617-.323,1.172,1.172,0,0,1-.2-.97H72.529v4.043a5.741,5.741,0,0,1,2.385-.485,4.042,4.042,0,0,1,2.587.768A13.373,13.373,0,0,0,74.914,88a12.131,12.131,0,0,0-2.385.243h0l-1.577,7.883.647-.2a3.315,3.315,0,0,1,1.779.283,3.194,3.194,0,0,1,1.375,1.213c.243.4.283.687.243.728a5.085,5.085,0,0,0-1.779-1.536,4.77,4.77,0,0,0-2.264-.364l-.849,3.4a2.789,2.789,0,0,1,1.86,0c1.172.323,1.779,1.172,1.657,1.213a12.12,12.12,0,0,0-1.779-.809,6.388,6.388,0,0,0-1.779,0l-1.092,4.609a2.062,2.062,0,0,0,1.658,2.506L86.113,89.781V84Zm-8.813,9.339a21.382,21.382,0,0,0-2.951-.606,4.043,4.043,0,0,1,3.113,0,4.77,4.77,0,0,1,2.547,1.86A16.533,16.533,0,0,0,74.874,93.339Z" transform="translate(187.266 212.943)" fill="#455a64"/>
    <path id="Trazado_215363" data-name="Trazado 215363" d="M73.16,85.8Z" transform="translate(200.179 218.42)" fill="#455a64"/>
    <path id="Trazado_215364" data-name="Trazado 215364" d="M73.18,86.259V85.41h0v1.5A3.557,3.557,0,0,0,73.18,86.259Z" transform="translate(200.24 217.233)" fill="#263238"/>
    <path id="Trazado_215365" data-name="Trazado 215365" d="M69.34,101.526a2.062,2.062,0,0,0,1.819-.566c8.085-8.368,11.8-12.492,13.018-13.988a3.314,3.314,0,0,0,.566-1.132,182.177,182.177,0,0,1-13.624,15.12,1.981,1.981,0,0,1-1.779.566Z" transform="translate(188.556 218.542)" fill="#263238"/>
    <path id="Trazado_215366" data-name="Trazado 215366" d="M71.18,102.085A182.156,182.156,0,0,0,84.8,86.966h0v-1.5L69.32,102.854a1.981,1.981,0,0,0,1.86-.768Z" transform="translate(188.495 217.416)" fill="#263238"/>
    <path id="Trazado_215367" data-name="Trazado 215367" d="M72.226,84.97a1.253,1.253,0,0,0,1.617.323A1.415,1.415,0,0,0,74.328,84h-2.3A1.172,1.172,0,0,0,72.226,84.97Z" transform="translate(196.626 212.943)" fill="#fff"/>
    <path id="Trazado_215368" data-name="Trazado 215368" d="M69.4,87.06Z" transform="translate(188.738 222.254)" fill="#fff"/>
    <path id="Trazado_215369" data-name="Trazado 215369" d="M71.7,87.694c1.172.526,1.658,1.577,1.779,1.536s0-.323-.243-.728a3.194,3.194,0,0,0-1.374-1.213,3.315,3.315,0,0,0-1.779-.283l-.647.2h0a4.771,4.771,0,0,1,2.264.485Z" transform="translate(188.86 222.023)" fill="#fff"/>
    <path id="Trazado_215370" data-name="Trazado 215370" d="M69.15,88.081Z" transform="translate(187.978 225.033)" fill="#fff"/>
    <path id="Trazado_215371" data-name="Trazado 215371" d="M70.948,88.424c1.051.283,1.7.93,1.779.809s-.485-.889-1.658-1.213a2.789,2.789,0,0,0-1.86,0h0a6.389,6.389,0,0,1,1.738.4Z" transform="translate(188.16 224.689)" fill="#fff"/>
    <path id="Trazado_215372" data-name="Trazado 215372" d="M72.773,86.445a4.043,4.043,0,0,0-3.113,0,21.394,21.394,0,0,1,2.951.606c1.577.566,2.587,1.577,2.709,1.455a4.771,4.771,0,0,0-2.547-2.062Z" transform="translate(189.529 219.433)" fill="#fff"/>
    <path id="Trazado_215373" data-name="Trazado 215373" d="M69.82,85.154h.243S69.82,85.113,69.82,85.154Z" transform="translate(190.016 216.398)" fill="#fff"/>
    <path id="Trazado_215374" data-name="Trazado 215374" d="M74.853,85.742a4.043,4.043,0,0,0-2.587-.768,5.74,5.74,0,0,0-2.385.485h0a12.13,12.13,0,0,1,2.385-.243A25.72,25.72,0,0,0,74.853,85.742Z" transform="translate(190.199 215.89)" fill="#fff"/>
    <path id="Trazado_215375" data-name="Trazado 215375" d="M69.772,82.933a.97.97,0,0,0,0,.647h0v-.97a.323.323,0,0,0,0,.323Z" transform="translate(189.701 208.714)" fill="#263238"/>
    <path id="Trazado_215376" data-name="Trazado 215376" d="M60.78,80l.485,12.451a2.183,2.183,0,0,1,1.617-.4c1.011,0,1.7.606,1.617.728a6.57,6.57,0,0,1-1.658,0H61.265v1.294l15.443.647V80Z" transform="translate(162.51 200.772)" fill="#263238"/>
    <path id="Trazado_215377" data-name="Trazado 215377" d="M60.894,83.08Z" transform="translate(162.801 210.144)" fill="#263238"/>
    <path id="Trazado_215378" data-name="Trazado 215378" d="M62.477,83.645c.889,0,1.577.323,1.658,0s-.606-.687-1.617-.728a2.183,2.183,0,0,0-1.617.4h0C61.3,83.726,61.749,83.6,62.477,83.645Z" transform="translate(162.875 209.578)" fill="#263238"/>
    <path id="Trazado_215379" data-name="Trazado 215379" d="M70.732,85.368a2.547,2.547,0,0,0,1.7-2.183.93.93,0,0,0,0-.647.485.485,0,0,0-.525,0,2.385,2.385,0,0,0-.809.97,5.944,5.944,0,0,0-.566,1.334v.243Z" transform="translate(192.176 208.26)" fill="#263238"/>
    <path id="Trazado_215380" data-name="Trazado 215380" d="M72.418,84.975v-.243a2.019,2.019,0,0,1,0-.485A7.848,7.848,0,0,0,71.246,83.2a2.87,2.87,0,0,0-1.172-.566H69.75v.97a3.072,3.072,0,0,0,2.668,1.375Z" transform="translate(189.803 208.774)" fill="#263238"/>
    <path id="Trazado_215381" data-name="Trazado 215381" d="M70.47,83.5h.323l-.323-.4v.485Z" transform="translate(191.994 210.204)" fill="#263238"/>
    <path id="Trazado_215382" data-name="Trazado 215382" d="M79.676,95.037h0a1.253,1.253,0,0,1,1.738,0,.849.849,0,0,1,0,.445H84l.364-14.028L69.65,80.16l.4,9.5h.364a2.628,2.628,0,0,1,1.334.687A5.054,5.054,0,0,1,72.8,91.358a4.69,4.69,0,0,1,.445-1.253,2.3,2.3,0,0,1,.97-1.132.889.889,0,0,1,.93,0,1.294,1.294,0,0,1,.323.889,2.87,2.87,0,0,1-2.466,2.749h-.243A3.275,3.275,0,0,1,70.256,91.6v2.668l.4-.283a4.245,4.245,0,0,1,1.981-.606,4.043,4.043,0,0,1,2.021.364,2.062,2.062,0,0,1,.728.485,10.268,10.268,0,0,0-2.709-.4,6.185,6.185,0,0,0-2.426.647v1.213H79.15a1.092,1.092,0,0,1,.526-.647Z" transform="translate(189.499 201.259)" fill="#263238"/>
    <path id="Trazado_215383" data-name="Trazado 215383" d="M72.4,84.112h0a1.092,1.092,0,0,0-.4.566h2.223a.85.85,0,0,0,0-.445,1.253,1.253,0,0,0-1.819-.121Z" transform="translate(196.649 212.265)" fill="#263238"/>
    <path id="Trazado_215384" data-name="Trazado 215384" d="M69.784,83.8Z" transform="translate(189.85 212.29)" fill="#263238"/>
    <path id="Trazado_215385" data-name="Trazado 215385" d="M72.246,83.954a10.27,10.27,0,0,1,2.709.4,2.061,2.061,0,0,0-.728-.485,4.043,4.043,0,0,0-2.021-.364,4.245,4.245,0,0,0-1.981.606l-.4.283h0a6.185,6.185,0,0,1,2.426-.445Z" transform="translate(190.016 211.412)" fill="#263238"/>
    <path id="Trazado_215386" data-name="Trazado 215386" d="M69.732,82.724a1.132,1.132,0,0,0,0,.97,4.4,4.4,0,0,0,.526.687v-.687h0a.97.97,0,0,1,0-.647h0v-.4A.727.727,0,0,0,69.732,82.724Z" transform="translate(189.417 208.761)" fill="#263238"/>
    <path id="Trazado_215387" data-name="Trazado 215387" d="M70.483,83.445V82.96a.606.606,0,0,0,0,.283Z" transform="translate(191.981 209.779)" fill="#263238"/>
    <path id="Trazado_215388" data-name="Trazado 215388" d="M71.32,83.793a2.385,2.385,0,0,1,.808-.97.485.485,0,0,1,.526,0,.93.93,0,0,1,0,.647,2.547,2.547,0,0,1-1.7,2.183v.283l-.243-.283H70.39V86.1h.243A2.87,2.87,0,0,0,73.1,83.348a1.294,1.294,0,0,0-.323-.889.889.889,0,0,0-.93,0,2.3,2.3,0,0,0-.97,1.132,4.689,4.689,0,0,0-.445,1.253v.243A5.941,5.941,0,0,1,71.32,83.793Z" transform="translate(191.75 207.854)" fill="#263238"/>
    <path id="Trazado_215389" data-name="Trazado 215389" d="M70.58,83.667v-.4l.323.4Z" transform="translate(192.329 209.961)" fill="#263238"/>
    <path id="Trazado_215390" data-name="Trazado 215390" d="M70.154,82.9a2.87,2.87,0,0,1,1.172.566A7.843,7.843,0,0,1,72.5,84.521a.606.606,0,0,1,0-.283,5.055,5.055,0,0,0-1.051-1.011,2.628,2.628,0,0,0-1.334-.687H69.75v.4Z" transform="translate(189.803 208.501)" fill="#263238"/>
    <path id="Trazado_215391" data-name="Trazado 215391" d="M70.42,83.33Z" transform="translate(191.842 210.904)" fill="#263238"/>
    <path id="Trazado_215392" data-name="Trazado 215392" d="M70.421,83.575h0V83.09h0A2.019,2.019,0,0,0,70.421,83.575Z" transform="translate(191.8 210.174)" fill="#263238"/>
    <path id="Trazado_215393" data-name="Trazado 215393" d="M70.624,83.463V83.18h0S70.583,83.5,70.624,83.463Z" transform="translate(192.406 210.448)" fill="#263238"/>
    <path id="Trazado_215394" data-name="Trazado 215394" d="M70.41,83.24v.4h0V83.2Z" transform="translate(191.811 210.509)" fill="#263238"/>
    <path id="Trazado_215395" data-name="Trazado 215395" d="M72.327,84.184A3.073,3.073,0,0,1,69.78,82.89v.687a3.274,3.274,0,0,0,2.506,1.011Z" transform="translate(189.894 209.566)" fill="#263238"/>
    <path id="Trazado_215396" data-name="Trazado 215396" d="M58.019,30.48a6.387,6.387,0,0,1,0,1.132v3.032c.2,2.587.445,6.1.687,10.026s.283,7.479.283,10.066v3.072a4.042,4.042,0,0,1,0,1.092,4.729,4.729,0,0,1,0-1.092V54.736a95.313,95.313,0,0,0-.4-10.026c-.4-3.921-.566-7.479-.566-10.066V31.612a6.386,6.386,0,0,1,0-1.132Z" transform="translate(154.033 50.098)" fill="#263238"/>
    <path id="Trazado_215397" data-name="Trazado 215397" d="M74.613,31.25a3.193,3.193,0,0,1,0,1.011l-.364,2.668c-.323,2.264-.768,5.417-1.172,8.894s-.768,6.63-1.051,8.894v2.709a3.033,3.033,0,0,1,0,.97,3.516,3.516,0,0,1,0-.97V52.717c0-2.3.364-5.458.728-8.934s.889-6.63,1.294-8.894a9.668,9.668,0,0,1,.526-2.668,4.042,4.042,0,0,1,.04-.97Z" transform="translate(196.624 52.441)" fill="#263238"/>
    <rect id="Rectngulo_44204" data-name="Rectngulo 44204" width="13.81" height="30.375" transform="matrix(0.998, 0.06, -0.06, 0.998, 236.257, 92.247)" fill="#f5f5f5"/>
    <path id="Trazado_215398" data-name="Trazado 215398" d="M50.359,48.23a51.545,51.545,0,0,0-7.4,29.876c1.375,16.7,8.085,48.512,8.085,48.512a283.958,283.958,0,0,0,3.234,41.316,70.424,70.424,0,0,1,2.466,18.516h13.26s.889-35.818,0-43.338a38.972,38.972,0,0,1,.4-16.7L71.7,80.935,72.836,49.6Z" transform="translate(108.006 104.106)" fill="#263238"/>
    <path id="Trazado_215399" data-name="Trazado 215399" d="M70.213,48.743A42.529,42.529,0,0,1,78.3,76.273c-.728,16.7-6.185,48.876-6.185,48.876a284.2,284.2,0,0,1-1.577,41.438A167.684,167.684,0,0,0,67.869,187.2l-12.33-1.536s-2.3-35.737-1.7-43.3a38.932,38.932,0,0,0-1.051-16.656L50,80.235,50.4,48.5Z" transform="translate(129.71 104.927)" fill="#263238"/>
    <path id="Trazado_215400" data-name="Trazado 215400" d="M55.934,81.434l.728,12.734s-13.3,5.013-13.422,7.358L69.194,101l-.283-19.93Z" transform="translate(109.141 204.028)" fill="#263238"/>
    <path id="Trazado_215401" data-name="Trazado 215401" d="M49.465,84.015a.952.952,0,1,1-.4,1.86,1.051,1.051,0,0,1-.809-1.213,1.011,1.011,0,0,1,1.294-.606" transform="translate(124.342 212.928)" fill="#e0e0e0"/>
    <path id="Trazado_215402" data-name="Trazado 215402" d="M69.11,87.521V85.5L44.288,86.713s-1.132.485-1.011,1.253Z" transform="translate(109.226 217.507)" fill="#455a64"/>
    <path id="Trazado_215403" data-name="Trazado 215403" d="M46.461,84.365a2,2,0,0,1,1.253.566c.606.566.97.849,1.092.809s0-.728-.849-1.172S46.421,84.243,46.461,84.365Z" transform="translate(118.938 213.71)" fill="#fff"/>
    <path id="Trazado_215404" data-name="Trazado 215404" d="M45.79,84.607a5.158,5.158,0,0,1,.97.809c.445.485.566,1.051.687,1.051s0-.687-.364-1.334S45.79,84.486,45.79,84.607Z" transform="translate(116.9 214.6)" fill="#fff"/>
    <path id="Trazado_215405" data-name="Trazado 215405" d="M46.153,86.912a1.644,1.644,0,0,0,0-1.253c-.283-.647-.93-.93-.97-.809s.283.445.566.97S46.032,86.872,46.153,86.912Z" transform="translate(115.042 215.448)" fill="#fff"/>
    <path id="Trazado_215406" data-name="Trazado 215406" d="M46.505,83.988H47.84c.687,0,1.294.243,1.375,0s-.485-.526-1.334-.566S46.425,83.867,46.505,83.988Z" transform="translate(119.055 211.176)" fill="#fff"/>
    <path id="Trazado_215407" data-name="Trazado 215407" d="M63.428,81.34l-1.213,15.4,2.547,12.492a1.577,1.577,0,0,1-1.415,1.86h0a1.658,1.658,0,0,1-1.415-.485A82.835,82.835,0,0,1,51.3,98.158c.2-1.294.364-16.171.364-16.171Z" transform="translate(133.665 204.849)" fill="#263238"/>
    <path id="Trazado_215408" data-name="Trazado 215408" d="M63.374,99.2,51.246,85.25V85.9a2.223,2.223,0,0,0,.485,1.577c.97,1.213,3.638,4.487,10.026,11.239a1.7,1.7,0,0,0,1.5.485Z" transform="translate(133.477 216.746)" fill="#455a64"/>
    <g id="Grupo_145937" data-name="Grupo 145937" transform="translate(186.96 297.051)" opacity="0.6">
      <path id="Trazado_215409" data-name="Trazado 215409" d="M53.357,84.2a.889.889,0,0,1,0,1.253.884.884,0,1,1-1.294-1.172,1.051,1.051,0,0,1,1.375,0" transform="translate(-51.793 -84.027)" fill="#fff"/>
    </g>
    <path id="Trazado_215410" data-name="Trazado 215410" d="M53.451,88.12a4.81,4.81,0,0,1,1.5-1.132,4.568,4.568,0,0,1,1.86,0l-.526-.243a2.507,2.507,0,0,0-1.5,0,2.587,2.587,0,0,0-1.132.849C53.451,87.8,53.41,88.12,53.451,88.12Z" transform="translate(140.166 220.951)" fill="#fff"/>
    <path id="Trazado_215411" data-name="Trazado 215411" d="M53.7,88.215a9.907,9.907,0,0,1,1.455-.606h1.617a2.021,2.021,0,0,0-1.7-.243C54.1,87.488,53.616,88.175,53.7,88.215Z" transform="translate(140.931 222.918)" fill="#fff"/>
    <path id="Trazado_215412" data-name="Trazado 215412" d="M53,87.642a17.3,17.3,0,0,1,2.021-1.172c1.294-.4,2.426-.283,2.426-.4a3.8,3.8,0,0,0-2.547,0A3.679,3.679,0,0,0,53,87.642Z" transform="translate(138.838 218.559)" fill="#fff"/>
    <path id="Trazado_215413" data-name="Trazado 215413" d="M53,85.42a18.322,18.322,0,0,1,2.1,0,17.766,17.766,0,0,1,2.1.283,3.113,3.113,0,0,0-2.1-.606A3.073,3.073,0,0,0,53,85.42Z" transform="translate(138.838 216.091)" fill="#fff"/>
    <path id="Trazado_215414" data-name="Trazado 215414" d="M53,84.28a9.136,9.136,0,0,1,2.183,0,6.67,6.67,0,0,1,2.1.647s0-.243-.485-.485a3.8,3.8,0,0,0-1.577-.526,4.043,4.043,0,0,0-1.657.242A1.61,1.61,0,0,1,53,84.28Z" transform="translate(138.838 212.663)" fill="#fff"/>
    <path id="Trazado_215415" data-name="Trazado 215415" d="M55.253,86.1v-.566a5.256,5.256,0,0,0-.4-1.577,2.1,2.1,0,0,0-.728-.889.687.687,0,0,0-.768,0,1.213,1.213,0,0,0-.323.687,2.264,2.264,0,0,0,1.94,2.183,2.749,2.749,0,0,0,2.749-1.172.849.849,0,0,0,0-.768.768.768,0,0,0-.647-.364,2.1,2.1,0,0,0-1.092.485,4.043,4.043,0,0,0-1.213,1.132,2.588,2.588,0,0,0-.283.485A8.612,8.612,0,0,1,56.1,84.322a2.061,2.061,0,0,1,.97-.4.364.364,0,0,1,.364.2.728.728,0,0,1,0,.485,2.507,2.507,0,0,1-2.426,1.011A1.981,1.981,0,0,1,53.353,83.8v-.485a.323.323,0,0,1,.4,0,1.5,1.5,0,0,1,.647.768,6.468,6.468,0,0,1,.849,2.021Z" transform="translate(138.929 209.751)" fill="#fff"/>
    <path id="Trazado_215416" data-name="Trazado 215416" d="M48.6,23.85A123.3,123.3,0,0,0,45,46.327V49.44a31.856,31.856,0,0,0,14.311,6.832l5.458-13.422Z" transform="translate(114.496 29.925)" fill="#263238"/>
    <path id="Trazado_215417" data-name="Trazado 215417" d="M81.564,42.379c-1.5-6.428-2.062-13.907-7.4-18.111a19.486,19.486,0,0,0-13.5-3.76,17.626,17.626,0,0,0-7.439,2.466,16.171,16.171,0,0,0-5.66,8.085c-2.83,6.185-2.466,14.554-.526,16.858L72.872,61.582c5.134-2.668,8.368-3.76,9.217-10.632A25.913,25.913,0,0,0,81.564,42.379Z" transform="translate(116.055 19.481)" fill="#263238"/>
    <path id="Trazado_215418" data-name="Trazado 215418" d="M72.492,26.268,56.321,21.5c-5.215-.768-8.975,5.579-9.541,10.834a97.025,97.025,0,0,0-.687,17.424,10.956,10.956,0,0,0,7.8,10.349v8.085a4.609,4.609,0,0,0,1.294,3.679c2.385,3.072,6.751,3.517,12.128,1.617a7.519,7.519,0,0,0,5.3-6.387l2.83-37.476a3.113,3.113,0,0,0-2.951-3.355Z" transform="translate(117.446 22.575)" fill="#ffbe9d"/>
    <path id="Trazado_215419" data-name="Trazado 215419" d="M46.811,26.916a1.172,1.172,0,0,0,1.051,1.213,1.092,1.092,0,0,0,1.213-.97,1.138,1.138,0,1,0-2.264-.243Z" transform="translate(120.003 36.158)" fill="#263238"/>
    <path id="Trazado_215420" data-name="Trazado 215420" d="M46.435,26.262a5.669,5.669,0,0,1,2.223-.4c1.213.04,2.1.687,2.223.566s0-.323-.445-.647a3.275,3.275,0,0,0-1.779-.606,3.194,3.194,0,0,0-1.779.485C46.516,25.939,46.355,26.182,46.435,26.262Z" transform="translate(118.802 33.94)" fill="#263238"/>
    <path id="Trazado_215421" data-name="Trazado 215421" d="M49.463,26.923a1.132,1.132,0,0,0,1.011,1.213,1.092,1.092,0,0,0,1.213-.97,1.172,1.172,0,0,0-1.051-1.213,1.092,1.092,0,0,0-1.172.97Z" transform="translate(128.064 36.312)" fill="#263238"/>
    <path id="Trazado_215422" data-name="Trazado 215422" d="M49.376,26.333a5.988,5.988,0,0,1,2.264-.4c1.213.04,2.062.687,2.183.526s0-.323-.4-.606a3.113,3.113,0,0,0-1.779-.647,2.992,2.992,0,0,0-1.779.526C49.456,25.969,49.335,26.252,49.376,26.333Z" transform="translate(127.788 34.032)" fill="#263238"/>
    <path id="Trazado_215423" data-name="Trazado 215423" d="M50.38,35a10.43,10.43,0,0,0-1.94-.4c-.323,0-.606,0-.647-.364a1.82,1.82,0,0,1,.243-.889l1.011-2.345a40.429,40.429,0,0,0,2.3-6.064,42.614,42.614,0,0,0-2.789,5.862c-.323.849-.647,1.617-.97,2.345a1.779,1.779,0,0,0,0,1.213.728.728,0,0,0,.485.485,1.294,1.294,0,0,0,.526,0A6.791,6.791,0,0,0,50.38,35Z" transform="translate(122.053 33.211)" fill="#263238"/>
    <path id="Trazado_215424" data-name="Trazado 215424" d="M48.1,33.008A22.477,22.477,0,0,0,59.988,30.34,11.279,11.279,0,0,1,47.86,35.191Z" transform="translate(123.199 49.672)" fill="#eb996e"/>
    <path id="Trazado_215425" data-name="Trazado 215425" d="M51.935,28.74a1.738,1.738,0,0,0-1.455-.849,2.224,2.224,0,0,0-2.1.97,1.294,1.294,0,0,0,0,1.011v.2a4.043,4.043,0,0,0,1.617,1.092,1.7,1.7,0,0,0,1.819-.606,1.738,1.738,0,0,0,.121-1.819Z" transform="translate(124.46 42.176)" fill="#eb996e"/>
    <path id="Trazado_215426" data-name="Trazado 215426" d="M52.142,27.68a3.921,3.921,0,0,1-1.415,2.183,6.428,6.428,0,0,1-2.587.849,1.6,1.6,0,0,0,.889.323,3.477,3.477,0,0,0,2.183-.647A2.951,2.951,0,0,0,52.3,28.569C52.385,28,52.264,27.68,52.142,27.68Z" transform="translate(124.051 41.578)" fill="#263238"/>
    <path id="Trazado_215427" data-name="Trazado 215427" d="M49.263,24.93c0,.323,1.334.283,2.709.606s2.506.809,2.749.526,0-.485-.526-.849a4.771,4.771,0,0,0-1.981-.889,4.689,4.689,0,0,0-2.143,0C49.505,24.525,49.222,24.768,49.263,24.93Z" transform="translate(127.456 30.988)" fill="#263238"/>
    <path id="Trazado_215428" data-name="Trazado 215428" d="M46.475,25.856c.283.243,1.172,0,2.3-.364s2.062,0,2.264-.4,0-.4-.566-.606a3.6,3.6,0,0,0-1.94-.2,3.517,3.517,0,0,0-1.738.849C46.475,25.452,46.353,25.735,46.475,25.856Z" transform="translate(118.843 31.072)" fill="#263238"/>
    <path id="Trazado_215429" data-name="Trazado 215429" d="M48.5,21.21v.2h0Z" transform="translate(125.146 21.892)" fill="#263238"/>
    <path id="Trazado_215430" data-name="Trazado 215430" d="M68.806,64.972c.243-2.3-.687-4.609-.4-6.913a47.1,47.1,0,0,1,2.506-6.913,30.24,30.24,0,0,0-.889-11.8,9.177,9.177,0,0,1-5.741-3.275,25.873,25.873,0,0,1-4.043-7.115,12.128,12.128,0,0,0,2.385,6.832,3.113,3.113,0,0,1-2.709-.889A6.872,6.872,0,0,1,58.3,32.388a19.163,19.163,0,0,1-1.577-7.034,25.267,25.267,0,0,0,1.172,10.268,4.487,4.487,0,0,0-1.941,0,2.062,2.062,0,0,1-1.819-.4,2.183,2.183,0,0,1-.485-1.172,26.52,26.52,0,0,1-.121-8.894A25.146,25.146,0,0,0,51.5,30.124a9.824,9.824,0,0,0,0,5.3.768.768,0,0,1-1.092,0,1.7,1.7,0,0,1-.485-1.092,13.744,13.744,0,0,1,.283-4.447,21.467,21.467,0,0,0-1.657,5.094A7.56,7.56,0,0,1,45.8,39.422a23.487,23.487,0,0,1,0-6.751,21.225,21.225,0,0,1,1.981-5.336,15.928,15.928,0,0,1,3.6-4.973c2.587-2.264,3.679-1.294,5.336-.445h0v-.323a24.7,24.7,0,0,1,13.058.606c3.113,1.011,3.4,7.722,4.043,4.528.485-1.94,2.992,0,2.992,0a69.453,69.453,0,0,1,7.762,33.837h0Z" transform="translate(116.199 21.145)" fill="#263238"/>
    <path id="Trazado_215431" data-name="Trazado 215431" d="M65.2,60.967s.323-.566.849-1.617a16.17,16.17,0,0,0,1.5-4.609,16.575,16.575,0,0,0-.485-7.317,21.427,21.427,0,0,0-4.649-7.681C60.3,37.317,58,35.255,56.06,33.234a31.978,31.978,0,0,1-4.447-6.024,15.322,15.322,0,0,1-1.94-4.811,8.087,8.087,0,0,1-.2-1.375V20.54a6.88,6.88,0,0,0,.364,1.819,16.656,16.656,0,0,0,1.779,4.69,32.342,32.342,0,0,0,4.609,5.781c1.94,2.021,4.043,4.043,6.387,6.549a20.78,20.78,0,0,1,4.649,7.843,16.454,16.454,0,0,1,.526,7.519,15.685,15.685,0,0,1-1.658,4.77c-.283.526-.526.889-.687,1.172Z" transform="translate(128.097 19.854)" fill="#e0e0e0"/>
    <path id="Trazado_215432" data-name="Trazado 215432" d="M47.3,32.826l7.034-.526,17.181.243,14.473,4.892L77.3,50.492,63.191,55.465,52.276,52.877l-6.266-7.56Z" transform="translate(117.57 55.636)" fill="#ffbe9d"/>
    <path id="Trazado_215433" data-name="Trazado 215433" d="M95.661,72.686l3.8-34.242L87.333,33.916h0c-3.234,9.5-7.236,11.845-10.713,13.22a11.562,11.562,0,0,1-13.583-2.547,11.724,11.724,0,0,1-2.992-12.128,49.643,49.643,0,0,0-11.926.606c-3.436,1.051-4.77,6.226-5.539,8.49V47.54L47.512,68.6h0s.606,19.082.283,20.82.283,6.064,3.234,7.115A316.99,316.99,0,0,0,92.79,97.912c2.223,0,6.266-2.062,4.689-6.1Z" transform="translate(107.133 55.758)" fill="#f67409"/>
    <path id="Trazado_215434" data-name="Trazado 215434" d="M68.114,63.119,65.406,41.652a9.42,9.42,0,0,0-4.892-7.8h0L55.38,66.515l1.415,3.679Z" transform="translate(146.08 60.352)" fill="#f67409"/>
    <path id="Trazado_215435" data-name="Trazado 215435" d="M46.576,34.63l-5.256,20.7,13.907,7.964L49.648,34.63Z" transform="translate(103.299 62.725)" fill="#f67409"/>
    <path id="Trazado_215436" data-name="Trazado 215436" d="M42.873,36.36a17.591,17.591,0,0,0,.283,2.668,59.259,59.259,0,0,0,1.011,6.387c.566,2.426,1.213,4.649,1.738,6.185a24.264,24.264,0,0,1,.849,2.547L46.43,53.5a17.539,17.539,0,0,1-.768-1.779A42.043,42.043,0,0,1,43.8,45.5a43.417,43.417,0,0,1-.93-6.468,16.822,16.822,0,0,1,0-1.94Q42.812,36.36,42.873,36.36Z" transform="translate(107.932 67.989)" fill="#263238"/>
    <path id="Trazado_215437" data-name="Trazado 215437" d="M58.706,35.48a4.286,4.286,0,0,1,0,1.172l-.445,3.194c-.364,2.668-.849,6.387-1.294,10.511s-.728,8.085-.93,10.592L55.8,64.143a5.5,5.5,0,0,1,0,1.172,8.613,8.613,0,0,1,0-1.172V60.909c0-2.709.4-6.468.849-10.592s.97-7.843,1.375-10.511c.243-1.334.445-2.426.566-3.194A6.022,6.022,0,0,1,58.706,35.48Z" transform="translate(147.282 65.311)" fill="#263238"/>
    <path id="Trazado_215438" data-name="Trazado 215438" d="M72.382,57.271a4.043,4.043,0,0,1-1.132-.364c-.728-.243-1.738-.606-3.032-1.132a76.817,76.817,0,0,1-9.541-4.77,74.629,74.629,0,0,1-8.732-6.1c-1.092-.849-1.9-1.577-2.466-2.1l-.849-.809a4.043,4.043,0,0,1,.93.687L50.107,44.7a87.158,87.158,0,0,0,8.773,5.943,99.043,99.043,0,0,0,9.46,4.892l2.992,1.253A5.173,5.173,0,0,1,72.382,57.271Z" transform="translate(119.456 85.119)" fill="#263238"/>
    <path id="Trazado_215439" data-name="Trazado 215439" d="M59.661,34.733a11.117,11.117,0,0,0-4.285-3.113,54.375,54.375,0,0,0-10.551,1.375c-2.83.566-2.668,2.668-.809,2.83a37.516,37.516,0,0,0,5.175,0,5.336,5.336,0,0,0,4.487,2.466,10.349,10.349,0,0,0,5.983-3.558Z" transform="translate(107.355 53.567)" fill="#ffbe9d"/>
    <path id="Trazado_215440" data-name="Trazado 215440" d="M54.147,33.132a38.644,38.644,0,0,0-4.69-1.577c-2.3-.606-3.8-.606-4.407.2s-2.426,5.094-1.9,5.943a32.342,32.342,0,0,0,7.2,5.053c.889,0,1.577-.283,1.172-1.415A22.357,22.357,0,0,0,47.962,37.3l.647-2.668Z" transform="translate(108.584 52.055)" fill="#ffbe9d"/>
    <path id="Trazado_215441" data-name="Trazado 215441" d="M46.008,31.42s-3.275,7.156-3.355,7.722,1.577,2.021,2.911,2.709,5.336,2.021,5.821,1.375a2.507,2.507,0,0,0,.4-1.375l-6.1-4.043Z" transform="translate(107.344 52.958)" fill="#ffbe9d"/>
    <path id="Trazado_215442" data-name="Trazado 215442" d="M42.75,33.36v3.8c0,.485.728,1.981,1.617,1.617s.849-.364.93-1.294a19.322,19.322,0,0,0,0-2.264l-2.3-1.536" transform="translate(107.65 58.861)" fill="#ffbe9d"/>
    <path id="Trazado_215443" data-name="Trazado 215443" d="M53.746,35.248a2.749,2.749,0,0,1-1.577,0,4.73,4.73,0,0,1-3.113-2.3h-.526a14.231,14.231,0,0,1-4.043.243,5.7,5.7,0,0,1-1.7-.485,10.193,10.193,0,0,1,1.738.2,20.213,20.213,0,0,0,4.043-.323h.485a4.77,4.77,0,0,0,2.83,2.223A14.446,14.446,0,0,0,53.746,35.248Z" transform="translate(107.772 56.488)" fill="#eb996e"/>
    <path id="Trazado_215444" data-name="Trazado 215444" d="M52.743,31.6a27.774,27.774,0,0,1-4.851,1.011A35.011,35.011,0,0,1,43,33.217a30.037,30.037,0,0,1,4.892-1.011,28.824,28.824,0,0,1,4.851-.606Z" transform="translate(108.411 53.506)" fill="#eb996e"/>
    <path id="Trazado_215445" data-name="Trazado 215445" d="M43.183,32.73a2.053,2.053,0,0,0,.606,1.213,7.6,7.6,0,0,0,2.345,2.1,22.72,22.72,0,0,0,4.043,1.86,8.085,8.085,0,0,1-4.366-1.5,6.953,6.953,0,0,1-2.385-2.345,2.264,2.264,0,0,1-.243-1.334Z" transform="translate(108.915 56.944)" fill="#eb996e"/>
    <path id="Trazado_215446" data-name="Trazado 215446" d="M45.878,36.312a3.6,3.6,0,0,1-1.941-1.092c-.93-.849-1.375-1.819-1.253-1.86s.647.768,1.5,1.577S45.919,36.191,45.878,36.312Z" transform="translate(107.392 58.86)" fill="#eb996e"/>
    <path id="Trazado_215447" data-name="Trazado 215447" d="M76.86,33.622c.526-.323,8.692-3.355,8.692-3.355l17.1-.647,7.56,1.617-7.4,12.371L91.656,44.5l-9.743-4.043-4.043-4.609Z" transform="translate(211.437 47.481)" fill="#ae7461"/>
    <path id="Trazado_215448" data-name="Trazado 215448" d="M80.44,20.558a3.6,3.6,0,0,1,4.043-3.113,4.689,4.689,0,0,1,6.307-2.062c.97.566,1.738,1.455,2.709,2.062a32.483,32.483,0,0,0,3.032,1.294,3.315,3.315,0,0,1,2.062,2.385,2.83,2.83,0,0,1-1.94,2.789,8.489,8.489,0,0,1-3.638.323,1.374,1.374,0,0,1,.4,1.658A2.83,2.83,0,0,1,92,27.026a5.538,5.538,0,0,1-5.7-1.092L84,24.2A3.638,3.638,0,0,1,80.44,20.558Z" transform="translate(222.33 2.614)" fill="#263238"/>
    <path id="Trazado_215449" data-name="Trazado 215449" d="M85.593,21.369a1.213,1.213,0,0,0,1.617,0,1.657,1.657,0,0,0,.364-1.617,2.426,2.426,0,0,0-1.092-1.375,5.741,5.741,0,0,0-1.617-.687,12.331,12.331,0,0,0-2.709-.526,2.345,2.345,0,0,0-.93,0,.93.93,0,0,0-.606.728,1.533,1.533,0,0,0,.728,1.092,26.643,26.643,0,0,0,4.366,2.628" transform="translate(222.877 9.443)" fill="#ff725e"/>
    <path id="Trazado_215450" data-name="Trazado 215450" d="M110.773,22.122a7.277,7.277,0,0,1,8.813-.445A4.043,4.043,0,0,1,125,23.456l5.741,1.172a6.55,6.55,0,0,1,2.749,1.092,2.1,2.1,0,0,1,.485,2.668,3.113,3.113,0,0,1,1.334,4.973,2.183,2.183,0,0,1-.283,3.153,21.831,21.831,0,0,1,3.719,6.347,4.407,4.407,0,0,1,.323,3.032,1.779,1.779,0,0,1-2.466,1.051,2.506,2.506,0,0,1,0,2.749c.97,0,1.294,1.5.647,2.183a3.679,3.679,0,0,1-2.749.809,4.447,4.447,0,0,0-2.789.485.889.889,0,0,0,.323.606,4.043,4.043,0,0,1,.93,5.417l-.323.445a9.339,9.339,0,0,1-2.789,2.021,15.524,15.524,0,0,1-5.943,1.294c.687,1.577-3.275,5.094-7.843,1.7a86.917,86.917,0,0,1-24.943,3.558c-1.375,0-2.951,0-3.558-1.334A3.4,3.4,0,0,1,84.5,65.9a9.945,9.945,0,0,1-1.819-2.83,5.821,5.821,0,0,1-4.245-5.256,7.115,7.115,0,0,1-2.749-5.094,4.043,4.043,0,0,1-2.466-5.7,25.226,25.226,0,0,1,2.709-8.085,2.789,2.789,0,0,1-1.5-3.841,8.085,8.085,0,0,1,3.315-3.234c-1.132.323-2.143-1.092-1.86-2.264a4.406,4.406,0,0,1,2.3-2.587,22.639,22.639,0,0,1,4.73-2.143,10.228,10.228,0,0,1,5.013-5.256c7.6-3.679,12.937-4.609,22.72,2.426" transform="translate(199.031 8.448)" fill="#263238"/>
    <path id="Trazado_215451" data-name="Trazado 215451" d="M100.58,23.58,87.159,19.133c-5.256-.809-9.015,5.538-9.622,10.794A93.465,93.465,0,0,0,76.89,47.31a13.26,13.26,0,0,0,8.975,11.239v5.377a5.175,5.175,0,0,0,5.053,4.043c12.128.283,12.815-6.509,12.815-6.509V28.391C103.41,26.895,102.036,23.822,100.58,23.58Z" transform="translate(211.083 15.359)" fill="#ae7461"/>
    <path id="Trazado_215452" data-name="Trazado 215452" d="M81.251,32.667a8.49,8.49,0,0,0-1.981-.485c-.283,0-.606,0-.647-.323a1.5,1.5,0,0,1,.283-.889l1.011-2.345a43.985,43.985,0,0,0,2.345-6.064,37.8,37.8,0,0,0-2.83,5.821l-1.011,2.345a1.981,1.981,0,0,0,0,1.213.809.809,0,0,0,.485.485,1.294,1.294,0,0,0,.526,0,12.124,12.124,0,0,0,1.819.243Z" transform="translate(215.899 26)" fill="#263238"/>
    <path id="Trazado_215453" data-name="Trazado 215453" d="M79.213,31.355A28.622,28.622,0,0,0,89.845,28,11.724,11.724,0,0,1,78.93,34.226Z" transform="translate(217.735 42.552)" fill="#6f4439"/>
    <path id="Trazado_215454" data-name="Trazado 215454" d="M80.333,22.375c0,.323,1.334.243,2.749.485s2.547.647,2.749.364,0-.445-.566-.809a5.255,5.255,0,0,0-2.021-.809,5.013,5.013,0,0,0-2.143,0C80.575,21.971,80.292,22.214,80.333,22.375Z" transform="translate(221.992 22.748)" fill="#263238"/>
    <path id="Trazado_215455" data-name="Trazado 215455" d="M77.458,22.554c0,.283,1.051,0,2.062,0s1.86.243,2.062,0,0-.4-.4-.687a2.992,2.992,0,0,0-3.315,0C77.5,22.15,77.377,22.433,77.458,22.554Z" transform="translate(213.183 22.367)" fill="#263238"/>
    <path id="Trazado_215456" data-name="Trazado 215456" d="M76.038,36.579a5.822,5.822,0,0,1,1.455-3.76,19.933,19.933,0,0,0,1.617-1.577c1.011-1.294.849-3.113,1.294-4.69a6.549,6.549,0,0,1,4.043-4.487A31.008,31.008,0,0,0,89.5,20.732c1.132-.606,2.021-1.658,3.194-2.183a8.085,8.085,0,0,1,7.115,1.415,5.66,5.66,0,0,1-1.7,4.649,6.266,6.266,0,0,1-4.528,2.466c-1.375,0-2.992-.243-4.043.768s-.606,2.83-1.455,4.043-4.043,1.051-5.7,2.1a8.085,8.085,0,0,0-2.628,4.043c-.728,1.455-1.9,2.951-3.517,2.87a17.789,17.789,0,0,1-.2-4.326Z" transform="translate(208.782 12.911)" fill="#263238"/>
    <path id="Trazado_215457" data-name="Trazado 215457" d="M81,19.465a30.239,30.239,0,0,1,11.8,2.143,5.619,5.619,0,0,1,2.911,1.981,6.064,6.064,0,0,1,.606,3.072A31.007,31.007,0,0,1,93.694,37.01l-4.043,2.466c-3.194-.768-1.738-6.226-1.577-8.975a6.468,6.468,0,0,1-3.76-5.7A7.236,7.236,0,0,1,81,19.465Z" transform="translate(224.033 16.563)" fill="#263238"/>
    <path id="Trazado_215458" data-name="Trazado 215458" d="M83.241,25.485c0-1.9,2.466-2.264,4.043-1.294a3.517,3.517,0,0,1,1.415,3.6,4.043,4.043,0,0,1-5.579,3.76S83.12,27.668,83.241,25.485Z" transform="translate(230.484 29.382)" fill="#ae7461"/>
    <path id="Trazado_215459" data-name="Trazado 215459" d="M83.562,28.412H83.8a.93.93,0,0,0,.687,0,2.385,2.385,0,0,0,1.172-2.021,2.91,2.91,0,0,0,0-1.334,1.253,1.253,0,0,0-.647-.768.445.445,0,0,0-.566.243.486.486,0,0,0,0,.243s0,0,0-.323l.243-.323a.728.728,0,0,1,.526,0,1.294,1.294,0,0,1,.93.889,3.436,3.436,0,0,1,.243,1.5,2.506,2.506,0,0,1-1.5,2.223.889.889,0,0,1-.849-.2S83.521,28.412,83.562,28.412Z" transform="translate(231.821 30.618)" fill="#6f4439"/>
    <path id="Trazado_215460" data-name="Trazado 215460" d="M91.712,45.2h0a.243.243,0,0,0,0,.2,1.172,1.172,0,0,0,.606.566,3.032,3.032,0,0,0,1.334.243,3.113,3.113,0,0,0,.849,0,3.032,3.032,0,0,0,.93-.283h0a2.668,2.668,0,0,0,4.245,1.7h0a.93.93,0,0,0,.687.445,1.336,1.336,0,0,0,1.536-.526,1.9,1.9,0,0,0,.283-.889,2.749,2.749,0,0,0-.566-1.779,7.6,7.6,0,0,0-1.415-1.375h0a2.062,2.062,0,0,0,.768-1.132,2.991,2.991,0,0,0,0-1.577,3.477,3.477,0,0,0-.93-1.334,16.171,16.171,0,0,0-1.253-1.092h0a1.9,1.9,0,0,0,.526-1.536,2.83,2.83,0,0,0-.606-1.577,6.711,6.711,0,0,0-2.587-1.819h0a3.517,3.517,0,0,0-4.043-4.366h0a3.073,3.073,0,0,0-.728-2.587,3.032,3.032,0,0,0-2.264-1.132h0a3.113,3.113,0,0,0-1.213-2.345,3.072,3.072,0,0,0-2.224-.606h0a2.87,2.87,0,0,0-.4-1.334,5.214,5.214,0,0,0-.809-1.011,3.194,3.194,0,0,0-1.819-.768h-.04a2.951,2.951,0,0,1,1.779.809,3.355,3.355,0,0,1,1.213,2.264h0a2.668,2.668,0,0,1,2.143.606,2.83,2.83,0,0,1,1.172,2.223h0a2.83,2.83,0,0,1,2.143,1.051,2.87,2.87,0,0,1,.687,2.466h0a3.4,3.4,0,0,1,3.679,4.043h0a7.6,7.6,0,0,1,2.547,1.779,2.951,2.951,0,0,1,.566,1.5,1.738,1.738,0,0,1-.485,1.415h0a6.226,6.226,0,0,1,2.143,2.345,2.749,2.749,0,0,1,.809,2.587,1.7,1.7,0,0,1-.768,1.172h0a7.155,7.155,0,0,1,1.375,1.334,2.628,2.628,0,0,1,.566,1.7,1.415,1.415,0,0,1-.889,1.294,1.172,1.172,0,0,1-1.415-.323h0a2.628,2.628,0,0,1-2.709.243,2.709,2.709,0,0,1-1.375-1.86h0a2.507,2.507,0,0,1-.93.283h-.809a4.043,4.043,0,0,1-1.334-.243,1.334,1.334,0,0,1-.606-.526.93.93,0,0,1-.364-.243Z" transform="translate(224.277 16.05)" fill="#455a64"/>
    <path id="Trazado_215461" data-name="Trazado 215461" d="M111.276,41.67a.648.648,0,0,0,0-.323,2.062,2.062,0,0,0,.283-1.051,2.83,2.83,0,0,0-.4-1.7,2.87,2.87,0,0,0-1.941-1.213h0a3.76,3.76,0,0,0-.485-2.668,3.355,3.355,0,0,0-1.051-1.092,6.831,6.831,0,0,0-1.455-.687,4.042,4.042,0,0,1-.687-.4,2.1,2.1,0,0,1-.485-.687c-.243-.485-.323-1.092-.606-1.658a3.275,3.275,0,0,0-3.275-1.617h0a4.325,4.325,0,0,0-1.092-3.558,4.407,4.407,0,0,0-3.638-1.294h0A3.8,3.8,0,0,0,90.578,20.2h0a5.256,5.256,0,0,0-1.86-1.132,6.792,6.792,0,0,0-1.9-.445,9.622,9.622,0,0,0-3.153.2,6.63,6.63,0,0,0-1.9.809l-.445.283h0l.606-.364a5.134,5.134,0,0,1,1.86-.768,8.732,8.732,0,0,1,3.153,0,6.55,6.55,0,0,1,1.86.445,4.568,4.568,0,0,1,1.819,1.132h0a3.6,3.6,0,0,1,5.619,3.355h0a4.043,4.043,0,0,1,3.477,1.253,4.285,4.285,0,0,1,1.092,3.4h0a3.073,3.073,0,0,1,3.072,1.536c.283.526.364,1.132.606,1.658a1.819,1.819,0,0,0,.526.687,2.911,2.911,0,0,0,.768.445,11.521,11.521,0,0,1,1.415.687,3.112,3.112,0,0,1,1.011,1.051,3.477,3.477,0,0,1,.485,2.547h0a2.749,2.749,0,0,1,1.9,1.172,2.83,2.83,0,0,1,.445,1.617,4.53,4.53,0,0,1-.243,1.051Z" transform="translate(225.007 13.884)" fill="#455a64"/>
    <path id="Trazado_215462" data-name="Trazado 215462" d="M78.735,42.729a.526.526,0,0,0,0-.445,1.131,1.131,0,0,0-.323-.445,1.617,1.617,0,0,0-.647-.323,4.043,4.043,0,0,1-.849-.364,1.657,1.657,0,0,1-.606-.849,2.951,2.951,0,0,1,0-1.213V37.675a13.42,13.42,0,0,0-.687-3.153,5.215,5.215,0,0,1,0-1.779,2.345,2.345,0,0,1,.97-1.5,8.733,8.733,0,0,1,1.9-.606,4.043,4.043,0,0,0,.93-.445,2.021,2.021,0,0,0,.687-.849,10.145,10.145,0,0,0,.566-2.1,2.749,2.749,0,0,1,.364-1.011,1.415,1.415,0,0,1,.768-.687,4.77,4.77,0,0,1,1.5,0,2.143,2.143,0,0,0,.728-.2,1.779,1.779,0,0,0,.606-.485,6.588,6.588,0,0,0,.566-1.375,3.517,3.517,0,0,1,.647-1.213,3.194,3.194,0,0,1,2.345-1.092,3.234,3.234,0,0,1,2.264.809h0a5.094,5.094,0,0,1,3.153-2.749,4.528,4.528,0,0,1,1.779,0,4.043,4.043,0,0,1,1.455.4A3.477,3.477,0,0,1,98.423,21.1l.283.485h0a2.79,2.79,0,0,0-.2-.889,3.759,3.759,0,0,0-1.577-1.5,4.043,4.043,0,0,0-1.5-.4,4.771,4.771,0,0,0-1.819,0,5.175,5.175,0,0,0-3.234,2.789h0a3.436,3.436,0,0,0-2.345-.889,3.234,3.234,0,0,0-2.426,1.172,3.517,3.517,0,0,0-.728,1.253,5.377,5.377,0,0,1-.526,1.334,1.7,1.7,0,0,1-1.213.606,5.013,5.013,0,0,0-1.536.2,1.577,1.577,0,0,0-.849.768,3.314,3.314,0,0,0-.4,1.051,8.088,8.088,0,0,1-.566,2.062,1.738,1.738,0,0,1-.606.809,3.8,3.8,0,0,1-.93.4,8.813,8.813,0,0,0-1.9.647,1.981,1.981,0,0,0-.687.728,2.143,2.143,0,0,0-.323.889,4.569,4.569,0,0,0,0,1.819,14.028,14.028,0,0,1,.687,3.113c0,.485,0,.93,0,1.415a4.286,4.286,0,0,0,0,1.253,1.819,1.819,0,0,0,.647.889,4.487,4.487,0,0,0,.849.323,1.375,1.375,0,0,1,.647.323.97.97,0,0,1,.323.4.647.647,0,0,1,.242.566Z" transform="translate(206.53 14.28)" fill="#455a64"/>
    <path id="Trazado_215463" data-name="Trazado 215463" d="M73.611,37.338h0v-.323l.526-1.132a19.653,19.653,0,0,1,.93-1.819,4.487,4.487,0,0,1,1.779-1.94l1.415-.606a2.1,2.1,0,0,0,.728-.4,2.223,2.223,0,0,0,.566-.687c.243-.566.243-1.213.445-1.779a1.86,1.86,0,0,1,.526-.728,5.5,5.5,0,0,1,.849-.4,3.153,3.153,0,0,0,.97-.364,1.819,1.819,0,0,0,.728-.728,7.237,7.237,0,0,0,.445-2.062,2.749,2.749,0,0,1,.364-1.011,1.132,1.132,0,0,1,.849-.526h2.224a2.021,2.021,0,0,0,1.011-.526,5.012,5.012,0,0,0,.687-.93c.2-.323.364-.647.566-.93a2.628,2.628,0,0,1,.809-.687,3.153,3.153,0,0,1,2.021,0,4.285,4.285,0,0,0,2.021,0,5.255,5.255,0,0,0,1.738-.809,10.026,10.026,0,0,1,1.577-.849,5.3,5.3,0,0,1,3.153,0,5.822,5.822,0,0,1,2.345,1.213,6.833,6.833,0,0,1,1.294,1.536,7.16,7.16,0,0,1,.566,1.132V22.3h0v-.323a8.328,8.328,0,0,0-.526-1.172,6.953,6.953,0,0,0-1.294-1.577,6.307,6.307,0,0,0-2.385-1.213,5.215,5.215,0,0,0-3.234,0,10.349,10.349,0,0,0-1.617.849,5.053,5.053,0,0,1-1.7.809,4.811,4.811,0,0,1-1.981,0,4.043,4.043,0,0,0-1.011,0,2.021,2.021,0,0,0-1.092,0,2.426,2.426,0,0,0-.849.728l-.606.93a3.316,3.316,0,0,1-.647.889,1.86,1.86,0,0,1-.93.485H84.647a1.536,1.536,0,0,0-.97.606,3.234,3.234,0,0,0-.364,1.051,6.671,6.671,0,0,1-.445,2.021,1.779,1.779,0,0,1-.647.687,6.349,6.349,0,0,1-.93.364,2.223,2.223,0,0,0-.889.4,1.859,1.859,0,0,0-.566.809c-.2.606-.2,1.213-.445,1.738a2.466,2.466,0,0,1-1.213,1.092,14.881,14.881,0,0,0-1.415.606,4.447,4.447,0,0,0-1.819,1.981c-.4.687-.647,1.334-.889,1.819l-.526,1.172v.323Z" transform="translate(201.305 11.384)" fill="#455a64"/>
    <path id="Trazado_215464" data-name="Trazado 215464" d="M76.586,21.22h-.364a1.132,1.132,0,0,0-.526.97,1.779,1.779,0,0,0,0,.768,6.468,6.468,0,0,1,0,.93,2.062,2.062,0,0,1-.364,1.011,10.945,10.945,0,0,0-.687,1.011,1.415,1.415,0,0,0,0,1.334c0,.445.485.849.647,1.294a1.819,1.819,0,0,1,0,1.455c-.2.485-.485.97-.687,1.536a2.021,2.021,0,0,0,0,.849,3.515,3.515,0,0,0,0,.889,9.907,9.907,0,0,0,1.051,1.5,2.951,2.951,0,0,1,.566,1.7,10.873,10.873,0,0,1-.647,1.819,2.79,2.79,0,0,0,0,.97,2.021,2.021,0,0,0,.243.97,6.952,6.952,0,0,0,1.132,1.5,4.365,4.365,0,0,1,.93,1.536,13.389,13.389,0,0,0,.566,1.658,2.06,2.06,0,0,0,.526.647,2.224,2.224,0,0,0,.768.364,4.043,4.043,0,0,1,.728.283l.647.4a5.74,5.74,0,0,1,.849,1.172l.728,1.132a4.043,4.043,0,0,0,1.86,1.334,3.6,3.6,0,0,0,2.83,0l.323-.2a4.043,4.043,0,0,1-1.415.445,3.759,3.759,0,0,1-1.7-.2,3.477,3.477,0,0,1-1.779-1.334,10.829,10.829,0,0,1-.728-1.132,5.982,5.982,0,0,0-.889-1.172,2.3,2.3,0,0,0-.647-.445l-.768-.283a2.264,2.264,0,0,1-.687-.364,1.5,1.5,0,0,1-.526-.606,16.181,16.181,0,0,1-.526-1.658,4.042,4.042,0,0,0-.97-1.536,8.086,8.086,0,0,1-1.132-1.5,2.183,2.183,0,0,1,0-.889,3.757,3.757,0,0,1,0-.93,6.146,6.146,0,0,0,.647-1.819,1.941,1.941,0,0,0,0-.97,5.617,5.617,0,0,0-.445-.849,8.857,8.857,0,0,1-1.011-1.5,1.859,1.859,0,0,1,0-.809,2.628,2.628,0,0,1,0-.809c0-.526.485-1.011.728-1.5a2.142,2.142,0,0,0,0-1.577c0-.485-.526-.889-.687-1.294a1.5,1.5,0,0,1,0-1.253c0-.364.485-.687.687-1.011a2.062,2.062,0,0,0,.364-1.051,2.386,2.386,0,0,0,0-.93,7.312,7.312,0,0,1,0-.768,1.213,1.213,0,0,1,.485-.93A.526.526,0,0,1,76.586,21.22Z" transform="translate(204.191 21.923)" fill="#455a64"/>
    <path id="Trazado_215465" data-name="Trazado 215465" d="M89.012,25.84a2.223,2.223,0,0,1,.768.445,3.436,3.436,0,0,1,1.294,2.143,3.639,3.639,0,0,1,0,1.738A4.288,4.288,0,0,1,86.061,33.2a4.771,4.771,0,0,1-2.021-1.253,4.051,4.051,0,0,1,.081-5.5,3.4,3.4,0,0,1,1.213-.768,3.153,3.153,0,0,1,1.051-.283h.889a5.418,5.418,0,0,0-.93,0,4.326,4.326,0,0,0-1.011.283,3.315,3.315,0,0,0-1.132.768,4.043,4.043,0,0,0-.97,3.4,3.639,3.639,0,0,0,.93,1.9,4.22,4.22,0,0,0,4.2,1.172,4.407,4.407,0,0,0,1.779-1.172,4.244,4.244,0,0,0,.93-1.657,3.991,3.991,0,0,0-1.213-3.8,5.538,5.538,0,0,0-.849-.445Z" transform="translate(230.13 34.565)" fill="#e0e0e0"/>
    <path id="Trazado_215466" data-name="Trazado 215466" d="M80.381,24.437a1.172,1.172,0,0,0,1.092,1.213,1.051,1.051,0,0,0,1.213-.97,1.172,1.172,0,0,0-2.3-.243Z" transform="translate(222.146 29.055)" fill="#263238"/>
    <path id="Trazado_215467" data-name="Trazado 215467" d="M77.771,24.622a1.172,1.172,0,0,0,.93,1.051,1.051,1.051,0,0,0,1.213-.97,1.172,1.172,0,0,0-1.051-1.253,1.132,1.132,0,0,0-1.092,1.172Z" transform="translate(214.205 28.708)" fill="#263238"/>
    <path id="Trazado_215468" data-name="Trazado 215468" d="M77.475,23.488a4.7,4.7,0,0,1,2.143-.323c1.132.121,1.9.889,2.021.728s0-.364-.364-.687A2.547,2.547,0,0,0,79.7,22.4a2.789,2.789,0,0,0-1.738.445C77.6,23.124,77.434,23.407,77.475,23.488Z" transform="translate(213.288 25.476)" fill="#263238"/>
    <path id="Trazado_215469" data-name="Trazado 215469" d="M80.175,23.955a6.234,6.234,0,0,1,2.506-.566c1.375,0,2.345.768,2.506.566s0-.4-.526-.728a3.194,3.194,0,0,0-2.021-.687,3.072,3.072,0,0,0-1.981.687C80.256,23.551,80.094,23.874,80.175,23.955Z" transform="translate(221.462 25.939)" fill="#263238"/>
    <path id="Trazado_215470" data-name="Trazado 215470" d="M73.72,20.985a5.78,5.78,0,0,1,1.455-.849,5.983,5.983,0,0,1,1.9-.323,4.851,4.851,0,0,1,2.466.687h0a4.689,4.689,0,0,1,6.428-1.375h0a7.277,7.277,0,0,1,5.175-2.789,6.953,6.953,0,0,1,4.043.647,7.075,7.075,0,0,1,2.87,2.547h0a10.915,10.915,0,0,1,7.156,3.032,13.138,13.138,0,0,1,1.941,2.345h0a1.7,1.7,0,0,0-.283-.526,9.054,9.054,0,0,0-1.455-1.819,10.511,10.511,0,0,0-2.87-2.062,11.239,11.239,0,0,0-4.407-1.132h0a7.519,7.519,0,0,0-2.992-2.709,7.318,7.318,0,0,0-4.366-.687,7.762,7.762,0,0,0-4.811,2.911h.243a4.73,4.73,0,0,0-4.043-.647,4.851,4.851,0,0,0-2.83,2.143h0a4.892,4.892,0,0,0-2.587-.687,5.377,5.377,0,0,0-1.981.4,5.741,5.741,0,0,0-1.092.687C73.8,20.864,73.68,20.985,73.72,20.985Z" transform="translate(201.761 5.704)" fill="#263238"/>
    <path id="Trazado_215471" data-name="Trazado 215471" d="M90.2,24.126a2.911,2.911,0,0,0,1.334.323A4.609,4.609,0,0,0,95.053,23.2a4.325,4.325,0,0,0,1.294-2.3,4.972,4.972,0,0,0-.283-3.032A4.528,4.528,0,0,0,93.6,15.515a4.811,4.811,0,0,0-3.679,0h.243a3.719,3.719,0,0,0-2.021-1.132,3.517,3.517,0,0,0-1.94,0A3.4,3.4,0,0,0,84.7,15.6a3.517,3.517,0,0,0-.283,3.436l.243-.2a2.87,2.87,0,0,0-2.749,0,3.072,3.072,0,0,0-1.658,1.9,4.043,4.043,0,0,0,1.092,3.841,4.649,4.649,0,0,0,2.345,1.213,2.385,2.385,0,0,0,.687,0h-.647A4.77,4.77,0,0,1,81.47,24.53a3.638,3.638,0,0,1-.93-3.6,2.789,2.789,0,0,1,4.043-1.657l.485.323-.243-.526a3.315,3.315,0,0,1,.283-3.113,2.87,2.87,0,0,1,3.072-1.213A3.032,3.032,0,0,1,90,15.757h0a4.487,4.487,0,0,1,3.4,0A4.285,4.285,0,0,1,95.7,17.9a4.73,4.73,0,0,1,.283,2.87,4.043,4.043,0,0,1-1.172,2.183,4.811,4.811,0,0,1-3.355,1.294,5.457,5.457,0,0,1-1.253-.121Z" transform="translate(221.421 0.704)" fill="#263238"/>
    <path id="Trazado_215472" data-name="Trazado 215472" d="M108.383,28.975v-.2a1.5,1.5,0,0,0,0-.606,5.3,5.3,0,0,0,0-2.466,5.74,5.74,0,0,0-1.86-3.194A5.943,5.943,0,0,0,102,21.132h0a7.2,7.2,0,0,0-3.6-3.4,7.115,7.115,0,0,0-3.76-.445,7.237,7.237,0,0,0-3.153,1.375h0a7.479,7.479,0,0,0-3.8-.889,7.641,7.641,0,0,0-2.951.606,6.752,6.752,0,0,0-1.7.97,3.4,3.4,0,0,0-.526.485,9.7,9.7,0,0,1,2.3-1.294,8.085,8.085,0,0,1,2.87-.526,7.722,7.722,0,0,1,3.638.93h0a6.67,6.67,0,0,1,6.549-.889,6.913,6.913,0,0,1,3.436,3.234h0a5.579,5.579,0,0,1,6.145,4.285,6.792,6.792,0,0,1,0,2.385,7.236,7.236,0,0,0,.93,1.011Z" transform="translate(228.628 9.721)" fill="#263238"/>
    <path id="Trazado_215473" data-name="Trazado 215473" d="M82.861,26.717a1.657,1.657,0,0,0-1.738-1.334,1.738,1.738,0,0,0-1.374.93,2.061,2.061,0,0,0,0,1.7h0a2.1,2.1,0,0,0,2.183.526,1.86,1.86,0,0,0,.93-1.819Z" transform="translate(219.666 34.577)" fill="#6f4439"/>
    <path id="Trazado_215474" data-name="Trazado 215474" d="M79.35,28.769A3.417,3.417,0,0,0,81.695,27.6c1.051-1.172.97-2.466,1.172-2.426s0,.323,0,.889a3.234,3.234,0,0,1-.93,2.062,2.789,2.789,0,0,1-1.94.889C79.633,29.011,79.35,28.85,79.35,28.769Z" transform="translate(219.013 33.941)" fill="#263238"/>
    <path id="Trazado_215475" data-name="Trazado 215475" d="M79.8,46.11c-.283.485-7.358,24.539-6.266,32.342S79.8,109.419,79.8,109.419a82.673,82.673,0,0,1,2.628,18.394,170.154,170.154,0,0,0,1.415,33.11c2.021,12.128,4.043,33.676,4.043,33.676l15.524-1.213-.687-75.235,4.043-29.593,2.143-28.946Z" transform="translate(200.975 97.655)" fill="#263238"/>
    <path id="Trazado_215476" data-name="Trazado 215476" d="M96.255,80.29,94.718,97.31l2.83,13.745a1.738,1.738,0,0,1-1.577,2.062h0a1.9,1.9,0,0,1-1.577-.525c-2.547-2.668-11.845-12.492-11.683-13.7s.4-18.03.4-18.03Z" transform="translate(229.235 201.655)" fill="#263238"/>
    <path id="Trazado_215477" data-name="Trazado 215477" d="M95.957,100,82.737,84.6v.728a2.426,2.426,0,0,0,.526,1.738c1.051,1.334,4.043,4.973,11.077,12.411a1.7,1.7,0,0,0,1.617.526Z" transform="translate(229.29 214.769)" fill="#455a64"/>
    <g id="Grupo_145938" data-name="Grupo 145938" transform="translate(314.318 293.745)" opacity="0.6">
      <path id="Trazado_215478" data-name="Trazado 215478" d="M85.049,83.577a1.051,1.051,0,0,1,0,1.415,1.132,1.132,0,0,1-1.455,0,1.091,1.091,0,0,1,0-1.5,1.172,1.172,0,0,1,1.536,0" transform="translate(-83.297 -83.209)" fill="#fff"/>
    </g>
    <path id="Trazado_215479" data-name="Trazado 215479" d="M85.12,87.892a5.781,5.781,0,0,1,1.658-1.213,5.134,5.134,0,0,1,2.062-.243s0-.2-.606-.283a3.4,3.4,0,0,0-1.617,0,2.708,2.708,0,0,0-1.253.97C85.12,87.649,85.08,87.892,85.12,87.892Z" transform="translate(236.529 219.198)" fill="#fff"/>
    <path id="Trazado_215480" data-name="Trazado 215480" d="M85.4,87.853a16.41,16.41,0,0,1,1.617-.647h1.738a2.062,2.062,0,0,0-1.819-.243C85.847,87.084,85.281,87.772,85.4,87.853Z" transform="translate(237.379 221.623)" fill="#fff"/>
    <path id="Trazado_215481" data-name="Trazado 215481" d="M84.57,87.133a18.069,18.069,0,0,1,2.466-1.172,18.915,18.915,0,0,1,2.668-.4,4.813,4.813,0,0,0-5.134,1.577Z" transform="translate(234.896 216.925)" fill="#fff"/>
    <path id="Trazado_215482" data-name="Trazado 215482" d="M84.58,84.786a6.326,6.326,0,0,1,2.345,0,7.185,7.185,0,0,0,2.3.283,3.558,3.558,0,0,0-2.3-.647A3.679,3.679,0,0,0,84.58,84.786Z" transform="translate(234.926 214.057)" fill="#fff"/>
    <path id="Trazado_215483" data-name="Trazado 215483" d="M84.663,83.764a9.582,9.582,0,0,1,2.426-.243,11.723,11.723,0,0,1,2.3.687s0-.243-.526-.485a5.818,5.818,0,0,0-3.558-.566C84.865,83.562,84.623,83.724,84.663,83.764Z" transform="translate(235.166 210.066)" fill="#fff"/>
    <path id="Trazado_215484" data-name="Trazado 215484" d="M86.974,85.554a1.536,1.536,0,0,0,0-.647,4.043,4.043,0,0,0-.4-1.7,1.981,1.981,0,0,0-.687-1.011.687.687,0,0,0-.809,0,1.132,1.132,0,0,0-.364.728,2.506,2.506,0,0,0,2.143,2.426,3.073,3.073,0,0,0,3.032-1.294,1.011,1.011,0,0,0,0-.849.687.687,0,0,0-.728-.4,2.587,2.587,0,0,0-1.213.526,4.245,4.245,0,0,0-1.294,1.253,1.7,1.7,0,0,0-.323.566,9.62,9.62,0,0,1,1.779-1.617,2.547,2.547,0,0,1,1.092-.4.364.364,0,0,1,.364,0,.606.606,0,0,1,0,.566,2.749,2.749,0,0,1-2.668,1.092,2.264,2.264,0,0,1-1.819-2.021.809.809,0,0,1,.243-.526.364.364,0,0,1,.445,0,2.143,2.143,0,0,1,.728.849A7.155,7.155,0,0,1,86.974,85.554Z" transform="translate(235.322 207.063)" fill="#fff"/>
    <path id="Trazado_215485" data-name="Trazado 215485" d="M110.239,46.44c.283.485,7.358,24.539,6.266,32.342s-6.266,30.967-6.266,30.967a82.671,82.671,0,0,0-2.628,18.394,266.251,266.251,0,0,1-1.374,33.069c-1.011,11.885-3.638,32.342-3.638,32.342L86.427,192.5l.768-74.183L83.153,88.727,81.01,59.781Z" transform="translate(224.064 98.659)" fill="#263238"/>
    <path id="Trazado_215486" data-name="Trazado 215486" d="M87.748,80.7l.809,14.069s-14.675,5.5-14.8,8.085l28.582-.526-.283-21.992Z" transform="translate(202.004 201.807)" fill="#263238"/>
    <path id="Trazado_215487" data-name="Trazado 215487" d="M80.554,83.582a1.132,1.132,0,0,1,.849,1.294,1.092,1.092,0,0,1-1.294.768,1.051,1.051,0,1,1,.566-2.021" transform="translate(218.819 211.623)" fill="#e0e0e0"/>
    <path id="Trazado_215488" data-name="Trazado 215488" d="M102.444,87.464V85.24L74.832,86.574s-1.253.566-1.091,1.415Z" transform="translate(201.902 216.716)" fill="#455a64"/>
    <path id="Trazado_215489" data-name="Trazado 215489" d="M77.311,83.977a2.272,2.272,0,0,1,1.375.606c.687.606,1.091.97,1.213.93s0-.809-.93-1.334S77.271,83.855,77.311,83.977Z" transform="translate(212.805 212.441)" fill="#fff"/>
    <path id="Trazado_215490" data-name="Trazado 215490" d="M76.57,84.22a6.141,6.141,0,0,1,1.051.889c.485.526.647,1.172.809,1.172s0-.768-.4-1.455S76.57,84.1,76.57,84.22Z" transform="translate(210.554 213.45)" fill="#fff"/>
    <path id="Trazado_215491" data-name="Trazado 215491" d="M76.994,86.724a1.947,1.947,0,0,0,0-1.374c-.283-.728-1.051-1.011-1.092-.889s.364.485.647,1.092S76.832,86.724,76.994,86.724Z" transform="translate(208.514 214.261)" fill="#fff"/>
    <path id="Trazado_215492" data-name="Trazado 215492" d="M77.352,83.323h1.5c.768,0,1.415.243,1.5,0S79.979,83,78.888,83,77.311,83.2,77.352,83.323Z" transform="translate(212.926 209.9)" fill="#fff"/>
    <path id="Trazado_215493" data-name="Trazado 215493" d="M93.6,53.78a5.457,5.457,0,0,1-1.577,3.113,12.129,12.129,0,0,0-2.143,4.043s-1.294,5.943-1.617,7.843-.4,3.719,1.172,3.4,2.062-1.455,2.426-5.013l.93-1.86.809,1.5v5.7s-4.043,3.6-3.719,4.69.97.93.97.93l.606.606,6.064-4.043,2.385-7.317-.4-9.7V50.1L93.2,49.09Z" transform="translate(245.554 106.723)" fill="#ae7461"/>
    <path id="Trazado_215494" data-name="Trazado 215494" d="M86.55,30.44s9.783,4.568,11.037,11.239,2.709,26.843,3.072,29.633a80.855,80.855,0,0,1,3.234,15.564c.485,8.328.445,21.265.445,21.265l-6.145,1.738a107.9,107.9,0,0,1-6.185-21.265c-1.213-9.1-3.558-13.017-2.992-16.7a57.565,57.565,0,0,0-1.455-13.139Z" transform="translate(240.92 49.976)" fill="#ae7461"/>
    <path id="Trazado_215495" data-name="Trazado 215495" d="M88.071,49.287c.323.647,0,13.058.93,13.422s13.5-.485,13.5-.485-1.536-19.162-3.638-23.043a23.731,23.731,0,0,0-8.53-8.571c-1.051,0-4.285,16.171-4.285,16.171Z" transform="translate(239.399 50.494)" fill="#f67409"/>
    <path id="Trazado_215496" data-name="Trazado 215496" d="M86.682,31.729c-.768.647-12.371,5.7-12.371,5.7l4.043,28.663,1.9,11.764-6.1,24.9a47.5,47.5,0,0,0,34.363,10.754c21.143-1.7,25.914-9.056,25.914-9.056l-9.056-36.384s-.93-11.239-.93-15.322c0-.768,1.981-19.93,1.981-19.93L116.6,29.91s-1.819,7.358-14.554,7.358S86.682,31.729,86.682,31.729Z" transform="translate(203.191 48.364)" fill="#f67409"/>
    <path id="Trazado_215497" data-name="Trazado 215497" d="M86.3,34.65l.4.647a16.658,16.658,0,0,1,.849,1.94,23.731,23.731,0,0,1,1.617,6.913,24.255,24.255,0,0,1-.445,6.953,5.836,5.836,0,0,1-.526,2.021c-.162.485-.283.728-.323.728s.283-1.092.566-2.83a27.126,27.126,0,0,0,.283-6.873,29.672,29.672,0,0,0-1.415-6.711C86.7,35.661,86.216,34.69,86.3,34.65Z" transform="translate(240.123 62.786)" fill="#263238"/>
    <path id="Trazado_215498" data-name="Trazado 215498" d="M85.2,32.423a11.117,11.117,0,0,1,4.285-3.113,55.182,55.182,0,0,1,10.551,1.375c2.789.566,2.668,2.668.809,2.83a37.191,37.191,0,0,1-5.175,0,5.417,5.417,0,0,1-4.528,2.466A10.187,10.187,0,0,1,85.2,32.423Z" transform="translate(236.813 46.538)" fill="#ffbe9d"/>
    <path id="Trazado_215499" data-name="Trazado 215499" d="M86.26,30.839a44.475,44.475,0,0,1,4.69-1.577c2.264-.606,3.76-.606,4.407,0s2.385,5.094,1.86,5.943a31.046,31.046,0,0,1-7.156,5.053c-.889,0-1.577-.283-1.172-1.415A20.9,20.9,0,0,1,92.445,34.8l-.687-2.668Z" transform="translate(240.038 45.009)" fill="#ffbe9d"/>
    <path id="Trazado_215500" data-name="Trazado 215500" d="M92.931,29.11s3.234,7.156,3.315,7.722-1.577,2.021-2.87,2.709S88,41.562,87.554,40.915a2.507,2.507,0,0,1-.4-1.375l6.1-4.043Z" transform="translate(242.746 45.93)" fill="#ffbe9d"/>
    <path id="Trazado_215501" data-name="Trazado 215501" d="M91.224,31.06v3.76c0,.485-.728,1.981-1.617,1.617s-.809-.364-.889-1.294a12.9,12.9,0,0,1,0-2.264l2.3-1.536" transform="translate(247.364 51.863)" fill="#ffbe9d"/>
    <path id="Trazado_215502" data-name="Trazado 215502" d="M86.55,32.786a6.739,6.739,0,0,0,1.536-.243,4.973,4.973,0,0,0,2.83-2.223h.526a20.213,20.213,0,0,0,4.043.323c1.051,0,1.658-.283,1.7-.2a4.528,4.528,0,0,1-1.7.485,15.565,15.565,0,0,1-4.043-.2h-.485a4.811,4.811,0,0,1-3.113,2.3,2.871,2.871,0,0,1-1.294-.243Z" transform="translate(240.92 49.611)" fill="#eb996e"/>
    <path id="Trazado_215503" data-name="Trazado 215503" d="M86.64,29.29a59.753,59.753,0,0,1,9.783,1.617,29.512,29.512,0,0,1-4.932-.606A28.905,28.905,0,0,1,86.64,29.29Z" transform="translate(241.194 46.477)" fill="#eb996e"/>
    <path id="Trazado_215504" data-name="Trazado 215504" d="M94.235,30.432a3.347,3.347,0,0,1-.364,1.294,6.792,6.792,0,0,1-2.345,2.345,8.085,8.085,0,0,1-4.407,1.5,18.919,18.919,0,0,0,4.043-1.819A7.68,7.68,0,0,0,93.507,31.6C94.073,30.917,94.154,30.391,94.235,30.432Z" transform="translate(242.655 49.944)" fill="#eb996e"/>
    <path id="Trazado_215505" data-name="Trazado 215505" d="M88.6,34.005a16.045,16.045,0,0,0,1.658-1.375c.849-.809,1.415-1.658,1.536-1.577a3.719,3.719,0,0,1-1.253,1.86C89.611,33.763,88.64,34.126,88.6,34.005Z" transform="translate(247.158 51.828)" fill="#eb996e"/>
    <path id="Trazado_215506" data-name="Trazado 215506" d="M72,54.4c0-.647,3.477-18.677,7.479-21.3L81.3,31.72l4.043,24.822v1.7Z" transform="translate(196.649 53.871)" fill="#f67409"/>
    <path id="Trazado_215507" data-name="Trazado 215507" d="M77.157,50.836a18.715,18.715,0,0,1-.647-2.264c-.364-1.415-.768-3.355-1.132-5.539s-.566-4.043-.687-5.579a16.66,16.66,0,0,1,0-2.345,9.136,9.136,0,0,1,.364,2.3,43.019,43.019,0,0,0,.849,5.579c.364,2.183.728,4.043,1.011,5.538A9.943,9.943,0,0,1,77.157,50.836Z" transform="translate(204.712 64.186)" fill="#263238"/>
  </g>
</svg>
