<svg xmlns="http://www.w3.org/2000/svg" width="234.751" height="221.105" viewBox="0 0 234.751 221.105">
  <g id="ILUSTRACIONES-06" transform="translate(-8 -13)">
    <rect id="Rectángulo_43682" data-name="Rectángulo 43682" width="8.51" height="19.611" transform="translate(22.207 194.883)" fill="#ebebeb"/>
    <rect id="Rectángulo_43683" data-name="Rectángulo 43683" width="8.51" height="19.611" transform="translate(51.087 194.883)" fill="#ebebeb"/>
    <rect id="Rectángulo_43684" data-name="Rectángulo 43684" width="8.51" height="37.462" transform="translate(36.635 177.032)" fill="#f5f5f5"/>
    <rect id="Rectángulo_43685" data-name="Rectángulo 43685" width="8.51" height="37.462" transform="translate(65.514 177.032)" fill="#f5f5f5"/>
    <rect id="Rectángulo_43686" data-name="Rectángulo 43686" width="8.51" height="36.411" transform="translate(79.966 178.108)" fill="#ebebeb"/>
    <rect id="Rectángulo_43687" data-name="Rectángulo 43687" width="8.51" height="36.411" transform="translate(108.845 178.108)" fill="#ebebeb"/>
    <rect id="Rectángulo_43688" data-name="Rectángulo 43688" width="8.51" height="36.411" transform="translate(137.724 178.108)" fill="#ebebeb"/>
    <rect id="Rectángulo_43689" data-name="Rectángulo 43689" width="8.51" height="55.509" transform="translate(94.418 159.01)" fill="#f5f5f5"/>
    <rect id="Rectángulo_43690" data-name="Rectángulo 43690" width="8.51" height="50.08" transform="translate(123.297 164.439)" fill="#f5f5f5"/>
    <rect id="Rectángulo_43691" data-name="Rectángulo 43691" width="8.51" height="36.411" transform="translate(180.395 178.108)" fill="#ebebeb"/>
    <rect id="Rectángulo_43692" data-name="Rectángulo 43692" width="8.51" height="29.417" transform="translate(165.943 185.102)" fill="#f5f5f5"/>
    <rect id="Rectángulo_43693" data-name="Rectángulo 43693" width="8.51" height="55.827" transform="translate(210.595 158.692)" fill="#ebebeb"/>
    <rect id="Rectángulo_43694" data-name="Rectángulo 43694" width="8.51" height="29.417" transform="translate(196.143 185.102)" fill="#f5f5f5"/>
    <rect id="Rectángulo_43695" data-name="Rectángulo 43695" width="8.51" height="29.417" transform="translate(225.047 185.102)" fill="#f5f5f5"/>
    <rect id="Rectángulo_43696" data-name="Rectángulo 43696" width="8.51" height="42.402" transform="translate(152.176 172.117)" fill="#ebebeb"/>
    <path id="Trazado_211620" data-name="Trazado 211620" d="M48.282,74.011a2.2,2.2,0,1,1-2.176-2.2,2.2,2.2,0,0,1,2.176,2.2Z" transform="translate(51.858 84.999)" fill="#e0e0e0"/>
    <path id="Trazado_211621" data-name="Trazado 211621" d="M47.146,79.052a3.986,3.986,0,1,1,3.986-3.986,3.986,3.986,0,0,1-3.986,3.986Zm0-7.629a3.644,3.644,0,1,0,3.644,3.644,3.644,3.644,0,0,0-3.644-3.644Z" transform="translate(50.817 83.944)" fill="#e0e0e0"/>
    <path id="Trazado_211622" data-name="Trazado 211622" d="M47.307,74.419l-.1-4.3h1.076L46.28,67.67l-2.03,2.47h1.125l.122,4.255Z" transform="translate(52.393 79.016)" fill="#ebebeb"/>
    <path id="Trazado_211623" data-name="Trazado 211623" d="M19.142,85.021a2.2,2.2,0,1,1-2.2-2.2,2.176,2.176,0,0,1,2.2,2.2Z" transform="translate(9.741 100.912)" fill="#e0e0e0"/>
    <path id="Trazado_211624" data-name="Trazado 211624" d="M18,90.092a3.986,3.986,0,1,1,3.986-3.986A3.986,3.986,0,0,1,18,90.092Zm0-7.629a3.644,3.644,0,1,0,2.592,1.058A3.668,3.668,0,0,0,18,82.462Z" transform="translate(8.686 99.901)" fill="#e0e0e0"/>
    <path id="Trazado_211625" data-name="Trazado 211625" d="M15.693,78.17l.122,4.475L14.69,82.62l2.1,2.568L18.871,82.6H17.722L17.6,78.17Z" transform="translate(9.669 94.192)" fill="#ebebeb"/>
    <path id="Trazado_211626" data-name="Trazado 211626" d="M63.073,74.34l.1,4.475-1.1-.024,2.079,2.543,2.1-2.568H65.078l-.1-4.426Z" transform="translate(78.149 88.656)" fill="#ebebeb"/>
    <path id="Trazado_211627" data-name="Trazado 211627" d="M167.582,116.9,141.93,92.866c-16.237-7.849-41.3-19.416-44.236-19.245S32.258,98.393,8.562,107.758L8,106.585c3.5-1.369,85.366-33.99,89.523-34.235h0c4.548,0,40.715,17.411,44.847,19.416h.171l25.04,23.5c4.891-2.445,32.009-16.873,32.474-17.117s.587-.269,38.049-.245v1.247c-14.354,0-35.971,0-37.609.171-1.418.709-21.861,11.493-32.718,17.117Z" transform="translate(0 85.78)" fill="#e0e0e0"/>
    <path id="Trazado_211628" data-name="Trazado 211628" d="M66.422,81.586a2.2,2.2,0,1,1-2.2-2.176,2.2,2.2,0,0,1,2.2,2.176Z" transform="translate(78.076 95.984)" fill="#e0e0e0"/>
    <path id="Trazado_211629" data-name="Trazado 211629" d="M65.276,86.712a3.961,3.961,0,1,1,2.817-1.152A3.986,3.986,0,0,1,65.276,86.712Zm0-7.629a1.528,1.528,0,1,0,0-.1Z" transform="translate(77.021 95.015)" fill="#e0e0e0"/>
    <path id="Trazado_211630" data-name="Trazado 211630" d="M90.222,84.286a2.2,2.2,0,1,1-2.2-2.176,2.2,2.2,0,0,1,2.2,2.176Z" transform="translate(112.475 99.886)" fill="#e0e0e0"/>
    <path id="Trazado_211631" data-name="Trazado 211631" d="M89.076,89.342a3.986,3.986,0,1,1,3.986-3.986,3.986,3.986,0,0,1-3.986,3.986Zm0-7.629a3.668,3.668,0,1,0,3.668,3.668,3.668,3.668,0,0,0-3.668-3.668Z" transform="translate(111.42 98.817)" fill="#e0e0e0"/>
    <path id="Trazado_211632" data-name="Trazado 211632" d="M86.833,77.65l.122,4.475H85.83l2.079,2.543,2.1-2.568H88.838l-.1-4.426Z" transform="translate(112.489 93.44)" fill="#ebebeb"/>
    <path id="Trazado_211633" data-name="Trazado 211633" d="M87.831,72.244A19.171,19.171,0,1,1,107.393,91.17,19.171,19.171,0,0,1,87.831,72.244Zm28.317-.465a9.17,9.17,0,1,0-9.023,9.341A9.17,9.17,0,0,0,116.148,71.779Z" transform="translate(115.379 57.569)" fill="#f5f5f5"/>
    <path id="Trazado_211634" data-name="Trazado 211634" d="M87.832,72.333A19.245,19.245,0,0,1,106.685,52.77l.147,10.05a9.2,9.2,0,0,0,.293,18.389l.171,10.05A19.22,19.22,0,0,1,87.832,72.333Z" transform="translate(115.378 57.48)" fill="#e0e0e0"/>
    <path id="Trazado_211635" data-name="Trazado 211635" d="M94.83,52.142a22.008,22.008,0,0,1,22.424,21.812l-11.689.171A9.635,9.635,0,0,0,95.05,64.565Z" transform="translate(125.497 56.568)" fill="#ebebeb"/>
    <rect id="Rectángulo_43697" data-name="Rectángulo 43697" width="8.632" height="26.947" transform="translate(54.486 17.475)" fill="#ebebeb"/>
    <rect id="Rectángulo_43698" data-name="Rectángulo 43698" width="8.632" height="20.785" transform="translate(67.372 23.637)" fill="#ebebeb"/>
    <rect id="Rectángulo_43699" data-name="Rectángulo 43699" width="8.632" height="12.349" transform="translate(79.306 32.074)" fill="#ebebeb"/>
    <path id="Trazado_211636" data-name="Trazado 211636" d="M79.918,30.442V15.33A15.112,15.112,0,1,1,64.83,30.784Z" transform="translate(82.138 3.368)" fill="#ebebeb"/>
    <path id="Trazado_211637" data-name="Trazado 211637" d="M78.778,28.112l-15.088.342a15.846,15.846,0,0,1,4.279-10.882A15.381,15.381,0,0,1,78.558,13Z" transform="translate(80.49)" fill="#f5f5f5"/>
    <path id="Trazado_211638" data-name="Trazado 211638" d="M23.506,63.158,34.07,54.77a13.5,13.5,0,1,1-18.951-2.2,13.107,13.107,0,0,1,3.032-1.81Z" transform="translate(2.882 54.575)" fill="#f5f5f5"/>
    <path id="Trazado_211639" data-name="Trazado 211639" d="M14.35,50.354l3.717,9.781,7.874-6.676A13.572,13.572,0,0,0,14.35,50.354Z" transform="translate(9.178 53.612)" fill="#e0e0e0"/>
    <path id="Trazado_211640" data-name="Trazado 211640" d="M220.943,100.547s-46.461.122-103.779.122-103.8,0-103.8-.122,46.461-.147,103.8-.147S220.943,100.473,220.943,100.547Z" transform="translate(7.747 126.321)" fill="#263238"/>
    <path id="Trazado_211641" data-name="Trazado 211641" d="M29.579,31.618A9.341,9.341,0,1,0,20.752,44.7l.954,2.152,7.483-3.277-.929-2.445a9.366,9.366,0,0,0,1.32-9.512Z" transform="translate(5.319 18.82)" fill="#f67409"/>
    <path id="Trazado_211642" data-name="Trazado 211642" d="M22.96,39.508h0v-.342a8.438,8.438,0,0,0-.367-1.247c-.147-.538-.318-1.223-.465-2.005A14.672,14.672,0,0,1,21.86,33.2a12.006,12.006,0,0,1,.147-1.589,1.907,1.907,0,0,1,.367-.782.978.978,0,0,1,.831-.342.782.782,0,0,1,.367.049.758.758,0,0,1,.147.465,1.418,1.418,0,0,1-.416.856,2.553,2.553,0,0,1-3.668-.245,1.932,1.932,0,0,1-.465-.978.807.807,0,0,1,.514-.929.587.587,0,0,1,.562,0,.783.783,0,0,1,.293.489,1.981,1.981,0,0,1-.22,1.125,2.837,2.837,0,0,1-1.761,1.443,2.445,2.445,0,0,1-2.176-.514,1.345,1.345,0,0,1-.514-1,.653.653,0,0,1,.758-.734.978.978,0,0,1,.514.22,1.589,1.589,0,0,1,.367.44,2.805,2.805,0,0,1-1.956,4.01,1.589,1.589,0,0,1-.954,0,.758.758,0,0,1-.416-.807.66.66,0,0,1,.318-.367,1.3,1.3,0,0,1,.44,0,1.467,1.467,0,0,1,.783.367c.416.367.782.758,1.149,1.1,1.443,1.418,2.445,2.641,3.3,3.472l.856.978.1.391h0l-.245-.245L20,39.117c-.758-.856-1.858-2.054-3.3-3.472l-1.149-1.076a1.443,1.443,0,0,0-.734-.342.66.66,0,0,0-.66.391.611.611,0,0,0,.367.685,1.369,1.369,0,0,0,.88,0,2.812,2.812,0,0,0,1.614-.978,2.739,2.739,0,0,0,.538-1.907,2.641,2.641,0,0,0-.269-.978.954.954,0,0,0-.783-.587A.538.538,0,0,0,16.04,31a.513.513,0,0,0-.171.465,1.223,1.223,0,0,0,.465.9,2.274,2.274,0,0,0,2.079.489A2.665,2.665,0,0,0,20.1,31.463a1.907,1.907,0,0,0,.22-1.027A1.027,1.027,0,0,0,20.05,30a.538.538,0,0,0-.465,0,.758.758,0,0,0-.44.831,1.883,1.883,0,0,0,.465.9,2.462,2.462,0,0,0,3.5.245,1.149,1.149,0,0,0,.391-.783.562.562,0,0,0-.489-.587.9.9,0,0,0-.734.293,1.541,1.541,0,0,0-.342.734,7.116,7.116,0,0,0-.147,1.589,12.765,12.765,0,0,0,.245,2.69c.147.807.293,1.467.44,2.03l.342,1.247v.318a.293.293,0,0,0,.147,0Z" transform="translate(8.882 24.037)" fill="#263238"/>
    <path id="Trazado_211643" data-name="Trazado 211643" d="M23.127,34.49l-6.456,2.763a.514.514,0,0,1-.685-.269h0a.514.514,0,0,1,.269-.685l6.431-2.812a.538.538,0,0,1,.709.269h0A.562.562,0,0,1,23.127,34.49Z" transform="translate(11.478 29.544)" fill="#263238"/>
    <path id="Trazado_211644" data-name="Trazado 211644" d="M22.988,34.031l-6.431,2.812a.538.538,0,0,0-.269.709.514.514,0,0,0,.685.269l.709-.318L19.393,38.9a.685.685,0,0,0,.685,0l2.323-1a.636.636,0,0,0,.391-.562l.147-2.2.465-.2a.5.5,0,1,0-.416-.9Z" transform="translate(11.911 30.321)" fill="#263238"/>
    <g id="Grupo_145843" data-name="Grupo 145843" transform="translate(17.951 48.082)" opacity="0.2">
      <path id="Trazado_211645" data-name="Trazado 211645" d="M12.634,30.387a7.14,7.14,0,0,1,1.2-1.883,4.891,4.891,0,0,1,1.174-.954c.293-.2.489-.245.538-.171a13.933,13.933,0,0,1-1.051,1.614,7.8,7.8,0,0,0-1.32,4.133,7.923,7.923,0,0,0,1.174,4.181c.562,1,1.1,1.541.978,1.663s-.245,0-.538-.2a4.3,4.3,0,0,1-1.1-1A6.6,6.6,0,0,1,12.56,35.84a7.018,7.018,0,0,1-.489-2.739" transform="translate(-12.069 -27.347)" fill="#fff"/>
    </g>
    <g id="Grupo_145844" data-name="Grupo 145844" transform="translate(22.302 46.346)" opacity="0.2">
      <path id="Trazado_211646" data-name="Trazado 211646" d="M15.2,27.867c-.538.245-1.1.293-1.272,0s0-.318,0-.514a1.687,1.687,0,0,1,.709-.562,1.834,1.834,0,0,1,.9-.147.422.422,0,0,1,.44.293" transform="translate(-13.849 -26.637)" fill="#fff"/>
    </g>
    <path id="Trazado_211647" data-name="Trazado 211647" d="M20.628,35.546h-.514a4.891,4.891,0,0,0-1.149.342,3.6,3.6,0,0,0-.978.685,2.763,2.763,0,0,0-.367.342s0-.171.293-.416a3.423,3.423,0,0,1,1-.709,3.252,3.252,0,0,1,1.2-.318,1.1,1.1,0,0,1,.514.073Z" transform="translate(13.904 32.473)" fill="#455a64"/>
    <path id="Trazado_211648" data-name="Trazado 211648" d="M22.019,34.531s-1.149.562-2.592,1.2L16.81,36.8s1.149-.562,2.568-1.2A26.511,26.511,0,0,1,22.019,34.531Z" transform="translate(12.733 31.117)" fill="#455a64"/>
    <path id="Trazado_211649" data-name="Trazado 211649" d="M21.468,34.92l-.611.342-1.516.709-1.541.66a5.33,5.33,0,0,1-.66.245,3.13,3.13,0,0,1,.636-.318l1.516-.685,1.541-.685a2.1,2.1,0,0,1,.636-.269Z" transform="translate(13.21 31.681)" fill="#455a64"/>
    <rect id="Rectángulo_43700" data-name="Rectángulo 43700" width="43.087" height="28.415" rx="1.07" transform="translate(104.615 121.866)" fill="#fff"/>
    <path id="Trazado_211650" data-name="Trazado 211650" d="M88.1,86.057h.367a2.812,2.812,0,0,0,.954-.342,2.445,2.445,0,0,0,1.076-1.272,6.065,6.065,0,0,0,.171-2.274v-21.1a7.824,7.824,0,0,0,0-1.32,2.445,2.445,0,0,0-1.638-1.858,3.521,3.521,0,0,0-1.345-.147H50.244A2.445,2.445,0,0,0,47.8,59.721a3.228,3.228,0,0,0,0,.856v22.5a3.2,3.2,0,0,0,.269,1.467,2.445,2.445,0,0,0,2.445,1.394h-.147a2.665,2.665,0,0,1-1.541-.22A2.788,2.788,0,0,1,47.75,84.59a3.5,3.5,0,0,1-.293-1.565v-22.5a3.766,3.766,0,0,1,0-.9,2.739,2.739,0,0,1,2.665-2.176H87.584a3.814,3.814,0,0,1,1.394.147,2.763,2.763,0,0,1,1.785,2.03,8.341,8.341,0,0,1,0,1.345v22.3a3.155,3.155,0,0,1-.2,1.1,2.763,2.763,0,0,1-1.125,1.272,2.445,2.445,0,0,1-.978.342,1.4,1.4,0,0,1-.367.073Z" transform="translate(56.987 64.223)" fill="#263238"/>
    <rect id="Rectángulo_43701" data-name="Rectángulo 43701" width="1.663" height="6.578" transform="translate(123.933 138.372)" fill="#f67409"/>
    <rect id="Rectángulo_43702" data-name="Rectángulo 43702" width="1.663" height="7.532" transform="translate(110.117 137.418)" fill="#f67409"/>
    <rect id="Rectángulo_43703" data-name="Rectángulo 43703" width="1.663" height="9.097" transform="translate(113.565 135.853)" fill="#f67409"/>
    <rect id="Rectángulo_43704" data-name="Rectángulo 43704" width="1.663" height="8.608" transform="translate(117.012 136.342)" fill="#f67409"/>
    <rect id="Rectángulo_43705" data-name="Rectángulo 43705" width="1.663" height="11.517" transform="translate(120.485 133.432)" fill="#f67409"/>
    <rect id="Rectángulo_43706" data-name="Rectángulo 43706" width="1.663" height="11.469" transform="translate(127.381 133.481)" fill="#f67409"/>
    <rect id="Rectángulo_43707" data-name="Rectángulo 43707" width="1.663" height="7.703" transform="translate(130.828 137.247)" fill="#f67409"/>
    <rect id="Rectángulo_43708" data-name="Rectángulo 43708" width="1.663" height="10.955" transform="translate(134.276 133.994)" fill="#f67409"/>
    <rect id="Rectángulo_43709" data-name="Rectángulo 43709" width="1.663" height="13.425" transform="translate(137.749 131.525)" fill="#f67409"/>
    <rect id="Rectángulo_43710" data-name="Rectángulo 43710" width="1.663" height="11.004" transform="translate(141.197 133.946)" fill="#f67409"/>
    <path id="Trazado_211651" data-name="Trazado 211651" d="M62.517,59.839s-2.934.147-6.553.147a52.206,52.206,0,0,1-6.553-.147c0-.147,2.934,0,6.553,0S62.517,59.765,62.517,59.839Z" transform="translate(59.851 67.602)" fill="#263238"/>
    <path id="Trazado_211652" data-name="Trazado 211652" d="M93.477,23.65h20.687a1.883,1.883,0,0,1,1.883,1.907V46.245a1.858,1.858,0,0,1-1.883,1.883H99.957l-5.869,4.744V48.128h-.611a1.883,1.883,0,0,1-1.907-1.883V25.557a1.907,1.907,0,0,1,1.907-1.907Z" transform="translate(120.785 15.393)" fill="#fff"/>
    <path id="Trazado_211653" data-name="Trazado 211653" d="M0,.049H24.453a7.678,7.678,0,0,1-7.678,7.678H7.727A7.727,7.727,0,0,1,0,0H0Z" transform="translate(236.833 46.819) rotate(180)" fill="#f67409"/>
    <path id="Trazado_211654" data-name="Trazado 211654" d="M98.02,28.1v8.314H96.113V29.641H94.45V28.1Z" transform="translate(124.948 21.824)" fill="#263238"/>
    <path id="Trazado_211655" data-name="Trazado 211655" d="M103.1,28.1v1.247l-3.081,7.067h-2.1l2.983-6.749H98.162V31.01H96.45V28.1Z" transform="translate(127.839 21.824)" fill="#263238"/>
    <path id="Trazado_211656" data-name="Trazado 211656" d="M95.18,25.446h3.766C96.892,25.446,95.18,25.422,95.18,25.446Z" transform="translate(126.003 17.973)" fill="#263238"/>
    <path id="Trazado_211657" data-name="Trazado 211657" d="M93.508,23.658h-.514a2.005,2.005,0,0,0-1.149.88,1.981,1.981,0,0,0-.269,1.051V46.081a2.446,2.446,0,0,0,0,.734,1.932,1.932,0,0,0,.978,1.125,2.078,2.078,0,0,0,.758.22h.758v4.891h.122l5.8-4.842h14.305a1.956,1.956,0,0,0,1.663-.954,2.127,2.127,0,0,0,.244-.611,3.008,3.008,0,0,0,0-.66V26.225a7.621,7.621,0,0,0,0-1.051,2.225,2.225,0,0,0-.465-.929,2.445,2.445,0,0,0-.856-.562,3.521,3.521,0,0,0-1,0h0a3.032,3.032,0,0,1,.954,0,2.225,2.225,0,0,1,.807.538,1.663,1.663,0,0,1,.416.856,7.043,7.043,0,0,1,0,1.027V45.886a4.888,4.888,0,0,1,0,.611,2.249,2.249,0,0,1-.22.562,1.932,1.932,0,0,1-.929.783,3.546,3.546,0,0,1-1.247,0H99.817l-5.747,4.744h0V47.7h-.831a1.663,1.663,0,0,1-.685-.171,1.81,1.81,0,0,1-.9-1.051,2.446,2.446,0,0,1,0-.709V26.935a4.891,4.891,0,0,1,.245-2.323,2.03,2.03,0,0,1,1.125-.88C93.313,23.658,93.508,23.682,93.508,23.658Z" transform="translate(120.755 15.385)" fill="#263238"/>
    <rect id="Rectángulo_43711" data-name="Rectángulo 43711" width="1.589" height="5.526" rx="0.32" transform="translate(220.181 36.646)" fill="#e0e0e0"/>
    <path id="Trazado_211658" data-name="Trazado 211658" d="M95.63,28.27a.856.856,0,0,1-.44-.2.685.685,0,0,1-.269-.465c0-.22,0-.489,0-.783V23.551a.734.734,0,0,1,.2-.514.758.758,0,0,1,.538-.22.709.709,0,0,1,.538.245.831.831,0,0,1,.171.538v4.059a.831.831,0,0,1-.318.465,1.076,1.076,0,0,1-.465.147h.147a2.1,2.1,0,0,0,.367-.122.807.807,0,0,0,.342-.514,1.857,1.857,0,0,0,0-.367V23.551a.9.9,0,0,0-.2-.636.831.831,0,0,0-.66-.293.782.782,0,0,0-.636.245.807.807,0,0,0-.245.636v4.059a.88.88,0,0,0,.318.514.538.538,0,0,0,.367.147.171.171,0,0,0,.245.049Z" transform="translate(125.308 13.902)" fill="#263238"/>
    <rect id="Rectángulo_43712" data-name="Rectángulo 43712" width="1.589" height="5.526" rx="0.32" transform="translate(227.663 36.646)" fill="#e0e0e0"/>
    <path id="Trazado_211659" data-name="Trazado 211659" d="M98.762,28.27a.88.88,0,0,1-.465-.2.758.758,0,0,1-.245-.465V23.55a.587.587,0,0,1,.2-.514.758.758,0,0,1,.538-.22.782.782,0,0,1,.538.245.831.831,0,0,1,.171.538v3.692a1.858,1.858,0,0,1,0,.367.709.709,0,0,1-.293.465,1.076,1.076,0,0,1-.465.147h0a1.591,1.591,0,0,0,.367-.122.929.929,0,0,0,.367-.514,1.859,1.859,0,0,0,0-.367V23.55a.929.929,0,0,0-.22-.636.783.783,0,0,0-.636-.293.856.856,0,0,0-.66.245.9.9,0,0,0-.244.636v4.059a.783.783,0,0,0,.318.514.538.538,0,0,0,.367.147.185.185,0,0,0,.367.049Z" transform="translate(129.66 13.903)" fill="#263238"/>
    <path id="Trazado_211660" data-name="Trazado 211660" d="M79.242,51.889l1.785,2.225V50.3h5.6s.611,8.754.489,10.613a16.018,16.018,0,0,1-.685,2.861A3.277,3.277,0,0,1,81,65.118a19.561,19.561,0,0,1-1.761-1.932,110.532,110.532,0,0,1-6.6-11l4.3-2.592Z" transform="translate(93.426 52.884)" fill="#ffbe9d"/>
    <path id="Trazado_211661" data-name="Trazado 211661" d="M75.2,50.36a7.335,7.335,0,0,0,.734.978l1.858,2.274c.758.856,1.467,1.638,2.005,2.152a4.255,4.255,0,0,0,.954.783,6.871,6.871,0,0,0-.807-.9l-1.932-2.2A31.153,31.153,0,0,0,75.2,50.36Z" transform="translate(97.126 53.997)" fill="#eb996e"/>
    <path id="Trazado_211662" data-name="Trazado 211662" d="M98.129,35.84,98.4,56.185c0,3.448-.611,8.534-6.089,8.363h0c-4.719-.514-5.991-4.891-6.015-8.216V53.348a6.162,6.162,0,0,1-5.673-5.526c-.2-2.445-.22-7.6-.2-12.227A9.586,9.586,0,0,1,89.3,26.132h.489C95.145,25.985,98.2,30.485,98.129,35.84Z" transform="translate(104.666 18.975)" fill="#ffbe9d"/>
    <path id="Trazado_211663" data-name="Trazado 211663" d="M82.8,38.705a12.471,12.471,0,0,0,6.529-2.445,6.407,6.407,0,0,1-6.5,3.766Z" transform="translate(108.11 33.618)" fill="#eb996e"/>
    <path id="Trazado_211664" data-name="Trazado 211664" d="M84,31.386a3.438,3.438,0,0,1,1.541-.391c.856,0,1.516.391,1.589.269s0-.22-.342-.416a2.079,2.079,0,0,0-1.272-.367,2.005,2.005,0,0,0-1.223.44C84,31.141,84,31.337,84,31.386Z" transform="translate(109.844 25.263)" fill="#263238"/>
    <path id="Trazado_211665" data-name="Trazado 211665" d="M83.81,32.083a.709.709,0,0,0,.709.66.66.66,0,1,0,0-1.32.636.636,0,0,0-.709.66Z" transform="translate(109.569 26.62)" fill="#263238"/>
    <path id="Trazado_211666" data-name="Trazado 211666" d="M84.364,37.192a4.89,4.89,0,0,0-1.3-.147c-.2,0-.391,0-.44-.171a1.2,1.2,0,0,1,0-.611l.489-1.565a25.334,25.334,0,0,0,1.027-4.108,33.53,33.53,0,0,0-1.369,4.01c-.147.562-.293,1.076-.44,1.589a1.125,1.125,0,0,0,0,.807.465.465,0,0,0,.342.269h.342a4.7,4.7,0,0,0,1.345-.073Z" transform="translate(107.329 25.423)" fill="#263238"/>
    <path id="Trazado_211667" data-name="Trazado 211667" d="M84.152,29.815c0,.2.758,0,1.589,0s1.492.22,1.589,0,0-.269-.367-.44a2.568,2.568,0,0,0-1.2-.342,2.445,2.445,0,0,0-1.223.245C84.25,29.571,84.127,29.742,84.152,29.815Z" transform="translate(110.059 23.166)" fill="#263238"/>
    <path id="Trazado_211668" data-name="Trazado 211668" d="M80.826,30.2c0,.147.758,0,1.565,0h1.565c.073,0,0-.22-.367-.342a2.788,2.788,0,0,0-1.2-.2,2.959,2.959,0,0,0-1.2.293C80.923,29.981,80.777,30.127,80.826,30.2Z" transform="translate(105.243 24.076)" fill="#263238"/>
    <path id="Trazado_211669" data-name="Trazado 211669" d="M87.61,31.809s3.423-1.3,3.57,2.2a2.641,2.641,0,0,1-3.423,2.837S87.61,31.809,87.61,31.809Z" transform="translate(115.062 26.845)" fill="#ffbe9d"/>
    <path id="Trazado_211670" data-name="Trazado 211670" d="M88.09,34.836h.171a.587.587,0,0,0,.465,0,1.541,1.541,0,0,0,.636-1.394,2.1,2.1,0,0,0-.2-.88.709.709,0,0,0-.489-.44.269.269,0,0,0-.342.2v.171a.245.245,0,0,1,0-.22.391.391,0,0,1,0-.22.489.489,0,0,1,.342,0,.856.856,0,0,1,.66.514,2.078,2.078,0,0,1,.245.978,1.541,1.541,0,0,1-.831,1.541.685.685,0,0,1-.562,0A.514.514,0,0,1,88.09,34.836Z" transform="translate(115.756 27.486)" fill="#eb996e"/>
    <path id="Trazado_211671" data-name="Trazado 211671" d="M83.46,35.611a3.14,3.14,0,0,0,1.125-.929,3.424,3.424,0,0,0,.489-.929c0-.245.2-.416.22-.391a2.4,2.4,0,0,1,0,.465,2.446,2.446,0,0,1-.513,1.1,2.665,2.665,0,0,1-.9.685A1,1,0,0,1,83.46,35.611Z" transform="translate(109.064 29.425)" fill="#263238"/>
    <path id="Trazado_211672" data-name="Trazado 211672" d="M77.654,32.823a.954.954,0,0,1,.391-.489,2.641,2.641,0,0,1,1.32-.2,7.336,7.336,0,0,0,3.839-1.174,17.263,17.263,0,0,1,1.785-2.176,13.131,13.131,0,0,1,4.157-3.228,11.982,11.982,0,0,1,6.358-.489,4.891,4.891,0,0,1,3.619,3.741,3.668,3.668,0,0,1,3.717-.367h0a4.646,4.646,0,0,1,2.445,3.3,17.728,17.728,0,0,0,1.321,4.084c.147.269.318.562.2.831a.587.587,0,0,1-.611.269,1.3,1.3,0,0,1-.611-.293l.44,1.1a3.3,3.3,0,0,1-1.467,0,30.443,30.443,0,0,1-.978,3.644,2.03,2.03,0,0,0-1.418.342c-.489.44-.685,1.247-1.492.929-.391-.147-.758-1-.88-1.394A19.856,19.856,0,0,1,98.9,32.8a6.358,6.358,0,0,0-1.981-1.443h0a5.844,5.844,0,0,0-4.426-.293c-1.052.514-1.663,1.614-2.445,2.445a7.947,7.947,0,0,1-5.746,2.641v4.891l-1.2-2.323h0a5.186,5.186,0,0,1-.269-.514h0a6.337,6.337,0,0,0-.416-.807h0a.9.9,0,0,1-1.32-1.2,1.883,1.883,0,0,1,.44-.44,1.443,1.443,0,0,1-1.369.367A1.125,1.125,0,0,1,79.513,35a1,1,0,0,1,.562-.758,3.2,3.2,0,0,1-1.834-.391C77.9,33.605,77.532,33.287,77.654,32.823Z" transform="translate(100.638 17.126)" fill="#263238"/>
    <path id="Trazado_211673" data-name="Trazado 211673" d="M85.76,26.71a2.152,2.152,0,0,1,.514.465,3.5,3.5,0,0,1,.782,1.687,5.527,5.527,0,0,1,0,1.32v1.492a12.714,12.714,0,0,0,0,1.687,5.454,5.454,0,0,0,0,.88,1.638,1.638,0,0,0,.342.856.783.783,0,0,0,.734.245,1.125,1.125,0,0,0,.66-.367,2.812,2.812,0,0,0,.489-1.3h-.122a5.011,5.011,0,0,0,.636,1.051,1.614,1.614,0,0,0,1,.562,1.2,1.2,0,0,0,.514,0,.758.758,0,0,0,.367-.367.734.734,0,0,0,0-.44.562.562,0,0,0-.147-.391h0a3.374,3.374,0,0,0,1.1.831l.342.147h0l-.147-.318a3.5,3.5,0,0,1-1.052-.831h0a.66.66,0,0,1,0,.758.734.734,0,0,1-.318.293,1.1,1.1,0,0,1-.489,0,1.614,1.614,0,0,1-.954-.22,4.89,4.89,0,0,1-.587-1.051v0a2.445,2.445,0,0,1-.465,1.247.929.929,0,0,1-.587.318.636.636,0,0,1-.611-.2,1.834,1.834,0,0,1-.342-.807,5.413,5.413,0,0,1,0-.856,12.4,12.4,0,0,1,0-1.663V30.231a9.778,9.778,0,0,0-.147-1.32A3.472,3.472,0,0,0,86.42,27.2a1.59,1.59,0,0,0-.66-.489Z" transform="translate(112.388 19.815)" fill="#455a64"/>
    <path id="Trazado_211674" data-name="Trazado 211674" d="M79.28,33.43h0l.22.122.318.171a4.6,4.6,0,0,0,2.176.391A5.8,5.8,0,0,0,85.1,32.965a9.781,9.781,0,0,0,2.641-3.057c.391-.611.685-1.247,1.027-1.834a6.724,6.724,0,0,1,1.125-1.565,3.6,3.6,0,0,1,1.492-.88,2.078,2.078,0,0,1,.782,0,2.3,2.3,0,0,1,.709.147,3.106,3.106,0,0,1,1.638,1.369,3.571,3.571,0,0,1,.269.783v-.22a3.937,3.937,0,0,0-.2-.562,3.154,3.154,0,0,0-1.663-1.467,3.546,3.546,0,0,0-.734-.147,2.274,2.274,0,0,0-.807,0,3.57,3.57,0,0,0-1.541.9,7.337,7.337,0,0,0-1.174,1.589c-.318.587-.636,1.223-1,1.834a10.294,10.294,0,0,1-2.616,3.032,6.015,6.015,0,0,1-3.032,1.149,4.89,4.89,0,0,1-2.176-.367,4.257,4.257,0,0,1-.562-.245Z" transform="translate(103.022 18.06)" fill="#455a64"/>
    <path id="Trazado_211675" data-name="Trazado 211675" d="M79.09,27.82l.2.147.538.269a4.451,4.451,0,0,0,.856.269,5.575,5.575,0,0,0,2.2,0,3.863,3.863,0,0,0,.88-.245,2.445,2.445,0,0,0,.562-.245l.2-.122a5.381,5.381,0,0,1-.758.367l-.856.2a7.8,7.8,0,0,1-1.1,0,6.724,6.724,0,0,1-1.076-.147l-.88-.049Z" transform="translate(102.748 21.42)" fill="#455a64"/>
    <path id="Trazado_211676" data-name="Trazado 211676" d="M80.807,31.385a3.609,3.609,0,0,1,1.565-.391c.856,0,1.492.391,1.589.269s0-.22-.342-.416a2.176,2.176,0,0,0-1.272-.367,2.152,2.152,0,0,0-1.247.44C80.856,31.141,80.758,31.336,80.807,31.385Z" transform="translate(105.212 25.264)" fill="#263238"/>
    <path id="Trazado_211677" data-name="Trazado 211677" d="M80.88,32.083a.685.685,0,0,0,.709.66.66.66,0,0,0,0-1.32.636.636,0,0,0-.709.66Z" transform="translate(105.335 26.62)" fill="#263238"/>
    <path id="Trazado_211678" data-name="Trazado 211678" d="M97.292,93.38l1.076,12.789,3.741,9.781a1.32,1.32,0,0,1-.831,1.736h0a1.394,1.394,0,0,1-1.2-.22c-2.127-1.663-9.781-7.776-9.952-8.559S88,95.385,88,95.385Z" transform="translate(115.626 116.175)" fill="#455a64"/>
    <path id="Trazado_211679" data-name="Trazado 211679" d="M100.151,109.416,88.78,99.17v.954c0,.514,0,.807.416,1.125a110.918,110.918,0,0,0,9.512,8.167,1.565,1.565,0,0,0,1.32,0Z" transform="translate(116.753 124.543)" fill="#263238"/>
    <path id="Trazado_211680" data-name="Trazado 211680" d="M90.35,97.586a.782.782,0,0,1,.318,1,.758.758,0,0,1-1,.342.856.856,0,0,1-.342-1.076.782.782,0,0,1,1.076-.22" transform="translate(117.433 122.142)" fill="#fff"/>
    <path id="Trazado_211681" data-name="Trazado 211681" d="M92,102.136a3.888,3.888,0,0,1,1.027-1.1,3.765,3.765,0,0,1,1.443-.44.66.66,0,0,0-.465,0,1.932,1.932,0,0,0-1.125.318,2.005,2.005,0,0,0-.88.734Z" transform="translate(121.407 126.542)" fill="#263238"/>
    <path id="Trazado_211682" data-name="Trazado 211682" d="M92.446,102.518a3.635,3.635,0,0,1,1.076-.66,10.632,10.632,0,0,1,1.223-.293,1.492,1.492,0,0,0-1.345,0C92.691,101.883,92.373,102.494,92.446,102.518Z" transform="translate(122.037 127.773)" fill="#263238"/>
    <path id="Trazado_211683" data-name="Trazado 211683" d="M91.21,101.444a10.345,10.345,0,0,1,1.565-1.149,17.691,17.691,0,0,1,1.858-.636,3.57,3.57,0,0,0-3.423,1.785Z" transform="translate(120.265 125.228)" fill="#263238"/>
    <path id="Trazado_211684" data-name="Trazado 211684" d="M90.94,99.217a7.208,7.208,0,0,1,1.638-.416,6.538,6.538,0,0,1,1.687,0,2.445,2.445,0,0,0-1.736-.22,2.617,2.617,0,0,0-1.589.636Z" transform="translate(119.875 123.591)" fill="#263238"/>
    <path id="Trazado_211685" data-name="Trazado 211685" d="M90.782,97.723a5.843,5.843,0,0,1,1.663-.489,6.48,6.48,0,0,1,1.736.245s0-.171-.44-.318a2.885,2.885,0,0,0-1.3-.2,2.445,2.445,0,0,0-1.272.391C90.88,97.528,90.757,97.7,90.782,97.723Z" transform="translate(119.642 121.344)" fill="#263238"/>
    <path id="Trazado_211686" data-name="Trazado 211686" d="M92.577,98.184v-.489a3.179,3.179,0,0,0-.514-1.223,1.516,1.516,0,0,0-.709-.636.538.538,0,0,0-.587.171,1.076,1.076,0,0,0-.147.611,1.858,1.858,0,0,0,1.81,1.541,2.152,2.152,0,0,0,1.981-1.345.734.734,0,0,0,0-.636.538.538,0,0,0-.562-.22,1.809,1.809,0,0,0-.807.538,3.814,3.814,0,0,0-.758,1.076c-.147.293-.171.465-.147.465a5.453,5.453,0,0,1,1.051-1.394,1.565,1.565,0,0,1,.685-.44h.318a.489.489,0,0,1,0,.416,1.907,1.907,0,0,1-1.736,1.149A1.589,1.589,0,0,1,90.915,96.5a.636.636,0,0,1,0-.44.293.293,0,0,1,.318,0,1.2,1.2,0,0,1,.611.538,4.89,4.89,0,0,1,.734,1.589Z" transform="translate(119.411 119.685)" fill="#263238"/>
    <path id="Trazado_211687" data-name="Trazado 211687" d="M85.62,93.708l.465,10.833s-10.833,4.133-10.955,6.138l21.03-.171V93.61Z" transform="translate(97.024 116.507)" fill="#455a64"/>
    <path id="Trazado_211688" data-name="Trazado 211688" d="M82.858,97.7a.88.88,0,0,1,.611.978.856.856,0,0,1-.978.611.929.929,0,0,1-.611-1.051.831.831,0,0,1,1.051-.514" transform="translate(106.756 122.393)" fill="#e0e0e0"/>
    <path id="Trazado_211689" data-name="Trazado 211689" d="M96.121,101.532V99.82L76,100.627s-.929.416-.831,1.076Z" transform="translate(97.063 125.483)" fill="#263238"/>
    <path id="Trazado_211690" data-name="Trazado 211690" d="M79.47,98.036A4.123,4.123,0,0,1,80.5,98.5c.489.318.783.758.88.709s0-.611-.685-1A1.474,1.474,0,0,0,79.47,98.036Z" transform="translate(103.297 122.816)" fill="#263238"/>
    <path id="Trazado_211691" data-name="Trazado 211691" d="M78.58,98.447a3.475,3.475,0,0,1,.758.709c.342.44.465.88.562.88s.171-.587-.293-1.125S78.58,98.349,78.58,98.447Z" transform="translate(102.011 123.433)" fill="#263238"/>
    <path id="Trazado_211692" data-name="Trazado 211692" d="M78.55,100.539a1.327,1.327,0,0,0,0-1.051c-.245-.562-.758-.783-.807-.685s.269.391.489.856S78.379,100.539,78.55,100.539Z" transform="translate(100.794 123.981)" fill="#263238"/>
    <path id="Trazado_211693" data-name="Trazado 211693" d="M79.542,97.291h1.1c.587,0,1.027.22,1.076,0s-.367-.44-1.051-.489A1.335,1.335,0,0,0,79.542,97.291Z" transform="translate(103.396 121.116)" fill="#263238"/>
    <path id="Trazado_211694" data-name="Trazado 211694" d="M77.92,63.493c0,.636,2.445,87.151,2.445,87.151H93.374l2.617-74.02s3.081,38.709,3.081,39.541,2.714,34.919,2.714,34.919l12.055-1-.783-77.932-1.492-11.42Z" transform="translate(101.057 68.985)" fill="#263238"/>
    <path id="Trazado_211695" data-name="Trazado 211695" d="M87.312,71.631a3.032,3.032,0,0,1-.538.245l-1.467.489h0v-.122c0-1.051-.147-2.445-.22-3.961s-.147-3.154-.2-4.23v-1.3a1.419,1.419,0,0,1,0-.465v1.761c0,1.076.171,2.445.245,4.23s.147,2.91.171,3.961h0l1.492-.416Z" transform="translate(111.105 71.24)" fill="#455a64"/>
    <path id="Trazado_211696" data-name="Trazado 211696" d="M85.805,62.526h.171a.831.831,0,0,1,.587,0,.758.758,0,0,1,.44.709.88.88,0,0,1-.709.758.954.954,0,0,1-.954-.416.783.783,0,0,1,0-.831.807.807,0,0,1,.416-.367.391.391,0,0,1,.22,0s-.293,0-.489.465a.66.66,0,0,0,.734.929.611.611,0,0,0,.514-.538.514.514,0,0,0-.293-.538C86.1,62.428,85.83,62.575,85.805,62.526Z" transform="translate(111.609 71.346)" fill="#455a64"/>
    <path id="Trazado_211697" data-name="Trazado 211697" d="M88.03,63.812a1.834,1.834,0,0,1-.22-.856V62.1a2.9,2.9,0,0,1,.22.831C88.079,63.4,88.1,63.787,88.03,63.812Z" transform="translate(115.351 70.965)" fill="#455a64"/>
    <path id="Trazado_211698" data-name="Trazado 211698" d="M88.27,63.815v-.88C88.27,63.448,88.343,63.815,88.27,63.815Z" transform="translate(116.016 70.864)" fill="#455a64"/>
    <path id="Trazado_211699" data-name="Trazado 211699" d="M82.053,64.214a1.956,1.956,0,0,1-.245-1,2.177,2.177,0,0,1,0-1.051,4.778,4.778,0,0,1,.245,1,2.592,2.592,0,0,1,0,1.051Z" transform="translate(106.583 71.052)" fill="#455a64"/>
    <path id="Trazado_211700" data-name="Trazado 211700" d="M82.5,64.258a1.663,1.663,0,0,1-.318-1.051c0-.611.171-1.1.245-1.076a8.8,8.8,0,0,1,0,1.076,4.352,4.352,0,0,1,.073,1.051Z" transform="translate(107.213 71.008)" fill="#455a64"/>
    <path id="Trazado_211701" data-name="Trazado 211701" d="M83.94,62.57v.367a6.576,6.576,0,0,1-.245,1.027,10.735,10.735,0,0,1-1.614,3.081,11.1,11.1,0,0,1-2.445,2.445,6.753,6.753,0,0,1-.929.587c-.22,0-.342.171-.367.147s.489-.293,1.2-.856a12.741,12.741,0,0,0,2.445-2.445,12.5,12.5,0,0,0,1.638-3.008A6.414,6.414,0,0,1,83.94,62.57Z" transform="translate(101.663 71.644)" fill="#455a64"/>
    <path id="Trazado_211702" data-name="Trazado 211702" d="M96.47,68.107h-.391a5.525,5.525,0,0,1-1.076,0,7.336,7.336,0,0,1-3.326-1.223,6.529,6.529,0,0,1-2.225-2.665,4.72,4.72,0,0,1-.342-.978V62.85a13.325,13.325,0,0,0,.538,1.3,7.067,7.067,0,0,0,2.2,2.445,7.336,7.336,0,0,0,3.228,1.272C95.908,68.107,96.47,67.961,96.47,68.107Z" transform="translate(117.23 72.049)" fill="#455a64"/>
    <path id="Trazado_211703" data-name="Trazado 211703" d="M89.241,84.3s-2.152-.44-4.891-1.1-4.891-1.272-4.891-1.32,2.176.44,4.891,1.1S89.266,84.254,89.241,84.3Z" transform="translate(103.283 99.552)" fill="#455a64"/>
    <path id="Trazado_211704" data-name="Trazado 211704" d="M97.015,81.581a46.927,46.927,0,0,1-4.181,2.445c-2.445,1.247-4.279,2.2-4.3,2.152s1.834-1.1,4.181-2.445A32.191,32.191,0,0,1,97.015,81.581Z" transform="translate(116.392 99.119)" fill="#455a64"/>
    <path id="Trazado_211705" data-name="Trazado 211705" d="M80.57,41.264l5.893-2.323,10.882-.611,5.111,1.956-7.018,3.888-6.04-.22Z" transform="translate(104.887 36.61)" fill="#ffbe9d"/>
    <path id="Trazado_211706" data-name="Trazado 211706" d="M81.189,96.822c.538,0,36.166,1.614,36.166,1.614l-1.247-32.058V60.093l-2.03-19.049s-5.331-1.834-8.045-2.714a11.713,11.713,0,0,1-8.314,2.91c-5.306,0-6.407-1.3-6.407-1.3L83.976,42.8s-5.282,1.883-6.211,4.23S75.32,62.319,75.32,62.319h7.7L82.876,85.28Z" transform="translate(97.299 36.61)" fill="#f67409"/>
    <g id="Grupo_145845" data-name="Grupo 145845" transform="translate(200.887 90.272)" opacity="0.2">
      <path id="Trazado_211707" data-name="Trazado 211707" d="M86.88,44.991l1.1,8.07,5.355,2.4,3.937-3.375V44.6l-10.393.391" transform="translate(-86.88 -44.6)"/>
    </g>
    <path id="Trazado_211708" data-name="Trazado 211708" d="M96.861,45.782a48.442,48.442,0,0,1-4.891,0,48.439,48.439,0,0,1-4.891,0,48.433,48.433,0,0,1,4.891-.122,48.434,48.434,0,0,1,4.891.122Z" transform="translate(114.296 47.18)" fill="#263238"/>
    <path id="Trazado_211709" data-name="Trazado 211709" d="M76.745,43.26v.2l.147.636a16.893,16.893,0,0,0,.709,2.274,34.229,34.229,0,0,0,1.467,3.326c.587,1.3,1.1,2.763,1.663,4.377h0v6.211c0,4.891,0,9.341-.122,12.569V54.019h0c-.538-1.614-1.051-3.106-1.614-4.377s-1.076-2.445-1.418-3.375a18.1,18.1,0,0,1-.66-2.3,4.888,4.888,0,0,1,0-.611C76.745,43.333,76.72,43.26,76.745,43.26Z" transform="translate(99.347 43.735)" fill="#263238"/>
    <path id="Trazado_211710" data-name="Trazado 211710" d="M92.505,41.72v2.543c0,1.614-.147,3.766-.22,6.138s-.22,4.524-.293,6.138V58.4a2.616,2.616,0,0,1,0,.685,3.006,3.006,0,0,1,0-.685V56.539c0-1.565,0-3.741.2-6.138s.22-4.573.318-6.138a6.6,6.6,0,0,1,.147-1.858,2,2,0,0,1-.147-.685Z" transform="translate(121.366 41.51)" fill="#263238"/>
    <g id="Grupo_145846" data-name="Grupo 145846" transform="translate(176.083 88.145)" opacity="0.3">
      <path id="Trazado_211711" data-name="Trazado 211711" d="M76.745,43.73a13.474,13.474,0,0,0,3.521,9.561C79.533,49.966,77.723,46.836,76.745,43.73Z" transform="translate(-76.737 -43.73)"/>
    </g>
    <g id="Grupo_145847" data-name="Grupo 145847" transform="translate(191.766 106.729)" opacity="0.3">
      <path id="Trazado_211712" data-name="Trazado 211712" d="M83.15,64.461A6.529,6.529,0,0,0,87.4,62.016a19.563,19.563,0,0,0,2.885-4.157,16.653,16.653,0,0,0,1.687-6.529A31.031,31.031,0,0,1,83.15,64.461Z" transform="translate(-83.15 -51.33)"/>
    </g>
    <path id="Trazado_211713" data-name="Trazado 211713" d="M93.518,50.36a1.607,1.607,0,0,0,0,.22l-.122.562a6.652,6.652,0,0,1-.245.929,12.227,12.227,0,0,1-.367,1.174,28.738,28.738,0,0,1-1.223,2.983,33.743,33.743,0,0,1-1.956,3.448,35.382,35.382,0,0,1-2.445,3.154c-.831.9-1.614,1.663-2.3,2.274a11.516,11.516,0,0,1-.954.782,8.463,8.463,0,0,1-.758.562l-.489.342H82.49l.147-.147.465-.367.709-.587a8.726,8.726,0,0,0,.929-.807,29.152,29.152,0,0,0,2.25-2.3,38.712,38.712,0,0,0,2.445-3.13,36.086,36.086,0,0,0,1.956-3.4c.514-1.1.954-2.1,1.272-2.959.171-.44.293-.831.391-1.174s.22-.636.293-.9l.171-.562Z" transform="translate(107.662 53.997)" fill="#263238"/>
    <path id="Trazado_211714" data-name="Trazado 211714" d="M96.341,46.26V46.6l-.171.929A7.3,7.3,0,0,1,95.852,49c-.147.587-.269,1.2-.489,1.907l-.318,1.1a4.123,4.123,0,0,1-.416,1.2,23.167,23.167,0,0,1-.978,2.445,48.905,48.905,0,0,1-2.885,5.6,50.766,50.766,0,0,1-3.692,5.135c-.636.734-1.223,1.443-1.834,2.054l-.88.9-.831.783c-.538.514-1.051.929-1.492,1.32s-.831.685-1.149.929l-.758.587c-.171.122-.269.2-.269.171l.245-.22.709-.587,1.149-.978c.416-.391.929-.807,1.443-1.345l.831-.783.856-.9c.587-.636,1.174-1.32,1.81-2.054a46.167,46.167,0,0,0,3.644-5.135,45.412,45.412,0,0,0,2.91-5.575c.367-.88.734-1.736,1-2.445l.416-1.174.342-1.1c.22-.685.367-1.345.514-1.907a13.049,13.049,0,0,0,.342-1.443l.22-.929Z" transform="translate(103.861 48.071)" fill="#263238"/>
    <path id="Trazado_211715" data-name="Trazado 211715" d="M85.9,43.39C88.1,46.716,97,60.238,99.621,64.249a.611.611,0,0,1-.587.954L83.237,63.2a.587.587,0,0,1-.44-.245L67.709,42.338a.636.636,0,0,1,.562-.978l16.237,1.2a1.834,1.834,0,0,1,1.394.831Z" transform="translate(86.154 40.989)" fill="#e0e0e0"/>
    <path id="Trazado_211716" data-name="Trazado 211716" d="M85.96,43.433a.733.733,0,0,0,0-.2,1.614,1.614,0,0,0-.514-.44,2.445,2.445,0,0,0-1.051-.245H82.928L73.513,41.7l-3.106-.245-1.785-.122h-.44a.66.66,0,0,0-.44.2.709.709,0,0,0,0,.929L72.12,48.47c3.106,4.23,6.5,8.9,10.1,13.767.22.318.416.611.66.929a1.026,1.026,0,0,0,.293.2.66.66,0,0,0,.293,0h.562l2.225.293,4.3.538,8.167,1h.514a.66.66,0,0,0,.514-.22.709.709,0,0,0,.22-.514.733.733,0,0,0-.2-.514l-1.1-1.418-2.005-3.008c-1.272-1.956-2.445-3.766-3.57-5.4L87.892,46.27l-1.418-2.1-.367-.562-.147-.171v.2l.342.562L87.7,46.343l5.38,7.874,3.546,5.429L98.6,62.678l1.027,1.565a.66.66,0,0,1,.147.391.489.489,0,0,1-.147.342.44.44,0,0,1-.342.147h-.465l-8.192-1.1L86.3,63.485l-2.2-.269h-1l-.66-.9L72.34,48.544l-4.4-5.991a.538.538,0,0,1,0-.66.465.465,0,0,1,.318-.122h2.03l3.106.22,9.39.66h1.467a2.054,2.054,0,0,1,1.027.22,2.3,2.3,0,0,1,.685.562Z" transform="translate(86.096 40.946)" fill="#263238"/>
    <path id="Trazado_211717" data-name="Trazado 211717" d="M67.65,41.76h1.3l3.57.318,12.227,1h0l2.445,3.5c3.2,4.891,5.991,9.463,8.118,12.667l2.445,3.815.734,1a1.932,1.932,0,0,0,.245.342s0-.122-.22-.367l-.66-1.051L95.4,59.146c-2.054-3.228-4.891-7.776-8.045-12.716a36.977,36.977,0,0,0-2.445-3.5h0l-12.227-.88-3.595-.245h-.954Z" transform="translate(86.213 41.567)" fill="#263238"/>
    <path id="Trazado_211718" data-name="Trazado 211718" d="M71.66,42.97Z" transform="translate(92.009 43.316)" fill="#fff"/>
    <path id="Trazado_211719" data-name="Trazado 211719" d="M71.514,43.221a.318.318,0,0,1,.391-.245.734.734,0,0,1,.416.245.391.391,0,0,1,0,.538c-.147.2-.465.122-.66,0A.514.514,0,0,1,71.514,43.221Z" transform="translate(91.764 43.31)" fill="#fff"/>
    <path id="Trazado_211720" data-name="Trazado 211720" d="M80.033,48.893a1.149,1.149,0,0,0-.978-1.687,53.481,53.481,0,0,0-5.722,0s-2.274.245-1.785,1.883c0,0-1.345,1.2-.636,2.445s1,.929,1,.929-.2,1.565,1,1.81c0,0,1.32,1.541,2.445,1.443a25.9,25.9,0,0,0,6.6-3.008c.342-.489.807-.758.538-1.3,0,0,.611-1.394-.734-1.614C81.843,49.822,81.745,48.648,80.033,48.893Z" transform="translate(90.63 49.327)" fill="#ffbe9d"/>
    <path id="Trazado_211721" data-name="Trazado 211721" d="M71.57,48.5h3.521a15.626,15.626,0,0,0,2.714-.171c.685-.147.954-.538.9-.562a2.2,2.2,0,0,1-.954.391q-1.222.059-2.445,0l-2.69.171a4.084,4.084,0,0,0-1.051.171Z" transform="translate(91.879 50.254)" fill="#eb996e"/>
    <path id="Trazado_211722" data-name="Trazado 211722" d="M72,50.6a.905.905,0,0,0,.342,0,3.032,3.032,0,0,0,1,0,7.336,7.336,0,0,0,1.443-.269l1.687-.538a9.391,9.391,0,0,1,1.687-.342,2.445,2.445,0,0,0,1.467-.293.954.954,0,0,0,.342-.489.636.636,0,0,0,0-.44c-.122-.245-.293-.245-.269-.245s0,0,.2.269a.66.66,0,0,1-.318.758,2.445,2.445,0,0,1-1.345.2,7.727,7.727,0,0,0-1.761.342l-1.687.562a9.562,9.562,0,0,1-1.394.293C72.587,50.67,72,50.474,72,50.6Z" transform="translate(92.501 50.557)" fill="#eb996e"/>
    <path id="Trazado_211723" data-name="Trazado 211723" d="M72.73,51.239a4.891,4.891,0,0,0,1.051-.22c.66-.171,1.541-.416,2.445-.734s1.834-.636,2.445-.88a7.484,7.484,0,0,0,.978-.465,34.9,34.9,0,0,0-3.521,1.1C74.3,50.676,72.706,51.165,72.73,51.239Z" transform="translate(93.555 51.945)" fill="#eb996e"/>
    <path id="Trazado_211724" data-name="Trazado 211724" d="M72.56,51.9h.88a9.781,9.781,0,0,0,2.03-.709c.758-.342,1.418-.685,1.907-.954s.782-.416.758-.465a17.119,17.119,0,0,0-2.763,1.174A22.571,22.571,0,0,1,72.56,51.9Z" transform="translate(93.31 53.144)" fill="#eb996e"/>
    <path id="Trazado_211725" data-name="Trazado 211725" d="M108.28,50.047s-3.228,12.936-7.336,17.7S90.894,70.2,88.718,64.278,82.8,44.716,82.8,44.716l4.646-3.546,8.07,15.43,3.619-10.588Z" transform="translate(108.11 40.715)" fill="#ffbe9d"/>
    <path id="Trazado_211726" data-name="Trazado 211726" d="M86.579,51.867l-3.4-4.891a10.368,10.368,0,0,1-1.443-.44,5.6,5.6,0,0,1-.758-2.592c0-.367-.66-1.272-.391-1.516s1.174-.269,1.125-.636-.685-.9-.147-1.492a2.837,2.837,0,0,1,.954-.416V38s1.027-2.225,2.054-1.418c0,0,3.912,3.008,4.3,3.5A68.152,68.152,0,0,1,91.054,48" transform="translate(104.82 33.832)" fill="#ffbe9d"/>
    <path id="Trazado_211727" data-name="Trazado 211727" d="M91.156,47.983a1.759,1.759,0,0,0,0-.342l-.2-.929c-.2-.831-.465-2.005-.831-3.472-.2-.709-.391-1.516-.66-2.445l-.171-.465a1.516,1.516,0,0,0-.465-.562c-.367-.318-.734-.636-1.125-.929l-2.445-1.956a2.69,2.69,0,0,0-.734-.465,1.027,1.027,0,0,0-.88.2A4.3,4.3,0,0,0,82.6,38.031h0v1.761l-.685.245a.9.9,0,0,0-.342.22,1.564,1.564,0,0,0-.2.342,1.149,1.149,0,0,0,0,.758l.147.318v.147h0l-.2.147H80.69a.562.562,0,0,0-.318.245.538.538,0,0,0,0,.391v.318l.269.562a1.269,1.269,0,0,1,0,.269v.929a6.163,6.163,0,0,0,.318,1.149,1.394,1.394,0,0,0,.293.514,2.054,2.054,0,0,0,.538.245l1,.269h0l2.445,3.595.685.954.269.342-.22-.367-.66-1-2.445-3.619h0l-1-.269.1-.1a1.247,1.247,0,0,1-.22-.44,8.483,8.483,0,0,1-.318-1.125v-.88a.782.782,0,0,0,0-.342l-.245-.587a1.2,1.2,0,0,1,0-.269.465.465,0,0,1,0-.245.587.587,0,0,1,.22,0h.636a.344.344,0,0,0,.318-.269.318.318,0,0,0,0-.147h0v-.147a1.223,1.223,0,0,1-.2-.88.587.587,0,0,1,.147-.269l-.342-.465a2.787,2.787,0,0,1,.636-.22h0V38.177a4.132,4.132,0,0,1,.978-1.32.758.758,0,0,1,.66-.171,2.592,2.592,0,0,1,.66.44c.856.66,1.687,1.3,2.445,1.932l1.125.9a1.541,1.541,0,0,1,.416.489,6.524,6.524,0,0,1,.22.636c.269.831.489,1.638.685,2.445l.9,3.448.245.929Q91.044,47.951,91.156,47.983Z" transform="translate(104.547 33.804)" fill="#eb996e"/>
    <path id="Trazado_211728" data-name="Trazado 211728" d="M81.29,37.912h1.027a9.07,9.07,0,0,1,1.076.245,4.279,4.279,0,0,0,1.369,0,2.665,2.665,0,0,1,2.176.709,2.886,2.886,0,0,1,.538.856,1.223,1.223,0,0,0-.391-.954,2.152,2.152,0,0,0-.954-.66,2.568,2.568,0,0,0-1.369-.171,6.162,6.162,0,0,1-1.345,0,6.529,6.529,0,0,0-1.1-.2,2.617,2.617,0,0,0-1.027.171Z" transform="translate(105.928 35.756)" fill="#eb996e"/>
    <path id="Trazado_211729" data-name="Trazado 211729" d="M81.923,38.378a.685.685,0,0,0,.2-.538c-.024-.342-.2-.514-.269-.489s0,.245,0,.514S81.849,38.354,81.923,38.378Z" transform="translate(106.689 35.192)" fill="#eb996e"/>
    <path id="Trazado_211730" data-name="Trazado 211730" d="M80.91,39.009a8.73,8.73,0,0,0,2.959-.245,2.861,2.861,0,0,1,1.076-.122,1.149,1.149,0,0,1,.709.465c.293.416.342.758.391.734a1.663,1.663,0,0,0-.245-.831,1.3,1.3,0,0,0-.807-.587,2.445,2.445,0,0,0-1.174,0C82.23,38.887,80.91,38.936,80.91,39.009Z" transform="translate(105.378 36.64)" fill="#eb996e"/>
    <path id="Trazado_211731" data-name="Trazado 211731" d="M80.7,39.7a1.81,1.81,0,0,0,.709,0,12.367,12.367,0,0,0,1.712-.342,6.36,6.36,0,0,1,.9,0,1.247,1.247,0,0,1,.66.245.978.978,0,0,1,.318.587s0,0,0-.2a.9.9,0,0,0-.245-.513A1.369,1.369,0,0,0,84,39.141a3.4,3.4,0,0,0-.978,0c-.66.122-1.247.293-1.687.391S80.7,39.654,80.7,39.7Z" transform="translate(105.075 37.731)" fill="#eb996e"/>
    <path id="Trazado_211732" data-name="Trazado 211732" d="M81.18,39.92a1.077,1.077,0,0,0,.88.391h-.122V40.6a4.182,4.182,0,0,0,.269,1.247,3.374,3.374,0,0,0,0-1.272v-.465h0A2.788,2.788,0,0,1,81.18,39.92Z" transform="translate(105.769 38.908)" fill="#eb996e"/>
    <path id="Trazado_211733" data-name="Trazado 211733" d="M95.654,39.44s6.6,1.589,6.6,10.368a34.674,34.674,0,0,1-2.03,13.009L88,56.19l2.739-6.847Z" transform="translate(115.626 38.214)" fill="#f67409"/>
    <path id="Trazado_211734" data-name="Trazado 211734" d="M100.227,61.545h-.245l-.709-.367-2.617-1.369L88,55.114h0l.66-1.712,2.2-5.722.978-2.445a15.8,15.8,0,0,1,.954-2.127,6.6,6.6,0,0,1,2.2-2.445,3.4,3.4,0,0,1,.856-.342h.318a3.105,3.105,0,0,0-1.125.465,6.578,6.578,0,0,0-2.079,2.445,14.281,14.281,0,0,0-.929,2.127L91.081,47.8,88.9,53.525l-.66,1.712v-.171L96.9,59.834l2.445,1.443.685.391Z" transform="translate(115.626 39.486)" fill="#263238"/>
    <path id="Trazado_211735" data-name="Trazado 211735" d="M33.649,89.91,22.18,100.4l12.96,14.305c1.3-1.32-2.665-11.2-2.665-11.2l7.165-6.92Z" transform="translate(20.495 111.16)" fill="#455a64"/>
    <path id="Trazado_211736" data-name="Trazado 211736" d="M25.693,93.5a.807.807,0,0,0-1.051.2.758.758,0,0,0,.2,1.027.856.856,0,0,0,1.1-.22.807.807,0,0,0-.318-1.051" transform="translate(23.877 116.179)" fill="#fff"/>
    <path id="Trazado_211737" data-name="Trazado 211737" d="M22.18,94.865l1.2-1.125L35.311,108s.293.88-.22,1.223Z" transform="translate(20.495 116.695)" fill="#263238"/>
    <path id="Trazado_211738" data-name="Trazado 211738" d="M27.681,95.989a4.355,4.355,0,0,0-.954-.391c-.538-.147-1,0-1.027-.147s.465-.342,1.1-.171S27.755,95.964,27.681,95.989Z" transform="translate(25.582 118.824)" fill="#fff"/>
    <path id="Trazado_211739" data-name="Trazado 211739" d="M27.943,96.569h-.954c-.514,0-.88.245-.954.171s.269-.465.9-.489S28.017,96.5,27.943,96.569Z" transform="translate(26.053 120.322)" fill="#fff"/>
    <path id="Trazado_211740" data-name="Trazado 211740" d="M26.39,97.815a1.056,1.056,0,0,1,.734-.636c.611-.2,1,0,.954.122s-.416,0-.856.2S26.463,97.888,26.39,97.815Z" transform="translate(26.579 121.546)" fill="#fff"/>
    <path id="Trazado_211741" data-name="Trazado 211741" d="M27.989,95.719a8.039,8.039,0,0,0-.66-.758c-.367-.367-.783-.562-.758-.66s.538,0,.978.416S28.087,95.694,27.989,95.719Z" transform="translate(26.839 117.455)" fill="#fff"/>
    <path id="Trazado_211742" data-name="Trazado 211742" d="M28.469,95.883a2.6,2.6,0,0,1-.636-.734,3.472,3.472,0,0,1-.465-.954,4.475,4.475,0,0,1-.147-.611.856.856,0,0,1,0-.367.416.416,0,0,1,.342-.367.562.562,0,0,1,.44.171,1.027,1.027,0,0,1,.2.293,2.984,2.984,0,0,1,.245.587,3.594,3.594,0,0,1,.171,1.051,1.736,1.736,0,0,1-.2.954s0-.367,0-.954A4.035,4.035,0,0,0,28.2,94l-.245-.538a.334.334,0,0,0-.318-.293h0a1.1,1.1,0,0,0,0,.269,4.891,4.891,0,0,0,.122.587,6.7,6.7,0,0,0,.367.929A4.39,4.39,0,0,0,28.469,95.883Z" transform="translate(27.753 115.408)" fill="#fff"/>
    <path id="Trazado_211743" data-name="Trazado 211743" d="M27.64,95.12a1.614,1.614,0,0,1,.538-.831,4.55,4.55,0,0,1,.88-.611,3.3,3.3,0,0,1,.587-.2.782.782,0,0,1,.782,0,.513.513,0,0,1,0,.489.88.88,0,0,1-.2.293,1.639,1.639,0,0,1-.489.44,2.029,2.029,0,0,1-1.027.367,1.272,1.272,0,0,1-.954-.171h.929a2.128,2.128,0,0,0,.88-.391,1.2,1.2,0,0,0,.391-.391c.147-.147.22-.318.147-.367a.489.489,0,0,0-.465,0,1.98,1.98,0,0,0-.538.171,3.178,3.178,0,0,0-.856.514C27.885,94.9,27.689,95.145,27.64,95.12Z" transform="translate(28.386 116.171)" fill="#fff"/>
    <path id="Trazado_211744" data-name="Trazado 211744" d="M25.74,94l.122,15.528H45.18c0-1.858-10.124-5.526-10.124-5.526l.318-10Z" transform="translate(25.64 117.071)" fill="#455a64"/>
    <path id="Trazado_211745" data-name="Trazado 211745" d="M27.44,97.779a.758.758,0,0,0-.538.9.734.734,0,0,0,.88.538.807.807,0,0,0,.562-.954.783.783,0,0,0-.978-.465" transform="translate(27.29 122.511)" fill="#fff"/>
    <path id="Trazado_211746" data-name="Trazado 211746" d="M25.79,101.383V99.72l18.584.636s.856.367.758.978Z" transform="translate(25.712 125.338)" fill="#263238"/>
    <path id="Trazado_211747" data-name="Trazado 211747" d="M30.726,98.125a3.957,3.957,0,0,0-.929.465c-.465.318-.709.685-.807.66s0-.587.611-.954S30.75,97.978,30.726,98.125Z" transform="translate(30.289 122.874)" fill="#fff"/>
    <path id="Trazado_211748" data-name="Trazado 211748" d="M31.257,98.421a3.835,3.835,0,0,0-.709.66c-.318.391-.416.831-.489.807s-.171-.513.245-1.027S31.257,98.347,31.257,98.421Z" transform="translate(31.787 123.41)" fill="#fff"/>
    <path id="Trazado_211749" data-name="Trazado 211749" d="M31.058,100.352a1.21,1.21,0,0,1,0-.954c.22-.514.685-.734.734-.66s-.245.367-.44.782A4.78,4.78,0,0,0,31.058,100.352Z" transform="translate(33.185 123.899)" fill="#fff"/>
    <path id="Trazado_211750" data-name="Trazado 211750" d="M30.8,97.319H29.771c-.538,0-.929.22-.978.122s.342-.416.978-.44S30.822,97.245,30.8,97.319Z" transform="translate(30.046 121.406)" fill="#fff"/>
    <path id="Trazado_211751" data-name="Trazado 211751" d="M31.715,57.83A27.851,27.851,0,0,0,27.68,63.5c-1.32,2.763-3.375,8.681-3.375,8.681s-2.445,9.048-1.981,13.3,4.377,33.4,4.377,33.4-.734,23.084,2.445,33.354l.611,2.739,10.882-1.932h0l2.445-57.172,6.651-37.8Z" transform="translate(20.619 64.794)" fill="#263238"/>
    <path id="Trazado_211752" data-name="Trazado 211752" d="M32.962,59.3a.8.8,0,0,0-.416-.611.807.807,0,0,0-.758,0,.734.734,0,0,0-.465.734.783.783,0,0,0,.489.709.88.88,0,0,0,.758,0,1.345,1.345,0,0,0,.391-.66s0,0,0,.245a.954.954,0,0,1-.318.562,1,1,0,1,1-.954-1.736.929.929,0,0,1,.929.171.9.9,0,0,1,.342.538C33.011,59.228,32.987,59.3,32.962,59.3Z" transform="translate(33.285 65.743)" fill="#455a64"/>
    <path id="Trazado_211753" data-name="Trazado 211753" d="M52.9,65.437s3.986,36.24,4.573,42.475-22.008,39.419-22.008,39.419L26,136.156l14.427-27.045-4.891-26.9L41.992,57.93H52.018Z" transform="translate(26.016 64.938)" fill="#263238"/>
    <path id="Trazado_211754" data-name="Trazado 211754" d="M24.594,131.287a6.359,6.359,0,0,0,0,.807,10.685,10.685,0,0,0,.367,2.274c.367,1.956.954,4.891,1.736,8.387h0L37.6,140.848h0c.293-7.483.66-16.408,1.051-25.994.416-10.295.783-19.856,1.076-27.705h0c.831-6.309,1.492-11.517,1.981-15.161l.514-4.206.147-1.125v0l-.147,1.1c-.147.978-.342,2.445-.587,4.206-.489,3.644-1.2,8.852-2.054,15.137h0c-.318,7.825-.709,17.386-1.125,27.705-.367,9.586-.734,18.511-1,25.969h0l-10.882,1.956h0c-.807-3.57-1.418-6.431-1.81-8.387-.2-.978-.342-1.736-.416-2.25a1.2,1.2,0,0,1,0-.587,1.515,1.515,0,0,1,.245-.22Z" transform="translate(23.583 77.021)" fill="#455a64"/>
    <path id="Trazado_211755" data-name="Trazado 211755" d="M31.17,71.462h.611a2.837,2.837,0,0,0,1.516-.269,1.345,1.345,0,0,0,.611-.831,6.064,6.064,0,0,0,.2-1.247,21.5,21.5,0,0,1,.22-2.934c.147-2.1.22-3.986.269-5.355V58.6a1.663,1.663,0,0,1,0,.587v1.638c0,1.369,0,3.277-.171,5.38,0,1.027-.171,2.03-.245,2.934a6.821,6.821,0,0,1-.22,1.3,1.614,1.614,0,0,1-.734.9,1.761,1.761,0,0,1-.929.244,3.252,3.252,0,0,1-.709,0,2.862,2.862,0,0,1-.416-.122Z" transform="translate(33.488 65.907)" fill="#455a64"/>
    <path id="Trazado_211756" data-name="Trazado 211756" d="M39.874,64.577a3.62,3.62,0,0,1-1.051-.538A11.615,11.615,0,0,1,36.7,62.156a10.808,10.808,0,0,1-1.589-2.445,3.6,3.6,0,0,1-.416-1.1,20.27,20.27,0,0,0,2.2,3.3,19.563,19.563,0,0,0,2.983,2.665Z" transform="translate(38.576 65.921)" fill="#455a64"/>
    <path id="Trazado_211757" data-name="Trazado 211757" d="M22.79,48.04l4.328,15.772,1.932,8.363A22.277,22.277,0,0,1,27.118,82.69l29.539-1.565s.489-19.978,0-23.769L53.063,44.445,43.7,42l-11.689.22Z" transform="translate(21.376 41.914)" fill="#f67409"/>
    <path id="Trazado_211758" data-name="Trazado 211758" d="M39.417,56.364a1.687,1.687,0,0,1,0-.782,5.38,5.38,0,0,1,.342-1.858,5.086,5.086,0,0,1,.954-1.638c.318-.367.562-.538.587-.514A9.341,9.341,0,0,0,39.955,53.8a8.755,8.755,0,0,0-.538,2.568Z" transform="translate(45.341 55.745)" fill="#263238"/>
    <path id="Trazado_211759" data-name="Trazado 211759" d="M57.354,58.57l-7.678,4.573L45.323,51.992A49.857,49.857,0,0,0,42.878,47.1c-2.445-4.475-5.8-4.23-5.8-4.23l-3.913,5.8,4.157,8.877S39.772,74,44.663,75.272C52,77.228,57.33,58.448,57.33,58.448Z" transform="translate(36.379 43.17)" fill="#f67409"/>
    <g id="Grupo_145848" data-name="Grupo 145848" transform="translate(45.829 103.99)" opacity="0.3">
      <path id="Trazado_211760" data-name="Trazado 211760" d="M23.47,80.7a22.375,22.375,0,0,0,10.075-3.4c2.983-1.785,5.7-3.986,8.534-6.015C48.828,66.4,62.253,55.712,68.513,50.21l-1.81.416L24.5,77.94Z" transform="translate(-23.47 -50.21)"/>
    </g>
    <path id="Trazado_211761" data-name="Trazado 211761" d="M39.11,72.634a2.664,2.664,0,0,0,0-.293v-16.9a14.941,14.941,0,0,0-.367-2.641,13.6,13.6,0,0,0-1.81-4.108c-.66-1.125-1.2-2.03-1.492-2.69a4.015,4.015,0,0,0-.44-.831q-.007-.147,0-.293l.147.269.367.734c.342.636.88,1.541,1.565,2.641a13.987,13.987,0,0,1,1.907,4.157,15.235,15.235,0,0,1,.367,2.665,28.272,28.272,0,0,1,0,2.885c0,3.961,0,7.507-.122,10.148v3.888C39.135,72.537,39.135,72.634,39.11,72.634Z" transform="translate(39.022 46.077)" fill="#263238"/>
    <path id="Trazado_211762" data-name="Trazado 211762" d="M44.421,47.769a1.956,1.956,0,0,1-1.834-.831,2.445,2.445,0,0,0,1.418,0,.831.831,0,0,0,.342-1.2c-.269-.293-.709-.245-1.076-.269a2.3,2.3,0,0,1-1.981-1.516,6.8,6.8,0,0,1,0-2.885,7.9,7.9,0,0,0-3.3-7.336L31.95,30.26a13.645,13.645,0,0,0-2.445,10.1,27.118,27.118,0,0,0,3.888,9.855,12.374,12.374,0,0,0,1.834,2.445,4.573,4.573,0,0,0,2.714,1.394,2.739,2.739,0,0,0-.465-2.445,6.113,6.113,0,0,0,4.5-1.614l-1.3-.978A4.891,4.891,0,0,0,44.421,47.769Z" transform="translate(30.85 24.946)" fill="#263238"/>
    <path id="Trazado_211763" data-name="Trazado 211763" d="M26,37.832a5.649,5.649,0,0,1,4.108-5.306l7.556-2.176c3.3-.44,5.6,3.546,5.918,6.847a51.352,51.352,0,0,1,.245,10.295,6.871,6.871,0,0,1-4.891,6.358V70.184L27.785,58.129,26,37.906Z" transform="translate(26.016 25.028)" fill="#ae7461"/>
    <path id="Trazado_211764" data-name="Trazado 211764" d="M33.649,35.214a.709.709,0,0,1-.66.734.685.685,0,0,1-.758-.611.709.709,0,0,1,.66-.734.685.685,0,0,1,.758.611Z" transform="translate(35.02 31.216)" fill="#263238"/>
    <path id="Trazado_211765" data-name="Trazado 211765" d="M34.554,34.4a3.437,3.437,0,0,0-1.394-.269c-.758.024-1.32.44-1.394.342s0-.22.269-.391a1.932,1.932,0,0,1,2.225,0C34.5,34.25,34.578,34.4,34.554,34.4Z" transform="translate(34.311 29.955)" fill="#263238"/>
    <path id="Trazado_211766" data-name="Trazado 211766" d="M30.9,35.214a.685.685,0,0,1-.66.734.66.66,0,0,1-.734-.611.709.709,0,0,1,.66-.734.66.66,0,0,1,.734.611Z" transform="translate(31.089 31.216)" fill="#263238"/>
    <path id="Trazado_211767" data-name="Trazado 211767" d="M31.6,34.506a3.678,3.678,0,0,0-1.394-.245c-.758.024-1.3.416-1.394.318s0-.2.293-.391a1.883,1.883,0,0,1,1.1-.367,1.81,1.81,0,0,1,1.125.318C31.55,34.262,31.771,34.482,31.6,34.506Z" transform="translate(30.027 30.09)" fill="#263238"/>
    <path id="Trazado_211768" data-name="Trazado 211768" d="M31.318,40.263a4.622,4.622,0,0,1,1.247-.269c.2,0,.367,0,.391-.2a.811.811,0,0,0-.147-.587L32.2,37.769A27.707,27.707,0,0,1,30.78,33.93a24.453,24.453,0,0,1,1.712,3.717l.611,1.467a1.272,1.272,0,0,1,.122.758.538.538,0,0,1-.318.293.783.783,0,0,1-.318,0,4.645,4.645,0,0,1-1.272.1Z" transform="translate(32.924 30.251)" fill="#263238"/>
    <path id="Trazado_211769" data-name="Trazado 211769" d="M28.28,39.22a6.994,6.994,0,0,0,7.336,3.057v-1.3A13.914,13.914,0,0,1,28.28,39.22Z" transform="translate(29.311 37.896)" fill="#6f4439"/>
    <path id="Trazado_211770" data-name="Trazado 211770" d="M31.865,33.407c0,.22-.831.147-1.712.269s-1.614.416-1.736.22,0-.293.367-.489a2.665,2.665,0,0,1,1.272-.489,2.885,2.885,0,0,1,1.345.122C31.743,33.163,31.889,33.309,31.865,33.407Z" transform="translate(29.443 28.744)" fill="#263238"/>
    <path id="Trazado_211771" data-name="Trazado 211771" d="M34.326,33.5c-.147.171-.66,0-1.3,0s-1.149.147-1.3,0,0-.269.269-.44a1.956,1.956,0,0,1,2.054,0C34.3,33.331,34.375,33.331,34.326,33.5Z" transform="translate(34.22 28.575)" fill="#263238"/>
    <path id="Trazado_211772" data-name="Trazado 211772" d="M29.816,37.594a.954.954,0,0,1,1-.783,1,1,0,0,1,.807.538,1.247,1.247,0,0,1,0,.978h0a1.149,1.149,0,0,1-1.272.318A1.027,1.027,0,0,1,29.816,37.594Z" transform="translate(31.517 34.412)" fill="#6f4439"/>
    <path id="Trazado_211773" data-name="Trazado 211773" d="M32.029,38.7a3.4,3.4,0,0,1-1.369-.66,2.288,2.288,0,0,1-.587-1.443,1.083,1.083,0,0,0-.122.538,1.932,1.932,0,0,0,.538,1.2,1.614,1.614,0,0,0,1.149.514C31.857,38.874,32.029,38.752,32.029,38.7Z" transform="translate(31.725 34.11)" fill="#263238"/>
    <path id="Trazado_211774" data-name="Trazado 211774" d="M27.064,31.68a7.678,7.678,0,0,1,4.45-3.032,4.133,4.133,0,0,1,4.035,1.076,4.6,4.6,0,0,0,1.785,1.051,7.923,7.923,0,0,1,2.617.538c1.394.734,2.005,2.592,2.665,4.035a37.217,37.217,0,0,1,2.445,5.306,4.891,4.891,0,0,1-1.345,5.355,6.578,6.578,0,0,0-.318-4.891c-.685-1.051-1.883-1.614-2.739-2.445s-1.174-2.445-2.274-3.595c-2.445-2.445-6.9,1.81-11.346-3.423" transform="translate(27.519 22.401)" fill="#263238"/>
    <path id="Trazado_211775" data-name="Trazado 211775" d="M42.028,37.29a15.577,15.577,0,0,0-2.445-4.45A8.656,8.656,0,0,0,28.09,31.372h-.44A7.336,7.336,0,0,0,33.4,34.135a7.336,7.336,0,0,1,3.815.342c1.076.636,1.467,1.981,2.445,2.861s1.418.978,1.981,1.589a6.7,6.7,0,0,1,1.247,2.445,6.309,6.309,0,0,0-.856-4.084Z" transform="translate(28.401 24.323)" fill="#263238"/>
    <path id="Trazado_211776" data-name="Trazado 211776" d="M36.305,32.739l-3.521-3.106c-2.763-.147-4.524,2.445-5.478,4.475a38.979,38.979,0,0,0-1.443,4.719c-.538,1.614-1.418,3.081-1.907,4.719a5.7,5.7,0,0,0,.416,4.891l.611-1.149a6.7,6.7,0,0,0,1.858,4.23l.2-1.174A6.7,6.7,0,0,0,29.7,53.206l1.663,4.426C33.836,50.1,27.527,49.612,36.305,32.739Z" transform="translate(22.533 24.032)" fill="#263238"/>
    <path id="Trazado_211777" data-name="Trazado 211777" d="M34.752,33.3a13.425,13.425,0,0,1-.831,2.934,5.649,5.649,0,0,1-1.81,2.445A11.248,11.248,0,0,1,27.9,40.071a4.891,4.891,0,0,0-3.595,2.445A32.621,32.621,0,0,1,25.533,36.6a10.808,10.808,0,0,1,3.375-5.649,6.089,6.089,0,0,1,5.8-.88" transform="translate(23.573 24.134)" fill="#263238"/>
    <path id="Trazado_211778" data-name="Trazado 211778" d="M29.108,35.367a2.25,2.25,0,0,0-3.448,2.274,2.616,2.616,0,0,0,3.57,2.616Z" transform="translate(25.475 31.797)" fill="#ae7461"/>
    <path id="Trazado_211779" data-name="Trazado 211779" d="M27.651,38.271H27.48a.538.538,0,0,1-.44,0,1.443,1.443,0,0,1-.734-1.32,2.03,2.03,0,0,1,.147-.88.709.709,0,0,1,.465-.489.293.293,0,0,1,.342.171.416.416,0,0,1,0,.171s0,0,0-.22a.342.342,0,0,0-.147-.2.489.489,0,0,0-.342,0,.88.88,0,0,0-.611.562,1.81,1.81,0,0,0-.2.978,1.541,1.541,0,0,0,.929,1.492.611.611,0,0,0,.538,0Z" transform="translate(25.954 32.487)" fill="#6f4439"/>
    <path id="Trazado_211780" data-name="Trazado 211780" d="M26.96,36.884a.709.709,0,0,0-.783.514.7.7,0,1,0,.954-.465" transform="translate(26.254 34.51)" fill="#fff"/>
    <path id="Trazado_211781" data-name="Trazado 211781" d="M27.171,36.929a.66.66,0,0,1,.318.44.562.562,0,0,1-.122.562.6.6,0,0,1-1.076-.318.538.538,0,0,1,.2-.514A.88.88,0,0,1,27,36.88h-.147a.709.709,0,0,0-.44.171.66.66,0,0,0-.269.636.782.782,0,0,0,.538.66.807.807,0,0,0,.807-.269.709.709,0,0,0-.171-1.051Z" transform="translate(26.214 34.514)" fill="#263238"/>
    <path id="Trazado_211782" data-name="Trazado 211782" d="M30.718,33.587a12.226,12.226,0,0,0-1.369-2.274A11.322,11.322,0,0,0,27.27,29.65a2.1,2.1,0,0,1,.758.318,5.893,5.893,0,0,1,1.492,1.2,6.284,6.284,0,0,1,1,1.638,2.225,2.225,0,0,1,.2.783Z" transform="translate(27.851 24.065)" fill="#455a64"/>
    <path id="Trazado_211783" data-name="Trazado 211783" d="M76.33,35.74v.44c0,.293.147.685.22,1.223a26.9,26.9,0,0,1,.489,4.622,31.08,31.08,0,0,1-.685,6.822,31.789,31.789,0,0,1-1.125,3.913,28.511,28.511,0,0,1-1.785,3.986A27.561,27.561,0,0,1,71,60.364a36.018,36.018,0,0,1-2.812,2.91,27.681,27.681,0,0,1-5.6,3.961A21.42,21.42,0,0,1,58.308,69a8.288,8.288,0,0,1-1.223.318H56.67l.416-.147,1.2-.342a26.166,26.166,0,0,0,4.23-1.834,29.612,29.612,0,0,0,5.5-3.717,29.342,29.342,0,0,0,2.763-2.959,26.9,26.9,0,0,0,2.445-3.57A30.126,30.126,0,0,0,76.11,48.92a32.645,32.645,0,0,0,.465-11.371A9.016,9.016,0,0,0,76.4,36.3C76.379,36.009,76.306,35.764,76.33,35.74Z" transform="translate(70.344 32.867)" fill="#263238"/>
    <path id="Trazado_211784" data-name="Trazado 211784" d="M100.52,43.056a31.471,31.471,0,1,0-.222,31.3,31.447,31.447,0,0,0,.222-31.3ZM80.762,31.05A28.268,28.268,0,0,1,97.879,44.5,28.465,28.465,0,1,1,73.084,30a29.344,29.344,0,0,1,7.678,1.051Z" transform="translate(48.721 20.317)" fill="#263238"/>
    <path id="Trazado_211785" data-name="Trazado 211785" d="M46.059,58.612l-.122-.245-.318-.685c-.122-.293-.293-.66-.44-1.1a13.887,13.887,0,0,1-.489-1.516l-.269-.929a1.8,1.8,0,0,0-.2-.978,11.3,11.3,0,0,1-.367-2.176,26.019,26.019,0,0,1,.88-10.026c.245-.734.465-1.443.734-2.079s.245-.636.391-.929l.391-.831a14.325,14.325,0,0,1,.758-1.394,8.072,8.072,0,0,1,.636-1l.416-.636.171-.2a1.076,1.076,0,0,1-.122.22l-.391.66a8.977,8.977,0,0,0-.587,1.027,14.674,14.674,0,0,0-.709,1.394l-.391.831-.367.929a20.711,20.711,0,0,0-.685,2.079,28.759,28.759,0,0,0-.929,4.891,28.341,28.341,0,0,0,0,4.891,9.915,9.915,0,0,0,.318,2.152c.147.66,0,.66.2.978l.245.88a5.5,5.5,0,0,0,.44,1.516,8.839,8.839,0,0,0,.416,1.1l.269.709C46.059,58.465,46.083,58.612,46.059,58.612Z" transform="translate(51.611 30.193)" fill="#263238"/>
    <path id="Trazado_211786" data-name="Trazado 211786" d="M47.455,47.1a2.824,2.824,0,0,1-1.027-.587,1.908,1.908,0,0,1-.685-.978c.049-.049.391.367.856.783a9.1,9.1,0,0,1,.856.783Z" transform="translate(54.543 47.014)" fill="#263238"/>
    <path id="Trazado_211787" data-name="Trazado 211787" d="M44.6,44.094A31.009,31.009,0,1,1,87.935,84.2h0A31.007,31.007,0,0,1,44.6,44.094ZM98.939,69.379A28.879,28.879,0,1,0,86.933,82.388,28.879,28.879,0,0,0,98.939,69.379Z" transform="translate(48.713 19.035)" fill="#455a64"/>
    <path id="Trazado_211788" data-name="Trazado 211788" d="M73.029,88.974A31.789,31.789,0,0,1,64.52,87.8,31.251,31.251,0,0,1,45.544,72.933,31.474,31.474,0,1,1,73.029,88.974Zm0-62.062a30.578,30.578,0,1,0,26.507,15.6,30.249,30.249,0,0,0-18.389-14.4,30.615,30.615,0,0,0-8.216-1.2Zm0,59.984a29.446,29.446,0,1,1,26.63-17.019h0a29.344,29.344,0,0,1-26.63,17.117Zm0-57.905a28.464,28.464,0,1,0,25.725,40.47h0A28.464,28.464,0,0,0,72.932,28.99Z" transform="translate(48.433 18.758)" fill="#455a64"/>
    <path id="Trazado_211789" data-name="Trazado 211789" d="M19.558,88.482,19,87.6a4.891,4.891,0,0,1,1.467-5.722L78.979,44.955c.293-.2.758,0,1.027.416l3.913,6.211c.269.416.245.929,0,1.1L25.745,89.362C24.449,90.242,20.683,90.389,19.558,88.482Z" transform="translate(15.341 46.075)" fill="#455a64"/>
    <path id="Trazado_211790" data-name="Trazado 211790" d="M41.27,58.218l1.785-1.883A14.941,14.941,0,0,1,43.569,51l.391-.611s-.391-2.079.734-2.445c.318-.783.734-1.1,1.272-.685,0,0-.318-1.565,1.149-1.761S49,51.909,49,51.909s.734,2.983-.929,2.983a3.766,3.766,0,0,1-1.981,1.149S45.769,57.827,44.3,57.7Z" transform="translate(48.086 46.97)" fill="#ae7461"/>
    <path id="Trazado_211791" data-name="Trazado 211791" d="M46.026,49.45l.147.2a1.125,1.125,0,0,1,0,.734,1.638,1.638,0,0,1-.562.954,2.91,2.91,0,0,1-1.149.636,8.069,8.069,0,0,1-2.323.465,3.057,3.057,0,0,1-.978,0,15.919,15.919,0,0,0,3.228-.636,3.594,3.594,0,0,0,1.1-.562A1.614,1.614,0,0,0,46,50.4,1.565,1.565,0,0,0,46.026,49.45Z" transform="translate(47.927 52.682)" fill="#6f4439"/>
    <path id="Trazado_211792" data-name="Trazado 211792" d="M44.365,51.905a13.08,13.08,0,0,0-.416-2.934c-.416-1.614-.807-2.837-.734-2.861a3.154,3.154,0,0,1,.391.782,13.594,13.594,0,0,1,.587,2.054,12.227,12.227,0,0,1,.22,2.079A3.619,3.619,0,0,1,44.365,51.905Z" transform="translate(50.884 47.855)" fill="#6f4439"/>
    <path id="Trazado_211793" data-name="Trazado 211793" d="M43.874,52.148s-.2-1.3-.538-2.861-.734-2.812-.66-2.837a10.857,10.857,0,0,1,.807,2.788A9.341,9.341,0,0,1,43.874,52.148Z" transform="translate(50.104 48.346)" fill="#6f4439"/>
    <path id="Trazado_211794" data-name="Trazado 211794" d="M44.381,48.76a1.108,1.108,0,0,1,.122.9c-.147.538-.538.758-.562.685s.22-.318.342-.758S44.308,48.784,44.381,48.76Z" transform="translate(51.944 51.685)" fill="#6f4439"/>
    <path id="Trazado_211795" data-name="Trazado 211795" d="M42.552,50.8a7.068,7.068,0,0,1-.147-1.614,12.987,12.987,0,0,1,0-1.638,4.206,4.206,0,0,1,.318,1.614A4.891,4.891,0,0,1,42.552,50.8Z" transform="translate(49.689 49.936)" fill="#6f4439"/>
    <path id="Trazado_211796" data-name="Trazado 211796" d="M28.807,57.329a5.453,5.453,0,0,1,1.736-1.565c1.149-.685,3.5-.954,3.937-1.736s1.149,0,.758,1.027a10.906,10.906,0,0,1-1.932,2.127,4.353,4.353,0,0,0,2.714.269c1.174-.416,5.111-.831,5.429-.245s-.685.709-1.149.856l-3.057.9a47.2,47.2,0,0,1,5.551,1.076c.636.391-.171.856-.489.807a8.975,8.975,0,0,0-1.883,1.027,2.445,2.445,0,0,1-1.614.342l-1.149-.2,3.423,1s.514.66-.391.783c-.391,0-11.248-.342-12.08-.465-1.443-.171-3.741-.22-3.741-.22l1.785-6.48Z" transform="translate(24.383 58.839)" fill="#ae7461"/>
    <path id="Trazado_211797" data-name="Trazado 211797" d="M34.891,56.694a8.412,8.412,0,0,1-2.445.269A7.9,7.9,0,0,1,30,56.669h2.445A19.083,19.083,0,0,1,34.891,56.694Z" transform="translate(31.797 63.093)" fill="#6f4439"/>
    <path id="Trazado_211798" data-name="Trazado 211798" d="M30.981,67.758l4.891-10.246-4.4-13.3a8.852,8.852,0,0,0-3.3,2.861,36.167,36.167,0,0,0-3.252,6.651s-5.4,12.4-6.162,14.256-2.445,5.257,0,7.189,17.924,1.981,17.924,1.981l1.638-6.9Z" transform="translate(13.699 45.108)" fill="#f67409"/>
    <path id="Trazado_211799" data-name="Trazado 211799" d="M23.211,47.05S24.458,50.5,25.827,54.8s2.445,7.8,2.445,7.825-1.247-3.448-2.592-7.752S23.162,47.074,23.211,47.05Z" transform="translate(21.982 49.213)" fill="#263238"/>
    <path id="Trazado_211800" data-name="Trazado 211800" d="M34.585,56.594h-.562l-1.565-.44c-1.3-.367-3.081-.9-5.086-1.443a20.418,20.418,0,0,0-5.184-.856,6.456,6.456,0,0,0-2.127.416A2.079,2.079,0,0,1,20.574,54a5.355,5.355,0,0,1,1.589-.342,19.269,19.269,0,0,1,5.257.807c2.03.538,3.815,1.1,5.111,1.516l1.516.514A1.331,1.331,0,0,1,34.585,56.594Z" transform="translate(17.431 58.767)" fill="#263238"/>
    <g id="Grupo_145849" data-name="Grupo 145849" transform="translate(46.313 99.662)" opacity="0.3">
      <path id="Trazado_211801" data-name="Trazado 211801" d="M23.7,48.44a51.645,51.645,0,0,0,.44,8.705l1.394-2.812a41.2,41.2,0,0,0-1.761-5.673" transform="translate(-23.668 -48.44)"/>
    </g>
    <rect id="Rectángulo_43713" data-name="Rectángulo 43713" width="6.456" height="23.279" transform="translate(127.014 65.99)" fill="#f67409"/>
    <rect id="Rectángulo_43714" data-name="Rectángulo 43714" width="6.456" height="10.564" transform="translate(106.767 79.684)" fill="#f67409"/>
    <rect id="Rectángulo_43715" data-name="Rectángulo 43715" width="6.456" height="16.31" transform="translate(116.743 73.937)" fill="#f67409"/>
    <path id="Trazado_211802" data-name="Trazado 211802" d="M73.332,31.53l-.147.2-.489.562-1.81,2.1-6.333,7.14h0l-3.961-2.592h.171l-.147.171-8.387,9.781h0l-3.154-2.445-.856-.66-.269-.22.318.2.88.611,3.179,2.274h0l8.339-9.781.147-.171h0l3.961,2.592H64.6L71.009,34.2l1.883-2.03.489-.538Z" transform="translate(57.741 26.782)" fill="#263238"/>
    <path id="Trazado_211803" data-name="Trazado 211803" d="M61.455,36.633a6.871,6.871,0,0,1,0-1.492c0-.929,0-2.2,0-3.595l.147.122H61.48l-3.644.562a7.531,7.531,0,0,1-1.516.147,13.035,13.035,0,0,1,1.492-.342l3.619-.636h.293v3.766a12.76,12.76,0,0,1-.269,1.467Z" transform="translate(69.838 26.594)" fill="#263238"/>
  </g>
</svg>
