<svg xmlns="http://www.w3.org/2000/svg" width="70.15" height="70" viewBox="0 0 70.15 70">
  <g id="Grupo_145589" data-name="Grupo 145589" transform="translate(-278.941 73.256)">
    <path id="Trazado_191531" data-name="Trazado 191531" d="M390.208-46.048l-2.43,6.446c-.016.044-.026.09-.042.134-.539,1.429-1.323,1.607-2.393.54q-1.875-1.87-3.747-3.743c-.165-.164-.337-.321-.548-.52-.835,1.385-1.655,2.723-2.452,4.074-.308.522-.668.943-1.332.832s-.887-.593-1-1.2c-.233-1.27-.558-2.525-.751-3.8a2,2,0,0,0-1.147-1.7,9,9,0,0,1-.988-.635c-.783,1.673-1.548,3.31-2.315,4.945-.622,1.327-1.342,1.5-2.362.466-5.475-5.528-7.369-12.109-5.065-19.535,2.293-7.389,7.507-11.924,15.161-13.224A18.955,18.955,0,0,1,400.815-57.8a18.582,18.582,0,0,1-4.9,16.93,1.148,1.148,0,0,1-2.007-.121C392.689-42.63,391.493-44.287,390.208-46.048Zm2-1.129a12.3,12.3,0,0,0-2.017-16.26,12.455,12.455,0,0,0-17.236.751c-4.646,4.867-4.054,11.818-1.319,15.306.813-1.281,1.174-1.351,2.473-.485.842.561,1.721,1.076,2.511,1.7a2.728,2.728,0,0,1,.823,1.214,20.733,20.733,0,0,1,.519,2.3c1.114-1.166,1.314-2.888,2.788-3.626-2.5-1.448-3.441-2.708-3.232-4.379h2.149c.02.108.031.178.047.246a2.294,2.294,0,0,0,2.52,1.956,2.279,2.279,0,0,0,1.984-2.361,2.285,2.285,0,0,0-2.361-2.142,4.525,4.525,0,0,1-4.376-3.874,4.469,4.469,0,0,1,2.862-4.825.662.662,0,0,0,.492-.775c-.021-.6-.006-1.2-.006-1.776H383.1c0,.6.031,1.162-.01,1.719a.736.736,0,0,0,.573.866,4.286,4.286,0,0,1,2.772,4.119h-2.158c-.058-.23-.1-.438-.163-.638a2.242,2.242,0,0,0-2.251-1.585,2.28,2.28,0,0,0-2.106,1.784,2.282,2.282,0,0,0,2.358,2.732,4.5,4.5,0,0,1,4.311,3.776A4.447,4.447,0,0,1,383.8-46.6c-.488.206-.827.382-.709.986.092.468-.033,1.083.226,1.393.809.969,1.755,1.825,2.712,2.79.133-.332.231-.567.32-.8.8-2.132,1.576-4.275,2.429-6.386a1.534,1.534,0,0,1,.96-.867,1.669,1.669,0,0,1,1.162.572A16.659,16.659,0,0,1,392.211-47.178Zm-22.717,4.516c.276-.589.5-1.134.781-1.643a.847.847,0,0,0-.087-1.065,14.361,14.361,0,0,1-2.66-11.468A14.694,14.694,0,0,1,379.486-68.6a14.627,14.627,0,0,1,15.3,7.312c2.85,5.324,2.526,10.558-.786,15.612-.123.188-.27.521-.189.656.355.589.79,1.129,1.209,1.7a16.867,16.867,0,0,0-1.442-23.121,16.944,16.944,0,0,0-23.761.558A16.845,16.845,0,0,0,369.494-42.662Z" transform="translate(-67.948)" fill="#30610c"/>
    <path id="Trazado_191532" data-name="Trazado 191532" d="M589.163,86.542c.776,0,1.456,0,2.137,0a1.136,1.136,0,0,1,1.172.732,1.111,1.111,0,0,1-.329,1.279c-1.831,1.831-3.657,3.667-5.5,5.484a1.1,1.1,0,0,1-1.742,0c-1.844-1.818-3.67-3.653-5.5-5.483a1.115,1.115,0,0,1-.336-1.278,1.134,1.134,0,0,1,1.169-.737c.681,0,1.362,0,2.144,0v-.779q0-3.951,0-7.9c0-1.109.373-1.48,1.481-1.483q1.944-.005,3.887,0c1.017,0,1.416.4,1.418,1.405q.008,3.951,0,7.9Zm-6.1,2.278,2.681,2.668,2.65-2.654c-1.278-.132-1.492-.372-1.492-1.795q0-3.806,0-7.613v-.736h-2.263c0,2.943,0,5.831,0,8.72,0,.923-.367,1.326-1.221,1.389C583.283,88.809,583.152,88.815,583.06,88.82Z" transform="translate(-243.467 -121.419)" fill="#30610c"/>
    <path id="Trazado_191533" data-name="Trazado 191533" d="M282.337,146.445v-7.977c0-2.074.114-2.188,2.19-2.188,1.06,0,2.12,0,3.181,0,1.016.005,1.414.4,1.416,1.407q.008,3.951,0,7.9v.855c.719,0,1.394.009,2.067,0a1.158,1.158,0,0,1,.863,2.067c-1.8,1.795-3.593,3.6-5.4,5.384a1.137,1.137,0,0,1-1.845,0c-1.808-1.787-3.6-3.589-5.4-5.383a1.157,1.157,0,0,1,.858-2.068C280.922,146.455,281.58,146.445,282.337,146.445Zm6.134,2.3c-1.39-.125-1.608-.369-1.608-1.807q0-3.806,0-7.613V138.6H284.6c0,2.946,0,5.835,0,8.725,0,.943-.372,1.325-1.3,1.383-.106.007-.212.018-.272.022l2.749,2.719Z" transform="translate(0 -170.029)" fill="#30610c"/>
    <path id="Trazado_191534" data-name="Trazado 191534" d="M415.081,193.067a1.122,1.122,0,0,1-1.375,1.18q-4.007-1.1-7.99-2.283a1.067,1.067,0,0,1-.554-1.755q2.232-2.862,4.54-5.663a1.065,1.065,0,0,1,1.859.232c1.181,2.657,2.309,5.337,3.453,8.01A1.327,1.327,0,0,1,415.081,193.067Zm-3.109-1.66-1.709-3.974-2.275,2.843Z" transform="translate(-102.202 -208.834)" fill="#30610c"/>
    <path id="Trazado_191535" data-name="Trazado 191535" d="M415.525,124.311a4.517,4.517,0,1,1-4.555,4.5A4.528,4.528,0,0,1,415.525,124.311Zm-.136,6.771a2.257,2.257,0,1,0-2.153-2.341A2.275,2.275,0,0,0,415.389,131.082Z" transform="translate(-107.136 -160.317)" fill="#30610c"/>
    <path id="Trazado_191536" data-name="Trazado 191536" d="M504.03,194.759a4.524,4.524,0,1,1-4.5-4.557A4.531,4.531,0,0,1,504.03,194.759Zm-2.264-.011a2.26,2.26,0,1,0-2.271,2.226A2.266,2.266,0,0,0,501.765,194.748Z" transform="translate(-175.307 -213.785)" fill="#30610c"/>
    <path id="Trazado_191537" data-name="Trazado 191537" d="M457.489,259.135a4.517,4.517,0,1,1,4.535-4.453A4.529,4.529,0,0,1,457.489,259.135Zm.042-2.261a2.255,2.255,0,1,0-2.29-2.208A2.275,2.275,0,0,0,457.531,256.874Z" transform="translate(-141.221 -262.391)" fill="#30610c"/>
    <path id="Trazado_191538" data-name="Trazado 191538" d="M484.728,138.117c-2.294-.38-4.591-.737-6.878-1.155a1.089,1.089,0,0,1-.584-1.863q2.224-2.309,4.536-4.533a1.084,1.084,0,0,1,1.845.4q1.167,2.788,2.243,5.614A1.111,1.111,0,0,1,484.728,138.117Zm-4.272-3.005,2.606.431-.861-2.1Z" transform="translate(-160.661 -165.099)" fill="#30610c"/>
    <path id="Trazado_191539" data-name="Trazado 191539" d="M603.98,30.924h-6.688v-2.2h6.688Z" transform="translate(-258.328 -82.754)" fill="#30610c"/>
    <path id="Trazado_191540" data-name="Trazado 191540" d="M597.159,54.8V52.625h6.7V54.8Z" transform="translate(-258.22 -102.147)" fill="#30610c"/>
    <path id="Trazado_191541" data-name="Trazado 191541" d="M303.915,90.816h-6.674v-2.2h6.674Z" transform="translate(-14.849 -131.354)" fill="#30610c"/>
    <path id="Trazado_191542" data-name="Trazado 191542" d="M297.12,114.695v-2.173h6.7v2.173Z" transform="translate(-14.751 -150.751)" fill="#30610c"/>
    <path id="Trazado_191543" data-name="Trazado 191543" d="M537.234,124.487h2.181v2.171h-2.181Z" transform="translate(-209.593 -160.46)" fill="#30610c"/>
    <path id="Trazado_191544" data-name="Trazado 191544" d="M381.1,138.673v-2.162h2.2v2.162Z" transform="translate(-82.9 -170.217)" fill="#30610c"/>
    <path id="Trazado_191545" data-name="Trazado 191545" d="M465.286,184.287h2.15v2.2h-2.15Z" transform="translate(-151.211 -208.985)" fill="#30610c"/>
    <path id="Trazado_191546" data-name="Trazado 191546" d="M407.4,252.545h-2.15v-2.2h2.15Z" transform="translate(-102.493 -262.591)" fill="#30610c"/>
    <path id="Trazado_191547" data-name="Trazado 191547" d="M527.416,270.515h-2.15v-2.2h2.15Z" transform="translate(-199.882 -277.173)" fill="#30610c"/>
  </g>
</svg>
