<svg xmlns="http://www.w3.org/2000/svg" width="227.024" height="208.896" viewBox="0 0 227.024 208.896">
  <g id="Grupo_146149" data-name="Grupo 146149" transform="translate(-331.681 -882.861)">
    <g id="ILUSTRACIONES-14" transform="translate(331.681 882.861)">
      <rect id="Rectángulo_43934" data-name="Rectángulo 43934" width="103.699" height="85.365" transform="translate(15.145 11.701)" fill="#263238"/>
      <rect id="Rectángulo_43935" data-name="Rectángulo 43935" width="113.354" height="28.124" transform="translate(0 34.456)" fill="#455a64"/>
      <rect id="Rectángulo_43936" data-name="Rectángulo 43936" width="22.319" height="3.429" transform="translate(5.038 40.246)" fill="#263238"/>
      <rect id="Rectángulo_43937" data-name="Rectángulo 43937" width="22.319" height="3.429" transform="translate(5.038 46.157)" fill="#263238"/>
      <rect id="Rectángulo_43938" data-name="Rectángulo 43938" width="22.319" height="3.429" transform="translate(5.038 52.263)" fill="#263238"/>
      <path id="Trazado_214564" data-name="Trazado 214564" d="M32.417,47.568a1.278,1.278,0,1,1-1.278-1.278A1.278,1.278,0,0,1,32.417,47.568Z" transform="translate(3.769 -5.247)" fill="#263238"/>
      <path id="Trazado_214565" data-name="Trazado 214565" d="M36.167,47.568a1.278,1.278,0,1,1-1.278-1.278,1.278,1.278,0,0,1,1.278,1.278Z" transform="translate(5.659 -5.247)" fill="#263238"/>
      <path id="Trazado_214566" data-name="Trazado 214566" d="M39.927,47.568a1.278,1.278,0,1,1-1.278-1.278A1.278,1.278,0,0,1,39.927,47.568Z" transform="translate(7.554 -5.247)" fill="#263238"/>
      <path id="Trazado_214567" data-name="Trazado 214567" d="M43.677,47.563A1.263,1.263,0,1,1,42.428,46.3a1.278,1.278,0,0,1,1.248,1.263Z" transform="translate(9.459 -5.242)" fill="#263238"/>
      <path id="Trazado_214568" data-name="Trazado 214568" d="M72.8,47.568a1.278,1.278,0,1,1-1.278-1.278A1.278,1.278,0,0,1,72.8,47.568Z" transform="translate(24.119 -5.247)" fill="#263238"/>
      <path id="Trazado_214569" data-name="Trazado 214569" d="M76.627,47.568a1.278,1.278,0,1,1-1.278-1.278,1.278,1.278,0,0,1,1.278,1.278Z" transform="translate(26.049 -5.247)" fill="#263238"/>
      <path id="Trazado_214570" data-name="Trazado 214570" d="M47.437,47.568a1.278,1.278,0,1,1-1.278-1.278,1.278,1.278,0,0,1,1.278,1.278Z" transform="translate(11.338 -5.247)" fill="#263238"/>
      <path id="Trazado_214571" data-name="Trazado 214571" d="M65.857,47.568a1.278,1.278,0,1,1-1.278-1.278,1.278,1.278,0,0,1,1.278,1.278Z" transform="translate(20.622 -5.247)" fill="#263238"/>
      <path id="Trazado_214572" data-name="Trazado 214572" d="M51.2,47.568a1.278,1.278,0,1,1-1.278-1.278A1.278,1.278,0,0,1,51.2,47.568Z" transform="translate(13.233 -5.247)" fill="#f5f5f5"/>
      <path id="Trazado_214573" data-name="Trazado 214573" d="M54.957,47.568a1.278,1.278,0,1,1-1.278-1.278A1.278,1.278,0,0,1,54.957,47.568Z" transform="translate(15.128 -5.247)" fill="#f5f5f5"/>
      <path id="Trazado_214574" data-name="Trazado 214574" d="M62.577,47.568A1.278,1.278,0,1,1,61.3,46.29a1.278,1.278,0,0,1,1.278,1.278Z" transform="translate(18.969 -5.247)" fill="#f5f5f5"/>
      <path id="Trazado_214575" data-name="Trazado 214575" d="M79.747,47.568a1.278,1.278,0,1,1-1.278-1.278A1.278,1.278,0,0,1,79.747,47.568Z" transform="translate(27.622 -5.247)" fill="#f5f5f5"/>
      <path id="Trazado_214576" data-name="Trazado 214576" d="M58.707,47.568a1.278,1.278,0,1,1-1.278-1.278A1.278,1.278,0,0,1,58.707,47.568Z" transform="translate(17.018 -5.247)" fill="#e8505b"/>
      <path id="Trazado_214577" data-name="Trazado 214577" d="M69.467,47.568a1.278,1.278,0,1,1-1.278-1.278A1.278,1.278,0,0,1,69.467,47.568Z" transform="translate(22.441 -5.247)" fill="#e8505b"/>
      <path id="Trazado_214578" data-name="Trazado 214578" d="M77.19,51.678a1.278,1.278,0,1,1,1.278,1.278,1.278,1.278,0,0,1-1.278-1.278Z" transform="translate(27.622 -3.175)" fill="#263238"/>
      <ellipse id="Elipse_7046" data-name="Elipse 7046" cx="1.278" cy="1.278" rx="1.278" ry="1.278" transform="translate(99.157 47.225)" fill="#263238"/>
      <path id="Trazado_214579" data-name="Trazado 214579" d="M69.67,51.678a1.278,1.278,0,1,1,1.278,1.278,1.278,1.278,0,0,1-1.278-1.278Z" transform="translate(23.832 -3.175)" fill="#263238"/>
      <ellipse id="Elipse_7047" data-name="Elipse 7047" cx="1.278" cy="1.278" rx="1.278" ry="1.278" transform="translate(87.862 47.225)" fill="#263238"/>
      <ellipse id="Elipse_7048" data-name="Elipse 7048" cx="1.278" cy="1.278" rx="1.278" ry="1.278" transform="translate(44.066 47.225)" fill="#263238"/>
      <path id="Trazado_214580" data-name="Trazado 214580" d="M33,51.678a1.278,1.278,0,1,1,1.278,1.278A1.278,1.278,0,0,1,33,51.678Z" transform="translate(5.351 -3.175)" fill="#263238"/>
      <path id="Trazado_214581" data-name="Trazado 214581" d="M62.16,51.678a1.278,1.278,0,1,1,1.278,1.278,1.278,1.278,0,0,1-1.278-1.278Z" transform="translate(20.047 -3.175)" fill="#263238"/>
      <path id="Trazado_214582" data-name="Trazado 214582" d="M43.71,51.678a1.278,1.278,0,1,1,1.278,1.278,1.278,1.278,0,0,1-1.278-1.278Z" transform="translate(10.749 -3.175)" fill="#263238"/>
      <path id="Trazado_214583" data-name="Trazado 214583" d="M58.4,51.678a1.278,1.278,0,1,1,1.278,1.278A1.278,1.278,0,0,1,58.4,51.678Z" transform="translate(18.152 -3.175)" fill="#f5f5f5"/>
      <path id="Trazado_214584" data-name="Trazado 214584" d="M54.643,51.73a1.293,1.293,0,1,1,2.572,0,1.278,1.278,0,0,1-1.278,1.278,1.293,1.293,0,0,1-1.293-1.278Z" transform="translate(16.255 -3.227)" fill="#f5f5f5"/>
      <path id="Trazado_214585" data-name="Trazado 214585" d="M47,51.678a1.278,1.278,0,1,1,1.278,1.278A1.278,1.278,0,0,1,47,51.678Z" transform="translate(12.407 -3.175)" fill="#f5f5f5"/>
      <ellipse id="Elipse_7049" data-name="Elipse 7049" cx="1.278" cy="1.278" rx="1.278" ry="1.278" transform="translate(33.629 47.225)" fill="#f5f5f5"/>
      <path id="Trazado_214586" data-name="Trazado 214586" d="M50.89,51.678a1.278,1.278,0,1,1,1.278,1.278,1.278,1.278,0,0,1-1.278-1.278Z" transform="translate(14.367 -3.175)" fill="#e8505b"/>
      <ellipse id="Elipse_7050" data-name="Elipse 7050" cx="1.278" cy="1.278" rx="1.278" ry="1.278" transform="translate(49.075 47.225)" fill="#e8505b"/>
      <ellipse id="Elipse_7051" data-name="Elipse 7051" cx="1.278" cy="1.278" rx="1.278" ry="1.278" transform="translate(33.629 52.699)" fill="#263238"/>
      <path id="Trazado_214587" data-name="Trazado 214587" d="M36.167,55.318a1.278,1.278,0,1,1-1.278-1.278,1.278,1.278,0,0,1,1.278,1.278Z" transform="translate(5.659 -1.341)" fill="#263238"/>
      <ellipse id="Elipse_7052" data-name="Elipse 7052" cx="1.278" cy="1.278" rx="1.278" ry="1.278" transform="translate(44.924 52.699)" fill="#263238"/>
      <path id="Trazado_214588" data-name="Trazado 214588" d="M43.7,55.339A1.293,1.293,0,1,1,42.448,54,1.278,1.278,0,0,1,43.7,55.339Z" transform="translate(9.439 -1.361)" fill="#263238"/>
      <path id="Trazado_214589" data-name="Trazado 214589" d="M72.8,55.318a1.278,1.278,0,1,1-1.278-1.278A1.278,1.278,0,0,1,72.8,55.318Z" transform="translate(24.119 -1.341)" fill="#263238"/>
      <ellipse id="Elipse_7053" data-name="Elipse 7053" cx="1.278" cy="1.278" rx="1.278" ry="1.278" transform="translate(100.119 52.699)" fill="#263238"/>
      <ellipse id="Elipse_7054" data-name="Elipse 7054" cx="1.278" cy="1.278" rx="1.278" ry="1.278" transform="translate(56.218 52.699)" fill="#263238"/>
      <ellipse id="Elipse_7055" data-name="Elipse 7055" cx="1.278" cy="1.278" rx="1.278" ry="1.278" transform="translate(83.967 52.699)" fill="#263238"/>
      <path id="Trazado_214590" data-name="Trazado 214590" d="M51.2,55.318a1.278,1.278,0,1,1-1.278-1.278A1.278,1.278,0,0,1,51.2,55.318Z" transform="translate(13.233 -1.341)" fill="#f5f5f5"/>
      <path id="Trazado_214591" data-name="Trazado 214591" d="M54.957,55.318a1.278,1.278,0,1,1-1.278-1.278A1.278,1.278,0,0,1,54.957,55.318Z" transform="translate(15.128 -1.341)" fill="#f5f5f5"/>
      <ellipse id="Elipse_7056" data-name="Elipse 7056" cx="1.278" cy="1.278" rx="1.278" ry="1.278" transform="translate(78.989 52.699)" fill="#f5f5f5"/>
      <path id="Trazado_214592" data-name="Trazado 214592" d="M79.746,55.339a1.278,1.278,0,1,1-.373-.966,1.278,1.278,0,0,1,.373.966Z" transform="translate(27.622 -1.361)" fill="#f5f5f5"/>
      <ellipse id="Elipse_7057" data-name="Elipse 7057" cx="1.278" cy="1.278" rx="1.278" ry="1.278" transform="translate(73.168 52.699)" fill="#e8505b"/>
      <path id="Trazado_214593" data-name="Trazado 214593" d="M69.467,55.318a1.278,1.278,0,1,1-1.278-1.278A1.278,1.278,0,0,1,69.467,55.318Z" transform="translate(22.441 -1.341)" fill="#e8505b"/>
      <rect id="Rectángulo_43939" data-name="Rectángulo 43939" width="113.354" height="28.124" transform="translate(0 69.168)" fill="#455a64"/>
      <ellipse id="Elipse_7058" data-name="Elipse 7058" cx="1.278" cy="1.278" rx="1.278" ry="1.278" transform="translate(33.343 75.469)" fill="#263238"/>
      <path id="Trazado_214594" data-name="Trazado 214594" d="M35.987,70.428a1.278,1.278,0,1,1-1.278-1.278,1.278,1.278,0,0,1,1.278,1.278Z" transform="translate(5.568 6.274)" fill="#263238"/>
      <ellipse id="Elipse_7059" data-name="Elipse 7059" cx="1.278" cy="1.278" rx="1.278" ry="1.278" transform="translate(44.638 75.469)" fill="#263238"/>
      <path id="Trazado_214595" data-name="Trazado 214595" d="M43.5,70.428a1.278,1.278,0,1,1-1.278-1.278A1.278,1.278,0,0,1,43.5,70.428Z" transform="translate(9.353 6.274)" fill="#263238"/>
      <path id="Trazado_214596" data-name="Trazado 214596" d="M72.607,70.428a1.278,1.278,0,1,1-1.278-1.278,1.278,1.278,0,0,1,1.278,1.278Z" transform="translate(24.023 6.274)" fill="#263238"/>
      <ellipse id="Elipse_7060" data-name="Elipse 7060" cx="1.278" cy="1.278" rx="1.278" ry="1.278" transform="translate(99.834 75.469)" fill="#263238"/>
      <ellipse id="Elipse_7061" data-name="Elipse 7061" cx="1.278" cy="1.278" rx="1.278" ry="1.278" transform="translate(55.948 75.469)" fill="#263238"/>
      <ellipse id="Elipse_7062" data-name="Elipse 7062" cx="1.278" cy="1.278" rx="1.278" ry="1.278" transform="translate(83.696 75.469)" fill="#263238"/>
      <path id="Trazado_214597" data-name="Trazado 214597" d="M51.007,70.428a1.278,1.278,0,1,1-1.278-1.278A1.278,1.278,0,0,1,51.007,70.428Z" transform="translate(13.138 6.274)" fill="#f5f5f5"/>
      <ellipse id="Elipse_7063" data-name="Elipse 7063" cx="1.278" cy="1.278" rx="1.278" ry="1.278" transform="translate(67.243 75.469)" fill="#f5f5f5"/>
      <ellipse id="Elipse_7064" data-name="Elipse 7064" cx="1.278" cy="1.278" rx="1.278" ry="1.278" transform="translate(78.703 75.469)" fill="#f5f5f5"/>
      <path id="Trazado_214598" data-name="Trazado 214598" d="M79.557,70.428a1.278,1.278,0,1,1-1.278-1.278,1.278,1.278,0,0,1,1.278,1.278Z" transform="translate(27.526 6.274)" fill="#f5f5f5"/>
      <path id="Trazado_214599" data-name="Trazado 214599" d="M58.527,70.428a1.278,1.278,0,1,1-1.278-1.278,1.278,1.278,0,0,1,1.278,1.278Z" transform="translate(16.928 6.274)" fill="#e8505b"/>
      <path id="Trazado_214600" data-name="Trazado 214600" d="M69.277,70.428A1.278,1.278,0,1,1,68,69.15a1.278,1.278,0,0,1,1.278,1.278Z" transform="translate(22.345 6.274)" fill="#e8505b"/>
      <path id="Trazado_214601" data-name="Trazado 214601" d="M77,74.568a1.278,1.278,0,1,1,1.278,1.278A1.278,1.278,0,0,1,77,74.568Z" transform="translate(27.526 8.361)" fill="#263238"/>
      <path id="Trazado_214602" data-name="Trazado 214602" d="M73.24,74.568a1.278,1.278,0,1,1,1.278,1.278A1.278,1.278,0,0,1,73.24,74.568Z" transform="translate(25.631 8.361)" fill="#263238"/>
      <path id="Trazado_214603" data-name="Trazado 214603" d="M69.483,74.62a1.293,1.293,0,1,1,2.572,0A1.278,1.278,0,0,1,70.776,75.9a1.293,1.293,0,0,1-1.293-1.278Z" transform="translate(23.734 8.309)" fill="#263238"/>
      <path id="Trazado_214604" data-name="Trazado 214604" d="M65.73,74.568a1.278,1.278,0,1,1,1.278,1.278,1.278,1.278,0,0,1-1.278-1.278Z" transform="translate(21.846 8.361)" fill="#263238"/>
      <path id="Trazado_214605" data-name="Trazado 214605" d="M36.62,74.568A1.278,1.278,0,1,1,37.9,75.847a1.278,1.278,0,0,1-1.278-1.278Z" transform="translate(7.176 8.361)" fill="#263238"/>
      <path id="Trazado_214606" data-name="Trazado 214606" d="M32.783,74.62a1.293,1.293,0,1,1,2.572,0A1.278,1.278,0,0,1,34.076,75.9a1.293,1.293,0,0,1-1.293-1.278Z" transform="translate(5.238 8.309)" fill="#263238"/>
      <path id="Trazado_214607" data-name="Trazado 214607" d="M62,74.568a1.278,1.278,0,1,1,1.278,1.278A1.278,1.278,0,0,1,62,74.568Z" transform="translate(19.966 8.361)" fill="#263238"/>
      <path id="Trazado_214608" data-name="Trazado 214608" d="M43.52,74.568A1.278,1.278,0,1,1,44.8,75.847a1.278,1.278,0,0,1-1.278-1.278Z" transform="translate(10.653 8.361)" fill="#263238"/>
      <path id="Trazado_214609" data-name="Trazado 214609" d="M58.213,74.62a1.293,1.293,0,1,1,2.572,0A1.278,1.278,0,0,1,59.506,75.9a1.293,1.293,0,0,1-1.293-1.278Z" transform="translate(18.054 8.309)" fill="#f5f5f5"/>
      <path id="Trazado_214610" data-name="Trazado 214610" d="M54.46,74.568a1.278,1.278,0,1,1,1.278,1.278A1.278,1.278,0,0,1,54.46,74.568Z" transform="translate(16.167 8.361)" fill="#f5f5f5"/>
      <path id="Trazado_214611" data-name="Trazado 214611" d="M46.84,74.568a1.278,1.278,0,1,1,1.278,1.278A1.278,1.278,0,0,1,46.84,74.568Z" transform="translate(12.326 8.361)" fill="#f5f5f5"/>
      <path id="Trazado_214612" data-name="Trazado 214612" d="M29.67,74.568a1.278,1.278,0,1,1,1.278,1.278A1.278,1.278,0,0,1,29.67,74.568Z" transform="translate(3.673 8.361)" fill="#f5f5f5"/>
      <path id="Trazado_214613" data-name="Trazado 214613" d="M50.7,74.568a1.278,1.278,0,1,1,1.278,1.278A1.278,1.278,0,0,1,50.7,74.568Z" transform="translate(14.272 8.361)" fill="#e8505b"/>
      <path id="Trazado_214614" data-name="Trazado 214614" d="M39.943,74.62a1.293,1.293,0,1,1,2.572,0A1.278,1.278,0,0,1,41.236,75.9a1.293,1.293,0,0,1-1.293-1.278Z" transform="translate(8.846 8.309)" fill="#e8505b"/>
      <path id="Trazado_214615" data-name="Trazado 214615" d="M32.227,78.218a1.278,1.278,0,1,1-1.278-1.278A1.278,1.278,0,0,1,32.227,78.218Z" transform="translate(3.673 10.2)" fill="#263238"/>
      <path id="Trazado_214616" data-name="Trazado 214616" d="M36,78.228a1.278,1.278,0,0,1-1.278,1.278A1.293,1.293,0,1,1,36,78.228Z" transform="translate(5.558 10.19)" fill="#263238"/>
      <path id="Trazado_214617" data-name="Trazado 214617" d="M39.737,78.218a1.278,1.278,0,1,1-1.278-1.278A1.278,1.278,0,0,1,39.737,78.218Z" transform="translate(7.458 10.2)" fill="#263238"/>
      <path id="Trazado_214618" data-name="Trazado 214618" d="M43.5,78.218a1.278,1.278,0,1,1-1.278-1.278A1.278,1.278,0,0,1,43.5,78.218Z" transform="translate(9.353 10.2)" fill="#263238"/>
      <path id="Trazado_214619" data-name="Trazado 214619" d="M72.607,78.218a1.278,1.278,0,1,1-1.278-1.278A1.278,1.278,0,0,1,72.607,78.218Z" transform="translate(24.023 10.2)" fill="#263238"/>
      <path id="Trazado_214620" data-name="Trazado 214620" d="M76.437,78.218a1.278,1.278,0,1,1-1.278-1.278A1.278,1.278,0,0,1,76.437,78.218Z" transform="translate(25.954 10.2)" fill="#263238"/>
      <path id="Trazado_214621" data-name="Trazado 214621" d="M47.267,78.228a1.278,1.278,0,0,1-1.278,1.278,1.293,1.293,0,1,1,1.278-1.278Z" transform="translate(11.238 10.19)" fill="#263238"/>
      <path id="Trazado_214622" data-name="Trazado 214622" d="M65.707,78.218a1.278,1.278,0,1,1-1.278-1.278A1.278,1.278,0,0,1,65.707,78.218Z" transform="translate(20.546 10.2)" fill="#263238"/>
      <path id="Trazado_214623" data-name="Trazado 214623" d="M51.007,78.218a1.278,1.278,0,1,1-1.278-1.278A1.278,1.278,0,0,1,51.007,78.218Z" transform="translate(13.138 10.2)" fill="#f5f5f5"/>
      <path id="Trazado_214624" data-name="Trazado 214624" d="M54.767,78.218a1.278,1.278,0,1,1-1.278-1.278A1.278,1.278,0,0,1,54.767,78.218Z" transform="translate(15.033 10.2)" fill="#f5f5f5"/>
      <path id="Trazado_214625" data-name="Trazado 214625" d="M62.387,78.218a1.278,1.278,0,1,1-1.278-1.278,1.278,1.278,0,0,1,1.278,1.278Z" transform="translate(18.873 10.2)" fill="#f5f5f5"/>
      <path id="Trazado_214626" data-name="Trazado 214626" d="M79.557,78.218a1.278,1.278,0,1,1-1.278-1.278A1.278,1.278,0,0,1,79.557,78.218Z" transform="translate(27.526 10.2)" fill="#f5f5f5"/>
      <path id="Trazado_214627" data-name="Trazado 214627" d="M58.527,78.218a1.278,1.278,0,1,1-1.278-1.278,1.278,1.278,0,0,1,1.278,1.278Z" transform="translate(16.928 10.2)" fill="#e8505b"/>
      <path id="Trazado_214628" data-name="Trazado 214628" d="M69.277,78.218A1.278,1.278,0,1,1,68,76.94a1.278,1.278,0,0,1,1.278,1.278Z" transform="translate(22.345 10.2)" fill="#e8505b"/>
      <rect id="Rectángulo_43940" data-name="Rectángulo 43940" width="22.319" height="3.429" transform="translate(5.038 74.958)" fill="#263238"/>
      <rect id="Rectángulo_43941" data-name="Rectángulo 43941" width="22.319" height="3.429" transform="translate(5.038 80.869)" fill="#263238"/>
      <rect id="Rectángulo_43942" data-name="Rectángulo 43942" width="22.319" height="3.429" transform="translate(5.038 86.975)" fill="#263238"/>
      <path id="Trazado_214629" data-name="Trazado 214629" d="M99.91,70l-17.04.045V41.925l17.04-.045Z" transform="translate(30.484 -7.469)" fill="#263238"/>
      <path id="Trazado_214630" data-name="Trazado 214630" d="M99.91,47.264l-17.04.045V19.185l17.04-.045Z" transform="translate(30.484 -18.929)" fill="#263238"/>
      <path id="Trazado_214631" data-name="Trazado 214631" d="M99.91,92.934l-17.04.045V64.855l17.04-.045Z" transform="translate(30.484 4.087)" fill="#263238"/>
      <rect id="Rectángulo_43943" data-name="Rectángulo 43943" width="113.354" height="28.124" transform="translate(0.827 0)" fill="#455a64"/>
      <rect id="Rectángulo_43944" data-name="Rectángulo 43944" width="22.319" height="3.429" transform="translate(5.85 5.79)" fill="#263238"/>
      <rect id="Rectángulo_43945" data-name="Rectángulo 43945" width="22.319" height="3.429" transform="translate(5.85 11.701)" fill="#263238"/>
      <rect id="Rectángulo_43946" data-name="Rectángulo 43946" width="22.319" height="3.429" transform="translate(5.85 17.807)" fill="#263238"/>
      <path id="Trazado_214632" data-name="Trazado 214632" d="M32.957,24.658a1.278,1.278,0,1,1-1.278-1.278A1.278,1.278,0,0,1,32.957,24.658Z" transform="translate(4.041 -16.793)" fill="#263238"/>
      <ellipse id="Elipse_7065" data-name="Elipse 7065" cx="1.278" cy="1.278" rx="1.278" ry="1.278" transform="translate(40.096 6.587)" fill="#263238"/>
      <path id="Trazado_214633" data-name="Trazado 214633" d="M40.487,24.658a1.293,1.293,0,1,1-1.293-1.278,1.278,1.278,0,0,1,1.293,1.278Z" transform="translate(7.821 -16.793)" fill="#263238"/>
      <ellipse id="Elipse_7066" data-name="Elipse 7066" cx="1.278" cy="1.278" rx="1.278" ry="1.278" transform="translate(51.391 6.587)" fill="#263238"/>
      <path id="Trazado_214634" data-name="Trazado 214634" d="M73.352,24.658a1.293,1.293,0,0,1-1.293,1.278,1.278,1.278,0,0,1,0-2.557,1.293,1.293,0,0,1,1.293,1.278Z" transform="translate(24.391 -16.793)" fill="#263238"/>
      <ellipse id="Elipse_7067" data-name="Elipse 7067" cx="1.278" cy="1.278" rx="1.278" ry="1.278" transform="translate(100.947 6.587)" fill="#263238"/>
      <path id="Trazado_214635" data-name="Trazado 214635" d="M47.987,24.658a1.278,1.278,0,1,1-1.278-1.278A1.278,1.278,0,0,1,47.987,24.658Z" transform="translate(11.616 -16.793)" fill="#263238"/>
      <ellipse id="Elipse_7068" data-name="Elipse 7068" cx="1.278" cy="1.278" rx="1.278" ry="1.278" transform="translate(84.794 6.587)" fill="#263238"/>
      <path id="Trazado_214636" data-name="Trazado 214636" d="M51.747,24.658a1.278,1.278,0,1,1-1.278-1.278,1.278,1.278,0,0,1,1.278,1.278Z" transform="translate(13.511 -16.793)" fill="#f5f5f5"/>
      <path id="Trazado_214637" data-name="Trazado 214637" d="M55.5,24.658a1.278,1.278,0,1,1-1.278-1.278A1.278,1.278,0,0,1,55.5,24.658Z" transform="translate(15.4 -16.793)" fill="#f5f5f5"/>
      <path id="Trazado_214638" data-name="Trazado 214638" d="M63.132,24.658a1.293,1.293,0,0,1-1.293,1.278,1.278,1.278,0,1,1,0-2.557,1.293,1.293,0,0,1,1.293,1.278Z" transform="translate(19.241 -16.793)" fill="#f5f5f5"/>
      <path id="Trazado_214639" data-name="Trazado 214639" d="M80.287,24.658a1.278,1.278,0,1,1-1.278-1.278,1.278,1.278,0,0,1,1.278,1.278Z" transform="translate(27.894 -16.793)" fill="#f5f5f5"/>
      <path id="Trazado_214640" data-name="Trazado 214640" d="M59.257,24.658a1.278,1.278,0,1,1-1.278-1.278,1.278,1.278,0,0,1,1.278,1.278Z" transform="translate(17.295 -16.793)" fill="#e8505b"/>
      <ellipse id="Elipse_7069" data-name="Elipse 7069" cx="1.278" cy="1.278" rx="1.278" ry="1.278" transform="translate(90.178 6.587)" fill="#e8505b"/>
      <path id="Trazado_214641" data-name="Trazado 214641" d="M77.73,28.753a1.278,1.278,0,1,1,.369.914A1.278,1.278,0,0,1,77.73,28.753Z" transform="translate(27.894 -14.721)" fill="#263238"/>
      <path id="Trazado_214642" data-name="Trazado 214642" d="M74,28.758a1.226,1.226,0,1,1,1.293,1.293A1.293,1.293,0,0,1,74,28.758Z" transform="translate(26.014 -14.726)" fill="#263238"/>
      <path id="Trazado_214643" data-name="Trazado 214643" d="M70.22,28.753a1.278,1.278,0,1,1,.369.914A1.278,1.278,0,0,1,70.22,28.753Z" transform="translate(24.109 -14.721)" fill="#263238"/>
      <path id="Trazado_214644" data-name="Trazado 214644" d="M66.46,28.753a1.278,1.278,0,1,1,.369.914,1.278,1.278,0,0,1-.369-.914Z" transform="translate(22.214 -14.721)" fill="#263238"/>
      <path id="Trazado_214645" data-name="Trazado 214645" d="M37.35,28.753a1.278,1.278,0,1,1,.369.914A1.278,1.278,0,0,1,37.35,28.753Z" transform="translate(7.544 -14.721)" fill="#263238"/>
      <path id="Trazado_214646" data-name="Trazado 214646" d="M33.52,28.753a1.278,1.278,0,1,1,.369.914A1.278,1.278,0,0,1,33.52,28.753Z" transform="translate(5.613 -14.721)" fill="#263238"/>
      <path id="Trazado_214647" data-name="Trazado 214647" d="M62.7,28.763a1.293,1.293,0,1,1,1.278,1.293A1.278,1.278,0,0,1,62.7,28.763Z" transform="translate(20.319 -14.731)" fill="#263238"/>
      <path id="Trazado_214648" data-name="Trazado 214648" d="M44.25,28.763a1.293,1.293,0,1,1,1.278,1.293,1.278,1.278,0,0,1-1.278-1.293Z" transform="translate(11.021 -14.731)" fill="#263238"/>
      <path id="Trazado_214649" data-name="Trazado 214649" d="M59,28.753a1.278,1.278,0,1,1,.369.914A1.278,1.278,0,0,1,59,28.753Z" transform="translate(18.455 -14.721)" fill="#f5f5f5"/>
      <path id="Trazado_214650" data-name="Trazado 214650" d="M55.19,28.753a1.278,1.278,0,1,1,.369.914,1.278,1.278,0,0,1-.369-.914Z" transform="translate(16.534 -14.721)" fill="#f5f5f5"/>
      <path id="Trazado_214651" data-name="Trazado 214651" d="M47.57,28.753a1.278,1.278,0,1,1,.369.914A1.278,1.278,0,0,1,47.57,28.753Z" transform="translate(12.694 -14.721)" fill="#f5f5f5"/>
      <path id="Trazado_214652" data-name="Trazado 214652" d="M30.4,28.753a1.278,1.278,0,1,1,.369.914,1.278,1.278,0,0,1-.369-.914Z" transform="translate(4.041 -14.721)" fill="#f5f5f5"/>
      <path id="Trazado_214653" data-name="Trazado 214653" d="M51.43,28.758a1.278,1.278,0,0,1,1.278-1.278,1.293,1.293,0,1,1-1.278,1.278Z" transform="translate(14.639 -14.726)" fill="#e8505b"/>
      <path id="Trazado_214654" data-name="Trazado 214654" d="M40.68,28.753a1.278,1.278,0,1,1,.369.914A1.278,1.278,0,0,1,40.68,28.753Z" transform="translate(9.222 -14.721)" fill="#e8505b"/>
      <path id="Trazado_214655" data-name="Trazado 214655" d="M32.957,32.428a1.278,1.278,0,1,1-1.278-1.278A1.278,1.278,0,0,1,32.957,32.428Z" transform="translate(4.041 -12.877)" fill="#263238"/>
      <path id="Trazado_214656" data-name="Trazado 214656" d="M36.717,32.428a1.278,1.278,0,1,1-1.278-1.278,1.278,1.278,0,0,1,1.278,1.278Z" transform="translate(5.936 -12.877)" fill="#263238"/>
      <path id="Trazado_214657" data-name="Trazado 214657" d="M40.484,32.387A1.293,1.293,0,1,1,39.2,31.233a1.293,1.293,0,0,1,1.286,1.154Z" transform="translate(7.823 -12.835)" fill="#263238"/>
      <path id="Trazado_214658" data-name="Trazado 214658" d="M44.227,32.428a1.278,1.278,0,1,1-1.278-1.278,1.278,1.278,0,0,1,1.278,1.278Z" transform="translate(9.721 -12.877)" fill="#263238"/>
      <path id="Trazado_214659" data-name="Trazado 214659" d="M73.354,32.428a1.293,1.293,0,1,1-2.572,0,1.278,1.278,0,0,1,1.278-1.278,1.293,1.293,0,0,1,1.293,1.278Z" transform="translate(24.389 -12.877)" fill="#263238"/>
      <path id="Trazado_214660" data-name="Trazado 214660" d="M77.187,32.428a1.293,1.293,0,1,1-1.278-1.278,1.278,1.278,0,0,1,1.278,1.278Z" transform="translate(26.317 -12.877)" fill="#263238"/>
      <path id="Trazado_214661" data-name="Trazado 214661" d="M47.987,32.428a1.278,1.278,0,1,1-1.278-1.278,1.278,1.278,0,0,1,1.278,1.278Z" transform="translate(11.616 -12.877)" fill="#263238"/>
      <path id="Trazado_214662" data-name="Trazado 214662" d="M66.437,32.428a1.278,1.278,0,1,1-1.278-1.278,1.278,1.278,0,0,1,1.278,1.278Z" transform="translate(20.914 -12.877)" fill="#263238"/>
      <path id="Trazado_214663" data-name="Trazado 214663" d="M51.757,32.428a1.293,1.293,0,1,1-1.278-1.278,1.278,1.278,0,0,1,1.278,1.278Z" transform="translate(13.501 -12.877)" fill="#f5f5f5"/>
      <path id="Trazado_214664" data-name="Trazado 214664" d="M55.5,32.428a1.278,1.278,0,1,1-1.278-1.278A1.278,1.278,0,0,1,55.5,32.428Z" transform="translate(15.4 -12.877)" fill="#f5f5f5"/>
      <path id="Trazado_214665" data-name="Trazado 214665" d="M63.134,32.428a1.293,1.293,0,1,1-2.572,0,1.278,1.278,0,0,1,1.278-1.278,1.293,1.293,0,0,1,1.293,1.278Z" transform="translate(19.238 -12.877)" fill="#f5f5f5"/>
      <path id="Trazado_214666" data-name="Trazado 214666" d="M80.287,32.428a1.278,1.278,0,1,1-1.278-1.278A1.278,1.278,0,0,1,80.287,32.428Z" transform="translate(27.894 -12.877)" fill="#f5f5f5"/>
      <path id="Trazado_214667" data-name="Trazado 214667" d="M59.257,32.428a1.278,1.278,0,1,1-1.278-1.278,1.278,1.278,0,0,1,1.278,1.278Z" transform="translate(17.295 -12.877)" fill="#e8505b"/>
      <path id="Trazado_214668" data-name="Trazado 214668" d="M70.027,32.428a1.293,1.293,0,1,1-1.278-1.278,1.278,1.278,0,0,1,1.278,1.278Z" transform="translate(22.708 -12.877)" fill="#e8505b"/>
    </g>
    <g id="ILUSTRACIONES-14-2" data-name="ILUSTRACIONES-14" transform="translate(428.31 994.466)">
      <rect id="Rectángulo_43934-2" data-name="Rectángulo 43934" width="103.699" height="85.365" transform="translate(15.145 11.701)" fill="#263238"/>
      <rect id="Rectángulo_43935-2" data-name="Rectángulo 43935" width="113.354" height="28.124" transform="translate(0 34.456)" fill="#455a64"/>
      <rect id="Rectángulo_43936-2" data-name="Rectángulo 43936" width="22.319" height="3.429" transform="translate(5.038 40.246)" fill="#263238"/>
      <rect id="Rectángulo_43937-2" data-name="Rectángulo 43937" width="22.319" height="3.429" transform="translate(5.038 46.157)" fill="#263238"/>
      <rect id="Rectángulo_43938-2" data-name="Rectángulo 43938" width="22.319" height="3.429" transform="translate(5.038 52.263)" fill="#263238"/>
      <path id="Trazado_214564-2" data-name="Trazado 214564" d="M32.417,47.568a1.278,1.278,0,1,1-1.278-1.278A1.278,1.278,0,0,1,32.417,47.568Z" transform="translate(3.769 -5.247)" fill="#263238"/>
      <path id="Trazado_214565-2" data-name="Trazado 214565" d="M36.167,47.568a1.278,1.278,0,1,1-1.278-1.278,1.278,1.278,0,0,1,1.278,1.278Z" transform="translate(5.659 -5.247)" fill="#263238"/>
      <path id="Trazado_214566-2" data-name="Trazado 214566" d="M39.927,47.568a1.278,1.278,0,1,1-1.278-1.278A1.278,1.278,0,0,1,39.927,47.568Z" transform="translate(7.554 -5.247)" fill="#263238"/>
      <path id="Trazado_214567-2" data-name="Trazado 214567" d="M43.677,47.563A1.263,1.263,0,1,1,42.428,46.3a1.278,1.278,0,0,1,1.248,1.263Z" transform="translate(9.459 -5.242)" fill="#263238"/>
      <path id="Trazado_214568-2" data-name="Trazado 214568" d="M72.8,47.568a1.278,1.278,0,1,1-1.278-1.278A1.278,1.278,0,0,1,72.8,47.568Z" transform="translate(24.119 -5.247)" fill="#263238"/>
      <path id="Trazado_214569-2" data-name="Trazado 214569" d="M76.627,47.568a1.278,1.278,0,1,1-1.278-1.278,1.278,1.278,0,0,1,1.278,1.278Z" transform="translate(26.049 -5.247)" fill="#263238"/>
      <path id="Trazado_214570-2" data-name="Trazado 214570" d="M47.437,47.568a1.278,1.278,0,1,1-1.278-1.278,1.278,1.278,0,0,1,1.278,1.278Z" transform="translate(11.338 -5.247)" fill="#263238"/>
      <path id="Trazado_214571-2" data-name="Trazado 214571" d="M65.857,47.568a1.278,1.278,0,1,1-1.278-1.278,1.278,1.278,0,0,1,1.278,1.278Z" transform="translate(20.622 -5.247)" fill="#263238"/>
      <path id="Trazado_214572-2" data-name="Trazado 214572" d="M51.2,47.568a1.278,1.278,0,1,1-1.278-1.278A1.278,1.278,0,0,1,51.2,47.568Z" transform="translate(13.233 -5.247)" fill="#f5f5f5"/>
      <path id="Trazado_214573-2" data-name="Trazado 214573" d="M54.957,47.568a1.278,1.278,0,1,1-1.278-1.278A1.278,1.278,0,0,1,54.957,47.568Z" transform="translate(15.128 -5.247)" fill="#f5f5f5"/>
      <path id="Trazado_214574-2" data-name="Trazado 214574" d="M62.577,47.568A1.278,1.278,0,1,1,61.3,46.29a1.278,1.278,0,0,1,1.278,1.278Z" transform="translate(18.969 -5.247)" fill="#f5f5f5"/>
      <path id="Trazado_214575-2" data-name="Trazado 214575" d="M79.747,47.568a1.278,1.278,0,1,1-1.278-1.278A1.278,1.278,0,0,1,79.747,47.568Z" transform="translate(27.622 -5.247)" fill="#f5f5f5"/>
      <path id="Trazado_214576-2" data-name="Trazado 214576" d="M58.707,47.568a1.278,1.278,0,1,1-1.278-1.278A1.278,1.278,0,0,1,58.707,47.568Z" transform="translate(17.018 -5.247)" fill="#e8505b"/>
      <path id="Trazado_214577-2" data-name="Trazado 214577" d="M69.467,47.568a1.278,1.278,0,1,1-1.278-1.278A1.278,1.278,0,0,1,69.467,47.568Z" transform="translate(22.441 -5.247)" fill="#e8505b"/>
      <path id="Trazado_214578-2" data-name="Trazado 214578" d="M77.19,51.678a1.278,1.278,0,1,1,1.278,1.278,1.278,1.278,0,0,1-1.278-1.278Z" transform="translate(27.622 -3.175)" fill="#263238"/>
      <ellipse id="Elipse_7046-2" data-name="Elipse 7046" cx="1.278" cy="1.278" rx="1.278" ry="1.278" transform="translate(99.157 47.225)" fill="#263238"/>
      <path id="Trazado_214579-2" data-name="Trazado 214579" d="M69.67,51.678a1.278,1.278,0,1,1,1.278,1.278,1.278,1.278,0,0,1-1.278-1.278Z" transform="translate(23.832 -3.175)" fill="#263238"/>
      <ellipse id="Elipse_7047-2" data-name="Elipse 7047" cx="1.278" cy="1.278" rx="1.278" ry="1.278" transform="translate(87.862 47.225)" fill="#263238"/>
      <ellipse id="Elipse_7048-2" data-name="Elipse 7048" cx="1.278" cy="1.278" rx="1.278" ry="1.278" transform="translate(44.066 47.225)" fill="#263238"/>
      <path id="Trazado_214580-2" data-name="Trazado 214580" d="M33,51.678a1.278,1.278,0,1,1,1.278,1.278A1.278,1.278,0,0,1,33,51.678Z" transform="translate(5.351 -3.175)" fill="#263238"/>
      <path id="Trazado_214581-2" data-name="Trazado 214581" d="M62.16,51.678a1.278,1.278,0,1,1,1.278,1.278,1.278,1.278,0,0,1-1.278-1.278Z" transform="translate(20.047 -3.175)" fill="#263238"/>
      <path id="Trazado_214582-2" data-name="Trazado 214582" d="M43.71,51.678a1.278,1.278,0,1,1,1.278,1.278,1.278,1.278,0,0,1-1.278-1.278Z" transform="translate(10.749 -3.175)" fill="#263238"/>
      <path id="Trazado_214583-2" data-name="Trazado 214583" d="M58.4,51.678a1.278,1.278,0,1,1,1.278,1.278A1.278,1.278,0,0,1,58.4,51.678Z" transform="translate(18.152 -3.175)" fill="#f5f5f5"/>
      <path id="Trazado_214584-2" data-name="Trazado 214584" d="M54.643,51.73a1.293,1.293,0,1,1,2.572,0,1.278,1.278,0,0,1-1.278,1.278,1.293,1.293,0,0,1-1.293-1.278Z" transform="translate(16.255 -3.227)" fill="#f5f5f5"/>
      <path id="Trazado_214585-2" data-name="Trazado 214585" d="M47,51.678a1.278,1.278,0,1,1,1.278,1.278A1.278,1.278,0,0,1,47,51.678Z" transform="translate(12.407 -3.175)" fill="#f5f5f5"/>
      <ellipse id="Elipse_7049-2" data-name="Elipse 7049" cx="1.278" cy="1.278" rx="1.278" ry="1.278" transform="translate(33.629 47.225)" fill="#f5f5f5"/>
      <path id="Trazado_214586-2" data-name="Trazado 214586" d="M50.89,51.678a1.278,1.278,0,1,1,1.278,1.278,1.278,1.278,0,0,1-1.278-1.278Z" transform="translate(14.367 -3.175)" fill="#e8505b"/>
      <ellipse id="Elipse_7050-2" data-name="Elipse 7050" cx="1.278" cy="1.278" rx="1.278" ry="1.278" transform="translate(49.075 47.225)" fill="#e8505b"/>
      <ellipse id="Elipse_7051-2" data-name="Elipse 7051" cx="1.278" cy="1.278" rx="1.278" ry="1.278" transform="translate(33.629 52.699)" fill="#263238"/>
      <path id="Trazado_214587-2" data-name="Trazado 214587" d="M36.167,55.318a1.278,1.278,0,1,1-1.278-1.278,1.278,1.278,0,0,1,1.278,1.278Z" transform="translate(5.659 -1.341)" fill="#263238"/>
      <ellipse id="Elipse_7052-2" data-name="Elipse 7052" cx="1.278" cy="1.278" rx="1.278" ry="1.278" transform="translate(44.924 52.699)" fill="#263238"/>
      <path id="Trazado_214588-2" data-name="Trazado 214588" d="M43.7,55.339A1.293,1.293,0,1,1,42.448,54,1.278,1.278,0,0,1,43.7,55.339Z" transform="translate(9.439 -1.361)" fill="#263238"/>
      <path id="Trazado_214589-2" data-name="Trazado 214589" d="M72.8,55.318a1.278,1.278,0,1,1-1.278-1.278A1.278,1.278,0,0,1,72.8,55.318Z" transform="translate(24.119 -1.341)" fill="#263238"/>
      <ellipse id="Elipse_7053-2" data-name="Elipse 7053" cx="1.278" cy="1.278" rx="1.278" ry="1.278" transform="translate(100.119 52.699)" fill="#263238"/>
      <ellipse id="Elipse_7054-2" data-name="Elipse 7054" cx="1.278" cy="1.278" rx="1.278" ry="1.278" transform="translate(56.218 52.699)" fill="#263238"/>
      <ellipse id="Elipse_7055-2" data-name="Elipse 7055" cx="1.278" cy="1.278" rx="1.278" ry="1.278" transform="translate(83.967 52.699)" fill="#263238"/>
      <path id="Trazado_214590-2" data-name="Trazado 214590" d="M51.2,55.318a1.278,1.278,0,1,1-1.278-1.278A1.278,1.278,0,0,1,51.2,55.318Z" transform="translate(13.233 -1.341)" fill="#f5f5f5"/>
      <path id="Trazado_214591-2" data-name="Trazado 214591" d="M54.957,55.318a1.278,1.278,0,1,1-1.278-1.278A1.278,1.278,0,0,1,54.957,55.318Z" transform="translate(15.128 -1.341)" fill="#f5f5f5"/>
      <ellipse id="Elipse_7056-2" data-name="Elipse 7056" cx="1.278" cy="1.278" rx="1.278" ry="1.278" transform="translate(78.989 52.699)" fill="#f5f5f5"/>
      <path id="Trazado_214592-2" data-name="Trazado 214592" d="M79.746,55.339a1.278,1.278,0,1,1-.373-.966,1.278,1.278,0,0,1,.373.966Z" transform="translate(27.622 -1.361)" fill="#f5f5f5"/>
      <ellipse id="Elipse_7057-2" data-name="Elipse 7057" cx="1.278" cy="1.278" rx="1.278" ry="1.278" transform="translate(73.168 52.699)" fill="#e8505b"/>
      <path id="Trazado_214593-2" data-name="Trazado 214593" d="M69.467,55.318a1.278,1.278,0,1,1-1.278-1.278A1.278,1.278,0,0,1,69.467,55.318Z" transform="translate(22.441 -1.341)" fill="#e8505b"/>
      <rect id="Rectángulo_43939-2" data-name="Rectángulo 43939" width="113.354" height="28.124" transform="translate(0 69.168)" fill="#455a64"/>
      <ellipse id="Elipse_7058-2" data-name="Elipse 7058" cx="1.278" cy="1.278" rx="1.278" ry="1.278" transform="translate(33.343 75.469)" fill="#263238"/>
      <path id="Trazado_214594-2" data-name="Trazado 214594" d="M35.987,70.428a1.278,1.278,0,1,1-1.278-1.278,1.278,1.278,0,0,1,1.278,1.278Z" transform="translate(5.568 6.274)" fill="#263238"/>
      <ellipse id="Elipse_7059-2" data-name="Elipse 7059" cx="1.278" cy="1.278" rx="1.278" ry="1.278" transform="translate(44.638 75.469)" fill="#263238"/>
      <path id="Trazado_214595-2" data-name="Trazado 214595" d="M43.5,70.428a1.278,1.278,0,1,1-1.278-1.278A1.278,1.278,0,0,1,43.5,70.428Z" transform="translate(9.353 6.274)" fill="#263238"/>
      <path id="Trazado_214596-2" data-name="Trazado 214596" d="M72.607,70.428a1.278,1.278,0,1,1-1.278-1.278,1.278,1.278,0,0,1,1.278,1.278Z" transform="translate(24.023 6.274)" fill="#263238"/>
      <ellipse id="Elipse_7060-2" data-name="Elipse 7060" cx="1.278" cy="1.278" rx="1.278" ry="1.278" transform="translate(99.834 75.469)" fill="#263238"/>
      <ellipse id="Elipse_7061-2" data-name="Elipse 7061" cx="1.278" cy="1.278" rx="1.278" ry="1.278" transform="translate(55.948 75.469)" fill="#263238"/>
      <ellipse id="Elipse_7062-2" data-name="Elipse 7062" cx="1.278" cy="1.278" rx="1.278" ry="1.278" transform="translate(83.696 75.469)" fill="#263238"/>
      <path id="Trazado_214597-2" data-name="Trazado 214597" d="M51.007,70.428a1.278,1.278,0,1,1-1.278-1.278A1.278,1.278,0,0,1,51.007,70.428Z" transform="translate(13.138 6.274)" fill="#f5f5f5"/>
      <ellipse id="Elipse_7063-2" data-name="Elipse 7063" cx="1.278" cy="1.278" rx="1.278" ry="1.278" transform="translate(67.243 75.469)" fill="#f5f5f5"/>
      <ellipse id="Elipse_7064-2" data-name="Elipse 7064" cx="1.278" cy="1.278" rx="1.278" ry="1.278" transform="translate(78.703 75.469)" fill="#f5f5f5"/>
      <path id="Trazado_214598-2" data-name="Trazado 214598" d="M79.557,70.428a1.278,1.278,0,1,1-1.278-1.278,1.278,1.278,0,0,1,1.278,1.278Z" transform="translate(27.526 6.274)" fill="#f5f5f5"/>
      <path id="Trazado_214599-2" data-name="Trazado 214599" d="M58.527,70.428a1.278,1.278,0,1,1-1.278-1.278,1.278,1.278,0,0,1,1.278,1.278Z" transform="translate(16.928 6.274)" fill="#e8505b"/>
      <path id="Trazado_214600-2" data-name="Trazado 214600" d="M69.277,70.428A1.278,1.278,0,1,1,68,69.15a1.278,1.278,0,0,1,1.278,1.278Z" transform="translate(22.345 6.274)" fill="#e8505b"/>
      <path id="Trazado_214601-2" data-name="Trazado 214601" d="M77,74.568a1.278,1.278,0,1,1,1.278,1.278A1.278,1.278,0,0,1,77,74.568Z" transform="translate(27.526 8.361)" fill="#263238"/>
      <path id="Trazado_214602-2" data-name="Trazado 214602" d="M73.24,74.568a1.278,1.278,0,1,1,1.278,1.278A1.278,1.278,0,0,1,73.24,74.568Z" transform="translate(25.631 8.361)" fill="#263238"/>
      <path id="Trazado_214603-2" data-name="Trazado 214603" d="M69.483,74.62a1.293,1.293,0,1,1,2.572,0A1.278,1.278,0,0,1,70.776,75.9a1.293,1.293,0,0,1-1.293-1.278Z" transform="translate(23.734 8.309)" fill="#263238"/>
      <path id="Trazado_214604-2" data-name="Trazado 214604" d="M65.73,74.568a1.278,1.278,0,1,1,1.278,1.278,1.278,1.278,0,0,1-1.278-1.278Z" transform="translate(21.846 8.361)" fill="#263238"/>
      <path id="Trazado_214605-2" data-name="Trazado 214605" d="M36.62,74.568A1.278,1.278,0,1,1,37.9,75.847a1.278,1.278,0,0,1-1.278-1.278Z" transform="translate(7.176 8.361)" fill="#263238"/>
      <path id="Trazado_214606-2" data-name="Trazado 214606" d="M32.783,74.62a1.293,1.293,0,1,1,2.572,0A1.278,1.278,0,0,1,34.076,75.9a1.293,1.293,0,0,1-1.293-1.278Z" transform="translate(5.238 8.309)" fill="#263238"/>
      <path id="Trazado_214607-2" data-name="Trazado 214607" d="M62,74.568a1.278,1.278,0,1,1,1.278,1.278A1.278,1.278,0,0,1,62,74.568Z" transform="translate(19.966 8.361)" fill="#263238"/>
      <path id="Trazado_214608-2" data-name="Trazado 214608" d="M43.52,74.568A1.278,1.278,0,1,1,44.8,75.847a1.278,1.278,0,0,1-1.278-1.278Z" transform="translate(10.653 8.361)" fill="#263238"/>
      <path id="Trazado_214609-2" data-name="Trazado 214609" d="M58.213,74.62a1.293,1.293,0,1,1,2.572,0A1.278,1.278,0,0,1,59.506,75.9a1.293,1.293,0,0,1-1.293-1.278Z" transform="translate(18.054 8.309)" fill="#f5f5f5"/>
      <path id="Trazado_214610-2" data-name="Trazado 214610" d="M54.46,74.568a1.278,1.278,0,1,1,1.278,1.278A1.278,1.278,0,0,1,54.46,74.568Z" transform="translate(16.167 8.361)" fill="#f5f5f5"/>
      <path id="Trazado_214611-2" data-name="Trazado 214611" d="M46.84,74.568a1.278,1.278,0,1,1,1.278,1.278A1.278,1.278,0,0,1,46.84,74.568Z" transform="translate(12.326 8.361)" fill="#f5f5f5"/>
      <path id="Trazado_214612-2" data-name="Trazado 214612" d="M29.67,74.568a1.278,1.278,0,1,1,1.278,1.278A1.278,1.278,0,0,1,29.67,74.568Z" transform="translate(3.673 8.361)" fill="#f5f5f5"/>
      <path id="Trazado_214613-2" data-name="Trazado 214613" d="M50.7,74.568a1.278,1.278,0,1,1,1.278,1.278A1.278,1.278,0,0,1,50.7,74.568Z" transform="translate(14.272 8.361)" fill="#e8505b"/>
      <path id="Trazado_214614-2" data-name="Trazado 214614" d="M39.943,74.62a1.293,1.293,0,1,1,2.572,0A1.278,1.278,0,0,1,41.236,75.9a1.293,1.293,0,0,1-1.293-1.278Z" transform="translate(8.846 8.309)" fill="#e8505b"/>
      <path id="Trazado_214615-2" data-name="Trazado 214615" d="M32.227,78.218a1.278,1.278,0,1,1-1.278-1.278A1.278,1.278,0,0,1,32.227,78.218Z" transform="translate(3.673 10.2)" fill="#263238"/>
      <path id="Trazado_214616-2" data-name="Trazado 214616" d="M36,78.228a1.278,1.278,0,0,1-1.278,1.278A1.293,1.293,0,1,1,36,78.228Z" transform="translate(5.558 10.19)" fill="#263238"/>
      <path id="Trazado_214617-2" data-name="Trazado 214617" d="M39.737,78.218a1.278,1.278,0,1,1-1.278-1.278A1.278,1.278,0,0,1,39.737,78.218Z" transform="translate(7.458 10.2)" fill="#263238"/>
      <path id="Trazado_214618-2" data-name="Trazado 214618" d="M43.5,78.218a1.278,1.278,0,1,1-1.278-1.278A1.278,1.278,0,0,1,43.5,78.218Z" transform="translate(9.353 10.2)" fill="#263238"/>
      <path id="Trazado_214619-2" data-name="Trazado 214619" d="M72.607,78.218a1.278,1.278,0,1,1-1.278-1.278A1.278,1.278,0,0,1,72.607,78.218Z" transform="translate(24.023 10.2)" fill="#263238"/>
      <path id="Trazado_214620-2" data-name="Trazado 214620" d="M76.437,78.218a1.278,1.278,0,1,1-1.278-1.278A1.278,1.278,0,0,1,76.437,78.218Z" transform="translate(25.954 10.2)" fill="#263238"/>
      <path id="Trazado_214621-2" data-name="Trazado 214621" d="M47.267,78.228a1.278,1.278,0,0,1-1.278,1.278,1.293,1.293,0,1,1,1.278-1.278Z" transform="translate(11.238 10.19)" fill="#263238"/>
      <path id="Trazado_214622-2" data-name="Trazado 214622" d="M65.707,78.218a1.278,1.278,0,1,1-1.278-1.278A1.278,1.278,0,0,1,65.707,78.218Z" transform="translate(20.546 10.2)" fill="#263238"/>
      <path id="Trazado_214623-2" data-name="Trazado 214623" d="M51.007,78.218a1.278,1.278,0,1,1-1.278-1.278A1.278,1.278,0,0,1,51.007,78.218Z" transform="translate(13.138 10.2)" fill="#f5f5f5"/>
      <path id="Trazado_214624-2" data-name="Trazado 214624" d="M54.767,78.218a1.278,1.278,0,1,1-1.278-1.278A1.278,1.278,0,0,1,54.767,78.218Z" transform="translate(15.033 10.2)" fill="#f5f5f5"/>
      <path id="Trazado_214625-2" data-name="Trazado 214625" d="M62.387,78.218a1.278,1.278,0,1,1-1.278-1.278,1.278,1.278,0,0,1,1.278,1.278Z" transform="translate(18.873 10.2)" fill="#f5f5f5"/>
      <path id="Trazado_214626-2" data-name="Trazado 214626" d="M79.557,78.218a1.278,1.278,0,1,1-1.278-1.278A1.278,1.278,0,0,1,79.557,78.218Z" transform="translate(27.526 10.2)" fill="#f5f5f5"/>
      <path id="Trazado_214627-2" data-name="Trazado 214627" d="M58.527,78.218a1.278,1.278,0,1,1-1.278-1.278,1.278,1.278,0,0,1,1.278,1.278Z" transform="translate(16.928 10.2)" fill="#e8505b"/>
      <path id="Trazado_214628-2" data-name="Trazado 214628" d="M69.277,78.218A1.278,1.278,0,1,1,68,76.94a1.278,1.278,0,0,1,1.278,1.278Z" transform="translate(22.345 10.2)" fill="#e8505b"/>
      <rect id="Rectángulo_43940-2" data-name="Rectángulo 43940" width="22.319" height="3.429" transform="translate(5.038 74.958)" fill="#263238"/>
      <rect id="Rectángulo_43941-2" data-name="Rectángulo 43941" width="22.319" height="3.429" transform="translate(5.038 80.869)" fill="#263238"/>
      <rect id="Rectángulo_43942-2" data-name="Rectángulo 43942" width="22.319" height="3.429" transform="translate(5.038 86.975)" fill="#263238"/>
      <path id="Trazado_214629-2" data-name="Trazado 214629" d="M99.91,70l-17.04.045V41.925l17.04-.045Z" transform="translate(30.484 -7.469)" fill="#263238"/>
      <path id="Trazado_214630-2" data-name="Trazado 214630" d="M99.91,47.264l-17.04.045V19.185l17.04-.045Z" transform="translate(30.484 -18.929)" fill="#263238"/>
      <path id="Trazado_214631-2" data-name="Trazado 214631" d="M99.91,92.934l-17.04.045V64.855l17.04-.045Z" transform="translate(30.484 4.087)" fill="#263238"/>
      <rect id="Rectángulo_43943-2" data-name="Rectángulo 43943" width="113.354" height="28.124" transform="translate(0.827 0)" fill="#455a64"/>
      <rect id="Rectángulo_43944-2" data-name="Rectángulo 43944" width="22.319" height="3.429" transform="translate(5.85 5.79)" fill="#263238"/>
      <rect id="Rectángulo_43945-2" data-name="Rectángulo 43945" width="22.319" height="3.429" transform="translate(5.85 11.701)" fill="#263238"/>
      <rect id="Rectángulo_43946-2" data-name="Rectángulo 43946" width="22.319" height="3.429" transform="translate(5.85 17.807)" fill="#263238"/>
      <path id="Trazado_214632-2" data-name="Trazado 214632" d="M32.957,24.658a1.278,1.278,0,1,1-1.278-1.278A1.278,1.278,0,0,1,32.957,24.658Z" transform="translate(4.041 -16.793)" fill="#263238"/>
      <ellipse id="Elipse_7065-2" data-name="Elipse 7065" cx="1.278" cy="1.278" rx="1.278" ry="1.278" transform="translate(40.096 6.587)" fill="#263238"/>
      <path id="Trazado_214633-2" data-name="Trazado 214633" d="M40.487,24.658a1.293,1.293,0,1,1-1.293-1.278,1.278,1.278,0,0,1,1.293,1.278Z" transform="translate(7.821 -16.793)" fill="#263238"/>
      <ellipse id="Elipse_7066-2" data-name="Elipse 7066" cx="1.278" cy="1.278" rx="1.278" ry="1.278" transform="translate(51.391 6.587)" fill="#263238"/>
      <path id="Trazado_214634-2" data-name="Trazado 214634" d="M73.352,24.658a1.293,1.293,0,0,1-1.293,1.278,1.278,1.278,0,0,1,0-2.557,1.293,1.293,0,0,1,1.293,1.278Z" transform="translate(24.391 -16.793)" fill="#263238"/>
      <ellipse id="Elipse_7067-2" data-name="Elipse 7067" cx="1.278" cy="1.278" rx="1.278" ry="1.278" transform="translate(100.947 6.587)" fill="#263238"/>
      <path id="Trazado_214635-2" data-name="Trazado 214635" d="M47.987,24.658a1.278,1.278,0,1,1-1.278-1.278A1.278,1.278,0,0,1,47.987,24.658Z" transform="translate(11.616 -16.793)" fill="#263238"/>
      <ellipse id="Elipse_7068-2" data-name="Elipse 7068" cx="1.278" cy="1.278" rx="1.278" ry="1.278" transform="translate(84.794 6.587)" fill="#263238"/>
      <path id="Trazado_214636-2" data-name="Trazado 214636" d="M51.747,24.658a1.278,1.278,0,1,1-1.278-1.278,1.278,1.278,0,0,1,1.278,1.278Z" transform="translate(13.511 -16.793)" fill="#f5f5f5"/>
      <path id="Trazado_214637-2" data-name="Trazado 214637" d="M55.5,24.658a1.278,1.278,0,1,1-1.278-1.278A1.278,1.278,0,0,1,55.5,24.658Z" transform="translate(15.4 -16.793)" fill="#f5f5f5"/>
      <path id="Trazado_214638-2" data-name="Trazado 214638" d="M63.132,24.658a1.293,1.293,0,0,1-1.293,1.278,1.278,1.278,0,1,1,0-2.557,1.293,1.293,0,0,1,1.293,1.278Z" transform="translate(19.241 -16.793)" fill="#f5f5f5"/>
      <path id="Trazado_214639-2" data-name="Trazado 214639" d="M80.287,24.658a1.278,1.278,0,1,1-1.278-1.278,1.278,1.278,0,0,1,1.278,1.278Z" transform="translate(27.894 -16.793)" fill="#f5f5f5"/>
      <path id="Trazado_214640-2" data-name="Trazado 214640" d="M59.257,24.658a1.278,1.278,0,1,1-1.278-1.278,1.278,1.278,0,0,1,1.278,1.278Z" transform="translate(17.295 -16.793)" fill="#e8505b"/>
      <ellipse id="Elipse_7069-2" data-name="Elipse 7069" cx="1.278" cy="1.278" rx="1.278" ry="1.278" transform="translate(90.178 6.587)" fill="#e8505b"/>
      <path id="Trazado_214641-2" data-name="Trazado 214641" d="M77.73,28.753a1.278,1.278,0,1,1,.369.914A1.278,1.278,0,0,1,77.73,28.753Z" transform="translate(27.894 -14.721)" fill="#263238"/>
      <path id="Trazado_214642-2" data-name="Trazado 214642" d="M74,28.758a1.226,1.226,0,1,1,1.293,1.293A1.293,1.293,0,0,1,74,28.758Z" transform="translate(26.014 -14.726)" fill="#263238"/>
      <path id="Trazado_214643-2" data-name="Trazado 214643" d="M70.22,28.753a1.278,1.278,0,1,1,.369.914A1.278,1.278,0,0,1,70.22,28.753Z" transform="translate(24.109 -14.721)" fill="#263238"/>
      <path id="Trazado_214644-2" data-name="Trazado 214644" d="M66.46,28.753a1.278,1.278,0,1,1,.369.914,1.278,1.278,0,0,1-.369-.914Z" transform="translate(22.214 -14.721)" fill="#263238"/>
      <path id="Trazado_214645-2" data-name="Trazado 214645" d="M37.35,28.753a1.278,1.278,0,1,1,.369.914A1.278,1.278,0,0,1,37.35,28.753Z" transform="translate(7.544 -14.721)" fill="#263238"/>
      <path id="Trazado_214646-2" data-name="Trazado 214646" d="M33.52,28.753a1.278,1.278,0,1,1,.369.914A1.278,1.278,0,0,1,33.52,28.753Z" transform="translate(5.613 -14.721)" fill="#263238"/>
      <path id="Trazado_214647-2" data-name="Trazado 214647" d="M62.7,28.763a1.293,1.293,0,1,1,1.278,1.293A1.278,1.278,0,0,1,62.7,28.763Z" transform="translate(20.319 -14.731)" fill="#263238"/>
      <path id="Trazado_214648-2" data-name="Trazado 214648" d="M44.25,28.763a1.293,1.293,0,1,1,1.278,1.293,1.278,1.278,0,0,1-1.278-1.293Z" transform="translate(11.021 -14.731)" fill="#263238"/>
      <path id="Trazado_214649-2" data-name="Trazado 214649" d="M59,28.753a1.278,1.278,0,1,1,.369.914A1.278,1.278,0,0,1,59,28.753Z" transform="translate(18.455 -14.721)" fill="#f5f5f5"/>
      <path id="Trazado_214650-2" data-name="Trazado 214650" d="M55.19,28.753a1.278,1.278,0,1,1,.369.914,1.278,1.278,0,0,1-.369-.914Z" transform="translate(16.534 -14.721)" fill="#f5f5f5"/>
      <path id="Trazado_214651-2" data-name="Trazado 214651" d="M47.57,28.753a1.278,1.278,0,1,1,.369.914A1.278,1.278,0,0,1,47.57,28.753Z" transform="translate(12.694 -14.721)" fill="#f5f5f5"/>
      <path id="Trazado_214652-2" data-name="Trazado 214652" d="M30.4,28.753a1.278,1.278,0,1,1,.369.914,1.278,1.278,0,0,1-.369-.914Z" transform="translate(4.041 -14.721)" fill="#f5f5f5"/>
      <path id="Trazado_214653-2" data-name="Trazado 214653" d="M51.43,28.758a1.278,1.278,0,0,1,1.278-1.278,1.293,1.293,0,1,1-1.278,1.278Z" transform="translate(14.639 -14.726)" fill="#e8505b"/>
      <path id="Trazado_214654-2" data-name="Trazado 214654" d="M40.68,28.753a1.278,1.278,0,1,1,.369.914A1.278,1.278,0,0,1,40.68,28.753Z" transform="translate(9.222 -14.721)" fill="#e8505b"/>
      <path id="Trazado_214655-2" data-name="Trazado 214655" d="M32.957,32.428a1.278,1.278,0,1,1-1.278-1.278A1.278,1.278,0,0,1,32.957,32.428Z" transform="translate(4.041 -12.877)" fill="#263238"/>
      <path id="Trazado_214656-2" data-name="Trazado 214656" d="M36.717,32.428a1.278,1.278,0,1,1-1.278-1.278,1.278,1.278,0,0,1,1.278,1.278Z" transform="translate(5.936 -12.877)" fill="#263238"/>
      <path id="Trazado_214657-2" data-name="Trazado 214657" d="M40.484,32.387A1.293,1.293,0,1,1,39.2,31.233a1.293,1.293,0,0,1,1.286,1.154Z" transform="translate(7.823 -12.835)" fill="#263238"/>
      <path id="Trazado_214658-2" data-name="Trazado 214658" d="M44.227,32.428a1.278,1.278,0,1,1-1.278-1.278,1.278,1.278,0,0,1,1.278,1.278Z" transform="translate(9.721 -12.877)" fill="#263238"/>
      <path id="Trazado_214659-2" data-name="Trazado 214659" d="M73.354,32.428a1.293,1.293,0,1,1-2.572,0,1.278,1.278,0,0,1,1.278-1.278,1.293,1.293,0,0,1,1.293,1.278Z" transform="translate(24.389 -12.877)" fill="#263238"/>
      <path id="Trazado_214660-2" data-name="Trazado 214660" d="M77.187,32.428a1.293,1.293,0,1,1-1.278-1.278,1.278,1.278,0,0,1,1.278,1.278Z" transform="translate(26.317 -12.877)" fill="#263238"/>
      <path id="Trazado_214661-2" data-name="Trazado 214661" d="M47.987,32.428a1.278,1.278,0,1,1-1.278-1.278,1.278,1.278,0,0,1,1.278,1.278Z" transform="translate(11.616 -12.877)" fill="#263238"/>
      <path id="Trazado_214662-2" data-name="Trazado 214662" d="M66.437,32.428a1.278,1.278,0,1,1-1.278-1.278,1.278,1.278,0,0,1,1.278,1.278Z" transform="translate(20.914 -12.877)" fill="#263238"/>
      <path id="Trazado_214663-2" data-name="Trazado 214663" d="M51.757,32.428a1.293,1.293,0,1,1-1.278-1.278,1.278,1.278,0,0,1,1.278,1.278Z" transform="translate(13.501 -12.877)" fill="#f5f5f5"/>
      <path id="Trazado_214664-2" data-name="Trazado 214664" d="M55.5,32.428a1.278,1.278,0,1,1-1.278-1.278A1.278,1.278,0,0,1,55.5,32.428Z" transform="translate(15.4 -12.877)" fill="#f5f5f5"/>
      <path id="Trazado_214665-2" data-name="Trazado 214665" d="M63.134,32.428a1.293,1.293,0,1,1-2.572,0,1.278,1.278,0,0,1,1.278-1.278,1.293,1.293,0,0,1,1.293,1.278Z" transform="translate(19.238 -12.877)" fill="#f5f5f5"/>
      <path id="Trazado_214666-2" data-name="Trazado 214666" d="M80.287,32.428a1.278,1.278,0,1,1-1.278-1.278A1.278,1.278,0,0,1,80.287,32.428Z" transform="translate(27.894 -12.877)" fill="#f5f5f5"/>
      <path id="Trazado_214667-2" data-name="Trazado 214667" d="M59.257,32.428a1.278,1.278,0,1,1-1.278-1.278,1.278,1.278,0,0,1,1.278,1.278Z" transform="translate(17.295 -12.877)" fill="#e8505b"/>
      <path id="Trazado_214668-2" data-name="Trazado 214668" d="M70.027,32.428a1.293,1.293,0,1,1-1.278-1.278,1.278,1.278,0,0,1,1.278,1.278Z" transform="translate(22.708 -12.877)" fill="#e8505b"/>
    </g>
  </g>
</svg>
