<svg id="seguridad" xmlns="http://www.w3.org/2000/svg" width="84.191" height="84.191" viewBox="0 0 84.191 84.191">
  <path id="Trazado_216220" data-name="Trazado 216220" d="M5.613,12.426a5.613,5.613,0,1,1,5.613-5.613A5.618,5.618,0,0,1,5.613,12.426Zm0-8.419A2.806,2.806,0,1,0,8.419,6.813,2.809,2.809,0,0,0,5.613,4.006Z" transform="translate(0 4.413)" fill="#30610c"/>
  <path id="Trazado_216221" data-name="Trazado 216221" d="M10.113,11.226a5.613,5.613,0,1,1,5.613-5.613A5.618,5.618,0,0,1,10.113,11.226Zm0-8.419a2.806,2.806,0,1,0,2.806,2.806A2.809,2.809,0,0,0,10.113,2.806Z" transform="translate(16.548)" fill="#30610c"/>
  <path id="Trazado_216222" data-name="Trazado 216222" d="M21.213,15.126a5.613,5.613,0,1,1,5.613-5.613A5.618,5.618,0,0,1,21.213,15.126Zm0-8.419a2.806,2.806,0,1,0,2.806,2.806A2.809,2.809,0,0,0,21.213,6.706Z" transform="translate(57.366 14.341)" fill="#30610c"/>
  <path id="Trazado_216223" data-name="Trazado 216223" d="M17.313,26.826a5.613,5.613,0,1,1,5.613-5.613A5.618,5.618,0,0,1,17.313,26.826Zm0-8.419a2.806,2.806,0,1,0,2.806,2.806A2.809,2.809,0,0,0,17.313,18.406Z" transform="translate(43.024 57.366)" fill="#30610c"/>
  <path id="Trazado_216224" data-name="Trazado 216224" d="M21.213,23.526a5.613,5.613,0,1,1,5.613-5.613A5.618,5.618,0,0,1,21.213,23.526Zm0-8.419a2.806,2.806,0,1,0,2.806,2.806A2.809,2.809,0,0,0,21.213,15.106Z" transform="translate(57.366 45.231)" fill="#30610c"/>
  <path id="Trazado_216225" data-name="Trazado 216225" d="M8.313,25.925a5.613,5.613,0,1,1,5.613-5.613A5.618,5.618,0,0,1,8.313,25.925Zm0-8.419a2.806,2.806,0,1,0,2.806,2.806A2.809,2.809,0,0,0,8.313,17.506Z" transform="translate(9.929 54.056)" fill="#30610c"/>
  <path id="Trazado_216226" data-name="Trazado 216226" d="M5.613,22.326a5.613,5.613,0,1,1,5.613-5.613A5.618,5.618,0,0,1,5.613,22.326Zm0-8.419a2.806,2.806,0,1,0,2.806,2.806A2.809,2.809,0,0,0,5.613,13.906Z" transform="translate(0 40.818)" fill="#30610c"/>
  <path id="Trazado_216227" data-name="Trazado 216227" d="M18.213,11.226a5.613,5.613,0,1,1,5.613-5.613A5.618,5.618,0,0,1,18.213,11.226Zm0-8.419a2.806,2.806,0,1,0,2.806,2.806A2.809,2.809,0,0,0,18.213,2.806Z" transform="translate(46.334)" fill="#30610c"/>
  <path id="Trazado_216228" data-name="Trazado 216228" d="M28.857,54.115A25.257,25.257,0,1,1,54.115,28.857,25.286,25.286,0,0,1,28.857,54.115Zm0-47.708A22.451,22.451,0,1,0,51.308,28.857,22.476,22.476,0,0,0,28.857,6.406Z" transform="translate(13.238 13.238)" fill="#30610c"/>
  <path id="Trazado_216229" data-name="Trazado 216229" d="M20.545,17.032H13.529A12.643,12.643,0,0,1,.9,4.4a1.4,1.4,0,0,1,2.806,0,9.833,9.833,0,0,0,9.822,9.822h7.016a1.4,1.4,0,1,1,0,2.806Z" transform="translate(3.31 11.032)" fill="#30610c"/>
  <path id="Trazado_216230" data-name="Trazado 216230" d="M17.129,25.026H5.9a1.4,1.4,0,1,1,0-2.806H17.129A7.024,7.024,0,0,0,24.145,15.2a1.4,1.4,0,1,1,2.806,0A9.833,9.833,0,0,1,17.129,25.026Z" transform="translate(16.548 50.747)" fill="#30610c"/>
  <path id="Trazado_216231" data-name="Trazado 216231" d="M17.235,14.806H3.2A1.4,1.4,0,1,1,3.2,12H17.235a1.4,1.4,0,1,1,0,2.806Z" transform="translate(6.619 44.128)" fill="#30610c"/>
  <path id="Trazado_216232" data-name="Trazado 216232" d="M18.929,7.916a1.4,1.4,0,0,1-1.4-1.4,2.809,2.809,0,0,0-2.806-2.806H7.7A1.4,1.4,0,1,1,7.7.9h7.016a5.618,5.618,0,0,1,5.613,5.613A1.4,1.4,0,0,1,18.929,7.916Z" transform="translate(23.167 3.31)" fill="#30610c"/>
  <path id="Trazado_216233" data-name="Trazado 216233" d="M10.1,13.026a1.4,1.4,0,0,1-1.4-1.4V3.2a1.4,1.4,0,0,1,2.806,0v8.419A1.4,1.4,0,0,1,10.1,13.026Z" transform="translate(31.993 6.619)" fill="#30610c"/>
  <path id="Trazado_216234" data-name="Trazado 216234" d="M12.5,15.832a1.4,1.4,0,0,1-1.4-1.4,5.618,5.618,0,0,1,5.613-5.613h4.21a1.406,1.406,0,0,0,1.4-1.4V3.2a1.4,1.4,0,1,1,2.806,0v4.21a4.215,4.215,0,0,1-4.21,4.21h-4.21a2.809,2.809,0,0,0-2.806,2.806A1.4,1.4,0,0,1,12.5,15.832Z" transform="translate(40.818 6.619)" fill="#30610c"/>
  <path id="Trazado_216235" data-name="Trazado 216235" d="M15.2,22.538a1.4,1.4,0,0,1-1.4-1.4,5.618,5.618,0,0,1,5.613-5.613h5.613a1.406,1.406,0,0,0,1.4-1.4V7.1a1.4,1.4,0,0,1,2.806,0v7.016a4.215,4.215,0,0,1-4.21,4.21H19.413a2.809,2.809,0,0,0-2.806,2.806A1.4,1.4,0,0,1,15.2,22.538Z" transform="translate(50.747 20.961)" fill="#30610c"/>
  <path id="Trazado_216236" data-name="Trazado 216236" d="M28.356,23.932a1.4,1.4,0,0,1-1.4-1.4v-4.21a1.406,1.406,0,0,0-1.4-1.4H18.534c-2.917,0-4.876-2.255-4.876-5.613a1.4,1.4,0,1,1,2.806,0c0,.845.2,2.806,2.07,2.806H25.55a4.215,4.215,0,0,1,4.21,4.21v4.21A1.4,1.4,0,0,1,28.356,23.932Z" transform="translate(50.223 36.405)" fill="#30610c"/>
  <path id="Trazado_216237" data-name="Trazado 216237" d="M19.519,23.022a1.4,1.4,0,0,1-1.4-1.4,1.406,1.406,0,0,0-1.4-1.4A5.618,5.618,0,0,1,11.1,14.6a1.4,1.4,0,0,1,2.806,0,2.809,2.809,0,0,0,2.806,2.806,4.215,4.215,0,0,1,4.21,4.21A1.4,1.4,0,0,1,19.519,23.022Z" transform="translate(40.818 48.54)" fill="#30610c"/>
  <path id="Trazado_216238" data-name="Trazado 216238" d="M14,21.716a1.4,1.4,0,0,1-1.4-1.4V16.1a1.4,1.4,0,0,1,2.806,0v4.21A1.4,1.4,0,0,1,14,21.716Z" transform="translate(46.334 54.056)" fill="#30610c"/>
  <path id="Trazado_216239" data-name="Trazado 216239" d="M30.154,27.745H7.7a1.4,1.4,0,0,1-1.4-1.4V9.5A1.4,1.4,0,0,1,7.7,8.1H30.154a1.4,1.4,0,0,1,1.4,1.4V26.341A1.4,1.4,0,0,1,30.154,27.745ZM9.106,24.938H28.751V10.906H9.106Z" transform="translate(23.167 29.786)" fill="#30610c"/>
  <path id="Trazado_216240" data-name="Trazado 216240" d="M17.622,17.719H9.2a1.4,1.4,0,0,1-1.4-1.4V10.7A1.4,1.4,0,0,1,9.2,9.3h8.419a1.4,1.4,0,0,1,1.4,1.4v5.613A1.4,1.4,0,0,1,17.622,17.719Zm-7.016-2.806h5.613V12.106H10.606Z" transform="translate(28.683 34.199)" fill="#30610c"/>
  <path id="Trazado_216241" data-name="Trazado 216241" d="M25.141,21.938H8.3a1.4,1.4,0,0,1-1.4-1.4V14.922a9.822,9.822,0,0,1,19.645,0v5.613A1.4,1.4,0,0,1,25.141,21.938ZM9.706,19.132H23.738v-4.21a7.016,7.016,0,0,0-14.032,0Z" transform="translate(25.373 18.754)" fill="#30610c"/>
  <path id="Trazado_216242" data-name="Trazado 216242" d="M15.116,17.526H9.5a1.4,1.4,0,0,1-1.4-1.4V10.51a4.21,4.21,0,0,1,8.419,0v5.613A1.4,1.4,0,0,1,15.116,17.526Zm-4.21-2.806h2.806V10.51a1.4,1.4,0,1,0-2.806,0Z" transform="translate(29.786 23.167)" fill="#30610c"/>
</svg>
