<svg xmlns="http://www.w3.org/2000/svg" width="229.809" height="237.978" viewBox="0 0 229.809 237.978">
  <g id="_1_Mesa_de_trabajo_1" data-name="1_Mesa de trabajo 1" transform="translate(-9.55 -3.024)">
    <path id="Trazado_212092" data-name="Trazado 212092" d="M115.65,59.489s-3.473-2.229-7.583,6.02a107.81,107.81,0,0,0-5.788,13.053s-1.071,1.737-2.286.608-2.894-4.312-4.833-3.7-2.894,2.894-2.344,6.367,1.1,10.969,1.158,11.577-.318,1.65-1.273,1.042-6.338-6.57-8.972-3.82,0,12.069.376,13.082,0,1.476-.405,1.737-2.113-1.91-3.734-3.531-3.734-3.213-5.152-1.5S73.018,109.1,79.819,120.5l3.473,5.065,6.251-.405c13.111-1.621,18.407-6.28,18.9-8.422s-2.084-2.894-4.37-3.126-4.949-.232-5.065-.781,0-.955,1.129-1.36,10.043-3.994,10.564-7.756-7.467-4.4-8.683-4.746-.55-1.245,0-1.621,6.917-4.486,9.869-6.251,4.4-3.762,3.589-5.788-4.283-1.3-5.788-1.563-.9-2-.9-2a106.6,106.6,0,0,0,6.772-12.5c3.994-8.335,0-9.7,0-9.7" transform="translate(122.021 106.437)" fill="#f67409"/>
    <path id="Trazado_212093" data-name="Trazado 212093" d="M108.475,61.87v.174l-.232.521-.926,1.968c-.81,1.737-2,4.2-3.473,7.264-2.894,6.107-7.062,14.471-11.577,23.819s-8.683,17.684-11.75,23.79l-3.5,7.207-.984,1.968-.232.521a.722.722,0,0,1,0,.174V129.1l.232-.521.926-2c.81-1.708,2-4.2,3.473-7.236,2.894-6.136,7.062-14.471,11.577-23.819s8.683-17.684,11.75-23.79l3.531-7.235.926-1.968.232-.492A.724.724,0,0,1,108.475,61.87Z" transform="translate(125.491 111.466)" fill="#263238"/>
    <path id="Trazado_212094" data-name="Trazado 212094" d="M82.069,66.4l.174.405.347,1.158c.289.984.637,2.344,1.013,3.849l.955,3.878.26,1.129v.434l-.174-.434a6.766,6.766,0,0,1-.347-1.158c-.289-.984-.637-2.344-1.013-3.849s-.695-2.894-.955-3.878l-.289-1.158Z" transform="translate(137.31 120.046)" fill="#263238"/>
    <path id="Trazado_212095" data-name="Trazado 212095" d="M83.23,72.608s2.894-.926,6.194-1.939,6.251-1.794,6.28-1.737-2.894.926-6.223,1.939S83.259,72.665,83.23,72.608Z" transform="translate(139.564 124.837)" fill="#263238"/>
    <path id="Trazado_212096" data-name="Trazado 212096" d="M80.57,75.189H86.3a37.365,37.365,0,0,0,4.052-.289h.029c-1.042,0-2.489.289-4.052.347s-2.894,0-4.081,0H81Z" transform="translate(134.526 136.147)" fill="#263238"/>
    <path id="Trazado_212097" data-name="Trazado 212097" d="M78.74,71.81l.26.347.608.955c.492.839,1.187,1.968,1.91,3.242s1.418,2.4,1.881,3.242l.55,1.013.174.376-.26-.347-.579-.955c-.521-.81-1.187-1.968-1.939-3.242s-1.418-2.4-1.881-3.242-.405-.781-.55-1.013Z" transform="translate(131.06 130.294)" fill="#263238"/>
    <path id="Trazado_212098" data-name="Trazado 212098" d="M75.85,75.76l.318.434.781,1.245,2.489,4.11c.984,1.621,1.823,3.1,2.46,4.168l.724,1.244.232.492-.318-.434-.781-1.245c-.637-1.042-1.534-2.489-2.489-4.11l-2.46-4.139-.724-1.273Z" transform="translate(125.585 137.776)" fill="#263238"/>
    <path id="Trazado_212099" data-name="Trazado 212099" d="M78.24,80.3h2.142c1.3,0,3.126-.145,5.152-.289s3.82-.318,5.123-.463l1.563-.174h0l-1.534.232c-1.331.174-3.126.376-5.152.521s-3.82.2-5.152.232H78.24Z" transform="translate(130.112 144.614)" fill="#263238"/>
    <path id="Trazado_212100" data-name="Trazado 212100" d="M21.235,42.818S21.09,36.19,21.09,28s0-14.789.145-14.789.174,6.628.174,14.789S21.322,42.818,21.235,42.818Z" transform="translate(21.859 19.294)" fill="#263238"/>
    <rect id="Rectángulo_43748" data-name="Rectángulo 43748" width="67.695" height="74.265" transform="translate(127.402 162.453)" fill="#263238"/>
    <rect id="Rectángulo_43749" data-name="Rectángulo 43749" width="74.005" height="18.349" transform="translate(117.533 177.33)" fill="#455a64"/>
    <rect id="Rectángulo_43750" data-name="Rectángulo 43750" width="14.558" height="2.229" transform="translate(120.832 181.092)" fill="#263238"/>
    <rect id="Rectángulo_43751" data-name="Rectángulo 43751" width="14.558" height="2.229" transform="translate(120.832 184.97)" fill="#263238"/>
    <rect id="Rectángulo_43752" data-name="Rectángulo 43752" width="14.558" height="2.229" transform="translate(120.832 188.935)" fill="#263238"/>
    <path id="Trazado_212101" data-name="Trazado 212101" d="M56.1,65.549a.839.839,0,1,1-.839-.839.839.839,0,0,1,.839.839Z" transform="translate(84.993 116.845)" fill="#263238"/>
    <path id="Trazado_212102" data-name="Trazado 212102" d="M57.389,65.55a.839.839,0,1,1-.81-.839A.839.839,0,0,1,57.389,65.55Z" transform="translate(87.436 116.845)" fill="#263238"/>
    <path id="Trazado_212103" data-name="Trazado 212103" d="M58.669,65.549a.839.839,0,1,1-.839-.839A.839.839,0,0,1,58.669,65.549Z" transform="translate(89.861 116.845)" fill="#263238"/>
    <path id="Trazado_212104" data-name="Trazado 212104" d="M59.939,65.549a.839.839,0,1,1-.839-.839A.839.839,0,0,1,59.939,65.549Z" transform="translate(92.266 116.845)" fill="#263238"/>
    <path id="Trazado_212105" data-name="Trazado 212105" d="M69.819,65.549a.839.839,0,1,1-.839-.839A.839.839,0,0,1,69.819,65.549Z" transform="translate(110.981 116.845)" fill="#263238"/>
    <path id="Trazado_212106" data-name="Trazado 212106" d="M71.1,65.549a.839.839,0,1,1-.839-.839A.839.839,0,0,1,71.1,65.549Z" transform="translate(113.406 116.845)" fill="#263238"/>
    <path id="Trazado_212107" data-name="Trazado 212107" d="M61.219,65.549a.839.839,0,1,1-.839-.839A.839.839,0,0,1,61.219,65.549Z" transform="translate(94.691 116.845)" fill="#263238"/>
    <path id="Trazado_212108" data-name="Trazado 212108" d="M67.45,65.549a.81.81,0,0,1-.81.839.839.839,0,0,1,0-1.679.81.81,0,0,1,.81.839Z" transform="translate(106.549 116.845)" fill="#263238"/>
    <path id="Trazado_212109" data-name="Trazado 212109" d="M62.489,65.549a.839.839,0,1,1-.839-.839.839.839,0,0,1,.839.839Z" transform="translate(97.097 116.845)" fill="#f5f5f5"/>
    <path id="Trazado_212110" data-name="Trazado 212110" d="M63.769,65.549a.839.839,0,1,1-.839-.839.839.839,0,0,1,.839.839Z" transform="translate(99.521 116.845)" fill="#f5f5f5"/>
    <path id="Trazado_212111" data-name="Trazado 212111" d="M66.349,65.549a.839.839,0,1,1-.839-.839A.839.839,0,0,1,66.349,65.549Z" transform="translate(104.408 116.845)" fill="#f5f5f5"/>
    <path id="Trazado_212112" data-name="Trazado 212112" d="M72.169,65.55a.839.839,0,1,1-.81-.839A.839.839,0,0,1,72.169,65.55Z" transform="translate(115.432 116.845)" fill="#f5f5f5"/>
    <path id="Trazado_212113" data-name="Trazado 212113" d="M65.039,65.549a.839.839,0,1,1-.839-.839A.839.839,0,0,1,65.039,65.549Z" transform="translate(101.927 116.845)" fill="#f67409"/>
    <path id="Trazado_212114" data-name="Trazado 212114" d="M68.689,65.549a.839.839,0,1,1-.839-.839.839.839,0,0,1,.839.839Z" transform="translate(108.841 116.845)" fill="#f67409"/>
    <path id="Trazado_212115" data-name="Trazado 212115" d="M70.5,66.959a.839.839,0,1,1,.839.839.839.839,0,0,1-.839-.839Z" transform="translate(115.451 119.516)" fill="#263238"/>
    <path id="Trazado_212116" data-name="Trazado 212116" d="M69.22,66.959a.839.839,0,1,1,.839.839.839.839,0,0,1-.839-.839Z" transform="translate(113.027 119.516)" fill="#263238"/>
    <path id="Trazado_212117" data-name="Trazado 212117" d="M68,66.959a.839.839,0,1,1,.839.839A.839.839,0,0,1,68,66.959Z" transform="translate(110.716 119.516)" fill="#263238"/>
    <path id="Trazado_212118" data-name="Trazado 212118" d="M66.67,66.959a.839.839,0,1,1,.839.839A.839.839,0,0,1,66.67,66.959Z" transform="translate(108.197 119.516)" fill="#263238"/>
    <path id="Trazado_212119" data-name="Trazado 212119" d="M56.8,66.959a.839.839,0,1,1,.839.839A.839.839,0,0,1,56.8,66.959Z" transform="translate(89.501 119.516)" fill="#263238"/>
    <path id="Trazado_212120" data-name="Trazado 212120" d="M55.5,66.959a.839.839,0,1,1,.839.839A.839.839,0,0,1,55.5,66.959Z" transform="translate(87.038 119.516)" fill="#263238"/>
    <path id="Trazado_212121" data-name="Trazado 212121" d="M65.4,66.959a.839.839,0,1,1,.839.839A.839.839,0,0,1,65.4,66.959Z" transform="translate(105.791 119.516)" fill="#263238"/>
    <path id="Trazado_212122" data-name="Trazado 212122" d="M59.14,66.959a.839.839,0,1,1,.839.839A.839.839,0,0,1,59.14,66.959Z" transform="translate(93.933 119.516)" fill="#263238"/>
    <path id="Trazado_212123" data-name="Trazado 212123" d="M64.12,66.959a.839.839,0,1,1,.839.839A.839.839,0,0,1,64.12,66.959Z" transform="translate(103.366 119.516)" fill="#f5f5f5"/>
    <path id="Trazado_212124" data-name="Trazado 212124" d="M62.85,66.959a.839.839,0,1,1,.839.839.839.839,0,0,1-.839-.839Z" transform="translate(100.961 119.516)" fill="#f5f5f5"/>
    <path id="Trazado_212125" data-name="Trazado 212125" d="M60.27,66.959a.81.81,0,0,1,.81-.839.839.839,0,1,1,0,1.679.81.81,0,0,1-.81-.839Z" transform="translate(96.073 119.516)" fill="#f5f5f5"/>
    <path id="Trazado_212126" data-name="Trazado 212126" d="M54.44,66.959a.839.839,0,1,1,.839.839.839.839,0,0,1-.839-.839Z" transform="translate(85.031 119.516)" fill="#f5f5f5"/>
    <path id="Trazado_212127" data-name="Trazado 212127" d="M61.58,66.959a.839.839,0,1,1,.839.839A.839.839,0,0,1,61.58,66.959Z" transform="translate(98.555 119.516)" fill="#f67409"/>
    <path id="Trazado_212128" data-name="Trazado 212128" d="M57.93,66.959a.839.839,0,1,1,.839.839A.839.839,0,0,1,57.93,66.959Z" transform="translate(91.641 119.516)" fill="#f67409"/>
    <circle id="Elipse_6988" data-name="Elipse 6988" cx="0.839" cy="0.839" r="0.839" transform="translate(139.471 189.225)" fill="#263238"/>
    <circle id="Elipse_6989" data-name="Elipse 6989" cx="0.839" cy="0.839" r="0.839" transform="translate(143.175 189.225)" fill="#263238"/>
    <circle id="Elipse_6990" data-name="Elipse 6990" cx="0.839" cy="0.839" r="0.839" transform="translate(146.851 189.225)" fill="#263238"/>
    <circle id="Elipse_6991" data-name="Elipse 6991" cx="0.839" cy="0.839" r="0.839" transform="translate(150.526 189.225)" fill="#263238"/>
    <circle id="Elipse_6992" data-name="Elipse 6992" cx="0.839" cy="0.839" r="0.839" transform="translate(179.121 189.225)" fill="#263238"/>
    <circle id="Elipse_6993" data-name="Elipse 6993" cx="0.839" cy="0.839" r="0.839" transform="translate(182.883 189.225)" fill="#263238"/>
    <circle id="Elipse_6994" data-name="Elipse 6994" cx="0.839" cy="0.839" r="0.839" transform="translate(154.231 189.225)" fill="#263238"/>
    <path id="Trazado_212129" data-name="Trazado 212129" d="M67.45,68.2a.81.81,0,0,1-.81.839.839.839,0,0,1,0-1.679.81.81,0,0,1,.81.839Z" transform="translate(106.549 121.865)" fill="#263238"/>
    <circle id="Elipse_6995" data-name="Elipse 6995" cx="0.839" cy="0.839" r="0.839" transform="translate(157.907 189.225)" fill="#f5f5f5"/>
    <path id="Trazado_212130" data-name="Trazado 212130" d="M63.769,68.2a.839.839,0,1,1-.839-.839.839.839,0,0,1,.839.839Z" transform="translate(99.521 121.865)" fill="#f5f5f5"/>
    <circle id="Elipse_6996" data-name="Elipse 6996" cx="0.839" cy="0.839" r="0.839" transform="translate(169.078 189.225)" fill="#f5f5f5"/>
    <path id="Trazado_212131" data-name="Trazado 212131" d="M72.169,68.2a.839.839,0,1,1-.81-.839A.839.839,0,0,1,72.169,68.2Z" transform="translate(115.432 121.864)" fill="#f5f5f5"/>
    <circle id="Elipse_6997" data-name="Elipse 6997" cx="0.839" cy="0.839" r="0.839" transform="translate(165.287 189.225)" fill="#f67409"/>
    <circle id="Elipse_6998" data-name="Elipse 6998" cx="0.839" cy="0.839" r="0.839" transform="translate(175.851 189.225)" fill="#f67409"/>
    <rect id="Rectángulo_43753" data-name="Rectángulo 43753" width="74.005" height="18.349" transform="translate(117.533 199.962)" fill="#455a64"/>
    <path id="Trazado_212132" data-name="Trazado 212132" d="M56.1,73.339a.839.839,0,1,1-.839-.839A.839.839,0,0,1,56.1,73.339Z" transform="translate(84.993 131.601)" fill="#263238"/>
    <path id="Trazado_212133" data-name="Trazado 212133" d="M57.329,73.339a.839.839,0,1,1-.839-.839.839.839,0,0,1,.839.839Z" transform="translate(87.323 131.601)" fill="#263238"/>
    <path id="Trazado_212134" data-name="Trazado 212134" d="M58.58,73.339a.781.781,0,0,1-.81.81.81.81,0,0,1-.839-.81.839.839,0,0,1,.839-.839.81.81,0,0,1,.81.839Z" transform="translate(89.747 131.601)" fill="#263238"/>
    <path id="Trazado_212135" data-name="Trazado 212135" d="M59.879,73.339a.839.839,0,1,1-.839-.839A.839.839,0,0,1,59.879,73.339Z" transform="translate(92.153 131.601)" fill="#263238"/>
    <path id="Trazado_212136" data-name="Trazado 212136" d="M69.739,73.441a.839.839,0,1,1-.361-.855A.839.839,0,0,1,69.739,73.441Z" transform="translate(110.858 131.499)" fill="#263238"/>
    <path id="Trazado_212137" data-name="Trazado 212137" d="M71.089,73.441a.839.839,0,1,1-.361-.855A.839.839,0,0,1,71.089,73.441Z" transform="translate(113.415 131.499)" fill="#263238"/>
    <path id="Trazado_212138" data-name="Trazado 212138" d="M61.139,73.441a.839.839,0,1,1-.361-.855A.839.839,0,0,1,61.139,73.441Z" transform="translate(94.568 131.499)" fill="#263238"/>
    <path id="Trazado_212139" data-name="Trazado 212139" d="M67.409,73.339a.839.839,0,1,1-.839-.839A.839.839,0,0,1,67.409,73.339Z" transform="translate(106.416 131.601)" fill="#263238"/>
    <path id="Trazado_212140" data-name="Trazado 212140" d="M62.429,73.339a.839.839,0,1,1-.839-.839A.839.839,0,0,1,62.429,73.339Z" transform="translate(96.983 131.601)" fill="#f5f5f5"/>
    <path id="Trazado_212141" data-name="Trazado 212141" d="M63.7,73.339a.839.839,0,1,1-.839-.839.839.839,0,0,1,.839.839Z" transform="translate(99.389 131.601)" fill="#f5f5f5"/>
    <path id="Trazado_212142" data-name="Trazado 212142" d="M66.289,73.339a.839.839,0,1,1-.839-.839A.839.839,0,0,1,66.289,73.339Z" transform="translate(104.295 131.601)" fill="#f5f5f5"/>
    <path id="Trazado_212143" data-name="Trazado 212143" d="M72.1,73.339a.839.839,0,1,1-.839-.839A.839.839,0,0,1,72.1,73.339Z" transform="translate(115.3 131.601)" fill="#f5f5f5"/>
    <path id="Trazado_212144" data-name="Trazado 212144" d="M64.979,73.339a.839.839,0,1,1-.839-.839.839.839,0,0,1,.839.839Z" transform="translate(101.813 131.601)" fill="#f67409"/>
    <path id="Trazado_212145" data-name="Trazado 212145" d="M68.6,73.339a.781.781,0,0,1-.81.81.81.81,0,0,1-.839-.81.839.839,0,0,1,.839-.839.81.81,0,0,1,.81.839Z" transform="translate(108.727 131.601)" fill="#f67409"/>
    <path id="Trazado_212146" data-name="Trazado 212146" d="M70.43,74.729a.839.839,0,1,1,.839.839A.839.839,0,0,1,70.43,74.729Z" transform="translate(115.319 134.234)" fill="#263238"/>
    <path id="Trazado_212147" data-name="Trazado 212147" d="M69.16,74.729a.839.839,0,1,1,.839.839A.839.839,0,0,1,69.16,74.729Z" transform="translate(112.913 134.234)" fill="#263238"/>
    <path id="Trazado_212148" data-name="Trazado 212148" d="M67.88,74.729a.839.839,0,1,1,.839.839A.839.839,0,0,1,67.88,74.729Z" transform="translate(110.489 134.234)" fill="#263238"/>
    <path id="Trazado_212149" data-name="Trazado 212149" d="M66.61,74.729a.839.839,0,1,1,.839.839A.839.839,0,0,1,66.61,74.729Z" transform="translate(108.083 134.234)" fill="#263238"/>
    <path id="Trazado_212150" data-name="Trazado 212150" d="M56.74,74.729a.81.81,0,0,1,.81-.839.839.839,0,0,1,0,1.679.81.81,0,0,1-.81-.839Z" transform="translate(89.387 134.234)" fill="#263238"/>
    <path id="Trazado_212151" data-name="Trazado 212151" d="M55.44,74.729a.839.839,0,1,1,.81.839A.839.839,0,0,1,55.44,74.729Z" transform="translate(86.925 134.234)" fill="#263238"/>
    <path id="Trazado_212152" data-name="Trazado 212152" d="M65.34,74.729a.839.839,0,1,1,.81.839A.839.839,0,0,1,65.34,74.729Z" transform="translate(105.677 134.234)" fill="#263238"/>
    <path id="Trazado_212153" data-name="Trazado 212153" d="M59.08,74.729a.839.839,0,1,1,.839.839A.839.839,0,0,1,59.08,74.729Z" transform="translate(93.82 134.234)" fill="#263238"/>
    <path id="Trazado_212154" data-name="Trazado 212154" d="M64.06,74.729a.839.839,0,1,1,.839.839A.839.839,0,0,1,64.06,74.729Z" transform="translate(103.253 134.234)" fill="#f5f5f5"/>
    <path id="Trazado_212155" data-name="Trazado 212155" d="M62.79,74.729a.839.839,0,1,1,.839.839.839.839,0,0,1-.839-.839Z" transform="translate(100.847 134.234)" fill="#f5f5f5"/>
    <path id="Trazado_212156" data-name="Trazado 212156" d="M60.2,74.729a.839.839,0,1,1,.839.839.839.839,0,0,1-.839-.839Z" transform="translate(95.941 134.234)" fill="#f5f5f5"/>
    <path id="Trazado_212157" data-name="Trazado 212157" d="M54.38,74.729a.839.839,0,1,1,.839.839A.839.839,0,0,1,54.38,74.729Z" transform="translate(84.917 134.234)" fill="#f5f5f5"/>
    <path id="Trazado_212158" data-name="Trazado 212158" d="M61.51,74.729a.839.839,0,1,1,.839.839A.839.839,0,0,1,61.51,74.729Z" transform="translate(98.422 134.234)" fill="#f67409"/>
    <path id="Trazado_212159" data-name="Trazado 212159" d="M57.86,74.729a.839.839,0,1,1,.839.839A.839.839,0,0,1,57.86,74.729Z" transform="translate(91.509 134.234)" fill="#f67409"/>
    <circle id="Elipse_6999" data-name="Elipse 6999" cx="0.839" cy="0.839" r="0.839" transform="translate(139.297 211.713)" fill="#263238"/>
    <circle id="Elipse_7000" data-name="Elipse 7000" cx="0.839" cy="0.839" r="0.839" transform="translate(142.973 211.713)" fill="#263238"/>
    <circle id="Elipse_7001" data-name="Elipse 7001" cx="0.839" cy="0.839" r="0.839" transform="translate(146.677 211.713)" fill="#263238"/>
    <circle id="Elipse_7002" data-name="Elipse 7002" cx="0.839" cy="0.839" r="0.839" transform="translate(150.353 211.713)" fill="#263238"/>
    <circle id="Elipse_7003" data-name="Elipse 7003" cx="0.839" cy="0.839" r="0.839" transform="translate(178.947 211.713)" fill="#263238"/>
    <circle id="Elipse_7004" data-name="Elipse 7004" cx="0.839" cy="0.839" r="0.839" transform="translate(182.681 211.713)" fill="#263238"/>
    <circle id="Elipse_7005" data-name="Elipse 7005" cx="0.839" cy="0.839" r="0.839" transform="translate(154.028 211.713)" fill="#263238"/>
    <circle id="Elipse_7006" data-name="Elipse 7006" cx="0.839" cy="0.839" r="0.839" transform="translate(172.146 211.713)" fill="#263238"/>
    <circle id="Elipse_7007" data-name="Elipse 7007" cx="0.839" cy="0.839" r="0.839" transform="translate(157.733 211.713)" fill="#f5f5f5"/>
    <circle id="Elipse_7008" data-name="Elipse 7008" cx="0.839" cy="0.839" r="0.839" transform="translate(161.409 211.713)" fill="#f5f5f5"/>
    <circle id="Elipse_7009" data-name="Elipse 7009" cx="0.839" cy="0.839" r="0.839" transform="translate(168.905 211.713)" fill="#f5f5f5"/>
    <path id="Trazado_212160" data-name="Trazado 212160" d="M72.1,75.969a.839.839,0,1,1-.839-.839.839.839,0,0,1,.839.839Z" transform="translate(115.3 136.583)" fill="#f5f5f5"/>
    <circle id="Elipse_7010" data-name="Elipse 7010" cx="0.839" cy="0.839" r="0.839" transform="translate(165.113 211.713)" fill="#f67409"/>
    <circle id="Elipse_7011" data-name="Elipse 7011" cx="0.839" cy="0.839" r="0.839" transform="translate(175.677 211.713)" fill="#f67409"/>
    <rect id="Rectángulo_43754" data-name="Rectángulo 43754" width="14.558" height="2.229" transform="translate(120.832 203.754)" fill="#263238"/>
    <rect id="Rectángulo_43755" data-name="Rectángulo 43755" width="14.558" height="2.229" transform="translate(120.832 207.603)" fill="#263238"/>
    <rect id="Rectángulo_43756" data-name="Rectángulo 43756" width="14.558" height="2.229" transform="translate(120.832 211.597)" fill="#263238"/>
    <rect id="Rectángulo_43757" data-name="Rectángulo 43757" width="74.005" height="18.349" transform="translate(117.533 222.624)" fill="#455a64"/>
    <rect id="Rectángulo_43758" data-name="Rectángulo 43758" width="14.558" height="2.229" transform="translate(120.832 226.415)" fill="#263238"/>
    <rect id="Rectángulo_43759" data-name="Rectángulo 43759" width="14.558" height="2.229" transform="translate(120.832 230.264)" fill="#263238"/>
    <rect id="Rectángulo_43760" data-name="Rectángulo 43760" width="14.558" height="2.229" transform="translate(120.832 234.258)" fill="#263238"/>
    <path id="Trazado_212161" data-name="Trazado 212161" d="M55.959,81.159a.839.839,0,1,1-.839-.839.839.839,0,0,1,.839.839Z" transform="translate(84.727 146.414)" fill="#263238"/>
    <path id="Trazado_212162" data-name="Trazado 212162" d="M57.239,81.159a.839.839,0,1,1-.839-.839.839.839,0,0,1,.839.839Z" transform="translate(87.152 146.414)" fill="#263238"/>
    <path id="Trazado_212163" data-name="Trazado 212163" d="M58.509,81.159a.839.839,0,1,1-.839-.839.839.839,0,0,1,.839.839Z" transform="translate(89.558 146.414)" fill="#263238"/>
    <path id="Trazado_212164" data-name="Trazado 212164" d="M59.789,81.159a.839.839,0,1,1-.839-.839.839.839,0,0,1,.839.839Z" transform="translate(91.982 146.414)" fill="#263238"/>
    <path id="Trazado_212165" data-name="Trazado 212165" d="M69.659,81.159a.839.839,0,1,1-.839-.839.839.839,0,0,1,.839.839Z" transform="translate(110.678 146.414)" fill="#263238"/>
    <path id="Trazado_212166" data-name="Trazado 212166" d="M70.959,81.159a.839.839,0,1,1-.839-.839.839.839,0,0,1,.839.839Z" transform="translate(113.14 146.414)" fill="#263238"/>
    <path id="Trazado_212167" data-name="Trazado 212167" d="M61.1,81.159a.839.839,0,1,1-.839-.839.839.839,0,0,1,.839.839Z" transform="translate(94.464 146.414)" fill="#263238"/>
    <path id="Trazado_212168" data-name="Trazado 212168" d="M67.319,81.159a.839.839,0,1,1-.839-.839.839.839,0,0,1,.839.839Z" transform="translate(106.246 146.414)" fill="#263238"/>
    <path id="Trazado_212169" data-name="Trazado 212169" d="M62.339,81.159a.839.839,0,1,1-.839-.839.839.839,0,0,1,.839.839Z" transform="translate(96.812 146.414)" fill="#f5f5f5"/>
    <path id="Trazado_212170" data-name="Trazado 212170" d="M63.609,81.159a.839.839,0,1,1-.839-.839.839.839,0,0,1,.839.839Z" transform="translate(99.218 146.414)" fill="#f5f5f5"/>
    <path id="Trazado_212171" data-name="Trazado 212171" d="M66.17,81.159a.81.81,0,0,1-.81.839.839.839,0,1,1,0-1.679.81.81,0,0,1,.81.839Z" transform="translate(104.124 146.414)" fill="#f5f5f5"/>
    <path id="Trazado_212172" data-name="Trazado 212172" d="M72.019,81.159a.839.839,0,1,1-.839-.839.839.839,0,0,1,.839.839Z" transform="translate(115.148 146.414)" fill="#f5f5f5"/>
    <path id="Trazado_212173" data-name="Trazado 212173" d="M64.879,81.16a.839.839,0,1,1-.81-.839.839.839,0,0,1,.81.839Z" transform="translate(101.624 146.413)" fill="#f67409"/>
    <path id="Trazado_212174" data-name="Trazado 212174" d="M68.529,81.159a.839.839,0,1,1-.839-.839.839.839,0,0,1,.839.839Z" transform="translate(108.538 146.414)" fill="#f67409"/>
    <path id="Trazado_212175" data-name="Trazado 212175" d="M70.34,82.549a.839.839,0,1,1,.839.839A.839.839,0,0,1,70.34,82.549Z" transform="translate(115.148 149.046)" fill="#263238"/>
    <path id="Trazado_212176" data-name="Trazado 212176" d="M69.07,82.549a.839.839,0,1,1,.839.839A.839.839,0,0,1,69.07,82.549Z" transform="translate(112.743 149.046)" fill="#263238"/>
    <path id="Trazado_212177" data-name="Trazado 212177" d="M67.79,82.549a.839.839,0,1,1,.839.839A.839.839,0,0,1,67.79,82.549Z" transform="translate(110.318 149.046)" fill="#263238"/>
    <path id="Trazado_212178" data-name="Trazado 212178" d="M66.52,82.549a.839.839,0,1,1,.839.839A.839.839,0,0,1,66.52,82.549Z" transform="translate(107.912 149.046)" fill="#263238"/>
    <path id="Trazado_212179" data-name="Trazado 212179" d="M56.64,82.549a.839.839,0,1,1,.839.839A.839.839,0,0,1,56.64,82.549Z" transform="translate(89.198 149.046)" fill="#263238"/>
    <path id="Trazado_212180" data-name="Trazado 212180" d="M55.34,82.549a.839.839,0,1,1,.839.839.839.839,0,0,1-.839-.839Z" transform="translate(86.735 149.046)" fill="#263238"/>
    <path id="Trazado_212181" data-name="Trazado 212181" d="M65.24,82.549a.839.839,0,1,1,.839.839.839.839,0,0,1-.839-.839Z" transform="translate(105.488 149.046)" fill="#263238"/>
    <path id="Trazado_212182" data-name="Trazado 212182" d="M59,82.54a.81.81,0,0,1,.81-.81.839.839,0,1,1,0,1.65A.81.81,0,0,1,59,82.54Z" transform="translate(93.668 149.056)" fill="#263238"/>
    <path id="Trazado_212183" data-name="Trazado 212183" d="M64,82.549a.839.839,0,1,1,.839.839A.839.839,0,0,1,64,82.549Z" transform="translate(103.139 149.046)" fill="#f5f5f5"/>
    <path id="Trazado_212184" data-name="Trazado 212184" d="M62.69,82.549a.839.839,0,1,1,.839.839A.839.839,0,0,1,62.69,82.549Z" transform="translate(100.658 149.046)" fill="#f5f5f5"/>
    <path id="Trazado_212185" data-name="Trazado 212185" d="M60.11,82.549a.839.839,0,1,1,.839.839A.839.839,0,0,1,60.11,82.549Z" transform="translate(95.771 149.046)" fill="#f5f5f5"/>
    <path id="Trazado_212186" data-name="Trazado 212186" d="M54.3,82.448a.839.839,0,1,1,.361.855.839.839,0,0,1-.361-.855Z" transform="translate(84.737 149.148)" fill="#f5f5f5"/>
    <path id="Trazado_212187" data-name="Trazado 212187" d="M61.42,82.549a.839.839,0,1,1,.839.839A.839.839,0,0,1,61.42,82.549Z" transform="translate(98.252 149.046)" fill="#f67409"/>
    <path id="Trazado_212188" data-name="Trazado 212188" d="M57.77,82.549a.839.839,0,1,1,.839.839A.839.839,0,0,1,57.77,82.549Z" transform="translate(91.338 149.046)" fill="#f67409"/>
    <path id="Trazado_212189" data-name="Trazado 212189" d="M55.959,83.789a.839.839,0,1,1-.839-.839A.839.839,0,0,1,55.959,83.789Z" transform="translate(84.727 151.395)" fill="#263238"/>
    <path id="Trazado_212190" data-name="Trazado 212190" d="M57.239,83.789a.839.839,0,1,1-.839-.839A.839.839,0,0,1,57.239,83.789Z" transform="translate(87.152 151.395)" fill="#263238"/>
    <path id="Trazado_212191" data-name="Trazado 212191" d="M58.509,83.789a.839.839,0,1,1-.839-.839A.839.839,0,0,1,58.509,83.789Z" transform="translate(89.558 151.395)" fill="#263238"/>
    <path id="Trazado_212192" data-name="Trazado 212192" d="M59.78,83.695A.839.839,0,1,1,58.941,83a.839.839,0,0,1,.839.695Z" transform="translate(91.99 151.49)" fill="#263238"/>
    <path id="Trazado_212193" data-name="Trazado 212193" d="M69.659,83.789a.839.839,0,1,1-.839-.839A.839.839,0,0,1,69.659,83.789Z" transform="translate(110.678 151.395)" fill="#263238"/>
    <path id="Trazado_212194" data-name="Trazado 212194" d="M70.959,83.789a.839.839,0,1,1-.839-.839A.839.839,0,0,1,70.959,83.789Z" transform="translate(113.14 151.395)" fill="#263238"/>
    <path id="Trazado_212195" data-name="Trazado 212195" d="M61.1,83.789a.839.839,0,1,1-.839-.839A.839.839,0,0,1,61.1,83.789Z" transform="translate(94.464 151.395)" fill="#263238"/>
    <path id="Trazado_212196" data-name="Trazado 212196" d="M67.319,83.789a.839.839,0,1,1-.839-.839.839.839,0,0,1,.839.839Z" transform="translate(106.246 151.395)" fill="#263238"/>
    <path id="Trazado_212197" data-name="Trazado 212197" d="M62.332,83.7a.839.839,0,1,1-.695-.695A.839.839,0,0,1,62.332,83.7Z" transform="translate(96.819 151.483)" fill="#f5f5f5"/>
    <path id="Trazado_212198" data-name="Trazado 212198" d="M63.609,83.789a.839.839,0,1,1-.839-.839A.839.839,0,0,1,63.609,83.789Z" transform="translate(99.218 151.395)" fill="#f5f5f5"/>
    <path id="Trazado_212199" data-name="Trazado 212199" d="M66.17,83.789a.81.81,0,0,1-.81.839.839.839,0,1,1,0-1.679.81.81,0,0,1,.81.839Z" transform="translate(104.124 151.395)" fill="#f5f5f5"/>
    <path id="Trazado_212200" data-name="Trazado 212200" d="M72.019,83.789a.839.839,0,1,1-.839-.839A.839.839,0,0,1,72.019,83.789Z" transform="translate(115.148 151.395)" fill="#f5f5f5"/>
    <path id="Trazado_212201" data-name="Trazado 212201" d="M64.87,83.695A.839.839,0,1,1,64.06,83a.839.839,0,0,1,.81.695Z" transform="translate(101.632 151.49)" fill="#f67409"/>
    <path id="Trazado_212202" data-name="Trazado 212202" d="M68.529,83.789a.839.839,0,1,1-.839-.839A.839.839,0,0,1,68.529,83.789Z" transform="translate(108.538 151.395)" fill="#f67409"/>
    <path id="Trazado_212203" data-name="Trazado 212203" d="M83.544,81.589l-11.114.029V63.269l11.114-.029Z" transform="translate(119.107 114.061)" fill="#263238"/>
    <path id="Trazado_212204" data-name="Trazado 212204" d="M83.544,73.9l-11.114.029V55.549l11.114-.029Z" transform="translate(119.107 99.437)" fill="#263238"/>
    <path id="Trazado_212205" data-name="Trazado 212205" d="M83.544,89.369,72.43,89.4V71.049l11.114-.029Z" transform="translate(119.107 128.798)" fill="#263238"/>
    <path id="Trazado_212206" data-name="Trazado 212206" d="M83.544,97.239,72.43,97.3V78.919l11.114-.029Z" transform="translate(119.107 143.705)" fill="#263238"/>
    <rect id="Rectángulo_43761" data-name="Rectángulo 43761" width="74.005" height="18.349" transform="translate(118.082 154.842)" fill="#455a64"/>
    <rect id="Rectángulo_43762" data-name="Rectángulo 43762" width="14.558" height="2.229" transform="translate(121.353 158.604)" fill="#263238"/>
    <rect id="Rectángulo_43763" data-name="Rectángulo 43763" width="14.558" height="2.229" transform="translate(121.353 162.453)" fill="#263238"/>
    <rect id="Rectángulo_43764" data-name="Rectángulo 43764" width="14.558" height="2.229" transform="translate(121.353 166.447)" fill="#263238"/>
    <path id="Trazado_212207" data-name="Trazado 212207" d="M56.28,57.8a.81.81,0,0,1-.81.839.839.839,0,1,1,0-1.679.81.81,0,0,1,.81.839Z" transform="translate(85.39 102.165)" fill="#263238"/>
    <path id="Trazado_212208" data-name="Trazado 212208" d="M57.579,57.8a.839.839,0,1,1-.839-.839.839.839,0,0,1,.839.839Z" transform="translate(87.796 102.165)" fill="#263238"/>
    <path id="Trazado_212209" data-name="Trazado 212209" d="M58.849,57.8a.839.839,0,1,1-.839-.839A.839.839,0,0,1,58.849,57.8Z" transform="translate(90.202 102.165)" fill="#263238"/>
    <path id="Trazado_212210" data-name="Trazado 212210" d="M60.1,57.8a.839.839,0,1,1-.839-.839.839.839,0,0,1,.839.839Z" transform="translate(92.569 102.165)" fill="#263238"/>
    <path id="Trazado_212211" data-name="Trazado 212211" d="M70,57.8a.839.839,0,1,1-.839-.839A.839.839,0,0,1,70,57.8Z" transform="translate(111.322 102.165)" fill="#263238"/>
    <path id="Trazado_212212" data-name="Trazado 212212" d="M71.3,57.8a.839.839,0,1,1-.839-.839A.839.839,0,0,1,71.3,57.8Z" transform="translate(113.784 102.165)" fill="#263238"/>
    <path id="Trazado_212213" data-name="Trazado 212213" d="M61.393,57.724A.839.839,0,1,1,60.525,57,.839.839,0,0,1,61.393,57.724Z" transform="translate(95.037 102.24)" fill="#263238"/>
    <path id="Trazado_212214" data-name="Trazado 212214" d="M67.659,57.8a.839.839,0,1,1-.839-.839A.839.839,0,0,1,67.659,57.8Z" transform="translate(106.89 102.165)" fill="#263238"/>
    <path id="Trazado_212215" data-name="Trazado 212215" d="M62.679,57.8a.839.839,0,1,1-.839-.839A.839.839,0,0,1,62.679,57.8Z" transform="translate(97.456 102.165)" fill="#f5f5f5"/>
    <path id="Trazado_212216" data-name="Trazado 212216" d="M63.949,57.8a.839.839,0,1,1-.839-.839A.839.839,0,0,1,63.949,57.8Z" transform="translate(99.862 102.165)" fill="#f5f5f5"/>
    <path id="Trazado_212217" data-name="Trazado 212217" d="M66.539,57.8a.839.839,0,1,1-.839-.839A.839.839,0,0,1,66.539,57.8Z" transform="translate(104.768 102.165)" fill="#f5f5f5"/>
    <path id="Trazado_212218" data-name="Trazado 212218" d="M72.354,57.726A.839.839,0,1,1,71.6,57,.839.839,0,0,1,72.354,57.726Z" transform="translate(115.797 102.238)" fill="#f5f5f5"/>
    <path id="Trazado_212219" data-name="Trazado 212219" d="M65.2,57.8a.81.81,0,0,1-.81.839.839.839,0,1,1,0-1.679.81.81,0,0,1,.81.839Z" transform="translate(102.287 102.165)" fill="#f67409"/>
    <path id="Trazado_212220" data-name="Trazado 212220" d="M68.869,57.8a.839.839,0,1,1-.839-.839A.839.839,0,0,1,68.869,57.8Z" transform="translate(109.182 102.165)" fill="#f67409"/>
    <path id="Trazado_212221" data-name="Trazado 212221" d="M70.68,59.189a.839.839,0,1,1,.839.839A.839.839,0,0,1,70.68,59.189Z" transform="translate(115.792 104.798)" fill="#263238"/>
    <path id="Trazado_212222" data-name="Trazado 212222" d="M69.41,59.189a.839.839,0,1,1,.839.839A.839.839,0,0,1,69.41,59.189Z" transform="translate(113.387 104.798)" fill="#263238"/>
    <path id="Trazado_212223" data-name="Trazado 212223" d="M68.13,59.189a.839.839,0,1,1,.839.839A.839.839,0,0,1,68.13,59.189Z" transform="translate(110.962 104.798)" fill="#263238"/>
    <path id="Trazado_212224" data-name="Trazado 212224" d="M66.86,59.189a.839.839,0,1,1,.839.839A.839.839,0,0,1,66.86,59.189Z" transform="translate(108.556 104.798)" fill="#263238"/>
    <path id="Trazado_212225" data-name="Trazado 212225" d="M57,59.189a.839.839,0,1,1,.839.839A.839.839,0,0,1,57,59.189Z" transform="translate(89.88 104.798)" fill="#263238"/>
    <path id="Trazado_212226" data-name="Trazado 212226" d="M55.68,59.189a.839.839,0,1,1,.839.839A.839.839,0,0,1,55.68,59.189Z" transform="translate(87.379 104.798)" fill="#263238"/>
    <path id="Trazado_212227" data-name="Trazado 212227" d="M65.58,59.189a.839.839,0,1,1,.839.839A.839.839,0,0,1,65.58,59.189Z" transform="translate(106.132 104.798)" fill="#263238"/>
    <path id="Trazado_212228" data-name="Trazado 212228" d="M59.33,59.189a.839.839,0,1,1,.839.839A.839.839,0,0,1,59.33,59.189Z" transform="translate(94.293 104.798)" fill="#263238"/>
    <path id="Trazado_212229" data-name="Trazado 212229" d="M64.31,59.189a.839.839,0,1,1,.839.839A.839.839,0,0,1,64.31,59.189Z" transform="translate(103.726 104.798)" fill="#f5f5f5"/>
    <path id="Trazado_212230" data-name="Trazado 212230" d="M63,59.189a.839.839,0,1,1,.81.839A.839.839,0,0,1,63,59.189Z" transform="translate(101.245 104.798)" fill="#f5f5f5"/>
    <path id="Trazado_212231" data-name="Trazado 212231" d="M60.45,59.189a.839.839,0,1,1,.839.839A.839.839,0,0,1,60.45,59.189Z" transform="translate(96.415 104.798)" fill="#f5f5f5"/>
    <path id="Trazado_212232" data-name="Trazado 212232" d="M54.63,59.189a.839.839,0,1,1,.839.839.839.839,0,0,1-.839-.839Z" transform="translate(85.39 104.798)" fill="#f5f5f5"/>
    <path id="Trazado_212233" data-name="Trazado 212233" d="M61.76,59.189a.839.839,0,1,1,.839.839A.839.839,0,0,1,61.76,59.189Z" transform="translate(98.896 104.798)" fill="#f67409"/>
    <path id="Trazado_212234" data-name="Trazado 212234" d="M58.11,59.189a.839.839,0,1,1,.839.839A.839.839,0,0,1,58.11,59.189Z" transform="translate(91.982 104.798)" fill="#f67409"/>
    <path id="Trazado_212235" data-name="Trazado 212235" d="M56.28,60.429a.81.81,0,0,1-.81.839.839.839,0,1,1,0-1.679.81.81,0,0,1,.81.839Z" transform="translate(85.39 107.147)" fill="#263238"/>
    <path id="Trazado_212236" data-name="Trazado 212236" d="M57.579,60.429a.839.839,0,1,1-.839-.839.839.839,0,0,1,.839.839Z" transform="translate(87.796 107.147)" fill="#263238"/>
    <path id="Trazado_212237" data-name="Trazado 212237" d="M58.849,60.429a.839.839,0,1,1-.839-.839A.839.839,0,0,1,58.849,60.429Z" transform="translate(90.202 107.147)" fill="#263238"/>
    <path id="Trazado_212238" data-name="Trazado 212238" d="M60.1,60.429a.839.839,0,1,1-.839-.839.839.839,0,0,1,.839.839Z" transform="translate(92.569 107.147)" fill="#263238"/>
    <path id="Trazado_212239" data-name="Trazado 212239" d="M70,60.429a.839.839,0,1,1-.839-.839A.839.839,0,0,1,70,60.429Z" transform="translate(111.322 107.147)" fill="#263238"/>
    <path id="Trazado_212240" data-name="Trazado 212240" d="M71.3,60.429a.839.839,0,1,1-.839-.839A.839.839,0,0,1,71.3,60.429Z" transform="translate(113.784 107.147)" fill="#263238"/>
    <path id="Trazado_212241" data-name="Trazado 212241" d="M61.4,60.429a.839.839,0,1,1-.839-.839A.839.839,0,0,1,61.4,60.429Z" transform="translate(95.032 107.147)" fill="#263238"/>
    <path id="Trazado_212242" data-name="Trazado 212242" d="M67.659,60.429a.839.839,0,1,1-.839-.839A.839.839,0,0,1,67.659,60.429Z" transform="translate(106.89 107.147)" fill="#263238"/>
    <path id="Trazado_212243" data-name="Trazado 212243" d="M62.679,60.429a.839.839,0,1,1-.839-.839A.839.839,0,0,1,62.679,60.429Z" transform="translate(97.456 107.147)" fill="#f5f5f5"/>
    <path id="Trazado_212244" data-name="Trazado 212244" d="M63.949,60.429a.839.839,0,1,1-.839-.839A.839.839,0,0,1,63.949,60.429Z" transform="translate(99.862 107.147)" fill="#f5f5f5"/>
    <path id="Trazado_212245" data-name="Trazado 212245" d="M66.539,60.429a.839.839,0,1,1-.839-.839A.839.839,0,0,1,66.539,60.429Z" transform="translate(104.768 107.147)" fill="#f5f5f5"/>
    <path id="Trazado_212246" data-name="Trazado 212246" d="M72.359,60.429a.839.839,0,1,1-.839-.839A.839.839,0,0,1,72.359,60.429Z" transform="translate(115.792 107.147)" fill="#f5f5f5"/>
    <path id="Trazado_212247" data-name="Trazado 212247" d="M65.2,60.429a.81.81,0,0,1-.81.839.839.839,0,1,1,0-1.679.81.81,0,0,1,.81.839Z" transform="translate(102.287 107.147)" fill="#f67409"/>
    <path id="Trazado_212248" data-name="Trazado 212248" d="M68.869,60.429a.839.839,0,1,1-.839-.839A.839.839,0,0,1,68.869,60.429Z" transform="translate(109.182 107.147)" fill="#f67409"/>
    <path id="Trazado_212249" data-name="Trazado 212249" d="M30.52,10h119.7a19.073,19.073,0,0,1,6.107.926,16.844,16.844,0,0,1,5.325,2.894,17.539,17.539,0,0,1,6.107,10.043,28.015,28.015,0,0,1,.347,5.788V95.669a7.264,7.264,0,0,1-.637,3.27,6.888,6.888,0,0,1-4.6,3.676,10.3,10.3,0,0,1-2.634.2h0a10.1,10.1,0,0,0,2.6-.2,6.657,6.657,0,0,0,4.4-3.647,7,7,0,0,0,.695-3.386v-66.1a29.29,29.29,0,0,0-.318-5.788A17.047,17.047,0,0,0,156.36,11.072a18.147,18.147,0,0,0-5.991-.926H30.52Z" transform="translate(39.721 13.213)" fill="#263238"/>
    <rect id="Rectángulo_43765" data-name="Rectángulo 43765" width="58.029" height="177.733" transform="translate(9.666 62.922)" fill="#ebebeb"/>
    <path id="Trazado_212250" data-name="Trazado 212250" d="M75.483,201.453H29.7L29.61,23.72H75.483Z" transform="translate(37.998 39.202)" fill="#e0e0e0"/>
    <rect id="Rectángulo_43766" data-name="Rectángulo 43766" width="49.23" height="13.863" transform="translate(12.878 91.372)" fill="#263238"/>
    <rect id="Rectángulo_43767" data-name="Rectángulo 43767" width="2.749" height="10.593" transform="translate(14.268 93.108)" fill="#455a64"/>
    <path id="Trazado_212251" data-name="Trazado 212251" d="M14.387,35.489a.868.868,0,1,1-.868-.868.839.839,0,0,1,.868.868Z" transform="translate(5.872 59.848)" fill="#fff"/>
    <path id="Trazado_212252" data-name="Trazado 212252" d="M14.386,36.807a.868.868,0,1,1-.244-.633A.868.868,0,0,1,14.386,36.807Z" transform="translate(5.872 62.292)" fill="#fff"/>
    <rect id="Rectángulo_43768" data-name="Rectángulo 43768" width="2.721" height="8.133" transform="translate(23.761 94.469)" fill="#455a64"/>
    <rect id="Rectángulo_43769" data-name="Rectángulo 43769" width="2.721" height="8.133" transform="translate(27.668 94.469)" fill="#455a64"/>
    <rect id="Rectángulo_43770" data-name="Rectángulo 43770" width="2.721" height="8.133" transform="translate(31.604 94.469)" fill="#455a64"/>
    <rect id="Rectángulo_43771" data-name="Rectángulo 43771" width="2.721" height="8.133" transform="translate(35.511 94.469)" fill="#455a64"/>
    <rect id="Rectángulo_43772" data-name="Rectángulo 43772" width="2.721" height="8.133" transform="translate(39.418 94.469)" fill="#455a64"/>
    <rect id="Rectángulo_43773" data-name="Rectángulo 43773" width="2.721" height="8.133" transform="translate(43.325 94.469)" fill="#455a64"/>
    <rect id="Rectángulo_43774" data-name="Rectángulo 43774" width="2.721" height="8.133" transform="translate(47.232 94.469)" fill="#455a64"/>
    <rect id="Rectángulo_43775" data-name="Rectángulo 43775" width="2.721" height="8.133" transform="translate(51.14 94.469)" fill="#455a64"/>
    <rect id="Rectángulo_43776" data-name="Rectángulo 43776" width="2.721" height="8.133" transform="translate(55.076 94.469)" fill="#455a64"/>
    <rect id="Rectángulo_43777" data-name="Rectángulo 43777" width="2.721" height="8.133" transform="translate(58.983 94.469)" fill="#455a64"/>
    <rect id="Rectángulo_43778" data-name="Rectángulo 43778" width="49.23" height="13.863" transform="translate(12.878 111.284)" fill="#263238"/>
    <rect id="Rectángulo_43779" data-name="Rectángulo 43779" width="2.749" height="10.593" transform="translate(14.268 113.021)" fill="#455a64"/>
    <path id="Trazado_212253" data-name="Trazado 212253" d="M14.387,42.369a.868.868,0,1,1-.868-.868.839.839,0,0,1,.868.868Z" transform="translate(5.872 72.88)" fill="#fff"/>
    <path id="Trazado_212254" data-name="Trazado 212254" d="M14.387,43.658a.868.868,0,1,1-.868-.868A.868.868,0,0,1,14.387,43.658Z" transform="translate(5.872 75.324)" fill="#fff"/>
    <rect id="Rectángulo_43780" data-name="Rectángulo 43780" width="2.721" height="8.133" transform="translate(23.761 114.381)" fill="#455a64"/>
    <rect id="Rectángulo_43781" data-name="Rectángulo 43781" width="2.721" height="8.133" transform="translate(27.668 114.381)" fill="#455a64"/>
    <rect id="Rectángulo_43782" data-name="Rectángulo 43782" width="2.721" height="8.133" transform="translate(31.604 114.381)" fill="#455a64"/>
    <rect id="Rectángulo_43783" data-name="Rectángulo 43783" width="2.721" height="8.133" transform="translate(35.511 114.381)" fill="#455a64"/>
    <rect id="Rectángulo_43784" data-name="Rectángulo 43784" width="2.721" height="8.133" transform="translate(39.418 114.381)" fill="#455a64"/>
    <rect id="Rectángulo_43785" data-name="Rectángulo 43785" width="2.721" height="8.133" transform="translate(43.325 114.381)" fill="#455a64"/>
    <rect id="Rectángulo_43786" data-name="Rectángulo 43786" width="2.721" height="8.133" transform="translate(47.232 114.381)" fill="#455a64"/>
    <rect id="Rectángulo_43787" data-name="Rectángulo 43787" width="2.721" height="8.133" transform="translate(51.14 114.381)" fill="#455a64"/>
    <rect id="Rectángulo_43788" data-name="Rectángulo 43788" width="2.721" height="8.133" transform="translate(55.076 114.381)" fill="#455a64"/>
    <rect id="Rectángulo_43789" data-name="Rectángulo 43789" width="2.721" height="8.133" transform="translate(58.983 114.381)" fill="#455a64"/>
    <rect id="Rectángulo_43790" data-name="Rectángulo 43790" width="49.23" height="13.863" transform="translate(12.878 131.341)" fill="#263238"/>
    <rect id="Rectángulo_43791" data-name="Rectángulo 43791" width="2.749" height="10.593" transform="translate(14.268 133.077)" fill="#455a64"/>
    <path id="Trazado_212255" data-name="Trazado 212255" d="M14.387,49.3a.868.868,0,1,1-.868-.868A.868.868,0,0,1,14.387,49.3Z" transform="translate(5.872 86.008)" fill="#fff"/>
    <path id="Trazado_212256" data-name="Trazado 212256" d="M14.386,50.587a.868.868,0,1,1-.244-.633A.868.868,0,0,1,14.386,50.587Z" transform="translate(5.872 88.394)" fill="#fff"/>
    <rect id="Rectángulo_43792" data-name="Rectángulo 43792" width="2.721" height="8.133" transform="translate(23.761 134.438)" fill="#455a64"/>
    <rect id="Rectángulo_43793" data-name="Rectángulo 43793" width="2.721" height="8.133" transform="translate(27.668 134.438)" fill="#455a64"/>
    <rect id="Rectángulo_43794" data-name="Rectángulo 43794" width="2.721" height="8.133" transform="translate(31.604 134.438)" fill="#455a64"/>
    <rect id="Rectángulo_43795" data-name="Rectángulo 43795" width="2.721" height="8.133" transform="translate(35.511 134.438)" fill="#455a64"/>
    <rect id="Rectángulo_43796" data-name="Rectángulo 43796" width="2.721" height="8.133" transform="translate(39.418 134.438)" fill="#455a64"/>
    <rect id="Rectángulo_43797" data-name="Rectángulo 43797" width="2.721" height="8.133" transform="translate(43.325 134.438)" fill="#455a64"/>
    <rect id="Rectángulo_43798" data-name="Rectángulo 43798" width="2.721" height="8.133" transform="translate(47.232 134.438)" fill="#455a64"/>
    <rect id="Rectángulo_43799" data-name="Rectángulo 43799" width="2.721" height="8.133" transform="translate(51.14 134.438)" fill="#455a64"/>
    <rect id="Rectángulo_43800" data-name="Rectángulo 43800" width="2.721" height="8.133" transform="translate(55.076 134.438)" fill="#455a64"/>
    <rect id="Rectángulo_43801" data-name="Rectángulo 43801" width="2.721" height="8.133" transform="translate(58.983 134.438)" fill="#455a64"/>
    <rect id="Rectángulo_43802" data-name="Rectángulo 43802" width="49.23" height="13.863" transform="translate(12.878 153.018)" fill="#263238"/>
    <rect id="Rectángulo_43803" data-name="Rectángulo 43803" width="2.749" height="10.593" transform="translate(14.268 154.755)" fill="#455a64"/>
    <path id="Trazado_212257" data-name="Trazado 212257" d="M14.387,56.789a.868.868,0,1,1-.868-.868.839.839,0,0,1,.868.868Z" transform="translate(5.872 100.195)" fill="#fff"/>
    <path id="Trazado_212258" data-name="Trazado 212258" d="M14.386,58.107a.868.868,0,1,1-.244-.633.868.868,0,0,1,.244.633Z" transform="translate(5.872 102.639)" fill="#fff"/>
    <rect id="Rectángulo_43804" data-name="Rectángulo 43804" width="2.721" height="8.133" transform="translate(23.761 156.115)" fill="#455a64"/>
    <rect id="Rectángulo_43805" data-name="Rectángulo 43805" width="2.721" height="8.133" transform="translate(27.668 156.115)" fill="#455a64"/>
    <rect id="Rectángulo_43806" data-name="Rectángulo 43806" width="2.721" height="8.133" transform="translate(31.604 156.115)" fill="#455a64"/>
    <rect id="Rectángulo_43807" data-name="Rectángulo 43807" width="2.721" height="8.133" transform="translate(35.511 156.115)" fill="#455a64"/>
    <rect id="Rectángulo_43808" data-name="Rectángulo 43808" width="2.721" height="8.133" transform="translate(39.418 156.115)" fill="#455a64"/>
    <rect id="Rectángulo_43809" data-name="Rectángulo 43809" width="2.721" height="8.133" transform="translate(43.325 156.115)" fill="#455a64"/>
    <rect id="Rectángulo_43810" data-name="Rectángulo 43810" width="2.721" height="8.133" transform="translate(47.232 156.115)" fill="#455a64"/>
    <rect id="Rectángulo_43811" data-name="Rectángulo 43811" width="2.721" height="8.133" transform="translate(51.14 156.115)" fill="#455a64"/>
    <rect id="Rectángulo_43812" data-name="Rectángulo 43812" width="2.721" height="8.133" transform="translate(55.076 156.115)" fill="#455a64"/>
    <rect id="Rectángulo_43813" data-name="Rectángulo 43813" width="2.721" height="8.133" transform="translate(58.983 156.115)" fill="#455a64"/>
    <rect id="Rectángulo_43814" data-name="Rectángulo 43814" width="49.23" height="13.863" transform="translate(12.878 174.898)" fill="#263238"/>
    <rect id="Rectángulo_43815" data-name="Rectángulo 43815" width="2.749" height="10.593" transform="translate(14.268 176.635)" fill="#455a64"/>
    <path id="Trazado_212259" data-name="Trazado 212259" d="M14.387,64.348a.868.868,0,1,1-.868-.868A.868.868,0,0,1,14.387,64.348Z" transform="translate(5.872 114.515)" fill="#fff"/>
    <path id="Trazado_212260" data-name="Trazado 212260" d="M14.387,65.649a.868.868,0,1,1-.868-.868.839.839,0,0,1,.868.868Z" transform="translate(5.872 116.977)" fill="#fff"/>
    <rect id="Rectángulo_43816" data-name="Rectángulo 43816" width="2.721" height="8.133" transform="translate(23.761 177.995)" fill="#455a64"/>
    <rect id="Rectángulo_43817" data-name="Rectángulo 43817" width="2.721" height="8.133" transform="translate(27.668 177.995)" fill="#455a64"/>
    <rect id="Rectángulo_43818" data-name="Rectángulo 43818" width="2.721" height="8.133" transform="translate(31.604 177.995)" fill="#455a64"/>
    <rect id="Rectángulo_43819" data-name="Rectángulo 43819" width="2.721" height="8.133" transform="translate(35.511 177.995)" fill="#455a64"/>
    <rect id="Rectángulo_43820" data-name="Rectángulo 43820" width="2.721" height="8.133" transform="translate(39.418 177.995)" fill="#455a64"/>
    <rect id="Rectángulo_43821" data-name="Rectángulo 43821" width="2.721" height="8.133" transform="translate(43.325 177.995)" fill="#455a64"/>
    <rect id="Rectángulo_43822" data-name="Rectángulo 43822" width="2.721" height="8.133" transform="translate(47.232 177.995)" fill="#455a64"/>
    <rect id="Rectángulo_43823" data-name="Rectángulo 43823" width="2.721" height="8.133" transform="translate(51.14 177.995)" fill="#455a64"/>
    <rect id="Rectángulo_43824" data-name="Rectángulo 43824" width="2.721" height="8.133" transform="translate(55.076 177.995)" fill="#455a64"/>
    <rect id="Rectángulo_43825" data-name="Rectángulo 43825" width="2.721" height="8.133" transform="translate(58.983 177.995)" fill="#455a64"/>
    <rect id="Rectángulo_43826" data-name="Rectángulo 43826" width="49.23" height="13.863" transform="translate(12.878 218.456)" fill="#263238"/>
    <rect id="Rectángulo_43827" data-name="Rectángulo 43827" width="2.749" height="10.593" transform="translate(14.268 220.222)" fill="#455a64"/>
    <path id="Trazado_212261" data-name="Trazado 212261" d="M14.386,79.427a.868.868,0,1,1-.244-.633A.868.868,0,0,1,14.386,79.427Z" transform="translate(5.872 143.023)" fill="#fff"/>
    <path id="Trazado_212262" data-name="Trazado 212262" d="M14.387,80.7a.868.868,0,1,1-.868-.868.839.839,0,0,1,.868.868Z" transform="translate(5.872 145.485)" fill="#fff"/>
    <rect id="Rectángulo_43828" data-name="Rectángulo 43828" width="2.721" height="8.133" transform="translate(23.761 221.553)" fill="#455a64"/>
    <rect id="Rectángulo_43829" data-name="Rectángulo 43829" width="2.721" height="8.133" transform="translate(27.668 221.553)" fill="#455a64"/>
    <rect id="Rectángulo_43830" data-name="Rectángulo 43830" width="2.721" height="8.133" transform="translate(31.604 221.553)" fill="#455a64"/>
    <rect id="Rectángulo_43831" data-name="Rectángulo 43831" width="2.721" height="8.133" transform="translate(35.511 221.553)" fill="#455a64"/>
    <rect id="Rectángulo_43832" data-name="Rectángulo 43832" width="2.721" height="8.133" transform="translate(39.418 221.553)" fill="#455a64"/>
    <rect id="Rectángulo_43833" data-name="Rectángulo 43833" width="2.721" height="8.133" transform="translate(43.325 221.553)" fill="#455a64"/>
    <rect id="Rectángulo_43834" data-name="Rectángulo 43834" width="2.721" height="8.133" transform="translate(47.232 221.553)" fill="#455a64"/>
    <rect id="Rectángulo_43835" data-name="Rectángulo 43835" width="2.721" height="8.133" transform="translate(51.14 221.553)" fill="#455a64"/>
    <rect id="Rectángulo_43836" data-name="Rectángulo 43836" width="2.721" height="8.133" transform="translate(55.076 221.553)" fill="#455a64"/>
    <rect id="Rectángulo_43837" data-name="Rectángulo 43837" width="2.721" height="8.133" transform="translate(58.983 221.553)" fill="#455a64"/>
    <rect id="Rectángulo_43838" data-name="Rectángulo 43838" width="49.23" height="13.863" transform="translate(12.878 196.692)" fill="#263238"/>
    <rect id="Rectángulo_43839" data-name="Rectángulo 43839" width="2.749" height="10.593" transform="translate(14.268 198.457)" fill="#455a64"/>
    <path id="Trazado_212263" data-name="Trazado 212263" d="M14.385,71.934a.868.868,0,1,1-.724-.926A.868.868,0,0,1,14.385,71.934Z" transform="translate(5.874 128.752)" fill="#fff"/>
    <path id="Trazado_212264" data-name="Trazado 212264" d="M14.387,73.179a.868.868,0,1,1-.868-.868.839.839,0,0,1,.868.868Z" transform="translate(5.872 131.241)" fill="#fff"/>
    <rect id="Rectángulo_43840" data-name="Rectángulo 43840" width="2.721" height="8.133" transform="translate(23.761 199.789)" fill="#455a64"/>
    <rect id="Rectángulo_43841" data-name="Rectángulo 43841" width="2.721" height="8.133" transform="translate(27.668 199.789)" fill="#455a64"/>
    <rect id="Rectángulo_43842" data-name="Rectángulo 43842" width="2.721" height="8.133" transform="translate(31.604 199.789)" fill="#455a64"/>
    <rect id="Rectángulo_43843" data-name="Rectángulo 43843" width="2.721" height="8.133" transform="translate(35.511 199.789)" fill="#455a64"/>
    <rect id="Rectángulo_43844" data-name="Rectángulo 43844" width="2.721" height="8.133" transform="translate(39.418 199.789)" fill="#455a64"/>
    <rect id="Rectángulo_43845" data-name="Rectángulo 43845" width="2.721" height="8.133" transform="translate(43.325 199.789)" fill="#455a64"/>
    <rect id="Rectángulo_43846" data-name="Rectángulo 43846" width="2.721" height="8.133" transform="translate(47.232 199.789)" fill="#455a64"/>
    <rect id="Rectángulo_43847" data-name="Rectángulo 43847" width="2.721" height="8.133" transform="translate(51.14 199.789)" fill="#455a64"/>
    <rect id="Rectángulo_43848" data-name="Rectángulo 43848" width="2.721" height="8.133" transform="translate(55.076 199.789)" fill="#455a64"/>
    <rect id="Rectángulo_43849" data-name="Rectángulo 43849" width="2.721" height="8.133" transform="translate(58.983 199.789)" fill="#455a64"/>
    <path id="Trazado_212265" data-name="Trazado 212265" d="M43.25,42.206V38.589a14.153,14.153,0,0,0-.347-2.518,9.261,9.261,0,0,0-1.3-2.894,6.194,6.194,0,0,0-2.721-2.171,14.21,14.21,0,0,0-3.82-.781l-4.226-.347c-5.788-.521-11.085-.839-14.905-.9h-.145c3.82,0,9.117.318,14.934.81l4.226.376a13.024,13.024,0,0,1,3.907.81,6.338,6.338,0,0,1,2.894,2.286,8.422,8.422,0,0,1,1.3,2.894,10.941,10.941,0,0,1,.318,2.576v3.184C43.278,42.062,43.278,42.206,43.25,42.206Z" transform="translate(0.076 49.165)" fill="#263238"/>
    <path id="Trazado_212266" data-name="Trazado 212266" d="M28.391,39.384V35.969a5.412,5.412,0,0,0-.608-2.286,4.37,4.37,0,0,0-2.229-1.708,6.338,6.338,0,0,0-3.241-.347,5.788,5.788,0,0,0-1.679.579,3.183,3.183,0,0,0-1.3,1.245,1.852,1.852,0,0,0,0,1.737,2.46,2.46,0,0,0,1.476,1.1,1.881,1.881,0,0,0,1.737-.492,2.6,2.6,0,0,0,.781-1.65,2.518,2.518,0,0,0-.521-1.679,3.56,3.56,0,0,0-1.3-1.158,4.457,4.457,0,0,0-1.621-.405l-1.621-.232c-1.042,0-2.026-.174-2.894-.2h0l2.894.174,1.621.2h.868a3.416,3.416,0,0,1,.868.289,4.168,4.168,0,0,1,1.418,1.245,2.692,2.692,0,0,1,.55,1.881,2.894,2.894,0,0,1-.839,1.852,2.257,2.257,0,0,1-2.026.579,2.692,2.692,0,0,1-1.679-1.273,2.026,2.026,0,0,1,0-2.026A3.56,3.56,0,0,1,20.4,32a6.02,6.02,0,0,1,1.765-.579,6.252,6.252,0,0,1,3.386.376A4.718,4.718,0,0,1,27.9,33.625,6.049,6.049,0,0,1,28.478,36v3.01C28.42,39.239,28.42,39.384,28.391,39.384Z" transform="translate(0 51.988)" fill="#263238"/>
    <path id="Trazado_212267" data-name="Trazado 212267" d="M47.216,43.059a2.344,2.344,0,0,1,0-.463,2.832,2.832,0,0,0-.26-1.3,26.048,26.048,0,0,0-1.447-4.718,13.805,13.805,0,0,0-4.283-5.788,8.248,8.248,0,0,0-3.936-1.5,45.026,45.026,0,0,0-4.631-.26c-6.338,0-12.127,0-16.294-.232l-4.92-.26h4.949c4.168,0,9.927,0,16.294.174a34.932,34.932,0,0,1,4.631.26A8.277,8.277,0,0,1,41.4,30.527a12.561,12.561,0,0,1,2.692,2.894,17.133,17.133,0,0,1,1.621,2.894,26.308,26.308,0,0,1,1.36,4.775,8.753,8.753,0,0,0,.2,1.331A2.056,2.056,0,0,1,47.216,43.059Z" transform="translate(0.133 48.313)" fill="#263238"/>
    <rect id="Rectángulo_43850" data-name="Rectángulo 43850" width="47.87" height="6.946" transform="translate(13.573 65.122)" fill="#263238"/>
    <rect id="Rectángulo_43851" data-name="Rectángulo 43851" width="26.048" height="3.473" transform="translate(24.108 68.595)" fill="#455a64"/>
    <path id="Trazado_212268" data-name="Trazado 212268" d="M47.065,74.27a4.321,4.321,0,0,0-1.447.376A12.618,12.618,0,0,0,42,76.412a10.159,10.159,0,0,0-2.026,1.881,7.207,7.207,0,0,0-.839,1.3,10.594,10.594,0,0,0-.521,1.534,27.582,27.582,0,0,0-.26,7.322,15.223,15.223,0,0,1-1.1,7.322,8.191,8.191,0,0,1-1.939,2.6,11.113,11.113,0,0,1-2.4,1.534,9.753,9.753,0,0,1-2.257.666,7.468,7.468,0,0,1-1.765,0,4.6,4.6,0,0,1-1.1-.174h-.347a10.448,10.448,0,0,0,1.476.174,7.439,7.439,0,0,0,1.708,0,11.2,11.2,0,0,0,2.2-.695,10.68,10.68,0,0,0,2.315-1.534,7.9,7.9,0,0,0,1.852-2.518,15.339,15.339,0,0,0,1.042-7.207,26.048,26.048,0,0,1,.318-7.409,10.361,10.361,0,0,1,.55-1.592,8.683,8.683,0,0,1,.868-1.331,10.506,10.506,0,0,1,2.113-1.881,11.751,11.751,0,0,1,3.7-1.708l1.1-.232Z" transform="translate(33.885 134.954)" fill="#263238"/>
    <rect id="Rectángulo_43852" data-name="Rectángulo 43852" width="3.936" height="4.775" transform="translate(58.896 233.159)" fill="#263238"/>
    <rect id="Rectángulo_43853" data-name="Rectángulo 43853" width="22.025" height="24.138" transform="translate(80.95 197.155)" fill="#455a64"/>
    <circle id="Elipse_7012" data-name="Elipse 7012" cx="7.264" cy="7.264" r="7.264" transform="translate(83.332 214.833) rotate(-77.54)" fill="#263238"/>
    <path id="Trazado_212269" data-name="Trazado 212269" d="M44.015,76.7a3.618,3.618,0,1,1-1.08-2.608,3.618,3.618,0,0,1,1.08,2.608Z" transform="translate(51.579 132.642)" fill="#455a64"/>
    <circle id="Elipse_7013" data-name="Elipse 7013" cx="0.666" cy="0.666" r="0.666" transform="translate(83.265 200.252)" fill="#263238"/>
    <circle id="Elipse_7014" data-name="Elipse 7014" cx="0.666" cy="0.666" r="0.666" transform="translate(98.952 200.252)" fill="#263238"/>
    <path id="Trazado_212270" data-name="Trazado 212270" d="M41.871,78a.666.666,0,1,1-.666-.666A.666.666,0,0,1,41.871,78Z" transform="translate(58.701 140.75)" fill="#263238"/>
    <circle id="Elipse_7015" data-name="Elipse 7015" cx="0.666" cy="0.666" r="0.666" transform="translate(83.265 218.34)" fill="#263238"/>
    <rect id="Rectángulo_43854" data-name="Rectángulo 43854" width="1.765" height="24.138" transform="translate(103.004 197.155)" fill="#263238"/>
    <path id="Trazado_212271" data-name="Trazado 212271" d="M72.7,36.151A13.718,13.718,0,0,0,69.98,21.68a15.281,15.281,0,0,0-14.963-4.833A16.757,16.757,0,0,0,29.751,5.5a17.076,17.076,0,0,0-7.9,13.371,12.532,12.532,0,0,0-9.58,16.989Z" transform="translate(3.474)" fill="#f67409"/>
    <path id="Trazado_212272" data-name="Trazado 212272" d="M85.1,88.931h3.242a13.458,13.458,0,0,0,3.791-.434,12.011,12.011,0,0,0,4.4-2.315,11.577,11.577,0,0,0,3.56-5.007,9.232,9.232,0,0,0,.463-1.592,10.562,10.562,0,0,0,.232-1.708c0-1.158,0-2.373,0-3.618V53.882a16.037,16.037,0,0,0,0-2.055,8.682,8.682,0,0,0-.463-1.939,9.29,9.29,0,0,0-5.094-5.441,17.163,17.163,0,0,0-6.888-.781h3.444a9.146,9.146,0,0,1,3.56.752A9.406,9.406,0,0,1,100.614,50a7.987,7.987,0,0,1,.492,2.026,16.732,16.732,0,0,1,0,2.084V78.02a16.761,16.761,0,0,1-.2,1.737c-.174.55-.289,1.129-.492,1.65a12.155,12.155,0,0,1-3.531,5.007,12.677,12.677,0,0,1-4.515,2.315,13.4,13.4,0,0,1-3.82.376H85.1Z" transform="translate(116.247 76.851)" fill="#263238"/>
    <path id="Trazado_212273" data-name="Trazado 212273" d="M23.283,25.908V17.4H19L25.425,8.34l6.425,9H27.683v8.567Z" transform="translate(17.9 10.069)" fill="#fff"/>
    <path id="Trazado_212274" data-name="Trazado 212274" d="M70.93,56.972l4.544,5.9,8.625-3.82L78.571,50.2Z" transform="translate(116.266 89.36)" fill="#e0e0e0"/>
    <path id="Trazado_212275" data-name="Trazado 212275" d="M71.86,52.78,72,55.7l2.836,1.331L74.7,54.053Z" transform="translate(118.027 94.247)" fill="#455a64"/>
    <path id="Trazado_212276" data-name="Trazado 212276" d="M72.79,52.21l.145,2.952L75.8,56.493l-.145-3.01Z" transform="translate(119.789 93.168)" fill="#455a64"/>
    <path id="Trazado_212277" data-name="Trazado 212277" d="M73.75,51.65l.116,2.923L76.731,55.9l-.145-2.981Z" transform="translate(121.607 92.107)" fill="#455a64"/>
    <path id="Trazado_212278" data-name="Trazado 212278" d="M81.794,54.229l-.984-1.5-8.48,5.354,1.939,3.357.55-.289A117.445,117.445,0,0,0,88.74,53.187C90.071,51.624,81.794,54.229,81.794,54.229Z" transform="translate(118.918 94.072)" fill="#f67409"/>
    <g id="Grupo_145865" data-name="Grupo 145865" transform="translate(191.74 152.265)" opacity="0.5">
      <path id="Trazado_212279" data-name="Trazado 212279" d="M77.1,55.922a3.589,3.589,0,0,0-2.142-1.273,2.894,2.894,0,0,0-2.46.637l1.447,2.4Z" transform="translate(-72.5 -54.59)" fill="#fff"/>
    </g>
    <path id="Trazado_212280" data-name="Trazado 212280" d="M84.577,53.049s2.894-.752,2.894,0A94.383,94.383,0,0,1,73,61.529v-.2l11.577-6.6S84.143,53.367,84.577,53.049Z" transform="translate(120.187 94.123)" fill="#fff" opacity="0.5"/>
    <path id="Trazado_212281" data-name="Trazado 212281" d="M72.94,61.1h0l.463-.232,1.592-.839c1.36-.724,3.213-1.737,5.239-2.894s3.849-2.257,5.152-3.1l1.534-.955.405-.289H87.3l-.405.232-1.563.955-5.152,3.068-5.21,2.894-1.592.9-.434.232Z" transform="translate(120.073 94.266)" fill="#263238"/>
    <path id="Trazado_212282" data-name="Trazado 212282" d="M77.177,54.6a3.04,3.04,0,0,1-.145-.926,3.618,3.618,0,0,1,.174-.9,1.389,1.389,0,0,0-.289.9,1.244,1.244,0,0,0,.26.926Z" transform="translate(127.587 94.247)" fill="#263238"/>
    <path id="Trazado_212283" data-name="Trazado 212283" d="M75.888,54.124a1.563,1.563,0,0,0,0-.492,1.07,1.07,0,0,0,0-.492,1.3,1.3,0,0,0,0,.463A1.273,1.273,0,0,0,75.888,54.124Z" transform="translate(125.606 94.929)" fill="#263238"/>
    <path id="Trazado_212284" data-name="Trazado 212284" d="M75.558,54.02a1.187,1.187,0,0,0,.2-.376.955.955,0,0,0,0-.434.868.868,0,0,0-.174.376A1.255,1.255,0,0,0,75.558,54.02Z" transform="translate(125.009 95.062)" fill="#263238"/>
    <path id="Trazado_212285" data-name="Trazado 212285" d="M75.242,53.647a1.447,1.447,0,0,0,.463-.232c.26,0,.463-.26.434-.289s-.232,0-.492.2S75.213,53.618,75.242,53.647Z" transform="translate(124.428 94.885)" fill="#263238"/>
    <path id="Trazado_212286" data-name="Trazado 212286" d="M75.07,53.471a1.042,1.042,0,0,0,.579-.145,1.1,1.1,0,0,0,.492-.376,2.343,2.343,0,0,0-.55.26,3.675,3.675,0,0,0-.521.26Z" transform="translate(124.108 94.569)" fill="#263238"/>
    <path id="Trazado_212287" data-name="Trazado 212287" d="M75.836,54.278a2.2,2.2,0,0,0,.521-.463,3.534,3.534,0,0,0,.521-.463,1.8,1.8,0,0,0,.26-.347.319.319,0,0,0,0-.232.2.2,0,0,0-.2-.174,1.187,1.187,0,0,0-1.1,1.013,1.273,1.273,0,0,0,0,.492h0a2.084,2.084,0,0,1,0-.608,1.013,1.013,0,0,1,.289-.579,1.071,1.071,0,0,1,.695-.347s.145.145,0,.26a1.13,1.13,0,0,1-.232.289,3.91,3.91,0,0,1-.232.695C76.038,54.133,75.807,54.249,75.836,54.278Z" transform="translate(125.513 93.85)" fill="#263238"/>
    <path id="Trazado_212288" data-name="Trazado 212288" d="M76.679,53.683a.9.9,0,0,0-.145-.434,1.157,1.157,0,0,0-.405-.318.637.637,0,0,0-.608,0,.232.232,0,0,0,0,.347,1.447,1.447,0,0,0,.232.2l.463.174h.029l-.463-.376s-.318-.232-.2-.347a.666.666,0,0,1,.521,0,1.244,1.244,0,0,1,.376.26.868.868,0,0,1,.2.492Z" transform="translate(124.814 94.386)" fill="#263238"/>
    <path id="Trazado_212289" data-name="Trazado 212289" d="M72.53,55.251a3.361,3.361,0,0,1,.637-.347,3.473,3.473,0,0,1,1.737-.232A3.531,3.531,0,0,1,76.5,55.4c.347.289.492.55.521.521l-.232-.116a1.563,1.563,0,0,0-.376-.405,3.039,3.039,0,0,0-3.386-.521l-.463.289Z" transform="translate(119.297 97.652)" fill="#263238"/>
    <path id="Trazado_212290" data-name="Trazado 212290" d="M74.3,55.5a6.193,6.193,0,0,0,1.331-.608,5.3,5.3,0,0,0,1.187-.839l-1.244.724A10.737,10.737,0,0,0,74.3,55.5Z" transform="translate(122.649 96.653)" fill="#263238"/>
    <path id="Trazado_212291" data-name="Trazado 212291" d="M73.71,54.885l.26.2c.26.2.232.2.26.174s0-.174-.2-.26S73.71,54.856,73.71,54.885Z" transform="translate(121.532 98.22)" fill="#263238"/>
    <path id="Trazado_212292" data-name="Trazado 212292" d="M73.33,54.754h.289C73.475,54.725,73.33,54.725,73.33,54.754Z" transform="translate(120.812 97.946)" fill="#263238"/>
    <path id="Trazado_212293" data-name="Trazado 212293" d="M72.94,54.89h.608a.405.405,0,0,0-.608,0Z" transform="translate(120.073 97.984)" fill="#263238"/>
    <path id="Trazado_212294" data-name="Trazado 212294" d="M72.68,54.878h.174C72.709,54.878,72.68,54.849,72.68,54.878Z" transform="translate(119.581 98.198)" fill="#263238"/>
    <path id="Trazado_212295" data-name="Trazado 212295" d="M51.14,74.015,84.886,42.178a11.171,11.171,0,0,1,7.959-3.328h0a11.114,11.114,0,0,1,9.638,5.586L119.848,74.13,108.879,80.44,92.238,59.283,75.567,74.362Z" transform="translate(78.78 67.861)" fill="#263238"/>
    <path id="Trazado_212296" data-name="Trazado 212296" d="M47.745,55.9C47.6,56.3,46.587,67.186,61.2,67.186h39.014a8.943,8.943,0,0,0,8.943-8.943h0a8.943,8.943,0,0,0-8.943-8.943H63.895a8.914,8.914,0,0,0-3.762.839Z" transform="translate(72.219 87.656)" fill="#263238"/>
    <path id="Trazado_212297" data-name="Trazado 212297" d="M90.545,49.351s-8.046.174-18,.174-17.973,0-17.973-.174,8.046,0,17.973,0S90.545,49.264,90.545,49.351Z" transform="translate(85.277 87.605)" fill="#455a64"/>
    <path id="Trazado_212298" data-name="Trazado 212298" d="M64.981,43.36a21.5,21.5,0,0,0,.405,3.734,35.935,35.935,0,0,1,.695,3.676,11.577,11.577,0,0,1-.926-3.647A13.169,13.169,0,0,1,64.981,43.36Z" transform="translate(104.879 76.404)" fill="#455a64"/>
    <path id="Trazado_212299" data-name="Trazado 212299" d="M65.927,43.27a15.83,15.83,0,0,1,0,3.849,15.6,15.6,0,0,1-.637,3.791,28.573,28.573,0,0,1,.318-3.82C65.927,44.978,65.84,43.27,65.927,43.27Z" transform="translate(105.583 76.234)" fill="#455a64"/>
    <path id="Trazado_212300" data-name="Trazado 212300" d="M57.114,35.344a1.129,1.129,0,0,1-.579,1.129,1.216,1.216,0,0,1-1.245,0,2.026,2.026,0,0,1-.26-2.344,4.167,4.167,0,0,0,.55-2.431,5.788,5.788,0,0,0-.984-1.65,3.531,3.531,0,0,1-.405-3.213,2.894,2.894,0,0,1,2.518-1.968c1.158,0,2.431.492,3.386,0s.9-1.389,1.5-2a3.618,3.618,0,0,1,3.647-.376,9.985,9.985,0,0,0,3.7,1.013,17.017,17.017,0,0,0,3.1-.868,5.788,5.788,0,0,1,5.788,9.03,3.994,3.994,0,0,1-4.052,2.142" transform="translate(84.151 36.26)" fill="#263238"/>
    <path id="Trazado_212301" data-name="Trazado 212301" d="M59,23.65l-.318,1.708-4.92,25.353a5.528,5.528,0,0,0,4.66,6.338h0a5.788,5.788,0,0,0,6.888-4.283c.666-3.1,1.389-6.367,1.389-6.367a6.628,6.628,0,0,0,6.049-4.862A58.26,58.26,0,0,0,74.979,31.2a5.788,5.788,0,0,0-5.036-6.541Z" transform="translate(83.622 39.069)" fill="#ffbe9d"/>
    <path id="Trazado_212302" data-name="Trazado 212302" d="M61.124,27.607a.7.7,0,0,1-.781.55.666.666,0,0,1-.579-.753.7.7,0,0,1,.781-.55.666.666,0,0,1,.579.752Z" transform="translate(95.104 45.126)" fill="#263238"/>
    <path id="Trazado_212303" data-name="Trazado 212303" d="M62.294,27.562a3.288,3.288,0,0,0-1.244-.55,6.483,6.483,0,0,0-1.389,0s0-.2.347-.318a1.968,1.968,0,0,1,1.129,0,1.91,1.91,0,0,1,.984.579C62.294,27.36,62.352,27.533,62.294,27.562Z" transform="translate(94.918 44.679)" fill="#263238"/>
    <path id="Trazado_212304" data-name="Trazado 212304" d="M58.744,27.131a.666.666,0,1,1-.132-.5A.666.666,0,0,1,58.744,27.131Z" transform="translate(90.595 44.213)" fill="#263238"/>
    <path id="Trazado_212305" data-name="Trazado 212305" d="M59.834,27.1a3.288,3.288,0,0,0-1.245-.55,6.483,6.483,0,0,0-1.389,0s0-.2.347-.318a2.238,2.238,0,0,1,2.113.55C59.834,26.9,59.892,27.073,59.834,27.1Z" transform="translate(90.259 43.808)" fill="#263238"/>
    <path id="Trazado_212306" data-name="Trazado 212306" d="M58.63,32.469a5.615,5.615,0,0,1,1.216,0h.434a1.273,1.273,0,0,0,0-.579,10.277,10.277,0,0,0-.26-1.5A23.906,23.906,0,0,1,59.7,26.42a24.136,24.136,0,0,1,.781,3.849,8.5,8.5,0,0,0,.232,1.534,1.071,1.071,0,0,1,0,.724.521.521,0,0,1-.376.232H59.7a4.023,4.023,0,0,1-1.071-.289Z" transform="translate(92.967 44.316)" fill="#263238"/>
    <path id="Trazado_212307" data-name="Trazado 212307" d="M62.509,33.649a13.487,13.487,0,0,1-6.6-3.3,6.772,6.772,0,0,0,6.28,4.544Z" transform="translate(87.815 51.761)" fill="#eb996e"/>
    <path id="Trazado_212308" data-name="Trazado 212308" d="M58,28.53a2.773,2.773,0,0,0,.521,1.5c.521.695,1.418.781,1.389.9s-.2,0-.579,0a1.91,1.91,0,0,1-1.158-.695,1.679,1.679,0,0,1-.376-1.245A.666.666,0,0,1,58,28.53Z" transform="translate(91.37 48.313)" fill="#263238"/>
    <path id="Trazado_212309" data-name="Trazado 212309" d="M60.6,26.112c0,.174-.81,0-1.679-.145s-1.592,0-1.679-.174,0-.26.434-.405a3.386,3.386,0,0,1,1.3-.174,2.894,2.894,0,0,1,1.273.434C60.51,25.822,60.655,26.025,60.6,26.112Z" transform="translate(90.277 42.02)" fill="#263238"/>
    <path id="Trazado_212310" data-name="Trazado 212310" d="M62.242,26.865c-.174.145-.637-.145-1.216-.26s-1.129,0-1.216-.318,0-.232.318-.347a1.65,1.65,0,0,1,1.071,0,1.679,1.679,0,0,1,.9.521C62.271,26.6,62.3,26.807,62.242,26.865Z" transform="translate(95.144 43.235)" fill="#263238"/>
    <path id="Trazado_212311" data-name="Trazado 212311" d="M73.309,29.485a7.5,7.5,0,0,1-6.194-1.534C65,26.388,62.4,25.346,61.7,25.693s-1.216,2.749-3.647,3.039c0,0-.637,4.6-2.431,4.139S56,23.32,56,23.32l5.036.781h5.036l4.486,1.447,3.357,1.592Z" transform="translate(85.929 38.444)" fill="#263238"/>
    <path id="Trazado_212312" data-name="Trazado 212312" d="M55.34,22.884a1.13,1.13,0,0,1,.9.145c.463.289.608.724.55.752s-.289-.289-.695-.521S55.34,22.971,55.34,22.884Z" transform="translate(86.735 37.549)" fill="#263238"/>
    <path id="Trazado_212313" data-name="Trazado 212313" d="M56.239,22.441a9.516,9.516,0,0,1,0,1.187c0,.637,0,1.129,0,1.187a1.563,1.563,0,0,1-.347-1.187C55.8,22.9,56.065,22.412,56.239,22.441Z" transform="translate(87.747 36.777)" fill="#263238"/>
    <path id="Trazado_212314" data-name="Trazado 212314" d="M57.648,26.3s-2.894-1.679-3.473,1.36a2.344,2.344,0,0,0,2.547,2.894Z" transform="translate(84.398 43.218)" fill="#ffbe9d"/>
    <path id="Trazado_212315" data-name="Trazado 212315" d="M55.552,28.648h-.174a.781.781,0,0,1-.405,0,1.389,1.389,0,0,1-.347-1.3,1.679,1.679,0,0,1,.318-.724c0-.2.318-.347.492-.318a.26.26,0,0,1,.289.2v0a.376.376,0,0,0,0-.232.666.666,0,0,0-.289-.145.752.752,0,0,0-.637.347,1.91,1.91,0,0,0-.376.81,1.389,1.389,0,0,0,.492,1.476.492.492,0,0,0,.492,0A.318.318,0,0,0,55.552,28.648Z" transform="translate(84.902 43.767)" fill="#eb996e"/>
    <path id="Trazado_212316" data-name="Trazado 212316" d="M63.11,28.788a2.62,2.62,0,0,0-.174-.781A3.212,3.212,0,0,0,61.75,26.3a3.155,3.155,0,0,0-2.894-.405,3.068,3.068,0,0,0,0,5.788,3.155,3.155,0,0,0,2.894-.405,3.212,3.212,0,0,0,1.187-1.708c0-.492,0-.781.174-.781v.2a1.62,1.62,0,0,1,0,.608,3.184,3.184,0,0,1-1.158,1.852,3.415,3.415,0,0,1-3.184.521,3.647,3.647,0,0,1-1.563-1.187,3.242,3.242,0,0,1-.666-2,3.444,3.444,0,0,1,.666-2,3.371,3.371,0,0,1,4.746-.666,3.184,3.184,0,0,1,1.158,1.852,1.621,1.621,0,0,1,0,.608Z" transform="translate(89.008 42.44)" fill="#455a64"/>
    <path id="Trazado_212317" data-name="Trazado 212317" d="M65.8,29.224a5.786,5.786,0,0,0,0-.752,3.184,3.184,0,0,0-1.187-1.708,3.087,3.087,0,1,0-.029,4.92,3.184,3.184,0,0,0,1.187-1.708,6.712,6.712,0,0,0,0-.781v.232a2.519,2.519,0,0,1,0,.579,3.155,3.155,0,0,1-1.158,1.852A3.347,3.347,0,0,1,59.2,29.2a3.241,3.241,0,0,1,.666-2,3.615,3.615,0,0,1,4.833-.55A3.155,3.155,0,0,1,65.857,28.5a2.4,2.4,0,0,1,0,.579C65.828,29.166,65.828,29.224,65.8,29.224Z" transform="translate(94.047 43.393)" fill="#455a64"/>
    <path id="Trazado_212318" data-name="Trazado 212318" d="M59.3,26.22a5.788,5.788,0,0,1-2.026,0,6.367,6.367,0,0,1-1.939-.145,5.789,5.789,0,0,1,1.939-.174A6.367,6.367,0,0,1,59.3,26.22Z" transform="translate(86.716 43.3)" fill="#455a64"/>
    <path id="Trazado_212319" data-name="Trazado 212319" d="M60.128,27.27a1.479,1.479,0,0,0-.608-.347,1.811,1.811,0,0,0-.724,0c-.029,0,0-.145.174-.232a1.1,1.1,0,0,1,.637,0,1.013,1.013,0,0,1,.492.405C60.186,27.154,60.186,27.27,60.128,27.27Z" transform="translate(93.264 44.74)" fill="#455a64"/>
    <path id="Trazado_212320" data-name="Trazado 212320" d="M56.78,67.329V65.3l28.537.579L101.756,39.66l1.5,1.071L86.417,67.56Z" transform="translate(89.463 69.395)" fill="#e0e0e0"/>
    <path id="Trazado_212321" data-name="Trazado 212321" d="M68.9,47.042l1.447,2.142v4.37s-.752.174-1.042-.405a19.188,19.188,0,0,1-.695-2.634L67.92,52.31a1.592,1.592,0,0,1-1.823.955l-5.3-1.331,2.171-6.194Z" transform="translate(97.078 80.912)" fill="#ffbe9d"/>
    <path id="Trazado_212322" data-name="Trazado 212322" d="M67.456,31.57s-7.9,1.968-10.245,5.5a67.666,67.666,0,0,0-7.988,20.9c-2.547,9.985-4.486,26.048-1.737,29.666a11.143,11.143,0,0,0,3.1,3.213l6.078-2.171a47.233,47.233,0,0,0,15.86-9.551l9.348-8.683L76.92,66.677s3.791-20.259,2.894-27.437C78.831,33.046,67.456,31.57,67.456,31.57Z" transform="translate(69.323 54.071)" fill="#f67409"/>
    <path id="Trazado_212323" data-name="Trazado 212323" d="M63.83,41.9A55.336,55.336,0,0,1,53.7,44.245a4.573,4.573,0,0,1-2.894-.608c-2.6-1.621-1.708-4.631-.26-6.628a7.641,7.641,0,0,1,6.512-3.734,2.894,2.894,0,0,1,1.476-3.5,4.949,4.949,0,0,1,4.052,0,14.471,14.471,0,0,1,3.531,2.171L70.6,35.3a8.683,8.683,0,0,1,2.6,2.663c.579,1.129,2.721,5.5,1.765,6.309a2.894,2.894,0,0,1-1.794,0h0A11,11,0,0,0,63.83,41.9Z" transform="translate(75.004 49.848)" fill="#f67409"/>
    <path id="Trazado_212324" data-name="Trazado 212324" d="M56.232,35,50.994,59.4a8.683,8.683,0,0,0,5.557,10.043l22.69,4.341,2.894-8.451h0L63.728,59.543l5.383-23.588Z" transform="translate(78.116 60.569)" fill="#f67409"/>
    <path id="Trazado_212325" data-name="Trazado 212325" d="M50.8,67.768v1.1l.174.434.232.463A6.367,6.367,0,0,0,53.058,71.7a11.085,11.085,0,0,0,3.328,1.447l22.43,4.11h0l2.894-8.48v.2L63.3,63.2h0v-.145l1.013-3.936c1.071-4.283,2.084-8.48,2.894-12.532.434-2.026.839-4.023,1.1-5.991V39.116a7.9,7.9,0,0,0-.174-1.418,5.615,5.615,0,0,0-1.244-2.489,6.222,6.222,0,0,0-4.8-2.171A6.4,6.4,0,0,0,57.6,35.3a11.953,11.953,0,0,0-2.286,4.254,32.184,32.184,0,0,0-1.042,4.4c-1.129,5.644-2.026,10.217-2.663,13.4L51.379,61.2l-.2.955v.318a3.273,3.273,0,0,0,0-.347l.174-.955.666-3.647,2.547-13.429a38.923,38.923,0,0,1,1.042-4.428,11.577,11.577,0,0,1,2.344-4.341A6.57,6.57,0,0,1,62.58,32.98a6.335,6.335,0,0,1,6.338,6.338v1.5c-.289,2-.695,3.994-1.129,6.02-.868,4.081-1.852,8.248-2.894,12.532L63.882,63.34v-.2L82.29,68.926h0v.145c-1.013,2.894-2.026,5.788-2.894,8.451h0c-9.261-1.737-16.989-3.155-22.43-4.226a10.911,10.911,0,0,1-3.357-1.5,6.049,6.049,0,0,1-1.823-2l-.232-.463-.174-.434V67.768Z" transform="translate(78.135 56.742)" fill="#263238"/>
    <path id="Trazado_212326" data-name="Trazado 212326" d="M54.174,46.617a1.3,1.3,0,0,1,0-.724,3.357,3.357,0,0,1,.9-1.5,3.444,3.444,0,0,1,1.563-.868,1.447,1.447,0,0,1,.724,0,1.5,1.5,0,0,0-.666.232,4.167,4.167,0,0,0-1.389.868,4.718,4.718,0,0,0-.926,1.36C54.289,46.356,54.231,46.617,54.174,46.617Z" transform="translate(84.429 76.62)" fill="#263238"/>
    <g id="Grupo_145866" data-name="Grupo 145866" transform="translate(128.111 95.134)" opacity="0.2">
      <path id="Trazado_212327" data-name="Trazado 212327" d="M56.2,34.85A142.281,142.281,0,0,0,50.732,60.9a21.823,21.823,0,0,0,0,6.136A7.554,7.554,0,0,0,53.8,72.156a7.727,7.727,0,0,0,5.557.868,34.325,34.325,0,0,0,6.657-1.592L55.855,69.32s-6.541-.405-3.734-12.937S56.2,34.85,56.2,34.85Z" transform="translate(-50.515 -34.85)"/>
    </g>
    <g id="Grupo_145867" data-name="Grupo 145867" transform="translate(125.144 87.581)" opacity="0.2">
      <path id="Trazado_212328" data-name="Trazado 212328" d="M49.49,37.71c0,1.013,0,2.229.984,2.663s1.939-.347,2.692-1.071A43.586,43.586,0,0,1,63.5,32.24a24.051,24.051,0,0,0-13.979,5.644" transform="translate(-49.49 -32.24)"/>
    </g>
    <path id="Trazado_212329" data-name="Trazado 212329" d="M69.468,34.747a16.756,16.756,0,0,0-2.894-1.476,11.316,11.316,0,0,0-3.328-.752,10.94,10.94,0,0,0-4.139.434,22.342,22.342,0,0,0-3.849,1.679c-1.129.637-2.142,1.216-2.894,1.679a21.218,21.218,0,0,1-2.113,1.013,2.9,2.9,0,0,1-.81.26l.752-.376c.492-.232,1.216-.608,2.084-1.1L55.171,34.4a20.261,20.261,0,0,1,3.907-1.737,11.316,11.316,0,0,1,7.641.405A9.667,9.667,0,0,1,68.773,34.2l.521.405Z" transform="translate(75.56 55.236)" fill="#263238"/>
    <path id="Trazado_212330" data-name="Trazado 212330" d="M67.765,38.7s-.753-.666-2.026-1.708a30.3,30.3,0,0,0-5.354-3.415,31.518,31.518,0,0,0-5.788-2.2c-1.592-.405-2.6-.55-2.576-.608h.695a10.347,10.347,0,0,1,1.91.318,27.437,27.437,0,0,1,6.049,2.142,26.742,26.742,0,0,1,5.354,3.531l1.418,1.331A3.5,3.5,0,0,1,67.765,38.7Z" transform="translate(80.446 52.556)" fill="#263238"/>
    <path id="Trazado_212331" data-name="Trazado 212331" d="M58.187,51.714a3.965,3.965,0,0,1,0-.492,4.265,4.265,0,0,0-.2-1.447,7.755,7.755,0,0,1,0-2.257,1.216,1.216,0,0,1,.984-.984.724.724,0,0,1,.724,1.187h0a1.013,1.013,0,0,1-.868-.347,1.534,1.534,0,0,1-.347-.839c0-.608,0-1.187,0-1.794,0-2.894-.289-5.47-.347-7.351V35.13a5.782,5.782,0,0,1,0-.81,3.851,3.851,0,0,1,0,.81l.174,2.229c0,1.881.26,4.486.434,7.38V46.5a1.563,1.563,0,0,0,.289.666.7.7,0,0,0,.608.26h0a.376.376,0,0,0,0-.492.463.463,0,0,0-.492-.2,1.071,1.071,0,0,0-.781.81,8.276,8.276,0,0,0-.174,2.142,18.964,18.964,0,0,1,0,2.026Z" transform="translate(91.587 59.28)" fill="#e0e0e0"/>
    <path id="Trazado_212332" data-name="Trazado 212332" d="M68.966,47.19a9.255,9.255,0,0,1-.724.695L66.13,49.65a63.991,63.991,0,0,1-7.5,5.094A62.92,62.92,0,0,1,50.5,58.767c-1.071.434-1.939.781-2.547.984a5.383,5.383,0,0,1-.984.289,4.572,4.572,0,0,1,.926-.405l2.518-1.071a68.19,68.19,0,0,0,8.22-4.081,79.3,79.3,0,0,0,7.351-4.949l2.171-1.679Z" transform="translate(70.881 83.659)" fill="#263238"/>
    <path id="Trazado_212333" data-name="Trazado 212333" d="M49.132,53.088a4.991,4.991,0,0,1-.781-.81c-.376-.492-.637-.926-.55-.984s.405.318.781.81S49.219,53.03,49.132,53.088Z" transform="translate(72.423 91.421)" fill="#263238"/>
    <path id="Trazado_212334" data-name="Trazado 212334" d="M50.59,52.554a2.819,2.819,0,0,1-1.013-.724,2.229,2.229,0,0,1-.637-1.071s.405.376.868.868S50.648,52.5,50.59,52.554Z" transform="translate(74.612 90.421)" fill="#263238"/>
    <path id="Trazado_212335" data-name="Trazado 212335" d="M52.395,52.359a6.933,6.933,0,0,1-1.129-1.042c-.55-.637-.955-1.187-.868-1.245s.55.434,1.1,1.042A3.7,3.7,0,0,1,52.395,52.359Z" transform="translate(77.351 89.111)" fill="#263238"/>
    <path id="Trazado_212336" data-name="Trazado 212336" d="M54.191,51.7A5.326,5.326,0,0,1,53,50.489,5.789,5.789,0,0,1,52.02,49.1a8.568,8.568,0,0,1,1.216,1.187,5.3,5.3,0,0,1,.955,1.418Z" transform="translate(80.447 87.277)" fill="#263238"/>
    <path id="Trazado_212337" data-name="Trazado 212337" d="M55.9,50.176a4.109,4.109,0,0,1-1.3-.955c-.637-.579-1.129-1.1-1.071-1.158a4.31,4.31,0,0,1,1.3.926C55.491,49.569,55.954,50.118,55.9,50.176Z" transform="translate(83.285 85.303)" fill="#263238"/>
    <circle id="Elipse_7016" data-name="Elipse 7016" cx="1.389" cy="1.389" r="1.389" transform="translate(179.666 87.769) rotate(-76.7)" fill="#455a64"/>
    <path id="Trazado_212338" data-name="Trazado 212338" d="M68.883,33.143a3.849,3.849,0,0,1,5.586,0c.695.724,1.823-.376,1.1-1.1a5.441,5.441,0,0,0-7.814,0c-.695.724.405,1.852,1.129,1.129Z" transform="translate(109.832 51.833)" fill="#455a64"/>
    <path id="Trazado_212339" data-name="Trazado 212339" d="M67.222,32.026a11.577,11.577,0,0,1,7.5-2.894,11.056,11.056,0,0,1,7.612,2.894c.752.695,1.852-.405,1.129-1.1a12.734,12.734,0,0,0-8.683-3.386,13,13,0,0,0-8.683,3.444c-.781.666.347,1.765,1.1,1.1Z" transform="translate(106.603 46.438)" fill="#455a64"/>
    <path id="Trazado_212340" data-name="Trazado 212340" d="M67.855,33.068a7.7,7.7,0,0,1,5.5-2.547,7.814,7.814,0,0,1,5.788,2.373c.695.724,1.823-.376,1.1-1.1A9.377,9.377,0,0,0,73.383,28.9a9.522,9.522,0,0,0-6.628,2.894c-.666.752.434,1.852,1.129,1.129Z" transform="translate(107.967 49.014)" fill="#455a64"/>
  </g>
</svg>
