<svg xmlns="http://www.w3.org/2000/svg" width="214.21" height="232.142" viewBox="0 0 214.21 232.142">
  <g id="ILUSTRACIONES-21" transform="translate(-9.47 -6)">
    <rect id="Rectángulo_44218" data-name="Rectángulo 44218" width="35.776" height="35.776" rx="2.75" transform="translate(45.721 6)" fill="#f0f0f0"/>
    <path id="Trazado_215639" data-name="Trazado 215639" d="M47.107,9.36h0a8.337,8.337,0,0,0-2.216.158A6.042,6.042,0,0,0,46.87,9.7l-.475.5-1.741,1.952-5.725,6.6L36.5,17.143l-1.4-.792H34.97l-6.411,7.6c-.792.923-1.425,1.715-1.9,2.3a5.857,5.857,0,0,0-.66.844,5.276,5.276,0,0,0,.765-.765c.475-.58,1.161-1.319,1.952-2.216,1.636-1.873,3.9-4.485,6.411-7.414l1.135.765L38.9,19.148h0l5.725-6.807,1.662-2.005.475-.58h0a6.543,6.543,0,0,0,.158,1.979,6.411,6.411,0,0,0,.185-2.216Z" transform="translate(27.082 5.479)" fill="#e0e0e0"/>
    <path id="Trazado_215640" data-name="Trazado 215640" d="M79.133,25.912H96.758A17.519,17.519,0,1,1,78.843,8.42Z" transform="translate(85.605 3.965)" fill="#f0f0f0"/>
    <path id="Trazado_215641" data-name="Trazado 215641" d="M70.29,24.319,70,6.8a18.469,18.469,0,0,1,12.585,4.96,18.073,18.073,0,0,1,5.277,12.268Z" transform="translate(99.171 1.311)" fill="#ebebeb"/>
    <path id="Trazado_215642" data-name="Trazado 215642" d="M71,42.993V56l2.9-2.876H90.049A1.055,1.055,0,0,0,91.078,52.1V43.019a1.029,1.029,0,0,0-1.029-1.029H72.082a1.055,1.055,0,0,0-1.082,1Z" transform="translate(100.809 58.965)" fill="#ebebeb"/>
    <path id="Trazado_215643" data-name="Trazado 215643" d="M75.012,44.559a.7.7,0,1,1-.765-.739A.765.765,0,0,1,75.012,44.559Z" transform="translate(105.108 61.963)" fill="#e0e0e0"/>
    <path id="Trazado_215644" data-name="Trazado 215644" d="M75.982,44.559a.7.7,0,1,1-.765-.739A.765.765,0,0,1,75.982,44.559Z" transform="translate(106.697 61.963)" fill="#e0e0e0"/>
    <path id="Trazado_215645" data-name="Trazado 215645" d="M76.952,44.559a.7.7,0,1,1-.765-.739.765.765,0,0,1,.765.739Z" transform="translate(108.286 61.963)" fill="#e0e0e0"/>
    <path id="Trazado_215646" data-name="Trazado 215646" d="M21.12,103.859c.422-5.593,4.538-14.247,9.6-16.7a16.437,16.437,0,0,1,16.015,1.161c3.166,2.137,5.567,5.277,9.05,6.992,6.833,3.192,14.986-1.319,19.761-7.15s7.915-13.192,13.192-18.469a27.36,27.36,0,0,1,39.1.976,95.218,95.218,0,0,1,9.05,13.535,24.431,24.431,0,0,0,11.9,10.553c7.071,2.348,15.039-1.082,20.025-6.6s7.651-12.585,9.762-19.841a82.555,82.555,0,0,1,7.915-20.711C190.609,41.277,197.152,36,204.593,36v67.622Z" transform="translate(19.087 49.151)" fill="#f0f0f0"/>
    <path id="Trazado_215647" data-name="Trazado 215647" d="M95.269,64.578h.343a1.187,1.187,0,0,0,.712-.686,2.217,2.217,0,0,0,0-.739V24.818A.976.976,0,0,0,95.4,24H68.726a1,1,0,0,0-1,.976V63.6a.923.923,0,0,0,.264.528,1.187,1.187,0,0,0,.5.29,2.638,2.638,0,0,0,.633,0H69.1a3.035,3.035,0,0,1-.686,0,1.135,1.135,0,0,1-.607-.369,1.161,1.161,0,0,1-.343-.633c0-.264,0-.475,0-.686V24.95a1.319,1.319,0,0,1,1.319-1.24H95.453a1.293,1.293,0,0,1,1.187,1.082V63.075a1.846,1.846,0,0,1,0,.765,1.108,1.108,0,0,1-.765.686A.686.686,0,0,1,95.269,64.578Z" transform="translate(95.009 29.016)" fill="#263238"/>
    <path id="Trazado_215648" data-name="Trazado 215648" d="M79.621,26.955a7.915,7.915,0,0,0-9.287,5.277,7.7,7.7,0,1,0,9.525-5.488c-.475-.158-.66.554-.211.712A7.018,7.018,0,1,1,70.783,33.1a7.519,7.519,0,0,1,8.786-5.936s.211-.185,0-.211Z" transform="translate(99.312 33.949)" fill="#263238"/>
    <path id="Trazado_215649" data-name="Trazado 215649" d="M72.326,41.851a7.915,7.915,0,0,0,9.788-5.277,8.337,8.337,0,0,0-5.593-10c-.923-.29-1.266,1.108-.4,1.451a6.992,6.992,0,0,1,4.38,8.786A7.625,7.625,0,0,1,72.379,41.3c-.264,0-.29.369,0,.449Z" transform="translate(102.728 33.644)" fill="#f67409"/>
    <path id="Trazado_215650" data-name="Trazado 215650" d="M85.83,34.984s-3.509.158-7.915.158A70.112,70.112,0,0,1,70,34.984c0-.158,3.535,0,7.915,0S85.83,34.9,85.83,34.984Z" transform="translate(99.171 47.371)" fill="#e8505b"/>
    <path id="Trazado_215651" data-name="Trazado 215651" d="M85.83,35.958H70s3.535-.158,7.915-.158S85.83,35.853,85.83,35.958Z" transform="translate(99.171 48.824)" fill="#e8505b"/>
    <path id="Trazado_215652" data-name="Trazado 215652" d="M35,16.764V69.875a2.137,2.137,0,0,0,2.137,2.137h70.708a2.137,2.137,0,0,0,2.137-2.137V14.917a2.137,2.137,0,0,0-2.19-2.137L37.058,14.627A2.137,2.137,0,0,0,35,16.764Z" transform="translate(41.828 11.108)" fill="#e0e0e0"/>
    <path id="Trazado_215653" data-name="Trazado 215653" d="M101.058,19.174A18.5,18.5,0,0,0,98.42,18.2a16.6,16.6,0,0,0-7.519-.554,15.54,15.54,0,0,0-4.934,1.583,22.69,22.69,0,0,0-4.881,3.509c-1.583,1.4-3.166,2.981-5.013,4.485a17.2,17.2,0,0,1-6.385,3.456,9.34,9.34,0,0,1-3.72.211,11.477,11.477,0,0,1-3.456-1.055,62.477,62.477,0,0,1-5.8-3.456,17.334,17.334,0,0,0-5.435-2.427,15.514,15.514,0,0,0-5.277-.4,16.437,16.437,0,0,0-7.15,2.322c-1.53.923-2.269,1.636-2.3,1.583a3.007,3.007,0,0,1,.528-.5,10.949,10.949,0,0,1,1.662-1.266,16.12,16.12,0,0,1,7.229-2.638,15.593,15.593,0,0,1,5.277.343,17.941,17.941,0,0,1,5.593,2.454,63.323,63.323,0,0,0,5.752,3.377,9.815,9.815,0,0,0,6.833.792A16.542,16.542,0,0,0,75.6,26.667c1.82-1.425,3.4-3.034,5.013-4.432A22.875,22.875,0,0,1,85.624,18.7a16.516,16.516,0,0,1,5.092-1.557,16.147,16.147,0,0,1,7.625.739,13.9,13.9,0,0,1,1.926.818Z" transform="translate(44.367 17.985)" fill="#455a64"/>
    <rect id="Rectángulo_44219" data-name="Rectángulo 44219" width="6.913" height="18.706" transform="translate(93.502 49.639)" fill="#455a64"/>
    <rect id="Rectángulo_44220" data-name="Rectángulo 44220" width="6.913" height="18.706" transform="translate(122.867 49.639)" fill="#455a64"/>
    <rect id="Rectángulo_44221" data-name="Rectángulo 44221" width="6.913" height="29.708" transform="translate(132.656 38.663)" fill="#455a64"/>
    <rect id="Rectángulo_44222" data-name="Rectángulo 44222" width="6.913" height="6.306" transform="translate(84.558 62.461)" fill="#455a64"/>
    <rect id="Rectángulo_44223" data-name="Rectángulo 44223" width="6.913" height="10.263" transform="translate(103.291 58.082)" fill="#455a64"/>
    <rect id="Rectángulo_44224" data-name="Rectángulo 44224" width="6.913" height="12.611" transform="translate(113.079 55.733)" fill="#455a64"/>
    <path id="Trazado_215654" data-name="Trazado 215654" d="M48.687,30.672a12.242,12.242,0,0,1-3.72.29,12.348,12.348,0,0,1-3.746-.29,12.347,12.347,0,0,1,3.746-.29A12.242,12.242,0,0,1,48.687,30.672Z" transform="translate(52.018 39.889)" fill="#263238"/>
    <path id="Trazado_215655" data-name="Trazado 215655" d="M45.361,30.672a12.48,12.48,0,0,1-3.746.29A12.242,12.242,0,0,1,38,30.672a12.242,12.242,0,0,1,3.72-.29A12.48,12.48,0,0,1,45.361,30.672Z" transform="translate(46.743 39.889)" fill="#263238"/>
    <path id="Trazado_215656" data-name="Trazado 215656" d="M64.543,30.672a15.83,15.83,0,0,1-4.221.29,15.593,15.593,0,0,1-4.221-.29,15.593,15.593,0,0,1,4.221-.29,15.831,15.831,0,0,1,4.221.29Z" transform="translate(76.397 39.889)" fill="#263238"/>
    <ellipse id="Elipse_7082" data-name="Elipse 7082" cx="4.221" cy="0.29" rx="4.221" ry="0.29" transform="translate(122.208 70.271)" fill="#263238"/>
    <path id="Trazado_215657" data-name="Trazado 215657" d="M56.023,30.676a12.48,12.48,0,0,1-3.747.29,12.479,12.479,0,0,1-3.746-.29,12.479,12.479,0,0,1,3.878-.29,12.479,12.479,0,0,1,3.615.29Z" transform="translate(63.995 39.885)" fill="#263238"/>
    <path id="Trazado_215658" data-name="Trazado 215658" d="M52.167,30.672a12.242,12.242,0,0,1-3.72.29,12.348,12.348,0,0,1-3.746-.29,12.347,12.347,0,0,1,3.746-.29A12.242,12.242,0,0,1,52.167,30.672Z" transform="translate(57.72 39.889)" fill="#263238"/>
    <path id="Trazado_215659" data-name="Trazado 215659" d="M93.326,39.35h.132a.792.792,0,0,1,.343,0,.818.818,0,0,1,.4.4,1.53,1.53,0,0,1,.132.792V61.565a1.135,1.135,0,0,1,0,.765,1.082,1.082,0,0,1-.633.5,3.774,3.774,0,0,1-.765,0H91.4v5.593l-.211-.237-4.7-5.277H34.306a1.135,1.135,0,0,1-.58-.237,1.742,1.742,0,0,1-.369-.528,1.319,1.319,0,0,1,0-.317V40.273a1.108,1.108,0,0,1,.58-.95,1.135,1.135,0,0,1,.58,0H34.49a.818.818,0,0,0-.449,0,.9.9,0,0,0-.449.686v21.4a1.5,1.5,0,0,0,0,.5.818.818,0,0,0,.264.4.66.66,0,0,0,.422.158H86.73l4.67,5.277h-.185v-4.96h1.636a3.166,3.166,0,0,0,.712,0,.844.844,0,0,0,.5-.4,1.055,1.055,0,0,0,0-.66V40.7a1.424,1.424,0,0,0,0-.765.95.95,0,0,0-.4-.4,1.108,1.108,0,0,0-.343-.185Z" transform="translate(39.118 54.535)" fill="#263238"/>
    <path id="Trazado_215660" data-name="Trazado 215660" d="M34.56,54.922A12.427,12.427,0,0,1,36.723,50.2a4.775,4.775,0,0,1,4.617-1.82c2.638.686,3.984,4.274,6.728,4.617a4.564,4.564,0,0,0,3.958-1.873,24.431,24.431,0,0,0,2.322-3.931,11.477,11.477,0,0,1,4.723-4.855,6.227,6.227,0,0,1,6.517.4c3.087,2.427,2.638,7.915,5.963,9.947a4.749,4.749,0,0,0,5.277-.158c1.451-1.082,2.216-2.955,3.746-3.9a5.118,5.118,0,0,1,5.857.66A8.891,8.891,0,0,1,89.2,54.79" transform="translate(41.107 58.328)" fill="#f67409"/>
    <path id="Trazado_215661" data-name="Trazado 215661" d="M87.349,43.72h0l-.4-.158a7.915,7.915,0,0,0-1.5-.528,12.084,12.084,0,0,0-5.857.185,20.4,20.4,0,0,0-3.852,1.425c-1.319.607-2.638,1.372-4.2,2.137a34.3,34.3,0,0,1-4.775,2.111,14.063,14.063,0,0,1-5.567.792,19.286,19.286,0,0,1-5.461-1.372c-1.689-.686-3.245-1.5-4.749-2.243a28.231,28.231,0,0,0-8.179-3.087,12.031,12.031,0,0,0-5.857.422,10.555,10.555,0,0,0-1.926.95h0l.343-.237a6.569,6.569,0,0,1,1.451-.739,11.4,11.4,0,0,1,5.91-.528,27.624,27.624,0,0,1,8.285,3.061c1.5.739,3.034,1.53,4.723,2.19a18.152,18.152,0,0,0,5.277,1.346,13.93,13.93,0,0,0,5.593-.9,37.332,37.332,0,0,0,4.749-2.084c1.477-.765,2.876-1.53,4.221-2.137a22.611,22.611,0,0,1,3.9-1.4,12.163,12.163,0,0,1,5.936,0A6.332,6.332,0,0,1,87.349,43.72Z" transform="translate(41.877 59.9)" fill="#263238"/>
    <path id="Trazado_215662" data-name="Trazado 215662" d="M45.982,42a.7.7,0,1,1-.607-.607A.607.607,0,0,1,45.982,42Z" transform="translate(57.625 57.958)" fill="#455a64"/>
    <path id="Trazado_215663" data-name="Trazado 215663" d="M37.685,43.025a.607.607,0,1,1-.254-.629.607.607,0,0,1,.254.629Z" transform="translate(44.261 59.46)" fill="#455a64"/>
    <path id="Trazado_215664" data-name="Trazado 215664" d="M54.013,42.931a.607.607,0,1,1-.58-.58A.58.58,0,0,1,54.013,42.931Z" transform="translate(70.991 59.555)" fill="#455a64"/>
    <path id="Trazado_215665" data-name="Trazado 215665" d="M95.124,78.535H100.4c2.638,0,7.915-6.622-21.318-5.857-19.207.5-20.447,3.324-19.5,4.987a2.4,2.4,0,0,0,2.269,1.108h1.82L63.2,80.8h0L52.62,127.979l1.873-.158,7.915-25.988,15.039-.58.871,27.624h2.375l.554-27.782h1.583l13.35-.5,7.915,28.336h2.3Zm-31.661,19.6L68.74,80.778l.712-1.873h7.361l.554,18.785Zm19.867-.633H81.273l.4-19.049h8.416l5.277,18.469Z" transform="translate(70.696 109.143)" fill="#455a64"/>
    <path id="Trazado_215666" data-name="Trazado 215666" d="M55.092,96.495V90.4H66.042v9.129h-.66a118.855,118.855,0,0,1-17.387,0C45.885,98.764,55.092,96.495,55.092,96.495Z" transform="translate(62.604 138.279)" fill="#f67409"/>
    <path id="Trazado_215667" data-name="Trazado 215667" d="M47.73,93.735s4.089.185,9.155.185,9.129,0,9.129-.185-4.089-.185-9.129-.185S47.73,93.629,47.73,93.735Z" transform="translate(62.684 143.44)" fill="#263238"/>
    <path id="Trazado_215668" data-name="Trazado 215668" d="M50.946,93.889a1.378,1.378,0,0,0-.211-.686c-.211-.317-.528-.5-.607-.422s0,.343.29.633S50.867,93.916,50.946,93.889Z" transform="translate(66.566 142.151)" fill="#263238"/>
    <path id="Trazado_215669" data-name="Trazado 215669" d="M50.653,94.169a2.091,2.091,0,0,0-.185-.792c-.185-.4-.5-.607-.58-.528s0,.369.264.712S50.548,94.2,50.653,94.169Z" transform="translate(66.172 142.266)" fill="#263238"/>
    <path id="Trazado_215670" data-name="Trazado 215670" d="M53.413,94.894s.211,0,.449-.4a7.915,7.915,0,0,1,.95-.95A2.85,2.85,0,0,1,56,93.021h.58A.842.842,0,0,0,56,92.81a2.111,2.111,0,0,0-1.4.5,3.746,3.746,0,0,0-.95,1.082C53.466,94.657,53.387,94.868,53.413,94.894Z" transform="translate(71.987 142.227)" fill="#263238"/>
    <path id="Trazado_215671" data-name="Trazado 215671" d="M50.41,92.767a.917.917,0,0,0,.449.422.843.843,0,0,0,.607,0,1,1,0,0,0-.475-.317C50.727,92.794,50.463,92.688,50.41,92.767Z" transform="translate(67.075 142.112)" fill="#263238"/>
    <path id="Trazado_215672" data-name="Trazado 215672" d="M50.47,92.645a1.357,1.357,0,0,0,.66.185c.369,0,.66,0,.66-.185s-.29-.185-.66-.185S50.5,92.539,50.47,92.645Z" transform="translate(67.173 141.654)" fill="#263238"/>
    <path id="Trazado_215673" data-name="Trazado 215673" d="M63.888,96.495V90.4H74.811v9.129h-.686a118.888,118.888,0,0,1-17.387,0C54.6,98.764,63.888,96.495,63.888,96.495Z" transform="translate(76.92 138.279)" fill="#f67409"/>
    <path id="Trazado_215674" data-name="Trazado 215674" d="M56.49,93.735s4.089.185,9.129.185,9.129,0,9.129-.185-4.089-.185-9.129-.185S56.49,93.629,56.49,93.735Z" transform="translate(77.036 143.44)" fill="#263238"/>
    <path id="Trazado_215675" data-name="Trazado 215675" d="M59.7,93.889a1.378,1.378,0,0,0-.211-.686c-.211-.317-.528-.5-.607-.422s0,.343.317.633S59.616,93.916,59.7,93.889Z" transform="translate(80.902 142.151)" fill="#263238"/>
    <path id="Trazado_215676" data-name="Trazado 215676" d="M59.387,94.169a2.091,2.091,0,0,0-.185-.792c-.185-.4-.475-.607-.554-.528s0,.369.237.712S59.282,94.2,59.387,94.169Z" transform="translate(80.524 142.266)" fill="#263238"/>
    <path id="Trazado_215677" data-name="Trazado 215677" d="M62.163,94.894s.211,0,.449-.4a7.916,7.916,0,0,1,.95-.95,2.85,2.85,0,0,1,1.187-.528h.58a.842.842,0,0,0-.58-.211,2.111,2.111,0,0,0-1.4.5,3.746,3.746,0,0,0-.95,1.082C62.216,94.657,62.137,94.868,62.163,94.894Z" transform="translate(86.323 142.227)" fill="#263238"/>
    <path id="Trazado_215678" data-name="Trazado 215678" d="M59.16,92.767a.917.917,0,0,0,.449.422.843.843,0,0,0,.607,0,1,1,0,0,0-.475-.317C59.477,92.794,59.213,92.688,59.16,92.767Z" transform="translate(81.411 142.112)" fill="#263238"/>
    <path id="Trazado_215679" data-name="Trazado 215679" d="M59.23,92.645a1.2,1.2,0,0,0,.633.185c.369,0,.66,0,.66-.185s-.29-.185-.66-.185S59.23,92.539,59.23,92.645Z" transform="translate(81.526 141.654)" fill="#263238"/>
    <path id="Trazado_215680" data-name="Trazado 215680" d="M81.288,63.956c-.475,0-1.029,0-1.293-.422a1.319,1.319,0,0,1,0-1.214,5.673,5.673,0,0,0,0-3.958A4.327,4.327,0,0,0,78.359,56.3a1.609,1.609,0,0,0,.264-.369,2.4,2.4,0,0,0,.317-1.24,2.638,2.638,0,0,0-.844-2.111,1.346,1.346,0,0,0-1.794,0,.923.923,0,0,0,0,1.346.792.792,0,0,0,.871,0,.607.607,0,0,0,.237-.211l-.264.158a.72.72,0,1,1-.686-1.266,1.134,1.134,0,0,1,1.53,0,2.638,2.638,0,0,1,.739,1.952,2.4,2.4,0,0,1-.29,1.108,1.819,1.819,0,0,1-.29.343,3.457,3.457,0,0,0-.976-.4,9.208,9.208,0,0,1-2.243-.5,2.638,2.638,0,0,1-1.187-1.451.449.449,0,0,1,0-.185,27.968,27.968,0,0,1,.422-2.981,9.313,9.313,0,0,0,0-2.849A5.277,5.277,0,0,0,71.526,43.8a3.641,3.641,0,0,0-3.192,0,3.246,3.246,0,0,0-.739.475h0a2.084,2.084,0,0,0-.871.712L64.93,60.816l12.981,7.915a10.158,10.158,0,0,0,2.955-.607,3.245,3.245,0,0,0,1.979-2.137A1.979,1.979,0,0,0,81.288,63.956ZM72.766,47.229a5.013,5.013,0,0,0-2.638-2.849,3.509,3.509,0,0,0-2.638,0,3.139,3.139,0,0,1,.765-.422,3.694,3.694,0,0,1,3.061,0,5.277,5.277,0,0,1,2.638,3.72,9.684,9.684,0,0,1,0,2.638c0,.712-.29,1.425-.369,2.19V50.87A12.427,12.427,0,0,0,72.766,47.229Z" transform="translate(90.864 61.325)" fill="#263238"/>
    <path id="Trazado_215681" data-name="Trazado 215681" d="M76.582,51.211a1.346,1.346,0,0,0-.5-.792,2.111,2.111,0,0,0-1.557,0V46.7l-7.2-5.7L63.5,43.005a5.989,5.989,0,0,0-3.245,5.277,91.355,91.355,0,0,0,.29,9.234,4.723,4.723,0,0,0,4.327,4.221s.158,1.4.29,2.8c0,0-.871,11.556,3.192,11.451,3.008,0,5.013-6.358,5.857-9.683l.449-1.82v-.158h0V53.374h0a.844.844,0,0,0,.923,0,1.689,1.689,0,0,0,.95-1,2.217,2.217,0,0,0,.053-1.161Z" transform="translate(83.197 57.343)" fill="#ffbe9d"/>
    <path id="Trazado_215682" data-name="Trazado 215682" d="M60.6,45.135a.5.5,0,1,0,1,0,.475.475,0,0,0-.5-.475.5.5,0,0,0-.5.475Z" transform="translate(83.77 63.339)" fill="#263238"/>
    <path id="Trazado_215683" data-name="Trazado 215683" d="M60.414,45.117a2.7,2.7,0,0,1,.976-.317c.528-.053.95.211,1,0s0,0-.211-.264a1.451,1.451,0,0,0-.818-.185,1.372,1.372,0,0,0-.765.317C60.44,44.959,60.388,45.091,60.414,45.117Z" transform="translate(83.455 62.829)" fill="#263238"/>
    <path id="Trazado_215684" data-name="Trazado 215684" d="M62.8,45.043a.519.519,0,1,0,.528-.422.5.5,0,0,0-.528.422Z" transform="translate(87.371 63.273)" fill="#263238"/>
    <path id="Trazado_215685" data-name="Trazado 215685" d="M62.684,45.048a2.231,2.231,0,0,1,.976-.29c.554-.026.95.211,1,0s0-.158-.237-.264a1.214,1.214,0,0,0-.792-.211,1.161,1.161,0,0,0-.765.343C62.71,44.889,62.658,45.021,62.684,45.048Z" transform="translate(87.174 62.714)" fill="#263238"/>
    <path id="Trazado_215686" data-name="Trazado 215686" d="M62.86,49.263a3.482,3.482,0,0,1-.871,0h-.237a.317.317,0,0,1-.237-.211.976.976,0,0,1,0-.554l.317-1.134A21.791,21.791,0,0,1,62.86,44.54a16.781,16.781,0,0,1-.739,2.955,4.149,4.149,0,0,1-.343,1.108,1.055,1.055,0,0,0,0,.449.4.4,0,0,0,.317,0C62.465,49.184,62.86,49.21,62.86,49.263Z" transform="translate(85.203 63.143)" fill="#263238"/>
    <path id="Trazado_215687" data-name="Trazado 215687" d="M64.328,46.49a7.177,7.177,0,0,1-2.638,1,1.477,1.477,0,0,0,1.794.449,1.214,1.214,0,0,0,.844-1.451Z" transform="translate(85.556 66.338)" fill="#fafafa"/>
    <path id="Trazado_215688" data-name="Trazado 215688" d="M62,50.023a10,10,0,0,0,5.145-1.873A5.039,5.039,0,0,1,62,50.973Z" transform="translate(86.064 69.058)" fill="#eb996e"/>
    <path id="Trazado_215689" data-name="Trazado 215689" d="M60,48.979a11.292,11.292,0,0,0,4.644-.66,5.277,5.277,0,0,0,3.826-3.14A5.7,5.7,0,0,0,69.9,48.055c.158.185.449.343.607,0a.5.5,0,0,0,0-.343L70.265,46.5a11.371,11.371,0,0,0,2.269,2.849c.95.765,3.852,1.952,3.4.818,0-.29.871-9.155-7.546-9.287a7.915,7.915,0,0,0-8.39,8.1Z" transform="translate(82.786 57.121)" fill="#263238"/>
    <path id="Trazado_215690" data-name="Trazado 215690" d="M65.7,45s0-.185.5-.185a.9.9,0,0,1,.871.95,1.029,1.029,0,0,1-.29.712.871.871,0,0,1-.58.211c-.369,0-.528-.158-.5-.185a2.362,2.362,0,0,1,.475,0,.739.739,0,0,0,0-1.451C65.913,44.978,65.728,45.057,65.7,45Z" transform="translate(92.124 63.602)" fill="#eb996e"/>
    <path id="Trazado_215691" data-name="Trazado 215691" d="M96.428,64.3l1.451-.29S94.713,49.84,83.763,49.84H82.444V50L82,51.819c-.844,3.324-2.849,9.6-5.857,9.683-3.8,0-3.3-9.947-3.219-11.292l-.237.053s-11.925.66-17.2,11.108l9.287,6.754,2.243-1.372s.739,14.775-.528,18.812c-1.557,4.538-3.773,9.551-3.773,9.551a206.719,206.719,0,0,1,33.85.818l-8.047-30A28.705,28.705,0,0,0,96.428,64.3Z" transform="translate(75.382 71.826)" fill="#f67409"/>
    <path id="Trazado_215692" data-name="Trazado 215692" d="M72.942,58.213s0,.132-.264.317a4.538,4.538,0,0,1-.871.686,6.042,6.042,0,0,1-3.509.976,6.2,6.2,0,0,1-3.43-1.214,3.932,3.932,0,0,1-.818-.765c-.185-.211-.264-.317-.237-.343a12.349,12.349,0,0,0,1.161.923A6.438,6.438,0,0,0,68.3,59.9a6.226,6.226,0,0,0,3.4-.871A8.63,8.63,0,0,0,72.942,58.213Z" transform="translate(89.026 84.983)" fill="#263238"/>
    <path id="Trazado_215693" data-name="Trazado 215693" d="M72.835,72.272a1.716,1.716,0,0,0-.237-.712,11.853,11.853,0,0,1-.58-1.952c-.5-1.662-1.187-3.931-1.979-6.438s-1.53-4.749-2.084-6.385l-.66-1.952a3.4,3.4,0,0,1-.185-.712l.29.686c.185.449.449,1.108.739,1.9.607,1.609,1.4,3.852,2.19,6.385s1.451,4.775,1.873,6.464c.237.818.4,1.5.5,1.979A2.638,2.638,0,0,1,72.835,72.272Z" transform="translate(94.436 78.839)" fill="#263238"/>
    <path id="Trazado_215694" data-name="Trazado 215694" d="M69.65,53.121a3.219,3.219,0,0,1-1.451-.369,3.852,3.852,0,0,1-1.319-.792,4.7,4.7,0,0,1,1.425.5,4.644,4.644,0,0,1,1.346.66Z" transform="translate(94.059 75.3)" fill="#263238"/>
    <path id="Trazado_215695" data-name="Trazado 215695" d="M69,56.3a4.538,4.538,0,0,1,.4-1.689,4.829,4.829,0,0,1,.686-1.583,4.935,4.935,0,0,1-.422,1.689A5.277,5.277,0,0,1,69,56.3Z" transform="translate(97.533 77.053)" fill="#263238"/>
    <path id="Trazado_215696" data-name="Trazado 215696" d="M65.28,57.412a4.538,4.538,0,0,1,.607-1.5,5.674,5.674,0,0,1,.792-1.4,3.694,3.694,0,0,1-.528,1.53,4.512,4.512,0,0,1-.871,1.372Z" transform="translate(91.438 79.478)" fill="#263238"/>
    <path id="Trazado_215697" data-name="Trazado 215697" d="M66.015,58.365a3.984,3.984,0,0,1-1.293-1.108c-.66-.712-1.055-1.372-.976-1.425s.554.528,1.187,1.214A5.643,5.643,0,0,1,66.015,58.365Z" transform="translate(88.908 81.638)" fill="#263238"/>
    <path id="Trazado_215698" data-name="Trazado 215698" d="M69.227,56.61a5.619,5.619,0,0,1-1.24,1.636,7.731,7.731,0,0,1-1.425,1.24l-.422.264.343-.343s0-.132.158,0v.158h0l1.293-1.346a9.549,9.549,0,0,1,1.293-1.609Z" transform="translate(92.847 82.918)" fill="#263238"/>
    <path id="Trazado_215699" data-name="Trazado 215699" d="M69.682,61.581a4.511,4.511,0,0,1-1.583-.66A3.931,3.931,0,0,1,66.78,59.84a7.7,7.7,0,0,1,1.478.818A6.332,6.332,0,0,1,69.682,61.581Z" transform="translate(93.895 88.21)" fill="#263238"/>
    <path id="Trazado_215700" data-name="Trazado 215700" d="M66.389,59.612a5.462,5.462,0,0,1-.871,1.5c-.528.792-1.029,1.4-1.108,1.346a5.461,5.461,0,0,1,.871-1.5C65.808,60.166,66.31,59.559,66.389,59.612Z" transform="translate(90.012 87.831)" fill="#263238"/>
    <path id="Trazado_215701" data-name="Trazado 215701" d="M64.749,60.849a6.269,6.269,0,0,1-1.214-.739c-.607-.475-1.055-.923-1-.976a3.559,3.559,0,0,1,1.187.739C64.327,60.347,64.8,60.8,64.749,60.849Z" transform="translate(86.93 87.043)" fill="#263238"/>
    <path id="Trazado_215702" data-name="Trazado 215702" d="M63.762,57.14a5.6,5.6,0,0,1-1,.9c-.607.422-1.135.739-1.187.66s.4-.475,1-.9A3.588,3.588,0,0,1,63.762,57.14Z" transform="translate(85.357 83.787)" fill="#263238"/>
    <path id="Trazado_215703" data-name="Trazado 215703" d="M63.007,57.12a6.892,6.892,0,0,1-.923-.976c-.449-.58-.765-1.108-.686-1.161s.475.4.923.976a3.4,3.4,0,0,1,.686,1.161Z" transform="translate(85.057 80.245)" fill="#263238"/>
    <path id="Trazado_215704" data-name="Trazado 215704" d="M65.91,53.875a3.694,3.694,0,0,1,.58-1.4,4.063,4.063,0,0,1,.844-1.266,7.915,7.915,0,0,1-1.425,2.638Z" transform="translate(92.47 74.071)" fill="#263238"/>
    <path id="Trazado_215705" data-name="Trazado 215705" d="M62.8,53.515a5.039,5.039,0,0,1-1.477-.739A5.752,5.752,0,0,1,60,51.8a4.01,4.01,0,0,1,1.477.712C62.243,52.987,62.849,53.436,62.8,53.515Z" transform="translate(82.787 75.038)" fill="#263238"/>
    <path id="Trazado_215706" data-name="Trazado 215706" d="M59.283,51.791a4.217,4.217,0,0,1-.475,1.108c-.343.554-.66.976-.739.95s.158-.554.475-1.108S59.2,51.764,59.283,51.791Z" transform="translate(79.599 75.021)" fill="#263238"/>
    <path id="Trazado_215707" data-name="Trazado 215707" d="M62.782,67.581a4.538,4.538,0,0,1-1.4-.765,4.485,4.485,0,0,1-1.214-.976,9.241,9.241,0,0,1,1.4.739C62.307,67.054,62.835,67.5,62.782,67.581Z" transform="translate(83.066 98.04)" fill="#263238"/>
    <path id="Trazado_215708" data-name="Trazado 215708" d="M69.751,65.712a3.852,3.852,0,0,1-.95,1.24c-.58.633-1.082,1.108-1.161,1.055a3.852,3.852,0,0,1,.95-1.24C69.17,66.135,69.672,65.66,69.751,65.712Z" transform="translate(95.304 97.825)" fill="#263238"/>
    <path id="Trazado_215709" data-name="Trazado 215709" d="M63.508,67.955a5.725,5.725,0,0,1,0-1.161,5.54,5.54,0,0,1,0-1.135,2.371,2.371,0,0,1,.29,1.135C63.8,67.454,63.587,67.982,63.508,67.955Z" transform="translate(88.487 97.746)" fill="#263238"/>
    <path id="Trazado_215710" data-name="Trazado 215710" d="M67.7,67.569a4.2,4.2,0,0,1-1.4-.686,4.115,4.115,0,0,1-1.24-.923,3.772,3.772,0,0,1,1.4.686C67.2,67.094,67.751,67.49,67.7,67.569Z" transform="translate(91.077 98.237)" fill="#263238"/>
    <path id="Trazado_215711" data-name="Trazado 215711" d="M92.07,68.16H90.751l-3.615-.317c-3.061-.264-7.282-.633-11.952-.712s-8.918,0-12,0l-3.615.185h0l3.615-.264c3.061-.158,7.308-.317,12-.211s8.918.475,11.952.792l3.615.422.976.132C91.938,68.108,92.07,68.134,92.07,68.16Z" transform="translate(79.871 99.625)" fill="#263238"/>
    <g id="Grupo_145960" data-name="Grupo 145960" transform="translate(161.546 132.959)" opacity="0.2">
      <path id="Trazado_215712" data-name="Trazado 215712" d="M67.11,54.12l2.849,19.1s2.638,0,3.166-.792Z" transform="translate(-67.11 -54.12)"/>
      <path id="Trazado_215713" data-name="Trazado 215713" d="M67.11,54.12l2.849,19.1s2.638,0,3.166-.792Z" transform="translate(-67.11 -54.12)"/>
    </g>
    <path id="Trazado_215714" data-name="Trazado 215714" d="M78.468,66.943c-6.781.5-10.554,0-17.888.739a10.553,10.553,0,0,0-9.234,10.29L50,134.142H63.64l2.19-50.367,4.037.5c-.528,18.864,1.451,49.865,1.451,49.865l15.171-.739-.871-48.361s20.421,1.372,19.893-16.938a176.324,176.324,0,0,0-27.043-1.161Z" transform="translate(66.403 99.681)" fill="#263238"/>
    <path id="Trazado_215715" data-name="Trazado 215715" d="M70.092,66.82A5.619,5.619,0,0,1,69.063,67l-2.8.449A16.991,16.991,0,0,0,62.2,68.535a8.258,8.258,0,0,0-2.058,1.319,6.437,6.437,0,0,0-1.557,2.084,11.424,11.424,0,0,0-.976,4.987v7.862a1.32,1.32,0,0,1,0,.29,6.781,6.781,0,0,1,0-1.055v-7.1a12.137,12.137,0,0,1,.976-5.118,7.1,7.1,0,0,1,1.636-2.163A8.627,8.627,0,0,1,62.388,68.3,15.831,15.831,0,0,1,66.5,67.242c1.187-.185,2.163-.29,2.849-.369h.765Z" transform="translate(78.842 99.646)" fill="#455a64"/>
    <path id="Trazado_215716" data-name="Trazado 215716" d="M55.56,71.93a12.135,12.135,0,0,1,.739,1.689,3.8,3.8,0,0,1,.449,1.82,10.157,10.157,0,0,1-.739-1.715,3.72,3.72,0,0,1-.449-1.794Z" transform="translate(75.513 108.018)" fill="#455a64"/>
    <path id="Trazado_215717" data-name="Trazado 215717" d="M56,71.5a6.6,6.6,0,0,1,.422,2.322,4.907,4.907,0,0,1-.317,2.322V73.822A20.024,20.024,0,0,1,56,71.5Z" transform="translate(76.233 107.314)" fill="#455a64"/>
    <path id="Trazado_215718" data-name="Trazado 215718" d="M63.12,71.9a8.206,8.206,0,0,1,.66,2.4,14.671,14.671,0,0,1,.369,2.454,8.548,8.548,0,0,1-.66-2.4A14.672,14.672,0,0,1,63.12,71.9Z" transform="translate(87.899 107.969)" fill="#455a64"/>
    <path id="Trazado_215719" data-name="Trazado 215719" d="M63.8,71.9a6.385,6.385,0,0,1,.185,2.427,6.833,6.833,0,0,1-.449,2.427,22.428,22.428,0,0,1,.158-2.427A19.239,19.239,0,0,1,63.8,71.9Z" transform="translate(88.587 107.969)" fill="#455a64"/>
    <path id="Trazado_215720" data-name="Trazado 215720" d="M63.367,91.208H49.99s3.008-.158,6.7-.158S63.367,91.129,63.367,91.208Z" transform="translate(66.387 139.344)" fill="#455a64"/>
    <path id="Trazado_215721" data-name="Trazado 215721" d="M73.223,91s-3.4.158-7.6.158S58,91,58,91H73.223Z" transform="translate(79.51 139.262)" fill="#455a64"/>
    <path id="Trazado_215722" data-name="Trazado 215722" d="M84.946,70.6H68.4a11.846,11.846,0,0,0-3.008.343,4.8,4.8,0,0,0-2.638,1.636,5.435,5.435,0,0,0-.976,3.166V79.3c0,2.454.132,4.96.211,7.546.29,10.369.528,19.735.607,26.516v10.87a.739.739,0,0,1,0-.211v-2.744c0-1.926,0-4.644-.158-7.915-.132-6.781-.422-16.147-.712-26.384,0-2.638,0-5.118-.185-7.546a27.539,27.539,0,0,1,0-3.615,5.646,5.646,0,0,1,1.055-3.3,5.013,5.013,0,0,1,2.8-1.741,14.007,14.007,0,0,1,3.087-.343H84.92Z" transform="translate(85.201 105.577)" fill="#455a64"/>
    <path id="Trazado_215723" data-name="Trazado 215723" d="M56.975,80.048A20.606,20.606,0,0,1,58.98,69.31l-.4,10.923Z" transform="translate(77.713 103.726)" opacity="0.2"/>
    <path id="Trazado_215724" data-name="Trazado 215724" d="M63.241,71.193h-.58a16.7,16.7,0,0,0-1.741-.29,7.6,7.6,0,0,0-2.638.158,5.277,5.277,0,0,0-1.5.712,4.011,4.011,0,0,0-1.187,1.451,11,11,0,0,0-.686,4.3v5.092c0,3.588-.211,7.519-.317,11.662-.237,8.258-.475,15.83-.633,21.107,0,2.638-.158,4.881-.211,6.411v2.19a.739.739,0,0,0,0,.158V121.8c0-1.557,0-3.72.132-6.438,0-5.435.343-12.9.554-21.107,0-4.142.211-8.073.317-11.662,0-1.794,0-3.509.158-5.092a10.553,10.553,0,0,1,.739-4.38,3.562,3.562,0,0,1,1.266-1.5,4.537,4.537,0,0,1,1.583-.739,7.177,7.177,0,0,1,2.638,0,7.122,7.122,0,0,1,1.715.317h.449Z" transform="translate(72.528 106.091)" fill="#455a64"/>
    <path id="Trazado_215725" data-name="Trazado 215725" d="M68.344,54.5S53.938,69.011,51.168,72.2c-2.348,2.638-.818,7.915,1.161,8.205S86.074,80.2,86.074,80.2l-.4-6.49s-20.606,0-21.107-.29S76.417,60.384,76.417,60.384Z" transform="translate(66.37 79.461)" fill="#ffbe9d"/>
    <path id="Trazado_215726" data-name="Trazado 215726" d="M91.274,55.22l4.907,14.854c.528,1.557,3.245,8.205-1.926,8.759s-32.9,0-32.9,0l-2.084-6.7s26.832,0,26.7-1.5-4.09-13.35-4.09-13.35Z" transform="translate(81.591 80.641)" fill="#ffbe9d"/>
    <path id="Trazado_215727" data-name="Trazado 215727" d="M49.21,53.912l9.947,27.6h45.881l-.317-1.372-17.2-.633L79.05,53.49Z" transform="translate(65.109 77.806)" fill="#263238"/>
    <path id="Trazado_215728" data-name="Trazado 215728" d="M59,59.382a1.636,1.636,0,1,1-3.166.554,1.741,1.741,0,0,1,1.24-2.111A1.768,1.768,0,0,1,59,59.382Z" transform="translate(75.873 84.895)" fill="#fafafa"/>
    <path id="Trazado_215729" data-name="Trazado 215729" d="M148.106,63.88H37.4v79.257h2.348V68.55H148.106v74.64h27.7V63.88Z" transform="translate(45.76 94.829)" fill="#455a64"/>
    <path id="Trazado_215730" data-name="Trazado 215730" d="M35.383,96.436V90.5H24.83v8.891h.449a115.932,115.932,0,0,0,16.886,0C44.407,98.626,35.383,96.436,35.383,96.436Z" transform="translate(25.165 138.443)" fill="#f67409"/>
    <path id="Trazado_215731" data-name="Trazado 215731" d="M42.536,93.745s-3.984.185-8.865.185-8.891,0-8.891-.185,3.984-.185,8.891-.185S42.536,93.639,42.536,93.745Z" transform="translate(25.084 143.456)" fill="#263238"/>
    <path id="Trazado_215732" data-name="Trazado 215732" d="M28.9,93.894a1.378,1.378,0,0,1,.211-.686c.211-.317.5-.475.58-.4s0,.343-.29.633S28.979,93.947,28.9,93.894Z" transform="translate(31.834 142.199)" fill="#263238"/>
    <path id="Trazado_215733" data-name="Trazado 215733" d="M29.16,94.172a2.2,2.2,0,0,1,.158-.765c.158-.369.475-.607.554-.528s0,.369-.237.712S29.239,94.2,29.16,94.172Z" transform="translate(32.26 142.316)" fill="#263238"/>
    <path id="Trazado_215734" data-name="Trazado 215734" d="M27.9,94.872s-.185,0-.422-.369a7.6,7.6,0,0,0-.923-.95,2.876,2.876,0,0,0-1.161-.5h-.554a.69.69,0,0,1,.554-.211,2.111,2.111,0,0,1,1.372.449,4.485,4.485,0,0,1,.923,1.082A.881.881,0,0,1,27.9,94.872Z" transform="translate(25.18 142.276)" fill="#263238"/>
    <path id="Trazado_215735" data-name="Trazado 215735" d="M29.55,92.821a.824.824,0,0,1-.422.4,1.064,1.064,0,0,1-.607,0A1.272,1.272,0,0,1,29,92.9C29.26,92.795,29.5,92.715,29.55,92.821Z" transform="translate(31.21 142.164)" fill="#263238"/>
    <path id="Trazado_215736" data-name="Trazado 215736" d="M29.637,92.685a1.322,1.322,0,0,1-.633.185c-.343,0-.66,0-.633-.185s.29-.185.633-.185S29.611,92.579,29.637,92.685Z" transform="translate(30.964 141.72)" fill="#263238"/>
    <path id="Trazado_215737" data-name="Trazado 215737" d="M41.127,32.884V31.09a15.513,15.513,0,0,0,.237-3.008A5.619,5.619,0,0,0,41.1,26.6a7.2,7.2,0,0,0-.818-1.689c-.369-.449,0-1.108.5-.976a4.749,4.749,0,0,1,2.005,3.14c.475,1.794,1.689-.871,2.137-1.82A17.334,17.334,0,0,1,47.354,21.3c.58-.132.844.475.369,1.425s-1.715,3.878-1.187,4.116a2.638,2.638,0,0,1,1.108,0,.233.233,0,0,1,.237.237,3.245,3.245,0,0,0,.185.844s.712-.237.9,0a3.667,3.667,0,0,1,.211,1s.554-.237.844,0,0,1.24,0,1.24a58.044,58.044,0,0,1-4.8,6.042L41.1,32.778" transform="translate(50.238 25.04)" fill="#ffbe9d"/>
    <path id="Trazado_215738" data-name="Trazado 215738" d="M21.16,27.442v22.9L31,50.818l.264-5.567a3.773,3.773,0,0,0,4.406-2.638c.58-2.084.422-18.073.422-18.073Z" transform="translate(19.153 30.375)" fill="#ffbe9d"/>
    <path id="Trazado_215739" data-name="Trazado 215739" d="M38.18,23.291a21.345,21.345,0,0,1-5.066,1.4c-1.266,0-10.422,0-11.266,5.277a4.3,4.3,0,0,1-.264-.765,12.505,12.505,0,0,1,0-1.5A1.873,1.873,0,0,0,21.4,29.28a1.715,1.715,0,0,0,0,.343,1.213,1.213,0,0,0-.185-.185,3.008,3.008,0,0,0-1.161-.633H19.5a9.445,9.445,0,0,1,1.53.871,5.277,5.277,0,0,1,.765.923h0s-1.979-.871-1.451,2.638,2.823,6.622,3.113,12.453c0,0,8.126.95,9.577-2.163l1.187-3.588s-1.952-.317-1.715-1.873c.317-2.19,1.979-2.243,3.219-1.266l1.425-3.826s3.615-2.348,3.8-3.878S41.161,22.341,38.18,23.291Z" transform="translate(16.433 28.142)" fill="#263238"/>
    <path id="Trazado_215740" data-name="Trazado 215740" d="M11.735,91.07,10.31,97.481l9.92,1.214.343-6.332Z" transform="translate(1.376 139.377)" fill="#f67409"/>
    <path id="Trazado_215741" data-name="Trazado 215741" d="M13.14,91.19a14.274,14.274,0,0,1-.317,2.929,15.143,15.143,0,0,1-.633,2.9,15.831,15.831,0,0,1,.343-2.955,15.171,15.171,0,0,1,.607-2.876Z" transform="translate(4.456 139.573)" fill="#263238"/>
    <path id="Trazado_215742" data-name="Trazado 215742" d="M20.109,94.847l-1.425-.185-3.456-.554c-1.346-.237-2.638-.449-3.43-.66A7.915,7.915,0,0,1,10.4,93a6.331,6.331,0,0,1,1.451.158l3.43.58c1.346.211,2.638.449,3.43.633a4.405,4.405,0,0,1,1.4.475Z" transform="translate(1.524 142.539)" fill="#263238"/>
    <path id="Trazado_215743" data-name="Trazado 215743" d="M27.833,53.683,9.47,156.9l15.83.9S42,68.827,44.455,68.616c1.029,0,1.451,88.465,2.269,88.28s16.991.29,16.991.29-2.19-104.8-2.163-104.8Z" transform="translate(0 76.004)" fill="#263238"/>
    <path id="Trazado_215744" data-name="Trazado 215744" d="M32.816,57.715a53.4,53.4,0,0,1-6.068,1.451c-3.377.712-6.147,1.24-6.147,1.161a61.115,61.115,0,0,1,6.068-1.451C30.045,58.163,32.816,57.636,32.816,57.715Z" transform="translate(18.235 84.716)" fill="#455a64"/>
    <path id="Trazado_215745" data-name="Trazado 215745" d="M25.7,90.268H17.785a58.762,58.762,0,0,1-7.915-.4c0-.079,3.562,0,7.915,0S25.7,90.268,25.7,90.268Z" transform="translate(0.655 137.356)" fill="#455a64"/>
    <path id="Trazado_215746" data-name="Trazado 215746" d="M40.573,90.268H32.025a68.789,68.789,0,0,1-8.575-.4c0-.079,3.852,0,8.575,0S40.731,90.268,40.573,90.268Z" transform="translate(22.905 137.356)" fill="#455a64"/>
    <path id="Trazado_215747" data-name="Trazado 215747" d="M30.361,58.8s-3.8,18.469-8.68,41.106-8.891,41.211-8.97,41.053,3.8-18.31,8.68-41.106S30.282,58.774,30.361,58.8Z" transform="translate(5.308 86.506)" fill="#455a64"/>
    <path id="Trazado_215748" data-name="Trazado 215748" d="M27.23,141.314a1.635,1.635,0,0,0,0-.237v-3.008c0-2.111-.185-5.118-.29-8.865-.211-7.467-.422-17.809-.5-29.207s0-21.74.211-29.233c0-3.72.158-6.754.211-8.839V58.891a1.186,1.186,0,0,0,0-.211.738.738,0,0,1,0,.211v3.034c0,2.111,0,5.118-.132,8.865,0,7.467-.158,17.783,0,29.207s.237,21.74.4,29.207c0,3.72.158,6.754.211,8.839v3.034a1.082,1.082,0,0,1-.106.237Z" transform="translate(27.752 86.31)" fill="#455a64"/>
    <path id="Trazado_215749" data-name="Trazado 215749" d="M86.026,25.49S73.837,43.959,72.834,44.882,52.7,47.943,52.7,47.943c-5.857-1.319-24.774-.9-28.363,1.741h0c-3.087,1.715-6.833,5.725-8.786,15.25-3.3,16.226-6.6,22.215,0,24.484a44.588,44.588,0,0,0,8.126,1.926L23.5,98.679l34.3-2.111L56.027,78.31c-.185-5.118-.29-10.554-.422-15.2,2.137-.818,22.057-8.364,23.429-8.548s14.458-24.3,14.458-24.3C93.862,27.337,86.026,25.49,86.026,25.49Z" transform="translate(3.73 31.932)" fill="#f67409"/>
    <path id="Trazado_215750" data-name="Trazado 215750" d="M17.358,38.09s0,8.944-.422,19.973-.607,19.972-.712,19.946,0-8.944.422-19.972S17.279,38.064,17.358,38.09Z" transform="translate(11.003 52.575)" fill="#263238"/>
    <path id="Trazado_215751" data-name="Trazado 215751" d="M36.6,36.982a6.649,6.649,0,0,1-1-2.032,22.133,22.133,0,0,1-.712-2.111,5.937,5.937,0,0,1,1,2.005A11.345,11.345,0,0,1,36.6,36.982Z" transform="translate(41.648 43.974)" fill="#263238"/>
    <path id="Trazado_215752" data-name="Trazado 215752" d="M37.977,35.4a8.68,8.68,0,0,1-1.636-1.161,6.147,6.147,0,0,1-1.451-1.4A10.555,10.555,0,0,1,36.526,34,6.147,6.147,0,0,1,37.977,35.4Z" transform="translate(41.648 43.974)" fill="#263238"/>
    <path id="Trazado_215753" data-name="Trazado 215753" d="M47.457,30.5a5.277,5.277,0,0,1-1.135-.686c-.712-.449-1.689-1.055-2.8-1.636s-2.137-1.082-2.9-1.425A7.149,7.149,0,0,1,39.41,26.2a4.169,4.169,0,0,1,1.293.369,22.215,22.215,0,0,1,2.955,1.346A25.41,25.41,0,0,1,46.3,29.63,4.855,4.855,0,0,1,47.457,30.5Z" transform="translate(49.053 33.095)" fill="#263238"/>
    <path id="Trazado_215754" data-name="Trazado 215754" d="M19.042,46.247a6.253,6.253,0,0,1-2.111-.211A5.857,5.857,0,0,1,14.9,45.35a11.609,11.609,0,0,1,2.084.4A8.521,8.521,0,0,1,19.042,46.247Z" transform="translate(8.896 64.47)" fill="#263238"/>
    <path id="Trazado_215755" data-name="Trazado 215755" d="M32.773,33.89a15.382,15.382,0,0,0-1.847.422,7.546,7.546,0,0,0-3.562,2.638,7.229,7.229,0,0,0-1.319,4.221,16.093,16.093,0,0,0,.185,1.9,1.293,1.293,0,0,1-.185-.5,5.277,5.277,0,0,1-.211-1.372,7.1,7.1,0,0,1,1.293-4.38,7.018,7.018,0,0,1,3.747-2.638,7.546,7.546,0,0,1,1.372-.264Z" transform="translate(26.8 45.694)" fill="#263238"/>
    <path id="Trazado_215756" data-name="Trazado 215756" d="M50.446,52.427s-7.651.633-17.1,1.214-17.123,1-17.149.9,7.651-.607,17.123-1.214S50.446,52.347,50.446,52.427Z" transform="translate(11.026 76.047)" fill="#263238"/>
    <path id="Trazado_215757" data-name="Trazado 215757" d="M41.76,33.75a3.614,3.614,0,0,1,0,.449v1.24a11.028,11.028,0,0,1-.739,4.538,10.554,10.554,0,0,1-4.274,5.277,4.592,4.592,0,0,1-.871.475,9.708,9.708,0,0,1-.923.4L33,46.784a8.258,8.258,0,0,0-1.9.871,6.86,6.86,0,0,0-1.557,1.478,41.765,41.765,0,0,0-1.979,3.746,7.915,7.915,0,0,1-2.8,2.929,6.622,6.622,0,0,1-3.615.66,9,9,0,0,1-3.14-.95,14.221,14.221,0,0,1-3.72-2.638l-.844-.9a2.058,2.058,0,0,1-.29-.343l.317.29.9.871a15.012,15.012,0,0,0,3.746,2.638,9.128,9.128,0,0,0,3.008.818,6.49,6.49,0,0,0,3.509-.739,7.572,7.572,0,0,0,2.638-2.849,39.815,39.815,0,0,1,2.269-3.694,6.438,6.438,0,0,1,1.636-1.53,9.419,9.419,0,0,1,1.952-.923l1.952-.633a9.711,9.711,0,0,0,.923-.4,5.277,5.277,0,0,0,.844-.449,10.553,10.553,0,0,0,4.2-5.118,11.477,11.477,0,0,0,.844-4.459v-.712a5.041,5.041,0,0,1,0-.528,2.638,2.638,0,0,1-.132-.475Z" transform="translate(6.046 45.465)" fill="#263238"/>
    <path id="Trazado_215758" data-name="Trazado 215758" d="M39.439,63.85s-.132,0-.369-.237a3.984,3.984,0,0,0-1.187-.5,19.335,19.335,0,0,0-2.058-.158,18.765,18.765,0,0,1-2.638-.132,12.664,12.664,0,0,1-3.3-.449,11.556,11.556,0,0,1-3.43-1.662,9.789,9.789,0,0,1-2.8-3.14A9.208,9.208,0,0,1,22.5,53.165a7.757,7.757,0,0,1,1.24-4.353,7.915,7.915,0,0,1,3.008-2.8,6.2,6.2,0,0,1,1.9-.633,8.891,8.891,0,0,1,1.847-.158,22.111,22.111,0,0,0,3.3,0,4.723,4.723,0,0,0,3.826-2.375,3.879,3.879,0,0,0,.369-1.24V41.16h0a1.477,1.477,0,0,1,0,.343,3.325,3.325,0,0,1-.317,1.293,3.984,3.984,0,0,1-1.346,1.557,5.435,5.435,0,0,1-2.638.976,22.452,22.452,0,0,1-3.324.132,11.213,11.213,0,0,0-1.82.185,6.543,6.543,0,0,0-1.794.607,7.493,7.493,0,0,0-3.008,2.638,7.7,7.7,0,0,0-1.187,4.2,8.839,8.839,0,0,0,1.266,4.327A9.419,9.419,0,0,0,26.458,60.5a11.266,11.266,0,0,0,3.351,1.636,13.035,13.035,0,0,0,3.219.475,13.092,13.092,0,0,1,2.638.158,17.863,17.863,0,0,1,2.058.237,3.113,3.113,0,0,1,1.187.554l.264.211Z" transform="translate(21.347 57.605)" fill="#263238"/>
    <path id="Trazado_215759" data-name="Trazado 215759" d="M30.164,66.541a5.514,5.514,0,0,0,0-1.24A4.459,4.459,0,0,0,28.4,62.663a4.2,4.2,0,0,0-.976-.475,5.566,5.566,0,0,0-1.187-.211,14.906,14.906,0,0,1-2.638-.369,3.3,3.3,0,0,1-1.293-.791,3.72,3.72,0,0,1-.871-1.293,5.963,5.963,0,0,1-.369-3.192c.317-2.216,1.293-4.116,1.451-5.989a5.673,5.673,0,0,0-.237-2.638,3.72,3.72,0,0,0-1.319-1.794,4.353,4.353,0,0,0-3.219-1,5.752,5.752,0,0,0-1.187.343,2.638,2.638,0,0,1,1.161-.449,4.406,4.406,0,0,1,3.3.739,4.089,4.089,0,0,1,1.425,1.9,6.174,6.174,0,0,1,.29,2.638c-.185,1.926-1.135,3.852-1.451,5.989a5.7,5.7,0,0,0,.343,3.061,4.274,4.274,0,0,0,.818,1.214,3.535,3.535,0,0,0,1.161.712,11.766,11.766,0,0,0,2.638.369,5.83,5.83,0,0,1,1.214.264,3.772,3.772,0,0,1,1.029.528,4.3,4.3,0,0,1,1.768,2.876,3.773,3.773,0,0,1,0,.923A4.663,4.663,0,0,1,30.164,66.541Z" transform="translate(11.6 63.462)" fill="#263238"/>
    <path id="Trazado_215760" data-name="Trazado 215760" d="M21.88,41.095a1.161,1.161,0,0,1,.4-.211,1.926,1.926,0,0,1,1.24,0,1.609,1.609,0,0,1,.739.5,1.557,1.557,0,0,1,.4.923,1.873,1.873,0,0,1-3.192,1.662,1.768,1.768,0,0,1-.475-1.768,1.9,1.9,0,0,1,.712-1.029c.264-.158.422-.185.422-.158a.762.762,0,0,0-.343.264,1.821,1.821,0,0,0-.58.976,1.53,1.53,0,0,0,.449,1.5,1.715,1.715,0,0,0,1.9.29,1.741,1.741,0,0,0,.844-1.715,1.53,1.53,0,0,0-.95-1.266A1.873,1.873,0,0,0,22.3,40.91Z" transform="translate(18.749 56.985)" fill="#263238"/>
    <path id="Trazado_215761" data-name="Trazado 215761" d="M18.634,60.125a16.752,16.752,0,0,0,.264-2.638,11.449,11.449,0,0,0,0-1.346,10.764,10.764,0,0,0-.158-1.53,17.6,17.6,0,0,0-.9-3.4,19.075,19.075,0,0,0-1.636-3.113c-.317-.449-.607-.871-.923-1.24s-.633-.686-.923-.976c-1.135-1.161-2.032-1.715-1.979-1.768a2.3,2.3,0,0,1,.607.369,4.959,4.959,0,0,1,.686.5,9.922,9.922,0,0,1,.844.739,11.21,11.21,0,0,1,.95.976c.317.369.633.792.95,1.24A16.3,16.3,0,0,1,18.107,51.1a16.727,16.727,0,0,1,.9,3.456,14.274,14.274,0,0,1,0,2.929v1.135a1.306,1.306,0,0,1-.158.818C18.687,59.65,18.661,60.151,18.634,60.125Z" transform="translate(4.766 62.439)" fill="#263238"/>
    <path id="Trazado_215762" data-name="Trazado 215762" d="M48.48,38.06a3.983,3.983,0,0,1-.844-.369c-.554-.264-1.346-.607-2.348-.976a16.991,16.991,0,0,0-3.641-.923,12.163,12.163,0,0,0-4.538.237,8.865,8.865,0,0,0-3.984,2.084,7.915,7.915,0,0,0-2.058,3.061,6.2,6.2,0,0,0-.343,2.48c0,.607.132.923,0,.923v-.237a2.639,2.639,0,0,1-.132-.686,5.752,5.752,0,0,1,.264-2.638,7.335,7.335,0,0,1,2.058-3.192,9,9,0,0,1,4.116-2.084,11.794,11.794,0,0,1,4.67-.211,18.813,18.813,0,0,1,3.667.976,22.927,22.927,0,0,1,2.322,1.082l.58.343Z" transform="translate(34.522 48.147)" fill="#263238"/>
    <path id="Trazado_215763" data-name="Trazado 215763" d="M44.2,26.65l.158.132a3.878,3.878,0,0,1,.4.449,6.148,6.148,0,0,1,1.055,1.9,7.572,7.572,0,0,1-3.773,9.525,8.285,8.285,0,0,1-3.113.818,6.2,6.2,0,0,1-2.163-.211L36.2,39.1H36.02a9.182,9.182,0,0,0,2.9.264A7.915,7.915,0,0,0,41.93,38.5,7.335,7.335,0,0,0,45.993,32.4a7.6,7.6,0,0,0-.369-3.113A9.946,9.946,0,0,0,44.2,26.65Z" transform="translate(43.499 33.832)" fill="#263238"/>
    <path id="Trazado_215764" data-name="Trazado 215764" d="M31.136,33.83a44.85,44.85,0,0,1-5.039.185,38.417,38.417,0,0,1-4.987,0A44.24,44.24,0,0,1,26.1,33.7a38.732,38.732,0,0,1,5.039.132Z" transform="translate(19.071 45.332)" fill="#263238"/>
  </g>
</svg>
