<svg id="medios-de-comunicacion-social" xmlns="http://www.w3.org/2000/svg" width="88.476" height="88.476" viewBox="0 0 88.476 88.476">
  <g id="Grupo_146044" data-name="Grupo 146044" transform="translate(29.492 7.373)">
    <g id="Grupo_146043" data-name="Grupo 146043">
      <rect id="Rect치ngulo_44275" data-name="Rect치ngulo 44275" width="29.492" height="2.949" fill="#30610c"/>
    </g>
  </g>
  <g id="Grupo_146046" data-name="Grupo 146046" transform="translate(19.17 29.492)">
    <g id="Grupo_146045" data-name="Grupo 146045">
      <path id="Trazado_216213" data-name="Trazado 216213" d="M85.023,73.805a5.167,5.167,0,0,0-5.161-5.161H76.912V48H73.963V68.644H70.277a5.153,5.153,0,0,0-3.6,8.848,5.1,5.1,0,0,0-.775,6.39,5.157,5.157,0,0,0-3,4.669,5.1,5.1,0,0,0,.518,2.212H51.844a13.265,13.265,0,0,0-5.705-10.9,8.862,8.862,0,0,0,5.705-8.272,1.474,1.474,0,0,0-1.475-1.475h-11.8V55.373H35.624V70.119A4.429,4.429,0,0,0,31.2,74.543v32.441h2.949V74.543a1.476,1.476,0,0,1,1.475-1.475H48.708A5.908,5.908,0,0,1,43,77.492H38.573a1.475,1.475,0,1,0,0,2.949A10.334,10.334,0,0,1,48.9,90.763v1.475a1.474,1.474,0,0,0,1.475,1.475H59a5.1,5.1,0,0,0-.518,2.212,5.167,5.167,0,0,0,5.161,5.161v5.9H66.59v-5.9h6.636a5.167,5.167,0,0,0,5.161-5.161,5.1,5.1,0,0,0-.529-2.233,5.122,5.122,0,0,0,4.168-7.844,5.135,5.135,0,0,0,1.436-8.356A5.14,5.14,0,0,0,85.023,73.805Zm-11.8,24.331H63.641a2.212,2.212,0,1,1,0-4.424h9.585a2.212,2.212,0,0,1,0,4.424Zm4.424-7.373H68.065a2.212,2.212,0,1,1,0-4.424H77.65a2.212,2.212,0,1,1,0,4.424Zm2.212-7.373H70.277a2.212,2.212,0,0,1,0-4.424h9.585a2.212,2.212,0,0,1,0,4.424Zm0-7.373H70.277a2.212,2.212,0,0,1,0-4.424h9.585a2.212,2.212,0,1,1,0,4.424Z" transform="translate(-31.2 -48)" fill="#30610c"/>
    </g>
  </g>
  <g id="Grupo_146048" data-name="Grupo 146048" transform="translate(5.898 13.271)">
    <g id="Grupo_146047" data-name="Grupo 146047">
      <path id="Trazado_216214" data-name="Trazado 216214" d="M25.816,27.1a1.473,1.473,0,0,0-.579-1.07L23.7,24.864a4.024,4.024,0,0,0-7.976.737,8.559,8.559,0,0,1-3.312-1.337l-.514-.347a1.474,1.474,0,0,0-2.3,1.222v1.21a8.517,8.517,0,0,0,1.529,4.9l-1.1,1.116a1.474,1.474,0,0,0,1.048,2.511H18.22a5.582,5.582,0,0,0,5.523-4.96l1.652-1.671A1.476,1.476,0,0,0,25.816,27.1Zm-4.561,1.133a1.472,1.472,0,0,0-.426,1.037,2.635,2.635,0,0,1-2.609,2.654H14.469a1.477,1.477,0,0,0-.3-1.626,5.639,5.639,0,0,1-1.43-2.519,11.469,11.469,0,0,0,4.466.9A1.474,1.474,0,0,0,18.675,27.2V25.655a1.078,1.078,0,1,1,2.154,0,1.475,1.475,0,0,0,.583,1.175l.7.532Z" transform="translate(-9.6 -21.6)" fill="#30610c"/>
    </g>
  </g>
  <g id="Grupo_146050" data-name="Grupo 146050" transform="translate(39.814 22.119)">
    <g id="Grupo_146049" data-name="Grupo 146049">
      <path id="Trazado_216215" data-name="Trazado 216215" d="M73.648,38.949V36H69.224a1.474,1.474,0,0,0-1.475,1.475V41.9H64.8v2.949h2.949v5.9H70.7v-5.9h2.949V41.9H70.7V38.949Z" transform="translate(-64.8 -36)" fill="#30610c"/>
    </g>
  </g>
  <g id="Grupo_146052" data-name="Grupo 146052" transform="translate(30.966 16.221)">
    <g id="Grupo_146051" data-name="Grupo 146051">
      <path id="Trazado_216216" data-name="Trazado 216216" d="M72.519,26.4h-17.7A4.429,4.429,0,0,0,50.4,30.824v17.7a4.429,4.429,0,0,0,4.424,4.424h17.7a4.429,4.429,0,0,0,4.424-4.424v-17.7A4.429,4.429,0,0,0,72.519,26.4Zm1.475,22.119a1.476,1.476,0,0,1-1.475,1.475h-17.7a1.476,1.476,0,0,1-1.475-1.475v-17.7a1.476,1.476,0,0,1,1.475-1.475h17.7a1.476,1.476,0,0,1,1.475,1.475Z" transform="translate(-50.4 -26.4)" fill="#30610c"/>
    </g>
  </g>
  <g id="Grupo_146054" data-name="Grupo 146054" transform="translate(0 7.373)">
    <g id="Grupo_146053" data-name="Grupo 146053">
      <path id="Trazado_216217" data-name="Trazado 216217" d="M22.119,12H4.424A4.429,4.429,0,0,0,0,16.424v17.7a4.429,4.429,0,0,0,4.424,4.424h17.7a4.429,4.429,0,0,0,4.424-4.424v-17.7A4.429,4.429,0,0,0,22.119,12Zm1.475,22.119a1.476,1.476,0,0,1-1.475,1.475H4.424a1.476,1.476,0,0,1-1.475-1.475v-17.7a1.476,1.476,0,0,1,1.475-1.475h17.7a1.476,1.476,0,0,1,1.475,1.475Z" transform="translate(0 -12)" fill="#30610c"/>
    </g>
  </g>
  <g id="Grupo_146056" data-name="Grupo 146056" transform="translate(61.933)">
    <g id="Grupo_146055" data-name="Grupo 146055">
      <path id="Trazado_216218" data-name="Trazado 216218" d="M122.919,0h-17.7A4.429,4.429,0,0,0,100.8,4.424v17.7a4.429,4.429,0,0,0,4.424,4.424h17.7a4.429,4.429,0,0,0,4.424-4.424V4.424A4.429,4.429,0,0,0,122.919,0Zm1.475,22.119a1.476,1.476,0,0,1-1.475,1.475h-17.7a1.476,1.476,0,0,1-1.475-1.475V14.746h3.1a7.373,7.373,0,0,0,14.448,0h3.1Zm-14.746-8.848a4.424,4.424,0,1,1,4.424,4.424A4.429,4.429,0,0,1,109.648,13.271ZM124.394,11.8h-3.1a7.373,7.373,0,0,0-14.448,0h-3.1V4.424a1.476,1.476,0,0,1,1.475-1.475h17.7a1.476,1.476,0,0,1,1.475,1.475Z" transform="translate(-100.8)" fill="#30610c"/>
    </g>
  </g>
  <g id="Grupo_146058" data-name="Grupo 146058" transform="translate(42.763 60.458)">
    <g id="Grupo_146057" data-name="Grupo 146057">
      <rect id="Rect치ngulo_44276" data-name="Rect치ngulo 44276" width="2.949" height="2.949" fill="#30610c"/>
    </g>
  </g>
</svg>
