<svg id="mundial" xmlns="http://www.w3.org/2000/svg" width="72.683" height="72.683" viewBox="0 0 72.683 72.683">
  <path id="Trazado_216219" data-name="Trazado 216219" d="M68.443,64.2a4.2,4.2,0,0,0-2.554.878L51.878,50.858a21.5,21.5,0,0,0,5.347-13.305h5.828a4.237,4.237,0,1,0,.364-2.423H57.2a21.5,21.5,0,0,0-5.517-12.972L65.761,7.5a4.2,4.2,0,0,0,2.683.984A4.24,4.24,0,1,0,64.2,4.24a4.174,4.174,0,0,0,.189,1.183L49.96,20.452a21.5,21.5,0,0,0-12.408-5.358V8.055a4.242,4.242,0,1,0-2.423.364v6.605a21.5,21.5,0,0,0-13.481,5.152L7.942,6.264A4.184,4.184,0,0,0,8.48,4.24,4.24,4.24,0,1,0,4.24,8.48a4.177,4.177,0,0,0,1.979-.514L19.9,21.854A21.52,21.52,0,0,0,14.108,35.13H8.055a4.242,4.242,0,1,0,.364,2.423H14.08a21.523,21.523,0,0,0,5.99,14.012.142.142,0,0,0,0,.017L6.967,65.224A4.2,4.2,0,0,0,4.24,64.2a4.24,4.24,0,1,0,4.239,4.24,4.185,4.185,0,0,0-.169-1.12l13.53-14.091a21.5,21.5,0,0,0,13.29,4.978v6.054a4.238,4.238,0,1,0,2.423.365V58.14a21.5,21.5,0,0,0,12.625-5.556L64.452,67.072a4.175,4.175,0,0,0-.248,1.372,4.24,4.24,0,1,0,4.24-4.24Zm-30.891-17a19.133,19.133,0,0,1,4.369.972c-1.14,3.469-2.728,5.889-4.369,6.87Zm0-2.432V37.553h6.036a39.447,39.447,0,0,1-1,8.292,21.513,21.513,0,0,0-5.034-1.073Zm0-9.641V28.463a21.531,21.531,0,0,0,5.034-1.072,39.077,39.077,0,0,1,.99,7.739Zm0-9.1V18.189c1.641.981,3.229,3.4,4.37,6.871a19.168,19.168,0,0,1-4.37.973Zm3.573-7.807a19.16,19.16,0,0,1,6.679,3.545,19.145,19.145,0,0,1-3.635,2.362,19.258,19.258,0,0,0-3.044-5.907Zm-6-.394V26.1a19.213,19.213,0,0,1-5.21-.852c1.321-4.125,3.274-6.815,5.21-7.421Zm-7.477,6.537a19.063,19.063,0,0,1-4.162-2.59,19.144,19.144,0,0,1,7.442-3.747,19.161,19.161,0,0,0-3.28,6.337Zm7.477,4.158v6.6h-6.8a39.29,39.29,0,0,1,.946-7.538,21.653,21.653,0,0,0,5.854.934Zm0,9.026v7.155a21.66,21.66,0,0,0-5.855.93,39.631,39.631,0,0,1-.958-8.085Zm0,9.578V55.4c-1.937-.607-3.89-3.3-5.211-7.425a19.206,19.206,0,0,1,5.211-.848Zm-4.2,8.073a19.141,19.141,0,0,1-7.449-3.751,19.091,19.091,0,0,1,4.168-2.588,19.17,19.17,0,0,0,3.281,6.34Zm13.238-6.1A19.16,19.16,0,0,1,47.8,51.465a19.16,19.16,0,0,1-6.679,3.543A19.249,19.249,0,0,0,44.171,49.1Zm5.406.695a21.586,21.586,0,0,0-4.716-3.038,41.74,41.74,0,0,0,1.151-9.2H54.8a19.1,19.1,0,0,1-5.226,12.241ZM67.232,35.13a1.817,1.817,0,1,1-1.817,1.817A1.819,1.819,0,0,1,67.232,35.13ZM46,35.13a41.337,41.337,0,0,0-1.138-8.653,21.539,21.539,0,0,0,4.717-3.036,19.109,19.109,0,0,1,5.2,11.689ZM68.443,2.423A1.817,1.817,0,1,1,66.626,4.24a1.819,1.819,0,0,1,1.817-1.817ZM33.919,4.24a1.817,1.817,0,1,1,1.817,1.817A1.819,1.819,0,0,1,33.919,4.24Zm-31.5,0A1.817,1.817,0,1,1,4.24,6.057,1.819,1.819,0,0,1,2.423,4.24Zm19.3,19.205a21.5,21.5,0,0,0,5.265,3.285,41.5,41.5,0,0,0-1.081,8.4H16.531a19.106,19.106,0,0,1,5.193-11.685ZM4.24,38.764a1.817,1.817,0,1,1,1.817-1.817A1.819,1.819,0,0,1,4.24,38.764Zm21.655-1.212A41.9,41.9,0,0,0,26.988,46.5a21.47,21.47,0,0,0-5.267,3.285A19.1,19.1,0,0,1,16.5,37.553ZM4.24,70.26a1.817,1.817,0,1,1,1.553-2.746,0,0,0,0,1,0,0,1.794,1.794,0,0,1,.263.927A1.819,1.819,0,0,1,4.24,70.26Zm31.5,0a1.817,1.817,0,1,1,1.817-1.817A1.818,1.818,0,0,1,35.736,70.26Zm32.707,0a1.817,1.817,0,1,1,1.817-1.817A1.819,1.819,0,0,1,68.443,70.26Zm0,0" transform="translate(0 0)" fill="#30610c"/>
</svg>
