<svg xmlns="http://www.w3.org/2000/svg" width="226.519" height="312.801" viewBox="0 0 226.519 312.801">
  <g id="ILUSTRACIONES-07" transform="translate(-4.694 -6.21)">
    <path id="Trazado_211046" data-name="Trazado 211046" d="M45.612,34.744a30.569,30.569,0,0,1,7.642-3.414l1.566-7.58L67.662,23.5l1.817,7.548a31.321,31.321,0,0,1,7.8,3.132l6.452-4.228,9.4,8.9-4.009,6.609a32.511,32.511,0,0,1,3.163,7.8l7.58,1.566.219,12.81-7.517,1.848a30.662,30.662,0,0,1-3.132,7.768l4.26,6.483-8.9,9.4-6.64-4.04a30.663,30.663,0,0,1-7.642,3.351l-1.6,7.58-12.81.219-1.848-7.517a31.6,31.6,0,0,1-7.768-3.132l-6.3,4.04-9.4-9.052,4.009-6.609a31.07,31.07,0,0,1-3.32-7.642l-7.517-1.409L23.75,56.1l7.517-1.848A31.038,31.038,0,0,1,34.4,46.489l-4.228-6.483,8.9-9.208,6.64,4.009Zm6.828,17.07a13.75,13.75,0,1,0,19.419-.345,13.75,13.75,0,0,0-19.419.345Z" transform="translate(40.629 36.864)" fill="#e8e8e8"/>
    <path id="Trazado_211047" data-name="Trazado 211047" d="M69.513,38.771a24.492,24.492,0,0,1,6.264-1.284l2.38-5.387,9.584,1.879.188,5.888a24.273,24.273,0,0,1,5.293,3.508l5.512-2.192,5.45,8.112-4.04,4.416a23.961,23.961,0,0,1,1.253,6.264l5.418,2.412-1.879,9.584-5.888.157a23.866,23.866,0,0,1-3.539,5.325l2.13,5.481-8.081,5.481-4.291-4.04A25.84,25.84,0,0,1,79,85.627l-2.38,5.387L67.07,89.072l-.188-5.92a24.274,24.274,0,0,1-5.293-3.508L56.045,81.9l-5.45-8.112,3.946-4.416a23.96,23.96,0,0,1-1.253-6.264l-5.418-2.38,1.879-9.584,5.888-.188a22.99,22.99,0,0,1,3.539-5.293l-2.13-5.512,8.081-5.45,4.291,4.04Zm2.38,13.812a10.461,10.461,0,1,0,7.868-1.619,10.492,10.492,0,0,0-7.868,1.619Z" transform="translate(92.054 55.2)" fill="#e8e8e8"/>
    <path id="Trazado_211048" data-name="Trazado 211048" d="M134.146,53.734A46.1,46.1,0,0,0,124,38.073,97.1,97.1,0,0,0,97.72,18.467,97.094,97.094,0,0,0,60.135,9.352a30.788,30.788,0,0,0-14.658,2.286A9.772,9.772,0,0,0,38.9,19.657a11.808,11.808,0,0,0,4.635,9.4c11.933,8.394,20.985,8.832,32.574,12.528S99.631,50.789,105.9,61.094c3.383,5.575,5.325,12.748,11.181,15.66A13.656,13.656,0,0,0,133.8,71.524C137.216,66.325,136.307,59.653,134.146,53.734Z" transform="translate(72.93 6.443)" fill="#e8e8e8"/>
    <path id="Trazado_211049" data-name="Trazado 211049" d="M48.217,64.861l-.877.47c-.564.313-1.441.752-2.537,1.409a96.5,96.5,0,0,0-22.52,17.79,90.088,90.088,0,0,0-7.078,8.457,62.421,62.421,0,0,0-6.421,10.492,54.124,54.124,0,0,0-2.38,6.264,36.427,36.427,0,0,0-1.315,6.765,26.435,26.435,0,0,0,.376,7.235,25.37,25.37,0,0,0,1,3.571,20.765,20.765,0,0,0,1.6,3.383,29.5,29.5,0,0,0,11.15,10.774,47.231,47.231,0,0,0,15.66,5.262c2.819.47,5.7.783,8.613,1,1.472,0,2.944.188,4.416.251l4.479.188H66.07l4.635-.219A229.142,229.142,0,0,0,109.011,142a358,358,0,0,0,70.1-25.057,162.178,162.178,0,0,0,28.189-15.88,72.222,72.222,0,0,0,10.9-9.866l1.159-1.315c.376-.438.72-.908,1.1-1.378l1.065-1.347.971-1.409a34.014,34.014,0,0,0,3.32-5.732,26.935,26.935,0,0,0,2.6-11.9,14.533,14.533,0,0,0-4.134-9.866,16,16,0,0,0-8.425-4.166,22.77,22.77,0,0,0-7.987,0,36.678,36.678,0,0,0-6.264,1.66c-1.754.6-3.132,1.222-4.416,1.691L194.516,58.6l-.908.376.908-.407,2.631-1.19c1.19-.5,2.631-1.128,4.416-1.754a36.674,36.674,0,0,1,6.264-1.66,23.02,23.02,0,0,1,8.049,0,16.287,16.287,0,0,1,8.551,4.2,14.783,14.783,0,0,1,4.228,9.991,27.594,27.594,0,0,1-2.6,12.058,32.449,32.449,0,0,1-3.351,5.763l-.971,1.409-1.065,1.378c-.345.438-.689.908-1.1,1.378l-1.159,1.315a69.6,69.6,0,0,1-10.931,9.929,158.984,158.984,0,0,1-28.189,15.942,354.863,354.863,0,0,1-70.284,25.213,205.465,205.465,0,0,1-74.1,4.573,46.981,46.981,0,0,1-15.848-5.293A29.786,29.786,0,0,1,7.782,130.885a23.084,23.084,0,0,1-1.629-3.445,29.286,29.286,0,0,1-1-3.7,25.714,25.714,0,0,1-.345-7.235,37.585,37.585,0,0,1,1.315-6.859,54.31,54.31,0,0,1,2.443-6.264A61.89,61.89,0,0,1,15.049,92.83a90.2,90.2,0,0,1,7.11-8.457A95.123,95.123,0,0,1,35.407,72.722a89.43,89.43,0,0,1,9.4-6.045C47,65.425,48.217,64.861,48.217,64.861Z" transform="translate(0 101.054)" fill="#e0e0e0"/>
    <circle id="Elipse_6934" data-name="Elipse 6934" cx="14.032" cy="14.032" r="14.032" transform="matrix(0.863, -0.506, 0.506, 0.863, 23.495, 215.411)" fill="#afafaf"/>
    <g id="Grupo_145822" data-name="Grupo 145822" transform="translate(34.572 216.571)" opacity="0.3">
      <path id="Trazado_211050" data-name="Trazado 211050" d="M17.637,77.685a2.318,2.318,0,0,1-3.132-.94,2.291,2.291,0,1,1,4.04-2.161A2.318,2.318,0,0,1,17.637,77.685Z" transform="translate(-14.233 -73.373)" fill="#fff"/>
    </g>
    <g id="Grupo_145823" data-name="Grupo 145823" transform="translate(40.349 212.51)" opacity="0.3">
      <path id="Trazado_211051" data-name="Trazado 211051" d="M18,74.468a1.27,1.27,0,1,1,.532-1.817A1.347,1.347,0,0,1,18,74.468Z" transform="translate(-16.078 -72.077)" fill="#fff"/>
    </g>
    <path id="Trazado_211052" data-name="Trazado 211052" d="M25.258,73.054c-.188,0-16.1-5.011-16.788-1.1S19.526,84.486,32.743,89.967s27.656,9.4,28.909,5.575S48.717,83.484,48.717,83.484v1.973s8.738,4.886,8.143,8.206-11.526.407-23.491-5.231S11.664,76.123,12.792,73.68s11.025.908,11.025.908Z" transform="translate(7.988 136.992)" fill="#e8e8e8"/>
    <g id="Grupo_145824" data-name="Grupo 145824" transform="translate(30.607 207.439)" opacity="0.3">
      <path id="Trazado_211053" data-name="Trazado 211053" d="M30.108,71.968a22.951,22.951,0,0,0-3.132-.5,12.9,12.9,0,0,0-12.528,6.452c-1,1.691-1.315,2.882-1.472,2.85a5.45,5.45,0,0,1,.783-3.132,12.247,12.247,0,0,1,2-3.132,11.682,11.682,0,0,1,3.571-2.662,11.965,11.965,0,0,1,4.26-1.253,12.528,12.528,0,0,1,3.633,0C29.075,71.123,30.171,71.843,30.108,71.968Z" transform="translate(-12.967 -70.458)" fill="#fff"/>
    </g>
    <path id="Trazado_211054" data-name="Trazado 211054" d="M129.356,94.036l-92.114-.219a6.515,6.515,0,0,1-6.922-5.982h0a6.546,6.546,0,0,1,6.922-5.826h92.3a6.515,6.515,0,0,1,6.891,5.982h0a6.483,6.483,0,0,1-7.078,6.045Z" transform="translate(54.637 161.581)" fill="#636363"/>
    <path id="Trazado_211055" data-name="Trazado 211055" d="M129.356,89.5l-92.114-.219A6.515,6.515,0,0,1,30.32,83.3h0a6.546,6.546,0,0,1,6.922-5.982l92.3.219a6.515,6.515,0,0,1,6.891,5.982h0a6.483,6.483,0,0,1-7.078,5.982Z" transform="translate(54.637 151.583)" fill="#636363"/>
    <path id="Trazado_211056" data-name="Trazado 211056" d="M122.41,86.658,38.094,86.47a6.264,6.264,0,1,0,0,12.528h9.4l12.058,23.584a8.143,8.143,0,0,0,7.266,4.354H96.946a8.143,8.143,0,0,0,7.172-4.354l12-23.271h6.264a6.264,6.264,0,1,0,0-12.528Z" transform="translate(57.856 171.121)" fill="#636363"/>
    <path id="Trazado_211057" data-name="Trazado 211057" d="M186.091,159.651h0l-.689,1.034-2,2.944-1.5,2.192c-.532.783-1.065,1.723-1.66,2.694l-1.942,3.132c-.689,1.159-1.315,2.443-2.036,3.758l-1.1,2.036-.564,1.065-.532,1.128c-.72,1.535-1.472,3.132-2.224,4.792l-2.192,5.325c-.689,1.879-1.378,3.852-2.1,5.92a125.064,125.064,0,0,0-3.383,13.468,79.552,79.552,0,0,0-1.5,15.66H64.191a100.226,100.226,0,0,0-8.864-33.263,134.429,134.429,0,0,0-8.738-16.1c-1.66-2.6-3.445-5.2-5.325-7.736s-3.915-4.949-5.951-7.423L35.063,160h.376v.282a95.247,95.247,0,0,1-18.354-40.4c-.407-1.911-.658-3.821-.94-5.732,0-.971-.219-1.942-.313-2.913v-2.913a18.167,18.167,0,0,0-.157-2.913V96.571A97.752,97.752,0,0,1,19.9,73.08,96,96,0,0,1,59.587,20.931a101.445,101.445,0,0,1,14.282-7.423A91.425,91.425,0,0,1,89,8.685,95.434,95.434,0,0,1,119.41,6.618a100.573,100.573,0,0,1,14.533,2.474,95.747,95.747,0,0,1,26.027,10.9,105.235,105.235,0,0,1,11.025,7.8,96.782,96.782,0,0,1,17.414,18.792,92.586,92.586,0,0,1,11.15,20.8c.752,1.723,1.253,3.508,1.879,5.262s1,3.508,1.5,5.231.846,3.445,1.19,5.168l.438,2.537c.157.877.313,1.691.407,2.537a97.785,97.785,0,0,1,.783,19.137,94.463,94.463,0,0,1-6.7,29.849,97.679,97.679,0,0,1-4.761,10.117c-1.566,2.85-3.132,5.168-4.26,7.016l-1.629,2.412-1.253,1.691-1.065,1.315,1-1.378,1.253-1.723,1.629-2.412c1.221-1.848,2.662-4.2,4.228-7.047a98.027,98.027,0,0,0,4.729-9.991,95.277,95.277,0,0,0,6.546-29.786,97.252,97.252,0,0,0-.814-19.074,13.92,13.92,0,0,0-.407-2.506l-.438-2.568c-.345-1.691-.783-3.414-1.19-5.137a53.153,53.153,0,0,0-1.5-5.356c-.626-1.785-1.128-3.508-1.879-5.231A93.462,93.462,0,0,0,188.1,46.708a95.967,95.967,0,0,0-17.352-18.792,107.963,107.963,0,0,0-10.994-7.768,95.215,95.215,0,0,0-25.965-10.68A96.468,96.468,0,0,0,89,9.061a93.46,93.46,0,0,0-14.971,4.792,98.912,98.912,0,0,0-14.22,7.36,95.591,95.591,0,0,0-40.028,51.93,99.1,99.1,0,0,0-4.228,23.4v8.832a18.167,18.167,0,0,0,.157,2.913v1.441l.157,1.441a21.913,21.913,0,0,0,.313,2.882c.313,1.911.532,3.821.94,5.7a95,95,0,0,0,18.26,40.278l.251.313h-.407l.157-.313c2.036,2.474,4.134,4.855,5.982,7.423s3.665,5.137,5.325,7.768a130.512,130.512,0,0,1,8.738,16.161A101.26,101.26,0,0,1,64.348,224.8h98.159a77.332,77.332,0,0,1,1.535-15.66A118.521,118.521,0,0,1,167.3,195.67c.689-2.036,1.378-4.009,2.1-5.92l2.192-5.325,2.255-4.792.532-1.128.564-1.065,1.1-2.036c.752-1.315,1.378-2.6,2.067-3.727l1.942-3.132c.626-1,1.159-1.911,1.691-2.725l1.5-2.161,2.036-2.944.814-1.065Z" transform="translate(23.146 0)" fill="#263238"/>
    <path id="Trazado_211058" data-name="Trazado 211058" d="M23.165,103.849v-.219L22.946,103l-.783-2.412L21.6,98.838c-.188-.658-.345-1.347-.532-2.13a52.487,52.487,0,0,1-1.19-5.2l-.564-3.132c-.188-1.065-.313-2.161-.47-3.32-.345-2.318-.438-4.792-.626-7.423A102.981,102.981,0,0,1,19,60.658a104.486,104.486,0,0,1,3.79-16.6c.846-2.474,1.629-4.823,2.568-6.953.47-1.1.846-2.13,1.315-3.132l1.378-2.819c.814-1.785,1.754-3.32,2.537-4.7.376-.658.72-1.315,1.065-1.879l1.034-1.566,1.378-2.1.376-.564.157-.188v.219l-.313.564L32.937,23.1l-.971,1.566c-.345.564-.689,1.222-1.065,1.911-.752,1.378-1.691,2.913-2.474,4.7L27.08,34.1c-.47.971-.846,2-1.284,3.132-.94,2.13-1.691,4.51-2.537,6.953A105.332,105.332,0,0,0,19.5,60.72a102.761,102.761,0,0,0-.783,16.945,50.117,50.117,0,0,0,.6,7.392,19.244,19.244,0,0,0,.407,3.32l.532,3.132c.313,1.973.783,3.7,1.128,5.231.188.752.345,1.472.532,2.1l.532,1.785.689,2.443.188.626a.972.972,0,0,0-.157.157Z" transform="translate(28.685 29.743)" fill="#263238"/>
    <path id="Trazado_211059" data-name="Trazado 211059" d="M35.952,15s-2.224,2.161-5.105,4.667A57.379,57.379,0,0,1,25.46,24.02s2.224-2.161,5.105-4.667A64.3,64.3,0,0,1,35.952,15Z" transform="translate(44.275 18.742)" fill="#263238"/>
    <path id="Trazado_211060" data-name="Trazado 211060" d="M70.33,96.394l.219-.5.877-1.817.658-1.315c.219-.47.438-1.034.689-1.6.5-1.159,1.128-2.443,1.66-3.915l.877-2.318c.313-.783.564-1.66.877-2.537.626-1.723,1.128-3.633,1.723-5.638a106.9,106.9,0,0,0,2.568-13.311,102.04,102.04,0,0,0,.658-13.5,35.959,35.959,0,0,0-.313-5.92,10.676,10.676,0,0,0-.219-2.662l-.313-2.443c-.188-1.566-.47-3.132-.658-4.2A8.9,8.9,0,0,0,79.319,33l-.313-1.441L78.693,29.4v-.5a.877.877,0,0,1,0-.188V28.9l.157.5.47,1.973.376,1.409a9.128,9.128,0,0,0,.313,1.723c.251,1.253.532,2.631.72,4.2l.345,2.474c0,.846.188,1.754.282,2.662.188,1.848.251,3.852.345,5.92a103.357,103.357,0,0,1-.658,13.593A101.826,101.826,0,0,1,78.317,76.6c-.6,2-1.128,3.915-1.754,5.669-.313.877-.6,1.723-.908,2.537l-.908,2.286c-.564,1.472-1.19,2.756-1.691,3.915-.282.564-.5,1.1-.752,1.6l-.658,1.284-.971,1.817-.251.438Z" transform="translate(139.941 47.972)" fill="#263238"/>
    <path id="Trazado_211061" data-name="Trazado 211061" d="M74.551,26.084a58.382,58.382,0,0,0-16.1-6.828,6.452,6.452,0,0,0-2.443-.188,2.631,2.631,0,0,0-1.973,1.284,3.508,3.508,0,0,0,.6,3.132,18.98,18.98,0,0,0,5.512,4.949,174.235,174.235,0,0,0,17.884,9.9c-.783-4.322-2.286-8.049-3.477-12.309" transform="translate(104.9 27.327)" fill="#f67409"/>
    <path id="Trazado_211062" data-name="Trazado 211062" d="M72.93,32.514a58.569,58.569,0,0,0,6.922,16.1,6.984,6.984,0,0,0,1.629,1.817,2.662,2.662,0,0,0,2.349.438,3.445,3.445,0,0,0,1.754-2.725,18.51,18.51,0,0,0-.564-7.392A169.131,169.131,0,0,0,78.944,21.27C76.5,24.9,75.028,28.662,72.93,32.545" transform="translate(145.484 32.11)" fill="#f67409"/>
    <path id="Trazado_211063" data-name="Trazado 211063" d="M60.47,25.039s.407,38.9,22.238,39.683,22.739-39.4,22.739-39.683-2.568-5.794-22.488-5.575S60.47,25.039,60.47,25.039Z" transform="translate(118.919 28.246)" fill="#f67409"/>
    <path id="Trazado_211064" data-name="Trazado 211064" d="M79.993,31.7a7.548,7.548,0,1,1-6.953-8.081A7.548,7.548,0,0,1,79.993,31.7Z" transform="translate(128.399 37.062)" fill="#263238"/>
    <path id="Trazado_211065" data-name="Trazado 211065" d="M76.531,30.148a5.481,5.481,0,1,1-5.074-5.888,5.481,5.481,0,0,1,5.074,5.888Z" transform="translate(129.824 38.454)" fill="#fff"/>
    <path id="Trazado_211066" data-name="Trazado 211066" d="M72.089,29.883V26.594h0l-2.819-1.66h0l-2.85,1.6h0v3.163h0l2.788,1.691h0l2.1-1.1.814-.376-.752.438-2.1,1.222h0l-2.819-1.66h0V26.563h0v-.157L69.3,24.84h0l2.788,1.691h0v2.443A2.945,2.945,0,0,1,72.089,29.883Z" transform="translate(131.604 39.721)" fill="#ff725e"/>
    <path id="Trazado_211067" data-name="Trazado 211067" d="M60.44,21.23h.313l1.284.438.908.345,1.1.345c.783.219,1.691.532,2.694.752l1.723.532a9.509,9.509,0,0,1,1.723.376c1.19.282,2.474.47,3.852.689a65.43,65.43,0,0,0,8.926.626,65.333,65.333,0,0,0,8.9-.626c1.378-.219,2.662-.407,3.852-.689a6.259,6.259,0,0,0,1.723-.376l1.6-.407c1-.219,1.911-.532,2.694-.752l1.1-.345.908-.345,1.284-.438h-.031l-1.253.47-.908.345-1.1.345c-.783.251-1.691.564-2.694.814l-1.6.407c-.532.157-1.128.251-1.723.376-1.19.282-2.506.47-3.852.689a60.952,60.952,0,0,1-8.926.658,65.773,65.773,0,0,1-8.958-.658c-1.347-.219-2.662-.407-3.852-.689a6.259,6.259,0,0,1-1.723-.376l-1.6-.407c-1-.251-1.911-.564-2.694-.814l-1.1-.345-.814-.282-1.253-.47h-.313Z" transform="translate(118.855 32.024)" fill="#263238"/>
    <g id="Grupo_145825" data-name="Grupo 145825" transform="translate(179.389 47.703)" opacity="0.3">
      <path id="Trazado_211068" data-name="Trazado 211068" d="M60.47,25.04s2.568-5.325,22.488-5.575,22.488,5.575,22.488,5.575a58.82,58.82,0,0,1-44.977,0Z" transform="translate(-60.47 -19.457)"/>
    </g>
    <path id="Trazado_211069" data-name="Trazado 211069" d="M66.66,47.307h0l-.345-.689-.251-.5-.282-.6c-.219-.438-.438-.908-.658-1.472l-.532-1.1-.376-.94c-.251-.658-.47-1.378-.72-2.13-.47-1.5-.908-3.132-1.315-4.98s-.72-3.508-.908-5.043S60.9,26.729,60.8,25.7V22.752a9.394,9.394,0,0,0,0,1.222v1.6a34.471,34.471,0,0,0,.532,4.166c.219,1.566.532,3.289.94,5.043s.846,3.445,1.284,4.98c.251.752.47,1.472.72,2.1l.345.971.345.877c.219.564.438,1.034.626,1.472l.282.6.219.5.345.689v.188Z" transform="translate(119.587 33.666)" fill="#fff"/>
    <path id="Trazado_211070" data-name="Trazado 211070" d="M70.7,36.4h-.313l-.908-.219a8.112,8.112,0,0,1-1.347-.5,9.709,9.709,0,0,1-1.5-.877,9.394,9.394,0,0,1-1.315-1.1,12.752,12.752,0,0,1-.94-1.1,7.449,7.449,0,0,1-.5-.783c0-.188-.188-.313,0-.313s.251.407.752,1.034a9.051,9.051,0,0,0,.94,1.034,9.4,9.4,0,0,0,1.315,1.1,10.68,10.68,0,0,0,1.472.877l1.315.532A2.907,2.907,0,0,1,70.7,36.4Z" transform="translate(126.004 53.942)" fill="#fff"/>
    <path id="Trazado_211071" data-name="Trazado 211071" d="M73.6,38.476h-.814a8.55,8.55,0,0,1-2.192-.345,12,12,0,0,1-1.409-.564,11.869,11.869,0,0,1-1.472-.971,7.987,7.987,0,0,1-2.443-3.132,8.551,8.551,0,0,1-.626-3.946,7.328,7.328,0,0,1,.313-1.723,12.687,12.687,0,0,1,.532-1.441,7.424,7.424,0,0,1,1.253-1.817,2.943,2.943,0,0,1,.407-.438h0l-.532.6a7.58,7.58,0,0,0-1.159,1.848,7.362,7.362,0,0,0-.532,1.409,13.533,13.533,0,0,0-.313,1.691,8.645,8.645,0,0,0,.626,3.884,8.957,8.957,0,0,0,2.412,3.132,9.4,9.4,0,0,0,1.441.94,8.019,8.019,0,0,0,1.378.564,8.99,8.99,0,0,0,2.161.407A3.831,3.831,0,0,1,73.6,38.476Z" transform="translate(127.71 38.143)" fill="#fff"/>
    <path id="Trazado_211072" data-name="Trazado 211072" d="M82.331,8.338S63.288,8.119,60.407,24.593,73.342,41.381,77.978,41.757c2.1.157,6.609.157,10.555,0,8.77-.157,14.971-1.848,17.1-9.991a17.666,17.666,0,0,0,.47-2.913C106.636,19.833,100.591,7.9,82.331,8.338Z" transform="translate(118.042 4.513)" fill="#f67409"/>
    <path id="Trazado_211073" data-name="Trazado 211073" d="M94.106,23.493,66.481,23.9A5.262,5.262,0,0,1,61,18.764h0a5.293,5.293,0,0,1,5.168-5.356L93.95,13a5.2,5.2,0,0,1,5.325,5.168h0a5.262,5.262,0,0,1-5.168,5.325Z" transform="translate(120.048 14.476)" fill="#263238"/>
    <path id="Trazado_211074" data-name="Trazado 211074" d="M66.851,15.959a1.691,1.691,0,0,1-3.32-.626,1.691,1.691,0,0,1,3.32.626Z" transform="translate(125.41 16.686)" fill="#fff"/>
    <path id="Trazado_211075" data-name="Trazado 211075" d="M73.042,15.859a1.691,1.691,0,1,1-1.362-1.894,1.691,1.691,0,0,1,1.362,1.894Z" transform="translate(138.544 16.473)" fill="#fff"/>
    <path id="Trazado_211076" data-name="Trazado 211076" d="M66.3,14.4a3.178,3.178,0,0,0,.438,1.409,3.351,3.351,0,0,0,.908,1.159,2.788,2.788,0,0,0,1.566.72,3.132,3.132,0,0,0,1.691-.407,3.821,3.821,0,0,0,1.1-1c.5-.689.532-1.284.658-1.284s0,.157,0,.438a2.694,2.694,0,0,1-.313,1.128,3.57,3.57,0,0,1-1.19,1.315,3.414,3.414,0,0,1-2.13.564,3.351,3.351,0,0,1-2-.94,3.508,3.508,0,0,1-.908-1.5,2.349,2.349,0,0,1,0-1.19C66.175,14.557,66.269,14.4,66.3,14.4Z" transform="translate(130.785 17.462)" fill="#fff"/>
    <path id="Trazado_211077" data-name="Trazado 211077" d="M79.363,8.741H78.3a25.62,25.62,0,0,0-2.788.47,21.581,21.581,0,0,0-3.978,1.378,22.52,22.52,0,0,0-4.385,2.756A19.544,19.544,0,0,0,63.64,17.1a18.01,18.01,0,0,0-2.1,3.665,19.1,19.1,0,0,0-1,2.662l-.219.752v-.031a1.421,1.421,0,0,1,.188-.752,23.9,23.9,0,0,1,.94-2.694,24.427,24.427,0,0,1,2.1-3.7,21.924,21.924,0,0,1,3.539-3.79A20.515,20.515,0,0,1,71.5,10.464a19.45,19.45,0,0,1,4.009-1.347,18.792,18.792,0,0,1,2.819-.407h1.065Z" transform="translate(118.599 5.331)" fill="#fff"/>
    <path id="Trazado_211078" data-name="Trazado 211078" d="M60.919,18.964a5.855,5.855,0,0,1-.282-.6,9.992,9.992,0,0,1-.376-1.535,9.864,9.864,0,0,1,0-1.566V14.61a15.714,15.714,0,0,0,.188,2.192C60.637,17.993,60.982,18.964,60.919,18.964Z" transform="translate(118.407 17.91)" fill="#fff"/>
    <path id="Trazado_211079" data-name="Trazado 211079" d="M81.207,12.709H73.063C77.574,12.709,81.207,12.646,81.207,12.709Z" transform="translate(128.406 13.798)" fill="#fff"/>
    <path id="Trazado_211080" data-name="Trazado 211080" d="M74.507,20.635H72.534a19.3,19.3,0,0,1-2.192,0,23.49,23.49,0,0,1-2.631-.47,24.4,24.4,0,0,1-2.537-.752,21.549,21.549,0,0,1-2-.846l-.752-.376-.532-.313-.345-.219h0l.345.188.564.282.752.376c.532.251,1.221.532,2,.814a22.31,22.31,0,0,0,2.537.752,22.541,22.541,0,0,0,2.6.438L72.5,20.7h1.973Z" transform="translate(121.2 24.413)" fill="#fff"/>
    <path id="Trazado_211081" data-name="Trazado 211081" d="M93.237,22h-.345l-.814.282-1.315.438-1.754.5-1.034.282-1.128.251-2.506.532c-1.785.282-3.758.532-5.826.658a52.463,52.463,0,0,1-5.857,0,15.893,15.893,0,0,1-2.537-.188H67.9l-1.817-.313a10.46,10.46,0,0,1-1.347-.251L63.889,24h.846l1.378.251c.532,0,1.128.188,1.817.251l1.034.157h1.159a11.83,11.83,0,0,1,2.537.188h5.857a36.368,36.368,0,0,0,5.794-.658,10.773,10.773,0,0,0,2.506-.5l1.128-.251,1.034-.251a6.025,6.025,0,0,0,1.754-.5,11.273,11.273,0,0,0,1.315-.407L92.892,22h.345Z" transform="translate(125.741 33.666)" fill="#fff"/>
    <path id="Trazado_211082" data-name="Trazado 211082" d="M15.39,68.618v10.3s17.1-9.709,12.09-18.792Z" transform="translate(22.805 114.962)" fill="#f67409"/>
    <path id="Trazado_211083" data-name="Trazado 211083" d="M30.674,56.067S18.4,51.557,9,59.919l9.615,5.418Z" transform="translate(9.181 103.709)" fill="#f67409"/>
    <path id="Trazado_211084" data-name="Trazado 211084" d="M12.07,72.8l10.4,14.533L48.621,68.791a9.4,9.4,0,0,0,1.785-13.969h0a9.4,9.4,0,0,0-13.123-1.441Z" transform="translate(15.726 96.247)" fill="#f5f5f5"/>
    <path id="Trazado_211085" data-name="Trazado 211085" d="M12.07,72.877l.188-.157.658-.532,2.568-2,9.4-7.392,6.577-5.105,3.665-2.819,1.911-1.5a10.775,10.775,0,0,1,2.192-1.253,7.7,7.7,0,0,1,1.19-.438,9.4,9.4,0,0,1,1.284-.251,8.424,8.424,0,0,1,2.662,0,9.4,9.4,0,0,1,4.917,2.192,8.613,8.613,0,0,1,1.879,2.1,10.649,10.649,0,0,1,1.19,2.568,9.4,9.4,0,0,1,0,5.763,9.616,9.616,0,0,1-3.132,4.542c-1.472,1.128-2.944,2.1-4.354,3.132l-8.269,5.826L22.5,87.5h0l-7.58-10.68L12.884,73.91l-.5-.752c0-.157-.188-.251,0-.251l.188.251.564.783,2.1,2.85c1.817,2.537,4.448,6.264,7.674,10.555h-.219L36.782,77.324l8.237-5.857c1.409-1.034,2.913-2.036,4.322-3.132a9.2,9.2,0,0,0,2.975-9.9,10.148,10.148,0,0,0-1.159-2.506,10.022,10.022,0,0,0-1.817-2,9.4,9.4,0,0,0-4.729-2.13,9.835,9.835,0,0,0-2.537,0,8.05,8.05,0,0,0-1.253.251,8.519,8.519,0,0,0-1.159.407,19.513,19.513,0,0,0-4.009,2.694L31.99,57.937l-6.8,4.917-9.553,7.266L13.01,72.094l-.689.532Z" transform="translate(15.726 96.17)" fill="#263238"/>
    <path id="Trazado_211086" data-name="Trazado 211086" d="M27.2,58.216,10.85,69.8s.689,1.785,1.159,1.629,12.528-8.551,16.663-11.275a1.284,1.284,0,0,0,.219-1.942h0A1.284,1.284,0,0,0,27.2,58.216Z" transform="translate(13.125 110.204)" fill="#f67409"/>
    <path id="Trazado_211087" data-name="Trazado 211087" d="M28.938,58.99a5.481,5.481,0,1,1-5.826-4.98A5.481,5.481,0,0,1,28.938,58.99Z" transform="translate(28.363 101.883)" fill="#fff"/>
    <path id="Trazado_211088" data-name="Trazado 211088" d="M29.151,59.217a3.544,3.544,0,0,0-.345-1.284,5.293,5.293,0,0,0-2.161-2.819,5.512,5.512,0,0,0-2.161-.877,5.356,5.356,0,0,0-2.756.407,5.293,5.293,0,0,0-2.318,2,5.387,5.387,0,0,0-.846,3.132,5.575,5.575,0,0,0,1.222,3.132,5.23,5.23,0,0,0,2.568,1.66,5.418,5.418,0,0,0,2.819,0,5.669,5.669,0,0,0,2.161-1.128,5.481,5.481,0,0,0,1.817-3.132c0-.814,0-1.315,0-1.315a1.566,1.566,0,0,1,0,.345,2.944,2.944,0,0,1,0,1,5.45,5.45,0,0,1-4.04,4.448,5.637,5.637,0,0,1-3.132,0,5.763,5.763,0,0,1-2.756-1.785,5.7,5.7,0,0,1-1.315-3.132,5.606,5.606,0,0,1,.908-3.414,5.512,5.512,0,0,1,2.506-2.13,6.014,6.014,0,0,1,2.913-.407,5.7,5.7,0,0,1,2.412.908,5.544,5.544,0,0,1,2.192,2.975,5.888,5.888,0,0,1,.188,1Z" transform="translate(28.149 101.655)" fill="#263238"/>
    <path id="Trazado_211089" data-name="Trazado 211089" d="M32.711,69.278a21.235,21.235,0,0,0,7.2-17.759A23.334,23.334,0,0,0,20.12,54.9C27.981,56.03,32.272,60.79,32.711,69.278Z" transform="translate(32.889 94.726)" fill="#f67409"/>
    <path id="Trazado_211090" data-name="Trazado 211090" d="M63.172,45.42,66.3,73.452,84.376,79.5l.752,8.738L59.6,86.513s-7.862.188-9.553-10.148L49.61,49.116Z" transform="translate(95.764 83.599)" fill="#ffbe9d"/>
    <path id="Trazado_211091" data-name="Trazado 211091" d="M77.924,68.038a1.253,1.253,0,0,1-1.347.376h-.282c-.658-.407-.219-1.785-.219-1.785l-3.132-1.441a37.586,37.586,0,0,0-7.078,3.132c-2.036,1.441-5.575-1.1-5.575-1.1l.532-7.454,7.58-3.915s-.47.219.219-.689,2.537,0,2.537,0l1.754-.282,5.2,2.036a3.821,3.821,0,0,1,2.255,2.412l1.315,4.2a10.711,10.711,0,0,1,.157,3.445,1.1,1.1,0,0,1-1.441.376s-.72,1.629-1.159,1.6a3.79,3.79,0,0,1-1.253-.689Z" transform="translate(118.535 103.515)" fill="#ffbe9d"/>
    <path id="Trazado_211092" data-name="Trazado 211092" d="M66.722,67.535H67.1l1.128-.626a38.863,38.863,0,0,1,4.2-1.5h0l3.132,1.441h0a3.414,3.414,0,0,0-.157.814,1.911,1.911,0,0,0,.157.908,1,1,0,0,0,.407.313H76.4a1.5,1.5,0,0,0,.971-.251h.188l.407.251.407.251h.251a1,1,0,0,0,.313,0,.846.846,0,0,0,.438-.345,1.6,1.6,0,0,0,.282-.407,4.983,4.983,0,0,0,.47-.908h-.219a1.315,1.315,0,0,0,1.347,0,1.128,1.128,0,0,0,.407-.6,2.693,2.693,0,0,0,0-.689,25.059,25.059,0,0,0-.282-2.631h0l-.689-2.224-.438-1.441a9.869,9.869,0,0,0-.532-1.409,3.758,3.758,0,0,0-1-1.1A4.7,4.7,0,0,0,77.4,56.73l-4.917-1.911H71.358a1.409,1.409,0,0,0-.908.313h.188a1.879,1.879,0,0,0-1.754-.345,2.161,2.161,0,0,0-1.222,1.128h0l-5.231,2.694-1.409.752c-.313.157-.5.251-.47.282l.5-.219,1.441-.689,5.293-2.568h0a1.879,1.879,0,0,1,1.065-1,1.691,1.691,0,0,1,1.472.313h0a1.347,1.347,0,0,1,.752-.251h.846l4.886,1.942a4.981,4.981,0,0,1,1.221.626,2.788,2.788,0,0,1,.908,1,6.732,6.732,0,0,1,.5,1.347l.438,1.409.72,2.224h0a18.539,18.539,0,0,1,.313,2.568,3.475,3.475,0,0,1,0,.6.533.533,0,0,1-.282.407.908.908,0,0,1-.971,0h0a7.173,7.173,0,0,1-.438.846c0,.251-.345.564-.532.626h-.219l-.376-.219-.47-.438H77.34a1,1,0,0,1-.72.188.877.877,0,0,1-.376,0,.47.47,0,0,1-.282-.188,2.255,2.255,0,0,1,0-1.5h0L72.83,65.249h0a35.048,35.048,0,0,0-4.166,1.6L67.6,67.41Z" transform="translate(119.087 103.391)" fill="#eb996e"/>
    <path id="Trazado_211093" data-name="Trazado 211093" d="M63.87,55.54a7.3,7.3,0,0,0,1.6.971,17.383,17.383,0,0,0,4.354,1.5v-.188a8.928,8.928,0,0,0,0,.908,13.719,13.719,0,0,0,1.6,4.949A11.715,11.715,0,0,0,72.3,65c.219.313.376.47.376.439s-.438-.689-1-1.879a15.066,15.066,0,0,1-1.5-4.855c0-.313,0-.6,0-.877V57.67h0a20.891,20.891,0,0,1-4.322-1.347A17.856,17.856,0,0,0,63.87,55.54Z" transform="translate(126.168 105.176)" fill="#eb996e"/>
    <path id="Trazado_211094" data-name="Trazado 211094" d="M65.264,57a6.7,6.7,0,0,0,.532,3.383,6.922,6.922,0,0,0,1.848,2.882,18.675,18.675,0,0,1-1.409-3.132C65.608,58.315,65.358,57,65.264,57Z" transform="translate(129.065 108.289)" fill="#eb996e"/>
    <path id="Trazado_211095" data-name="Trazado 211095" d="M60.12,62.14V62.3l.47.345a5.982,5.982,0,0,0,2.067.814A6.264,6.264,0,0,0,69.2,60.324h-.251a14.6,14.6,0,0,0,3.852,1.19l1.5.188a5.919,5.919,0,0,0,1.472,0,1,1,0,0,0,.313-1.879l-.564-.313c-1.535-.846-2.944-1.5-4.166-2.036s-2.192-.908-2.881-1.159a4.823,4.823,0,0,0-1.1-.345,7.673,7.673,0,0,0,1.034.47l2.85,1.253c1.19.564,2.568,1.253,4.072,2.1l.6.313a.939.939,0,0,1,.313.439.689.689,0,0,1,0,.5.752.752,0,0,1-.47.313,3.978,3.978,0,0,1-1.378,0H72.962a15.066,15.066,0,0,1-3.821-1.222h-.157a6.045,6.045,0,0,1-6.264,3.132,7.2,7.2,0,0,1-2.036-.689Z" transform="translate(118.172 106.093)" fill="#eb996e"/>
    <path id="Trazado_211096" data-name="Trazado 211096" d="M68.66,93.971a2.88,2.88,0,0,0,0-.689,4.323,4.323,0,0,0-.72-1.785,1.912,1.912,0,0,0-.407-.5.877.877,0,0,0-.783-.188.689.689,0,0,0-.376.345.909.909,0,0,0,0,.5,3.569,3.569,0,0,0,.376.689,14.277,14.277,0,0,0,.846,1.441,1,1,0,0,0,.94.438,2.193,2.193,0,0,0,.908-.407,8.2,8.2,0,0,0,1.315-1.222,5.1,5.1,0,0,0,.532-.689,2.067,2.067,0,0,0,.407-.783.752.752,0,0,0-.407-.846.783.783,0,0,0-.846.188,3.663,3.663,0,0,0-.877,1,5.825,5.825,0,0,0-.877,1.691c0,.438-.188.658,0,.689a12.906,12.906,0,0,1,1.253-2.224,5.793,5.793,0,0,1,.877-.877.532.532,0,0,1,.5,0,.407.407,0,0,1,.157.438,2.223,2.223,0,0,1-.345.658l-.5.626a7.549,7.549,0,0,1-1.284,1.159,1.409,1.409,0,0,1-.72.345.564.564,0,0,1-.564-.282c-.282-.407-.564-.94-.846-1.378a4.262,4.262,0,0,1-.345-.626v-.376a1.115,1.115,0,0,1,.877.532,7.581,7.581,0,0,1,.908,2.13Z" transform="translate(131.431 179.123)" fill="#263238"/>
    <path id="Trazado_211097" data-name="Trazado 211097" d="M77.292,99.338,68.3,118.882,53.77,112.148,63.072,88Z" transform="translate(104.634 174.383)" fill="#ffbe9d"/>
    <path id="Trazado_211098" data-name="Trazado 211098" d="M75.822,103.047,70.56,113.07s13.468,13.938,12.215,17.038L51.11,114.949,59.817,94.81Z" transform="translate(98.962 188.902)" fill="#f67409"/>
    <path id="Trazado_211099" data-name="Trazado 211099" d="M55.485,98.731a1.441,1.441,0,0,0-1.629,1.034,1.378,1.378,0,0,0,1.034,1.6,1.5,1.5,0,0,0,1.691-1.128A1.409,1.409,0,0,0,55.329,98.7" transform="translate(104.766 197.196)" fill="#e0e0e0"/>
    <g id="Grupo_145826" data-name="Grupo 145826" transform="translate(149.916 301.315)" opacity="0.6">
      <path id="Trazado_211100" data-name="Trazado 211100" d="M51.06,102.967l1.315-2.537,29.817,15.5s1.1,1.284.47,2.192Z" transform="translate(-51.06 -100.43)" fill="#fff"/>
    </g>
    <path id="Trazado_211101" data-name="Trazado 211101" d="M60.007,101.066H58.128c-1,0-1.723.6-1.848.47s.564-.908,1.785-1.034S60.1,100.941,60.007,101.066Z" transform="translate(109.954 201)" fill="#263238"/>
    <path id="Trazado_211102" data-name="Trazado 211102" d="M60.468,101.8a3.508,3.508,0,0,0-1.66.5c-.814.5-1.347,1.034-1.472.94s0-1,1.222-1.472S60.531,101.647,60.468,101.8Z" transform="translate(112.155 203.238)" fill="#263238"/>
    <path id="Trazado_211103" data-name="Trazado 211103" d="M58.3,104.62a2.175,2.175,0,0,1,.814-1.566c.814-.658,1.691-.626,1.691-.47s-.658.407-1.315.94S58.488,104.683,58.3,104.62Z" transform="translate(114.292 205.276)" fill="#263238"/>
    <path id="Trazado_211104" data-name="Trazado 211104" d="M60.243,100.556a9.511,9.511,0,0,0-1.629-.814c-.908-.345-1.723-.407-1.754-.6s.908-.407,1.973,0S60.431,100.462,60.243,100.556Z" transform="translate(111.221 197.658)" fill="#263238"/>
    <path id="Trazado_211105" data-name="Trazado 211105" d="M112.148,162.169l23.741-59.509s-.532-10.148-2.412-13.343S75.065,67.392,75.065,67.392s-14.408-3.445-24.023,0S34.16,82.99,35.569,89.661a25.808,25.808,0,0,0,7.486,12.09l41.218.72,22.645,8.269L91.665,154.589Z" transform="translate(65.455 127.181)" fill="#12263f"/>
    <path id="Trazado_211106" data-name="Trazado 211106" d="M78.729,86.284l.532,21.517-16,.376L60.97,82.4Z" transform="translate(119.985 162.443)" fill="#ffbe9d"/>
    <path id="Trazado_211107" data-name="Trazado 211107" d="M79.443,90.125l-.376,11.338s18.229,6.546,18.479,9.9l-35.111.345L61.34,89.78Z" transform="translate(120.773 178.178)" fill="#f67409"/>
    <path id="Trazado_211108" data-name="Trazado 211108" d="M64.249,93.092a1.356,1.356,0,1,0,.658,2.631,1.5,1.5,0,0,0,1-1.754,1.409,1.409,0,0,0-1.785-.846" transform="translate(124.786 185.139)" fill="#e0e0e0"/>
    <g id="Grupo_145827" data-name="Grupo 145827" transform="translate(183.272 287.064)" opacity="0.6">
      <path id="Trazado_211109" data-name="Trazado 211109" d="M61.71,98.7V95.88l33.638.72s1.566.658,1.409,1.754Z" transform="translate(-61.71 -95.88)" fill="#fff"/>
    </g>
    <path id="Trazado_211110" data-name="Trazado 211110" d="M69.367,93.553a7.016,7.016,0,0,0-1.691.814c-.846.564-1.284,1.284-1.441,1.222s0-1.065,1.128-1.723S69.43,93.4,69.367,93.553Z" transform="translate(131.1 185.9)" fill="#263238"/>
    <path id="Trazado_211111" data-name="Trazado 211111" d="M69.933,93.959c0,.188-.689.47-1.253,1.221s-.752,1.5-.908,1.472-.282-.971.438-1.848S69.933,93.8,69.933,93.959Z" transform="translate(134.23 186.966)" fill="#263238"/>
    <path id="Trazado_211112" data-name="Trazado 211112" d="M69.193,97.358a2.306,2.306,0,0,1,0-1.785c.407-.94,1.222-1.315,1.284-1.159s-.407.626-.752,1.409S69.35,97.326,69.193,97.358Z" transform="translate(137.131 187.983)" fill="#263238"/>
    <path id="Trazado_211113" data-name="Trazado 211113" d="M69.569,92.539c0,.157-.846,0-1.817,0s-1.723.407-1.817.251.626-.783,1.785-.846S69.663,92.413,69.569,92.539Z" transform="translate(130.554 182.78)" fill="#263238"/>
    <path id="Trazado_211114" data-name="Trazado 211114" d="M96.92,64.7a9.96,9.96,0,0,1,10.649,9.647c1.065,10.4,2.1,58.977,2.1,58.977l-22.394,1.848L83.8,85.562,48.06,70.34S90.5,63.387,96.92,64.7Z" transform="translate(92.46 124.358)" fill="#12263f"/>
    <path id="Trazado_211115" data-name="Trazado 211115" d="M86.928,60.11s5.826,16.318,4.7,18.135-16.068,9.4-16.068,9.4L37.974,102.017a31.321,31.321,0,0,1-3.821-15.5c0-9.4,13-26.309,13-26.309Z" transform="translate(62.8 114.919)" fill="#12263f"/>
    <path id="Trazado_211116" data-name="Trazado 211116" d="M47.49,66.151h.188l.532.251,2.067.908,7.8,3.383L84.95,82.281v-.188c.345,4.917.689,10.211,1.1,15.66.908,12.779,1.723,24.587,2.412,33.952v.157h0l16.349-1.409,4.479-.438h0l-4.51.345-16.287,1.159h.157c-.626-9.4-1.441-21.141-2.318-33.952-.376-5.481-.752-10.774-1.1-15.66h0L58.3,70.474l-7.83-3.289-2.1-.846L47.8,66.12Z" transform="translate(91.244 127.733)" fill="#455a64"/>
    <path id="Trazado_211117" data-name="Trazado 211117" d="M38,69.693a4.259,4.259,0,0,0,1.034-.282l2.819-.908a60.165,60.165,0,0,1,9.4-2.38,27.219,27.219,0,0,1,9.678,0c2.443.5,3.821,1.19,3.852,1.1a6.266,6.266,0,0,0-.971-.47,18.2,18.2,0,0,0-2.819-.94,26.81,26.81,0,0,0-9.8-.251,51.554,51.554,0,0,0-9.4,2.537c-1.19.407-2.13.783-2.788,1.034A4.1,4.1,0,0,0,38,69.693Z" transform="translate(71.011 125.82)" fill="#455a64"/>
    <path id="Trazado_211118" data-name="Trazado 211118" d="M39.68,64.152h3.132a34.28,34.28,0,0,1,3.539.376c1.315.157,2.819.345,4.322.626A19.606,19.606,0,0,1,58,67.879a20.482,20.482,0,0,1,2.537,2.036s0-.282-.532-.689a9.96,9.96,0,0,0-1.817-1.6,18.541,18.541,0,0,0-7.454-2.882,40.723,40.723,0,0,0-4.322-.6c-1.347,0-2.568-.282-3.571-.313a13.122,13.122,0,0,0-2.443,0,4.886,4.886,0,0,0-.72.313Z" transform="translate(74.593 122.748)" fill="#455a64"/>
    <path id="Trazado_211119" data-name="Trazado 211119" d="M59.453,22.067a16.13,16.13,0,0,0-11.745,3.351A21.925,21.925,0,0,0,39.752,35.6a21.329,21.329,0,0,0-.783,13.531,16.349,16.349,0,0,0,26.215,8.519A21.643,21.643,0,0,0,73.3,41.329,20.985,20.985,0,0,0,70.008,28.8a15.88,15.88,0,0,0-10.555-6.734" transform="translate(71.483 33.599)" fill="#263238"/>
    <path id="Trazado_211120" data-name="Trazado 211120" d="M41.324,36.642a24.4,24.4,0,0,0,.658-5.231,11.432,11.432,0,0,1,7.235-8.457,16.819,16.819,0,0,1,11.4.219,15.41,15.41,0,0,1,7.2,4.667A12.121,12.121,0,0,1,70.045,38.71l-19.7-2.882a21.924,21.924,0,0,1-5.888,3.946,3.946,3.946,0,0,1-2.067.313,1.817,1.817,0,0,1-1.535-1.253A4.291,4.291,0,0,1,41.324,36.642Z" transform="translate(77.083 33.807)" fill="#263238"/>
    <path id="Trazado_211121" data-name="Trazado 211121" d="M61.177,24.177l-17.2,3.633a3.132,3.132,0,0,0-3.132,3.132l.47,37.178a11.745,11.745,0,0,0,2.412,7.016l1.66,2.13A8.488,8.488,0,0,0,59.548,76.2a4.636,4.636,0,0,0,.407-.971,1.521,1.521,0,0,1,.157-.846l.313-3.6c.188-3.32.188-6.7.188-6.671a11.307,11.307,0,0,0,8.832-9.929A95.652,95.652,0,0,0,70.135,36.2C70.01,30.661,66.658,23.676,61.177,24.177Z" transform="translate(77.087 38.254)" fill="#ffbe9d"/>
    <path id="Trazado_211122" data-name="Trazado 211122" d="M50.879,31.147a1.159,1.159,0,0,1-1.19,1.128,1.1,1.1,0,0,1-1.159-1.1,1.19,1.19,0,0,1,1.19-1.128,1.128,1.128,0,0,1,1.159,1.1Z" transform="translate(93.462 50.829)" fill="#263238"/>
    <path id="Trazado_211123" data-name="Trazado 211123" d="M52.8,30.089a6.017,6.017,0,0,0-2.286-.6c-1.284-.063-2.192.564-2.318.407s0-.345.5-.626a3.132,3.132,0,0,1,1.879-.5,2.944,2.944,0,0,1,1.785.658C52.742,29.744,52.868,30.026,52.8,30.089Z" transform="translate(92.663 48.097)" fill="#263238"/>
    <path id="Trazado_211124" data-name="Trazado 211124" d="M47.169,30.957a1.159,1.159,0,0,1-1.19,1.128,1.1,1.1,0,0,1-1.159-1.1,1.159,1.159,0,0,1,1.159-1.128,1.128,1.128,0,0,1,1.19,1.1Z" transform="translate(85.552 50.423)" fill="#263238"/>
    <path id="Trazado_211125" data-name="Trazado 211125" d="M48.993,29.989a12.4,12.4,0,0,0-2.255-.564c-1.253-.031-2.192.532-2.349.376s0-.345.532-.626a3.185,3.185,0,0,1,3.665.157C48.962,29.707,49.087,29.926,48.993,29.989Z" transform="translate(84.51 47.884)" fill="#263238"/>
    <path id="Trazado_211126" data-name="Trazado 211126" d="M47.107,39.314a8.08,8.08,0,0,1,2.067-.282c.313,0,.626,0,.689-.313a1.66,1.66,0,0,0-.188-.94c-.282-.783-.564-1.629-.846-2.506A37.9,37.9,0,0,1,46.95,28.79a43.85,43.85,0,0,1,2.38,6.264c.282.877.564,1.691.814,2.506a1.691,1.691,0,0,1,0,1.253.877.877,0,0,1-.532.47h-.564A8.458,8.458,0,0,1,47.107,39.314Z" transform="translate(90.093 48.143)" fill="#263238"/>
    <path id="Trazado_211127" data-name="Trazado 211127" d="M55.35,39.447A23.271,23.271,0,0,1,43.26,35.72a11.839,11.839,0,0,0,12,5.951Z" transform="translate(82.226 62.918)" fill="#eb996e"/>
    <path id="Trazado_211128" data-name="Trazado 211128" d="M49.321,33.737a2.161,2.161,0,0,0-2-.908,2.1,2.1,0,0,0-1.441.689,1.347,1.347,0,0,0,0,1.5,1.472,1.472,0,0,0,1.629.47,4.354,4.354,0,0,0,1.629-.877,1.065,1.065,0,0,0,.376-.376.438.438,0,0,0,0-.47" transform="translate(87.314 56.726)" fill="#eb996e"/>
    <path id="Trazado_211129" data-name="Trazado 211129" d="M46.013,32.38c.188,0,0,1.378,1.284,2.38a8.6,8.6,0,0,0,2.6,1.1c.031.188-.345.282-.971.251a3.351,3.351,0,0,1-2.161-.846,3.132,3.132,0,0,1-1-1.973C45.731,32.693,45.919,32.38,46.013,32.38Z" transform="translate(87.553 55.797)" fill="#263238"/>
    <path id="Trazado_211130" data-name="Trazado 211130" d="M49.638,28.676c0,.345-1.378,0-2.85.251S44,29.4,44,28.989s0-.47.626-.783a4.76,4.76,0,0,1,2.161-.658,5.105,5.105,0,0,1,2.224.345C49.45,28.237,49.7,28.519,49.638,28.676Z" transform="translate(83.803 45.47)" fill="#263238"/>
    <path id="Trazado_211131" data-name="Trazado 211131" d="M52.539,28.3c-.219.282-1.1,0-2.13,0a5.4,5.4,0,0,1-2.13-.188c-.188-.188,0-.438.47-.689a3.132,3.132,0,0,1,3.414.219C52.539,27.864,52.633,28.177,52.539,28.3Z" transform="translate(92.773 44.371)" fill="#263238"/>
    <path id="Trazado_211132" data-name="Trazado 211132" d="M40.718,33.968C42.5,28.737,50.271,21.6,55.783,22.1l8.707,5.45a8.488,8.488,0,0,1-5.92,6.264c-1.566.438-3.445.532-4.385,1.848s-.47,3.351-1.378,4.761c-1.253,1.911-4.573,1.754-5.544,3.852-.407.908-.219,2.036-.658,2.944a5.92,5.92,0,0,1-4.98,2.255c-1.253-.438-1.222-2.6-1.629-3.758a6.264,6.264,0,0,1,0-4.04C40.718,39.229,40,36.473,40.718,33.968Z" transform="translate(74.557 33.82)" fill="#263238"/>
    <path id="Trazado_211133" data-name="Trazado 211133" d="M46.031,33.047c0-.689-.689-2.318-1.347-2.443a3.946,3.946,0,0,0-5.231,4.228A4.667,4.667,0,0,0,45.5,39.844S45.937,35.459,46.031,33.047Z" transform="translate(74.036 51.528)" fill="#ffbe9d"/>
    <path id="Trazado_211134" data-name="Trazado 211134" d="M42.709,36.107h-.282a1.033,1.033,0,0,1-.814,0,2.662,2.662,0,0,1-1.128-2.474,3.476,3.476,0,0,1,.376-1.535c.219-.438.5-.752.846-.783a.532.532,0,0,1,.626.313V31.6a.658.658,0,0,0-.219-.407.814.814,0,0,0-.6-.188,1.472,1.472,0,0,0-1.159.908,3.351,3.351,0,0,0-.47,1.723,2.788,2.788,0,0,0,1.472,2.756,1.19,1.19,0,0,0,.971,0C42.709,36.233,42.741,36.107,42.709,36.107Z" transform="translate(75.009 52.853)" fill="#eb996e"/>
    <path id="Trazado_211135" data-name="Trazado 211135" d="M48.342,27.937h0c0-1.973-2.412-3.132-4.291-3.665a8.081,8.081,0,0,0-5.606,1.065,3.884,3.884,0,0,0-2.224,2.443c-.219,1.1.846,2.443,1.911,2.036A3.7,3.7,0,1,0,41.7,36.08,8.206,8.206,0,0,1,38.57,40.5a9.208,9.208,0,0,0,9.866-12.528Z" transform="translate(65.711 38.253)" fill="#263238"/>
    <path id="Trazado_211136" data-name="Trazado 211136" d="M38.416,36.463a4.949,4.949,0,0,1-.251-1.848,13.75,13.75,0,0,1,.72-4.51,13.311,13.311,0,0,1,2.13-3.978,5.638,5.638,0,0,1,1.315-1.347A20.3,20.3,0,0,0,39.2,30.261a20.077,20.077,0,0,0-.783,6.2Z" transform="translate(71.347 39.593)" fill="#ff725e"/>
    <path id="Trazado_211137" data-name="Trazado 211137" d="M47.135,23.22c.564,2.537,4.416,5.794,6.264,7.768,3.132,3.758,3.852,4.98,3.821,13.405a17.665,17.665,0,0,0,2.286-9.02,13.562,13.562,0,0,0-3.6-8.926,10.618,10.618,0,0,0-8.9-3.132" transform="translate(90.221 36.267)" fill="#263238"/>
    <path id="Trazado_211138" data-name="Trazado 211138" d="M103.346,60.715S96.675,49.533,94.8,47.247a14.877,14.877,0,0,0-5.418-3.978,11.276,11.276,0,0,0-2.6-.783l-9.647-2.13a7.016,7.016,0,0,1-6.953,6.891c-6.891.407-12.528-9.177-12.528-9.177A88.545,88.545,0,0,0,43.837,41.2c-2.662,1.378-6.828,3.132-9.146,14.658L33,67.167l19.2,1.785,1.848,28.5,9.4,6.64,28.189,7.3c1.691.47,2.255-42.44,2.255-42.44a44.913,44.913,0,0,0,9.459-8.237Z" transform="translate(60.351 67.929)" fill="#438815"/>
    <path id="Trazado_211139" data-name="Trazado 211139" d="M51.43,43.77a4.008,4.008,0,0,1,.376.814c.219.532.5,1.347.814,2.318a44.568,44.568,0,0,1,1.691,7.924,46.978,46.978,0,0,1,.282,8.112,6.7,6.7,0,0,1-.251,2.443,2.725,2.725,0,0,1,0,.877,4.636,4.636,0,0,1,0-.877V62.938a55.249,55.249,0,0,0-.376-8.049A56.376,56.376,0,0,0,52.4,47c-.282-1-.532-1.817-.689-2.349a3.759,3.759,0,0,1-.282-.877Z" transform="translate(99.645 80.081)" fill="#263238"/>
    <path id="Trazado_211140" data-name="Trazado 211140" d="M87.778,82.623,51.634,74.762l-1.66-25.808L34,47.45s.6,17.665,1.222,22.9c.877,7.548,5.356,17.853,7.955,19.92S89.5,91.393,89.5,91.393Z" transform="translate(62.483 87.927)" fill="#ffbe9d"/>
    <path id="Trazado_211141" data-name="Trazado 211141" d="M71.9,68.879a1.441,1.441,0,0,1-1.347.783h-.345c-.814-.282-.72-1.911-.72-1.911l-3.852-.626A40.717,40.717,0,0,0,58.9,72.481c-1.785,2.13-6.264.407-6.264.407L51.07,64.713l7.047-6.264s-.438.376,0-.814,2.694-.752,2.694-.752c.345-.6,1.785-.783,1.785-.783l6.264.689a4.259,4.259,0,0,1,3.132,1.942L74.623,62.9a11.745,11.745,0,0,1,1.159,3.665,1.253,1.253,0,0,1-1.441.814s-.313,1.942-.814,2a3.79,3.79,0,0,1-1.535-.345Z" transform="translate(98.877 106.37)" fill="#ffbe9d"/>
    <path id="Trazado_211142" data-name="Trazado 211142" d="M53.52,58.587h2.13a19.8,19.8,0,0,1,5.074.94,18.045,18.045,0,0,1,2.6,1.128c.72.407,1.5.752,1.754,1.315a.72.72,0,0,1,0,.72,1.128,1.128,0,0,1-.47.407,1.347,1.347,0,0,1-.532,0s.188.188.564,0a.971.971,0,0,0,.626-.407,1.034,1.034,0,0,0,0-.971,1.942,1.942,0,0,0-.752-.846,6.265,6.265,0,0,0-1.1-.658,17.069,17.069,0,0,0-2.631-1.19,16.757,16.757,0,0,0-5.168-.846,6.733,6.733,0,0,0-2.1.407Z" transform="translate(104.101 110.804)" fill="#eb996e"/>
    <path id="Trazado_211143" data-name="Trazado 211143" d="M53.38,59.728s2.537,0,5.606.219,5.575.532,5.606.438a5.732,5.732,0,0,0-1.6-.407c-1,0-2.412-.345-3.978-.438a33.887,33.887,0,0,0-4.009,0A8.49,8.49,0,0,0,53.38,59.728Z" transform="translate(103.802 113.578)" fill="#eb996e"/>
    <path id="Trazado_211144" data-name="Trazado 211144" d="M65.321,66.527V65.87a11.527,11.527,0,0,0,0-1.817,6.265,6.265,0,0,0,0-1.253,3.32,3.32,0,0,0-.626-1.347,8.206,8.206,0,0,0-2.286-2.38,12.09,12.09,0,0,0-3.132-1.5,13.158,13.158,0,0,0-2.662-.407H54.8a1.66,1.66,0,0,0-.658,0,18.789,18.789,0,0,0,2.443.188,15.316,15.316,0,0,1,2.6.47A13.03,13.03,0,0,1,62,59.324a8.05,8.05,0,0,1,2.255,2.224,4.823,4.823,0,0,1,.814,2.443,19.575,19.575,0,0,0,.251,2.537Z" transform="translate(105.423 108.565)" fill="#eb996e"/>
    <path id="Trazado_211145" data-name="Trazado 211145" d="M54.86,56.616a15.732,15.732,0,0,1,2.38.251,6.264,6.264,0,0,1,5.011,2.286,20.013,20.013,0,0,1,3.132,4.823,11.116,11.116,0,0,1,.6,2.318s0-.219,0-.658a5.637,5.637,0,0,0-.345-1.754A18.355,18.355,0,0,0,62.5,58.9a6.452,6.452,0,0,0-1.221-1.221,4.667,4.667,0,0,0-1.441-.689,12.873,12.873,0,0,0-2.631-.407,8.676,8.676,0,0,0-2.349.031Z" transform="translate(106.958 107.264)" fill="#eb996e"/>
    <path id="Trazado_211146" data-name="Trazado 211146" d="M60.034,71.316l.376-.282,1.034-.846A44.854,44.854,0,0,1,65.515,67.4h0l3.821.626v-.157a3.132,3.132,0,0,0,0,.94,1.535,1.535,0,0,0,.438.908.846.846,0,0,0,.5.251,1.472,1.472,0,0,0,.532,0,1.66,1.66,0,0,0,.971-.532v-.219h1.1a.376.376,0,0,0,.345,0,1.128,1.128,0,0,0,.376-.5l.188-.532a10.6,10.6,0,0,0,.251-1.065l-.219.157a1.441,1.441,0,0,0,1.409-.5,1.316,1.316,0,0,0,.47-.439,4.851,4.851,0,0,0,0-.72,18.356,18.356,0,0,0-1.034-2.756h0l-1.378-2.192-1.1-1.535a6.265,6.265,0,0,0-.971-1.347,3.852,3.852,0,0,0-1.378-.94,5.575,5.575,0,0,0-1.566-.313L62.445,56h0a5.26,5.26,0,0,0-1,.282,1.723,1.723,0,0,0-.908.6h.219a2.192,2.192,0,0,0-1.973,0,2.443,2.443,0,0,0-1,1.566h0l-4.855,4.385-1.315,1.19-.438.438.5-.376,1.347-1.128,4.949-4.291h0a2.224,2.224,0,0,1,.846-1.378,1.879,1.879,0,0,1,1.691,0h0a1.222,1.222,0,0,1,.72-.47,4.6,4.6,0,0,1,.94-.251h0l5.794.689a4.761,4.761,0,0,1,1.5.313,4.009,4.009,0,0,1,1.253.846,8.423,8.423,0,0,1,.908,1.284l.877,1.378L73.909,63.3h0a20.579,20.579,0,0,1,1.034,2.694,2.443,2.443,0,0,1,0,.658.814.814,0,0,1,0,.532,1.128,1.128,0,0,1-1.065.345H73.69v.188a1.774,1.774,0,0,1-.219,1.034,1.973,1.973,0,0,1-.407.814H71.5a.658.658,0,0,1,0,.188,1.127,1.127,0,0,1-.72.407,1.033,1.033,0,0,1-.438,0,.564.564,0,0,1-.345,0,2.318,2.318,0,0,1-.407-1.6V68.4h0l-3.821-.6h0a34.922,34.922,0,0,0-4.009,2.913l-1,.877Z" transform="translate(99.09 106.157)" fill="#eb996e"/>
    <path id="Trazado_211147" data-name="Trazado 211147" d="M126.023,52.6l-47.576.376a3.132,3.132,0,0,0-3.132,2.255l-5.325,34.7H45.467a1.441,1.441,0,0,0,0,2.85h78.3l5.356-36.614a3.132,3.132,0,0,0-3.1-3.571Z" transform="translate(84.31 98.908)" fill="#e0e0e0"/>
    <path id="Trazado_211148" data-name="Trazado 211148" d="M126.273,53.112a2.725,2.725,0,0,1,.752,0,3.128,3.128,0,0,1,2.412,2.725,8.393,8.393,0,0,1,0,1.942c-.219,1.409-.438,3.132-.689,4.855-1.065,7.266-2.568,17.759-4.416,30.632H46.03a2,2,0,0,1-1.1-.188,1.535,1.535,0,0,1-.72-.877,1.66,1.66,0,0,1,.72-1.973,2,2,0,0,1,1.1-.188H70.24l-.188.157,5.2-34.453a2.725,2.725,0,0,1,.877-1.817,3.32,3.32,0,0,1,1.817-.814h41.813l-18.135.219H79.856a12.025,12.025,0,0,0-1.848,0,3.132,3.132,0,0,0-1.66.72,2.38,2.38,0,0,0-.783,1.629C74,66.078,72.433,77.6,70.428,90.133H46.03a1.692,1.692,0,0,0-.908,0,1.253,1.253,0,0,0-.564,1.5,1.315,1.315,0,0,0,.564.658,1.691,1.691,0,0,0,.908.157h77.989c1.879-12.9,3.445-23.365,4.51-30.632L129.28,57a11.243,11.243,0,0,0,.188-1.942,3.162,3.162,0,0,0-2.318-2.694A4.26,4.26,0,0,0,126.273,53.112Z" transform="translate(84.06 98.396)" fill="#263238"/>
    <path id="Trazado_211149" data-name="Trazado 211149" d="M61.163,60.9a3.132,3.132,0,1,0,3.132-2.975A3.132,3.132,0,0,0,61.163,60.9Z" transform="translate(120.387 110.25)" fill="#fff"/>
    <path id="Trazado_211150" data-name="Trazado 211150" d="M53.081,92.215s1.566-8.832,3.383-19.732S59.6,52.72,59.6,52.72,58,61.552,56.213,72.452,53.019,92.215,53.081,92.215Z" transform="translate(103.161 99.163)" fill="#263238"/>
  </g>
</svg>
