<svg xmlns="http://www.w3.org/2000/svg" width="122.67" height="216.294" viewBox="0 0 122.67 216.294">
  <g id="ILUSTRACIONES-15" transform="translate(-24.58 -6.32)">
    <path id="Trazado_214414" data-name="Trazado 214414" d="M136.41,85.716,94.277,83.183l-.456-.963L82.4,82.5l-3.7-.228a2.708,2.708,0,0,1-.152.3l-38.332.861c-7.6,0-15.657,4.712-15.632,10.666s2.686,11.806,9.526,11.654l52.343-.228h52.089c6.841,0,8.639-4,8.639-8.893C147.963,87.515,142.186,85.792,136.41,85.716Z" transform="translate(0 116.395)" fill="#455a64"/>
    <path id="Trazado_214415" data-name="Trazado 214415" d="M30.23,101.125h49.4l-.152.152-.228-3.6c-.177-2.534-.329-5.067-.481-7.373h0L46.6,86.658,37.02,85.569l-2.534-.279h0l2.534.253,9.6.988,32.3,3.344h0V90c.152,2.356.3,4.839.481,7.373l.228,3.6v.152H30.23Z" transform="translate(8.664 121.103)" fill="#263238"/>
    <path id="Trazado_214416" data-name="Trazado 214416" d="M41.238,87.554s-.557-.38-1.469-.937a15.961,15.961,0,0,0-3.851-1.672,16.215,16.215,0,0,0-4.13-.583H30.5a11.025,11.025,0,0,1,1.292,0,14.669,14.669,0,0,1,4.231.532,13.706,13.706,0,0,1,3.851,1.773,9.776,9.776,0,0,1,1.039.785C41.137,87.427,41.264,87.554,41.238,87.554Z" transform="translate(8.373 119.65)" fill="#263238"/>
    <path id="Trazado_214417" data-name="Trazado 214417" d="M89.927,84.641s-8.285,2.1-18.545,4.535-18.6,4.332-18.621,4.256,8.285-2.1,18.545-4.535S89.9,84.565,89.927,84.641Z" transform="translate(43.215 120.105)" fill="#263238"/>
    <path id="Trazado_214418" data-name="Trazado 214418" d="M68.208,84.33a12.085,12.085,0,0,0-5.878,4.028,2.939,2.939,0,0,1,.557-.912,8.386,8.386,0,0,1,1.925-1.8,8.841,8.841,0,0,1,2.331-1.14,3.293,3.293,0,0,1,1.064-.177Z" transform="translate(57.891 119.631)" fill="#263238"/>
    <path id="Trazado_214419" data-name="Trazado 214419" d="M49.53,87.62l7.854,1.089.025,8.538L50.189,97.1Z" transform="translate(38.262 124.676)" fill="#b78876"/>
    <path id="Trazado_214420" data-name="Trazado 214420" d="M52.661,88.05h3.471a3.775,3.775,0,0,1,1.951.532l1.875,1.064a25.664,25.664,0,0,0,3.268,1.545,41.648,41.648,0,0,1,6.536,2.2c2.179,1.672,1.52,3.648.329,3.851s-17.481-.633-17.481-.633Z" transform="translate(42.985 125.335)" fill="#e8505b"/>
    <path id="Trazado_214421" data-name="Trazado 214421" d="M55.2,93.854a5.878,5.878,0,0,1-.405-2.23,5.954,5.954,0,0,1,.253-2.255v2.255A20.089,20.089,0,0,1,55.2,93.854Z" transform="translate(46.301 127.36)" fill="#263238"/>
    <path id="Trazado_214422" data-name="Trazado 214422" d="M55.7,93.6a7.6,7.6,0,0,1-.152-2.052,6.815,6.815,0,0,1,.177-2.052,8.183,8.183,0,0,1,0,2.052A7.6,7.6,0,0,1,55.7,93.6Z" transform="translate(47.469 127.559)" fill="#263238"/>
    <path id="Trazado_214423" data-name="Trazado 214423" d="M56.616,93.8a7.6,7.6,0,0,1-.3-2.1,6.511,6.511,0,0,1,0-2.1,8.233,8.233,0,0,1,.3,2.077,7.778,7.778,0,0,1,0,2.128Z" transform="translate(48.531 127.697)" fill="#263238"/>
    <path id="Trazado_214424" data-name="Trazado 214424" d="M56.491,92.4a4.46,4.46,0,0,1-.735-.228,6.283,6.283,0,0,1-1.773-1.089l-.507-.481a1.749,1.749,0,0,1-.431-.633.811.811,0,0,1,0-.861.633.633,0,0,1,.456-.253.913.913,0,0,1,.456,0,3.531,3.531,0,0,1,.836,6.308,1.849,1.849,0,0,1-.811.38.938.938,0,0,1-.456,0,.71.71,0,0,1-.355-.3.937.937,0,0,1,0-.836,3.142,3.142,0,0,1,.456-.532,5.219,5.219,0,0,1,1.723-1.14,2.889,2.889,0,0,1,.735-.228,1.3,1.3,0,0,0-.684.329,5.068,5.068,0,0,0-1.621,1.191,1.977,1.977,0,0,0-.405.507.608.608,0,0,0,0,.583.481.481,0,0,0,.557.2,1.774,1.774,0,0,0,.684-.355,3.243,3.243,0,0,0-.659-5.7h-.633a.633.633,0,0,0,0,.633,3.775,3.775,0,0,0,.861,1.039A9.019,9.019,0,0,0,56.491,92.4Z" transform="translate(43.462 126.529)" fill="#263238"/>
    <path id="Trazado_214425" data-name="Trazado 214425" d="M67.638,97.114a1.951,1.951,0,0,0,.431-.532,2.027,2.027,0,0,0-.228-1.773,4,4,0,0,0-2.2-1.647c-.988-.355-2.179-.532-3.395-.912a23.638,23.638,0,0,1-5.852-2.534c-.684-.456-1.241-.836-1.6-1.115s-.557-.456-.532-.481a3.727,3.727,0,0,1,.608.38l1.621,1.039a26.754,26.754,0,0,0,5.827,2.534c1.191.38,2.382.557,3.42.937a4.079,4.079,0,0,1,2.28,1.8,2.128,2.128,0,0,1,.152,1.925,1.469,1.469,0,0,1-.355.405Z" transform="translate(45.514 125.443)" fill="#263238"/>
    <path id="Trazado_214426" data-name="Trazado 214426" d="M54.257,47.09a11.528,11.528,0,0,0-5.7,7.221,21.712,21.712,0,0,0,.507,6.866,8.563,8.563,0,0,1-1.241,6.613,31.039,31.039,0,0,1-3.344,2.686,7.854,7.854,0,0,0-.76,11.148,4.1,4.1,0,0,0-3.015,4.13,6.131,6.131,0,0,0,2.711,4.636,12.389,12.389,0,0,0,5.067,1.976,11.147,11.147,0,0,0,5.776-.152,19.027,19.027,0,0,0,5.5-4.1,29.947,29.947,0,0,0,6.106-5.776,17.177,17.177,0,0,0,1.976-9.45A81.934,81.934,0,0,0,65.3,53.018" transform="translate(24.718 62.522)" fill="#263238"/>
    <path id="Trazado_214427" data-name="Trazado 214427" d="M68.363,65.32,81.765,88.5a9.83,9.83,0,0,1,.3,9.323h0a9.83,9.83,0,0,1-9.1,5.472l-20.5-.507-.557-7.449,17.937-3.522-12.212-21Z" transform="translate(41.927 90.478)" fill="#b78876"/>
    <path id="Trazado_214428" data-name="Trazado 214428" d="M45.315,105.106l18.849,5.067.38-5.65L47.164,94.389,59.832,70.827,49.165,65.38,35.89,88.663h0a10.869,10.869,0,0,0,6.334,15.505Z" transform="translate(15.368 90.57)" fill="#b78876"/>
    <path id="Trazado_214429" data-name="Trazado 214429" d="M84.591,87.435l12.87-6.815a64.833,64.833,0,0,0-5.548-9.2A28.223,28.223,0,0,0,74.685,60.63h0l-14.8.228a19.685,19.685,0,0,0-5.3,1.216h0C46.537,63.873,37.67,81.43,37.67,81.43L49.4,87.561l.279,1.849a12.668,12.668,0,0,0,3.066,6.562L49.4,118.42l38,.684-4.89-16.063Z" transform="translate(20.074 83.286)" fill="#e8505b"/>
    <path id="Trazado_214430" data-name="Trazado 214430" d="M45.894,84.583s-.228,0-.583-.405a9.982,9.982,0,0,1-1.292-1.444,9.349,9.349,0,0,1-1.6-6.131,21.077,21.077,0,0,1,.861-3.42c.329-1.013.684-1.925.988-2.686s.557-1.343.735-1.773a2.534,2.534,0,0,1,.329-.633,1.647,1.647,0,0,1-.228.684l-.659,1.8c-.279.76-.583,1.672-.912,2.711a23.385,23.385,0,0,0-.836,3.37,9.881,9.881,0,0,0,.329,3.395A9.248,9.248,0,0,0,44.2,82.582a12.085,12.085,0,0,0,1.7,2Z" transform="translate(27.304 94.726)" fill="#263238"/>
    <path id="Trazado_214431" data-name="Trazado 214431" d="M46.418,69.824a11.351,11.351,0,0,1-2-2.331A10.489,10.489,0,0,1,42.77,64.96a11.35,11.35,0,0,1,2,2.331A10.489,10.489,0,0,1,46.418,69.824Z" transform="translate(27.895 89.926)" fill="#fafafa"/>
    <path id="Trazado_214432" data-name="Trazado 214432" d="M49.523,62.78a8.487,8.487,0,0,1-2.229,1.495A9.07,9.07,0,0,1,44.76,65.39a7.828,7.828,0,0,1,2.23-1.495,8.209,8.209,0,0,1,2.534-1.115Z" transform="translate(30.947 86.583)" fill="#fafafa"/>
    <path id="Trazado_214433" data-name="Trazado 214433" d="M40.848,71.687a7.22,7.22,0,0,1,0-2.534,7.6,7.6,0,0,1,.405-2.534,6.461,6.461,0,0,1,0,2.534A7.043,7.043,0,0,1,40.848,71.687Z" transform="translate(24.775 92.472)" fill="#fafafa"/>
    <path id="Trazado_214434" data-name="Trazado 214434" d="M48.894,70.53a14.011,14.011,0,0,1-2.128,1.444,7.245,7.245,0,0,1-2.356,1.064,8.767,8.767,0,0,1,2.154-1.444A7.981,7.981,0,0,1,48.894,70.53Z" transform="translate(30.41 98.468)" fill="#fafafa"/>
    <path id="Trazado_214435" data-name="Trazado 214435" d="M50.07,66.49a15.2,15.2,0,0,1-3.42,3.826,6.587,6.587,0,0,1,1.469-2A6.967,6.967,0,0,1,50.07,66.49Z" transform="translate(33.845 92.272)" fill="#fafafa"/>
    <path id="Trazado_214436" data-name="Trazado 214436" d="M53.132,70.062a13.661,13.661,0,0,1-1.571-1.824A6.334,6.334,0,0,1,50.37,66.16a7.4,7.4,0,0,1,1.545,1.824A6.689,6.689,0,0,1,53.132,70.062Z" transform="translate(39.55 91.766)" fill="#fafafa"/>
    <path id="Trazado_214437" data-name="Trazado 214437" d="M49.991,75.032a9.2,9.2,0,0,1-.507-2.888,10.363,10.363,0,0,1,0-2.964,9.7,9.7,0,0,1,.507,2.914,11.349,11.349,0,0,1,0,2.939Z" transform="translate(38.028 96.398)" fill="#fafafa"/>
    <path id="Trazado_214438" data-name="Trazado 214438" d="M49.77,77.54a7.449,7.449,0,0,1-1.495-2.179A7.955,7.955,0,0,1,47.16,72.98a8.284,8.284,0,0,1,1.495,2.153A8.411,8.411,0,0,1,49.77,77.54Z" transform="translate(34.627 102.225)" fill="#fafafa"/>
    <path id="Trazado_214439" data-name="Trazado 214439" d="M54.844,72.88a15.633,15.633,0,0,1-3.294,4.256,8.842,8.842,0,0,1,1.469-2.255A9.374,9.374,0,0,1,54.844,72.88Z" transform="translate(41.359 102.072)" fill="#fafafa"/>
    <path id="Trazado_214440" data-name="Trazado 214440" d="M57.764,73.285a7.17,7.17,0,0,1-2.711-1.495,7.271,7.271,0,0,1-2.1-2.28s1.064.912,2.382,1.925A22.117,22.117,0,0,1,57.764,73.285Z" transform="translate(43.506 96.904)" fill="#fafafa"/>
    <path id="Trazado_214441" data-name="Trazado 214441" d="M61.632,68.389a18.926,18.926,0,0,1-5.852.152,9.8,9.8,0,0,1,2.914-.3A10.133,10.133,0,0,1,61.632,68.389Z" transform="translate(47.846 94.883)" fill="#fafafa"/>
    <g id="Grupo_145913" data-name="Grupo 145913" transform="translate(92.021 151.593)" opacity="0.3">
      <path id="Trazado_214442" data-name="Trazado 214442" d="M70.709,64.8a7.6,7.6,0,0,1-11.654,9.45,3.522,3.522,0,0,0-2.939-1.469A5.8,5.8,0,0,1,52.29,63.66Z" transform="translate(-51.199 -63.66)"/>
    </g>
    <path id="Trazado_214443" data-name="Trazado 214443" d="M42.9,100.788,40.67,75.757l46.338-.127-3.015,25.361Z" transform="translate(24.675 106.289)" fill="#263238"/>
    <path id="Trazado_214444" data-name="Trazado 214444" d="M54.558,82.7a2.914,2.914,0,1,1-.853-2.086,2.939,2.939,0,0,1,.853,2.086Z" transform="translate(36.958 112.622)" fill="#fafafa"/>
    <path id="Trazado_214445" data-name="Trazado 214445" d="M58.474,89.105a7.246,7.246,0,0,0,7.094-7.145l.329-28.68h0a2.255,2.255,0,0,0-2.052-2.306L51.684,47.885c-3.876-.405-6.461,4.383-6.714,8.285a69.853,69.853,0,0,0,0,12.9A8.133,8.133,0,0,0,51,76.412v5.5a7.271,7.271,0,0,0,7.4,7.2Z" transform="translate(30.812 63.704)" fill="#b78876"/>
    <path id="Trazado_214446" data-name="Trazado 214446" d="M45.79,53.232a.811.811,0,0,0,.785.836.785.785,0,0,0,.861-.76.811.811,0,0,0-.785-.836.785.785,0,0,0-.861.76Z" transform="translate(32.526 70.77)" fill="#263238"/>
    <path id="Trazado_214447" data-name="Trazado 214447" d="M45.248,52.711c0,.127.735-.355,1.647-.355s1.545.456,1.647.355,0-.253-.329-.456a2.533,2.533,0,0,0-1.343-.405,2.229,2.229,0,0,0-1.292.405C45.3,52.483,45.2,52.661,45.248,52.711Z" transform="translate(31.675 69.822)" fill="#263238"/>
    <path id="Trazado_214448" data-name="Trazado 214448" d="M49.16,53.232a.837.837,0,0,0,1.672.076.861.861,0,0,0-.811-.836.785.785,0,0,0-.861.76Z" transform="translate(37.694 70.77)" fill="#263238"/>
    <path id="Trazado_214449" data-name="Trazado 214449" d="M48.737,52.784a4.152,4.152,0,0,1,1.621-.355c.887,0,1.571.456,1.672.329s0-.228-.355-.456a2.28,2.28,0,0,0-2.534,0C48.788,52.531,48.687,52.733,48.737,52.784Z" transform="translate(37.027 69.926)" fill="#263238"/>
    <path id="Trazado_214450" data-name="Trazado 214450" d="M48.776,59.429a5.549,5.549,0,0,0-1.444-.253c-.228,0-.456,0-.507-.228a1.242,1.242,0,0,1,.152-.684q.355-.836.684-1.748a29.413,29.413,0,0,0,1.52-4.586,30.707,30.707,0,0,0-1.875,4.459l-.659,1.748a1.292,1.292,0,0,0,0,.887.608.608,0,0,0,.355.355h.405a5.6,5.6,0,0,0,1.368.051Z" transform="translate(33.721 69.944)" fill="#263238"/>
    <path id="Trazado_214451" data-name="Trazado 214451" d="M47.2,60.5a16.569,16.569,0,0,0,8.715-2.331,8.285,8.285,0,0,1-8.639,3.851Z" transform="translate(34.688 79.514)" fill="#aa6550"/>
    <path id="Trazado_214452" data-name="Trazado 214452" d="M47.688,56.1a1.621,1.621,0,0,1,1.444-.583,1.5,1.5,0,0,1,1.039.532,1.013,1.013,0,0,1,0,1.089,1.115,1.115,0,0,1-1.191.279,3.5,3.5,0,0,1-1.14-.684.811.811,0,0,1-.253-.253.253.253,0,0,1,0-.329" transform="translate(35.188 75.428)" fill="#aa6550"/>
    <path id="Trazado_214453" data-name="Trazado 214453" d="M50.223,55.13c-.152,0-.152.988-.988,1.672s-1.875.583-1.875.709.228.2.659.2a2.534,2.534,0,0,0,1.571-.532,2.1,2.1,0,0,0,.76-1.393C50.375,55.383,50.274,55.13,50.223,55.13Z" transform="translate(34.934 74.852)" fill="#263238"/>
    <path id="Trazado_214454" data-name="Trazado 214454" d="M48.575,52.056c0,.228.988,0,2.027.253s1.925.405,2.052.2,0-.355-.431-.583A3.547,3.547,0,0,0,50.7,51.4a3.116,3.116,0,0,0-1.6.2C48.727,51.752,48.524,51.929,48.575,52.056Z" transform="translate(36.785 69.084)" fill="#263238"/>
    <path id="Trazado_214455" data-name="Trazado 214455" d="M45.3,52.046c.177.2.785,0,1.52,0s1.393.152,1.52,0,0-.3-.3-.507a2.534,2.534,0,0,0-1.241-.329,2.306,2.306,0,0,0-1.216.405C45.324,51.742,45.248,51.945,45.3,52.046Z" transform="translate(31.75 68.84)" fill="#263238"/>
    <path id="Trazado_214456" data-name="Trazado 214456" d="M82.054,87.939c-1.216-2.077-3.9-3.446-3.9-5.827,0-1.469,1.115-2.736,1.191-4.206,0-2.914-3.623-4.459-4.636-7.221s.659-5.3,0-7.879c-.659-3.192-3.547-4.434-5.9-6.587a11.123,11.123,0,0,1-2.534-3.294,4.107,4.107,0,0,0-.1-.456,10.286,10.286,0,0,0-7.6-4.89,16.139,16.139,0,0,0-8.766-.431,7.854,7.854,0,0,0-4.1,2.331,4.788,4.788,0,0,0-1.14,4.434,3.522,3.522,0,0,0,3.6,2.534c1.191-.152,2.356-1.039,3.522-.684s1.824,1.773,2.914,1.773,2.1-.811,3.218-.887A3.218,3.218,0,0,1,60.7,58.677a12.67,12.67,0,0,1,.532,1.368c.912,4.611,2.686,6.714,1.444,9.4a14.39,14.39,0,0,0-1.925,4.282c-.405,3.6,4.256,6.207,4,9.83A16.265,16.265,0,0,1,63.1,87.939,7.6,7.6,0,0,0,65.637,96.4a5.067,5.067,0,0,0,4.586.861,1.824,1.824,0,0,0,.507-.228,6.461,6.461,0,0,0,3.04,1.621,7.6,7.6,0,0,0,7.347-3.243,6.942,6.942,0,0,0,.937-7.474Z" transform="translate(30.414 61.982)" fill="#263238"/>
    <path id="Trazado_214457" data-name="Trazado 214457" d="M62.7,96.509a8.412,8.412,0,0,0,2.28-.76A7.246,7.246,0,0,0,67.156,94a6.79,6.79,0,0,0,1.571-3.294,7.094,7.094,0,0,0-4.586-7.6,6.689,6.689,0,0,1-2.534-1.545,3.648,3.648,0,0,1-.735-2.964,8.766,8.766,0,0,1,1.089-2.939,15.049,15.049,0,0,0,1.343-2.812,4.054,4.054,0,0,0,0-2.939,8.259,8.259,0,0,0-1.748-2.534,27.49,27.49,0,0,1-2.027-2.179,10.438,10.438,0,0,1-1.495-2.534,24.044,24.044,0,0,1-1.368-5.067,32.049,32.049,0,0,0-.988-4.434,9.146,9.146,0,0,0-3.724-5.219A7.6,7.6,0,0,0,49.7,47.08h.633a5.067,5.067,0,0,1,1.7.633,7.322,7.322,0,0,1,2.179,1.9,10.286,10.286,0,0,1,1.748,3.37,33.34,33.34,0,0,1,1.064,4.484,24.449,24.449,0,0,0,1.393,5.067,9.653,9.653,0,0,0,1.444,2.382c.583.735,1.317,1.419,2.027,2.154A8.538,8.538,0,0,1,63.71,69.6a4.611,4.611,0,0,1,0,3.243,34.656,34.656,0,0,0-2.534,5.7,3.142,3.142,0,0,0,.608,2.534,6.308,6.308,0,0,0,2.306,1.469,7.905,7.905,0,0,1,2.356,1.419,7.6,7.6,0,0,1,1.621,2.052,7.4,7.4,0,0,1,.76,4.56,7.207,7.207,0,0,1-5.726,5.7h-.456Z" transform="translate(38.522 62.507)" fill="#455a64"/>
    <path id="Trazado_214458" data-name="Trazado 214458" d="M49.223,85.654c-.127,0-.2-15.024-.2-33.595s0-33.569.2-33.569.228,15.024.228,33.569S49.349,85.654,49.223,85.654Z" transform="translate(37.479 18.663)" fill="#263238"/>
    <rect id="Rectángulo_43921" data-name="Rectángulo 43921" width="85.355" height="70.28" transform="translate(44.62 15.947)" fill="#263238"/>
    <rect id="Rectángulo_43922" data-name="Rectángulo 43922" width="93.31" height="23.156" transform="translate(32.155 34.696)" fill="#455a64"/>
    <rect id="Rectángulo_43923" data-name="Rectángulo 43923" width="18.368" height="2.838" transform="translate(36.31 39.459)" fill="#263238"/>
    <rect id="Rectángulo_43924" data-name="Rectángulo 43924" width="18.368" height="2.838" transform="translate(36.31 44.323)" fill="#263238"/>
    <rect id="Rectángulo_43925" data-name="Rectángulo 43925" width="18.368" height="2.838" transform="translate(36.31 49.339)" fill="#263238"/>
    <path id="Trazado_214459" data-name="Trazado 214459" d="M40.6,20.7a1.064,1.064,0,0,1-1.064,1.064A1.057,1.057,0,1,1,40.6,20.7Z" transform="translate(21.347 20.457)" fill="#263238"/>
    <path id="Trazado_214460" data-name="Trazado 214460" d="M42.433,20.7a1.039,1.039,0,0,1-1.039,1.064A1.064,1.064,0,0,1,40.33,20.7a1.051,1.051,0,0,1,2.1,0Z" transform="translate(24.153 20.457)" fill="#263238"/>
    <path id="Trazado_214461" data-name="Trazado 214461" d="M44.273,20.7a1.064,1.064,0,0,1-1.064,1.064A1.057,1.057,0,1,1,44.273,20.7Z" transform="translate(26.975 20.457)" fill="#263238"/>
    <path id="Trazado_214462" data-name="Trazado 214462" d="M46.128,20.714a1.064,1.064,0,1,1-1.064-1.064,1.064,1.064,0,0,1,1.064,1.064Z" transform="translate(29.781 20.442)" fill="#263238"/>
    <path id="Trazado_214463" data-name="Trazado 214463" d="M60.333,20.7a1.039,1.039,0,0,1-1.039,1.064A1.064,1.064,0,0,1,58.23,20.7a1.051,1.051,0,0,1,2.1,0Z" transform="translate(51.603 20.457)" fill="#263238"/>
    <path id="Trazado_214464" data-name="Trazado 214464" d="M62.2,20.7a1.039,1.039,0,0,1-1.039,1.064A1.064,1.064,0,0,1,60.1,20.7a1.051,1.051,0,0,1,2.1,0Z" transform="translate(54.471 20.457)" fill="#263238"/>
    <path id="Trazado_214465" data-name="Trazado 214465" d="M47.943,20.7A1.039,1.039,0,0,1,46.9,21.763,1.064,1.064,0,0,1,45.84,20.7a1.051,1.051,0,0,1,2.1,0Z" transform="translate(32.603 20.457)" fill="#263238"/>
    <path id="Trazado_214466" data-name="Trazado 214466" d="M56.963,20.7A1.064,1.064,0,0,1,55.9,21.763,1.057,1.057,0,1,1,56.963,20.7Z" transform="translate(46.435 20.457)" fill="#263238"/>
    <path id="Trazado_214467" data-name="Trazado 214467" d="M49.783,20.7a1.064,1.064,0,0,1-1.064,1.064A1.057,1.057,0,1,1,49.783,20.7Z" transform="translate(35.424 20.457)" fill="#f5f5f5"/>
    <path id="Trazado_214468" data-name="Trazado 214468" d="M51.613,20.7a1.039,1.039,0,0,1-1.039,1.064A1.064,1.064,0,0,1,49.51,20.7a1.051,1.051,0,0,1,2.1,0Z" transform="translate(38.231 20.457)" fill="#f5f5f5"/>
    <path id="Trazado_214469" data-name="Trazado 214469" d="M55.343,20.7a1.064,1.064,0,0,1-1.064,1.064A1.057,1.057,0,1,1,55.343,20.7Z" transform="translate(43.951 20.457)" fill="#f5f5f5"/>
    <path id="Trazado_214470" data-name="Trazado 214470" d="M63.733,20.7a1.064,1.064,0,0,1-1.064,1.064A1.057,1.057,0,1,1,63.733,20.7Z" transform="translate(56.817 20.457)" fill="#f5f5f5"/>
    <path id="Trazado_214471" data-name="Trazado 214471" d="M53.453,20.7a1.064,1.064,0,0,1-1.064,1.064A1.057,1.057,0,1,1,53.453,20.7Z" transform="translate(41.052 20.457)" fill="#e8505b"/>
    <path id="Trazado_214472" data-name="Trazado 214472" d="M58.728,20.714a1.064,1.064,0,1,1-1.064-1.064,1.064,1.064,0,0,1,1.064,1.064Z" transform="translate(49.104 20.442)" fill="#e8505b"/>
    <path id="Trazado_214473" data-name="Trazado 214473" d="M61.63,22.724a1.039,1.039,0,0,1,1.039-1.064,1.064,1.064,0,0,1,1.064,1.064,1.051,1.051,0,0,1-2.1,0Z" transform="translate(56.817 23.524)" fill="#263238"/>
    <circle id="Elipse_7022" data-name="Elipse 7022" cx="1.064" cy="1.064" r="1.064" transform="translate(113.786 45.184)" fill="#263238"/>
    <path id="Trazado_214474" data-name="Trazado 214474" d="M58,22.724a1.064,1.064,0,1,1,1.064,1.064A1.064,1.064,0,0,1,58,22.724Z" transform="translate(51.251 23.524)" fill="#263238"/>
    <circle id="Elipse_7023" data-name="Elipse 7023" cx="1.064" cy="1.064" r="1.064" transform="translate(104.462 45.184)" fill="#263238"/>
    <circle id="Elipse_7024" data-name="Elipse 7024" cx="1.064" cy="1.064" r="1.064" transform="translate(68.435 45.184)" fill="#263238"/>
    <path id="Trazado_214475" data-name="Trazado 214475" d="M40,22.724a1.064,1.064,0,0,1,1.064-1.064A1.057,1.057,0,1,1,40,22.724Z" transform="translate(23.647 23.524)" fill="#263238"/>
    <path id="Trazado_214476" data-name="Trazado 214476" d="M54.28,22.724a1.064,1.064,0,0,1,1.064-1.064,1.057,1.057,0,1,1-1.064,1.064Z" transform="translate(45.546 23.524)" fill="#263238"/>
    <path id="Trazado_214477" data-name="Trazado 214477" d="M45.27,22.724a1.039,1.039,0,0,1,1.039-1.064,1.064,1.064,0,0,1,1.064,1.064,1.051,1.051,0,0,1-2.1,0Z" transform="translate(31.729 23.524)" fill="#263238"/>
    <path id="Trazado_214478" data-name="Trazado 214478" d="M52.45,22.724a1.039,1.039,0,0,1,1.039-1.064,1.064,1.064,0,0,1,1.064,1.064,1.051,1.051,0,0,1-2.1,0Z" transform="translate(42.739 23.524)" fill="#f5f5f5"/>
    <path id="Trazado_214479" data-name="Trazado 214479" d="M50.61,22.724a1.064,1.064,0,0,1,1.064-1.064,1.057,1.057,0,1,1-1.064,1.064Z" transform="translate(39.918 23.524)" fill="#f5f5f5"/>
    <path id="Trazado_214480" data-name="Trazado 214480" d="M46.89,22.724a1.039,1.039,0,0,1,1.039-1.064,1.064,1.064,0,0,1,1.064,1.064,1.051,1.051,0,0,1-2.1,0Z" transform="translate(34.213 23.524)" fill="#f5f5f5"/>
    <circle id="Elipse_7025" data-name="Elipse 7025" cx="1.064" cy="1.064" r="1.064" transform="translate(59.821 45.184)" fill="#f5f5f5"/>
    <path id="Trazado_214481" data-name="Trazado 214481" d="M48.77,22.724a1.064,1.064,0,1,1,1.064,1.064,1.064,1.064,0,0,1-1.064-1.064Z" transform="translate(37.096 23.524)" fill="#e8505b"/>
    <circle id="Elipse_7026" data-name="Elipse 7026" cx="1.064" cy="1.064" r="1.064" transform="translate(72.54 45.184)" fill="#e8505b"/>
    <circle id="Elipse_7027" data-name="Elipse 7027" cx="1.064" cy="1.064" r="1.064" transform="translate(59.821 49.694)" fill="#263238"/>
    <path id="Trazado_214482" data-name="Trazado 214482" d="M42.433,24.489a1.039,1.039,0,0,1-1.039,1.064,1.064,1.064,0,0,1-1.064-1.064,1.051,1.051,0,0,1,2.1,0Z" transform="translate(24.153 26.269)" fill="#263238"/>
    <circle id="Elipse_7028" data-name="Elipse 7028" cx="1.064" cy="1.064" r="1.064" transform="translate(69.119 49.694)" fill="#263238"/>
    <path id="Trazado_214483" data-name="Trazado 214483" d="M46.128,24.5a1.064,1.064,0,1,1-1.064-1.064A1.064,1.064,0,0,1,46.128,24.5Z" transform="translate(29.781 26.254)" fill="#263238"/>
    <path id="Trazado_214484" data-name="Trazado 214484" d="M60.333,24.489a1.039,1.039,0,0,1-1.039,1.064,1.064,1.064,0,0,1-1.064-1.064,1.051,1.051,0,0,1,2.1,0Z" transform="translate(51.603 26.269)" fill="#263238"/>
    <circle id="Elipse_7029" data-name="Elipse 7029" cx="1.064" cy="1.064" r="1.064" transform="translate(114.571 49.694)" fill="#263238"/>
    <circle id="Elipse_7030" data-name="Elipse 7030" cx="1.064" cy="1.064" r="1.064" transform="translate(78.443 49.694)" fill="#263238"/>
    <circle id="Elipse_7031" data-name="Elipse 7031" cx="1.064" cy="1.064" r="1.064" transform="translate(101.27 49.694)" fill="#263238"/>
    <path id="Trazado_214485" data-name="Trazado 214485" d="M49.783,24.489a1.064,1.064,0,0,1-1.064,1.064,1.057,1.057,0,1,1,1.064-1.064Z" transform="translate(35.424 26.269)" fill="#f5f5f5"/>
    <path id="Trazado_214486" data-name="Trazado 214486" d="M51.613,24.489a1.039,1.039,0,0,1-1.039,1.064,1.064,1.064,0,0,1-1.064-1.064,1.051,1.051,0,0,1,2.1,0Z" transform="translate(38.231 26.269)" fill="#f5f5f5"/>
    <circle id="Elipse_7032" data-name="Elipse 7032" cx="1.064" cy="1.064" r="1.064" transform="translate(97.166 49.694)" fill="#f5f5f5"/>
    <path id="Trazado_214487" data-name="Trazado 214487" d="M63.733,24.489a1.064,1.064,0,0,1-1.064,1.064,1.057,1.057,0,1,1,1.064-1.064Z" transform="translate(56.817 26.269)" fill="#f5f5f5"/>
    <circle id="Elipse_7033" data-name="Elipse 7033" cx="1.064" cy="1.064" r="1.064" transform="translate(92.377 49.694)" fill="#e8505b"/>
    <path id="Trazado_214488" data-name="Trazado 214488" d="M58.728,24.5a1.064,1.064,0,1,1-1.064-1.064A1.064,1.064,0,0,1,58.728,24.5Z" transform="translate(49.104 26.254)" fill="#e8505b"/>
    <rect id="Rectángulo_43926" data-name="Rectángulo 43926" width="93.31" height="23.156" transform="translate(32.155 63.248)" fill="#455a64"/>
    <circle id="Elipse_7034" data-name="Elipse 7034" cx="1.064" cy="1.064" r="1.064" transform="translate(59.593 68.442)" fill="#263238"/>
    <path id="Trazado_214489" data-name="Trazado 214489" d="M42.343,31.9a1.051,1.051,0,0,1-2.1,0A1.064,1.064,0,0,1,41.3,30.84,1.039,1.039,0,0,1,42.343,31.9Z" transform="translate(24.015 37.602)" fill="#263238"/>
    <circle id="Elipse_7035" data-name="Elipse 7035" cx="1.064" cy="1.064" r="1.064" transform="translate(68.891 68.442)" fill="#263238"/>
    <path id="Trazado_214490" data-name="Trazado 214490" d="M46.013,31.9a1.051,1.051,0,0,1-2.1,0,1.064,1.064,0,0,1,1.064-1.064A1.039,1.039,0,0,1,46.013,31.9Z" transform="translate(29.643 37.602)" fill="#263238"/>
    <path id="Trazado_214491" data-name="Trazado 214491" d="M60.281,32a1.064,1.064,0,1,1-.473-1.057A1.064,1.064,0,0,1,60.281,32Z" transform="translate(51.504 37.503)" fill="#263238"/>
    <circle id="Elipse_7036" data-name="Elipse 7036" cx="1.064" cy="1.064" r="1.064" transform="translate(114.343 68.442)" fill="#263238"/>
    <circle id="Elipse_7037" data-name="Elipse 7037" cx="1.064" cy="1.064" r="1.064" transform="translate(78.19 68.442)" fill="#263238"/>
    <circle id="Elipse_7038" data-name="Elipse 7038" cx="1.064" cy="1.064" r="1.064" transform="translate(101.042 68.442)" fill="#263238"/>
    <path id="Trazado_214492" data-name="Trazado 214492" d="M49.708,31.9a1.064,1.064,0,1,1-1.064-1.064A1.064,1.064,0,0,1,49.708,31.9Z" transform="translate(35.271 37.602)" fill="#f5f5f5"/>
    <circle id="Elipse_7039" data-name="Elipse 7039" cx="1.064" cy="1.064" r="1.064" transform="translate(87.513 68.442)" fill="#f5f5f5"/>
    <circle id="Elipse_7040" data-name="Elipse 7040" cx="1.064" cy="1.064" r="1.064" transform="translate(96.938 68.442)" fill="#f5f5f5"/>
    <path id="Trazado_214493" data-name="Trazado 214493" d="M63.658,31.9a1.064,1.064,0,1,1-1.064-1.064A1.064,1.064,0,0,1,63.658,31.9Z" transform="translate(56.664 37.602)" fill="#f5f5f5"/>
    <path id="Trazado_214494" data-name="Trazado 214494" d="M53.363,31.9A1.057,1.057,0,1,1,52.3,30.84,1.064,1.064,0,0,1,53.363,31.9Z" transform="translate(40.914 37.602)" fill="#e8505b"/>
    <path id="Trazado_214495" data-name="Trazado 214495" d="M58.613,31.9a1.051,1.051,0,0,1-2.1,0,1.064,1.064,0,0,1,1.064-1.064A1.039,1.039,0,0,1,58.613,31.9Z" transform="translate(48.966 37.602)" fill="#e8505b"/>
    <path id="Trazado_214496" data-name="Trazado 214496" d="M61.53,33.9a1.064,1.064,0,1,1,1.064,1.064A1.064,1.064,0,0,1,61.53,33.9Z" transform="translate(56.664 40.669)" fill="#263238"/>
    <path id="Trazado_214497" data-name="Trazado 214497" d="M59.7,33.889a1.051,1.051,0,0,1,2.1,0,1.064,1.064,0,0,1-1.064,1.064A1.039,1.039,0,0,1,59.7,33.889Z" transform="translate(53.857 40.684)" fill="#263238"/>
    <path id="Trazado_214498" data-name="Trazado 214498" d="M57.86,33.889a1.057,1.057,0,1,1,1.064,1.064,1.064,1.064,0,0,1-1.064-1.064Z" transform="translate(51.036 40.684)" fill="#263238"/>
    <path id="Trazado_214499" data-name="Trazado 214499" d="M56,33.889a1.051,1.051,0,0,1,2.1,0,1.064,1.064,0,0,1-1.064,1.064A1.039,1.039,0,0,1,56,33.889Z" transform="translate(48.183 40.684)" fill="#263238"/>
    <path id="Trazado_214500" data-name="Trazado 214500" d="M41.8,33.889a1.057,1.057,0,1,1,1.064,1.064A1.064,1.064,0,0,1,41.8,33.889Z" transform="translate(26.407 40.684)" fill="#263238"/>
    <path id="Trazado_214501" data-name="Trazado 214501" d="M39.93,33.889a1.051,1.051,0,0,1,2.1,0,1.064,1.064,0,0,1-1.064,1.064,1.039,1.039,0,0,1-1.039-1.064Z" transform="translate(23.54 40.684)" fill="#263238"/>
    <path id="Trazado_214502" data-name="Trazado 214502" d="M54.19,33.889a1.057,1.057,0,1,1,1.064,1.064,1.064,1.064,0,0,1-1.064-1.064Z" transform="translate(45.408 40.684)" fill="#263238"/>
    <path id="Trazado_214503" data-name="Trazado 214503" d="M45.17,33.9a1.064,1.064,0,1,1,1.064,1.064A1.064,1.064,0,0,1,45.17,33.9Z" transform="translate(31.575 40.669)" fill="#263238"/>
    <path id="Trazado_214504" data-name="Trazado 214504" d="M52.35,33.9a1.064,1.064,0,1,1,1.064,1.064A1.064,1.064,0,0,1,52.35,33.9Z" transform="translate(42.586 40.669)" fill="#f5f5f5"/>
    <path id="Trazado_214505" data-name="Trazado 214505" d="M50.528,33.805A1.064,1.064,0,1,1,51,34.862a1.064,1.064,0,0,1-.473-1.057Z" transform="translate(39.772 40.768)" fill="#f5f5f5"/>
    <path id="Trazado_214506" data-name="Trazado 214506" d="M46.79,33.9a1.064,1.064,0,1,1,1.064,1.064A1.064,1.064,0,0,1,46.79,33.9Z" transform="translate(34.06 40.669)" fill="#f5f5f5"/>
    <path id="Trazado_214507" data-name="Trazado 214507" d="M38.4,33.9a1.064,1.064,0,1,1,1.064,1.064A1.064,1.064,0,0,1,38.4,33.9Z" transform="translate(21.193 40.669)" fill="#f5f5f5"/>
    <path id="Trazado_214508" data-name="Trazado 214508" d="M48.68,33.9a1.064,1.064,0,1,1,1.064,1.064A1.064,1.064,0,0,1,48.68,33.9Z" transform="translate(36.958 40.669)" fill="#e8505b"/>
    <path id="Trazado_214509" data-name="Trazado 214509" d="M43.43,33.889a1.051,1.051,0,0,1,2.1,0,1.064,1.064,0,0,1-1.064,1.064,1.039,1.039,0,0,1-1.039-1.064Z" transform="translate(28.907 40.684)" fill="#e8505b"/>
    <path id="Trazado_214510" data-name="Trazado 214510" d="M40.528,35.694a1.064,1.064,0,1,1-1.064-1.064,1.064,1.064,0,0,1,1.064,1.064Z" transform="translate(21.193 43.414)" fill="#263238"/>
    <path id="Trazado_214511" data-name="Trazado 214511" d="M42.343,35.694a1.051,1.051,0,0,1-2.1,0A1.064,1.064,0,0,1,41.3,34.63a1.039,1.039,0,0,1,1.039,1.064Z" transform="translate(24.015 43.414)" fill="#263238"/>
    <path id="Trazado_214512" data-name="Trazado 214512" d="M44.183,35.694a1.057,1.057,0,1,1-1.064-1.064A1.064,1.064,0,0,1,44.183,35.694Z" transform="translate(26.837 43.414)" fill="#263238"/>
    <path id="Trazado_214513" data-name="Trazado 214513" d="M46.013,35.694a1.051,1.051,0,0,1-2.1,0,1.064,1.064,0,0,1,1.064-1.064,1.039,1.039,0,0,1,1.039,1.064Z" transform="translate(29.643 43.414)" fill="#263238"/>
    <path id="Trazado_214514" data-name="Trazado 214514" d="M60.281,35.793a1.064,1.064,0,1,1-.473-1.057,1.064,1.064,0,0,1,.473,1.057Z" transform="translate(51.504 43.315)" fill="#263238"/>
    <path id="Trazado_214515" data-name="Trazado 214515" d="M62.113,35.694a1.051,1.051,0,0,1-2.1,0,1.064,1.064,0,0,1,1.064-1.064,1.039,1.039,0,0,1,1.039,1.064Z" transform="translate(54.333 43.414)" fill="#263238"/>
    <path id="Trazado_214516" data-name="Trazado 214516" d="M47.853,35.694a1.057,1.057,0,1,1-1.064-1.064A1.064,1.064,0,0,1,47.853,35.694Z" transform="translate(32.465 43.414)" fill="#263238"/>
    <path id="Trazado_214517" data-name="Trazado 214517" d="M56.888,35.694a1.064,1.064,0,1,1-1.064-1.064,1.064,1.064,0,0,1,1.064,1.064Z" transform="translate(46.282 43.414)" fill="#263238"/>
    <path id="Trazado_214518" data-name="Trazado 214518" d="M49.708,35.694a1.064,1.064,0,1,1-1.064-1.064,1.064,1.064,0,0,1,1.064,1.064Z" transform="translate(35.271 43.414)" fill="#f5f5f5"/>
    <path id="Trazado_214519" data-name="Trazado 214519" d="M51.523,35.694a1.051,1.051,0,0,1-2.1,0,1.064,1.064,0,0,1,1.064-1.064,1.039,1.039,0,0,1,1.039,1.064Z" transform="translate(38.093 43.414)" fill="#f5f5f5"/>
    <path id="Trazado_214520" data-name="Trazado 214520" d="M55.288,35.694a1.064,1.064,0,1,1-1.064-1.064,1.064,1.064,0,0,1,1.064,1.064Z" transform="translate(43.828 43.414)" fill="#f5f5f5"/>
    <path id="Trazado_214521" data-name="Trazado 214521" d="M63.658,35.694a1.064,1.064,0,1,1-1.064-1.064,1.064,1.064,0,0,1,1.064,1.064Z" transform="translate(56.664 43.414)" fill="#f5f5f5"/>
    <path id="Trazado_214522" data-name="Trazado 214522" d="M53.363,35.694A1.057,1.057,0,1,1,52.3,34.63a1.064,1.064,0,0,1,1.064,1.064Z" transform="translate(40.914 43.414)" fill="#e8505b"/>
    <path id="Trazado_214523" data-name="Trazado 214523" d="M58.613,35.694a1.051,1.051,0,0,1-2.1,0,1.064,1.064,0,0,1,1.064-1.064,1.039,1.039,0,0,1,1.039,1.064Z" transform="translate(48.966 43.414)" fill="#e8505b"/>
    <rect id="Rectángulo_43927" data-name="Rectángulo 43927" width="18.368" height="2.838" transform="translate(36.31 68.037)" fill="#263238"/>
    <rect id="Rectángulo_43928" data-name="Rectángulo 43928" width="18.368" height="2.838" transform="translate(36.31 72.876)" fill="#263238"/>
    <rect id="Rectángulo_43929" data-name="Rectángulo 43929" width="18.368" height="2.838" transform="translate(36.31 77.918)" fill="#263238"/>
    <path id="Trazado_214524" data-name="Trazado 214524" d="M78.42,40.656l-14.01.025V17.551L78.42,17.5Z" transform="translate(61.081 17.145)" fill="#263238"/>
    <path id="Trazado_214525" data-name="Trazado 214525" d="M78.42,29.546l-14.01.025V6.441L78.42,6.39Z" transform="translate(61.081 0.107)" fill="#263238"/>
    <path id="Trazado_214526" data-name="Trazado 214526" d="M78.42,51.841l-14.01.051V28.735l14.01-.025Z" transform="translate(61.081 34.336)" fill="#263238"/>
    <rect id="Rectángulo_43930" data-name="Rectángulo 43930" width="93.31" height="23.156" transform="translate(32.839 6.32)" fill="#455a64"/>
    <rect id="Rectángulo_43931" data-name="Rectángulo 43931" width="18.368" height="2.838" transform="translate(36.969 11.083)" fill="#263238"/>
    <rect id="Rectángulo_43932" data-name="Rectángulo 43932" width="18.368" height="2.838" transform="translate(36.969 15.947)" fill="#263238"/>
    <rect id="Rectángulo_43933" data-name="Rectángulo 43933" width="18.368" height="2.838" transform="translate(36.969 20.989)" fill="#263238"/>
    <path id="Trazado_214527" data-name="Trazado 214527" d="M40.863,9.524a1.051,1.051,0,0,1-2.1,0A1.064,1.064,0,0,1,39.824,8.46a1.039,1.039,0,0,1,1.039,1.064Z" transform="translate(21.745 3.282)" fill="#263238"/>
    <circle id="Elipse_7041" data-name="Elipse 7041" cx="1.064" cy="1.064" r="1.064" transform="translate(65.142 11.742)" fill="#263238"/>
    <path id="Trazado_214528" data-name="Trazado 214528" d="M44.558,9.524A1.064,1.064,0,1,1,43.494,8.46a1.064,1.064,0,0,1,1.064,1.064Z" transform="translate(27.374 3.282)" fill="#263238"/>
    <circle id="Elipse_7042" data-name="Elipse 7042" cx="1.064" cy="1.064" r="1.064" transform="translate(74.465 11.742)" fill="#263238"/>
    <path id="Trazado_214529" data-name="Trazado 214529" d="M60.6,9.524A1.057,1.057,0,1,1,59.539,8.46,1.064,1.064,0,0,1,60.6,9.524Z" transform="translate(52.017 3.282)" fill="#263238"/>
    <circle id="Elipse_7043" data-name="Elipse 7043" cx="1.064" cy="1.064" r="1.064" transform="translate(115.23 11.742)" fill="#263238"/>
    <path id="Trazado_214530" data-name="Trazado 214530" d="M48.213,9.524A1.057,1.057,0,1,1,47.149,8.46a1.064,1.064,0,0,1,1.064,1.064Z" transform="translate(33.017 3.282)" fill="#263238"/>
    <circle id="Elipse_7044" data-name="Elipse 7044" cx="1.064" cy="1.064" r="1.064" transform="translate(101.954 11.742)" fill="#263238"/>
    <path id="Trazado_214531" data-name="Trazado 214531" d="M50.043,9.524a1.051,1.051,0,0,1-2.1,0A1.064,1.064,0,0,1,49,8.46a1.039,1.039,0,0,1,1.039,1.064Z" transform="translate(35.823 3.282)" fill="#f5f5f5"/>
    <path id="Trazado_214532" data-name="Trazado 214532" d="M51.883,9.524A1.057,1.057,0,1,1,50.819,8.46a1.064,1.064,0,0,1,1.064,1.064Z" transform="translate(38.645 3.282)" fill="#f5f5f5"/>
    <path id="Trazado_214533" data-name="Trazado 214533" d="M55.6,9.524a1.051,1.051,0,0,1-2.1,0A1.064,1.064,0,0,1,54.564,8.46,1.039,1.039,0,0,1,55.6,9.524Z" transform="translate(44.35 3.282)" fill="#f5f5f5"/>
    <path id="Trazado_214534" data-name="Trazado 214534" d="M63.993,9.524a1.051,1.051,0,0,1-2.1,0A1.064,1.064,0,0,1,62.954,8.46a1.039,1.039,0,0,1,1.039,1.064Z" transform="translate(57.216 3.282)" fill="#f5f5f5"/>
    <path id="Trazado_214535" data-name="Trazado 214535" d="M53.738,9.524A1.064,1.064,0,1,1,52.674,8.46a1.064,1.064,0,0,1,1.064,1.064Z" transform="translate(41.451 3.282)" fill="#e8505b"/>
    <circle id="Elipse_7045" data-name="Elipse 7045" cx="1.064" cy="1.064" r="1.064" transform="translate(106.388 11.742)" fill="#e8505b"/>
    <path id="Trazado_214536" data-name="Trazado 214536" d="M61.89,11.509a1.057,1.057,0,1,1,1.064,1.064,1.064,1.064,0,0,1-1.064-1.064Z" transform="translate(57.216 6.364)" fill="#263238"/>
    <path id="Trazado_214537" data-name="Trazado 214537" d="M60.06,11.509a1.051,1.051,0,0,1,2.1,0A1.064,1.064,0,0,1,61.1,12.573a1.039,1.039,0,0,1-1.039-1.064Z" transform="translate(54.409 6.364)" fill="#263238"/>
    <path id="Trazado_214538" data-name="Trazado 214538" d="M58.22,11.509a1.057,1.057,0,1,1,1.064,1.064A1.064,1.064,0,0,1,58.22,11.509Z" transform="translate(51.588 6.364)" fill="#263238"/>
    <path id="Trazado_214539" data-name="Trazado 214539" d="M56.38,11.524a1.064,1.064,0,1,1,1.064,1.064,1.064,1.064,0,0,1-1.064-1.064Z" transform="translate(48.766 6.349)" fill="#263238"/>
    <path id="Trazado_214540" data-name="Trazado 214540" d="M42.16,11.509a1.051,1.051,0,0,1,2.1,0A1.064,1.064,0,0,1,43.2,12.573a1.039,1.039,0,0,1-1.039-1.064Z" transform="translate(26.959 6.364)" fill="#263238"/>
    <path id="Trazado_214541" data-name="Trazado 214541" d="M40.29,11.509a1.051,1.051,0,0,1,2.1,0,1.064,1.064,0,0,1-1.064,1.064,1.039,1.039,0,0,1-1.039-1.064Z" transform="translate(24.092 6.364)" fill="#263238"/>
    <path id="Trazado_214542" data-name="Trazado 214542" d="M54.55,11.509a1.051,1.051,0,0,1,2.1,0,1.064,1.064,0,0,1-1.064,1.064,1.039,1.039,0,0,1-1.039-1.064Z" transform="translate(45.96 6.364)" fill="#263238"/>
    <path id="Trazado_214543" data-name="Trazado 214543" d="M45.53,11.509a1.057,1.057,0,1,1,1.064,1.064A1.064,1.064,0,0,1,45.53,11.509Z" transform="translate(32.127 6.364)" fill="#263238"/>
    <path id="Trazado_214544" data-name="Trazado 214544" d="M52.71,11.509a1.057,1.057,0,1,1,1.064,1.064,1.064,1.064,0,0,1-1.064-1.064Z" transform="translate(43.138 6.364)" fill="#f5f5f5"/>
    <path id="Trazado_214545" data-name="Trazado 214545" d="M50.88,11.509a1.051,1.051,0,0,1,2.1,0,1.064,1.064,0,0,1-1.064,1.064,1.039,1.039,0,0,1-1.039-1.064Z" transform="translate(40.332 6.364)" fill="#f5f5f5"/>
    <path id="Trazado_214546" data-name="Trazado 214546" d="M47.15,11.509a1.057,1.057,0,1,1,1.064,1.064,1.064,1.064,0,0,1-1.064-1.064Z" transform="translate(34.612 6.364)" fill="#f5f5f5"/>
    <path id="Trazado_214547" data-name="Trazado 214547" d="M38.76,11.509a1.057,1.057,0,1,1,1.064,1.064A1.064,1.064,0,0,1,38.76,11.509Z" transform="translate(21.745 6.364)" fill="#f5f5f5"/>
    <path id="Trazado_214548" data-name="Trazado 214548" d="M49,11.509a1.057,1.057,0,1,1,1.064,1.064A1.064,1.064,0,0,1,49,11.509Z" transform="translate(37.449 6.364)" fill="#e8505b"/>
    <path id="Trazado_214549" data-name="Trazado 214549" d="M43.78,11.524a1.064,1.064,0,1,1,1.064,1.064,1.064,1.064,0,0,1-1.064-1.064Z" transform="translate(29.444 6.349)" fill="#e8505b"/>
    <path id="Trazado_214550" data-name="Trazado 214550" d="M40.863,13.314a1.051,1.051,0,0,1-2.1,0,1.064,1.064,0,0,1,1.064-1.064,1.039,1.039,0,0,1,1.039,1.064Z" transform="translate(21.745 9.094)" fill="#263238"/>
    <path id="Trazado_214551" data-name="Trazado 214551" d="M42.7,13.314a1.057,1.057,0,1,1-1.064-1.064A1.064,1.064,0,0,1,42.7,13.314Z" transform="translate(24.567 9.094)" fill="#263238"/>
    <path id="Trazado_214552" data-name="Trazado 214552" d="M44.558,13.314a1.064,1.064,0,1,1-1.064-1.064,1.064,1.064,0,0,1,1.064,1.064Z" transform="translate(27.374 9.094)" fill="#263238"/>
    <path id="Trazado_214553" data-name="Trazado 214553" d="M46.373,13.314a1.051,1.051,0,0,1-2.1,0,1.064,1.064,0,0,1,1.064-1.064,1.039,1.039,0,0,1,1.039,1.064Z" transform="translate(30.195 9.094)" fill="#263238"/>
    <path id="Trazado_214554" data-name="Trazado 214554" d="M60.6,13.314a1.057,1.057,0,1,1-1.064-1.064A1.064,1.064,0,0,1,60.6,13.314Z" transform="translate(52.017 9.094)" fill="#263238"/>
    <path id="Trazado_214555" data-name="Trazado 214555" d="M62.481,13.413a1.064,1.064,0,1,1-.473-1.057,1.064,1.064,0,0,1,.473,1.057Z" transform="translate(54.877 8.995)" fill="#263238"/>
    <path id="Trazado_214556" data-name="Trazado 214556" d="M48.213,13.314a1.057,1.057,0,1,1-1.064-1.064,1.064,1.064,0,0,1,1.064,1.064Z" transform="translate(33.017 9.094)" fill="#263238"/>
    <path id="Trazado_214557" data-name="Trazado 214557" d="M57.273,13.314a1.051,1.051,0,0,1-2.1,0,1.064,1.064,0,0,1,1.064-1.064,1.039,1.039,0,0,1,1.039,1.064Z" transform="translate(46.911 9.094)" fill="#263238"/>
    <path id="Trazado_214558" data-name="Trazado 214558" d="M50.043,13.314a1.051,1.051,0,0,1-2.1,0A1.064,1.064,0,0,1,49,12.25a1.039,1.039,0,0,1,1.039,1.064Z" transform="translate(35.823 9.094)" fill="#f5f5f5"/>
    <path id="Trazado_214559" data-name="Trazado 214559" d="M51.883,13.314a1.057,1.057,0,1,1-1.064-1.064,1.064,1.064,0,0,1,1.064,1.064Z" transform="translate(38.645 9.094)" fill="#f5f5f5"/>
    <path id="Trazado_214560" data-name="Trazado 214560" d="M55.6,13.314a1.051,1.051,0,0,1-2.1,0,1.064,1.064,0,0,1,1.064-1.064A1.039,1.039,0,0,1,55.6,13.314Z" transform="translate(44.35 9.094)" fill="#f5f5f5"/>
    <path id="Trazado_214561" data-name="Trazado 214561" d="M63.993,13.314a1.051,1.051,0,0,1-2.1,0,1.064,1.064,0,0,1,1.064-1.064,1.039,1.039,0,0,1,1.039,1.064Z" transform="translate(57.216 9.094)" fill="#f5f5f5"/>
    <path id="Trazado_214562" data-name="Trazado 214562" d="M53.738,13.314a1.064,1.064,0,1,1-1.064-1.064,1.064,1.064,0,0,1,1.064,1.064Z" transform="translate(41.451 9.094)" fill="#e8505b"/>
    <path id="Trazado_214563" data-name="Trazado 214563" d="M58.973,13.314a1.051,1.051,0,0,1-2.1,0,1.064,1.064,0,0,1,1.064-1.064,1.039,1.039,0,0,1,1.039,1.064Z" transform="translate(49.518 9.094)" fill="#e8505b"/>
  </g>
</svg>
