<svg xmlns="http://www.w3.org/2000/svg" width="218.82" height="216.998" viewBox="0 0 218.82 216.998">
  <g id="ILUSTRACIONES-20" transform="translate(-6.43 -8.52)">
    <rect id="Rectángulo_44205" data-name="Rectángulo 44205" width="108.676" height="67.255" transform="translate(6.43 16.668)" fill="#fafafa"/>
    <path id="Trazado_215508" data-name="Trazado 215508" d="M81.864,48.565c-7.591-2.859-16.194,5.061-23.582,1.822-4.3-1.872-6.25-6.731-8.35-10.931s-5.744-8.6-10.4-8.122-8.5,5.845-13.056,4.58c-2.859-.835-4.3-4.023-5.061-6.908a15.637,15.637,0,0,0-3.34-8.274c-2.2-2.024-6.731-1.493-7.085,1.468V57.877H95.983a149.291,149.291,0,0,0-14.119-9.311Z" transform="translate(6.978 16.836)" fill="#ebebeb"/>
    <path id="Trazado_215509" data-name="Trazado 215509" d="M101.112,34.812s-20.6.127-46,.127-46,0-46-.127,20.6-.152,46-.152S101.112,34.736,101.112,34.812Z" transform="translate(4.101 40.002)" fill="#e0e0e0"/>
    <path id="Trazado_215510" data-name="Trazado 215510" d="M101.112,28.6s-20.6.152-46,.152-46,0-46-.152,20.6,0,46,0S101.112,28.525,101.112,28.6Z" transform="translate(4.101 30.626)" fill="#e0e0e0"/>
    <path id="Trazado_215511" data-name="Trazado 215511" d="M101.112,22.5s-20.6.127-46,.127-46,0-46-.127,20.6-.152,46-.152S101.112,22.426,101.112,22.5Z" transform="translate(4.101 21.164)" fill="#e0e0e0"/>
    <path id="Trazado_215512" data-name="Trazado 215512" d="M101.112,16.652s-20.6.127-46,.127-46,0-46-.127,20.6-.152,46-.152S101.112,16.576,101.112,16.652Z" transform="translate(4.101 12.212)" fill="#e0e0e0"/>
    <path id="Trazado_215513" data-name="Trazado 215513" d="M87.456,27.556V10.35A17.231,17.231,0,1,1,70.25,28.062Z" transform="translate(97.663 2.8)" fill="#ebebeb"/>
    <path id="Trazado_215514" data-name="Trazado 215514" d="M85.8,25.726l-17.206.38a18.066,18.066,0,0,1,4.883-12.373A17.712,17.712,0,0,1,85.543,8.52Z" transform="translate(95.123)" fill="#f5f5f5"/>
    <path id="Trazado_215515" data-name="Trazado 215515" d="M31.639,87.227V71.64A15.587,15.587,0,1,0,47.2,87.581Z" transform="translate(14.693 96.592)" fill="#ebebeb"/>
    <path id="Trazado_215516" data-name="Trazado 215516" d="M23.7,85.536l15.561.354a16.422,16.422,0,0,0-4.4-11.235A16.168,16.168,0,0,0,23.953,70Z" transform="translate(26.428 94.083)" fill="#f5f5f5"/>
    <rect id="Rectángulo_44206" data-name="Rectángulo 44206" width="7.287" height="22.747" transform="translate(140.991 68.817)" fill="#f5f5f5"/>
    <rect id="Rectángulo_44207" data-name="Rectángulo 44207" width="7.287" height="17.535" transform="translate(151.846 74.029)" fill="#f5f5f5"/>
    <rect id="Rectángulo_44208" data-name="Rectángulo 44208" width="7.287" height="10.425" transform="translate(161.917 81.139)" fill="#f5f5f5"/>
    <path id="Trazado_215517" data-name="Trazado 215517" d="M29.731,32.11l.177-1.012A21.862,21.862,0,0,1,45.216,13.563a19.231,19.231,0,0,1,3.188-.582,23.785,23.785,0,0,1,20.723,9.033c2.96,3.745,5.061,8.5,9.084,10.906,5.212,3.112,11.513,1.063,16.928-1.012s11.741-4.124,16.928-.987a16.118,16.118,0,0,1,6.478,9.413,30.186,30.186,0,0,1-7.11,28.187,41.522,41.522,0,0,1-25.708,12.12A52.352,52.352,0,0,1,46.684,70.166C35.5,61.234,28.288,46.381,29.731,32.11Z" transform="translate(35.377 6.698)" fill="#f5f5f5"/>
    <path id="Trazado_215518" data-name="Trazado 215518" d="M42.365,41.662a13.486,13.486,0,0,0-11.437-1.8c-2.53.481-6.832,5.263-6.1,9.337A10.88,10.88,0,0,0,33.585,57.1c4.5.962,9.969-.607,11.892-4.808a9.16,9.16,0,0,0-3.112-10.627Z" transform="translate(28.031 47.119)" fill="#f5f5f5"/>
    <path id="Trazado_215519" data-name="Trazado 215519" d="M73.525,10.9a13.486,13.486,0,0,0-11.437-1.8c-2.53.481-6.832,5.263-6.1,9.362a10.855,10.855,0,0,0,8.755,7.869c4.5.962,9.969-.607,11.892-4.808A9.185,9.185,0,0,0,73.525,10.9Z" transform="translate(75.715 0.047)" fill="#f5f5f5"/>
    <rect id="Rectángulo_44209" data-name="Rectángulo 44209" width="14.802" height="28.896" transform="translate(10.732 196.369)" fill="#f67409"/>
    <rect id="Rectángulo_44210" data-name="Rectángulo 44210" width="14.802" height="17.079" transform="translate(42.866 208.186)" fill="#ff725e"/>
    <g id="Grupo_145939" data-name="Grupo 145939" transform="translate(42.866 208.186)" opacity="0.79">
      <rect id="Rectángulo_44211" data-name="Rectángulo 44211" width="14.802" height="17.079" fill="#fccea9"/>
    </g>
    <path id="Trazado_215520" data-name="Trazado 215520" d="M47.432,117.522l-14.8.1V78.91h14.8Z" transform="translate(40.094 107.717)" fill="#f67409"/>
    <rect id="Rectángulo_44212" data-name="Rectángulo 44212" width="14.802" height="20.394" transform="translate(103.998 204.846)" fill="#ff725e"/>
    <g id="Grupo_145940" data-name="Grupo 145940" transform="translate(103.998 204.846)" opacity="0.79">
      <rect id="Rectángulo_44213" data-name="Rectángulo 44213" width="14.802" height="20.394" fill="#fff"/>
    </g>
    <rect id="Rectángulo_44214" data-name="Rectángulo 44214" width="14.802" height="38.612" transform="translate(134.741 186.627)" fill="#ff725e"/>
    <rect id="Rectángulo_44215" data-name="Rectángulo 44215" width="14.802" height="88.004" transform="translate(165.181 137.236)" fill="#ff725e"/>
    <g id="Grupo_145941" data-name="Grupo 145941" transform="translate(165.181 137.236)" opacity="0.79">
      <rect id="Rectángulo_44216" data-name="Rectángulo 44216" width="14.802" height="88.004" fill="#fccea9"/>
    </g>
    <path id="Trazado_215521" data-name="Trazado 215521" d="M22.922,88.19a92.637,92.637,0,0,1-7.161,7.793,91.093,91.093,0,0,1-7.591,7.363,92.631,92.631,0,0,1,7.161-7.793,96.451,96.451,0,0,1,7.591-7.363Z" transform="translate(2.663 121.919)" fill="#fff"/>
    <path id="Trazado_215522" data-name="Trazado 215522" d="M35.562,88.29A87.677,87.677,0,0,1,28.4,96.083a91.093,91.093,0,0,1-7.591,7.363,98.2,98.2,0,0,1,7.161-7.793,101.916,101.916,0,0,1,7.591-7.363Z" transform="translate(22.006 122.072)" fill="#ff725e"/>
    <path id="Trazado_215523" data-name="Trazado 215523" d="M59.752,88.19s-3.112,3.593-7.161,7.793A88.229,88.229,0,0,1,45,103.321a94.251,94.251,0,0,1,7.161-7.768A86.46,86.46,0,0,1,59.752,88.19Z" transform="translate(59.023 121.919)" fill="#ff725e"/>
    <path id="Trazado_215524" data-name="Trazado 215524" d="M22.822,82.88a100.041,100.041,0,0,1-7.161,7.895A86.458,86.458,0,0,1,8.07,98.138a97.49,97.49,0,0,1,7.161-7.793,88.231,88.231,0,0,1,7.591-7.464Z" transform="translate(2.51 113.793)" fill="#fff"/>
    <path id="Trazado_215525" data-name="Trazado 215525" d="M47.492,88.28a92,92,0,0,1-7.161,7.793,96.454,96.454,0,0,1-7.591,7.363,95.915,95.915,0,0,1,7.186-7.793,88.555,88.555,0,0,1,7.566-7.363Z" transform="translate(40.262 122.056)" fill="#fff"/>
    <path id="Trazado_215526" data-name="Trazado 215526" d="M47.412,83a87.679,87.679,0,0,1-7.161,7.591,98.682,98.682,0,0,1-7.591,7.363,87.669,87.669,0,0,1,7.161-7.793Q43.436,86.394,47.412,83Z" transform="translate(40.14 113.976)" fill="#fff"/>
    <path id="Trazado_215527" data-name="Trazado 215527" d="M42.791,78.91a40.813,40.813,0,0,1-4.858,5.415,44.659,44.659,0,0,1-5.263,5.061,44.863,44.863,0,0,1,4.858-5.415,42.762,42.762,0,0,1,5.263-5.061Z" transform="translate(40.155 107.717)" fill="#fff"/>
    <path id="Trazado_215528" data-name="Trazado 215528" d="M83.922,88.19a102.886,102.886,0,0,1-7.161,7.793,88.232,88.232,0,0,1-7.591,7.338,100.048,100.048,0,0,1,7.161-7.768,86.457,86.457,0,0,1,7.591-7.363Z" transform="translate(96.011 121.919)" fill="#ff725e"/>
    <path id="Trazado_215529" data-name="Trazado 215529" d="M83.832,82.87a92.646,92.646,0,0,1-7.161,7.92,96.458,96.458,0,0,1-7.591,7.363,92.635,92.635,0,0,1,7.161-7.793,91.1,91.1,0,0,1,7.591-7.49Z" transform="translate(95.873 113.777)" fill="#ff725e"/>
    <path id="Trazado_215530" data-name="Trazado 215530" d="M83.832,77a100.034,100.034,0,0,1-7.161,7.591,86.467,86.467,0,0,1-7.591,7.363,97.493,97.493,0,0,1,7.161-7.793A88.231,88.231,0,0,1,83.832,77Z" transform="translate(95.873 104.795)" fill="#ff725e"/>
    <path id="Trazado_215531" data-name="Trazado 215531" d="M72.052,88.19a102.9,102.9,0,0,1-7.161,7.793,88.229,88.229,0,0,1-7.591,7.338,100.065,100.065,0,0,1,7.161-7.768,86.459,86.459,0,0,1,7.591-7.363Z" transform="translate(77.846 121.919)" fill="#fff"/>
    <path id="Trazado_215532" data-name="Trazado 215532" d="M71.972,82.87a87.68,87.68,0,0,1-7.161,7.92,96.455,96.455,0,0,1-7.591,7.363,92.635,92.635,0,0,1,7.161-7.793,91.089,91.089,0,0,1,7.591-7.49Z" transform="translate(77.724 113.777)" fill="#fff"/>
    <path id="Trazado_215533" data-name="Trazado 215533" d="M67.265,78.86a44.787,44.787,0,0,1-4.808,5.415,43.015,43.015,0,0,1-5.238,5.061,44.783,44.783,0,0,1,4.808-5.364A43.017,43.017,0,0,1,67.265,78.86Z" transform="translate(77.724 107.641)" fill="#fff"/>
    <path id="Trazado_215534" data-name="Trazado 215534" d="M83.922,71.21A92.643,92.643,0,0,1,76.761,79a86.454,86.454,0,0,1-7.591,7.363,97.5,97.5,0,0,1,7.161-7.793,96.449,96.449,0,0,1,7.591-7.363Z" transform="translate(96.011 95.934)" fill="#ff725e"/>
    <path id="Trazado_215535" data-name="Trazado 215535" d="M83.922,60.56a102.886,102.886,0,0,1-7.161,7.793,88.232,88.232,0,0,1-7.591,7.338,100.049,100.049,0,0,1,7.161-7.768,86.467,86.467,0,0,1,7.591-7.363Z" transform="translate(96.011 79.637)" fill="#ff725e"/>
    <path id="Trazado_215536" data-name="Trazado 215536" d="M83.832,65.9a100.051,100.051,0,0,1-7.161,7.844,86.461,86.461,0,0,1-7.591,7.363,102.89,102.89,0,0,1,7.161-7.793A88.234,88.234,0,0,1,83.832,65.9Z" transform="translate(95.873 87.808)" fill="#ff725e"/>
    <rect id="Rectángulo_44217" data-name="Rectángulo 44217" width="13.993" height="141.089" transform="translate(197.315 84.151)" fill="#f67409"/>
    <g id="Grupo_145942" data-name="Grupo 145942" transform="translate(197.442 210.944)" opacity="0.6">
      <path id="Trazado_215537" data-name="Trazado 215537" d="M95.862,88.52a98.681,98.681,0,0,1-6.781,7.363,85.2,85.2,0,0,1-7.161,6.933A95.7,95.7,0,0,1,88.7,95.478a79.22,79.22,0,0,1,7.161-6.958Z" transform="translate(-81.92 -88.52)" fill="#fff"/>
    </g>
    <g id="Grupo_145943" data-name="Grupo 145943" transform="translate(197.265 198.216)" opacity="0.6">
      <path id="Trazado_215538" data-name="Trazado 215538" d="M95.767,83.49a80.336,80.336,0,0,1-6.756,7.363,93.886,93.886,0,0,1-7.161,6.958,84.437,84.437,0,0,1,6.756-7.363,93.883,93.883,0,0,1,7.161-6.958Z" transform="translate(-81.85 -83.49)" fill="#fff"/>
    </g>
    <g id="Grupo_145944" data-name="Grupo 145944" transform="translate(197.265 184.047)" opacity="0.6">
      <path id="Trazado_215539" data-name="Trazado 215539" d="M95.767,77.89a80.337,80.337,0,0,1-6.756,7.363,93.877,93.877,0,0,1-7.161,6.958,84.438,84.438,0,0,1,6.756-7.363,93.868,93.868,0,0,1,7.161-6.958Z" transform="translate(-81.85 -77.89)" fill="#fff"/>
    </g>
    <g id="Grupo_145945" data-name="Grupo 145945" transform="translate(197.442 170.358)" opacity="0.6">
      <path id="Trazado_215540" data-name="Trazado 215540" d="M95.862,72.48a98.687,98.687,0,0,1-6.781,7.363,85.2,85.2,0,0,1-7.161,6.933A95.7,95.7,0,0,1,88.7,79.438,79.223,79.223,0,0,1,95.862,72.48Z" transform="translate(-81.92 -72.48)" fill="#fff"/>
    </g>
    <g id="Grupo_145946" data-name="Grupo 145946" transform="translate(197.265 157.63)" opacity="0.6">
      <path id="Trazado_215541" data-name="Trazado 215541" d="M95.767,67.45a80.341,80.341,0,0,1-6.756,7.363,93.875,93.875,0,0,1-7.161,6.958,84.432,84.432,0,0,1,6.756-7.363,93.883,93.883,0,0,1,7.161-6.958Z" transform="translate(-81.85 -67.45)" fill="#fff"/>
    </g>
    <g id="Grupo_145947" data-name="Grupo 145947" transform="translate(197.265 143.461)" opacity="0.6">
      <path id="Trazado_215542" data-name="Trazado 215542" d="M95.767,61.85a80.336,80.336,0,0,1-6.756,7.363,93.858,93.858,0,0,1-7.161,6.958,84.437,84.437,0,0,1,6.756-7.363,93.878,93.878,0,0,1,7.161-6.958Z" transform="translate(-81.85 -61.85)" fill="#fff"/>
    </g>
    <g id="Grupo_145948" data-name="Grupo 145948" transform="translate(197.265 126.837)" opacity="0.6">
      <path id="Trazado_215543" data-name="Trazado 215543" d="M95.767,55.28a84.435,84.435,0,0,1-6.756,7.363A93.868,93.868,0,0,1,81.85,69.6a80.342,80.342,0,0,1,6.756-7.439,93.875,93.875,0,0,1,7.161-6.882Z" transform="translate(-81.85 -55.28)" fill="#fff"/>
    </g>
    <g id="Grupo_145949" data-name="Grupo 145949" transform="translate(197.442 109.428)" opacity="0.6">
      <path id="Trazado_215544" data-name="Trazado 215544" d="M95.862,48.4a93.085,93.085,0,0,1-6.781,7.363,93.874,93.874,0,0,1-7.161,6.958A88.164,88.164,0,0,1,88.7,55.358,83.705,83.705,0,0,1,95.862,48.4Z" transform="translate(-81.92 -48.4)" fill="#fff"/>
    </g>
    <g id="Grupo_145950" data-name="Grupo 145950" transform="translate(197.265 92.323)" opacity="0.6">
      <path id="Trazado_215545" data-name="Trazado 215545" d="M95.767,41.64A84.437,84.437,0,0,1,89.011,49a93.875,93.875,0,0,1-7.161,6.958A80.337,80.337,0,0,1,88.606,48.6,93.876,93.876,0,0,1,95.767,41.64Z" transform="translate(-81.85 -41.64)" fill="#fff"/>
    </g>
    <g id="Grupo_145951" data-name="Grupo 145951" transform="translate(197.265 83.897)" opacity="0.6">
      <path id="Trazado_215546" data-name="Trazado 215546" d="M90.175,38.31a32.035,32.035,0,0,1-3.973,4.5,34.235,34.235,0,0,1-4.352,4.074,29.327,29.327,0,0,1,3.973-4.479,31.68,31.68,0,0,1,4.352-4.1Z" transform="translate(-81.85 -38.31)" fill="#fff"/>
    </g>
    <path id="Trazado_215547" data-name="Trazado 215547" d="M222.158,42.322a6.278,6.278,0,0,1-.633-.43l-.759-.531-1.088-.683a37.65,37.65,0,0,0-7.591-3.72,34.869,34.869,0,0,0-5.971-1.493,27.833,27.833,0,0,0-7.287-.152,29.579,29.579,0,0,0-15.941,7.363,48.357,48.357,0,0,0-7.034,7.591c-2.125,2.91-4.251,6.047-6.427,9.261-4.377,6.452-8.856,13.461-13.512,20.875s-9.489,15.182-14.676,23.228c-2.53,4-5.238,8.072-8.021,12.12-1.417,2.024-2.733,4.124-4.074,6.225s-2.733,4.2-4.15,6.3a125.1,125.1,0,0,1-8.983,11.968,45.846,45.846,0,0,1-5.212,5.187,18.446,18.446,0,0,1-3.011,2.024,8.1,8.1,0,0,1-3.466,1.037,9.64,9.64,0,0,1-3.467-1.012c-1.063-.481-2.1-1.063-3.112-1.645-2.024-1.189-3.947-2.53-5.845-3.77-3.77-2.53-7.313-5.39-10.754-8.122-1.7-1.366-3.391-2.733-5.061-4.1s-3.264-2.707-4.934-4q-4.808-3.9-9.539-7.439a31.7,31.7,0,0,0-9.893-5.061,22.773,22.773,0,0,0-10.248-.38,28.82,28.82,0,0,0-8.73,3.492,41.4,41.4,0,0,0-6.705,5.061c-3.871,3.568-7.135,6.705-9.792,9.286s-4.706,4.605-6.073,6L8.6,138.372l-.531.531.506-.557,1.569-1.594c1.341-1.392,3.365-3.441,6.022-6.022s5.9-5.744,9.767-9.311a43.37,43.37,0,0,1,6.731-5.061,28.112,28.112,0,0,1,8.755-3.517,22.772,22.772,0,0,1,10.349.354,32.413,32.413,0,0,1,9.969,5.061c3.188,2.277,6.351,4.732,9.59,7.338,1.645,1.29,3.264,2.53,4.883,4s3.34,2.733,5.061,4.1c3.441,2.733,6.984,5.465,10.754,8.072,1.872,1.316,3.8,2.53,5.82,3.77a28.06,28.06,0,0,0,3.112,1.645,9.235,9.235,0,0,0,3.34.987,7.591,7.591,0,0,0,3.34-1.012,16.876,16.876,0,0,0,2.96-2,41.648,41.648,0,0,0,5.187-5.061,130.207,130.207,0,0,0,8.983-11.943c1.392-2.1,2.783-4.2,4.124-6.3s2.682-4.2,4.074-6.225c2.783-4.048,5.44-8.1,8.046-12.095,5.061-8,9.995-15.814,14.676-23.228s9.16-14.423,13.537-20.875c2.2-3.213,4.3-6.326,6.452-9.261a47.494,47.494,0,0,1,7.06-7.591A29.934,29.934,0,0,1,198.8,35.211a29.023,29.023,0,0,1,7.313.177,32.54,32.54,0,0,1,5.971,1.543,37.119,37.119,0,0,1,7.591,3.745l1.063.708.759.557Z" transform="translate(2.51 40.614)" fill="#fece10"/>
    <path id="Trazado_215548" data-name="Trazado 215548" d="M27.619,67.9a2.91,2.91,0,1,1-2.783-2.986A2.96,2.96,0,0,1,27.619,67.9Z" transform="translate(23.521 86.292)" fill="#fece10"/>
    <path id="Trazado_215549" data-name="Trazado 215549" d="M26.4,74.654a5.339,5.339,0,1,1,5.061-5.339A5.339,5.339,0,0,1,26.4,74.654Zm0-10.121A4.858,4.858,0,1,0,31.1,69.391,4.782,4.782,0,0,0,26.4,64.456Z" transform="translate(21.96 84.874)" fill="#fece10"/>
    <path id="Trazado_215550" data-name="Trazado 215550" d="M89.429,36.866a2.91,2.91,0,1,1-2.91-2.986,2.96,2.96,0,0,1,2.91,2.986Z" transform="translate(118.109 38.808)" fill="#fece10"/>
    <path id="Trazado_215551" data-name="Trazado 215551" d="M88.066,43.627a5.339,5.339,0,1,1,5.212-5.339,5.339,5.339,0,0,1-5.212,5.339Zm0-10.121a4.833,4.833,0,1,0,4.706,4.833,4.782,4.782,0,0,0-4.706-4.883Z" transform="translate(116.562 37.386)" fill="#fece10"/>
    <path id="Trazado_215552" data-name="Trazado 215552" d="M8.89,48.33V74.316H40.949l5.9,8.249V74.316H53.8V48.33Z" transform="translate(3.765 60.921)" fill="#fafafa"/>
    <path id="Trazado_215553" data-name="Trazado 215553" d="M8.951,48.33H53.99V74.443H47.032v8.476L46.8,82.59c-2.024-2.809-4-5.567-5.9-8.249H8.85v-.025H40.985l5.9,8.249h-.228V74.19h7.085l-.127.127V48.457H8.951Z" transform="translate(3.703 60.921)" fill="#263238"/>
    <path id="Trazado_215554" data-name="Trazado 215554" d="M40.443,52.45H26.324C34.143,52.45,40.443,52.374,40.443,52.45Z" transform="translate(8.799 67.175)" fill="#263238"/>
    <path id="Trazado_215555" data-name="Trazado 215555" d="M40.443,54.731s-6.326.152-14.119.152-14.144,0-14.144-.152,6.326,0,14.144,0S40.443,54.68,40.443,54.731Z" transform="translate(8.799 70.613)" fill="#263238"/>
    <path id="Trazado_215556" data-name="Trazado 215556" d="M117.854,19.39H76.61V42.8h6.807l-.506.1,5.845,7.439-.38-7.54h29.478Z" transform="translate(107.396 16.634)" fill="#fafafa"/>
    <path id="Trazado_215557" data-name="Trazado 215557" d="M117.93,19.528V42.933H88.452v-.127c0,2.378.253,4.934.38,7.591v.4l-.253-.329-5.845-7.439v-.177h.708v.253H76.56V19.427h.127V42.579h6.806v.253h-.506v-.2l5.845,7.439H88.6c0-2.53-.253-5.061-.38-7.591v-.127h29.6V19.376q.053.074.1.152Z" transform="translate(107.32 16.497)" fill="#263238"/>
    <path id="Trazado_215558" data-name="Trazado 215558" d="M79.67,23.232s5.769-.152,12.879-.152,12.854,0,12.854.152-5.769.127-12.854.127S79.67,23.282,79.67,23.232Z" transform="translate(112.079 22.281)" fill="#263238"/>
    <path id="Trazado_215559" data-name="Trazado 215559" d="M79.67,25.2s5.769-.127,12.879-.127,12.854,0,12.854.127-5.769.127-12.854.127S79.67,25.272,79.67,25.2Z" transform="translate(112.079 25.326)" fill="#263238"/>
    <path id="Trazado_215560" data-name="Trazado 215560" d="M60.2,53.966a22.444,22.444,0,1,0-5.314,5.9L65.012,62.24h0Z" transform="translate(18.769 17.078)" fill="#fff"/>
    <path id="Trazado_215561" data-name="Trazado 215561" d="M54.759,59.561h-.152a22.014,22.014,0,0,1-10.551,4.377,19.534,19.534,0,0,1-3.467.177H38.768l-1.872-.43A21.871,21.871,0,0,1,19.841,36.738,21.76,21.76,0,0,1,24.5,27.831a22.064,22.064,0,0,1,8.4-6,22.292,22.292,0,0,1,9.792-1.518,21.482,21.482,0,0,1,8.983,2.657,22.292,22.292,0,0,1,10.4,12.651,23.2,23.2,0,0,1,.987,7.135,21.811,21.811,0,0,1-3.213,10.906h0l4.883,8.325-4.605-8.274A22.014,22.014,0,0,0,63.413,42.76a24.418,24.418,0,0,0-.962-7.211,22.342,22.342,0,0,0-3.77-7.186,22.773,22.773,0,0,0-6.756-5.769,21.583,21.583,0,0,0-9.109-2.682A22.165,22.165,0,0,0,24.32,27.5a21.735,21.735,0,0,0-4.757,9.134,22.2,22.2,0,0,0,17.459,27.3l1.872.278h1.847a17.711,17.711,0,0,0,3.492-.177,22.14,22.14,0,0,0,10.374-4.327L64.729,61.99Z" transform="translate(19.052 17.328)" fill="#263238"/>
    <path id="Trazado_215562" data-name="Trazado 215562" d="M27.012,26.473l.633,10.121a1.645,1.645,0,0,0,1.518,1.518h0a1.594,1.594,0,0,0,1.7-1.442l1.113-10.121a1.29,1.29,0,0,0-1.417-1.543h-2.53A1.265,1.265,0,0,0,27.012,26.473Z" transform="translate(31.466 25.214)" fill="#f67409"/>
    <path id="Trazado_215563" data-name="Trazado 215563" d="M31.838,34.313a2.53,2.53,0,1,1-1.543-3.087A2.53,2.53,0,0,1,31.838,34.313Z" transform="translate(31.296 34.504)" fill="#f67409"/>
    <path id="Trazado_215564" data-name="Trazado 215564" d="M91.972,65.8l1.974,5.567s9.16,8.4,10.5,19.66,1.366,13.714,1.366,13.714l-2.834,32.894H41.948s-2.024-26.517-1.265-34.032a53.364,53.364,0,0,1,5.061-15.991l4.681-11.184.152-5.668Z" transform="translate(52.157 87.655)" fill="#263238"/>
    <path id="Trazado_215565" data-name="Trazado 215565" d="M87.421,68.24h-.43l-1.24.2L81.2,69.2c-3.821.607-9.134,1.417-15.03,2.252s-11.209,1.468-15.182,1.872l-4.605.4h0l4.58-.506c3.871-.43,9.21-1.113,15.182-1.923l15.03-2.176,4.58-.683,1.24-.152Z" transform="translate(58.58 91.389)" fill="#455a64"/>
    <path id="Trazado_215566" data-name="Trazado 215566" d="M53.164,76.09a1.948,1.948,0,0,1-.2.557c-.177.329-.4.835-.734,1.442a41.9,41.9,0,0,1-2.834,4.5,43.291,43.291,0,0,1-3.365,4.124c-.455.481-.86.886-1.139,1.139a2.023,2.023,0,0,1-.43.38,2.53,2.53,0,0,1,.38-.455L45.9,86.591c.886-1.037,2.075-2.53,3.289-4.15a46.914,46.914,0,0,0,2.885-4.453l.784-1.392a5.182,5.182,0,0,1,.3-.506Z" transform="translate(58.197 103.402)" fill="#455a64"/>
    <path id="Trazado_215567" data-name="Trazado 215567" d="M82.237,43.958s1.24,21.027,1.619,23.405a9.463,9.463,0,0,1-1.619,5.39,8.527,8.527,0,0,1-7.768-5.263l-2-4.5a28.694,28.694,0,0,0,1.113-11.892C72.85,44.312,72.47,41.2,72.47,41.2Z" transform="translate(101.061 50.01)" fill="#ffbe9d"/>
    <path id="Trazado_215568" data-name="Trazado 215568" d="M80.48,36.5c.531,5.061.481,9.463-2.024,10.374-.228,0-1.9.127-2.125.152-2.859.3-5.693-3.9-6.275-9.387S71.3,27.517,74.18,27.112a19.179,19.179,0,0,1,2.075-.2C78.836,27.365,79.924,31.515,80.48,36.5Z" transform="translate(97.2 28.142)" fill="#455a64"/>
    <path id="Trazado_215569" data-name="Trazado 215569" d="M85.014,42.671a2.53,2.53,0,0,1,1.847,2.834,47.621,47.621,0,0,1-1.721,5.643l-2.53,2.91-9.742-2.986a6.073,6.073,0,0,1-.658-2.859V42.671a9.312,9.312,0,0,0,1.721-3.618c.329-1.645.557-3.568.607-4.15a.2.2,0,0,1,.228-.152,2.53,2.53,0,0,1,1.847,1.7,4.479,4.479,0,0,1,.38,2.024Z" transform="translate(100.662 40.138)" fill="#ffbe9d"/>
    <path id="Trazado_215570" data-name="Trazado 215570" d="M75.979,36.516,74.612,34.34,73.17,35.453l2.657,5.238.708-2.2Z" transform="translate(102.132 39.512)" fill="#455a64"/>
    <path id="Trazado_215571" data-name="Trazado 215571" d="M75.812,36.084s1.468-2.252,2.859-1.164,1.063,1.7,0,3.669c0,0,2.707-.38,2.075,2.53,0,0,2.682-.531,2.53,1.771,0,0,2.2,1.847,1.24,3.213s-4.605,4.048-5.617,3.745-1.139-1.721-1.139-1.721a3.922,3.922,0,0,1-1.594-1.012c-.354-.582.126-1.493.126-1.493L75.1,44.434c-.253-.253,0-1.594,0-1.594l1.442-1.645s-2.075,1.113-2.53.81S73,41.4,73.434,40.714a23.1,23.1,0,0,1,2-2.277Z" transform="translate(102.299 39.945)" fill="#ffbe9d"/>
    <path id="Trazado_215572" data-name="Trazado 215572" d="M75.18,43.26a6.451,6.451,0,0,1,.633-.911,8.147,8.147,0,0,1,1.847-2,24.139,24.139,0,0,0,2.1-1.619c.481-.481.658-.86.708-.86a2,2,0,0,1-.582.987,13.107,13.107,0,0,1-2.075,1.7,9.108,9.108,0,0,0-1.847,1.9A4.252,4.252,0,0,1,75.18,43.26Z" transform="translate(105.208 44.914)" fill="#eb996e"/>
    <path id="Trazado_215573" data-name="Trazado 215573" d="M74.51,42.07a17.028,17.028,0,0,1,2.024-2.53c.582-.683,1.088-1.341,1.543-1.771s.759-.582.784-.557-.278.253-.658.683-.886,1.113-1.468,1.8A28.011,28.011,0,0,1,74.51,42.07Z" transform="translate(104.182 43.903)" fill="#eb996e"/>
    <path id="Trazado_215574" data-name="Trazado 215574" d="M74.55,38.873a9.791,9.791,0,0,1,1.139-1.316A13.84,13.84,0,0,0,76.7,36.14a2.53,2.53,0,0,1-.81,1.594,4.554,4.554,0,0,1-1.341,1.139Z" transform="translate(104.244 42.267)" fill="#eb996e"/>
    <path id="Trazado_215575" data-name="Trazado 215575" d="M73,38.3a2.049,2.049,0,0,1,.886.354,5.061,5.061,0,0,1,1.569,1.7,9.21,9.21,0,0,1,.911,2.1c.177.582.253.936.2.936a5.821,5.821,0,0,1-.278-.784,14.9,14.9,0,0,0-.936-2.05,5.8,5.8,0,0,0-1.468-1.67A4.629,4.629,0,0,0,73,38.3Z" transform="translate(101.872 45.572)" fill="#eb996e"/>
    <ellipse id="Elipse_7081" data-name="Elipse 7081" cx="4.479" cy="10.02" rx="4.479" ry="10.02" transform="translate(168.829 55.526) rotate(-6.18)" fill="#263238"/>
    <path id="Trazado_215576" data-name="Trazado 215576" d="M75.806,46.584c2.277-1.164,3.669-5.39,3.138-10.248S76.135,27.683,73.605,27c-1.948,1.113-3.036,5.314-2.53,10.121S73.605,45.876,75.806,46.584Z" transform="translate(98.736 28.28)" fill="#e0e0e0"/>
    <path id="Trazado_215577" data-name="Trazado 215577" d="M73.258,38.878a41.762,41.762,0,0,1-.4-4.706A36.615,36.615,0,0,1,72.7,29.44s.253,2.1.4,4.706A43.021,43.021,0,0,1,73.258,38.878Z" transform="translate(101.386 32.014)" fill="#fff"/>
    <path id="Trazado_215578" data-name="Trazado 215578" d="M72.924,37.388a4.377,4.377,0,0,1-.253-1.316,29.124,29.124,0,0,1-.3-3.188V29.646a7.391,7.391,0,0,1,0-1.316,6.375,6.375,0,0,1,0,1.316v3.213c0,1.24.152,2.378.228,3.213a8.374,8.374,0,0,1,.329,1.316Z" transform="translate(100.859 30.315)" fill="#fff"/>
    <path id="Trazado_215579" data-name="Trazado 215579" d="M75.911,36.259a.706.706,0,0,1,0,.152v.455l-.278,1.746h0l-.962,1.037a9.54,9.54,0,0,0-1.063,1.341.607.607,0,0,0,0,.4.658.658,0,0,0,.253.354l.4.278a.683.683,0,0,0,.455,0,8.147,8.147,0,0,0,2.05-.835l.481-.253-.354.4-1.7,1.746h0a2.049,2.049,0,0,0,0,1.594,4.6,4.6,0,0,0,1.341,1.164h.127c-.3.43-.506,1.088,0,1.442a6.3,6.3,0,0,0,1.569.886h0v.43a2.7,2.7,0,0,0,.177.481,1.29,1.29,0,0,0,.329.4,1.012,1.012,0,0,0,.4.2,2.531,2.531,0,0,0,1.012-.3,6.124,6.124,0,0,0,.987-.531c.607-.4,1.189-.81,1.746-1.265a11.311,11.311,0,0,0,1.468-1.442,1.24,1.24,0,0,0,.354-.86,1.872,1.872,0,0,0-.253-.886,5.212,5.212,0,0,0-1.189-1.468h0a2.05,2.05,0,0,0-.177-.886,1.189,1.189,0,0,0-.607-.607,2.986,2.986,0,0,0-1.7-.177h-.152v-.683a3.391,3.391,0,0,0,0-.506,1.468,1.468,0,0,0-.354-.86,2.125,2.125,0,0,0-1.67-.506h-.2v-.152c.278-.531.557-1.012.759-1.518a2.378,2.378,0,0,0,.152-.708,1.189,1.189,0,0,0-.2-.658,2.985,2.985,0,0,0-.936-.86,1.29,1.29,0,0,0-1.012,0,3.593,3.593,0,0,0-1.215.911l-.253.3h0v-.127a1.948,1.948,0,0,1,.253-.3,2.53,2.53,0,0,1,.455-.481,2.3,2.3,0,0,1,.734-.481,1.29,1.29,0,0,1,1.139,0l.278.152.253.2a3.136,3.136,0,0,1,.455.531,1.215,1.215,0,0,1,.253.734,2.2,2.2,0,0,1-.177.784c-.2.506-.481,1.012-.759,1.543v-.152a3.112,3.112,0,0,1,.962,0,1.771,1.771,0,0,1,.886.506,1.645,1.645,0,0,1,.4.962,4.3,4.3,0,0,1,0,.557v.531h0a3.213,3.213,0,0,1,1.872.2,1.468,1.468,0,0,1,.709.708,2.2,2.2,0,0,1,.177.987h0a5.82,5.82,0,0,1,1.265,1.543,2.353,2.353,0,0,1,.278,1.037,1.975,1.975,0,0,1,0,.531,2.049,2.049,0,0,1-.3.455,9.415,9.415,0,0,1-1.518,1.493,17.01,17.01,0,0,1-1.746,1.265c-.329.2-.658.4-1.012.582a2.808,2.808,0,0,1-1.139.3,1.265,1.265,0,0,1-.962-.734,4.556,4.556,0,0,1-.2-.531,1.263,1.263,0,0,0,0-.3V48.4h.177v.228h-.177a6.275,6.275,0,0,1-1.645-.936,1.316,1.316,0,0,1-.3-.4,1.113,1.113,0,0,1,0-.506,2,2,0,0,1,.354-.86V46.1a4.731,4.731,0,0,1-1.417-1.24,1.67,1.67,0,0,1-.2-.911,2.707,2.707,0,0,1,.152-.886h0l1.442-1.645v.152a7.135,7.135,0,0,1-2.125.835.784.784,0,0,1-.582,0l-.43-.3a.708.708,0,0,1-.177-.962,10.756,10.756,0,0,1,1.088-1.366c.38-.38.708-.734,1.012-1.012h0l.354-1.746v-.43A1.757,1.757,0,0,1,75.911,36.259Z" transform="translate(102.2 39.769)" fill="#eb996e"/>
    <path id="Trazado_215580" data-name="Trazado 215580" d="M59.073,86.1,40.121,62.64S30.152,71.142,30,71.37A151.211,151.211,0,0,0,55.961,93.181l3.213-2.125Z" transform="translate(36.069 82.82)" fill="#ffbe9d"/>
    <path id="Trazado_215581" data-name="Trazado 215581" d="M59.635,69.256a31.73,31.73,0,0,0-6.5-.531L48.5,71.963a22.164,22.164,0,0,1-1.822,2.53s-1.316,1.569-2.353,1.721a4.705,4.705,0,0,1-1.645,0L40,83.375s2.05,2.125,3.289,1.974a61.5,61.5,0,0,0,7.92-3.846l1.645-.557s6.452.228,6.756-1.721v-.557l-6.351-.531-2.353.38L55,77.024s5.971-.329,6.5-.506,1.189-1.012.962-1.468L61.2,74.873s1.366-.936,1.316-1.8l-5.643-.886S60.242,70.445,59.635,69.256Z" transform="translate(51.372 92.119)" fill="#ffbe9d"/>
    <path id="Trazado_215582" data-name="Trazado 215582" d="M56.169,71.831a2.53,2.53,0,0,1-.531,0l-1.392-.253c-1.189-.177-2.834-.38-4.63-.582h-.658a1.544,1.544,0,0,0-.607,0l-1.139.506c-.708.329-1.341.658-1.847.936a13.9,13.9,0,0,0-1.215.759l-.43.3a1.494,1.494,0,0,1,.38-.38,7.846,7.846,0,0,1,1.164-.835,19.608,19.608,0,0,1,1.847-1.012c.38-.177.734-.354,1.139-.506a2.176,2.176,0,0,1,.683-.127,3.214,3.214,0,0,1,.708,0c1.822.2,3.467.43,4.63.658a11.182,11.182,0,0,1,1.392.3Z" transform="translate(57.065 95.035)" fill="#eb996e"/>
    <path id="Trazado_215583" data-name="Trazado 215583" d="M51.351,70.546a11.158,11.158,0,0,0-1.215-.3,6.959,6.959,0,0,0-2.96,0,7.16,7.16,0,0,0-2.53,1.366c-.607.506-.886.886-.936.86a2.935,2.935,0,0,1,.81-.987,5.972,5.972,0,0,1,2.606-1.366,6.2,6.2,0,0,1,3.062,0A3.062,3.062,0,0,1,51.351,70.546Z" transform="translate(57.049 93.966)" fill="#eb996e"/>
    <path id="Trazado_215584" data-name="Trazado 215584" d="M102.694,65.832a9.869,9.869,0,0,1,1.139,4.023,23.178,23.178,0,0,1-1.139,5.364l-1.417,1.366s.911,4.276-4.5,5.491S61.045,65.882,61.045,65.882L60.21,42.73A26.341,26.341,0,0,1,67.8,47.791c3.188,3.188,21.28,16.5,21.28,16.5s.734-4.732,1.543-4.4S102.694,65.832,102.694,65.832Z" transform="translate(82.299 52.351)" fill="#e0e0e0"/>
    <path id="Trazado_215585" data-name="Trazado 215585" d="M94.081,47.6,77.684,44.1l-4.352-4.377L54.456,39.55,52.2,43.674,38.06,52.252S41.7,75.809,42.969,78.643s11.614,32.894,11.614,32.894L95.7,106.628l.4-18.977,1.189-9.185a27.277,27.277,0,0,0,0-5.921C96.611,63.942,94.081,47.6,94.081,47.6Z" transform="translate(48.403 47.485)" fill="#e0e0e0"/>
    <path id="Trazado_215586" data-name="Trazado 215586" d="M50.352,95.939,36.866,105.2,32.21,98.47l1.24-1.113s-6.958-5.744-6.528-9.792,7.819-14.5,7.819-14.5,15.738-25.733,20.6-28.491c.683-.38,6.6,13.891,6.6,19.509S60.8,69.675,60.8,69.675a44.1,44.1,0,0,0-7.11,8.881,34.108,34.108,0,0,1-8.552,10.45Z" transform="translate(31.329 55.163)" fill="#e0e0e0"/>
    <path id="Trazado_215587" data-name="Trazado 215587" d="M31.13,60.8h.354a7.593,7.593,0,0,1,.987,0,9.666,9.666,0,0,1,3.138.962,9.868,9.868,0,0,1,2.657,1.9,4.706,4.706,0,0,1,.86,1.037,15.537,15.537,0,0,0-3.618-2.707,12.246,12.246,0,0,0-3.062-1.012A9.716,9.716,0,0,1,31.13,60.8Z" transform="translate(37.798 79.979)" fill="#263238"/>
    <path id="Trazado_215588" data-name="Trazado 215588" d="M32.751,59a3.518,3.518,0,0,1,1.012.835,9.64,9.64,0,0,1,1.746,2.657,9.261,9.261,0,0,1,.734,3.087,4.074,4.074,0,0,1,0,1.316s0-.481,0-1.29a11.311,11.311,0,0,0-.81-2.986,10.754,10.754,0,0,0-1.619-2.53C33.1,59.354,32.725,59,32.751,59Z" transform="translate(40.277 77.249)" fill="#263238"/>
    <path id="Trazado_215589" data-name="Trazado 215589" d="M56.955,53.21a2.126,2.126,0,0,1,.126.683,3.669,3.669,0,0,1,0,.81c0,.3,0,.683,0,1.063a12.654,12.654,0,0,1,0,1.316,4.46,4.46,0,0,1-.177,1.493,20.394,20.394,0,0,1-.936,3.289,17.359,17.359,0,0,1-1.594,3.062,11.435,11.435,0,0,1-.86,1.215,8.579,8.579,0,0,1-.86.987,7.138,7.138,0,0,1-.759.759l-.607.557c-.354.278-.531.43-.557.4s.759-.658,1.8-1.847a12.145,12.145,0,0,0,.81-.987c.278-.354.557-.784.835-1.215a19.687,19.687,0,0,0,1.543-3.011,20.876,20.876,0,0,0,.936-3.264,12.735,12.735,0,0,1,.228-1.468,11.708,11.708,0,0,0,0-1.29A21.5,21.5,0,0,0,56.955,53.21Z" transform="translate(67.792 68.389)" fill="#263238"/>
    <path id="Trazado_215590" data-name="Trazado 215590" d="M66.787,62.586l-.3-.253-.911-.708c-.784-.607-1.948-1.468-3.416-2.53s-3.239-2.2-5.212-3.517a65.283,65.283,0,0,1-6.25-4.656h.177a10.632,10.632,0,0,0-.607.962,14.144,14.144,0,0,0-1.721,4.555v.4l-.177-.38a63.562,63.562,0,0,1-3.821-10.754c-.329-1.392-.557-2.53-.683-3.289a1.51,1.51,0,0,0-.152-.886c-.152-.2,0-.3,0-.3v.3l.177.886c.152.759.4,1.872.759,3.264a69.331,69.331,0,0,0,3.77,10.83h-.228a14.018,14.018,0,0,1,1.746-4.63,9.437,9.437,0,0,1,.633-.987h0A61.891,61.891,0,0,0,57.2,55.425c1.948,1.341,3.745,2.53,5.061,3.568s2.53,1.923,3.391,2.53c.38.3.658.582.86.759Z" transform="translate(56.947 50.056)" fill="#263238"/>
    <path id="Trazado_215591" data-name="Trazado 215591" d="M55.143,41.35l.127.2.354.633c.3.531.734,1.341,1.215,2.353a40.231,40.231,0,0,1,3.036,8.578v.329l-.2-.329a24.036,24.036,0,0,1-2.378-2.2c-.455-.531-.86-1.037-1.265-1.569h.228c-.152,2.885-.3,5.516-.43,7.591h0L53.65,60.859l-.633,1.063a1.766,1.766,0,0,1-.228.38,3.465,3.465,0,0,1,.177-.4l.582-1.088,2.1-3.947h0l.38-7.591v-.354l.228.3c.38.506.784,1.037,1.24,1.543a17.259,17.259,0,0,0,2.353,2.176l-.2.177a44.1,44.1,0,0,0-2.96-8.476c-.455-1.037-.86-1.847-1.139-2.53l-.3-.633C55.168,41.426,55.118,41.35,55.143,41.35Z" transform="translate(70.944 50.24)" fill="#263238"/>
    <path id="Trazado_215592" data-name="Trazado 215592" d="M62.619,63.712s-.506-3.973-.987-8.856S60.873,46,60.924,46s.506,3.947.987,8.856S62.695,63.712,62.619,63.712Z" transform="translate(83.382 57.355)" fill="#263238"/>
    <path id="Trazado_215593" data-name="Trazado 215593" d="M75.477,58.322a4.176,4.176,0,0,1-.886-.835,12.981,12.981,0,0,1-1.67-2.53,12.8,12.8,0,0,1-1.113-2.707,4.149,4.149,0,0,1-.228-1.189,27.833,27.833,0,0,0,1.569,3.77,24.136,24.136,0,0,0,2.328,3.492Z" transform="translate(99.699 65.099)" fill="#263238"/>
    <path id="Trazado_215594" data-name="Trazado 215594" d="M73.241,59.623l-.253-.3a5.289,5.289,0,0,1-.531-.86,8.781,8.781,0,0,1-.962-3.213,8.578,8.578,0,0,1,.278-3.365,5.643,5.643,0,0,1,.354-.962.377.377,0,0,1,.177-.329c.025,0-.177.506-.354,1.341a10.121,10.121,0,0,0,.658,6.452A4.8,4.8,0,0,0,73.241,59.623Z" transform="translate(99.48 64.38)" fill="#263238"/>
    <path id="Trazado_215595" data-name="Trazado 215595" d="M37.85,50.28l.278.506.658,1.392,2.2,4.605,2.125,4.656c.253.607.455,1.088.582,1.442a2.024,2.024,0,0,1,.177.531s0-.152-.278-.481l-.658-1.417L40.76,56.909c-.86-1.8-1.619-3.441-2.125-4.656-.253-.607-.455-1.088-.582-1.442a2.024,2.024,0,0,1-.2-.531Z" transform="translate(48.082 63.905)" fill="#263238"/>
    <path id="Trazado_215596" data-name="Trazado 215596" d="M60.856,61.12a2.126,2.126,0,0,1-.127.607L60.2,63.347c-.455,1.366-1.139,3.239-2,5.238a44.56,44.56,0,0,1-2.53,5.061l-.835,1.493a3.138,3.138,0,0,1-.354.531,3.465,3.465,0,0,1,.253-.582l.759-1.518c.633-1.29,1.493-3.087,2.353-5.061s1.594-3.846,2.1-5.187l.582-1.594a4.906,4.906,0,0,1,.329-.607Z" transform="translate(73.531 80.494)" fill="#263238"/>
    <path id="Trazado_215597" data-name="Trazado 215597" d="M59.252,64.43a4.1,4.1,0,0,1-.4.936,16.37,16.37,0,0,1-1.265,2.075,20.651,20.651,0,0,1-1.518,1.872,3.265,3.265,0,0,1-.734.708s.962-1.189,2.05-2.733S59.176,64.4,59.252,64.43Z" transform="translate(74.831 85.559)" fill="#263238"/>
    <path id="Trazado_215598" data-name="Trazado 215598" d="M60.1,87.063V85.57c0-.962-.228-2.353-.4-4.074-.38-3.441-.962-8.2-1.974-13.385a127.726,127.726,0,0,0-3.239-13.132c-.253-.835-.481-1.569-.708-2.227s-.38-1.215-.557-1.67L52.86,50.02v-.38l.152.354.4,1.037q.253.683.607,1.67c.228.658.481,1.392.734,2.227a111.331,111.331,0,0,1,3.315,13.132,134.909,134.909,0,0,1,1.9,13.411c.152,1.721.278,3.112.329,4.1v1.113Q60.147,87.063,60.1,87.063Z" transform="translate(71.052 62.926)" fill="#263238"/>
    <path id="Trazado_215599" data-name="Trazado 215599" d="M56.259,68.556a7.363,7.363,0,0,0,.3-2.353,8.2,8.2,0,0,0-.633-2.3,1.786,1.786,0,0,1,.43.582,4.656,4.656,0,0,1,.481,1.7,4.428,4.428,0,0,1-.228,1.746,2.176,2.176,0,0,1-.354.633Z" transform="translate(75.75 84.748)" fill="#263238"/>
    <path id="Trazado_215600" data-name="Trazado 215600" d="M55.75,67.547v-.708c0-.38,0-.708.152-.708s0,.329,0,.708S55.826,67.547,55.75,67.547Z" transform="translate(75.474 88.16)" fill="#263238"/>
    <path id="Trazado_215601" data-name="Trazado 215601" d="M42.9,62.87a3.364,3.364,0,0,1-.582.2,16.6,16.6,0,0,0-1.645.531c-.683.228-1.468.557-2.353.936s-1.8.86-2.783,1.392a42.1,42.1,0,0,0-4.706,3.112c-.582.43-1.037.784-1.341,1.063l-.506.354a5.128,5.128,0,0,1,.43-.43,14.723,14.723,0,0,1,1.316-1.139,34.258,34.258,0,0,1,4.681-3.163c.987-.531,1.923-1.012,2.809-1.392a20.766,20.766,0,0,1,2.4-.886A13.408,13.408,0,0,1,42.289,63Z" transform="translate(34.508 83.172)" fill="#263238"/>
    <path id="Trazado_215602" data-name="Trazado 215602" d="M41.182,62.9a17.227,17.227,0,0,0-1.8.127,19.079,19.079,0,0,0-4.175.886,22.115,22.115,0,0,0-3.9,1.771c-.936.531-1.518.911-1.543.886l.38-.329,1.088-.734a19.483,19.483,0,0,1,3.9-1.847,16.421,16.421,0,0,1,4.251-.81H40.7Z" transform="translate(35.717 83.141)" fill="#263238"/>
    <g id="Grupo_145952" data-name="Grupo 145952" transform="translate(86.765 116.007)" opacity="0.3">
      <path id="Trazado_215603" data-name="Trazado 215603" d="M38.283,51a10.7,10.7,0,0,0,4.681,10.4C41.8,58.363,39.75,54.062,38.283,51Z" transform="translate(-38.179 -51)"/>
    </g>
    <g id="Grupo_145953" data-name="Grupo 145953" transform="translate(105.972 100.825)" opacity="0.3">
      <path id="Trazado_215604" data-name="Trazado 215604" d="M45.77,48.467a11.387,11.387,0,0,0,2.53,3.416V49.15l12.525,5.567L47.364,45c-.734,1.24-.86,2.151-1.594,3.391" transform="translate(-45.77 -45)"/>
    </g>
    <g id="Grupo_145954" data-name="Grupo 145954" transform="translate(126.796 99.636)" opacity="0.3">
      <path id="Trazado_215605" data-name="Trazado 215605" d="M56.3,47.06a31.124,31.124,0,0,0-2.024-2.53c0,1.29-.152,3.087-.2,4.4L54,51.994c.177-1.088.329-3.188.531-4.3l2.328,2.227A3.315,3.315,0,0,0,56.3,47.06Z" transform="translate(-54 -44.53)"/>
    </g>
    <g id="Grupo_145955" data-name="Grupo 145955" transform="translate(144.508 105.38)" opacity="0.3">
      <path id="Trazado_215606" data-name="Trazado 215606" d="M61,46.8l1.594,14.423C63.176,56.542,64.441,53.986,61,46.8Z" transform="translate(-61 -46.8)"/>
    </g>
    <g id="Grupo_145956" data-name="Grupo 145956" transform="translate(171.431 116.488)" opacity="0.3">
      <path id="Trazado_215607" data-name="Trazado 215607" d="M80.142,60.83a18.675,18.675,0,0,0-2.53-1.189,13.866,13.866,0,0,1-5.972-8.1V51.19a12.9,12.9,0,0,0,7.009,11.032,2.53,2.53,0,0,0,1.341.278.962.962,0,0,0,.81-.936A1.189,1.189,0,0,0,80.142,60.83Z" transform="translate(-71.64 -51.19)"/>
    </g>
    <g id="Grupo_145957" data-name="Grupo 145957" transform="translate(115.612 127.773)" opacity="0.3">
      <path id="Trazado_215608" data-name="Trazado 215608" d="M49.58,66.429c5.061-1.721,7.591-6.553,8.932-10.779a17.156,17.156,0,0,1-.658,5.44,8.628,8.628,0,0,1-3.062,4.453,5.845,5.845,0,0,1-5.212.886" transform="translate(-49.58 -55.65)"/>
    </g>
    <g id="Grupo_145958" data-name="Grupo 145958" transform="translate(65.715 146.346)" opacity="0.3">
      <path id="Trazado_215609" data-name="Trazado 215609" d="M40.563,63.015A15,15,0,0,0,30.214,66.38c-.2.177-.43.43-.329.683a.461.461,0,0,0,.506.278,1.569,1.569,0,0,0,.557-.253,44.938,44.938,0,0,1,9.615-4.074" transform="translate(-29.86 -62.99)"/>
    </g>
    <g id="Grupo_145959" data-name="Grupo 145959" transform="translate(128.82 135.979)" opacity="0.3">
      <path id="Trazado_215610" data-name="Trazado 215610" d="M64.061,59.164a1.063,1.063,0,0,0-1.417,0,3.213,3.213,0,0,0-.81,1.316C59.81,65.54,57.76,70.6,55.736,75.661L54.8,77.913l6.4-10.728A20.875,20.875,0,0,0,64.213,60.4a1.493,1.493,0,0,0-.152-1.24Z" transform="translate(-54.8 -58.893)"/>
    </g>
    <path id="Trazado_215611" data-name="Trazado 215611" d="M43.844,31.288a25.708,25.708,0,0,1,16.447-9.565,17.029,17.029,0,0,1,7.135.4,11.614,11.614,0,0,1,6.857,3.947,19.2,19.2,0,0,1,4.352,8.6A52.707,52.707,0,0,1,79.749,44.6a17.99,17.99,0,0,1-2.53,9.565l-8.35,2.024a52.91,52.91,0,0,1-13.993.126,18.041,18.041,0,0,1-11.892-6.756,16.245,16.245,0,0,1,.86-18.269Z" transform="translate(52.26 19.893)" fill="#263238"/>
    <path id="Trazado_215612" data-name="Trazado 215612" d="M54.18,41.186a1.341,1.341,0,0,0,.531.4,4.4,4.4,0,0,0,1.771.481,4.58,4.58,0,0,0,2.53-.708,4.529,4.529,0,0,0,1.366-6.174,4.453,4.453,0,0,0-2.151-1.7,3.947,3.947,0,0,0-1.822-.253,1.417,1.417,0,0,0-.658.177,6.326,6.326,0,0,1,2.353.4A4.352,4.352,0,0,1,60,35.443a4.15,4.15,0,0,1,.506,2.96,4,4,0,0,1-1.619,2.53,4.377,4.377,0,0,1-2.378.759A6.883,6.883,0,0,1,54.18,41.186Z" transform="translate(73.072 37.802)" fill="#e0e0e0"/>
    <path id="Trazado_215613" data-name="Trazado 215613" d="M39.28,38.473a6.376,6.376,0,0,1,2.53-5.061,4.529,4.529,0,0,1,5.364,0L48.592,34.9a5.465,5.465,0,0,1,3.492,5.288,5.972,5.972,0,0,1-3.846,5.061,6.553,6.553,0,0,1-6.376-1.113,7.414,7.414,0,0,1-2.581-5.668Z" transform="translate(50.27 36.746)" fill="#263238"/>
    <path id="Trazado_215614" data-name="Trazado 215614" d="M40.61,42.783a2.733,2.733,0,0,1-.557-1.645,7.591,7.591,0,0,1,1.7-3.922,11.184,11.184,0,0,1,3.213-2.935c.936-.607,1.619-.835,1.594-.911a4.732,4.732,0,0,0-1.746.658,9.767,9.767,0,0,0-3.391,2.935,9.539,9.539,0,0,0-1.24,2.176,4.681,4.681,0,0,0-.43,2,2.53,2.53,0,0,0,.481,1.316C40.383,42.732,40.585,42.808,40.61,42.783Z" transform="translate(50.989 38.028)" fill="#455a64"/>
    <path id="Trazado_215615" data-name="Trazado 215615" d="M42.123,44.534a17.712,17.712,0,0,1,0-5.592A18.4,18.4,0,0,1,44.2,33.73a5.061,5.061,0,0,0-1.037,1.341,11.437,11.437,0,0,0-1.442,3.8,11.741,11.741,0,0,0,0,4.074,3.9,3.9,0,0,0,.4,1.594Z" transform="translate(53.728 38.579)" fill="#455a64"/>
    <path id="Trazado_215616" data-name="Trazado 215616" d="M64.9,68.078c-.253-2.986-.481-5.39-.481-5.39S71.249,61.5,72.59,52.567a93.85,93.85,0,0,0,0-17.712c-.4-5.364-5.465-12.373-12.095-11.994l-2.96-.152L46.553,27.922a3.138,3.138,0,0,0-2.783,3.112l2.4,38.283L66.593,90.826l1.164-6.073Z" transform="translate(57.141 21.715)" fill="#ffbe9d"/>
    <path id="Trazado_215617" data-name="Trazado 215617" d="M49.881,35.063a1.872,1.872,0,0,1,.557-1.215,1.948,1.948,0,0,1,2.328-.278A2.53,2.53,0,0,1,53.9,35.923h0a2.277,2.277,0,0,1-1.619,1.088h-.3a2.151,2.151,0,0,1-1.468-.481A1.822,1.822,0,0,1,49.881,35.063Z" transform="translate(66.49 37.929)" fill="#eb996e"/>
    <path id="Trazado_215618" data-name="Trazado 215618" d="M55.587,30.539A1.139,1.139,0,0,1,54.5,31.7a1.113,1.113,0,0,1-1.189-1.037A1.164,1.164,0,0,1,54.4,29.5a1.113,1.113,0,0,1,1.189,1.037Z" transform="translate(71.74 32.104)" fill="#263238"/>
    <path id="Trazado_215619" data-name="Trazado 215619" d="M57.112,29.59a13.411,13.411,0,0,0-2.252-.481c-1.24,0-2.125.658-2.252.506s0-.354.455-.633a2.986,2.986,0,0,1,1.822-.582,3.163,3.163,0,0,1,1.8.557C57.061,29.261,57.188,29.514,57.112,29.59Z" transform="translate(70.595 30.422)" fill="#263238"/>
    <path id="Trazado_215620" data-name="Trazado 215620" d="M51.938,38.953a10.122,10.122,0,0,1,2-.38c.329,0,.607,0,.683-.3a1.923,1.923,0,0,0-.228-.936l-.962-2.378A44.61,44.61,0,0,1,51.28,28.68a39.042,39.042,0,0,1,2.53,6.073c.329.835.633,1.645.911,2.53a1.822,1.822,0,0,1,.177,1.24.86.86,0,0,1-.506.481h-.557A7.135,7.135,0,0,1,51.938,38.953Z" transform="translate(68.634 30.851)" fill="#263238"/>
    <path id="Trazado_215621" data-name="Trazado 215621" d="M59.184,40.377A22.545,22.545,0,0,1,47.19,37.29a11.943,11.943,0,0,0,12.171,5.263Z" transform="translate(62.375 44.027)" fill="#eb996e"/>
    <path id="Trazado_215622" data-name="Trazado 215622" d="M50.265,33.09c.2,0,.228,1.341,1.366,2.277s2.53.784,2.53.962-.329.278-.936.3a3.441,3.441,0,0,1-2.151-.734,2.935,2.935,0,0,1-1.063-1.923C49.986,33.419,50.163,33.09,50.265,33.09Z" transform="translate(66.689 37.599)" fill="#263238"/>
    <path id="Trazado_215623" data-name="Trazado 215623" d="M56.7,27.587c-.2.278-1.063,0-2.075,0s-1.9.2-2.1,0,0-.43.43-.683a2.986,2.986,0,0,1,3.365,0C56.677,27.157,56.8,27.435,56.7,27.587Z" transform="translate(70.422 27.338)" fill="#263238"/>
    <path id="Trazado_215624" data-name="Trazado 215624" d="M48.73,30.658a1.139,1.139,0,0,0,1.139,1.113,1.113,1.113,0,0,0,1.139-1.088,1.164,1.164,0,0,0-1.164-1.113,1.088,1.088,0,0,0-1.113,1.088Z" transform="translate(64.731 32.213)" fill="#263238"/>
    <path id="Trazado_215625" data-name="Trazado 215625" d="M48.035,30.027c.152.152.987-.531,2.227-.582s2.151.506,2.277.354,0-.329-.481-.607a3.416,3.416,0,0,0-1.847-.481,2.935,2.935,0,0,0-1.771.683C48.035,29.7,47.883,29.976,48.035,30.027Z" transform="translate(63.579 30.896)" fill="#263238"/>
    <path id="Trazado_215626" data-name="Trazado 215626" d="M48.035,29.384c.228.278,1.063,0,2.075-.127s1.9,0,2.075-.2,0-.4-.455-.658a2.859,2.859,0,0,0-1.721-.38,2.809,2.809,0,0,0-1.619.633C48.035,28.954,47.884,29.258,48.035,29.384Z" transform="translate(63.579 29.817)" fill="#263238"/>
    <path id="Trazado_215627" data-name="Trazado 215627" d="M48.85,33.449c0-.658-.784-2.227-1.442-2.328-1.746-.253-4.909,0-4.909,4.377a4.58,4.58,0,0,0,6.351,4.58C48.85,39.926,48.85,35.676,48.85,33.449Z" transform="translate(55.174 34.482)" fill="#ffbe9d"/>
    <path id="Trazado_215628" data-name="Trazado 215628" d="M45.745,36.593l-.278.177a1.037,1.037,0,0,1-.784,0,2.53,2.53,0,0,1-1.24-2.353,3.618,3.618,0,0,1,.3-1.518,1.189,1.189,0,0,1,.784-.81.531.531,0,0,1,.633.278v.3s.127,0,0-.354a.607.607,0,0,0-.228-.38.759.759,0,0,0-.582-.152,1.468,1.468,0,0,0-1.113.962,3.644,3.644,0,0,0-.38,1.7,2.783,2.783,0,0,0,1.569,2.53,1.113,1.113,0,0,0,.962-.177C45.745,36.745,45.745,36.618,45.745,36.593Z" transform="translate(55.748 35.589)" fill="#eb996e"/>
    <path id="Trazado_215629" data-name="Trazado 215629" d="M46.419,44.27l1.645,1.493c6.275-6.781,18.269-23.582,17.712-22.6a19.357,19.357,0,0,0-9.59-.43C51.278,23.9,42.042,26.988,42.573,32.858A30.363,30.363,0,0,0,46.419,44.27Z" transform="translate(55.276 21.131)" fill="#263238"/>
    <path id="Trazado_215630" data-name="Trazado 215630" d="M48.952,41.571a1.691,1.691,0,0,1-.481.481,4.124,4.124,0,0,1-1.7.708,4.428,4.428,0,0,1-2.707-.38,4.352,4.352,0,0,1-2.2-2.53,4.453,4.453,0,0,1,.177-3.34,4.681,4.681,0,0,1,1.923-1.974,4.15,4.15,0,0,1,1.8-.481,1.29,1.29,0,0,1,.658,0,6.25,6.25,0,0,0-2.277.708,4.453,4.453,0,0,0-1.67,1.847,3.9,3.9,0,0,0-.127,2.986,4.1,4.1,0,0,0,1.923,2.3,4.4,4.4,0,0,0,2.53.43,5.87,5.87,0,0,0,2.151-.759Z" transform="translate(53.857 39.012)" fill="#e0e0e0"/>
    <path id="Trazado_215631" data-name="Trazado 215631" d="M42.566,50.2a8.628,8.628,0,0,0,0-1.417,23.177,23.177,0,0,1,.253-3.821A26.391,26.391,0,0,1,47.88,33.5a40.839,40.839,0,0,1,9.236-8.6c1.341-.936,2.53-1.67,3.213-2.151a8.3,8.3,0,0,0,1.164-.784l-.329.152-.936.506c-.784.43-1.923,1.113-3.289,2.024a39.928,39.928,0,0,0-9.387,8.6A25.3,25.3,0,0,0,42.491,44.91a16.119,16.119,0,0,0,0,3.871,8.4,8.4,0,0,0,0,1.063Z" transform="translate(55.005 20.567)" fill="#455a64"/>
    <path id="Trazado_215632" data-name="Trazado 215632" d="M58.678,21.91l-.354.152-.936.481a38.561,38.561,0,0,0-3.391,2,48.554,48.554,0,0,0-4.706,3.416,29.073,29.073,0,0,0-5.061,5.061,13.259,13.259,0,0,0-1.721,3.239,12.88,12.88,0,0,0-.784,3.391,20.875,20.875,0,0,0,.38,5.82,36.133,36.133,0,0,0,.987,3.821,2.787,2.787,0,0,0,.329,1.012c.076.228,0,.354.152.354a11.842,11.842,0,0,0-.329-1.417c-.228-.886-.557-2.2-.835-3.821a20.5,20.5,0,0,1-.3-5.718,12.955,12.955,0,0,1,.784-3.289,14.549,14.549,0,0,1,1.771-3.163,30.919,30.919,0,0,1,5.061-5.061c1.67-1.392,3.264-2.53,4.63-3.492s2.53-1.619,3.315-2.1a6.224,6.224,0,0,0,1.012-.683Z" transform="translate(53.923 20.491)" fill="#455a64"/>
    <path id="Trazado_215633" data-name="Trazado 215633" d="M44,44.414a6.5,6.5,0,0,0,.759-.81l1.9-2.328c1.594-1.974,3.77-4.732,6.174-7.768s4.529-5.82,6.073-7.844l1.8-2.4a7.312,7.312,0,0,0,.633-.911,4.731,4.731,0,0,0-.759.81l-1.9,2.328c-1.594,1.974-3.77,4.706-6.174,7.768S48.074,39.176,46.53,41.1l-1.822,2.4a8.6,8.6,0,0,0-.708.911Z" transform="translate(57.493 21.164)" fill="#e0e0e0"/>
    <path id="Trazado_215634" data-name="Trazado 215634" d="M51.6,33.127a9.793,9.793,0,0,0-1.139,0,5.946,5.946,0,0,0-1.037.455,1.487,1.487,0,0,1,.987-.708A1.24,1.24,0,0,1,51.6,33.127Z" transform="translate(65.787 37.183)" fill="#eb996e"/>
    <path id="Trazado_215635" data-name="Trazado 215635" d="M49.132,30.014a3.4,3.4,0,0,1-1.139.152,2.3,2.3,0,0,1-1.113-.278,3.568,3.568,0,0,1,1.139,0,3.77,3.77,0,0,1,1.113.127Z" transform="translate(61.9 32.629)" fill="#eb996e"/>
    <path id="Trazado_215636" data-name="Trazado 215636" d="M48.61,30.117a4.4,4.4,0,0,1-.759.3c-.43.127-.784.253-.81.177s.278-.278.734-.43S48.61,30.041,48.61,30.117Z" transform="translate(62.144 32.957)" fill="#eb996e"/>
    <path id="Trazado_215637" data-name="Trazado 215637" d="M55.843,29.661a2.793,2.793,0,0,1-.658.38c-.38.152-.708.2-.734.127s.278-.228.658-.38S55.843,29.585,55.843,29.661Z" transform="translate(73.484 32.299)" fill="#eb996e"/>
    <path id="Trazado_215638" data-name="Trazado 215638" d="M55.812,30.345H55.1c-.38,0-.658-.278-.633-.354s.354,0,.708,0A.726.726,0,0,1,55.812,30.345Z" transform="translate(73.514 32.804)" fill="#eb996e"/>
  </g>
</svg>
