<svg xmlns="http://www.w3.org/2000/svg" xmlns:xlink="http://www.w3.org/1999/xlink" width="116" height="116" viewBox="0 0 116 116">
  <defs>
    <clipPath id="clip-path">
      <path id="path531" d="M0-136.533H116v116H0Z" transform="translate(0 136.533)"/>
    </clipPath>
  </defs>
  <g id="obediente" transform="translate(0 0)">
    <g id="g525" transform="translate(0 0)">
      <g id="g527">
        <g id="g529" clip-path="url(#clip-path)">
          <g id="g535" transform="translate(28.582 1.699)">
            <path id="path537" d="M-11.35-15.6H-74.788a.68.68,0,0,1-.68-.68v-86.766a.68.68,0,0,1,.68-.68H-11.35a.68.68,0,0,1,.68.68v86.766a.68.68,0,0,1-.68.68" transform="translate(75.468 103.725)" fill="#feeeab"/>
          </g>
          <g id="g539" transform="translate(28.582 1.699)">
            <path id="path541" d="M-1.357-15.479v-86.766a.68.68,0,0,1,.68-.68H-8.346a.68.68,0,0,0-.68.68v86.766a.68.68,0,0,0,.68.68H-.678a.68.68,0,0,1-.68-.68" transform="translate(9.026 102.925)" fill="#c1e9af"/>
          </g>
          <g id="g543" transform="translate(28.582 1.699)">
            <path id="path545" d="M-11.35-15.6H-74.788a.68.68,0,0,1-.68-.68v-86.766a.68.68,0,0,1,.68-.68H-11.35a.68.68,0,0,1,.68.68v86.766A.68.68,0,0,1-11.35-15.6Z" transform="translate(75.468 103.725)" fill="none" stroke="#000" stroke-linecap="round" stroke-linejoin="round" stroke-miterlimit="10" stroke-width="4"/>
          </g>
          <g id="g547" transform="translate(20.806 9.475)">
            <path id="path549" d="M-11.35-15.6H-74.789a.68.68,0,0,1-.68-.68v-86.766a.68.68,0,0,1,.68-.68H-11.35a.68.68,0,0,1,.68.68v86.766a.68.68,0,0,1-.68.68" transform="translate(75.468 103.725)" fill="#fccea9"/>
          </g>
          <g id="g551" transform="translate(20.806 9.475)">
            <path id="path553" d="M-1.33-15.479v-86.766a.68.68,0,0,1,.68-.68H-8.165a.68.68,0,0,0-.68.68v86.766a.68.68,0,0,0,.68.68H-.65a.68.68,0,0,1-.68-.68" transform="translate(8.845 102.925)" fill="#ffe5c2"/>
          </g>
          <g id="g555" transform="translate(20.806 9.475)">
            <path id="path557" d="M-11.47-2.413V-15.368a.68.68,0,0,0-.68-.68H-75.589a.68.68,0,0,0-.68.68V71.4a.68.68,0,0,0,.68.68H-12.15a.68.68,0,0,0,.68-.68V5.516" transform="translate(76.268 16.048)" fill="none" stroke="#000" stroke-linecap="round" stroke-linejoin="round" stroke-miterlimit="10" stroke-width="4"/>
          </g>
          <g id="g559" transform="translate(13.03 17.251)">
            <path id="path561" d="M-11.35-15.6H-74.788a.68.68,0,0,1-.68-.68v-86.766a.68.68,0,0,1,.68-.68H-11.35a.68.68,0,0,1,.68.68v86.766a.68.68,0,0,1-.68.68" transform="translate(75.468 103.725)" fill="#fff"/>
          </g>
          <g id="g563" transform="translate(13.03 17.251)">
            <path id="path565" d="M-1.343-15.479v-86.766a.68.68,0,0,1,.68-.68H-8.25a.679.679,0,0,0-.68.68v86.766a.68.68,0,0,0,.68.68H-.663a.68.68,0,0,1-.68-.68" transform="translate(8.93 102.925)" fill="#fff"/>
          </g>
          <g id="g567" transform="translate(13.03 17.251)">
            <path id="path569" d="M-3.749-15.6H39.188a.68.68,0,0,0,.68-.68v-86.766a.68.68,0,0,0-.68-.68H-24.25a.679.679,0,0,0-.68.68v86.766a.68.68,0,0,0,.68.68h12.572" transform="translate(24.93 103.725)" fill="none" stroke="#000" stroke-linecap="round" stroke-linejoin="round" stroke-miterlimit="10" stroke-width="4"/>
          </g>
          <g id="g571" transform="translate(34.218 28.32)">
            <path id="path573" d="M0,0H22.423" fill="none" stroke="#000" stroke-linecap="round" stroke-linejoin="round" stroke-miterlimit="10" stroke-width="4"/>
          </g>
          <g id="g575" transform="translate(26.514 39.875)">
            <path id="path577" d="M0,0H37.829" transform="translate(0 0)" fill="none" stroke="#000" stroke-linecap="round" stroke-linejoin="round" stroke-miterlimit="10" stroke-width="4"/>
          </g>
          <g id="g579" transform="translate(26.514 47.805)">
            <path id="path581" d="M0,0H37.829" transform="translate(0 0)" fill="none" stroke="#000" stroke-linecap="round" stroke-linejoin="round" stroke-miterlimit="10" stroke-width="4"/>
          </g>
          <g id="g583" transform="translate(26.514 55.734)">
            <path id="path585" d="M0,0H37.829" transform="translate(0 0)" fill="none" stroke="#000" stroke-linecap="round" stroke-linejoin="round" stroke-miterlimit="10" stroke-width="4"/>
          </g>
          <g id="g587" transform="translate(26.514 63.664)">
            <path id="path589" d="M0,0H12.907" transform="translate(0 0)" fill="none" stroke="#000" stroke-linecap="round" stroke-linejoin="round" stroke-miterlimit="10" stroke-width="4"/>
          </g>
          <g id="g591" transform="translate(44.859 63.664)">
            <path id="path593" d="M0,0H19.484" transform="translate(0 0)" fill="none" stroke="#000" stroke-linecap="round" stroke-linejoin="round" stroke-miterlimit="10" stroke-width="4"/>
          </g>
          <g id="g595" transform="translate(26.514 71.594)">
            <path id="path597" d="M0,0H37.829" fill="none" stroke="#000" stroke-linecap="round" stroke-linejoin="round" stroke-miterlimit="10" stroke-width="4"/>
          </g>
          <g id="g599" transform="translate(26.514 79.523)">
            <path id="path601" d="M0,0H37.829" fill="none" stroke="#000" stroke-linecap="round" stroke-linejoin="round" stroke-miterlimit="10" stroke-width="4"/>
          </g>
          <g id="g603" transform="translate(26.514 87.453)">
            <path id="path605" d="M0,0H37.829" fill="none" stroke="#000" stroke-linecap="round" stroke-linejoin="round" stroke-miterlimit="10" stroke-width="4"/>
          </g>
          <g id="g607" transform="translate(54.307 50.886)">
            <path id="path609" d="M0-2.755V16.027A18.931,18.931,0,0,0,6.652,30.436l16.839,14.35a1.3,1.3,0,0,0,1.681,0l16.839-14.35a18.931,18.931,0,0,0,6.652-14.409V-2.755a1.3,1.3,0,0,0-.614-1.1L25.014-18.124a1.3,1.3,0,0,0-1.365,0L.614-3.857A1.3,1.3,0,0,0,0-2.755" transform="translate(0 18.319)" fill="#fece2f"/>
          </g>
          <g id="g611" transform="translate(54.307 61.469)">
            <path id="path613" d="M-2.395-6.213A18.931,18.931,0,0,1-9.047-20.622V-41.315l-6.263,3.879a1.3,1.3,0,0,0-.614,1.1v18.782A18.93,18.93,0,0,0-9.272-3.143L7.568,11.207a1.3,1.3,0,0,0,1.681,0l4.4-3.749Z" transform="translate(15.923 41.315)" fill="#fece2f"/>
          </g>
          <g id="g615" transform="translate(54.306 50.886)">
            <path id="path617" d="M-8.614-4.107v-7.636a1.3,1.3,0,0,0-.614-1.1L-32.263-27.112a1.3,1.3,0,0,0-1.365,0L-56.664-12.844a1.3,1.3,0,0,0-.614,1.1V7.04a18.931,18.931,0,0,0,6.652,14.409L-33.786,35.8a1.3,1.3,0,0,0,1.681,0l16.839-14.35A18.931,18.931,0,0,0-8.614,7.04V3.823" transform="translate(57.277 27.306)" fill="none" stroke="#000" stroke-linecap="round" stroke-linejoin="round" stroke-miterlimit="10" stroke-width="4"/>
          </g>
          <g id="g619" transform="translate(64.773 65.597)">
            <path id="path621" d="M-4.909-2.454A13.866,13.866,0,0,1-18.774,11.411,13.866,13.866,0,0,1-32.64-2.454,13.866,13.866,0,0,1-18.774-16.32,13.866,13.866,0,0,1-4.909-2.454" transform="translate(32.64 16.32)" fill="#54aa13"/>
          </g>
          <g id="g623" transform="translate(64.773 65.597)">
            <path id="path625" d="M-1.352-2.454A13.869,13.869,0,0,1,8.7-15.783a13.873,13.873,0,0,0-3.819-.537A13.866,13.866,0,0,0-8.989-2.454,13.865,13.865,0,0,0,4.877,11.411,13.864,13.864,0,0,0,8.7,10.874,13.868,13.868,0,0,1-1.352-2.454" transform="translate(8.989 16.32)" fill="#54aa13"/>
          </g>
          <g id="g627" transform="translate(64.773 65.597)">
            <path id="path629" d="M-4.909-2.454A13.866,13.866,0,0,1-18.774,11.411,13.866,13.866,0,0,1-32.64-2.454,13.866,13.866,0,0,1-18.774-16.32,13.866,13.866,0,0,1-4.909-2.454Z" transform="translate(32.64 16.32)" fill="none" stroke="#000" stroke-linecap="round" stroke-linejoin="round" stroke-miterlimit="10" stroke-width="4"/>
          </g>
          <g id="g631" transform="translate(73.947 76.732)">
            <path id="path633" d="M0-.4,4.1,3.7l6.355-6.355" transform="translate(0 2.654)" fill="none" stroke="#000" stroke-linecap="round" stroke-linejoin="round" stroke-miterlimit="10" stroke-width="4"/>
          </g>
        </g>
      </g>
    </g>
  </g>
</svg>
