<svg id="algoritmo_3_" data-name="algoritmo (3)" xmlns="http://www.w3.org/2000/svg" width="73.061" height="64.541" viewBox="0 0 73.061 64.541">
  <path id="Trazado_216187" data-name="Trazado 216187" d="M51.3,26.978A1.073,1.073,0,0,0,52.375,25.9V18.885A1.073,1.073,0,0,0,51.3,17.812H39.992a1.073,1.073,0,0,0-1.074,1.073v2.436H22.229a1.074,1.074,0,0,0-1.074,1.073v21.23A1.074,1.074,0,0,0,22.229,44.7h5.458v2.436a1.073,1.073,0,0,0,1.073,1.074H40.07a1.073,1.073,0,0,0,1.073-1.074V40.115a1.073,1.073,0,0,0-1.073-1.074H35.488V35.305h6.165l3.235,3.235a1.084,1.084,0,0,0,1.518,0l3.235-3.235H55.8v3.736H51.223a1.073,1.073,0,0,0-1.073,1.074v7.018a1.073,1.073,0,0,0,1.073,1.074h11.31a1.073,1.073,0,0,0,1.073-1.074V44.7h5.641a3.738,3.738,0,1,0,0-2.147H63.606V40.115a1.073,1.073,0,0,0-1.073-1.074H57.952v-4.81a1.074,1.074,0,0,0-1.074-1.073H49.64l-2.92-2.92V26.978ZM72.827,42.033a1.591,1.591,0,1,1-1.591,1.591A1.593,1.593,0,0,1,72.827,42.033Zm-11.367-.845v4.872H52.3V41.188ZM39,41.188v4.872H29.834V41.188Zm-4.581-8.029a1.073,1.073,0,0,0-1.073,1.073v4.81H28.761a1.073,1.073,0,0,0-1.074,1.074v2.436H23.3V23.468H38.919V25.9a1.073,1.073,0,0,0,1.074,1.074h4.581v3.261l-2.92,2.92Zm13.262,1.073-2.031,2.031-2.031-2.031L45.647,32.2Zm-6.612-9.4V19.959h9.163v4.872Zm0,0" transform="translate(-11.093 -9.411)" fill="#30610c"/>
  <path id="Trazado_216188" data-name="Trazado 216188" d="M112.539,22.667h9.954a1.073,1.073,0,0,0,0-2.147h-9.954a1.073,1.073,0,1,0,0,2.147Zm0,0" transform="translate(-58.446 -10.831)" fill="#30610c"/>
  <path id="Trazado_216189" data-name="Trazado 216189" d="M112.539,33.4h9.954a1.073,1.073,0,0,0,0-2.147h-9.954a1.073,1.073,0,1,0,0,2.147Zm0,0" transform="translate(-58.446 -16.457)" fill="#30610c"/>
  <path id="Trazado_216190" data-name="Trazado 216190" d="M56.006,53.274H5.366a3.223,3.223,0,0,1-3.22-3.22V45.613H16.89a1.073,1.073,0,0,0,0-2.147H2.146V5.516A3.223,3.223,0,0,1,5.366,2.3H15.855a1.073,1.073,0,0,0,0-2.147H5.366A5.373,5.373,0,0,0,0,5.516V50.055a5.372,5.372,0,0,0,5.366,5.366H26.7l-1.9,7.123h-3.62a1.073,1.073,0,1,0,0,2.147H51.877a1.073,1.073,0,0,0,0-2.147h-3.62l-1.9-7.123h9.644a1.073,1.073,0,0,0,0-2.147Zm-9.97,9.27H27.025l1.9-7.123H44.141Zm0,0" transform="translate(0 -0.15)" fill="#30610c"/>
  <path id="Trazado_216191" data-name="Trazado 216191" d="M88.722.15H41.177a1.073,1.073,0,1,0,0,2.147H88.722a3.223,3.223,0,0,1,3.22,3.22V43.467H42.212a1.073,1.073,0,1,0,0,2.147h49.73v4.441a3.223,3.223,0,0,1-3.22,3.22h-7.4a1.073,1.073,0,1,0,0,2.147h7.4a5.372,5.372,0,0,0,5.366-5.366V5.516A5.373,5.373,0,0,0,88.722.15Zm0,0" transform="translate(-21.028 -0.15)" fill="#30610c"/>
</svg>
