<svg xmlns="http://www.w3.org/2000/svg" width="321.417" height="294.427" viewBox="0 0 321.417 294.427">
  <g id="ILUSTRACIONES-17" transform="translate(-3.49 -9.13)">
    <path id="Trazado_214713" data-name="Trazado 214713" d="M39.4,76.27a22.515,22.515,0,0,1,5.551-2.428l1.145-5.481h9.263l1.353,5.447a22.862,22.862,0,0,1,5.62,2.22l4.683-3.088,6.661,6.453-2.914,4.787a23.07,23.07,0,0,1,2.428,5.551l5.481,1.145v9.263l-5.308,1.18a22.862,22.862,0,0,1-2.22,5.62l3.088,4.683-6.418,6.661L62.951,115.4A24.285,24.285,0,0,1,57.4,117.8l-1.145,5.481H46.993L45.605,118a22.863,22.863,0,0,1-5.516-2.324l-4.683,3.088-6.661-6.453,2.983-4.683a23.764,23.764,0,0,1-2.394-5.551l-5.481-1.145-.173-9.263,5.447-1.353a22.861,22.861,0,0,1,2.22-5.62l-3.088-4.683,6.453-6.661L39.5,76.27Zm4.926,12.35a9.922,9.922,0,1,0,6.985-3.072,9.956,9.956,0,0,0-6.985,3.072Z" transform="translate(49.852 146.248)" fill="#ebebeb"/>
    <rect id="Rectángulo_44126" data-name="Rectángulo 44126" width="102.721" height="48.256" transform="translate(200.121 9.859)" fill="#fafafa"/>
    <path id="Trazado_214714" data-name="Trazado 214714" d="M163.089,58.114V9.789H60.368V57.7H60.09V9.13H163.124V57.525Z" transform="translate(139.754 0)" fill="#263238"/>
    <path id="Trazado_214715" data-name="Trazado 214715" d="M163.065,13.573H111.617C140.03,13.573,163.065,13.469,163.065,13.573Z" transform="translate(139.951 10.856)" fill="#263238"/>
    <path id="Trazado_214716" data-name="Trazado 214716" d="M67.238,10.8a19.845,19.845,0,0,1-2.81,2.81,21.787,21.787,0,0,1-3.018,2.567,17.969,17.969,0,0,1,2.81-2.81A21.784,21.784,0,0,1,67.238,10.8Z" transform="translate(143.013 4.123)" fill="#263238"/>
    <path id="Trazado_214717" data-name="Trazado 214717" d="M66.8,16.533a23.277,23.277,0,0,1-2.81-2.775A22.931,22.931,0,0,1,61.46,10.74a23.279,23.279,0,0,1,2.81,2.775A22.931,22.931,0,0,1,66.8,16.533Z" transform="translate(143.137 3.975)" fill="#263238"/>
    <path id="Trazado_214718" data-name="Trazado 214718" d="M69.975,16.479a2.535,2.535,0,0,1,0-.451V10.893H64.494V10.72h0v5.551h-.1V10.928h5.724v4.094A5.545,5.545,0,0,1,69.975,16.479Z" transform="translate(150.371 3.926)" fill="#263238"/>
    <path id="Trazado_214719" data-name="Trazado 214719" d="M73.272,12.381a15.2,15.2,0,0,1-2.983,0,15.4,15.4,0,0,1-3.018,0,12.732,12.732,0,0,1,3.018-.173A12.559,12.559,0,0,1,73.272,12.381Z" transform="translate(157.482 7.538)" fill="#263238"/>
    <rect id="Rectángulo_44127" data-name="Rectángulo 44127" width="119.686" height="84.023" transform="translate(205.048 158.824)" fill="#fafafa"/>
    <path id="Trazado_214720" data-name="Trazado 214720" d="M181.4,136.426V52.4H61.713v84.023H61.54V52.23h120v84.023Z" transform="translate(143.334 106.42)" fill="#263238"/>
    <path id="Trazado_214721" data-name="Trazado 214721" d="M181.449,57.293H61.59s26.817-.173,59.947-.173S181.449,57.189,181.449,57.293Z" transform="translate(143.458 118.494)" fill="#263238"/>
    <path id="Trazado_214722" data-name="Trazado 214722" d="M69.79,54a28.133,28.133,0,0,1-3.261,3.226A25.361,25.361,0,0,1,63.06,60.21a31.779,31.779,0,0,1,3.261-3.226A33.1,33.1,0,0,1,69.79,54Z" transform="translate(147.087 110.791)" fill="#263238"/>
    <path id="Trazado_214723" data-name="Trazado 214723" d="M69.33,60.65A28.139,28.139,0,0,1,66.1,57.389,28.723,28.723,0,0,1,63.12,53.92a61.545,61.545,0,0,1,6.21,6.938Z" transform="translate(147.235 110.593)" fill="#263238"/>
    <path id="Trazado_214724" data-name="Trazado 214724" d="M73.062,60.44V53.953H66.54v6.383h0v-6.21h0s.208-.208,0-.173H73.2v6.071A1.3,1.3,0,0,0,73.062,60.44Z" transform="translate(155.68 110.664)" fill="#263238"/>
    <path id="Trazado_214725" data-name="Trazado 214725" d="M76.848,55.724a16.825,16.825,0,0,1-3.469.173,17.066,17.066,0,0,1-3.469-.173,17.072,17.072,0,0,1,3.469,0A16.824,16.824,0,0,1,76.848,55.724Z" transform="translate(164.001 114.826)" fill="#263238"/>
    <rect id="Rectángulo_44128" data-name="Rectángulo 44128" width="42.775" height="42.775" transform="translate(268.047 185.64)" fill="#e0e0e0"/>
    <rect id="Rectángulo_44129" data-name="Rectángulo 44129" width="247.662" height="190.422" transform="translate(3.49 33.969)" fill="#fff"/>
    <path id="Trazado_214726" data-name="Trazado 214726" d="M251.153,206.983V16.562H3.49V206.81l247.663.173H3.49V16.18H251.326C251.222,131.6,251.153,205.8,251.153,206.983Z" transform="translate(0 17.407)" fill="#263238"/>
    <path id="Trazado_214727" data-name="Trazado 214727" d="M154.7,157.032l.624-.867.382-.451a5.617,5.617,0,0,1,.347-.624,8.882,8.882,0,0,0,.833-1.63c0-.312.278-.659.382-1.006l.347-1.18a2.615,2.615,0,0,1,.243-1.318,9.369,9.369,0,0,0,.208-1.422,26.853,26.853,0,0,0-.312-6.938,62.653,62.653,0,0,0-6.349-17.935,139.841,139.841,0,0,0-13.877-21.231,215.954,215.954,0,0,0-20.364-22.9A251.375,251.375,0,0,0,90.447,56.669,156.076,156.076,0,0,0,74.767,46.088a156.11,156.11,0,0,0-17.589-9.228,82.566,82.566,0,0,0-19.531-6.106,35.108,35.108,0,0,0-10.407-.278,20.815,20.815,0,0,0-5.03,1.457,14.4,14.4,0,0,0-4.232,3.122,14.085,14.085,0,0,0-2.6,4.545,19.912,19.912,0,0,0-.867,5.169A34.692,34.692,0,0,0,15.93,55.178a81.977,81.977,0,0,0,8.326,18.733A158.194,158.194,0,0,0,35.392,90.32c3.99,5.134,8.118,9.956,12.315,14.5a250.82,250.82,0,0,0,25.741,23.972A217.827,217.827,0,0,0,98.53,146.451a141.857,141.857,0,0,0,22.688,11.171,62.966,62.966,0,0,0,18.525,4.267,28.341,28.341,0,0,0,6.938-.451,6.119,6.119,0,0,0,1.422-.382,6.588,6.588,0,0,0,1.249-.416l1.145-.451.971-.52a16.028,16.028,0,0,0,1.422-1.11l.59-.451.416-.416.8-.729s-.243.278-.763.763l-.416.416-.624.416a9.264,9.264,0,0,1-1.492,1.006l-.971.52-1.145.486a6.592,6.592,0,0,1-1.249.416,8.5,8.5,0,0,1-1.422.382,26.884,26.884,0,0,1-6.938.52,62.444,62.444,0,0,1-18.629-4.232A140.221,140.221,0,0,1,98.322,146.52,214.852,214.852,0,0,1,73.1,129a255.4,255.4,0,0,1-25.81-24.006c-4.2-4.545-8.361-9.367-12.35-14.536A151.809,151.809,0,0,1,23.77,74.015a81.941,81.941,0,0,1-8.361-18.8A34.31,34.31,0,0,1,13.953,44.8a19.774,19.774,0,0,1,.9-5.273,12.905,12.905,0,0,1,6.938-7.875A19.323,19.323,0,0,1,27.135,30.2a34.691,34.691,0,0,1,10.407.243,81.7,81.7,0,0,1,19.67,6.175A150.664,150.664,0,0,1,74.8,45.846c5.585,3.469,10.858,6.938,15.854,10.616a248.806,248.806,0,0,1,26.782,22.931A220.08,220.08,0,0,1,137.8,102.323a138.765,138.765,0,0,1,13.634,21.335,62.618,62.618,0,0,1,6.349,18,28.655,28.655,0,0,1,.278,6.938c0,.52-.173.971-.208,1.457a2.192,2.192,0,0,1-.312,1.318l-.312,1.145q-.208.59-.416,1.041a11.769,11.769,0,0,1-.833,1.63l-.382.624-.382.451Z" transform="translate(25.825 51.331)" fill="#e0e0e0"/>
    <path id="Trazado_214728" data-name="Trazado 214728" d="M192.527,73.1V70.743a8.569,8.569,0,0,0-.486-1.769,7.35,7.35,0,0,0-.382-1.006l-.52-1.11a9.681,9.681,0,0,0-.659-1.145c-.278-.382-.486-.8-.833-1.214a26.955,26.955,0,0,0-4.857-4.961,62.133,62.133,0,0,0-16.652-9.124,138.174,138.174,0,0,0-24.284-6.938A217.1,217.1,0,0,0,113.4,40.006a242.079,242.079,0,0,0-35.177.763c-6.175.59-12.489,1.422-18.838,2.637a157.6,157.6,0,0,0-19.254,4.787,82.67,82.67,0,0,0-18.664,8.465,33.546,33.546,0,0,0-7.944,6.73,19.185,19.185,0,0,0-2.81,4.441,12.8,12.8,0,0,0,0,10.407,20.294,20.294,0,0,0,2.775,4.44,34.969,34.969,0,0,0,7.944,6.73,82.22,82.22,0,0,0,18.7,8.465,151.7,151.7,0,0,0,19.254,4.822c6.349,1.179,12.662,2.047,18.837,2.637a252.419,252.419,0,0,0,35.177.763,216.273,216.273,0,0,0,30.459-3.469,138.175,138.175,0,0,0,24.284-6.938,62.132,62.132,0,0,0,16.652-9.124,26.956,26.956,0,0,0,4.857-4.961,12.627,12.627,0,0,0,.833-1.214,9.684,9.684,0,0,0,.659-1.145l.52-1.075a9.887,9.887,0,0,0,.382-1.041,8.569,8.569,0,0,0,.486-1.769v-.694a6.143,6.143,0,0,1,0,.728,8.572,8.572,0,0,1-.486,1.769l-.347,1.041-.555,1.075a4.441,4.441,0,0,1-.659,1.179,12.144,12.144,0,0,1-.8,1.214,26.019,26.019,0,0,1-4.857,5,60.918,60.918,0,0,1-16.687,9.263,140.5,140.5,0,0,1-24.284,6.938,215.951,215.951,0,0,1-30.494,3.469,252.789,252.789,0,0,1-35.212-.728q-9.263-.9-18.907-2.637a153.69,153.69,0,0,1-19.288-4.822,82.045,82.045,0,0,1-18.768-8.5,35.073,35.073,0,0,1-8.048-6.938,18.56,18.56,0,0,1-2.845-4.545A14.362,14.362,0,0,1,8.87,73.1a15.091,15.091,0,0,1,1.11-5.273,20.815,20.815,0,0,1,2.81-4.683,35.073,35.073,0,0,1,8.048-6.938,82.7,82.7,0,0,1,18.768-8.5A152.642,152.642,0,0,1,58.93,42.885c6.383-1.18,12.7-2.012,18.872-2.6a247.35,247.35,0,0,1,35.212-.728,216.577,216.577,0,0,1,30.494,3.469,137.515,137.515,0,0,1,24.284,6.938,61.821,61.821,0,0,1,16.825,9.263,27.061,27.061,0,0,1,4.857,5c.312.416.555.833.8,1.214a8.223,8.223,0,0,1,.659,1.18l.555,1.11a4.08,4.08,0,0,0,.347,1.041,8.013,8.013,0,0,1,.486,1.769,5.626,5.626,0,0,1,0,.694v.59A5.648,5.648,0,0,1,192.527,73.1Z" transform="translate(13.284 74.343)" fill="#e0e0e0"/>
    <path id="Trazado_214729" data-name="Trazado 214729" d="M136.556,29.019l-.9-.555-.486-.347-.659-.312a10.963,10.963,0,0,0-1.665-.694l-1.041-.347-1.214-.243a7.563,7.563,0,0,0-1.318,0h-1.422a28.516,28.516,0,0,0-6.938.8,62.826,62.826,0,0,0-17.346,7.6A141.819,141.819,0,0,0,83.235,49.66,219.286,219.286,0,0,0,61.8,71.585,246.1,246.1,0,0,0,40.981,99.859c-3.3,5.238-6.487,10.72-9.471,16.513a155.908,155.908,0,0,0-7.979,18.144,81.664,81.664,0,0,0-4.753,19.948,33.859,33.859,0,0,0,.451,10.407,19.566,19.566,0,0,0,1.8,4.926,14.327,14.327,0,0,0,3.469,3.99,14.535,14.535,0,0,0,4.718,2.29,20.5,20.5,0,0,0,5.238.52,34.1,34.1,0,0,0,9.956-2.047,82.045,82.045,0,0,0,18.109-9.575,153.168,153.168,0,0,0,15.611-12.281q7.285-6.453,13.634-13.287a251.061,251.061,0,0,0,22.168-27.3,220.019,220.019,0,0,0,15.854-26.227A137.968,137.968,0,0,0,139.5,62.427a62.444,62.444,0,0,0,3.018-18.768,28,28,0,0,0-.971-6.938,5,5,0,0,0-.451-1.388,12.664,12.664,0,0,0-.486-1.214l-.555-1.11a8.083,8.083,0,0,0-.555-.694,7.561,7.561,0,0,0-1.075-1.457l-.486-.555-.416-.416-.8-.729.8.729.451.382a3.957,3.957,0,0,1,.486.555,8.463,8.463,0,0,1,1.11,1.422c.208.312.416.59.624.937l.52,1.075a6.728,6.728,0,0,1,.52,1.249,6.041,6.041,0,0,0,.486,1.388,26.469,26.469,0,0,1,.971,6.938A62.445,62.445,0,0,1,139.5,62.5a140.812,140.812,0,0,1-9.54,23.451,217.828,217.828,0,0,1-15.75,26.157,251.027,251.027,0,0,1-22.168,27.406c-4.267,4.51-8.777,8.985-13.634,13.322a148.927,148.927,0,0,1-15.646,12.281,83.018,83.018,0,0,1-18.213,9.644,35.906,35.906,0,0,1-10.407,2.186,19.982,19.982,0,0,1-5.342-.555,14.954,14.954,0,0,1-4.857-2.324,14.674,14.674,0,0,1-3.469-4.128,18.872,18.872,0,0,1-1.839-5.065,34.691,34.691,0,0,1-.486-10.407,82.289,82.289,0,0,1,4.787-20.017,153.853,153.853,0,0,1,8.014-18.213c2.983-5.759,6.175-11.275,9.505-16.513A245.82,245.82,0,0,1,61.483,71.412,218.871,218.871,0,0,1,83.027,49.66a140.4,140.4,0,0,1,20.364-15.091,63.139,63.139,0,0,1,17.346-7.528,25.672,25.672,0,0,1,6.938-.763,10.408,10.408,0,0,1,1.457,0,5.516,5.516,0,0,1,1.318.208l1.18.243,1.075.347a8.291,8.291,0,0,1,1.665.729l.624.312.52.347Z" transform="translate(35.743 42.278)" fill="#e0e0e0"/>
    <circle id="Elipse_7076" data-name="Elipse 7076" cx="3.4" cy="3.4" r="3.4" transform="translate(15.528 184.183)" fill="#e0e0e0"/>
    <path id="Trazado_214730" data-name="Trazado 214730" d="M68.938,31.919a3.469,3.469,0,1,1-3.469-3.469A3.469,3.469,0,0,1,68.938,31.919Z" transform="translate(144.47 47.704)" fill="#e0e0e0"/>
    <circle id="Elipse_7077" data-name="Elipse 7077" cx="0.867" cy="0.867" r="0.867" transform="translate(41.13 195.493)" fill="#e0e0e0"/>
    <path id="Trazado_214731" data-name="Trazado 214731" d="M21.4,36.207a.867.867,0,1,1-.867-.867A.867.867,0,0,1,21.4,36.207Z" transform="translate(39.951 64.716)" fill="#e0e0e0"/>
    <path id="Trazado_214732" data-name="Trazado 214732" d="M60.345,49.617a.867.867,0,1,1-.867-.867A.867.867,0,0,1,60.345,49.617Z" transform="translate(136.099 97.828)" fill="#e0e0e0"/>
    <path id="Trazado_214733" data-name="Trazado 214733" d="M63.815,37.947a.867.867,0,1,1-.867-.867A.867.867,0,0,1,63.815,37.947Z" transform="translate(144.667 69.013)" fill="#e0e0e0"/>
    <ellipse id="Elipse_7078" data-name="Elipse 7078" cx="54.292" cy="54.674" rx="54.292" ry="54.674" transform="translate(63.992 82.086)" fill="#f67409"/>
    <g id="Grupo_145918" data-name="Grupo 145918" transform="translate(64.096 132.669)" opacity="0.3">
      <path id="Trazado_214734" data-name="Trazado 214734" d="M55.062,73.185c.278-2.359,2.116-4.787,1.075-6.938s-4.683-2.012-7.146-3.088c-3.469-1.492-4.475-5.724-6.7-8.742a11.934,11.934,0,0,0-10.234-4.822,4.336,4.336,0,0,0-3.712,4.024h-.312c-.937,0-2.047,0-2.567-.971s0-2.29-.659-3.192a5.1,5.1,0,0,0-1.353-1.006c-.451-.312-.867-.937-.555-1.422s.833-.52,1.11-.9a.867.867,0,0,0,0-1.075c-.971-1.145-2.081,1.214-2.6,1.769l-.451.416h0v3.851a6.244,6.244,0,0,1,1.665.833c1.075.59,2.255,1.388,2.324,2.637a1.041,1.041,0,0,0,0,.555c0,.173.312.208.52.278a17.97,17.97,0,0,0,2.741.382c0,1.075,0,2.22,0,3.469a43.157,43.157,0,0,0-.347,4.683,12.593,12.593,0,0,0,3.088,5.794A85.549,85.549,0,0,1,41.914,91.988h0l1.908,1.422,1.318.9,1.353.867a5.132,5.132,0,0,0,.729.451h0c-1.214-2.6-1.214-6.244,1.353-7.528a5.828,5.828,0,0,0,1.457-.763c1.145-1.075.208-3.469,1.353-4.406s1.631-.555,2.428-.9a4.024,4.024,0,0,0,1.8-4.094,23.9,23.9,0,0,1-.555-4.753Z" transform="translate(-20.96 -44.741)"/>
    </g>
    <g id="Grupo_145919" data-name="Grupo 145919" transform="translate(64.478 97.35)" opacity="0.3">
      <path id="Trazado_214735" data-name="Trazado 214735" d="M23.984,58.324a2.5,2.5,0,0,1,3.469,0,3.816,3.816,0,0,1,.278,2.775c-.208,1.284-.382,2.567-.59,3.816a1.839,1.839,0,0,0,0,1.145c.382.8,1.7.659,2.22,0a3.469,3.469,0,0,0,.312-2.567,4.857,4.857,0,0,1,0-2.637c.833-2.047,3.885-1.735,5.655-3.088A9.575,9.575,0,0,0,37.583,54.3a3.747,3.747,0,0,1,3.122-2.359h1.388a1.873,1.873,0,0,0,1.18-3.018c-.208-.208-.486-.347-.59-.59A1.11,1.11,0,0,1,43.1,46.98a3.469,3.469,0,0,1,1.422-.486l3.469-.52c1.284-.208,2.914-.867,2.741-2.151s-1.665-1.6-1.873-2.706a2.983,2.983,0,0,0-.173-.8c-.347-.728-1.388-.451-2.081,0a1.665,1.665,0,0,0-2.532-.8c-.694.555-.8,1.561-1.041,2.394a11.518,11.518,0,0,1-3.747,5.1,3.053,3.053,0,0,1-1.839,1.006c-.729,0-1.457-.728-1.145-1.353s.867-.659.8-1.145-1.145-.555-1.353-1.145c.416-1.7,2.359-2.394,3.851-3.469a9.263,9.263,0,0,0,3.955-4.857,1.284,1.284,0,0,0,0-1.006c-.208-.416-.8-.486-1.284-.486-1.145,0-2.567,0-2.983,1.214a10.407,10.407,0,0,0-.208,1.839c-.416,1.769-2.845,1.977-4.336,3.018a12.384,12.384,0,0,1-1.7,1.318,6.245,6.245,0,0,1-2.29.382h-.624l-1.284,1.943-1.284,2.151a55.854,55.854,0,0,0-4.614,10.407c-.416,1.284-.763,2.671-1.11,3.99s-.52,2.6-.763,3.955a16.513,16.513,0,0,0,.971-3.469,6.244,6.244,0,0,1,1.943-2.983Z" transform="translate(-21.07 -34.56)"/>
    </g>
    <g id="Grupo_145920" data-name="Grupo 145920" transform="translate(98.803 85.943)" opacity="0.3">
      <path id="Trazado_214736" data-name="Trazado 214736" d="M45.173,41.881c.486-.659.347-1.631.694-2.394.555-1.318,2.255-1.769,2.845-3.053.243-.486.278-1.075.694-1.457s.833-.347,1.18-.624a1.665,1.665,0,0,0-.382-2.567c-2.116-1.353-6.036.243-7.875,1.561a12.35,12.35,0,0,1-7.84,3.469,5.828,5.828,0,0,0-2.567,0c-.833.312-1.318,1.526-.624,2.047s.937.208,1.388.416a1.769,1.769,0,0,1,.486,2.359c-.382.8-1.11,1.388-1.561,2.151a4.163,4.163,0,0,0-.59,2.5,2.463,2.463,0,0,0,.729,1.6c.971.763,2.463,0,3.3-.833a12.94,12.94,0,0,1,2.5-2.81,6.036,6.036,0,0,1,1.735-.59l4.128-.971A3.018,3.018,0,0,0,45.173,41.881Z" transform="translate(-30.964 -31.272)"/>
    </g>
    <g id="Grupo_145921" data-name="Grupo 145921" transform="translate(115.88 93.968)" opacity="0.3">
      <path id="Trazado_214737" data-name="Trazado 214737" d="M92.584,75.961V71.312l-.208-1.839a4.97,4.97,0,0,0-.278-2.012,48.19,48.19,0,0,0-1.214-5.481,7.624,7.624,0,0,0-.763-2.151c-.243-.694-.451-1.388-.729-2.081h0c-.278-.52-.555-1.041-.867-1.526-3.018-4.787-7.424-8.5-10.72-13.079a5.794,5.794,0,0,0-3.851-3.018c-2.81-.416-4.267,1.18-6.279-1.492-.52-.729-1.492-1.422-2.29-.971L66.01,39.4a.486.486,0,0,1,0,.382c0,.382-.624.52-.971.278a3.469,3.469,0,0,1-.763-.971,2.741,2.741,0,0,0-4.059-.312,1.631,1.631,0,0,0-.9-1.284,1.908,1.908,0,0,1-2.359,1.492c0-.52.8-.624,1.11-1.041s0-1.006-.451-1.388a6.036,6.036,0,0,0-3.99-1.526,5.134,5.134,0,0,1-2.532-.312c-.451-.278-.763-.694-1.214-.937a3.261,3.261,0,0,0-3.088.486,6.245,6.245,0,0,0-3.157,3.088c-.451,1.422.555,3.469,2.081,3.192a2.533,2.533,0,0,1,1.145,0c.52,0,.763.763.8,1.318a4.163,4.163,0,0,0,.243,1.6c.278.486,1.041.729,1.353.278a2.984,2.984,0,0,0,.416-2.775,3.712,3.712,0,0,1,.208-2.81c.59-.763,2.22-.52,2.116.451s-.729.971-.694,1.561.729.867,1.318.867a5.9,5.9,0,0,1,1.735,0c.59,0,1.041.9.624,1.318s-2.567-.59-2.949.416a2.255,2.255,0,0,0,0,.833c0,.833-1.145,1.145-1.977,1.249a4.683,4.683,0,0,1-2.5,0,1.6,1.6,0,0,1-.867-2.082c-.416-.312-1.075,0-1.318.486a2.949,2.949,0,0,0,0,1.561c-.9-.208-1.7.555-2.22,1.284S42.142,47.722,41.275,48s-2.081,0-2.532.694,1.145,2.324.52,3.469-1.145.555-1.8.729a2.81,2.81,0,0,0-1.18,3.955,3.469,3.469,0,0,0,4.753,0,14.571,14.571,0,0,0,1.873-3.192c.624-1.041,1.8-2.012,2.983-1.665a3.469,3.469,0,0,1,1.214.763l1.735,1.457a1.527,1.527,0,0,1,.729,1.18,3.955,3.955,0,0,1-.451,1.041c-.347,1.041,1.145,2.047,2.081,1.457a2.082,2.082,0,0,0,.416-2.914c-.9-1.214-2.914-1.839-2.879-3.469,1.041-.833,2.671,0,3.261,1.249s.624,2.567,1.145,3.816,1.908,2.324,3.088,1.735c-.312-1.075-.59-2.151-.9-3.192.763-.555,1.631,1.075,2.532.8s.59-.971.382-1.492a5.447,5.447,0,0,1-.763-1.561,1.769,1.769,0,0,1,2.047-1.8,2.706,2.706,0,0,1,2.012,2.22,3.644,3.644,0,0,0,.278,1.214c.382.833,1.388,1.075,2.255,1.422s1.7,1.214,1.353,2.047-.555.729-.416,1.11.624.451.624.833-.243.382-.451.486a17.206,17.206,0,0,0-1.735.59,1.526,1.526,0,0,0-1.006,1.388c0,.867,1.075,1.284,1.561,1.977a13.218,13.218,0,0,1,.694,2.359,8.534,8.534,0,0,0,1.284,1.873,21.475,21.475,0,0,1,2.463,6.73c.312,1.041.867,2.22,1.943,2.428a3.192,3.192,0,0,0,1.7-.347,10.407,10.407,0,0,0,4.232-2.5,3.469,3.469,0,0,0,.312-4.545.833.833,0,0,0-.52-.312,1.388,1.388,0,0,0-.8.278,2.29,2.29,0,0,1-2.394-.52,6.141,6.141,0,0,1-1.422-2.151c-.416-.833-.833-1.7-1.284-2.567a1.526,1.526,0,0,1,1.839,0A9.126,9.126,0,0,1,73.3,66.629a8.048,8.048,0,0,0,5.447,2.532,5.967,5.967,0,0,1,1.526.312c1.492.694,1.943,2.949,3.469,3.469a8.984,8.984,0,0,1,1.388.312,2.532,2.532,0,0,1,1.145,1.7,23.347,23.347,0,0,0,1.006,3.781,3.469,3.469,0,0,0,2.879,2.324,3.157,3.157,0,0,0,2.151-.937c0-1.18,0-2.428,0-3.469Z" transform="translate(-35.887 -33.585)"/>
    </g>
    <g id="Grupo_145922" data-name="Grupo 145922" transform="translate(145.029 158.813)" opacity="0.3">
      <path id="Trazado_214738" data-name="Trazado 214738" d="M49.877,52.323c-.833.173-.971.659-1.422,1.249s-1.388,1.561-1.908,2.324c-.867,1.318,0,3.469-1.249,4.441a6.661,6.661,0,0,0-.763.624,1.388,1.388,0,0,0,.278,1.873,1.908,1.908,0,0,0,2.047,0,3.157,3.157,0,0,0,1.214-1.7,1.92,1.92,0,0,1,.624-1.388c.382-.312,1.7-.173,2.567-.278C55.012,59.018,53.416,51.629,49.877,52.323Z" transform="translate(-44.289 -52.277)"/>
    </g>
    <g id="Grupo_145923" data-name="Grupo 145923" transform="translate(108.022 118.402)" opacity="0.3">
      <path id="Trazado_214739" data-name="Trazado 214739" d="M77.465,70.851c2.151-1.839,3.018-6.036.347-6.938-1.006-.382-2.186,0-3.157-.451a5.065,5.065,0,0,1-2.394-3.3L68.549,49.758c-.729-2.081-1.873-4.475-4.059-4.787a12.211,12.211,0,0,0-3.677.624c-4.232.8-11.379-9.471-14.605-2.567-.451-1.873-3.469-1.18-4.475.486s-1.18,3.885-2.741,5.03-2.914.937-3.851,2.047a5.1,5.1,0,0,0-.9,2.949c0,1.977-.312,3.955-.486,5.932a7.979,7.979,0,0,0,.555,4.683,2.81,2.81,0,0,0,4.024,1.075,11.239,11.239,0,0,0,1.214-1.839A3.053,3.053,0,0,1,42.7,62.316a5.1,5.1,0,0,1,2.428,1.7,34.241,34.241,0,0,1,7.736,22.515,12.454,12.454,0,0,0,.59,4.371,34.383,34.383,0,0,1,2.29,4.579,20.814,20.814,0,0,0,.59,3.955,4.163,4.163,0,0,0,6.314.729,10.407,10.407,0,0,0,2.914-6.626A16.825,16.825,0,0,1,67.543,86.6a24.806,24.806,0,0,0,2.671-3.677c.833-1.977.208-4.3.971-6.314C72.331,73.869,75.314,72.689,77.465,70.851Z" transform="translate(-33.622 -40.628)"/>
    </g>
    <path id="Trazado_214740" data-name="Trazado 214740" d="M129.63,84.886v-3.5a57.625,57.625,0,0,0-1.526-9.818,53.423,53.423,0,0,0-2.22-6.938,51.794,51.794,0,0,0-3.92-7.563,54.778,54.778,0,0,0-13.7-15.542,52.038,52.038,0,0,0-10.407-6.279A51.309,51.309,0,0,0,85.4,31.253a53.563,53.563,0,0,0-13.877-.763A52.521,52.521,0,0,0,64.236,31.5a55.507,55.507,0,0,0-7.251,2.116,54.119,54.119,0,0,0-25.221,19.08,53.355,53.355,0,0,0-4.406,7.146c-.659,1.249-1.214,2.567-1.8,3.851A32.735,32.735,0,0,0,24.1,67.714a49.4,49.4,0,0,0-2.047,8.4,55.507,55.507,0,0,0,0,17.346,49.782,49.782,0,0,0,2.047,8.43c.416,1.353.937,2.671,1.457,4.024a35.528,35.528,0,0,0,1.8,3.851,55.506,55.506,0,0,0,4.406,7.285,54.119,54.119,0,0,0,25.117,19.08,55.5,55.5,0,0,0,7.251,2.116,58.455,58.455,0,0,0,7.285,1.041,53.528,53.528,0,0,0,13.877-.8,51.31,51.31,0,0,0,12.454-3.99,52.036,52.036,0,0,0,10.407-6.279,54.778,54.778,0,0,0,13.807-15.368,51.794,51.794,0,0,0,3.747-7.667,53.421,53.421,0,0,0,2.22-6.938,57.62,57.62,0,0,0,1.526-9.818V84.956a5.34,5.34,0,0,1,0,.867,24.661,24.661,0,0,1,0,2.6,51.344,51.344,0,0,1-1.492,9.852,55.887,55.887,0,0,1-5.9,14.57,55.194,55.194,0,0,1-13.877,15.646,52.037,52.037,0,0,1-10.407,6.314,53.218,53.218,0,0,1-12.558,4.024,53.979,53.979,0,0,1-14.085.8,48.914,48.914,0,0,1-7.32-1.041,57.415,57.415,0,0,1-7.285-2.081,54.951,54.951,0,0,1-29.731-26.4c-.659-1.249-1.214-2.567-1.8-3.885a39.836,39.836,0,0,1-1.492-4.024,57.9,57.9,0,0,1-2.047-8.465,55.506,55.506,0,0,1,2.324-25.984c.451-1.388.971-2.706,1.492-4.059a30.18,30.18,0,0,1,1.839-3.851,50.754,50.754,0,0,1,4.406-7.216,54.813,54.813,0,0,1,25.29-19.184A57.413,57.413,0,0,1,64.1,31.357a48.917,48.917,0,0,1,7.32-1.041,53.548,53.548,0,0,1,37.016,11.205A55.194,55.194,0,0,1,122.31,57.168a55.888,55.888,0,0,1,5.9,14.57A51.344,51.344,0,0,1,129.7,81.59a24.661,24.661,0,0,1,0,2.6A5.933,5.933,0,0,1,129.63,84.886Z" transform="translate(42.877 51.943)" fill="#263238"/>
    <path id="Trazado_214741" data-name="Trazado 214741" d="M37.18,138.846V84.658C37.18,114.562,37.284,138.846,37.18,138.846Z" transform="translate(83.186 52.692)" fill="#263238"/>
    <path id="Trazado_214742" data-name="Trazado 214742" d="M38.08,138.46l.278-.208.8-.52c.694-.486,1.735-1.214,3.018-2.22a59.186,59.186,0,0,0,9.679-9.61,63.485,63.485,0,0,0,9.887-17.727,78.229,78.229,0,0,0,4.371-24.457,87.77,87.77,0,0,0-2.775-24.77,50.476,50.476,0,0,0-9.124-18.074,32.713,32.713,0,0,0-5.585-5.447,29.071,29.071,0,0,0-5.03-3.192,37.471,37.471,0,0,0-3.469-1.422L39.19,30.5h.035l.937.278a30.458,30.458,0,0,1,3.469,1.353,28.1,28.1,0,0,1,5.1,3.053,31.708,31.708,0,0,1,5.655,5.447,49.262,49.262,0,0,1,9.228,18.144,85.757,85.757,0,0,1,2.81,24.839,76.945,76.945,0,0,1-4.336,24.527A62.688,62.688,0,0,1,52.026,125.9a56.86,56.86,0,0,1-9.783,9.679c-1.284.971-2.324,1.7-3.053,2.151l-.833.52Z" transform="translate(85.408 52.766)" fill="#263238"/>
    <path id="Trazado_214743" data-name="Trazado 214743" d="M57.924,138.742h-.278l-.867-.555c-.729-.451-1.769-1.18-3.122-2.151a68.69,68.69,0,0,1-10.234-9.61,66.574,66.574,0,0,1-5.793-7.771,49.747,49.747,0,0,1-5-10.026,70.6,70.6,0,0,1-3.261-11.864,90.2,90.2,0,0,1,1.6-38.438,51.171,51.171,0,0,1,4.2-10.407,35.628,35.628,0,0,1,5.689-7.875A36.149,36.149,0,0,1,52.235,32.1c1.526-.659,2.741-1.075,3.469-1.353l.971-.278h0l-.937.312a33.763,33.763,0,0,0-3.469,1.388A34.969,34.969,0,0,0,35.236,47.989,50.753,50.753,0,0,0,31.107,58.4a85.583,85.583,0,0,0-2.914,25.186A93.665,93.665,0,0,0,29.512,96.7a70.7,70.7,0,0,0,3.261,11.8,49.02,49.02,0,0,0,4.926,9.922,66.433,66.433,0,0,0,5.9,7.563,70.078,70.078,0,0,0,10.13,9.679c1.318.971,2.359,1.735,3.122,2.22l.8.555a.728.728,0,0,1,.278.312Z" transform="translate(60.568 52.692)" fill="#263238"/>
    <path id="Trazado_214744" data-name="Trazado 214744" d="M129.021,45.715s-24.284.173-53.945.173-53.945,0-53.945-.173,24.284,0,53.945,0S129.021,45.611,129.021,45.715Z" transform="translate(43.556 90.143)" fill="#263238"/>
    <path id="Trazado_214745" data-name="Trazado 214745" d="M115.347,37.753H23.31s20.607-.173,46-.173S115.347,37.684,115.347,37.753Z" transform="translate(48.939 70.247)" fill="#263238"/>
    <path id="Trazado_214746" data-name="Trazado 214746" d="M117.013,53.963H22.86s21.092-.173,47.076-.173S117.013,53.859,117.013,53.963Z" transform="translate(47.827 110.272)" fill="#263238"/>
    <path id="Trazado_214747" data-name="Trazado 214747" d="M106.862,76.221H39.006A17.346,17.346,0,0,1,21.66,58.876h0A17.346,17.346,0,0,1,39.006,41.53h67.857a17.346,17.346,0,0,1,17.346,17.346h0A17.346,17.346,0,0,1,106.862,76.221Z" transform="translate(44.864 80)" fill="#fff"/>
    <path id="Trazado_214748" data-name="Trazado 214748" d="M107.007,76.542h.659a18.42,18.42,0,0,0,1.839-.208,16.756,16.756,0,0,0,6.626-2.428,21.407,21.407,0,0,0,1.977-1.422l.971-.9a8.677,8.677,0,0,0,1.041-1.041,16.9,16.9,0,0,0,3.157-5.169,17.346,17.346,0,0,0-6.7-20.815,12.453,12.453,0,0,0-1.977-1.11,12.7,12.7,0,0,0-2.151-.867,17.693,17.693,0,0,0-4.683-.833H39.151a17.346,17.346,0,0,0-11.344,4.3,17.034,17.034,0,0,0-3.781,4.718,17.346,17.346,0,0,0-1.8,11.483,18.073,18.073,0,0,0,2.012,5.516,17.346,17.346,0,0,0,8.187,7.285,18.455,18.455,0,0,0,5.2,1.284H37.59a19.427,19.427,0,0,1-5.308-1.284A17.762,17.762,0,0,1,21.874,62.146a16.236,16.236,0,0,1,0-5.932,17.172,17.172,0,0,1,5.759-10.407A17.8,17.8,0,0,1,39.22,41.4h68.446a17.971,17.971,0,0,1,4.753.833,17.03,17.03,0,0,1,2.186.9,18.7,18.7,0,0,1,2.012,1.11,18.421,18.421,0,0,1,5.863,6.418,17.346,17.346,0,0,1-2.359,20.017c-.347.312-.624.694-.971,1.006l-.971.867a17.862,17.862,0,0,1-2.012,1.422,17,17,0,0,1-6.7,2.394,10.856,10.856,0,0,1-1.839.173Z" transform="translate(44.719 79.679)" fill="#263238"/>
    <path id="Trazado_214749" data-name="Trazado 214749" d="M52.417,44.08,47.04,59.136h-5.1L39.1,50.949l-2.949,8.187h-5.1L25.67,44.08h5L33.753,53.2l3.226-9.124h4.475l3.122,9.193L47.63,44.08Z" transform="translate(54.766 86.297)" fill="#263238"/>
    <path id="Trazado_214750" data-name="Trazado 214750" d="M59.947,44.08,54.57,59.136H49.436l-2.81-8.187-2.949,8.187H38.542L33.2,44.08h5L41.283,53.2l3.192-9.124h4.51l3.122,9.193L55.3,44.08Z" transform="translate(73.358 86.297)" fill="#263238"/>
    <path id="Trazado_214751" data-name="Trazado 214751" d="M67.467,44.08,62.09,59.136h-5.1l-2.845-8.187L51.2,59.136H46.1L40.72,44.08h5L48.8,53.2l3.3-9.124h4.51l3.122,9.193,3.192-9.193Z" transform="translate(91.926 86.297)" fill="#263238"/>
    <path id="Trazado_214752" data-name="Trazado 214752" d="M45.793,56.234,22.272,63.172a1.249,1.249,0,0,0-.52,2.116L37.779,80.8a1.249,1.249,0,0,0,2.081-.486l7.493-22.376a1.249,1.249,0,0,0-1.561-1.7Z" transform="translate(44.113 116.119)" fill="#263238"/>
    <path id="Trazado_214753" data-name="Trazado 214753" d="M19,74.493l16.583-15.4,6.591,6.418L25.7,81.327Z" transform="translate(38.296 123.359)" fill="#263238"/>
    <path id="Trazado_214754" data-name="Trazado 214754" d="M250.214,21.473H3.87S59.029,21.3,127.059,21.3,250.214,21.369,250.214,21.473Z" transform="translate(0.938 30.05)" fill="#263238"/>
    <path id="Trazado_214755" data-name="Trazado 214755" d="M12.966,18.26a40.1,40.1,0,0,1-3.781,3.712A37.71,37.71,0,0,1,5.16,25.441a40.1,40.1,0,0,1,3.781-3.712,37.709,37.709,0,0,1,4.024-3.469Z" transform="translate(4.123 22.543)" fill="#263238"/>
    <path id="Trazado_214756" data-name="Trazado 214756" d="M12.431,25.941A40.1,40.1,0,0,1,8.719,22.16,43.294,43.294,0,0,1,5.25,18.17a40.1,40.1,0,0,1,3.712,3.781,49.4,49.4,0,0,1,3.469,3.99Z" transform="translate(4.346 22.321)" fill="#263238"/>
    <path id="Trazado_214757" data-name="Trazado 214757" d="M16.659,25.777v-7.32H9.2l.173-.173h0v7.424H9.3V18.353h0V18.18h7.632v6.973C16.693,25.6,16.693,25.777,16.659,25.777Z" transform="translate(14.099 22.346)" fill="#263238"/>
    <path id="Trazado_214758" data-name="Trazado 214758" d="M21.074,20.321a26.574,26.574,0,0,1-3.99.173,27.267,27.267,0,0,1-4.024-.173,22.549,22.549,0,0,1,4.024-.173,22,22,0,0,1,3.99.173Z" transform="translate(23.63 27.143)" fill="#263238"/>
    <path id="Trazado_214759" data-name="Trazado 214759" d="M29,24.1h1.492v6.591H29Z" transform="translate(62.988 36.963)" fill="#263238"/>
    <path id="Trazado_214760" data-name="Trazado 214760" d="M34.955,26.7v2.983H33.5v-2.6c0-.833-.347-1.18-1.006-1.18a1.153,1.153,0,0,0-1.18,1.318v2.463H29.89v-5.1h1.353v.59a2.081,2.081,0,0,1,1.665-.659A1.943,1.943,0,0,1,34.955,26.7Z" transform="translate(65.186 37.972)" fill="#263238"/>
    <path id="Trazado_214761" data-name="Trazado 214761" d="M35.366,30.038a2.151,2.151,0,0,1-1.179.312,1.631,1.631,0,0,1-1.839-1.769V26.534h-.8v-1.11h.8V24.21H33.77v1.214h1.249v1.11H33.77v2.012a.59.59,0,0,0,.624.659,1.179,1.179,0,0,0,.59,0Z" transform="translate(69.284 37.235)" fill="#263238"/>
    <path id="Trazado_214762" data-name="Trazado 214762" d="M37.934,27.462H34.187a1.318,1.318,0,0,0,1.422,1.006,1.631,1.631,0,0,0,1.249-.486l.763.833A2.914,2.914,0,0,1,32.73,27.08,2.532,2.532,0,0,1,35.4,24.513a2.428,2.428,0,0,1,2.567,2.567,1.422,1.422,0,0,1-.035.382Zm-3.781-.833h2.463a1.249,1.249,0,0,0-2.463,0Z" transform="translate(72.198 37.973)" fill="#263238"/>
    <path id="Trazado_214763" data-name="Trazado 214763" d="M37.608,24.515v1.318h-.347a1.214,1.214,0,0,0-1.318,1.388v2.463H34.52v-5.1h1.388v.659a1.977,1.977,0,0,1,1.7-.729Z" transform="translate(76.618 37.971)" fill="#263238"/>
    <path id="Trazado_214764" data-name="Trazado 214764" d="M40.725,26.7v2.983H39.268v-2.6c0-.833-.347-1.18-1.006-1.18a1.153,1.153,0,0,0-1.18,1.318v2.463H35.66v-5.1h1.353v.59a2.081,2.081,0,0,1,1.665-.659A1.943,1.943,0,0,1,40.725,26.7Z" transform="translate(79.433 37.972)" fill="#263238"/>
    <path id="Trazado_214765" data-name="Trazado 214765" d="M42.614,27.462H38.833a1.318,1.318,0,0,0,1.422,1.006,1.561,1.561,0,0,0,1.249-.486l.763.833a2.6,2.6,0,0,1-2.047.8,2.567,2.567,0,0,1-2.81-2.532,2.532,2.532,0,0,1,2.637-2.567,2.428,2.428,0,0,1,2.567,2.567Zm-3.781-.833h2.428a1.214,1.214,0,1,0-2.428,0Z" transform="translate(83.753 37.973)" fill="#263238"/>
    <path id="Trazado_214766" data-name="Trazado 214766" d="M42.885,30.038a2.151,2.151,0,0,1-1.18.312,1.63,1.63,0,0,1-1.873-1.769V26.534H39v-1.11h.763V24.21H41.22v1.214h1.249v1.11H41.255v2.012c0,.451.208.659.624.659a.971.971,0,0,0,.555,0Z" transform="translate(87.679 37.235)" fill="#263238"/>
    <path id="Trazado_214767" data-name="Trazado 214767" d="M41.15,24.1h2.741a3.226,3.226,0,0,1,0,6.453H41.15Zm2.671,5.655a2.428,2.428,0,1,0,0-4.857H42.087v4.857Z" transform="translate(92.988 36.963)" fill="#263238"/>
    <path id="Trazado_214768" data-name="Trazado 214768" d="M47.477,26.351v3.088H46.61v-.624a1.839,1.839,0,0,1-1.6.694c-1.11,0-1.8-.59-1.8-1.457s.486-1.422,1.943-1.422h1.422c0-.763-.451-1.18-1.318-1.18a2.567,2.567,0,0,0-1.561.52l-.347-.659a3.088,3.088,0,0,1,2.012-.624C46.714,24.374,47.477,25,47.477,26.351Zm-.9,1.457v-.694H45.222c-.9,0-1.145.347-1.145.763s.416.8,1.075.8A1.422,1.422,0,0,0,46.575,27.809Z" transform="translate(98.075 38.216)" fill="#263238"/>
    <path id="Trazado_214769" data-name="Trazado 214769" d="M49.957,24.55,47.6,29.927c-.451,1.041-1.006,1.353-1.769,1.353a1.8,1.8,0,0,1-1.249-.451l.382-.659a1.249,1.249,0,0,0,.867.382c.451,0,.694-.208.937-.763v-.347L44.615,24.55h.9l1.7,3.92,1.7-3.92Z" transform="translate(101.457 38.074)" fill="#263238"/>
    <path id="Trazado_214770" data-name="Trazado 214770" d="M80.913,41.55s-8.291,2.255-9.852,8.5c-2.463,9.887-9.956,39.1-9.956,39.1L53.16,95.565l5.065,8.361a31.223,31.223,0,0,0,12.524-7.632c3.712-4.753,7.459-22.515,7.459-22.515Z" transform="translate(122.643 80.05)" fill="#455a64"/>
    <path id="Trazado_214771" data-name="Trazado 214771" d="M90.037,32.136a6.938,6.938,0,0,1,8.152-.624,3.781,3.781,0,0,1,5,1.561l5.308,1.006a5.655,5.655,0,0,1,2.567.971,1.908,1.908,0,0,1,.486,2.463,2.845,2.845,0,0,1,1.318,4.545,2.012,2.012,0,0,1-.208,2.914,19.844,19.844,0,0,1,3.469,5.793,4.059,4.059,0,0,1,.312,2.775,1.631,1.631,0,0,1-2.255,1.006,2.324,2.324,0,0,1,0,2.532c.9,0,1.214,1.353.59,2.012a3.122,3.122,0,0,1-2.463.763,4.406,4.406,0,0,0-2.6.52.833.833,0,0,0,.312.555,3.677,3.677,0,0,1,.937,5,2.879,2.879,0,0,0-.278.416,8.742,8.742,0,0,1-2.567,1.873,13.669,13.669,0,0,1-5.447,1.318c.659,1.422-2.914,4.753-7.181,1.665a80.866,80.866,0,0,1-22.966,3.677c-1.249,0-2.741,0-3.3-1.18a3.122,3.122,0,0,1-2.845-.867,9.853,9.853,0,0,1-1.735-2.567,5.412,5.412,0,0,1-3.99-4.753,6.661,6.661,0,0,1-2.394-4.822,3.92,3.92,0,0,1-2.359-5.2,23.765,23.765,0,0,1,2.394-7.355,2.567,2.567,0,0,1-1.422-3.469,7.32,7.32,0,0,1,3.018-3.053c-1.075.312-2.012-1.006-1.8-2.047A4.267,4.267,0,0,1,60.2,37.132a19.949,19.949,0,0,1,4.336-2.081,9.367,9.367,0,0,1,4.51-4.891c6.938-3.469,11.864-4.475,20.988,1.873" transform="translate(128.679 45.128)" fill="#263238"/>
    <path id="Trazado_214772" data-name="Trazado 214772" d="M86.6,37.172a2.879,2.879,0,0,0-2.5-2.983L69.076,29.956c-4.857-.659-8.257,5.2-8.673,10.061a85.55,85.55,0,0,0-.382,16.1,10.407,10.407,0,0,0,8.326,9.263v5.9l-.208,6.938c2.324-.347,17.346-7.424,17.346-7.424Z" transform="translate(139.059 51.297)" fill="#ffbe9d"/>
    <path id="Trazado_214773" data-name="Trazado 214773" d="M64.208,42.932a6.175,6.175,0,0,0-1.8-.382c-.278,0-.555,0-.59-.312a1.117,1.117,0,0,1,.208-.833l.9-2.151A37.192,37.192,0,0,0,65.006,33.6a39.686,39.686,0,0,0-2.532,5.481c-.278.763-.59,1.492-.867,2.151a1.8,1.8,0,0,0,0,1.145.659.659,0,0,0,.451.416,1.249,1.249,0,0,0,.486,0,6.938,6.938,0,0,0,1.665.139Z" transform="translate(143.268 60.42)" fill="#263238"/>
    <path id="Trazado_214774" data-name="Trazado 214774" d="M62.319,41.858a17.346,17.346,0,0,0,9.887-2.5s-1.492,6-9.956,5.308Z" transform="translate(145.087 74.642)" fill="#eb996e"/>
    <path id="Trazado_214775" data-name="Trazado 214775" d="M63.342,33.271c0,.312,1.249.208,2.567.382s2.359.59,2.532.347,0-.451-.52-.729a4.059,4.059,0,0,0-1.873-.729,4.267,4.267,0,0,0-1.977,0Q63.29,33.063,63.342,33.271Z" transform="translate(147.776 57.523)" fill="#263238"/>
    <path id="Trazado_214776" data-name="Trazado 214776" d="M60.534,33.461c.173.278.971,0,1.873,0s1.735.208,1.908,0,0-.382-.382-.659a2.567,2.567,0,0,0-1.526-.451,2.5,2.5,0,0,0-1.526.486C60.569,33.079,60.43,33.322,60.534,33.461Z" transform="translate(140.767 57.333)" fill="#263238"/>
    <path id="Trazado_214777" data-name="Trazado 214777" d="M58.94,46.219a5.793,5.793,0,0,1,1.284-3.469,19.782,19.782,0,0,0,1.492-1.457c.9-1.214.729-2.879,1.11-4.336a6.106,6.106,0,0,1,3.712-4.336A30.182,30.182,0,0,0,71.221,31.3c1.041-.555,1.8-1.561,2.879-2.047a7.389,7.389,0,0,1,6.591,1.18,5.2,5.2,0,0,1-1.492,4.3,5.655,5.655,0,0,1-4.128,2.359c-1.284,0-2.741,0-3.643.763s-.52,2.637-1.284,3.712-3.469,1.041-5.2,2.012a7.563,7.563,0,0,0-2.394,3.469c-.624,1.353-1.7,2.741-3.192,2.706a20.019,20.019,0,0,1-.416-3.539Z" transform="translate(136.914 48.912)" fill="#263238"/>
    <path id="Trazado_214778" data-name="Trazado 214778" d="M64.32,30.249a29.21,29.21,0,0,1,10.893,1.769,5.655,5.655,0,0,1,2.706,1.8,5.2,5.2,0,0,1,.59,2.81,27.961,27.961,0,0,1-2.255,9.61l-3.747,2.324c-2.949-.624-1.665-5.689-1.561-8.222a5.9,5.9,0,0,1-3.469-5.238A6.453,6.453,0,0,1,64.32,30.249Z" transform="translate(150.198 52.115)" fill="#263238"/>
    <path id="Trazado_214779" data-name="Trazado 214779" d="M66.723,36.417c0-1.735,2.22-2.116,3.712-1.249a3.469,3.469,0,0,1,1.388,3.3,3.712,3.712,0,0,1-5.1,3.469S66.619,38.464,66.723,36.417Z" transform="translate(156.017 63.188)" fill="#ffbe9d"/>
    <path id="Trazado_214780" data-name="Trazado 214780" d="M67.14,39.137h.243a.9.9,0,0,0,.624,0,2.116,2.116,0,0,0,1.075-1.873,2.949,2.949,0,0,0,0-1.249.775.775,0,0,0-.624-.659.416.416,0,0,0-.52.208s0,.208,0,.243v-.312a.728.728,0,0,1,.208-.278.59.59,0,0,1,.486,0,1.18,1.18,0,0,1,.867.8,2.914,2.914,0,0,1,.243,1.388,2.186,2.186,0,0,1-1.353,2.047.867.867,0,0,1-.763,0,.729.729,0,0,1-.486-.312Z" transform="translate(157.161 64.284)" fill="#eb996e"/>
    <path id="Trazado_214781" data-name="Trazado 214781" d="M74.372,54.074h0a1.006,1.006,0,0,0,.555.52,4.787,4.787,0,0,0,2.012.173,4.2,4.2,0,0,0,.867-.278h0a2.6,2.6,0,0,0,1.353,1.769,2.5,2.5,0,0,0,2.567-.278h0a1.075,1.075,0,0,0,.659.416,1.631,1.631,0,0,0,.8,0,1.318,1.318,0,0,0,.624-.52,2.151,2.151,0,0,0,.243-.8,2.532,2.532,0,0,0-.59-1.631A6.453,6.453,0,0,0,82.143,52.2h0a1.631,1.631,0,0,0,.763-1.18,2.359,2.359,0,0,0-.173-1.457,3.261,3.261,0,0,0-.867-1.214,11,11,0,0,0-1.179-.971h0a1.873,1.873,0,0,0,.486-1.457,2.567,2.567,0,0,0-.59-1.457,6.661,6.661,0,0,0-2.428-1.631h0a3.226,3.226,0,0,0-3.469-3.99h0a2.741,2.741,0,0,0-.694-2.359,2.845,2.845,0,0,0-2.081-1.006h0a2.671,2.671,0,0,0-1.145-2.116,2.706,2.706,0,0,0-2.047-.555h0a2.671,2.671,0,0,0-.416-1.284,3.3,3.3,0,0,0-2.428-1.561h-.694a1.388,1.388,0,0,0-.451,0h0a1.388,1.388,0,0,1,.451,0h.659a2.983,2.983,0,0,1,1.665.694,3.782,3.782,0,0,1,.729.9,2.81,2.81,0,0,1,.416,1.214h0a2.6,2.6,0,0,1,1.977.52,2.567,2.567,0,0,1,1.11,2.047h0a2.567,2.567,0,0,1,1.977.937,2.706,2.706,0,0,1,.659,2.29h0a3.087,3.087,0,0,1,2.637.937,3.122,3.122,0,0,1,.8,2.879h0a6.591,6.591,0,0,1,2.394,1.6,2.429,2.429,0,0,1,.52,1.388,1.527,1.527,0,0,1-.416,1.318h0A6.175,6.175,0,0,1,82.316,48.8a2.255,2.255,0,0,1,0,1.353,1.6,1.6,0,0,1-.694,1.11h0a7.147,7.147,0,0,1,1.284,1.214A2.359,2.359,0,0,1,83.461,54a1.318,1.318,0,0,1-.8,1.249,1.041,1.041,0,0,1-1.284-.278h0a2.29,2.29,0,0,1-2.463.278A2.5,2.5,0,0,1,77.6,53.588h0a3.92,3.92,0,0,1-.833.278h-.8a3.469,3.469,0,0,1-1.179-.208,1.249,1.249,0,0,1-.59-.486Z" transform="translate(150.519 51.395)" fill="#455a64"/>
    <path id="Trazado_214782" data-name="Trazado 214782" d="M92.641,50.153a1.179,1.179,0,0,0,0-.278,2.185,2.185,0,0,0,.243-.971,2.532,2.532,0,0,0-.416-1.561,2.637,2.637,0,0,0-1.8-1.11h0A3.454,3.454,0,0,0,89.206,42.8a6.661,6.661,0,0,0-1.353-.59,4.093,4.093,0,0,1-.659-.382,1.8,1.8,0,0,1-.451-.59c-.243-.486-.312-1.041-.59-1.526a2.983,2.983,0,0,0-3.018-1.457h0a4.059,4.059,0,0,0-1.075-3.226,3.99,3.99,0,0,0-3.469-1.145h0a3.469,3.469,0,0,0-5.447-3.157h0A4.649,4.649,0,0,0,71.41,29.72a6.487,6.487,0,0,0-1.769-.382,8.4,8.4,0,0,0-2.914.243,6.661,6.661,0,0,0-1.7.763c-.208,0-.312.243-.416.278h0l.555-.382a6,6,0,0,1,1.735-.729,9.193,9.193,0,0,1,2.879-.208,6.522,6.522,0,0,1,1.735.382,4.51,4.51,0,0,1,1.7,1.006h0a3.353,3.353,0,0,1,5.273,3.053h0a3.781,3.781,0,0,1,3.226,1.11,3.92,3.92,0,0,1,1.041,3.122h0A2.879,2.879,0,0,1,85.6,39.364a11.1,11.1,0,0,1,.59,1.492,2.428,2.428,0,0,0,.52.659,3.225,3.225,0,0,0,.659.382,9.891,9.891,0,0,1,1.353.59,3.122,3.122,0,0,1,.937.971,3.192,3.192,0,0,1,.486,2.324h0a2.6,2.6,0,0,1,1.735,1.041,2.706,2.706,0,0,1,.451,1.492,2.6,2.6,0,0,1-.243.971,1.422,1.422,0,0,1,.555.867Z" transform="translate(150.914 49.729)" fill="#455a64"/>
    <path id="Trazado_214783" data-name="Trazado 214783" d="M61.547,51.741v-.382a.972.972,0,0,0-.278-.416,1.492,1.492,0,0,0-.624-.278,3.469,3.469,0,0,1-.763-.312,1.526,1.526,0,0,1-.555-.8,2.29,2.29,0,0,1,0-1.11V47.127a13.633,13.633,0,0,0-.659-2.879,4.267,4.267,0,0,1,0-1.63,2.151,2.151,0,0,1,.867-1.388,8.535,8.535,0,0,1,1.735-.624,3.469,3.469,0,0,0,.867-.416,1.908,1.908,0,0,0,.59-.8,7.25,7.25,0,0,0,.486-1.943,3.052,3.052,0,0,1,.347-.937,1.6,1.6,0,0,1,.694-.659,8.915,8.915,0,0,1,1.388-.208,1.561,1.561,0,0,0,.659-.173,1.457,1.457,0,0,0,.555-.451,4.857,4.857,0,0,0,.486-1.284,3.122,3.122,0,0,1,.59-1.11,2.949,2.949,0,0,1,4.232-.347h0a4.822,4.822,0,0,1,2.879-2.567,4.51,4.51,0,0,1,1.631-.173,4.059,4.059,0,0,1,1.388.382A3.469,3.469,0,0,1,79.517,31.2l.243.451h0l-.312-.382a3.677,3.677,0,0,0-1.457-1.318,3.469,3.469,0,0,0-1.388-.382,4.128,4.128,0,0,0-1.7,0,4.753,4.753,0,0,0-2.949,2.637h0a3.469,3.469,0,0,0-2.22-.763,3.261,3.261,0,0,0-2.22,1.11,3.851,3.851,0,0,0-.624,1.18A4.683,4.683,0,0,1,66.4,34.95a1.388,1.388,0,0,1-1.11.59,6.382,6.382,0,0,0-1.388.208,1.8,1.8,0,0,0-.8.729,3.469,3.469,0,0,0-.347.971,11.344,11.344,0,0,1-.451,1.943,1.943,1.943,0,0,1-.59.729,2.289,2.289,0,0,1-.833.382,7.46,7.46,0,0,0-1.735.659,1.631,1.631,0,0,0-.624.659,2.186,2.186,0,0,0-.312.833,5.342,5.342,0,0,0,0,1.665,12.072,12.072,0,0,1,.694,2.845V48.48a3.053,3.053,0,0,0,0,1.145,1.631,1.631,0,0,0,.624.8,2.915,2.915,0,0,0,.8.312,1.873,1.873,0,0,1,.59.278l.312.382a.555.555,0,0,1,.312.347Z" transform="translate(134.967 50.258)" fill="#455a64"/>
    <path id="Trazado_214784" data-name="Trazado 214784" d="M56.34,46.794h0v-.278l.486-1.075c.243-.486.486-1.075.833-1.7a4.337,4.337,0,0,1,1.6-1.8c.416-.208.867-.347,1.318-.59a2.5,2.5,0,0,0,.659-.382,1.8,1.8,0,0,0,.486-.659,12.449,12.449,0,0,0,.416-1.63,1.249,1.249,0,0,1,.451-.659,3.469,3.469,0,0,1,.8-.382l.867-.347a1.665,1.665,0,0,0,.659-.729,7.18,7.18,0,0,0,.382-1.908,2.776,2.776,0,0,1,.312-.9,1.18,1.18,0,0,1,.763-.52,8.353,8.353,0,0,1,2.081,0,1.7,1.7,0,0,0,.937-.52,3.816,3.816,0,0,0,.59-.867l.52-.833a1.561,1.561,0,0,1,.729-.624,2.567,2.567,0,0,1,1.839,0,4.3,4.3,0,0,0,1.873,0,5.031,5.031,0,0,0,1.63-.763,7.563,7.563,0,0,1,1.422-.833,4.961,4.961,0,0,1,2.914,0,5.377,5.377,0,0,1,2.186,1.075A6.071,6.071,0,0,1,84.3,31.253a4.718,4.718,0,0,1,.52,1.041v.278h0v-.278a5.272,5.272,0,0,0-.486-1.075A6.937,6.937,0,0,0,83.122,29.8a5.793,5.793,0,0,0-2.22-1.11,5.2,5.2,0,0,0-2.983,0,6.938,6.938,0,0,0-1.457.833,6.071,6.071,0,0,1-1.6.729,4.059,4.059,0,0,1-1.8,0,4.372,4.372,0,0,0-.971,0,1.63,1.63,0,0,0-.971.173,1.978,1.978,0,0,0-.763.659c-.208.278-.382.59-.555.867a4.96,4.96,0,0,1-.555.833,1.8,1.8,0,0,1-.867.486H66.3a1.353,1.353,0,0,0-.729.52,2.29,2.29,0,0,0-.312.937,6.418,6.418,0,0,1-.382,1.873,1.561,1.561,0,0,1-.59.659l-.833.347a2.359,2.359,0,0,0-.833.416,1.561,1.561,0,0,0-.52.729c-.173.555-.173,1.145-.382,1.63a2.081,2.081,0,0,1-1.075.971c-.451.243-.937.382-1.318.624a4.371,4.371,0,0,0-1.665,1.839c-.312.659-.555,1.214-.763,1.7l-.451,1.075v.278Z" transform="translate(130.494 47.746)" fill="#455a64"/>
    <path id="Trazado_214785" data-name="Trazado 214785" d="M59.118,32.254h0a.382.382,0,0,0-.243,0,.971.971,0,0,0-.486.867,2.637,2.637,0,0,0,0,.729,2.393,2.393,0,0,1,0,.867,1.769,1.769,0,0,1-.312.9c-.208.312-.416.59-.624.971a1.353,1.353,0,0,0,0,1.214c0,.416.486.763.624,1.18a1.769,1.769,0,0,1,0,1.388c0,.451-.451.867-.624,1.388a1.561,1.561,0,0,0,0,.8,2.047,2.047,0,0,0,.173.8,13.878,13.878,0,0,0,.971,1.388,2.22,2.22,0,0,1,.555,1.561,7.98,7.98,0,0,1-.59,1.665,2.6,2.6,0,0,0,0,.9,2.047,2.047,0,0,0,.243.9,6.939,6.939,0,0,0,1.075,1.353,3.469,3.469,0,0,1,.867,1.388c.208.52.312,1.041.555,1.526a1.492,1.492,0,0,0,.52.624,2.5,2.5,0,0,0,.694.312l.694.243a1.977,1.977,0,0,1,.555.382,4.059,4.059,0,0,1,.833,1.041c.243.347.451.694.694,1.006A3.157,3.157,0,0,0,67.027,58.9a3.747,3.747,0,0,0,1.6,0,3.157,3.157,0,0,0,.971-.312h.312A4.544,4.544,0,0,1,68.623,59a3.781,3.781,0,0,1-1.6,0,3.469,3.469,0,0,1-1.665-1.214,10.408,10.408,0,0,1-.659-1.041,4.233,4.233,0,0,0-.867-1.075,2.29,2.29,0,0,0-.59-.416l-.694-.243a1.873,1.873,0,0,1-.659-.278,2.012,2.012,0,0,1-.486-.59,14.953,14.953,0,0,1-.52-1.492,4.267,4.267,0,0,0-.9-1.457,7.771,7.771,0,0,1-1.075-1.318,2.463,2.463,0,0,1-.208-.833,2.394,2.394,0,0,1,0-.833,10.1,10.1,0,0,0,.555-1.735,1.908,1.908,0,0,0,0-.867,3.469,3.469,0,0,0-.451-.763c-.312-.486-.694-.9-.937-1.353a2.047,2.047,0,0,1-.173-.763,1.874,1.874,0,0,1,0-.763c.173-.486.416-.937.624-1.388a2.116,2.116,0,0,0,0-1.457c0-.451-.486-.8-.659-1.18a1.214,1.214,0,0,1,0-1.145,11.029,11.029,0,0,1,.59-.937,2.186,2.186,0,0,0,.347-.971,2.95,2.95,0,0,0,0-.867,1.943,1.943,0,0,1,0-.729.937.937,0,0,1,.416-.833C58.979,32.219,59.118,32.289,59.118,32.254Z" transform="translate(132.886 57.048)" fill="#455a64"/>
    <path id="Trazado_214786" data-name="Trazado 214786" d="M90.551,53.162h.416a2.047,2.047,0,0,0,1.006-.451,2.463,2.463,0,0,0,1.006-1.457,2.637,2.637,0,0,0-.416-2.324,9.158,9.158,0,0,0-1.006-1.006,3.469,3.469,0,0,1-.937-1.145,2.047,2.047,0,0,1,0-1.561c0-.52.451-1.041.624-1.631a5,5,0,0,0-.451-3.712,4.926,4.926,0,0,0-3.3-2.394h0a2.5,2.5,0,0,0,.382-1.11,2.567,2.567,0,0,0,0-1.145,3.088,3.088,0,0,0-.52-1.075,3.955,3.955,0,0,0-.833-.867,7.7,7.7,0,0,0-3.261-1.249,12,12,0,0,0-3.469,0h0a3.526,3.526,0,0,0-3.781-3.3,5.69,5.69,0,0,0-1.6.451,3.018,3.018,0,0,1-.763,0,1.735,1.735,0,0,1-.728,0,5.655,5.655,0,0,1-1.318-.59,4.926,4.926,0,0,0-1.249-.555,3.955,3.955,0,0,0-1.249,0,3.851,3.851,0,0,0-2.047.59,4.44,4.44,0,0,0-1.179,1.041,3.851,3.851,0,0,0-.486.867v0a7.146,7.146,0,0,1,.52-.833A4.441,4.441,0,0,1,67.1,28.67a4.3,4.3,0,0,1,2.012-.555,3.816,3.816,0,0,1,1.214,0,5.342,5.342,0,0,1,1.214.52,5.446,5.446,0,0,0,1.353.659,1.908,1.908,0,0,0,.763,0,2.983,2.983,0,0,0,.8-.208,6,6,0,0,1,1.6-.416,3.259,3.259,0,0,1,3.573,3.157h0a11.517,11.517,0,0,1,3.261,0,7.25,7.25,0,0,1,3.192,1.249,3.128,3.128,0,0,1,1.318,1.839,2.949,2.949,0,0,1,0,1.11,2.116,2.116,0,0,1-.382,1.006h0a4.718,4.718,0,0,1,3.469,5.932c0,.555-.451,1.075-.624,1.631a2.394,2.394,0,0,0,0,1.631,3.747,3.747,0,0,0,.971,1.214,6.73,6.73,0,0,1,1.006.971,2.637,2.637,0,0,1,.416,2.22,2.428,2.428,0,0,1-.971,1.457,3.226,3.226,0,0,1-1.006.486Z" transform="translate(152.865 46.582)" fill="#263238"/>
    <path id="Trazado_214787" data-name="Trazado 214787" d="M57.513,41.4V39.945a12,12,0,0,1,.208-1.665,8.847,8.847,0,0,1,.59-2.116,6.21,6.21,0,0,1,1.561-2.186,4.545,4.545,0,0,1,1.249-.8,13.22,13.22,0,0,1,1.526-.486A4.336,4.336,0,0,0,64.174,32a7.32,7.32,0,0,0,1.249-1.284c.347-.451.729-.937,1.145-1.388a5.066,5.066,0,0,1,1.457-1.11,8.535,8.535,0,0,1,3.469-.833,27.964,27.964,0,0,1,3.469,0,17.762,17.762,0,0,1,5.585,1.457,12.246,12.246,0,0,1,3.226,2.151l.451.416.312.347v.208h0l-.208-.243-.278-.347L83.6,30.96a12.177,12.177,0,0,0-3.226-2.22,17.346,17.346,0,0,0-5.62-1.492,22.446,22.446,0,0,0-3.469,0,8.846,8.846,0,0,0-3.469.833,4.892,4.892,0,0,0-1.492,1.145,15.09,15.09,0,0,0-1.18,1.422A6.73,6.73,0,0,1,63.966,31.9a5.55,5.55,0,0,1-1.526.694,11.071,11.071,0,0,0-1.526.451,5.446,5.446,0,0,0-1.284.833,6.071,6.071,0,0,0-1.526,2.22,8.812,8.812,0,0,0-.624,2.186,4.917,4.917,0,0,1-.173,1.665,2.21,2.21,0,0,0,0,1.075V41.4Z" transform="translate(132.687 44.57)" fill="#263238"/>
    <path id="Trazado_214788" data-name="Trazado 214788" d="M65.966,36.77,62.5,38.158H62.15a8.915,8.915,0,0,0,.729,1.8,2.047,2.047,0,0,0,1.353.9,2.116,2.116,0,0,0,1.284-.347,2.637,2.637,0,0,0,1.11-1.8,2.775,2.775,0,0,0-.659-1.943Z" transform="translate(144.84 68.247)" fill="#eb996e"/>
    <path id="Trazado_214789" data-name="Trazado 214789" d="M63.86,41.123a2.567,2.567,0,0,0,1.388-.347,2.463,2.463,0,0,0,.9-1.18,2.879,2.879,0,0,0,0-1.873,2.393,2.393,0,0,0-.173-.451V37.1h0l-.9.347-1.492.59a8.466,8.466,0,0,1-1.422.451,7.251,7.251,0,0,1,1.318-.659l1.492-.659.9-.382a.382.382,0,0,1,.382,0,.52.52,0,0,1,.173.243l.208.52a3.157,3.157,0,0,1,0,2.047,2.428,2.428,0,0,1-1.075,1.249,2.151,2.151,0,0,1-1.11.278Z" transform="translate(144.865 68.161)" fill="#263238"/>
    <path id="Trazado_214790" data-name="Trazado 214790" d="M72.2,36.992a3.781,3.781,0,0,1,.729.416,3.469,3.469,0,0,1,1.214,1.943,3.226,3.226,0,0,1,0,1.631,3.746,3.746,0,0,1-.867,1.631,4.2,4.2,0,0,1-1.7,1.145,3.886,3.886,0,0,1-2.186,0,4.232,4.232,0,0,1-1.908-1.11,3.469,3.469,0,0,1-.9-1.839,3.781,3.781,0,0,1,.9-3.261,4.059,4.059,0,0,1,1.11-.729,2.984,2.984,0,0,1,.971-.278,1.666,1.666,0,0,1,.624,0H70.4a5.2,5.2,0,0,0-.833,0,4.233,4.233,0,0,0-.937.312,2.845,2.845,0,0,0-1.041.729,3.712,3.712,0,0,0-.867,3.122,3.469,3.469,0,0,0,.9,1.735,4.336,4.336,0,0,0,1.8,1.075,3.469,3.469,0,0,0,2.081,0,3.851,3.851,0,0,0,1.631-1.075A4.683,4.683,0,0,0,74,40.877a3.55,3.55,0,0,0-1.145-3.469C72.478,37.131,72.166,37.027,72.2,36.992Z" transform="translate(155.605 67.609)" fill="#e0e0e0"/>
    <path id="Trazado_214791" data-name="Trazado 214791" d="M63.82,35.419a1.11,1.11,0,0,0,1.006,1.11,1.041,1.041,0,1,0,0-2.047,1.006,1.006,0,0,0-1.006.937Z" transform="translate(148.964 62.556)" fill="#263238"/>
    <path id="Trazado_214792" data-name="Trazado 214792" d="M60.75,35.162a1.11,1.11,0,0,0,1.006,1.11,1.006,1.006,0,0,0,1.11-.937,1.075,1.075,0,0,0-2.116-.173Z" transform="translate(141.383 62.258)" fill="#263238"/>
    <path id="Trazado_214793" data-name="Trazado 214793" d="M60.351,34.65c0,.208,1.11-.486,2.359-.347s2.081.937,2.22.763,0-.416-.382-.8a2.914,2.914,0,0,0-1.769-.8,2.845,2.845,0,0,0-1.908.486C60.455,34.269,60.281,34.581,60.351,34.65Z" transform="translate(140.361 60.063)" fill="#263238"/>
    <path id="Trazado_214794" data-name="Trazado 214794" d="M63.472,35.012c0,.173,1.075-.59,2.428-.59s2.324.694,2.463.52,0-.382-.52-.729a3.469,3.469,0,0,0-1.977-.624,3.087,3.087,0,0,0-1.943.694C63.542,34.527,63.4,35.012,63.472,35.012Z" transform="translate(148.063 60.395)" fill="#263238"/>
    <path id="Trazado_214795" data-name="Trazado 214795" d="M52.59,89.429l6.938,16.895,12.593-5.2L65.044,80.27Z" transform="translate(121.235 175.655)" fill="#ffbe9d"/>
    <path id="Trazado_214796" data-name="Trazado 214796" d="M59.116,91.983l4.094,8.881s-11.9,11.344-10.963,13.877l27.441-11.8L72.993,85.6Z" transform="translate(120.259 188.816)" fill="#455a64"/>
    <path id="Trazado_214797" data-name="Trazado 214797" d="M58.386,88.565A1.214,1.214,0,0,1,59.7,89.5a1.145,1.145,0,0,1-.9,1.318,1.318,1.318,0,0,1-1.422-1.006c0-.59.52-1.318,1.145-1.249" transform="translate(133.062 196.119)" fill="#e0e0e0"/>
    <g id="Grupo_145924" data-name="Grupo 145924" transform="translate(172.371 289.576)" opacity="0.6">
      <path id="Trazado_214798" data-name="Trazado 214798" d="M79.748,92.156,78.707,89.97,52.792,102.077s-.971,1.075-.486,1.873Z" transform="translate(-52.171 -89.97)" fill="#fff"/>
    </g>
    <path id="Trazado_214799" data-name="Trazado 214799" d="M55.233,90.365h1.6c.833,0,1.422.555,1.526.451s-.416-.8-1.457-.937S55.164,90.157,55.233,90.365Z" transform="translate(127.75 199.315)" fill="#263238"/>
    <path id="Trazado_214800" data-name="Trazado 214800" d="M54.553,90.821a2.66,2.66,0,0,1,1.388.486c.694.486,1.075.9,1.214.833s0-.833-.971-1.284S54.484,90.682,54.553,90.821Z" transform="translate(126.071 201.183)" fill="#263238"/>
    <path id="Trazado_214801" data-name="Trazado 214801" d="M55.958,93.217a2.024,2.024,0,0,0-.624-1.353c-.624-.59-1.388-.624-1.422-.486s.555.382,1.075.867S55.819,93.252,55.958,93.217Z" transform="translate(124.493 202.916)" fill="#263238"/>
    <path id="Trazado_214802" data-name="Trazado 214802" d="M54.91,89.911a6.893,6.893,0,0,1,1.422-.624c.8-.243,1.457-.312,1.492-.451s-.763-.382-1.665,0S54.806,89.911,54.91,89.911Z" transform="translate(126.928 196.3)" fill="#263238"/>
    <path id="Trazado_214803" data-name="Trazado 214803" d="M64.325,143.315,47.43,90.723a39.374,39.374,0,0,1,2.5-11.24c1.7-2.671,50.407-16.513,50.407-16.513s12.35-2.463,20.4.833,16.166,7.251,15.091,12.94a13.115,13.115,0,0,1-.729,2.567A20.815,20.815,0,0,1,115.321,92.6l-6.383.416L76.293,97.869a2.533,2.533,0,0,0-2.047,3.088l9.02,35.281a180.394,180.394,0,0,1-18.942,7.077Z" transform="translate(108.494 130.754)" fill="#263238"/>
    <path id="Trazado_214804" data-name="Trazado 214804" d="M48.744,76.9,47.53,95.144l13.6.867L63.974,74.19Z" transform="translate(108.741 160.643)" fill="#ffbe9d"/>
    <path id="Trazado_214805" data-name="Trazado 214805" d="M59.684,79.53l-.971,10.407s-15.75,4.926-16.062,7.771l29.8,1.526,1.7-18.56Z" transform="translate(96.692 173.828)" fill="#455a64"/>
    <path id="Trazado_214806" data-name="Trazado 214806" d="M49.106,82.905V82.35a3.261,3.261,0,0,1,.659-1.318l.347-.382a.8.8,0,0,1,.694,0,.382.382,0,0,1,.278.278.486.486,0,0,1,0,.382,2.6,2.6,0,0,1-.312.52c-.243.347-.451.694-.763,1.075a.971.971,0,0,1-.833.278,1.423,1.423,0,0,1-.763-.347,5.793,5.793,0,0,1-1.075-.971,2.116,2.116,0,0,1-.416-.555,1.214,1.214,0,0,1-.312-.59.52.52,0,0,1,.347-.659.971.971,0,0,1,.729,0,7.252,7.252,0,0,1,.729.8,5.239,5.239,0,0,1,.659,1.353v.52A6.557,6.557,0,0,0,48.1,81a4.82,4.82,0,0,0-.729-.728.659.659,0,0,0-.416,0,.277.277,0,0,0,0,.312,1.284,1.284,0,0,0,.278.52,1.839,1.839,0,0,0,.416.486,4.544,4.544,0,0,0,1.041.937,1.318,1.318,0,0,0,.59.278.555.555,0,0,0,.486-.174l.763-1.041a4.373,4.373,0,0,0,.312-.451.454.454,0,0,0,0-.312.84.84,0,0,0-.763.382,3.851,3.851,0,0,0-.971,1.7Z" transform="translate(106.402 174.963)" fill="#263238"/>
    <path id="Trazado_214807" data-name="Trazado 214807" d="M51.059,82.342a1.145,1.145,0,0,1,.763,1.422,1.11,1.11,0,0,1-1.388.763,1.284,1.284,0,0,1-.833-1.492c.243-.555,1.075-.971,1.561-.659" transform="translate(113.781 180.591)" fill="#e0e0e0"/>
    <g id="Grupo_145925" data-name="Grupo 145925" transform="translate(139.301 270.045)" opacity="0.6">
      <path id="Trazado_214808" data-name="Trazado 214808" d="M72.479,87.323V84.93l-28.586-.59s-1.353.52-1.249,1.457Z" transform="translate(-42.638 -84.34)" fill="#fff"/>
    </g>
    <path id="Trazado_214809" data-name="Trazado 214809" d="M47.141,82.547a5.634,5.634,0,0,1,1.422.763c.694.52,1.041,1.145,1.18,1.075s0-.9-.9-1.492S47.106,82.408,47.141,82.547Z" transform="translate(107.778 181.011)" fill="#263238"/>
    <path id="Trazado_214810" data-name="Trazado 214810" d="M46.22,82.834a6.207,6.207,0,0,1,1.041,1.041c.486.624.555,1.318.694,1.318s.278-.833-.312-1.6S46.22,82.7,46.22,82.834Z" transform="translate(105.507 181.868)" fill="#263238"/>
    <path id="Trazado_214811" data-name="Trazado 214811" d="M46.421,85.672a1.729,1.729,0,0,0,0-1.492c-.382-.8-1.006-1.179-1.075-1.041s.347.555.624,1.214S46.282,85.638,46.421,85.672Z" transform="translate(103.328 182.672)" fill="#263238"/>
    <path id="Trazado_214812" data-name="Trazado 214812" d="M47.273,81.816H48.8c.8,0,1.457.416,1.526.278s-.486-.659-1.457-.763S47.2,81.712,47.273,81.816Z" transform="translate(108.096 178.237)" fill="#263238"/>
    <path id="Trazado_214813" data-name="Trazado 214813" d="M62.583,60.514a8.465,8.465,0,0,0-9.4,7.806L46,117.894l22.307,2.81,4.649-42.011,30.91-11.656S68.064,59.612,62.583,60.514Z" transform="translate(104.964 126.687)" fill="#263238"/>
    <path id="Trazado_214814" data-name="Trazado 214814" d="M63.945,57.42s-5.516,13.668-4.614,15.264a97.137,97.137,0,0,0,13.322,8.465l31.222,13.53a26.886,26.886,0,0,0,3.816-13.044c.312-7.979-10.13-22.792-10.13-22.792Z" transform="translate(137.633 119.235)" fill="#263238"/>
    <path id="Trazado_214815" data-name="Trazado 214815" d="M103.071,62.15h0l-.486.208-1.769.694-6.73,2.6L70.842,74.535h0c-.451,4.163-.971,8.638-1.457,13.287-1.249,10.824-2.359,20.815-3.261,28.725h-.173l-13.877-1.8-3.781-.52h0l3.816.451,13.877,1.665h0c.867-7.91,1.977-17.9,3.157-28.759.52-4.614,1.041-9.089,1.492-13.252h0L93.878,65.55l6.765-2.5,1.839-.659.451-.173Z" transform="translate(107.285 130.914)" fill="#455a64"/>
    <path id="Trazado_214816" data-name="Trazado 214816" d="M86.637,65.965l-.867-.278-2.359-.867a52.041,52.041,0,0,0-7.944-2.359,23.765,23.765,0,0,0-8.187-.243,27.993,27.993,0,0,0-3.469.833,2.983,2.983,0,0,1,.833-.382,15.646,15.646,0,0,1,2.428-.694,22.584,22.584,0,0,1,8.326,0,44.578,44.578,0,0,1,7.944,2.463l2.324.971A4.579,4.579,0,0,1,86.637,65.965Z" transform="translate(148.939 129.528)" fill="#455a64"/>
    <path id="Trazado_214817" data-name="Trazado 214817" d="M82.054,60.789h-2.81a19.527,19.527,0,0,0-3.018.173c-1.145.173-2.394.208-3.677.382a17.346,17.346,0,0,0-6.314,2.047,22.731,22.731,0,0,0-2.255,1.665,3.193,3.193,0,0,1,.486-.59A11.1,11.1,0,0,1,66.1,63.182,15.784,15.784,0,0,1,72.514,61a36.992,36.992,0,0,1,3.712-.347h3.018a14.186,14.186,0,0,1,2.081.173Z" transform="translate(149.359 127.211)" fill="#455a64"/>
    <path id="Trazado_214818" data-name="Trazado 214818" d="M57.311,90.757A3.813,3.813,0,0,1,57.1,90.2a3.989,3.989,0,0,1,0-1.631,4.3,4.3,0,0,1,0-.555.8.8,0,0,1,.555-.416.521.521,0,0,1,.416.173.486.486,0,0,1,0,.347c0,.278,0,.486,0,.694a4.967,4.967,0,0,1-.173,1.422.867.867,0,0,1-.59.659,2.255,2.255,0,0,1-.833,0,9.021,9.021,0,0,1-1.457-.52l-.659-.347a1.908,1.908,0,0,1-.59-.486.624.624,0,0,1,0-.8.833.833,0,0,1,.729,0,5.829,5.829,0,0,1,1.041.486,5.169,5.169,0,0,1,1.249,1.006c.278.278.382.486.347.486A9.921,9.921,0,0,0,55.4,89.439a6.279,6.279,0,0,0-.971-.416.624.624,0,0,0-.451,0,.382.382,0,0,0,0,.416,2.945,2.945,0,0,0,.486.382l.624.312a5.967,5.967,0,0,0,1.388.486,1.388,1.388,0,0,0,.659,0,.486.486,0,0,0,.347-.416,9.02,9.02,0,0,0,0-1.353,4.3,4.3,0,0,0,0-.624c0-.173,0-.243-.208-.243s-.416.382-.486.694A5.447,5.447,0,0,0,57.311,90.757Z" transform="translate(123.799 193.754)" fill="#263238"/>
    <path id="Trazado_214819" data-name="Trazado 214819" d="M98.588,50.547a22.721,22.721,0,0,0-.416-5.689L87.764,41.18l-7.528,2.255c-1.769.8-5.169,5.828-6.938,5.585s-2.532-5.932-3.469-7.528h0l-3.851.971s-6.591,17.554-6.7,22.515,2.532,11.691,2.116,22.1c-.243,5.447-.763,10.407,2.6,10.407l33.685,1.422s7.667-1.8,8.187-6.349S98.588,50.547,98.588,50.547Z" transform="translate(137.752 79.136)" fill="#455a64"/>
    <path id="Trazado_214820" data-name="Trazado 214820" d="M106.4,83.441l-5.273-16.687S97.932,45.593,90.716,42.644C87.559,41.395,80.656,41.6,78.574,45.9s.486,7.389.971,9.505,7.667,16.964,7.667,16.964A76.326,76.326,0,0,1,90.682,80.7L62.2,95.791l3.469,9.4L101.3,92.218a8.014,8.014,0,0,0,5.03-5.273A6.939,6.939,0,0,0,106.4,83.441Z" transform="translate(144.964 81.107)" fill="#455a64"/>
    <path id="Trazado_214821" data-name="Trazado 214821" d="M55.82,62.316l7.32-3.122,14.119-.555,1.18-.729,3.018,7.944a23.174,23.174,0,0,1-5.689,1.665l-11.76-.833-6.175.382Z" transform="translate(129.211 120.445)" fill="#ffbe9d"/>
    <path id="Trazado_214822" data-name="Trazado 214822" d="M46.419,50.72l40.416,2.012a2.532,2.532,0,0,1,2.671,2.047L92.7,84.406l20.815.867a1.214,1.214,0,1,1,0,2.428l-20.433-.833H89.193l-42.15-1.735L43.782,53.912a2.637,2.637,0,0,1,2.637-3.192Z" transform="translate(99.341 102.691)" fill="#e0e0e0"/>
    <path id="Trazado_214823" data-name="Trazado 214823" d="M46.561,51.164a2.116,2.116,0,0,0-.624,0,2.6,2.6,0,0,0-1.6.971,2.428,2.428,0,0,0-.555,1.249,9.162,9.162,0,0,0,0,1.665c0,1.214.278,2.6.416,4.128.659,6.244,1.561,15.195,2.671,26.192h0l64.491,2.706H113.1a2.186,2.186,0,0,0,.937,0,1.665,1.665,0,0,0,.659-.729,1.422,1.422,0,0,0-.59-1.7,1.665,1.665,0,0,0-.9-.208h-.833l-6.938-.278-12.975-.52h0c-1.145-10.616-2.22-20.537-3.192-29.418a2.255,2.255,0,0,0-.694-1.561,3.191,3.191,0,0,0-1.526-.763,12.868,12.868,0,0,0-1.631,0H83.854l-6.106-.312-10.234-.451-15.4-.694-4.128-.208h0l4.128.243,15.368.8L78.3,52.83l6.071.312h1.6a12.385,12.385,0,0,1,1.6,0,2.88,2.88,0,0,1,1.388.659,2.116,2.116,0,0,1,.59,1.422c.937,8.881,2.012,18.8,3.157,29.418h0l12.975.52,6.73.312h.867a1.388,1.388,0,0,1,.763,0,1.075,1.075,0,0,1,.416,1.318,1.18,1.18,0,0,1-.486.52,1.214,1.214,0,0,1-.8,0h-1.735L46.942,84.676h0c-1.145-11-2.116-19.948-2.775-26.157l-.451-4.128a6.626,6.626,0,0,1,0-1.631,2.394,2.394,0,0,1,.52-1.249,2.567,2.567,0,0,1,1.526-.971Z" transform="translate(99.199 102.247)" fill="#263238"/>
    <path id="Trazado_214824" data-name="Trazado 214824" d="M54.642,57.707a2.532,2.532,0,1,1-.667-1.822A2.532,2.532,0,0,1,54.642,57.707Z" transform="translate(113.112 113.363)" fill="#fff"/>
    <path id="Trazado_214825" data-name="Trazado 214825" d="M60.281,85.025S59.275,77.5,58.13,68.165,56.083,51.27,56.153,51.27s1.041,7.528,2.186,16.86S60.35,85.025,60.281,85.025Z" transform="translate(130.023 104.05)" fill="#263238"/>
    <path id="Trazado_214826" data-name="Trazado 214826" d="M98.359,82.326h0l-.451.173-1.8.694-6.938,2.5-23.486,8.6h0L62.21,84.928h0l5.655-2.983L90.726,69.871h0c-2.879-6.938-5.273-12.94-6.938-17.068l-1.943-4.787-.486-1.249v-.035l.555,1.249,1.977,4.753c1.735,4.128,4.163,9.991,6.938,17.034h0L67.969,81.875l-5.62,2.983V84.65l3.469,9.4h-.173l23.59-8.5,6.938-2.394,1.8-.659h.486S98.359,82.291,98.359,82.326Z" transform="translate(144.988 92.075)" fill="#263238"/>
    <path id="Trazado_214827" data-name="Trazado 214827" d="M80.652,40.03,69.9,44.991,67.122,51.2l-.416-6.349-3.261-2.567L61.71,44.748l3.157,8.985,4.926.208,11.9-9.575.382-.208Z" transform="translate(143.754 76.297)" fill="#455a64"/>
    <path id="Trazado_214828" data-name="Trazado 214828" d="M61.71,41.415a11.1,11.1,0,0,1,.867,1.873c.52,1.18,1.145,2.845,1.977,4.579h-.312c.763-1.735,1.249-3.469,1.665-4.579a11.517,11.517,0,0,1,.729-1.908,12.314,12.314,0,0,1-.451,2.151,37.358,37.358,0,0,1-1.6,4.649v0h0c-.833-1.8-1.422-3.469-1.873-4.649a13.08,13.08,0,0,1-1.006-2.116Z" transform="translate(143.754 79.63)" fill="#263238"/>
    <path id="Trazado_214829" data-name="Trazado 214829" d="M76.2,41.22l-.624.52L73.7,43.093c-1.561,1.11-3.747,2.637-6.21,4.3L64.61,49.338H64.4V49.06c0-2.081-.243-3.885-.312-5.169v0c0,1.249.278,3.053.416,5.134h-.243l2.879-1.977,6.244-4.232L75.3,41.567Z" transform="translate(149.63 79.235)" fill="#263238"/>
    <path id="Trazado_214830" data-name="Trazado 214830" d="M63.157,87.593a1.424,1.424,0,0,1,0-.312,2.949,2.949,0,0,1-.243-.867,19.773,19.773,0,0,1-.312-3.469v-5.2l.278-6.591h0A15.2,15.2,0,0,1,59.687,66.5a14.329,14.329,0,0,1-.937-4.406,18.49,18.49,0,0,1,.243-4.2,65.534,65.534,0,0,1,1.8-6.938,36.287,36.287,0,0,0,1.145-4.614c.208-1.11.278-1.735.312-1.735a4.024,4.024,0,0,1,0,.451,6.94,6.94,0,0,1,0,1.284,37.818,37.818,0,0,1-1.041,4.683,60.783,60.783,0,0,0-1.735,6.938,19.707,19.707,0,0,0-.243,4.094,15.021,15.021,0,0,0,.971,4.336,14.848,14.848,0,0,0,2.949,4.787h0l-.278,6.591v5.2a21.407,21.407,0,0,0,.208,3.469q.006.574.069,1.145Z" transform="translate(136.375 87.605)" fill="#263238"/>
    <path id="Trazado_214831" data-name="Trazado 214831" d="M62.938,90.975V89.1a50.815,50.815,0,0,0-.208-5.134V67.073a145.127,145.127,0,0,1,1.318-16.895c.243-2.151.451-3.885.624-5.065l.208-1.388v1.388l-.52,5.1c-.451,4.3-.937,10.407-1.214,16.86s-.278,12.558-.208,16.895v7.008Z" transform="translate(146.272 84.223)" fill="#263238"/>
    <path id="Trazado_214832" data-name="Trazado 214832" d="M77.786,42.493a15.442,15.442,0,0,0-2.29,0,9.991,9.991,0,0,0-4.857,2.22,9.887,9.887,0,0,0-2.949,4.475,19.564,19.564,0,0,0-.52,2.22v-.624a7.459,7.459,0,0,1,.278-1.665A9.609,9.609,0,0,1,70.4,44.47a9.332,9.332,0,0,1,6.938-2.255,2.254,2.254,0,0,1,.451.278Z" transform="translate(157.235 81.605)" fill="#263238"/>
    <path id="Trazado_214833" data-name="Trazado 214833" d="M76.148,55.629a10.409,10.409,0,0,0-2.671-1.769A12.281,12.281,0,0,0,70.32,53.2a2.082,2.082,0,0,1,.971,0,6.626,6.626,0,0,1,2.324.486,6.279,6.279,0,0,1,1.943,1.284C76.148,55.282,76.148,55.595,76.148,55.629Z" transform="translate(165.013 108.676)" fill="#263238"/>
    <path id="Trazado_214834" data-name="Trazado 214834" d="M77.411,52.2l-.486.243a10.166,10.166,0,0,1-1.318.486,14.675,14.675,0,0,1-4.649.555,14.4,14.4,0,0,1-4.614-.937,9.4,9.4,0,0,1-1.284-.59l-.451-.278s.694.278,1.839.624a16.1,16.1,0,0,0,4.51.833,17.137,17.137,0,0,0,4.579-.347A17.344,17.344,0,0,1,77.411,52.2Z" transform="translate(150.914 105.062)" fill="#263238"/>
  </g>
</svg>
