<svg xmlns="http://www.w3.org/2000/svg" width="63.43" height="70" viewBox="0 0 63.43 70">
  <g id="Grupo_145755" data-name="Grupo 145755" transform="translate(-889.9 -899.585)">
    <path id="Trazado_172319" data-name="Trazado 172319" d="M937.261,899.585q2.16,2.128,4.32,4.257c.825.816,1.663,1.621,2.448,2.476a1.672,1.672,0,0,1,.444,1.005c.031,3.85.019,7.7.018,11.55,0,.109-.014.218-.024.362h-2.138v-8.7h-1.222q-3.07,0-6.139,0c-1.045,0-1.4-.349-1.4-1.385q-.006-3.28,0-6.561v-.778H892.15v65.534h50.145V944.466h2.2v.706q0,11.414.012,22.828a1.727,1.727,0,0,1-.695,1.585H890.594A1.721,1.721,0,0,1,889.9,968q.021-33.416,0-66.832a1.712,1.712,0,0,1,.694-1.584Zm-1.487,8.726h6.673a3.589,3.589,0,0,0-.442-.877q-2.65-2.7-5.345-5.354a3.274,3.274,0,0,0-.886-.418Z" fill="#30610c"/>
    <path id="Trazado_172320" data-name="Trazado 172320" d="M1100.452,1011.3a4.79,4.79,0,0,1-1.469,3.375q-8.349,8.356-16.676,16.733c-1.414,1.418-2.827,2.837-4.257,4.238a1.887,1.887,0,0,1-.8.481c-1.956.5-3.921.975-5.884,1.452-1.131.275-1.759-.363-1.483-1.505.47-1.945.937-3.891,1.432-5.829a1.853,1.853,0,0,1,.458-.81q9.262-9.325,18.546-18.629c.9-.9,1.787-1.819,2.734-2.67a4.175,4.175,0,0,1,4.751-.786A4.3,4.3,0,0,1,1100.452,1011.3Zm-23.174,15.824,2.992,3,13.935-13.9-2.989-3.02ZM1096,1014.537c.534-.528,1.1-1.027,1.593-1.588a2.19,2.19,0,0,0-.025-2.984,2.226,2.226,0,0,0-3.03-.2c-.6.51-1.127,1.113-1.654,1.643Zm-20.474,14.335-1.37,1.34,2.991,3.024,1.439-1.3Zm-2.543,3.771-.593,2.435,2.414-.605Z" transform="translate(-147.122 -87.784)" fill="#30610c"/>
    <path id="Trazado_172321" data-name="Trazado 172321" d="M985.442,924.458l-.72,1.961a10.911,10.911,0,0,0-10.117,1.406,10.627,10.627,0,0,0-4.2,6.037,10.931,10.931,0,0,0,19.027,9.775,11.091,11.091,0,0,0-1.024-14.988l1.357-1.5c3.628,2.832,6.134,9.826,2.555,16.1a13.094,13.094,0,0,1-22.954-12.6A12.958,12.958,0,0,1,985.442,924.458Z" transform="translate(-63.76 -19.641)" fill="#30610c"/>
    <path id="Trazado_172322" data-name="Trazado 172322" d="M997.464,1229.835v2.108H980.085v-2.108Z" transform="translate(-73.745 -270.048)" fill="#30610c"/>
    <path id="Trazado_172323" data-name="Trazado 172323" d="M917.143,1079.566v2.162h-1.011v4.353h4.292l.045-1h2.149c0,.75.049,1.519-.016,2.278a.994.994,0,0,1-1.071.942c-2.181.015-4.363.018-6.544,0a1.029,1.029,0,0,1-1.078-1.086q-.029-3.278,0-6.556a1.038,1.038,0,0,1,1.077-1.088C915.685,1079.545,916.387,1079.566,917.143,1079.566Z" transform="translate(-19.62 -147.166)" fill="#30610c"/>
    <path id="Trazado_172324" data-name="Trazado 172324" d="M917.145,1145.567v2.149l-1.023.066v4.29h4.295l.06-1h2.146c0,.77.043,1.518-.013,2.259a.991.991,0,0,1-1.046.97c-2.2.02-4.408.024-6.612,0a.989.989,0,0,1-1.038-1.049q-.036-3.312,0-6.625a1.039,1.039,0,0,1,1.11-1.053C915.7,1145.549,916.385,1145.567,917.145,1145.567Z" transform="translate(-19.623 -201.136)" fill="#30610c"/>
    <path id="Trazado_172325" data-name="Trazado 172325" d="M920.449,1218.082v-1h2.168c0,.756.05,1.525-.016,2.284a1,1,0,0,1-1.075.938c-2.181.014-4.363.018-6.544,0a1.03,1.03,0,0,1-1.074-1.09q-.028-3.278,0-6.556a1.038,1.038,0,0,1,1.081-1.084c.7-.027,1.4-.006,2.142-.006v2.166h-1v4.351Z" transform="translate(-19.62 -255.103)" fill="#30610c"/>
    <path id="Trazado_172326" data-name="Trazado 172326" d="M1002.576,974.4l1.49-1.57,2.44,2.513,8.013-8.039,1.571,1.6c-.126.145-.246.3-.384.44q-4,4.014-8.006,8.024c-.832.832-1.307.833-2.124.02Z" transform="translate(-92.136 -55.375)" fill="#30610c"/>
    <path id="Trazado_172327" data-name="Trazado 172327" d="M995.287,1097.843v2.105h-15.2v-2.105Z" transform="translate(-73.75 -162.117)" fill="#30610c"/>
    <path id="Trazado_172328" data-name="Trazado 172328" d="M990.82,1163.851v2.1H979.966v-2.1Z" transform="translate(-73.648 -216.092)" fill="#30610c"/>
    <path id="Trazado_172329" data-name="Trazado 172329" d="M935.641,1206.321l-1.317-1.334,5.968-5.978,1.313,1.329Z" transform="translate(-36.326 -244.842)" fill="#30610c"/>
    <path id="Trazado_172330" data-name="Trazado 172330" d="M935.581,1076.656l-1.367-1.3,5.427-5.438,1.273,1.4Z" transform="translate(-36.236 -139.283)" fill="#30610c"/>
    <path id="Trazado_172331" data-name="Trazado 172331" d="M940.053,1136.2l1.335,1.318-5.43,5.432-1.275-1.36Z" transform="translate(-36.619 -193.481)" fill="#30610c"/>
    <path id="Trazado_172332" data-name="Trazado 172332" d="M1177.483,1123.948v-2.078h2.123v2.078Z" transform="translate(-235.159 -181.764)" fill="#30610c"/>
    <path id="Trazado_172333" data-name="Trazado 172333" d="M1051.962,1163.665h2.074v2.127h-2.074Z" transform="translate(-132.519 -215.94)" fill="#30610c"/>
  </g>
</svg>
