<svg xmlns="http://www.w3.org/2000/svg" width="70.136" height="70" viewBox="0 0 70.136 70">
  <g id="Grupo_145757" data-name="Grupo 145757" transform="translate(-514 -879.585)">
    <path id="Trazado_172311" data-name="Trazado 172311" d="M540.712,879.585h1.781a3.425,3.425,0,0,0,.38.132,6.032,6.032,0,0,1,4.294,3.291.871.871,0,0,0,.942.546c1.689-.021,3.379-.015,5.068,0a1.093,1.093,0,0,1,1.238,1.209c.007.175,0,.351,0,.6h.8q4.691,0,9.382,0c2.908,0,4.6,1.691,4.6,4.584q0,12,.017,23.991a2.456,2.456,0,0,0,.376,1.25,15.293,15.293,0,0,1,.365,16.222c.964,1.009,1.885,1.986,2.827,2.942a.581.581,0,0,0,.471.095,2.65,2.65,0,0,1,2.664.821c2.291,2.257,4.629,4.465,6.915,6.726a14.682,14.682,0,0,1,1.3,1.714V944.8c-.428.578-.82,1.188-1.293,1.726-.632.717-1.326,1.382-2,2.063a2.407,2.407,0,0,1-3.776.029q-3.711-3.592-7.422-7.183c-.12-.116-.252-.22-.446-.387,0,1.355,0,2.607,0,3.859,0,3.037-1.648,4.678-4.7,4.678H518.7c-.228,0-.457,0-.685,0a4.132,4.132,0,0,1-3.755-2.719c-.085-.232-.172-.463-.258-.695V888.745c1.175-2.767,2.127-3.384,5.219-3.384h9.515c.023-.166.042-.252.046-.339.055-1.212.326-1.477,1.522-1.477,1.621,0,3.242-.015,4.862.009a.754.754,0,0,0,.831-.5A5.164,5.164,0,0,1,538.2,880.6,22.53,22.53,0,0,1,540.712,879.585Zm-20.259,63.529h42.264v-5.436c-.141.043-.226.065-.308.1a15.253,15.253,0,0,1-12.531-.658,2.319,2.319,0,0,0-.981-.2c-2.146-.019-4.291,0-6.437-.017a1.084,1.084,0,0,1-1.18-1.066,1.128,1.128,0,0,1,1.156-1.106c.409-.024.822-.007,1.232-.007h2.6c-.872-1.176-1.719-2.269-2.5-3.406a.855.855,0,0,0-.871-.473c-.247.023-.571.073-.735-.053a2.309,2.309,0,0,1-.837-.953.915.915,0,0,1,.628-1.083,4.483,4.483,0,0,1,.524-.165,15.642,15.642,0,0,1-.811-5.948,1.08,1.08,0,0,0-.17-.561,1.075,1.075,0,0,1,.251-1.518.817.817,0,0,0,.257-.3c.424-1.24.835-2.484,1.273-3.8a8.769,8.769,0,0,1-.927-.005,1.116,1.116,0,0,1-1.064-1.124,1.082,1.082,0,0,1,1.135-1.038,13.391,13.391,0,0,1,1.642,0,1.411,1.411,0,0,0,1.274-.583,14.948,14.948,0,0,1,14.411-5.026c1.012.171,1.994.516,2.975.777v-17.64h-8.228c-.288,1.8-.313,1.826-2.179,1.826H530.946c-1.917,0-1.917,0-2.244-1.81h-8.248Zm45.553-7.266c-.894.285-1.1.9-1.07,1.782.069,2.071.023,4.146.021,6.22,0,1.163-.339,1.5-1.507,1.5h-43.7c-1.179,0-1.512-.328-1.512-1.491q0-26.385,0-52.771c0-1.149.352-1.5,1.523-1.5q4.109,0,8.219,0h.761V887.6a2.893,2.893,0,0,0-.358-.048c-3.356,0-6.712-.017-10.068.005a1.968,1.968,0,0,0-2.126,2.213q0,27.684,0,55.369a2,2,0,0,0,2.281,2.257q23.115,0,46.231,0a2.022,2.022,0,0,0,2.3-2.307c0-2.415-.05-4.832.026-7.245A2.071,2.071,0,0,0,566.006,935.848Zm-13.814-50.116h-5.008c-1.188,0-1.329-.1-1.726-1.218a4.091,4.091,0,0,0-3.594-2.735,3.767,3.767,0,0,0-3.9,2.324,2.145,2.145,0,0,1-2.653,1.646c-.927-.086-1.869-.017-2.8-.017h-1.492v5.68h21.178Zm4.664,24.854a13.013,13.013,0,1,0,13.059,13.024A13,13,0,0,0,556.856,910.586Zm10.153,1.581v-.729q0-10.729,0-21.458c0-1.723-.716-2.43-2.468-2.431q-4.69,0-9.38,0c-.223,0-.445.02-.691.031v2.009h8.812c1.384,0,1.678.3,1.678,1.69q0,9.4.008,18.793a1.077,1.077,0,0,0,.188.732C565.7,911.273,566.313,911.667,567.008,912.167Zm3.787,27.568a4.317,4.317,0,0,1,.692.437c1.515,1.45,3.018,2.914,4.525,4.373.852.825,1.695,1.659,2.567,2.461.135.124.513.209.6.127.957-.933,1.879-1.9,2.811-2.863-.591-.6-1.11-1.14-1.647-1.663q-2.943-2.86-5.9-5.708c-.2-.19-.385-.527-.724-.179C572.8,937.665,571.885,938.611,570.8,939.736Zm.45-3.578-2.674-2.8-.771.852,2.572,2.7Z" fill="#30610c"/>
    <path id="Trazado_172312" data-name="Trazado 172312" d="M586.948,985.929c.54-.488,1.039-.952,1.552-1.4a1.119,1.119,0,0,1,1.691-.048,1.136,1.136,0,0,1-.23,1.678c-.719.665-1.429,1.345-2.188,1.962a1.608,1.608,0,0,0-.691,1.51,20.211,20.211,0,0,1,.01,2.184,2.809,2.809,0,0,1-2.975,2.951q-2.4.022-4.79,0a2.815,2.815,0,0,1-2.962-2.97q-.023-2.39,0-4.781a2.782,2.782,0,0,1,2.971-2.941c1.483-.013,2.967.033,4.448-.013A3,3,0,0,1,586.948,985.929Zm-2.046,4.854c-.27.222-.413.332-.547.452-.861.765-1.277.755-2.092-.055-.679-.675-1.359-1.348-2.032-2.029-.59-.6-.641-1.263-.147-1.733a1.128,1.128,0,0,1,1.685.179c.522.532,1.006,1.1,1.509,1.655a7.588,7.588,0,0,0,1.373-1.285,2.306,2.306,0,0,0,.156-1.33c-.012-.142-.408-.354-.632-.359-1.642-.03-3.284-.016-4.927-.015a.616.616,0,0,0-.687.676q-.016,2.459,0,4.917a.658.658,0,0,0,.728.722c1.62.006,3.239,0,4.858,0a.677.677,0,0,0,.756-.764C584.9,991.528,584.9,991.238,584.9,990.783Z" transform="translate(-50.965 -85.392)" fill="#30610c"/>
    <path id="Trazado_172313" data-name="Trazado 172313" d="M586.938,1064.627c.547-.492,1.046-.955,1.561-1.4a1.1,1.1,0,0,1,1.688-.022,1.119,1.119,0,0,1-.211,1.628c-.818.76-1.674,1.48-2.468,2.264a1.547,1.547,0,0,0-.411.923c-.057.838,0,1.684-.024,2.525a2.789,2.789,0,0,1-2.993,2.921q-2.395.008-4.79,0a2.791,2.791,0,0,1-2.943-2.907c-.021-1.639-.025-3.278,0-4.917a2.764,2.764,0,0,1,2.915-2.854c1.437-.008,2.876.052,4.31-.017A3.119,3.119,0,0,1,586.938,1064.627Zm-3.648,3.307a6.689,6.689,0,0,0,1.3-1.212,2.3,2.3,0,0,0,.191-1.378c-.018-.154-.536-.347-.83-.354-1.527-.035-3.055-.006-4.582-.022-.537-.006-.825.206-.826.75,0,1.615-.007,3.231,0,4.847a.646.646,0,0,0,.726.715c1.641,0,3.284.023,4.924-.028.234-.007.562-.341.656-.594a3.749,3.749,0,0,0,.027-1.157c-.263.215-.4.325-.539.444-.858.755-1.283.745-2.092-.059-.695-.69-1.392-1.378-2.077-2.078a1.121,1.121,0,0,1-.149-1.634,1.094,1.094,0,0,1,1.683.085C582.234,1066.783,582.734,1067.344,583.29,1067.934Z" transform="translate(-50.947 -149.721)" fill="#30610c"/>
    <path id="Trazado_172314" data-name="Trazado 172314" d="M586.952,1143.332c.539-.483,1.039-.94,1.549-1.385.617-.539,1.238-.552,1.689-.049a1.129,1.129,0,0,1-.234,1.675c-.8.743-1.641,1.448-2.412,2.222a1.671,1.671,0,0,0-.428.982c-.062.815-.005,1.637-.024,2.456a2.774,2.774,0,0,1-2.975,2.931q-2.394.012-4.788,0a2.782,2.782,0,0,1-2.964-2.947q-.024-2.389,0-4.779a2.8,2.8,0,0,1,2.962-2.956c1.459-.009,2.92.039,4.377-.013A3.081,3.081,0,0,1,586.952,1143.332Zm-3.637,3.3a7.958,7.958,0,0,0,1.354-1.271,2,2,0,0,0,.145-1.271c-.023-.167-.433-.4-.672-.4-1.62-.035-3.241-.016-4.861-.018a.624.624,0,0,0-.716.651c-.017,1.663-.015,3.326,0,4.989a.616.616,0,0,0,.694.669q2.465,0,4.93,0a.621.621,0,0,0,.706-.655c.016-.329,0-.659,0-1.106-.262.21-.405.318-.541.435-.859.745-1.292.733-2.1-.067-.7-.691-1.395-1.379-2.08-2.08a1.113,1.113,0,0,1-.135-1.635,1.092,1.092,0,0,1,1.684.106C582.26,1145.5,582.766,1146.057,583.315,1146.63Z" transform="translate(-50.964 -214.048)" fill="#30610c"/>
    <path id="Trazado_172315" data-name="Trazado 172315" d="M671.651,992.881q-3.32,0-6.64,0a3.746,3.746,0,0,1-.749-.046,1.064,1.064,0,0,1-.038-2.072,3.489,3.489,0,0,1,.815-.066q6.606-.005,13.211,0c1.123,0,1.649.343,1.666,1.078.016.756-.521,1.109-1.693,1.109Z" transform="translate(-122.132 -90.815)" fill="#30610c"/>
    <path id="Trazado_172316" data-name="Trazado 172316" d="M669.052,1026.207c-1.435,0-2.871,0-4.306,0-.854,0-1.37-.414-1.379-1.083s.5-1.1,1.354-1.1q4.34-.006,8.68,0c.871,0,1.341.4,1.328,1.111-.012.673-.48,1.068-1.3,1.072C671.969,1026.212,670.51,1026.207,669.052,1026.207Z" transform="translate(-122.086 -118.053)" fill="#30610c"/>
    <path id="Trazado_172317" data-name="Trazado 172317" d="M660.39,902.653a1.352,1.352,0,1,1-1.35-1.346A1.35,1.35,0,0,1,660.39,902.653Z" transform="translate(-117.442 -17.755)" fill="#30610c"/>
    <path id="Trazado_172318" data-name="Trazado 172318" d="M709.68,1070.388A11.244,11.244,0,1,1,698.5,1059.14,11.233,11.233,0,0,1,709.68,1070.388Zm-11.239-9.061a9.034,9.034,0,1,0,9.047,9.036A9.018,9.018,0,0,0,698.441,1061.327Z" transform="translate(-141.559 -146.759)" fill="#30610c"/>
  </g>
</svg>
