<svg xmlns="http://www.w3.org/2000/svg" width="158.951" height="226.409" viewBox="0 0 158.951 226.409">
  <g id="Grupo_146150" data-name="Grupo 146150" transform="translate(-1059.587 -881.282)">
    <g id="ILUSTRACIONES-13" transform="translate(1059.587 942.254)">
      <rect id="Rectángulo_43947" data-name="Rectángulo 43947" width="47.379" height="145.135" transform="translate(0.2 20.28)" fill="#ebebeb"/>
      <rect id="Rectángulo_43948" data-name="Rectángulo 43948" width="37.45" height="144.669" transform="translate(47.423 20.746)" fill="#f5f5f5"/>
      <rect id="Rectángulo_43949" data-name="Rectángulo 43949" width="40.182" height="11.306" transform="translate(2.732 43.514)" fill="#e0e0e0"/>
      <rect id="Rectángulo_43950" data-name="Rectángulo 43950" width="2.243" height="8.663" transform="translate(3.865 44.935)" fill="#f5f5f5"/>
      <path id="Trazado_214669" data-name="Trazado 214669" d="M19.612,34.441a.711.711,0,1,1-.711-.711A.711.711,0,0,1,19.612,34.441Z" transform="translate(-10.86 12.316)" fill="#fafafa"/>
      <path id="Trazado_214670" data-name="Trazado 214670" d="M19.612,35.821a.711.711,0,1,1-.711-.711A.711.711,0,0,1,19.612,35.821Z" transform="translate(-10.86 14.001)" fill="#fafafa"/>
      <rect id="Rectángulo_43951" data-name="Rectángulo 43951" width="2.221" height="6.641" transform="translate(11.617 46.046)" fill="#f5f5f5"/>
      <rect id="Rectángulo_43952" data-name="Rectángulo 43952" width="2.221" height="6.641" transform="translate(14.815 46.046)" fill="#f5f5f5"/>
      <rect id="Rectángulo_43953" data-name="Rectángulo 43953" width="2.221" height="6.641" transform="translate(18.014 46.046)" fill="#f5f5f5"/>
      <rect id="Rectángulo_43954" data-name="Rectángulo 43954" width="2.221" height="6.641" transform="translate(21.19 46.046)" fill="#f5f5f5"/>
      <rect id="Rectángulo_43955" data-name="Rectángulo 43955" width="2.221" height="6.641" transform="translate(24.389 46.046)" fill="#f5f5f5"/>
      <rect id="Rectángulo_43956" data-name="Rectángulo 43956" width="2.221" height="6.641" transform="translate(27.587 46.046)" fill="#f5f5f5"/>
      <rect id="Rectángulo_43957" data-name="Rectángulo 43957" width="2.221" height="6.641" transform="translate(30.786 46.046)" fill="#f5f5f5"/>
      <rect id="Rectángulo_43958" data-name="Rectángulo 43958" width="2.221" height="6.641" transform="translate(33.985 46.046)" fill="#f5f5f5"/>
      <rect id="Rectángulo_43959" data-name="Rectángulo 43959" width="2.221" height="6.641" transform="translate(37.183 46.046)" fill="#f5f5f5"/>
      <rect id="Rectángulo_43960" data-name="Rectángulo 43960" width="2.221" height="6.641" transform="translate(40.36 46.046)" fill="#f5f5f5"/>
      <rect id="Rectángulo_43961" data-name="Rectángulo 43961" width="40.182" height="11.306" transform="translate(2.732 61.639)" fill="#e0e0e0"/>
      <rect id="Rectángulo_43962" data-name="Rectángulo 43962" width="2.243" height="8.663" transform="translate(3.865 63.061)" fill="#f5f5f5"/>
      <path id="Trazado_214671" data-name="Trazado 214671" d="M19.612,42.6a.711.711,0,1,1-.711-.711A.711.711,0,0,1,19.612,42.6Z" transform="translate(-10.86 22.281)" fill="#fafafa"/>
      <path id="Trazado_214672" data-name="Trazado 214672" d="M19.612,43.981a.711.711,0,1,1-.711-.711A.711.711,0,0,1,19.612,43.981Z" transform="translate(-10.86 23.967)" fill="#fafafa"/>
      <rect id="Rectángulo_43963" data-name="Rectángulo 43963" width="2.221" height="6.641" transform="translate(11.617 64.171)" fill="#f5f5f5"/>
      <rect id="Rectángulo_43964" data-name="Rectángulo 43964" width="2.221" height="6.641" transform="translate(14.815 64.171)" fill="#f5f5f5"/>
      <rect id="Rectángulo_43965" data-name="Rectángulo 43965" width="2.221" height="6.641" transform="translate(18.014 64.171)" fill="#f5f5f5"/>
      <rect id="Rectángulo_43966" data-name="Rectángulo 43966" width="2.221" height="6.641" transform="translate(21.19 64.171)" fill="#f5f5f5"/>
      <rect id="Rectángulo_43967" data-name="Rectángulo 43967" width="2.221" height="6.641" transform="translate(24.389 64.171)" fill="#f5f5f5"/>
      <rect id="Rectángulo_43968" data-name="Rectángulo 43968" width="2.221" height="6.641" transform="translate(27.587 64.171)" fill="#f5f5f5"/>
      <rect id="Rectángulo_43969" data-name="Rectángulo 43969" width="2.221" height="6.641" transform="translate(30.786 64.171)" fill="#f5f5f5"/>
      <rect id="Rectángulo_43970" data-name="Rectángulo 43970" width="2.221" height="6.641" transform="translate(33.985 64.171)" fill="#f5f5f5"/>
      <rect id="Rectángulo_43971" data-name="Rectángulo 43971" width="2.221" height="6.641" transform="translate(37.183 64.171)" fill="#f5f5f5"/>
      <rect id="Rectángulo_43972" data-name="Rectángulo 43972" width="2.221" height="6.641" transform="translate(40.36 64.171)" fill="#f5f5f5"/>
      <rect id="Rectángulo_43973" data-name="Rectángulo 43973" width="40.182" height="11.306" transform="translate(2.732 79.764)" fill="#e0e0e0"/>
      <rect id="Rectángulo_43974" data-name="Rectángulo 43974" width="2.243" height="8.663" transform="translate(3.865 81.186)" fill="#f5f5f5"/>
      <path id="Trazado_214673" data-name="Trazado 214673" d="M19.612,50.761a.711.711,0,1,1-.711-.711A.711.711,0,0,1,19.612,50.761Z" transform="translate(-10.86 32.247)" fill="#fafafa"/>
      <path id="Trazado_214674" data-name="Trazado 214674" d="M19.612,52.141a.711.711,0,1,1-.711-.711A.711.711,0,0,1,19.612,52.141Z" transform="translate(-10.86 33.932)" fill="#fafafa"/>
      <rect id="Rectángulo_43975" data-name="Rectángulo 43975" width="2.221" height="6.641" transform="translate(11.617 82.297)" fill="#f5f5f5"/>
      <rect id="Rectángulo_43976" data-name="Rectángulo 43976" width="2.221" height="6.641" transform="translate(14.815 82.297)" fill="#f5f5f5"/>
      <rect id="Rectángulo_43977" data-name="Rectángulo 43977" width="2.221" height="6.641" transform="translate(18.014 82.297)" fill="#f5f5f5"/>
      <rect id="Rectángulo_43978" data-name="Rectángulo 43978" width="2.221" height="6.641" transform="translate(21.19 82.297)" fill="#f5f5f5"/>
      <rect id="Rectángulo_43979" data-name="Rectángulo 43979" width="2.221" height="6.641" transform="translate(24.389 82.297)" fill="#f5f5f5"/>
      <rect id="Rectángulo_43980" data-name="Rectángulo 43980" width="2.221" height="6.641" transform="translate(27.587 82.297)" fill="#f5f5f5"/>
      <rect id="Rectángulo_43981" data-name="Rectángulo 43981" width="2.221" height="6.641" transform="translate(30.786 82.297)" fill="#f5f5f5"/>
      <rect id="Rectángulo_43982" data-name="Rectángulo 43982" width="2.221" height="6.641" transform="translate(33.985 82.297)" fill="#f5f5f5"/>
      <rect id="Rectángulo_43983" data-name="Rectángulo 43983" width="2.221" height="6.641" transform="translate(37.183 82.297)" fill="#f5f5f5"/>
      <rect id="Rectángulo_43984" data-name="Rectángulo 43984" width="2.221" height="6.641" transform="translate(40.36 82.297)" fill="#f5f5f5"/>
      <rect id="Rectángulo_43985" data-name="Rectángulo 43985" width="40.182" height="11.306" transform="translate(2.732 97.89)" fill="#e0e0e0"/>
      <rect id="Rectángulo_43986" data-name="Rectángulo 43986" width="2.243" height="8.663" transform="translate(3.865 99.311)" fill="#f5f5f5"/>
      <path id="Trazado_214675" data-name="Trazado 214675" d="M19.612,58.921a.711.711,0,1,1-.711-.711A.711.711,0,0,1,19.612,58.921Z" transform="translate(-10.86 42.212)" fill="#fafafa"/>
      <path id="Trazado_214676" data-name="Trazado 214676" d="M19.612,60.3a.711.711,0,1,1-.711-.711A.711.711,0,0,1,19.612,60.3Z" transform="translate(-10.86 43.897)" fill="#fafafa"/>
      <rect id="Rectángulo_43987" data-name="Rectángulo 43987" width="2.221" height="6.641" transform="translate(11.617 100.422)" fill="#f5f5f5"/>
      <rect id="Rectángulo_43988" data-name="Rectángulo 43988" width="2.221" height="6.641" transform="translate(14.815 100.422)" fill="#f5f5f5"/>
      <rect id="Rectángulo_43989" data-name="Rectángulo 43989" width="2.221" height="6.641" transform="translate(18.014 100.422)" fill="#f5f5f5"/>
      <rect id="Rectángulo_43990" data-name="Rectángulo 43990" width="2.221" height="6.641" transform="translate(21.19 100.422)" fill="#f5f5f5"/>
      <rect id="Rectángulo_43991" data-name="Rectángulo 43991" width="2.221" height="6.641" transform="translate(24.389 100.422)" fill="#f5f5f5"/>
      <rect id="Rectángulo_43992" data-name="Rectángulo 43992" width="2.221" height="6.641" transform="translate(27.587 100.422)" fill="#f5f5f5"/>
      <rect id="Rectángulo_43993" data-name="Rectángulo 43993" width="2.221" height="6.641" transform="translate(30.786 100.422)" fill="#f5f5f5"/>
      <rect id="Rectángulo_43994" data-name="Rectángulo 43994" width="2.221" height="6.641" transform="translate(33.985 100.422)" fill="#f5f5f5"/>
      <rect id="Rectángulo_43995" data-name="Rectángulo 43995" width="2.221" height="6.641" transform="translate(37.183 100.422)" fill="#f5f5f5"/>
      <rect id="Rectángulo_43996" data-name="Rectángulo 43996" width="2.221" height="6.641" transform="translate(40.36 100.422)" fill="#f5f5f5"/>
      <rect id="Rectángulo_43997" data-name="Rectángulo 43997" width="40.182" height="11.306" transform="translate(2.732 116.015)" fill="#e0e0e0"/>
      <rect id="Rectángulo_43998" data-name="Rectángulo 43998" width="2.243" height="8.663" transform="translate(3.865 117.436)" fill="#f5f5f5"/>
      <path id="Trazado_214677" data-name="Trazado 214677" d="M19.612,67.081a.711.711,0,1,1-.711-.711.711.711,0,0,1,.711.711Z" transform="translate(-10.86 52.177)" fill="#fafafa"/>
      <path id="Trazado_214678" data-name="Trazado 214678" d="M19.612,68.461a.711.711,0,1,1-.711-.711A.711.711,0,0,1,19.612,68.461Z" transform="translate(-10.86 53.862)" fill="#fafafa"/>
      <rect id="Rectángulo_43999" data-name="Rectángulo 43999" width="2.221" height="6.641" transform="translate(11.617 118.547)" fill="#f5f5f5"/>
      <rect id="Rectángulo_44000" data-name="Rectángulo 44000" width="2.221" height="6.641" transform="translate(14.815 118.547)" fill="#f5f5f5"/>
      <rect id="Rectángulo_44001" data-name="Rectángulo 44001" width="2.221" height="6.641" transform="translate(18.014 118.547)" fill="#f5f5f5"/>
      <rect id="Rectángulo_44002" data-name="Rectángulo 44002" width="2.221" height="6.641" transform="translate(21.19 118.547)" fill="#f5f5f5"/>
      <rect id="Rectángulo_44003" data-name="Rectángulo 44003" width="2.221" height="6.641" transform="translate(24.389 118.547)" fill="#f5f5f5"/>
      <rect id="Rectángulo_44004" data-name="Rectángulo 44004" width="2.221" height="6.641" transform="translate(27.587 118.547)" fill="#f5f5f5"/>
      <rect id="Rectángulo_44005" data-name="Rectángulo 44005" width="2.221" height="6.641" transform="translate(30.786 118.547)" fill="#f5f5f5"/>
      <rect id="Rectángulo_44006" data-name="Rectángulo 44006" width="2.221" height="6.641" transform="translate(33.985 118.547)" fill="#f5f5f5"/>
      <rect id="Rectángulo_44007" data-name="Rectángulo 44007" width="2.221" height="6.641" transform="translate(37.183 118.547)" fill="#f5f5f5"/>
      <rect id="Rectángulo_44008" data-name="Rectángulo 44008" width="2.221" height="6.641" transform="translate(40.36 118.547)" fill="#f5f5f5"/>
      <rect id="Rectángulo_44009" data-name="Rectángulo 44009" width="40.182" height="11.306" transform="translate(2.732 134.14)" fill="#e0e0e0"/>
      <rect id="Rectángulo_44010" data-name="Rectángulo 44010" width="2.243" height="8.663" transform="translate(3.865 135.562)" fill="#f5f5f5"/>
      <path id="Trazado_214679" data-name="Trazado 214679" d="M19.612,75.241a.711.711,0,1,1-.711-.711A.711.711,0,0,1,19.612,75.241Z" transform="translate(-10.86 62.142)" fill="#fafafa"/>
      <path id="Trazado_214680" data-name="Trazado 214680" d="M19.611,76.633a.711.711,0,1,1-.2-.517A.711.711,0,0,1,19.611,76.633Z" transform="translate(-10.86 63.815)" fill="#fafafa"/>
      <rect id="Rectángulo_44011" data-name="Rectángulo 44011" width="2.221" height="6.641" transform="translate(11.617 136.672)" fill="#f5f5f5"/>
      <rect id="Rectángulo_44012" data-name="Rectángulo 44012" width="2.221" height="6.641" transform="translate(14.815 136.672)" fill="#f5f5f5"/>
      <rect id="Rectángulo_44013" data-name="Rectángulo 44013" width="2.221" height="6.641" transform="translate(18.014 136.672)" fill="#f5f5f5"/>
      <rect id="Rectángulo_44014" data-name="Rectángulo 44014" width="2.221" height="6.641" transform="translate(21.19 136.672)" fill="#f5f5f5"/>
      <rect id="Rectángulo_44015" data-name="Rectángulo 44015" width="2.221" height="6.641" transform="translate(24.389 136.672)" fill="#f5f5f5"/>
      <rect id="Rectángulo_44016" data-name="Rectángulo 44016" width="2.221" height="6.641" transform="translate(27.587 136.672)" fill="#f5f5f5"/>
      <rect id="Rectángulo_44017" data-name="Rectángulo 44017" width="2.221" height="6.641" transform="translate(30.786 136.672)" fill="#f5f5f5"/>
      <rect id="Rectángulo_44018" data-name="Rectángulo 44018" width="2.221" height="6.641" transform="translate(33.985 136.672)" fill="#f5f5f5"/>
      <rect id="Rectángulo_44019" data-name="Rectángulo 44019" width="2.221" height="6.641" transform="translate(37.183 136.672)" fill="#f5f5f5"/>
      <rect id="Rectángulo_44020" data-name="Rectángulo 44020" width="2.221" height="6.641" transform="translate(40.36 136.672)" fill="#f5f5f5"/>
      <rect id="Rectángulo_44021" data-name="Rectángulo 44021" width="40.182" height="11.306" transform="translate(2.732 152.265)" fill="#e0e0e0"/>
      <rect id="Rectángulo_44022" data-name="Rectángulo 44022" width="2.243" height="8.663" transform="translate(3.865 153.687)" fill="#f5f5f5"/>
      <path id="Trazado_214681" data-name="Trazado 214681" d="M19.612,83.391a.711.711,0,1,1-.711-.711A.711.711,0,0,1,19.612,83.391Z" transform="translate(-10.86 72.095)" fill="#fafafa"/>
      <path id="Trazado_214682" data-name="Trazado 214682" d="M19.611,84.793a.711.711,0,1,1-.2-.517A.711.711,0,0,1,19.611,84.793Z" transform="translate(-10.86 73.781)" fill="#fafafa"/>
      <rect id="Rectángulo_44023" data-name="Rectángulo 44023" width="2.221" height="6.641" transform="translate(11.617 154.798)" fill="#f5f5f5"/>
      <rect id="Rectángulo_44024" data-name="Rectángulo 44024" width="2.221" height="6.641" transform="translate(14.815 154.798)" fill="#f5f5f5"/>
      <rect id="Rectángulo_44025" data-name="Rectángulo 44025" width="2.221" height="6.641" transform="translate(18.014 154.798)" fill="#f5f5f5"/>
      <rect id="Rectángulo_44026" data-name="Rectángulo 44026" width="2.221" height="6.641" transform="translate(21.19 154.798)" fill="#f5f5f5"/>
      <rect id="Rectángulo_44027" data-name="Rectángulo 44027" width="2.221" height="6.641" transform="translate(24.389 154.798)" fill="#f5f5f5"/>
      <rect id="Rectángulo_44028" data-name="Rectángulo 44028" width="2.221" height="6.641" transform="translate(27.587 154.798)" fill="#f5f5f5"/>
      <rect id="Rectángulo_44029" data-name="Rectángulo 44029" width="2.221" height="6.641" transform="translate(30.786 154.798)" fill="#f5f5f5"/>
      <rect id="Rectángulo_44030" data-name="Rectángulo 44030" width="2.221" height="6.641" transform="translate(33.985 154.798)" fill="#f5f5f5"/>
      <rect id="Rectángulo_44031" data-name="Rectángulo 44031" width="2.221" height="6.641" transform="translate(37.183 154.798)" fill="#f5f5f5"/>
      <rect id="Rectángulo_44032" data-name="Rectángulo 44032" width="2.221" height="6.641" transform="translate(40.36 154.798)" fill="#f5f5f5"/>
      <path id="Trazado_214683" data-name="Trazado 214683" d="M42.356,38.44V35.508a10.462,10.462,0,0,0-.289-2.066A6.975,6.975,0,0,0,41,31.221a4.976,4.976,0,0,0-2.221-1.755,10.6,10.6,0,0,0-3.11-.644L32.2,28.533c-4.753-.422-9.04-.689-12.172-.733h0c3.132,0,7.441.244,12.195.666l3.465.289a10.8,10.8,0,0,1,3.2.689,5.176,5.176,0,0,1,2.221,1.866,7.508,7.508,0,0,1,1.066,2.221,9.485,9.485,0,0,1,.244,2.221v2.6C42.378,38.329,42.378,38.44,42.356,38.44Z" transform="translate(-14.768 5.074)" fill="#e0e0e0"/>
      <path id="Trazado_214684" data-name="Trazado 214684" d="M30.283,36.6a1.889,1.889,0,0,1,0-.333V33.8a4.443,4.443,0,0,0-.489-1.866,3.709,3.709,0,0,0-1.821-1.4,5.22,5.22,0,0,0-2.643-.267,5.442,5.442,0,0,0-1.355.466,2.665,2.665,0,0,0-1.044,1,1.377,1.377,0,0,0,0,1.4,1.844,1.844,0,0,0,1.2.911,1.555,1.555,0,0,0,1.377-.4,2.221,2.221,0,0,0,.644-1.333,2.043,2.043,0,0,0-.422-1.377A3.065,3.065,0,0,0,24.663,30a3.8,3.8,0,0,0-1.311-.333l-1.333-.178c-.844,0-1.644-.155-2.377-.178h0a13.027,13.027,0,0,1,2.4.155l1.333.155.711.111a2.688,2.688,0,0,1,.711.244A3.621,3.621,0,0,1,25.952,31a2.221,2.221,0,0,1-.244,3.065,1.821,1.821,0,0,1-1.644.489,2.221,2.221,0,0,1-1.4-1.044,1.755,1.755,0,0,1,0-1.688,3.132,3.132,0,0,1,1.177-1.111,5.042,5.042,0,0,1,1.444-.489,5.242,5.242,0,0,1,2.777.311,3.776,3.776,0,0,1,1.91,1.51A4.442,4.442,0,0,1,30.439,34a11.327,11.327,0,0,1,0,1.51v.933C30.305,36.485,30.305,36.6,30.283,36.6Z" transform="translate(-14.89 6.918)" fill="#e0e0e0"/>
      <path id="Trazado_214685" data-name="Trazado 214685" d="M45.667,39.087v-.378a6.076,6.076,0,0,0-.222-1.066,19.991,19.991,0,0,0-1.177-3.821,11.106,11.106,0,0,0-3.51-4.687,6.442,6.442,0,0,0-3.2-1.222,29.476,29.476,0,0,0-3.754-.2c-5.2,0-9.907,0-13.327-.222-1.71,0-3.088-.133-4.043-.222h.022l4.02.133c3.4,0,8.107,0,13.327.133a30.164,30.164,0,0,1,3.8.2,7.086,7.086,0,0,1,3.332,1.288,10.306,10.306,0,0,1,2.221,2.221,12.261,12.261,0,0,1,1.311,2.488,18.658,18.658,0,0,1,1.111,3.887,5,5,0,0,0,.178,1.088A.435.435,0,0,1,45.667,39.087Z" transform="translate(-14.793 4.427)" fill="#e0e0e0"/>
      <rect id="Rectángulo_44033" data-name="Rectángulo 44033" width="39.094" height="5.664" transform="translate(3.287 22.101)" fill="#e0e0e0"/>
      <rect id="Rectángulo_44034" data-name="Rectángulo 44034" width="21.279" height="2.843" transform="translate(11.883 24.922)" fill="#f5f5f5"/>
      <rect id="Rectángulo_44035" data-name="Rectángulo 44035" width="53.998" height="165.437" transform="translate(62.35 0)" fill="#ebebeb"/>
      <rect id="Rectángulo_44036" data-name="Rectángulo 44036" width="42.67" height="164.904" transform="translate(116.281 0.533)" fill="#e0e0e0"/>
      <rect id="Rectángulo_44037" data-name="Rectángulo 44037" width="45.802" height="12.905" transform="translate(65.348 26.477)" fill="#263238"/>
      <rect id="Rectángulo_44038" data-name="Rectángulo 44038" width="2.554" height="9.862" transform="translate(66.614 28.099)" fill="#e8505b"/>
      <path id="Trazado_214686" data-name="Trazado 214686" d="M48.266,26.961a.791.791,0,1,1-.888-.689A.822.822,0,0,1,48.266,26.961Z" transform="translate(23.946 3.204)" fill="#fff"/>
      <path id="Trazado_214687" data-name="Trazado 214687" d="M48.23,28.59a.756.756,0,1,1-.822-.8.822.822,0,0,1,.822.8Z" transform="translate(23.982 5.062)" fill="#fff"/>
      <rect id="Rectángulo_44039" data-name="Rectángulo 44039" width="2.51" height="7.574" transform="translate(75.477 29.365)" fill="#455a64"/>
      <rect id="Rectángulo_44040" data-name="Rectángulo 44040" width="2.51" height="7.574" transform="translate(79.12 29.365)" fill="#455a64"/>
      <rect id="Rectángulo_44041" data-name="Rectángulo 44041" width="2.51" height="7.574" transform="translate(82.741 29.365)" fill="#455a64"/>
      <rect id="Rectángulo_44042" data-name="Rectángulo 44042" width="2.51" height="7.574" transform="translate(86.383 29.365)" fill="#455a64"/>
      <rect id="Rectángulo_44043" data-name="Rectángulo 44043" width="2.51" height="7.574" transform="translate(90.026 29.365)" fill="#455a64"/>
      <rect id="Rectángulo_44044" data-name="Rectángulo 44044" width="2.51" height="7.574" transform="translate(93.669 29.365)" fill="#455a64"/>
      <rect id="Rectángulo_44045" data-name="Rectángulo 44045" width="2.51" height="7.574" transform="translate(97.312 29.365)" fill="#455a64"/>
      <rect id="Rectángulo_44046" data-name="Rectángulo 44046" width="2.51" height="7.574" transform="translate(100.955 29.365)" fill="#455a64"/>
      <rect id="Rectángulo_44047" data-name="Rectángulo 44047" width="2.51" height="7.574" transform="translate(104.597 29.365)" fill="#455a64"/>
      <rect id="Rectángulo_44048" data-name="Rectángulo 44048" width="2.51" height="7.574" transform="translate(108.24 29.365)" fill="#455a64"/>
      <rect id="Rectángulo_44049" data-name="Rectángulo 44049" width="45.802" height="12.905" transform="translate(65.348 45.002)" fill="#263238"/>
      <rect id="Rectángulo_44050" data-name="Rectángulo 44050" width="2.554" height="9.862" transform="translate(66.614 46.624)" fill="#e8505b"/>
      <path id="Trazado_214688" data-name="Trazado 214688" d="M48.23,35.382a.757.757,0,1,1-.822-.822A.822.822,0,0,1,48.23,35.382Z" transform="translate(23.982 13.33)" fill="#fff"/>
      <path id="Trazado_214689" data-name="Trazado 214689" d="M48.23,36.952a.757.757,0,1,1-.822-.822.822.822,0,0,1,.822.822Z" transform="translate(23.982 15.247)" fill="#fff"/>
      <rect id="Rectángulo_44051" data-name="Rectángulo 44051" width="2.51" height="7.574" transform="translate(75.477 47.89)" fill="#455a64"/>
      <rect id="Rectángulo_44052" data-name="Rectángulo 44052" width="2.51" height="7.574" transform="translate(79.12 47.89)" fill="#455a64"/>
      <rect id="Rectángulo_44053" data-name="Rectángulo 44053" width="2.51" height="7.574" transform="translate(82.741 47.89)" fill="#455a64"/>
      <rect id="Rectángulo_44054" data-name="Rectángulo 44054" width="2.51" height="7.574" transform="translate(86.383 47.89)" fill="#455a64"/>
      <rect id="Rectángulo_44055" data-name="Rectángulo 44055" width="2.51" height="7.574" transform="translate(90.026 47.89)" fill="#455a64"/>
      <rect id="Rectángulo_44056" data-name="Rectángulo 44056" width="2.51" height="7.574" transform="translate(93.669 47.89)" fill="#455a64"/>
      <rect id="Rectángulo_44057" data-name="Rectángulo 44057" width="2.51" height="7.574" transform="translate(97.312 47.89)" fill="#455a64"/>
      <rect id="Rectángulo_44058" data-name="Rectángulo 44058" width="2.51" height="7.574" transform="translate(100.955 47.89)" fill="#455a64"/>
      <rect id="Rectángulo_44059" data-name="Rectángulo 44059" width="2.51" height="7.574" transform="translate(104.597 47.89)" fill="#455a64"/>
      <rect id="Rectángulo_44060" data-name="Rectángulo 44060" width="2.51" height="7.574" transform="translate(108.24 47.89)" fill="#455a64"/>
      <rect id="Rectángulo_44061" data-name="Rectángulo 44061" width="45.802" height="12.905" transform="translate(65.348 63.683)" fill="#263238"/>
      <rect id="Rectángulo_44062" data-name="Rectángulo 44062" width="2.554" height="9.862" transform="translate(66.614 65.304)" fill="#e8505b"/>
      <path id="Trazado_214690" data-name="Trazado 214690" d="M48.177,43.735A.711.711,0,1,1,47.288,43a.822.822,0,0,1,.888.733Z" transform="translate(24.035 23.635)" fill="#fff"/>
      <path id="Trazado_214691" data-name="Trazado 214691" d="M48.23,45.34a.756.756,0,1,1-.822-.8A.822.822,0,0,1,48.23,45.34Z" transform="translate(23.982 25.518)" fill="#fff"/>
      <rect id="Rectángulo_44063" data-name="Rectángulo 44063" width="2.51" height="7.574" transform="translate(75.477 66.57)" fill="#455a64"/>
      <rect id="Rectángulo_44064" data-name="Rectángulo 44064" width="2.51" height="7.574" transform="translate(79.12 66.57)" fill="#455a64"/>
      <rect id="Rectángulo_44065" data-name="Rectángulo 44065" width="2.51" height="7.574" transform="translate(82.741 66.57)" fill="#455a64"/>
      <rect id="Rectángulo_44066" data-name="Rectángulo 44066" width="2.51" height="7.574" transform="translate(86.383 66.57)" fill="#455a64"/>
      <rect id="Rectángulo_44067" data-name="Rectángulo 44067" width="2.51" height="7.574" transform="translate(90.026 66.57)" fill="#455a64"/>
      <rect id="Rectángulo_44068" data-name="Rectángulo 44068" width="2.51" height="7.574" transform="translate(93.669 66.57)" fill="#455a64"/>
      <rect id="Rectángulo_44069" data-name="Rectángulo 44069" width="2.51" height="7.574" transform="translate(97.312 66.57)" fill="#455a64"/>
      <rect id="Rectángulo_44070" data-name="Rectángulo 44070" width="2.51" height="7.574" transform="translate(100.955 66.57)" fill="#455a64"/>
      <rect id="Rectángulo_44071" data-name="Rectángulo 44071" width="2.51" height="7.574" transform="translate(104.597 66.57)" fill="#455a64"/>
      <rect id="Rectángulo_44072" data-name="Rectángulo 44072" width="2.51" height="7.574" transform="translate(108.24 66.57)" fill="#455a64"/>
      <rect id="Rectángulo_44073" data-name="Rectángulo 44073" width="45.802" height="12.905" transform="translate(65.348 82.608)" fill="#263238"/>
      <rect id="Rectángulo_44074" data-name="Rectángulo 44074" width="2.554" height="9.862" transform="translate(66.614 84.229)" fill="#e8505b"/>
      <path id="Trazado_214692" data-name="Trazado 214692" d="M48.23,52.312a.757.757,0,1,1-.822-.822A.822.822,0,0,1,48.23,52.312Z" transform="translate(23.982 34.005)" fill="#fff"/>
      <path id="Trazado_214693" data-name="Trazado 214693" d="M48.23,53.882a.757.757,0,1,1-.822-.822.822.822,0,0,1,.822.822Z" transform="translate(23.982 35.922)" fill="#fff"/>
      <rect id="Rectángulo_44075" data-name="Rectángulo 44075" width="2.51" height="7.574" transform="translate(75.477 85.495)" fill="#455a64"/>
      <rect id="Rectángulo_44076" data-name="Rectángulo 44076" width="2.51" height="7.574" transform="translate(79.12 85.495)" fill="#455a64"/>
      <rect id="Rectángulo_44077" data-name="Rectángulo 44077" width="2.51" height="7.574" transform="translate(82.741 85.495)" fill="#455a64"/>
      <rect id="Rectángulo_44078" data-name="Rectángulo 44078" width="2.51" height="7.574" transform="translate(86.383 85.495)" fill="#455a64"/>
      <rect id="Rectángulo_44079" data-name="Rectángulo 44079" width="2.51" height="7.574" transform="translate(90.026 85.495)" fill="#455a64"/>
      <rect id="Rectángulo_44080" data-name="Rectángulo 44080" width="2.51" height="7.574" transform="translate(93.669 85.495)" fill="#455a64"/>
      <rect id="Rectángulo_44081" data-name="Rectángulo 44081" width="2.51" height="7.574" transform="translate(97.312 85.495)" fill="#455a64"/>
      <rect id="Rectángulo_44082" data-name="Rectángulo 44082" width="2.51" height="7.574" transform="translate(100.955 85.495)" fill="#455a64"/>
      <rect id="Rectángulo_44083" data-name="Rectángulo 44083" width="2.51" height="7.574" transform="translate(104.597 85.495)" fill="#455a64"/>
      <rect id="Rectángulo_44084" data-name="Rectángulo 44084" width="2.51" height="7.574" transform="translate(108.24 85.495)" fill="#455a64"/>
      <rect id="Rectángulo_44085" data-name="Rectángulo 44085" width="45.802" height="12.905" transform="translate(65.348 104.22)" fill="#263238"/>
      <rect id="Rectángulo_44086" data-name="Rectángulo 44086" width="2.554" height="9.862" transform="translate(66.614 105.842)" fill="#e8505b"/>
      <path id="Trazado_214694" data-name="Trazado 214694" d="M48.34,61.994a.844.844,0,0,1-.889.911.822.822,0,0,1,0-1.644A.844.844,0,0,1,48.34,61.994Z" transform="translate(23.872 45.936)" fill="#fff"/>
      <path id="Trazado_214695" data-name="Trazado 214695" d="M48.3,63.612a.844.844,0,0,1-.822.822.822.822,0,1,1,0-1.644A.844.844,0,0,1,48.3,63.612Z" transform="translate(23.908 47.805)" fill="#fff"/>
      <rect id="Rectángulo_44087" data-name="Rectángulo 44087" width="2.51" height="7.574" transform="translate(75.477 107.108)" fill="#455a64"/>
      <rect id="Rectángulo_44088" data-name="Rectángulo 44088" width="2.51" height="7.574" transform="translate(79.12 107.108)" fill="#455a64"/>
      <rect id="Rectángulo_44089" data-name="Rectángulo 44089" width="2.51" height="7.574" transform="translate(82.741 107.108)" fill="#455a64"/>
      <rect id="Rectángulo_44090" data-name="Rectángulo 44090" width="2.51" height="7.574" transform="translate(86.383 107.108)" fill="#455a64"/>
      <rect id="Rectángulo_44091" data-name="Rectángulo 44091" width="2.51" height="7.574" transform="translate(90.026 107.108)" fill="#455a64"/>
      <rect id="Rectángulo_44092" data-name="Rectángulo 44092" width="2.51" height="7.574" transform="translate(93.669 107.108)" fill="#455a64"/>
      <rect id="Rectángulo_44093" data-name="Rectángulo 44093" width="2.51" height="7.574" transform="translate(97.312 107.108)" fill="#455a64"/>
      <rect id="Rectángulo_44094" data-name="Rectángulo 44094" width="2.51" height="7.574" transform="translate(100.955 107.108)" fill="#455a64"/>
      <rect id="Rectángulo_44095" data-name="Rectángulo 44095" width="2.51" height="7.574" transform="translate(104.597 107.108)" fill="#455a64"/>
      <rect id="Rectángulo_44096" data-name="Rectángulo 44096" width="2.51" height="7.574" transform="translate(108.24 107.108)" fill="#455a64"/>
      <rect id="Rectángulo_44097" data-name="Rectángulo 44097" width="45.802" height="12.905" transform="translate(65.348 144.78)" fill="#263238"/>
      <rect id="Rectángulo_44098" data-name="Rectángulo 44098" width="2.554" height="9.862" transform="translate(66.614 146.401)" fill="#e8505b"/>
      <path id="Trazado_214696" data-name="Trazado 214696" d="M48.23,80.28a.756.756,0,1,1-.822-.8A.822.822,0,0,1,48.23,80.28Z" transform="translate(23.982 68.187)" fill="#fff"/>
      <path id="Trazado_214697" data-name="Trazado 214697" d="M48.23,81.85a.756.756,0,1,1-.822-.8A.822.822,0,0,1,48.23,81.85Z" transform="translate(23.982 70.105)" fill="#fff"/>
      <rect id="Rectángulo_44099" data-name="Rectángulo 44099" width="2.51" height="7.574" transform="translate(75.477 147.667)" fill="#455a64"/>
      <rect id="Rectángulo_44100" data-name="Rectángulo 44100" width="2.51" height="7.574" transform="translate(79.12 147.667)" fill="#455a64"/>
      <rect id="Rectángulo_44101" data-name="Rectángulo 44101" width="2.51" height="7.574" transform="translate(82.741 147.667)" fill="#455a64"/>
      <rect id="Rectángulo_44102" data-name="Rectángulo 44102" width="2.51" height="7.574" transform="translate(86.383 147.667)" fill="#455a64"/>
      <rect id="Rectángulo_44103" data-name="Rectángulo 44103" width="2.51" height="7.574" transform="translate(90.026 147.667)" fill="#455a64"/>
      <rect id="Rectángulo_44104" data-name="Rectángulo 44104" width="2.51" height="7.574" transform="translate(93.669 147.667)" fill="#455a64"/>
      <rect id="Rectángulo_44105" data-name="Rectángulo 44105" width="2.51" height="7.574" transform="translate(97.312 147.667)" fill="#455a64"/>
      <rect id="Rectángulo_44106" data-name="Rectángulo 44106" width="2.51" height="7.574" transform="translate(100.955 147.667)" fill="#455a64"/>
      <rect id="Rectángulo_44107" data-name="Rectángulo 44107" width="2.51" height="7.574" transform="translate(104.597 147.667)" fill="#455a64"/>
      <rect id="Rectángulo_44108" data-name="Rectángulo 44108" width="2.51" height="7.574" transform="translate(108.24 147.667)" fill="#455a64"/>
      <rect id="Rectángulo_44109" data-name="Rectángulo 44109" width="45.802" height="12.905" transform="translate(65.348 124.522)" fill="#263238"/>
      <rect id="Rectángulo_44110" data-name="Rectángulo 44110" width="2.554" height="9.862" transform="translate(66.614 126.144)" fill="#e8505b"/>
      <path id="Trazado_214698" data-name="Trazado 214698" d="M48.23,71.16a.756.756,0,1,1-.822-.8.822.822,0,0,1,.822.8Z" transform="translate(23.982 57.05)" fill="#fff"/>
      <path id="Trazado_214699" data-name="Trazado 214699" d="M48.23,72.73a.756.756,0,1,1-.822-.8.822.822,0,0,1,.822.8Z" transform="translate(23.982 58.967)" fill="#fff"/>
      <rect id="Rectángulo_44111" data-name="Rectángulo 44111" width="2.51" height="7.574" transform="translate(75.477 127.41)" fill="#455a64"/>
      <rect id="Rectángulo_44112" data-name="Rectángulo 44112" width="2.51" height="7.574" transform="translate(79.12 127.41)" fill="#455a64"/>
      <rect id="Rectángulo_44113" data-name="Rectángulo 44113" width="2.51" height="7.574" transform="translate(82.741 127.41)" fill="#455a64"/>
      <rect id="Rectángulo_44114" data-name="Rectángulo 44114" width="2.51" height="7.574" transform="translate(86.383 127.41)" fill="#455a64"/>
      <rect id="Rectángulo_44115" data-name="Rectángulo 44115" width="2.51" height="7.574" transform="translate(90.026 127.41)" fill="#455a64"/>
      <rect id="Rectángulo_44116" data-name="Rectángulo 44116" width="2.51" height="7.574" transform="translate(93.669 127.41)" fill="#455a64"/>
      <rect id="Rectángulo_44117" data-name="Rectángulo 44117" width="2.51" height="7.574" transform="translate(97.312 127.41)" fill="#455a64"/>
      <rect id="Rectángulo_44118" data-name="Rectángulo 44118" width="2.51" height="7.574" transform="translate(100.955 127.41)" fill="#455a64"/>
      <rect id="Rectángulo_44119" data-name="Rectángulo 44119" width="2.51" height="7.574" transform="translate(104.597 127.41)" fill="#455a64"/>
      <rect id="Rectángulo_44120" data-name="Rectángulo 44120" width="2.51" height="7.574" transform="translate(108.24 127.41)" fill="#455a64"/>
      <path id="Trazado_214700" data-name="Trazado 214700" d="M74.206,31.637V28.283a11.84,11.84,0,0,0-.311-2.355,8.574,8.574,0,0,0-1.244-2.577,5.442,5.442,0,0,0-2.51-2.021,12.039,12.039,0,0,0-3.554-.733l-3.954-.333c-5.4-.466-10.306-.777-13.86-.844h0c3.576,0,8.485.289,13.9.755l3.932.355a12.083,12.083,0,0,1,3.643.755,5.775,5.775,0,0,1,2.6,2.221A8.485,8.485,0,0,1,74.1,26.173a12.174,12.174,0,0,1,.267,2.4q0,1.066,0,1.8v1.155C74.228,31.5,74.228,31.637,74.206,31.637Z" transform="translate(19.463 -5.16)" fill="#263238"/>
      <path id="Trazado_214701" data-name="Trazado 214701" d="M60.47,29.524V28.058a16.083,16.083,0,0,0,0-1.688,5,5,0,0,0-.555-2.221,4.109,4.109,0,0,0-2.066-1.577,5.709,5.709,0,0,0-3.021-.311,4.975,4.975,0,0,0-1.555.533,3,3,0,0,0-1.222,1.133,1.622,1.622,0,0,0,0,1.621,2.088,2.088,0,0,0,1.355,1.044,1.8,1.8,0,0,0,1.622-.466,2.4,2.4,0,0,0,.711-1.533,2.355,2.355,0,0,0-.466-1.577,3.732,3.732,0,0,0-1.222-1.066,4.443,4.443,0,0,0-1.51-.4l-1.51-.178c-.977-.111-1.888-.178-2.71-.222h0a14.822,14.822,0,0,1,2.732.178l1.533.178.777.133a2.732,2.732,0,0,1,.822.267,3.82,3.82,0,0,1,1.311,1.155,2.577,2.577,0,0,1,.533,1.755,2.688,2.688,0,0,1-.8,1.71,1.977,1.977,0,0,1-1.866.533,2.443,2.443,0,0,1-1.577-1.177,1.955,1.955,0,0,1,0-1.888,3.265,3.265,0,0,1,1.333-1.244,5.131,5.131,0,0,1,1.644-.555,5.975,5.975,0,0,1,3.154.355,4.2,4.2,0,0,1,2.221,1.71,5.109,5.109,0,0,1,.555,2.221c0,.666,0,1.222,0,1.71v1.066a2.552,2.552,0,0,1-.222.267Z" transform="translate(19.316 -3.047)" fill="#263238"/>
      <path id="Trazado_214702" data-name="Trazado 214702" d="M78.033,32.333a2.02,2.02,0,0,1,0-.422,7.252,7.252,0,0,0-.222-1.222,24.768,24.768,0,0,0-1.355-4.442,12.617,12.617,0,0,0-4-5.353,7.73,7.73,0,0,0-3.643-1.4,38.562,38.562,0,0,0-4.309-.222c-5.908-.089-11.395-.089-15.26-.089-1.955,0-3.51-.155-4.6-.222L43.4,18.85h1.244l4.6.155c3.865,0,9.24,0,15.171.155a34.651,34.651,0,0,1,4.442.244,7.908,7.908,0,0,1,3.776,1.444,11.772,11.772,0,0,1,2.51,2.665,15.126,15.126,0,0,1,1.488,2.821,21.7,21.7,0,0,1,1.288,4.442A8.217,8.217,0,0,0,78.1,32C78.122,32.266,78.033,32.333,78.033,32.333Z" transform="translate(19.39 -5.856)" fill="#263238"/>
      <rect id="Rectángulo_44121" data-name="Rectángulo 44121" width="44.558" height="6.464" transform="translate(65.97 2.066)" fill="#263238"/>
      <rect id="Rectángulo_44122" data-name="Rectángulo 44122" width="24.256" height="3.243" transform="translate(75.766 5.287)" fill="#455a64"/>
      <path id="Trazado_214703" data-name="Trazado 214703" d="M82.868,74.322a4.235,4.235,0,0,0-1.355.333A11.4,11.4,0,0,0,78.159,76.3a9.907,9.907,0,0,0-1.888,1.755,5.553,5.553,0,0,0-.777,1.2,9.176,9.176,0,0,0-.489,1.444,24.434,24.434,0,0,0-.244,6.819,14.438,14.438,0,0,1-1.022,6.8,7.908,7.908,0,0,1-1.821,2.443A9.218,9.218,0,0,1,69.7,98.178a9.53,9.53,0,0,1-2.088.622,8.6,8.6,0,0,1-1.644,0,6.66,6.66,0,0,1-1.022-.156l-.333-.111a8.885,8.885,0,0,0,1.377.156,7.24,7.24,0,0,0,1.6-.133,8.575,8.575,0,0,0,2.044-.644,9.108,9.108,0,0,0,2.221-1.4,7.729,7.729,0,0,0,1.733-2.377,14.46,14.46,0,0,0,.977-6.664,24.21,24.21,0,0,1,.267-6.886,7.863,7.863,0,0,1,.533-1.488,6.665,6.665,0,0,1,.8-1.244,10.352,10.352,0,0,1,1.977-1.777A10.929,10.929,0,0,1,81.58,74.5a7.246,7.246,0,0,1,1.022-.2Z" transform="translate(45.829 61.861)" fill="#263238"/>
      <rect id="Rectángulo_44123" data-name="Rectángulo 44123" width="3.665" height="4.442" transform="translate(108.174 158.463)" fill="#263238"/>
      <rect id="Rectángulo_44124" data-name="Rectángulo 44124" width="20.502" height="22.479" transform="translate(128.698 124.944)" fill="#455a64"/>
      <ellipse id="Elipse_7070" data-name="Elipse 7070" cx="6.753" cy="6.753" rx="6.753" ry="6.753" transform="translate(132.207 129.52)" fill="#263238"/>
      <path id="Trazado_214704" data-name="Trazado 214704" d="M82.712,76.206a3.376,3.376,0,1,1-3.376-3.376,3.376,3.376,0,0,1,3.376,3.376Z" transform="translate(59.69 60.066)" fill="#455a64"/>
      <ellipse id="Elipse_7071" data-name="Elipse 7071" cx="0.622" cy="0.622" rx="0.622" ry="0.622" transform="translate(130.852 127.81)" fill="#263238"/>
      <ellipse id="Elipse_7072" data-name="Elipse 7072" cx="0.622" cy="0.622" rx="0.622" ry="0.622" transform="translate(145.446 127.81)" fill="#263238"/>
      <ellipse id="Elipse_7073" data-name="Elipse 7073" cx="0.622" cy="0.622" rx="0.622" ry="0.622" transform="translate(145.579 144.402)" fill="#263238"/>
      <ellipse id="Elipse_7074" data-name="Elipse 7074" cx="0.622" cy="0.622" rx="0.622" ry="0.622" transform="translate(130.852 144.669)" fill="#263238"/>
      <rect id="Rectángulo_44125" data-name="Rectángulo 44125" width="1.644" height="22.479" transform="translate(149.2 124.944)" fill="#263238"/>
    </g>
    <g id="Grupo_145917" data-name="Grupo 145917" transform="translate(1166.437 881.282)">
      <ellipse id="Elipse_7075" data-name="Elipse 7075" cx="4.051" cy="4.051" rx="4.051" ry="4.051" transform="translate(21.097 40.217) rotate(-76.7)" fill="#f67409"/>
      <path id="Trazado_214710" data-name="Trazado 214710" d="M71.47,38.42a11.226,11.226,0,0,1,16.29,0c2.026,2.11,5.317-1.1,3.207-3.207a15.868,15.868,0,0,0-22.789,0c-2.026,2.11,1.182,5.4,3.292,3.292Z" transform="translate(-53.143 -6.346)" fill="#f67409"/>
      <path id="Trazado_214711" data-name="Trazado 214711" d="M69.891,40.623a33.761,33.761,0,0,1,21.861-8.441,32.242,32.242,0,0,1,22.2,8.441c2.194,2.026,5.4-1.182,3.292-3.207A37.137,37.137,0,0,0,91.92,27.54,37.9,37.9,0,0,0,66.6,37.584c-2.279,1.941,1.013,5.149,3.207,3.207Z" transform="translate(-65.829 -27.54)" fill="#f67409"/>
      <path id="Trazado_214712" data-name="Trazado 214712" d="M70.357,41.055a22.451,22.451,0,0,1,16.037-7.428,22.789,22.789,0,0,1,16.881,6.921c2.026,2.11,5.317-1.1,3.207-3.207a27.346,27.346,0,0,0-20-8.441A27.769,27.769,0,0,0,67.15,37.342c-1.941,2.195,1.266,5.4,3.292,3.292Z" transform="translate(-60.47 -17.421)" fill="#f67409"/>
    </g>
  </g>
</svg>
