<svg xmlns="http://www.w3.org/2000/svg" width="108.62" height="98.449" viewBox="0 0 108.62 98.449">
  <g id="aprendizaje-en-linea" transform="translate(0 -4.786)">
    <path id="Trazado_216409" data-name="Trazado 216409" d="M41.071,14.488H24.531L17.862,18.53a.676.676,0,0,0,0,1.157l6.669,4.042h16.54Z" transform="translate(1.097 0.607)" fill="#54aa13"/>
    <path id="Trazado_216410" data-name="Trazado 216410" d="M24.531,19.254,20.479,16.8l-2.618,1.586a.676.676,0,0,0,0,1.157l6.669,4.042h16.54V19.254H24.531Z" transform="translate(1.097 0.752)" fill="#54aa13"/>
    <path id="Trazado_216411" data-name="Trazado 216411" d="M25.3,14.488h-.773L17.862,18.53a.676.676,0,0,0,0,1.157l6.669,4.042H25.3v-9.24Z" transform="translate(1.097 0.607)" fill="#fccea9"/>
    <path id="Trazado_216412" data-name="Trazado 216412" d="M24.531,19.254,20.48,16.8l-2.618,1.586a.676.676,0,0,0,0,1.157l6.669,4.042H25.3V19.254Z" transform="translate(1.097 0.752)" fill="#fccea9"/>
    <path id="Trazado_216413" data-name="Trazado 216413" d="M67.507,36.381H98.165a2.556,2.556,0,0,1,2.556,2.556V91.092H7.164V38.936a2.556,2.556,0,0,1,2.556-2.556H67.507Z" transform="translate(0.448 1.977)" fill="#8a92ff"/>
    <path id="Trazado_216414" data-name="Trazado 216414" d="M101.964,96.5H6.468A4.968,4.968,0,0,1,1.5,91.536V87.543a.674.674,0,0,1,.674-.674H106.258a.674.674,0,0,1,.674.674v3.992A4.968,4.968,0,0,1,101.964,96.5Z" transform="translate(0.094 5.137)" fill="#54aa13"/>
    <path id="Trazado_216415" data-name="Trazado 216415" d="M12.164,42.567v40.65A1.186,1.186,0,0,0,13.35,84.4H93.908a1.186,1.186,0,0,0,1.186-1.186V42.567a1.186,1.186,0,0,0-1.186-1.186H13.35a1.186,1.186,0,0,0-1.186,1.186Z" transform="translate(0.761 2.29)" fill="#fff"/>
    <path id="Trazado_216416" data-name="Trazado 216416" d="M57.367,81.173A39.145,39.145,0,0,1,18.222,42.028v-.647H13.35a1.186,1.186,0,0,0-1.186,1.186v40.65A1.186,1.186,0,0,0,13.35,84.4H93.908a1.186,1.186,0,0,0,1.186-1.186V81.173Z" transform="translate(0.761 2.29)" fill="#fff"/>
    <path id="Trazado_216417" data-name="Trazado 216417" d="M74.823,61.54H88.16A1.035,1.035,0,0,0,89.2,60.506V48.886a1.035,1.035,0,0,0-1.035-1.035H18.35a1.035,1.035,0,0,0-1.035,1.035v11.62A1.035,1.035,0,0,0,18.35,61.54H74.823Z" transform="translate(1.084 2.695)" fill="#fff"/>
    <path id="Trazado_216418" data-name="Trazado 216418" d="M18.35,61.54h4.992A38.886,38.886,0,0,1,18.4,47.851H18.35a1.035,1.035,0,0,0-1.035,1.035v11.62A1.035,1.035,0,0,0,18.35,61.54Z" transform="translate(1.084 2.695)" fill="#000a9b"/>
    <path id="Trazado_216419" data-name="Trazado 216419" d="M70.448,86.87H33.926l.76,3.3a1.96,1.96,0,0,0,1.91,1.52H67.778a1.96,1.96,0,0,0,1.91-1.52Z" transform="translate(2.123 5.137)" fill="#f67409"/>
    <path id="Trazado_216420" data-name="Trazado 216420" d="M77.1,14.488H61.753v9.24H77.1a4.62,4.62,0,1,0,0-9.24Z" transform="translate(3.865 0.607)" fill="#54aa13"/>
    <path id="Trazado_216421" data-name="Trazado 216421" d="M77.1,19.254H61.753v4.329H77.1A4.62,4.62,0,0,0,81.183,16.8,4.618,4.618,0,0,1,77.1,19.254Z" transform="translate(3.865 0.752)" fill="#54aa13"/>
    <path id="Trazado_216422" data-name="Trazado 216422" d="M59.274,9.669a3.382,3.382,0,1,1,6.764,0V46.838H38.807V38.376a2.255,2.255,0,0,0-.663-1.6l-7.011-7.013a1.735,1.735,0,0,1-.51-1.23V24.242h6.285a2.069,2.069,0,0,0,2.069-2.069V9.669a3.383,3.383,0,1,1,6.767,0,3.382,3.382,0,1,1,6.764,0,3.383,3.383,0,1,1,6.767,0Z" transform="translate(1.916 0.094)" fill="#fed2a4"/>
    <path id="Trazado_216423" data-name="Trazado 216423" d="M41.3,35.72l-7.011-7.013a1.735,1.735,0,0,1-.51-1.23V23.184H30.623v4.293a1.735,1.735,0,0,0,.51,1.23l7.011,7.013a2.255,2.255,0,0,1,.663,1.6v8.462h3.151V37.318a2.255,2.255,0,0,0-.663-1.6Z" transform="translate(1.916 1.151)" fill="#ffbd86"/>
    <path id="Trazado_216424" data-name="Trazado 216424" d="M41.758,22.172V9.669a3.38,3.38,0,0,1,1.807-2.993,3.381,3.381,0,0,0-4.959,2.993v12.5a2.07,2.07,0,0,1-2.069,2.069h3.151A2.069,2.069,0,0,0,41.758,22.172Z" transform="translate(2.287 0.094)" fill="#ffbd86"/>
    <path id="Trazado_216425" data-name="Trazado 216425" d="M65.707,42.85h.21a2.333,2.333,0,0,1,2.333,2.333V68.56H35.931V45.183a2.332,2.332,0,0,1,2.333-2.333H65.707Z" transform="translate(2.249 2.382)" fill="#f67409"/>
    <path id="Trazado_216426" data-name="Trazado 216426" d="M51.88,42.85H38.264a2.332,2.332,0,0,0-2.333,2.333V68.56H49.547V45.183A2.332,2.332,0,0,1,51.88,42.85Z" transform="translate(2.249 2.382)" fill="#f67409"/>
    <path id="Trazado_216427" data-name="Trazado 216427" d="M83.071,77.111h-60.2a1.035,1.035,0,0,1-1.035-1.035v-8a1.035,1.035,0,0,1,1.035-1.035h60.2a1.035,1.035,0,0,1,1.035,1.035v8A1.035,1.035,0,0,1,83.071,77.111Z" transform="translate(1.367 3.896)" fill="#fff"/>
    <path id="Trazado_216428" data-name="Trazado 216428" d="M21.839,68.081v8a1.035,1.035,0,0,0,1.035,1.035H43.092A39.2,39.2,0,0,1,28.07,67.046h-5.2a1.035,1.035,0,0,0-1.035,1.035Z" transform="translate(1.367 3.896)" fill="#000a9b"/>
    <path id="Trazado_216429" data-name="Trazado 216429" d="M76.316,14.488H74.3v9.24h2.019a4.62,4.62,0,1,0,0-9.24Z" transform="translate(4.65 0.607)" fill="#fccea9"/>
    <path id="Trazado_216430" data-name="Trazado 216430" d="M80.936,18.963A4.6,4.6,0,0,0,80.4,16.8a4.618,4.618,0,0,1-4.081,2.455H74.3v4.329h2.019a4.62,4.62,0,0,0,4.62-4.62Z" transform="translate(4.65 0.752)" fill="#fccea9"/>
    <g id="Grupo_146131" data-name="Grupo 146131" transform="translate(47.661 6.38)">
      <path id="Trazado_216431" data-name="Trazado 216431" d="M45.889,12.29a2.116,2.116,0,0,0,2.116-2.116V9.495a3.377,3.377,0,0,1,1.641-2.9,3.376,3.376,0,0,0-4.792,3.046V12.29Z" transform="translate(-44.854 -6.286)" fill="#ffbd86"/>
      <path id="Trazado_216432" data-name="Trazado 216432" d="M52.255,12.29a2.116,2.116,0,0,0,2.116-2.116V9.492A3.377,3.377,0,0,1,56.01,6.6a3.378,3.378,0,0,0-4.79,3.052V12.29h1.035Z" transform="translate(-44.456 -6.286)" fill="#ffbd86"/>
      <path id="Trazado_216433" data-name="Trazado 216433" d="M58.627,12.29a2.116,2.116,0,0,0,2.116-2.116V9.482a3.377,3.377,0,0,1,1.626-2.889,3.373,3.373,0,0,0-4.778,2.979V12.29h1.035Z" transform="translate(-44.057 -6.286)" fill="#ffbd86"/>
    </g>
    <path id="Trazado_216434" data-name="Trazado 216434" d="M106.352,90.413h-3.589v-49.5a4.154,4.154,0,0,0-4.149-4.149H69.549V25.929H80.966a6.214,6.214,0,0,0,0-12.427H69.549V9.762A4.973,4.973,0,0,0,61.19,6.117a4.964,4.964,0,0,0-6.765,0,4.964,4.964,0,0,0-6.765,0A4.973,4.973,0,0,0,39.3,9.762V13.5H25.629a1.594,1.594,0,0,0-.826.231l-7.623,4.62a1.594,1.594,0,0,0,0,2.726L24.8,25.7a1.6,1.6,0,0,0,.826.231h5.316v2.482a3.837,3.837,0,0,0,1.131,2.73L37.7,36.764H10.168a4.154,4.154,0,0,0-4.15,4.149v49.5H2.268A2.27,2.27,0,0,0,0,92.681v3.992a6.57,6.57,0,0,0,6.562,6.562h95.5a6.57,6.57,0,0,0,6.562-6.562V92.681a2.27,2.27,0,0,0-2.268-2.268ZM83.878,72.537v6.877H24.8V72.537Zm.114-52.821a3.029,3.029,0,0,1-3.026,3.026h-.425V16.689h.425a3.03,3.03,0,0,1,3.026,3.026Zm-6.639-3.026v6.052h-7.8V16.689ZM39.3,22.741H28V16.689H39.3ZM21.081,19.716l3.727-2.258v4.517Zm13.051,8.7V25.929H39.3v.179a1.594,1.594,0,1,0,3.188,0V9.762a1.789,1.789,0,1,1,3.578,0V13.32a1.594,1.594,0,1,0,3.188,0V9.762a1.789,1.789,0,1,1,3.577,0V13.32a1.594,1.594,0,1,0,3.188,0V9.762a1.789,1.789,0,1,1,3.578,0V13.32a1.594,1.594,0,1,0,3.188,0V9.762a1.789,1.789,0,1,1,3.577,0V43.638h-3.75a1.594,1.594,0,1,0,0,3.188h5.555a.74.74,0,0,1,.739.739V69.349H39.773V47.565a.74.74,0,0,1,.739-.739H56.144a1.594,1.594,0,0,0,0-3.188H42.317V38.469c0-.019,0-.038,0-.057s0-.036,0-.055a1.629,1.629,0,0,0-.016-.213,3.825,3.825,0,0,0-1.113-2.4L34.33,28.887a.668.668,0,0,1-.2-.476Zm71.3,68.262a3.378,3.378,0,0,1-3.374,3.375H6.562a3.378,3.378,0,0,1-3.375-3.375V93.6H34.78l.475,2.061a3.537,3.537,0,0,0,3.463,2.756H69.9a3.538,3.538,0,0,0,3.463-2.756l.475-2.061h8.511a1.594,1.594,0,1,0,0-3.188H9.206v-49.5a.963.963,0,0,1,.962-.962H39.129v3.942a3.93,3.93,0,0,0-2.544,3.671V69.349H24.24a2.631,2.631,0,0,0-2.629,2.628v8A2.632,2.632,0,0,0,24.24,82.6h60.2a2.632,2.632,0,0,0,2.629-2.629v-8a2.631,2.631,0,0,0-2.629-2.628H72.093V47.565a3.93,3.93,0,0,0-2.544-3.671V39.952H98.613a.963.963,0,0,1,.962.962v49.5H88.818a1.594,1.594,0,1,0,0,3.188h16.614ZM38.052,93.6H70.568l-.31,1.345a.365.365,0,0,1-.357.284H38.719a.365.365,0,0,1-.357-.284Z" transform="translate(0 0)"/>
    <path id="Trazado_216435" data-name="Trazado 216435" d="M96.782,84.5V41.474a1.594,1.594,0,0,0-1.594-1.594H74.45a1.594,1.594,0,0,0,0,3.188H93.595V82.9H13.851V43.068H32.922a1.594,1.594,0,0,0,0-3.188H12.257a1.594,1.594,0,0,0-1.594,1.594V84.5a1.594,1.594,0,0,0,1.594,1.594H95.188A1.594,1.594,0,0,0,96.782,84.5Z" transform="translate(0.667 2.196)"/>
    <path id="Trazado_216436" data-name="Trazado 216436" d="M87.5,60.6V48.979a2.632,2.632,0,0,0-2.629-2.629H71.53a1.594,1.594,0,1,0,0,3.188H84.308v10.5H71.53a1.594,1.594,0,1,0,0,3.188H84.867A2.632,2.632,0,0,0,87.5,60.6Z" transform="translate(4.377 2.601)"/>
    <path id="Trazado_216437" data-name="Trazado 216437" d="M31.884,49.539a1.594,1.594,0,0,0,0-3.188H18.444a2.632,2.632,0,0,0-2.629,2.629V60.6a2.632,2.632,0,0,0,2.629,2.629h13.44a1.594,1.594,0,1,0,0-3.188H19v-10.5Z" transform="translate(0.99 2.601)"/>
  </g>
</svg>
