<svg xmlns="http://www.w3.org/2000/svg" width="70.377" height="94.287" viewBox="0 0 70.377 94.287">
  <g id="experimentar" transform="translate(-19.475)">
    <g id="Grupo_146061" data-name="Grupo 146061" transform="translate(19.475 0)">
      <g id="Grupo_146060" data-name="Grupo 146060">
        <path id="Trazado_216249" data-name="Trazado 216249" d="M88.471,30.109a1.381,1.381,0,0,0,1.381-1.381V7.5a3.227,3.227,0,0,0-3.223-3.223H73.087V2.3a2.3,2.3,0,0,0-2.3-2.3H38.543a2.3,2.3,0,0,0-2.3,2.3V4.279H22.7A3.227,3.227,0,0,0,19.475,7.5V91.063A3.227,3.227,0,0,0,22.7,94.287H86.629a3.227,3.227,0,0,0,3.223-3.223V35.173a1.381,1.381,0,1,0-2.762,0v55.89a.462.462,0,0,1-.461.461H22.7a.462.462,0,0,1-.461-.461V7.5a.462.462,0,0,1,.461-.461h1.935V86.826a2.3,2.3,0,0,0,2.3,2.3h15.39a1.381,1.381,0,0,0,0-2.762H27.4V7.041h8.845V9.3a2.3,2.3,0,0,0,2.3,2.3H44.2a11.163,11.163,0,0,0,20.925,0h5.658a2.3,2.3,0,0,0,2.3-2.3V7.041h8.845V86.366H48.771a1.381,1.381,0,0,0,0,2.762H82.391a2.3,2.3,0,0,0,2.3-2.3V7.041h1.935a.462.462,0,0,1,.461.461V28.728A1.381,1.381,0,0,0,88.471,30.109ZM70.325,8.843H60.188a1.381,1.381,0,0,0,0,2.762h1.918a8.4,8.4,0,0,1-14.884,0h6.521a1.381,1.381,0,0,0,0-2.762H39V2.762H70.325Z" transform="translate(-19.475 0)" fill="#30610c"/>
        <path id="Trazado_216250" data-name="Trazado 216250" d="M98.249,79.946H79.833a1.381,1.381,0,0,0,0,2.762H98.249a1.381,1.381,0,1,0,0-2.762Z" transform="translate(-42.249 -30.872)" fill="#30610c"/>
        <path id="Trazado_216251" data-name="Trazado 216251" d="M58.231,82.709h9.207a1.381,1.381,0,0,0,0-2.762H58.231a1.381,1.381,0,1,0,0,2.762Z" transform="translate(-33.908 -30.872)" fill="#30610c"/>
        <path id="Trazado_216252" data-name="Trazado 216252" d="M89.908,95.566H58.231a1.381,1.381,0,0,0,0,2.762H89.908a1.381,1.381,0,0,0,0-2.762Z" transform="translate(-33.908 -36.903)" fill="#30610c"/>
        <path id="Trazado_216253" data-name="Trazado 216253" d="M105.551,111.185h-6.81a1.381,1.381,0,1,0,0,2.762h6.81a1.381,1.381,0,1,0,0-2.762Z" transform="translate(-49.551 -42.935)" fill="#30610c"/>
        <path id="Trazado_216254" data-name="Trazado 216254" d="M58.231,111.185a1.381,1.381,0,1,0,0,2.762H79.045a1.381,1.381,0,1,0,0-2.762Z" transform="translate(-33.908 -42.935)" fill="#30610c"/>
        <path id="Trazado_216255" data-name="Trazado 216255" d="M48.5,77.735A1.936,1.936,0,0,0,46.564,75.8H42.58a1.936,1.936,0,0,0-1.934,1.934v3.984a1.936,1.936,0,0,0,1.934,1.934h3.984A1.936,1.936,0,0,0,48.5,81.719ZM45.736,80.89H43.409V78.563h2.327Z" transform="translate(-27.65 -29.271)" fill="#30610c"/>
        <path id="Trazado_216256" data-name="Trazado 216256" d="M48.5,93.354a1.936,1.936,0,0,0-1.934-1.934H42.58a1.936,1.936,0,0,0-1.934,1.934v3.984a1.936,1.936,0,0,0,1.934,1.934h3.984A1.936,1.936,0,0,0,48.5,97.338ZM45.736,96.51H43.409V94.183h2.327Z" transform="translate(-27.65 -35.302)" fill="#30610c"/>
        <path id="Trazado_216257" data-name="Trazado 216257" d="M48.5,108.973a1.936,1.936,0,0,0-1.934-1.934H42.58a1.936,1.936,0,0,0-1.934,1.934v3.984a1.936,1.936,0,0,0,1.934,1.934h3.984a1.936,1.936,0,0,0,1.934-1.934Zm-2.762,3.156H43.409V109.8h2.327Z" transform="translate(-27.65 -41.334)" fill="#30610c"/>
        <path id="Trazado_216258" data-name="Trazado 216258" d="M46.564,122.659H42.58a1.936,1.936,0,0,0-1.934,1.934v3.984a1.936,1.936,0,0,0,1.934,1.934h3.984a1.936,1.936,0,0,0,1.934-1.934v-3.984A1.936,1.936,0,0,0,46.564,122.659Zm-.829,5.089H43.409v-2.327h2.327Z" transform="translate(-27.65 -47.365)" fill="#30610c"/>
        <path id="Trazado_216259" data-name="Trazado 216259" d="M58.231,129.567H89.908a1.381,1.381,0,1,0,0-2.762H58.231a1.381,1.381,0,1,0,0,2.762Z" transform="translate(-33.908 -48.966)" fill="#30610c"/>
        <path id="Trazado_216260" data-name="Trazado 216260" d="M59.124,9.665H79.758a1.381,1.381,0,0,0,0-2.762H59.124a1.381,1.381,0,0,0,0,2.762Z" transform="translate(-34.252 -2.666)" fill="#30610c"/>
        <path id="Trazado_216261" data-name="Trazado 216261" d="M53.647,49.4a5.512,5.512,0,0,0,3.847-1.563l1.094,1.094a4.229,4.229,0,1,0,1.953-1.953L58.962,45.4a5.528,5.528,0,0,0-3.934-6.887V37.472a4.227,4.227,0,1,0-2.762,0v1.037a5.528,5.528,0,0,0-3.94,6.864L46.72,46.979a4.227,4.227,0,1,0,1.953,1.953l1.111-1.111A5.514,5.514,0,0,0,53.647,49.4Zm10.207,1.379a1.465,1.465,0,1,1-1.465-1.465A1.467,1.467,0,0,1,63.854,50.777ZM53.647,32.013a1.465,1.465,0,1,1-1.465,1.465,1.467,1.467,0,0,1,1.465-1.465Zm0,9.084a2.769,2.769,0,1,1-2.769,2.769A2.773,2.773,0,0,1,53.647,41.1ZM45.911,51.813a1.464,1.464,0,1,1,0-2.072A1.466,1.466,0,0,1,45.911,51.813Z" transform="translate(-27.652 -11.295)" fill="#30610c"/>
        <path id="Trazado_216262" data-name="Trazado 216262" d="M42.028,34.577h3.454a1.381,1.381,0,1,0,0-2.762H42.028a1.381,1.381,0,0,0,0,2.762Z" transform="translate(-27.65 -12.285)" fill="#30610c"/>
        <path id="Trazado_216263" data-name="Trazado 216263" d="M42.028,41.48h3.454a1.381,1.381,0,1,0,0-2.762H42.028a1.381,1.381,0,1,0,0,2.762Z" transform="translate(-27.65 -14.951)" fill="#30610c"/>
        <path id="Trazado_216264" data-name="Trazado 216264" d="M104.276,34.577a1.381,1.381,0,1,0,0-2.762H95.44a1.381,1.381,0,0,0,0,2.762Z" transform="translate(-48.276 -12.285)" fill="#30610c"/>
        <path id="Trazado_216265" data-name="Trazado 216265" d="M82.042,41.3a1.381,1.381,0,0,0,1.381,1.381H99.636a1.381,1.381,0,1,0,0-2.762H83.423A1.381,1.381,0,0,0,82.042,41.3Z" transform="translate(-43.635 -15.415)" fill="#30610c"/>
        <path id="Trazado_216266" data-name="Trazado 216266" d="M83.423,50.784H99.636a1.381,1.381,0,1,0,0-2.762H83.423a1.381,1.381,0,0,0,0,2.762Z" transform="translate(-43.635 -18.544)" fill="#30610c"/>
        <path id="Trazado_216267" data-name="Trazado 216267" d="M103.408,57.357a4.227,4.227,0,1,0,4.227,4.227A4.232,4.232,0,0,0,103.408,57.357Zm0,5.692a1.465,1.465,0,1,1,1.465-1.465A1.467,1.467,0,0,1,103.408,63.049Z" transform="translate(-50.254 -22.149)" fill="#30610c"/>
      </g>
    </g>
  </g>
</svg>
