<svg xmlns="http://www.w3.org/2000/svg" width="320.783" height="322.885" viewBox="0 0 320.783 322.885">
  <g id="ILUSTRACIONES-08" transform="translate(-7.953 -3.74)">
    <path id="Trazado_211454" data-name="Trazado 211454" d="M36.254,82.468a69.837,69.837,0,0,1,.277-7.212A73.163,73.163,0,0,1,108.924,8.75h1.325a72.762,72.762,0,0,1,26.1,5.085h0a73.256,73.256,0,0,1,45.858,60.1,66.944,66.944,0,0,1,.431,7.489,71.712,71.712,0,0,1-2.034,17.721A73.194,73.194,0,0,1,36.254,82.468Z" transform="translate(58.907 10.43)" fill="#407bff"/>
    <g id="Grupo_145839" data-name="Grupo 145839" transform="translate(95.155 19.18)" opacity="0.6">
      <path id="Trazado_211455" data-name="Trazado 211455" d="M36.254,82.468a69.837,69.837,0,0,1,.277-7.212A73.163,73.163,0,0,1,108.924,8.75h1.325a72.762,72.762,0,0,1,26.1,5.085h0a73.256,73.256,0,0,1,45.858,60.1,66.944,66.944,0,0,1,.431,7.489,71.712,71.712,0,0,1-2.034,17.721A73.194,73.194,0,0,1,36.254,82.468Z" transform="translate(-36.248 -8.75)" fill="#c3e1ac"/>
    </g>
    <path id="Trazado_211456" data-name="Trazado 211456" d="M87.505,90.583c-1.356.154-1.972,1.818-2.25,3.082-.431,2.065-.863,4.13-1.264,6.164a4.376,4.376,0,0,1,1.14,6.349A73.194,73.194,0,0,1,36.254,37.791a69.841,69.841,0,0,1,.277-7.212h.185c2-.955,3.575.77,5.085,1.726.339.216,4.715,2.342,4.777,1.757a19.879,19.879,0,0,0,.308,5.732.616.616,0,0,0,.185.37c.308.216.616-.185.74-.524.247-.832.37-1.726.678-2.558a3.082,3.082,0,0,1,1.757-1.88,15.1,15.1,0,0,1,2.65,0,3.575,3.575,0,0,0,2.5-1.911A12.049,12.049,0,0,0,56.44,30.21c1.017,2.311,3.637.894,5.208,2.743.493.616,1.079,1.448,1.787,1.171s.77-1.448,1.51-1.541.863.493.955,1.017a4.838,4.838,0,0,0,.216,1.51,1.325,1.325,0,0,0,1.818.586c.555-.339.77-1.017,1.14-1.572s1.079-1.017,1.6-.647a1.788,1.788,0,0,1,.308.37,3.082,3.082,0,0,1-.77,3.082,5.547,5.547,0,0,0-1.572,2.835.925.925,0,0,0,1.264-.247.38.38,0,0,1,.247-.431,1.4,1.4,0,0,1,1.017.185,6.564,6.564,0,0,0,4.962.863c.154-2.219.277-4.438.4-6.688.493,0,.8,0,.986-.555a62.474,62.474,0,0,0,5.054,4.839,1.325,1.325,0,0,1,.524.647v.894c0,.955,1.356,1.233,2.342,1.2.277.154,0,.616-.185.77s-.616.185-.894.37a1.325,1.325,0,0,0-.247,1.356,3.082,3.082,0,0,0,4.037,2,.894.894,0,0,0,.493-.339c.247-.37,0-.832,0-1.294-.185-1.726,1.7-1.325,2.558-.832a5.3,5.3,0,0,1,2.034,3.606c.247,1.418,1.325,10.971,4.53,9.646a1.541,1.541,0,0,0,.647-.678,21.325,21.325,0,0,0,.77-2.835c.339-.925,1.387-1.757,2.25-1.294.339.216.555.555.894.77.894.616,2.188,0,3.082.339a8.6,8.6,0,0,1,1.171.925c.431.277,1.079.37,1.387,0s0-1.14.185-1.633a.894.894,0,0,1,1.479,0,1.541,1.541,0,0,1-.247,1.633,1.818,1.818,0,0,0-.524.77,1.694,1.694,0,0,0,.863,1.325l2.188,1.51a1.387,1.387,0,0,1-1.017.986,2.93,2.93,0,0,0-1.51.277c-2.311.77-2.311,4.222-5.362,3.544a1.448,1.448,0,0,0-1.7-1.6c-1.109.277-1.849,1.849-2.928,1.541-.4,0-.678-.431-1.079-.524-1.079-.277-1.6,1.387-1.911,2.1-.986,2.311.555,2.62.493,4.684,0,.955-.74,1.757-.894,2.712a14.864,14.864,0,0,0,0,2.62c-.308,2.373-3.482.925-4.869.647.77,1.356-.37,3.082-1.6,3.945-1.664,1.356-1.479,1.356-1.664,3.39a1.51,1.51,0,0,1-.894,1.294c-.925.308-1.787-.586-2.774-.678H82.852c-1.2-.216-1.633-1.664-2.4-2.62a3.39,3.39,0,0,0-2.835-1.14,6.163,6.163,0,0,0,0,1.849l2,1.264A4.684,4.684,0,0,1,81.188,82.2a4.469,4.469,0,0,0,.616.986c.616.493,1.479.216,2.25.154A22.744,22.744,0,0,1,90.8,84.974c1.942.647,2.62,2,4.376,2.62a.555.555,0,0,1,.216.832,1.264,1.264,0,0,1-.863.462,3.483,3.483,0,0,1-2.219-.37c.863.493-1.7,2.62-2.188,2.712s-1.787-.4-2.558-.431c-1.942,0-3.082.277-1.787,2.373.493.8,1.048,1.849.524,2.62a1.2,1.2,0,0,0-1.418.555,2.5,2.5,0,0,0-.247,1.633A1.572,1.572,0,0,0,85.04,99a1.356,1.356,0,0,1,.431.4c.37.524-.37,1.109-.986,1.356" transform="translate(58.907 55.107)" fill="#407bff" opacity="0.4"/>
    <path id="Trazado_211457" data-name="Trazado 211457" d="M104.414,47.593c-.616-.431-1.448,0-2.1.339s-1.356.894-2.065.647V45.96a.8.8,0,0,0,0-.462.678.678,0,0,0-.493,0H98.1c-.493.524.832,1.14.647,1.818s-.431.431-.709.555c-2.311,1.264-.832,3.821.216,5.239a8.6,8.6,0,0,1,.986,5.856,2.651,2.651,0,0,1-.678,2c-.524.462-1.325.431-2.034.647-1.2.339-2.034,1.387-3.082,1.942-3.914,1.942-6.5-2.25-5.239-5.547.678-1.726.955-1.387.586-3.082-.185-.77,0-1.664-.709-2.188a1.387,1.387,0,0,0-2.126,1.048,6.164,6.164,0,0,0,0,2.9,11.958,11.958,0,0,0-3.791,0,1.664,1.664,0,0,1-2.342,1.6c0-.555,0-1.356-.709-1.356a.986.986,0,0,0-.462.185c-.616.339-1.14.832-1.757,1.109s-3.791.247-4.222,1.541a4.777,4.777,0,0,1-.154.709,1.079,1.079,0,0,1-1.294.586,1.51,1.51,0,0,1-.955-1.14c0-.339,0-.709,0-1.048-.462-1.757-2.281-.37-3.082-.863A14.423,14.423,0,0,1,65.151,54.4,4.13,4.13,0,0,1,62.07,56.13c-1.387,0-2-1.2-2.311-2.558s-.339-3.082-.678-4.222a2.078,2.078,0,0,1,0-1.664c.308-.431,1.541-.339,1.911-.986a2.188,2.188,0,0,0,.185-.678,2.589,2.589,0,0,1,3.082-1.972c.431-.277.431-.894.462-1.418s.247-1.14.77-1.171.863.709.832,1.325a6.164,6.164,0,0,1-.277,1.787,2.219,2.219,0,0,0,0,1.325,1.726,1.726,0,0,0,.678.74,4.006,4.006,0,0,0,2.25.925A1.7,1.7,0,0,0,70.7,46.114a4.562,4.562,0,0,1,0-.647c0-.555.832-.74,1.387-.678a5.3,5.3,0,0,0,1.7.185c.555,0,1.017-.832.616-1.233.74-.277,1.818-.4,2.126.339a2.126,2.126,0,0,1,0,.77c0,1.572,1.972,3.821,3.328,2.188.863-1.079-.647-3.082.925-3.945.77-.431,1.787,0,2.527-.493.216-.277,0-.647-.524-.74a3.359,3.359,0,0,0-3.082.863c-.462-.925.247-2.25-.524-2.928s-2.25,0-2.835-.709a1.725,1.725,0,0,1-.216-.8c0-1.448.339-4.037-1.664-4.284a3.082,3.082,0,0,1-.74,0c-.678-.277-.678-1.233-.555-1.972.77-.308,1.572.247,2.311.616s1.849.462,2.1-.339-.247-1.264,0-1.7.462-.308.616-.524-.493-1.109-.647-1.757.955-1.448,1.88-1.387,1.911.37,2.65,0c.216-.185.4-.431.616-.616a3.822,3.822,0,0,1,2.5-.678c1.418,0-1.787-5.825-1.818-6.164-.247-2.681,2.5-4.13,4.1-5.825A16.951,16.951,0,0,0,89.5,10.58a73.964,73.964,0,0,1,45.088,56.028,22.006,22.006,0,0,1,.4,3.421c-1.664-.462-4.253-1.7-5.948-.678-2.157,1.264-.616,4.469-3.082,5.424-.616,0-.462-1.017-.8-1.541a2.249,2.249,0,0,0-.863-.524.643.643,0,0,1-.493-.8c-.524-.4-1.264,0-1.757.586a4.315,4.315,0,0,1-2.065,1.233c-1.633.339-3.082-.832-4.623-1.633a24.258,24.258,0,0,0-3.76-1.479c.616,0,.955-.832.709-1.418a6.163,6.163,0,0,0-1.2-1.479c-.709-.863-.185-1.849-.74-2.743s-2.126-1.88-2.219-3.082,1.6-2.62,3.082-3.082c-.77-1.787-2.9-3.082-2.9-4.993a5.3,5.3,0,0,1,.647-2.157l2.034-4.16a2.866,2.866,0,0,0,.4-1.849,3.082,3.082,0,0,0-1.6-1.479l-2.188-1.079a1.6,1.6,0,0,0-.955-.247,1.572,1.572,0,0,0-.863.616,7.921,7.921,0,0,0-1.541,5.486,30.819,30.819,0,0,1-7.551-2.1c.277,1.479-.339,3.082,0,4.53" transform="translate(106.07 14.24)" fill="#407bff" opacity="0.4"/>
    <path id="Trazado_211458" data-name="Trazado 211458" d="M58.516,31.146a2.774,2.774,0,0,0-1.294,2.1,13.653,13.653,0,0,0,.185,1.572,1.448,1.448,0,0,1-.586,1.387,1.685,1.685,0,0,1-1.849-.462A2.157,2.157,0,0,1,53.925,34.5c0-.37,0-.8,0-1.2s-.77-1.325-1.325-1.911-1.048-1.448-.586-2.1.863-.586,1.171-1.017c.77-1.017-.616-2.435,0-3.359s2.589-.555,3.606,0a10.786,10.786,0,0,1,2.527,2.5C61.6,29.944,60.828,29.42,58.516,31.146Z" transform="translate(91.347 42.922)" fill="#407bff" opacity="0.4"/>
    <path id="Trazado_211459" data-name="Trazado 211459" d="M45.1,24.93A71.406,71.406,0,0,1,90.5,8.75h1.325c2.281,2.373,3.267,6.934-.8,7.735,0,.462.277.586.493.955s-.216,1.294-.863,1.541c-2.065.863-4.561.8-4.222,3.606.37,3.328,1.942,1.2,3.7,2.4a6.164,6.164,0,0,1,.586.678,3.637,3.637,0,0,0,3.082.77,1.264,1.264,0,0,1,.832-1.664,2.034,2.034,0,0,0,.77-.185c.462-.339,0-1.14-.4-1.356a10.88,10.88,0,0,0-1.7-.308c-.555,0-1.079-.8-.74-1.264a.894.894,0,0,1,.616-.339,3.082,3.082,0,0,1,2.8.77,1.387,1.387,0,0,1,1.2-.863,1.264,1.264,0,0,1,1.109,1.079c0,.832-.431,1.942.308,2.311a1.849,1.849,0,0,0-1.818.586c-1.7,1.972-.678,6.842-5.178,6.164-.709,0-1.387-.431-2.126-.493a1.664,1.664,0,0,0-1.757,1.017c-.925-1.356-3.359-1.079-4.161-2.527a1.787,1.787,0,0,1,.4-2.126.555.555,0,0,0,.247-.277v-.77c0-.277.431-.8.493-1.233s-.647-1.048-1.264-1.2-1.387-.4-1.51-1.017,0-.462,0-.647a1.079,1.079,0,0,0-.955-.8,3.082,3.082,0,0,0-1.294.216c-.308.247-.185.709,0,.986s.616.462.832.77a29.306,29.306,0,0,0-.185,3.883c-1.356.462-4.253.524-3.667,2.558.185.709.616,1.479.339,2.157l2.866-.77c.247.308,0,.74-.524.832s-.8,0-1.048.37a1.079,1.079,0,0,0-.216.77,15.48,15.48,0,0,1-.154,2.65,3.082,3.082,0,0,1-.986,2.589,2.4,2.4,0,0,1-2.928-.678c-.185-.185-.37-.4-.647-.4a.894.894,0,0,0-.586.339,4.037,4.037,0,0,1-3.452,1.048,2.558,2.558,0,0,1-2-2.743c0-.462.277-1.048,0-1.356s-.586-.216-.678-.462.308-.586.586-.8a1.387,1.387,0,0,0,.4-1.726,6.934,6.934,0,0,0-3.082-1.171c-.925.462-.77,3.082-.894,3.945a1.387,1.387,0,0,1-.4,1.048c-.493.339-1.171,0-1.541-.493s-.616-1.048-1.171-1.294a2.157,2.157,0,0,0-.986-.185,2.558,2.558,0,0,0-1.972.493c-.247.216-.37.524-.616.77a2.034,2.034,0,0,1-2.1.247c-.678-.247-1.325-.678-2.034-.863-1.541-.431-3.3.308-4.684-.431-.678-.339-1.171-1.294-.647-1.849s1.479-.4,1.6-1.048-1.418-1.51-1.664-2.065.247-1.233-.247-2.034S45.531,25.639,45.1,24.93Z" transform="translate(77.335 10.43)" fill="#407bff" opacity="0.4"/>
    <path id="Trazado_211460" data-name="Trazado 211460" d="M76.4,68.658c.894-.586,1.849-.925,2.157-2.126s-.462-2.311-2.1-1.726a.524.524,0,0,1-.431,0c-.462,0-.154-.832,0-1.233a3.267,3.267,0,0,0,.4-3.082,15.409,15.409,0,0,1,4.993,0c1.757.986.616,4.715,2.65,4.1V60.245h2.1c-.524,0-.216-2.62,0-2.928.709-1.14,2.8-.647,2.62-2.774-.247-2.712-5.455-3.267-4.838-.154a13.252,13.252,0,0,1-5.147.678q0,.832,0,1.664a1.51,1.51,0,0,1-1.356,0,4.222,4.222,0,0,1,.308-4.561c-.586-.894,0-2.065.832-3.082a3.267,3.267,0,1,1,5.054-1.7,5.362,5.362,0,0,1,3.082,1.356,6.965,6.965,0,0,1,5.054-6.164c1.418-.339,3.082-.339,4.037-1.418.431-.493.616-1.109,1.017-1.633a5.239,5.239,0,0,1,3.945-1.448h2.9a73.132,73.132,0,0,1-27.305,41.42,2.65,2.65,0,0,1-1.479-.216,3.082,3.082,0,0,1-1.264-2.373,7.027,7.027,0,0,1,2.62-8.044Z" transform="translate(135.931 71.484)" fill="#407bff" opacity="0.4"/>
    <path id="Trazado_211461" data-name="Trazado 211461" d="M87.505,90.583c-1.356.154-1.972,1.818-2.25,3.082-.431,2.065-.863,4.13-1.264,6.164a4.376,4.376,0,0,1,1.14,6.349A73.194,73.194,0,0,1,36.254,37.791a69.841,69.841,0,0,1,.277-7.212h.185c2-.955,3.575.77,5.085,1.726.339.216,4.715,2.342,4.777,1.757a19.879,19.879,0,0,0,.308,5.732.616.616,0,0,0,.185.37c.308.216.616-.185.74-.524.247-.832.37-1.726.678-2.558a3.082,3.082,0,0,1,1.757-1.88,15.1,15.1,0,0,1,2.65,0,3.575,3.575,0,0,0,2.5-1.911A12.049,12.049,0,0,0,56.44,30.21c1.017,2.311,3.637.894,5.208,2.743.493.616,1.079,1.448,1.787,1.171s.77-1.448,1.51-1.541.863.493.955,1.017a4.838,4.838,0,0,0,.216,1.51,1.325,1.325,0,0,0,1.818.586c.555-.339.77-1.017,1.14-1.572s1.079-1.017,1.6-.647a1.788,1.788,0,0,1,.308.37,3.082,3.082,0,0,1-.77,3.082,5.547,5.547,0,0,0-1.572,2.835.925.925,0,0,0,1.264-.247.38.38,0,0,1,.247-.431,1.4,1.4,0,0,1,1.017.185,6.564,6.564,0,0,0,4.962.863c.154-2.219.277-4.438.4-6.688.493,0,.8,0,.986-.555a62.474,62.474,0,0,0,5.054,4.839,1.325,1.325,0,0,1,.524.647v.894c0,.955,1.356,1.233,2.342,1.2.277.154,0,.616-.185.77s-.616.185-.894.37a1.325,1.325,0,0,0-.247,1.356,3.082,3.082,0,0,0,4.037,2,.894.894,0,0,0,.493-.339c.247-.37,0-.832,0-1.294-.185-1.726,1.7-1.325,2.558-.832a5.3,5.3,0,0,1,2.034,3.606c.247,1.418,1.325,10.971,4.53,9.646a1.541,1.541,0,0,0,.647-.678,21.325,21.325,0,0,0,.77-2.835c.339-.925,1.387-1.757,2.25-1.294.339.216.555.555.894.77.894.616,2.188,0,3.082.339a8.6,8.6,0,0,1,1.171.925c.431.277,1.079.37,1.387,0s0-1.14.185-1.633a.894.894,0,0,1,1.479,0,1.541,1.541,0,0,1-.247,1.633,1.818,1.818,0,0,0-.524.77,1.694,1.694,0,0,0,.863,1.325l2.188,1.51a1.387,1.387,0,0,1-1.017.986,2.93,2.93,0,0,0-1.51.277c-2.311.77-2.311,4.222-5.362,3.544a1.448,1.448,0,0,0-1.7-1.6c-1.109.277-1.849,1.849-2.928,1.541-.4,0-.678-.431-1.079-.524-1.079-.277-1.6,1.387-1.911,2.1-.986,2.311.555,2.62.493,4.684,0,.955-.74,1.757-.894,2.712a14.864,14.864,0,0,0,0,2.62c-.308,2.373-3.482.925-4.869.647.77,1.356-.37,3.082-1.6,3.945-1.664,1.356-1.479,1.356-1.664,3.39a1.51,1.51,0,0,1-.894,1.294c-.925.308-1.787-.586-2.774-.678H82.852c-1.2-.216-1.633-1.664-2.4-2.62a3.39,3.39,0,0,0-2.835-1.14,6.163,6.163,0,0,0,0,1.849l2,1.264A4.684,4.684,0,0,1,81.188,82.2a4.469,4.469,0,0,0,.616.986c.616.493,1.479.216,2.25.154A22.744,22.744,0,0,1,90.8,84.974c1.942.647,2.62,2,4.376,2.62a.555.555,0,0,1,.216.832,1.264,1.264,0,0,1-.863.462,3.483,3.483,0,0,1-2.219-.37c.863.493-1.7,2.62-2.188,2.712s-1.787-.4-2.558-.431c-1.942,0-3.082.277-1.787,2.373.493.8,1.048,1.849.524,2.62a1.2,1.2,0,0,0-1.418.555,2.5,2.5,0,0,0-.247,1.633A1.572,1.572,0,0,0,85.04,99a1.356,1.356,0,0,1,.431.4c.37.524-.37,1.109-.986,1.356" transform="translate(58.907 55.107)" fill="#fff" opacity="0.7"/>
    <path id="Trazado_211462" data-name="Trazado 211462" d="M104.414,47.593c-.616-.431-1.448,0-2.1.339s-1.356.894-2.065.647V45.96a.8.8,0,0,0,0-.462.678.678,0,0,0-.493,0H98.1c-.493.524.832,1.14.647,1.818s-.431.431-.709.555c-2.311,1.264-.832,3.821.216,5.239a8.6,8.6,0,0,1,.986,5.856,2.651,2.651,0,0,1-.678,2c-.524.462-1.325.431-2.034.647-1.2.339-2.034,1.387-3.082,1.942-3.914,1.942-6.5-2.25-5.239-5.547.678-1.726.955-1.387.586-3.082-.185-.77,0-1.664-.709-2.188a1.387,1.387,0,0,0-2.126,1.048,6.164,6.164,0,0,0,0,2.9,11.958,11.958,0,0,0-3.791,0,1.664,1.664,0,0,1-2.342,1.6c0-.555,0-1.356-.709-1.356a.986.986,0,0,0-.462.185c-.616.339-1.14.832-1.757,1.109s-3.791.247-4.222,1.541a4.777,4.777,0,0,1-.154.709,1.079,1.079,0,0,1-1.294.586,1.51,1.51,0,0,1-.955-1.14c0-.339,0-.709,0-1.048-.462-1.757-2.281-.37-3.082-.863A14.423,14.423,0,0,1,65.151,54.4,4.13,4.13,0,0,1,62.07,56.13c-1.387,0-2-1.2-2.311-2.558s-.339-3.082-.678-4.222a2.078,2.078,0,0,1,0-1.664c.308-.431,1.541-.339,1.911-.986a2.188,2.188,0,0,0,.185-.678,2.589,2.589,0,0,1,3.082-1.972c.431-.277.431-.894.462-1.418s.247-1.14.77-1.171.863.709.832,1.325a6.164,6.164,0,0,1-.277,1.787,2.219,2.219,0,0,0,0,1.325,1.726,1.726,0,0,0,.678.74,4.006,4.006,0,0,0,2.25.925A1.7,1.7,0,0,0,70.7,46.114a4.562,4.562,0,0,1,0-.647c0-.555.832-.74,1.387-.678a5.3,5.3,0,0,0,1.7.185c.555,0,1.017-.832.616-1.233.74-.277,1.818-.4,2.126.339a2.126,2.126,0,0,1,0,.77c0,1.572,1.972,3.821,3.328,2.188.863-1.079-.647-3.082.925-3.945.77-.431,1.787,0,2.527-.493.216-.277,0-.647-.524-.74a3.359,3.359,0,0,0-3.082.863c-.462-.925.247-2.25-.524-2.928s-2.25,0-2.835-.709a1.725,1.725,0,0,1-.216-.8c0-1.448.339-4.037-1.664-4.284a3.082,3.082,0,0,1-.74,0c-.678-.277-.678-1.233-.555-1.972.77-.308,1.572.247,2.311.616s1.849.462,2.1-.339-.247-1.264,0-1.7.462-.308.616-.524-.493-1.109-.647-1.757.955-1.448,1.88-1.387,1.911.37,2.65,0c.216-.185.4-.431.616-.616a3.822,3.822,0,0,1,2.5-.678c1.418,0-1.787-5.825-1.818-6.164-.247-2.681,2.5-4.13,4.1-5.825A16.951,16.951,0,0,0,89.5,10.58a73.964,73.964,0,0,1,45.088,56.028,22.006,22.006,0,0,1,.4,3.421c-1.664-.462-4.253-1.7-5.948-.678-2.157,1.264-.616,4.469-3.082,5.424-.616,0-.462-1.017-.8-1.541a2.249,2.249,0,0,0-.863-.524.643.643,0,0,1-.493-.8c-.524-.4-1.264,0-1.757.586a4.315,4.315,0,0,1-2.065,1.233c-1.633.339-3.082-.832-4.623-1.633a24.258,24.258,0,0,0-3.76-1.479c.616,0,.955-.832.709-1.418a6.163,6.163,0,0,0-1.2-1.479c-.709-.863-.185-1.849-.74-2.743s-2.126-1.88-2.219-3.082,1.6-2.62,3.082-3.082c-.77-1.787-2.9-3.082-2.9-4.993a5.3,5.3,0,0,1,.647-2.157l2.034-4.16a2.866,2.866,0,0,0,.4-1.849,3.082,3.082,0,0,0-1.6-1.479l-2.188-1.079a1.6,1.6,0,0,0-.955-.247,1.572,1.572,0,0,0-.863.616,7.921,7.921,0,0,0-1.541,5.486,30.819,30.819,0,0,1-7.551-2.1c.277,1.479-.339,3.082,0,4.53" transform="translate(106.07 14.24)" fill="#fff" opacity="0.7"/>
    <path id="Trazado_211463" data-name="Trazado 211463" d="M58.516,31.146a2.774,2.774,0,0,0-1.294,2.1,13.653,13.653,0,0,0,.185,1.572,1.448,1.448,0,0,1-.586,1.387,1.685,1.685,0,0,1-1.849-.462A2.157,2.157,0,0,1,53.925,34.5c0-.37,0-.8,0-1.2s-.77-1.325-1.325-1.911-1.048-1.448-.586-2.1.863-.586,1.171-1.017c.77-1.017-.616-2.435,0-3.359s2.589-.555,3.606,0a10.786,10.786,0,0,1,2.527,2.5C61.6,29.944,60.828,29.42,58.516,31.146Z" transform="translate(91.347 42.922)" fill="#fff" opacity="0.7"/>
    <path id="Trazado_211464" data-name="Trazado 211464" d="M45.1,24.93A71.406,71.406,0,0,1,90.5,8.75h1.325c2.281,2.373,3.267,6.934-.8,7.735,0,.462.277.586.493.955s-.216,1.294-.863,1.541c-2.065.863-4.561.8-4.222,3.606.37,3.328,1.942,1.2,3.7,2.4a6.164,6.164,0,0,1,.586.678,3.637,3.637,0,0,0,3.082.77,1.264,1.264,0,0,1,.832-1.664,2.034,2.034,0,0,0,.77-.185c.462-.339,0-1.14-.4-1.356a10.88,10.88,0,0,0-1.7-.308c-.555,0-1.079-.8-.74-1.264a.894.894,0,0,1,.616-.339,3.082,3.082,0,0,1,2.8.77,1.387,1.387,0,0,1,1.2-.863,1.264,1.264,0,0,1,1.109,1.079c0,.832-.431,1.942.308,2.311a1.849,1.849,0,0,0-1.818.586c-1.7,1.972-.678,6.842-5.178,6.164-.709,0-1.387-.431-2.126-.493a1.664,1.664,0,0,0-1.757,1.017c-.925-1.356-3.359-1.079-4.161-2.527a1.787,1.787,0,0,1,.4-2.126.555.555,0,0,0,.247-.277v-.77c0-.277.431-.8.493-1.233s-.647-1.048-1.264-1.2-1.387-.4-1.51-1.017,0-.462,0-.647a1.079,1.079,0,0,0-.955-.8,3.082,3.082,0,0,0-1.294.216c-.308.247-.185.709,0,.986s.616.462.832.77a29.306,29.306,0,0,0-.185,3.883c-1.356.462-4.253.524-3.667,2.558.185.709.616,1.479.339,2.157l2.866-.77c.247.308,0,.74-.524.832s-.8,0-1.048.37a1.079,1.079,0,0,0-.216.77,15.48,15.48,0,0,1-.154,2.65,3.082,3.082,0,0,1-.986,2.589,2.4,2.4,0,0,1-2.928-.678c-.185-.185-.37-.4-.647-.4a.894.894,0,0,0-.586.339,4.037,4.037,0,0,1-3.452,1.048,2.558,2.558,0,0,1-2-2.743c0-.462.277-1.048,0-1.356s-.586-.216-.678-.462.308-.586.586-.8a1.387,1.387,0,0,0,.4-1.726,6.934,6.934,0,0,0-3.082-1.171c-.925.462-.77,3.082-.894,3.945a1.387,1.387,0,0,1-.4,1.048c-.493.339-1.171,0-1.541-.493s-.616-1.048-1.171-1.294a2.157,2.157,0,0,0-.986-.185,2.558,2.558,0,0,0-1.972.493c-.247.216-.37.524-.616.77a2.034,2.034,0,0,1-2.1.247c-.678-.247-1.325-.678-2.034-.863-1.541-.431-3.3.308-4.684-.431-.678-.339-1.171-1.294-.647-1.849s1.479-.4,1.6-1.048-1.418-1.51-1.664-2.065.247-1.233-.247-2.034S45.531,25.639,45.1,24.93Z" transform="translate(77.335 10.43)" fill="#fff" opacity="0.7"/>
    <path id="Trazado_211465" data-name="Trazado 211465" d="M76.4,68.658c.894-.586,1.849-.925,2.157-2.126s-.462-2.311-2.1-1.726a.524.524,0,0,1-.431,0c-.462,0-.154-.832,0-1.233a3.267,3.267,0,0,0,.4-3.082,15.409,15.409,0,0,1,4.993,0c1.757.986.616,4.715,2.65,4.1V60.245h2.1c-.524,0-.216-2.62,0-2.928.709-1.14,2.8-.647,2.62-2.774-.247-2.712-5.455-3.267-4.838-.154a13.252,13.252,0,0,1-5.147.678q0,.832,0,1.664a1.51,1.51,0,0,1-1.356,0,4.222,4.222,0,0,1,.308-4.561c-.586-.894,0-2.065.832-3.082a3.267,3.267,0,1,1,5.054-1.7,5.362,5.362,0,0,1,3.082,1.356,6.965,6.965,0,0,1,5.054-6.164c1.418-.339,3.082-.339,4.037-1.418.431-.493.616-1.109,1.017-1.633a5.239,5.239,0,0,1,3.945-1.448h2.9a73.132,73.132,0,0,1-27.305,41.42,2.65,2.65,0,0,1-1.479-.216,3.082,3.082,0,0,1-1.264-2.373,7.027,7.027,0,0,1,2.62-8.044Z" transform="translate(135.931 71.484)" fill="#fff" opacity="0.7"/>
    <g id="_Group_" data-name="&lt;Group&gt;" transform="translate(204.474 3.74)">
      <path id="Trazado_211466" data-name="Trazado 211466" d="M98.933,34.874,89.687,37A34.146,34.146,0,0,1,86.2,34.75C84.695,33.579,71.72,32.1,71.72,32.1s0,10.047,1.2,11.125A94.894,94.894,0,0,0,85.5,46.8c1.479.493,4.777-3.7,4.777-3.7L100.6,41.037Z" transform="translate(-71.72 55.301)" fill="#e4897b"/>
      <path id="Trazado_211467" data-name="Trazado 211467" d="M123.4,37.767s-.77,2.5-1.88,5.979c-2.589,7.982-7.057,21.2-8.66,21.912a26.253,26.253,0,0,1-3.359.894c-8.352,1.942-28.815,5.856-28.815,5.856l-2-8.537s27.151-7.92,28.415-9.492S112.149,21.4,120.347,18.29Z" transform="translate(-57.23 26.551)" fill="#263238"/>
      <path id="Trazado_211468" data-name="Trazado 211468" d="M100.7,33.42c-2.589,7.982-7.057,21.2-8.66,21.912a26.254,26.254,0,0,1-3.359.894A101.855,101.855,0,0,1,97.217,23.25,22.5,22.5,0,0,1,100.7,33.42Z" transform="translate(-36.412 36.877)" opacity="0.2"/>
      <path id="Trazado_211469" data-name="Trazado 211469" d="M115.656,105.173h10.971a.8.8,0,0,1,.77.616l1.787,8.044a1.325,1.325,0,0,1-1.017,1.572h-.308c-3.544,0-6.164-.277-10.6-.277-2.743,0-11.033.308-14.855.308s-4.284-3.76-2.712-4.1a35.441,35.441,0,0,0,14.423-5.64,2.157,2.157,0,0,1,1.541-.524Z" transform="translate(-15.249 207.419)" fill="#263238"/>
      <path id="Trazado_211470" data-name="Trazado 211470" d="M100.516,105.07h10.971a.8.8,0,0,1,.77.616l1.787,8.074a1.325,1.325,0,0,1-1.017,1.572h-.308c-3.544,0-6.164-.277-10.6-.277-2.743,0-11.033.277-14.824.277s-4.284-3.729-2.743-4.1a35.9,35.9,0,0,0,14.454-5.609,2.25,2.25,0,0,1,1.51-.555Z" transform="translate(-46.707 207.214)" fill="#263238"/>
      <path id="Trazado_211471" data-name="Trazado 211471" d="M146.876,39.09H98.86c-4.561,24.932-18.83,126.078-8.6,204.7h16.272s-1.51-119.329,12.82-157.914c1.664,20.648,18.491,157.821,18.491,157.821H154.4s-2.465-51.59-4.962-100.345C147.831,112.777,146.937,45.408,146.876,39.09Z" transform="translate(-40.644 69.853)" fill="#c45c18"/>
      <path id="Trazado_211473" data-name="Trazado 211473" d="M100.956,65.855a126.354,126.354,0,0,0-5.362,20.71A129.777,129.777,0,0,1,99.631,48.72Z" transform="translate(-22.245 89.902)" opacity="0.2"/>
      <path id="Trazado_211474" data-name="Trazado 211474" d="M90.9,39.28h6.626v5.239l-7.242-.092Z" transform="translate(-33.081 70.249)"/>
      <path id="Trazado_211475" data-name="Trazado 211475" d="M93.19,39.28H115.9v5.547L93.19,44.55Z" transform="translate(-27.023 70.249)"/>
      <path id="Trazado_211476" data-name="Trazado 211476" d="M116.653,39.28v5.763l-15.533-.216V39.28Z" transform="translate(-10.514 70.249)"/>
      <rect id="Rectángulo_43659" data-name="Rectángulo 43659" width="8.937" height="6.441" transform="translate(70.913 108.512)" fill="#fff"/>
      <path id="Trazado_211477" data-name="Trazado 211477" d="M148.21,22.426s-1.911,7.735-4.037,18.83c-1.233,6.379-2.527,13.9-3.544,21.573-.863,6.5-1.541,13.221-1.818,19.631H90.8c-.493-15.594-.986-43.146,4.9-64.195C95.7,18.388,125.9,17.032,148.21,22.426Z" transform="translate(-32.579 26.36)" fill="#263238"/>
      <path id="Trazado_211478" data-name="Trazado 211478" d="M123.489,33.517a27.737,27.737,0,0,1-18.121,4.592c-8.259-1.048-9.708-6.164-9.708-6.164s5.671,0,7.427-2.4a5.948,5.948,0,0,0,.462-3.852,46.227,46.227,0,0,0-1.6-7.273c-.185-.524-.277-.863-.277-.863l14.022-5.763s-1.264,12.851,0,16.611S123.489,33.517,123.489,33.517Z" transform="translate(-21.881 13.019)" fill="#e4897b"/>
      <path id="Trazado_211479" data-name="Trazado 211479" d="M110.089,16.913s-3.575,8.722-10.786,4.469a46.224,46.224,0,0,0-1.6-7.273,6.719,6.719,0,0,1,.832-.308Z" transform="translate(-17.634 17.203)" opacity="0.2"/>
      <path id="Trazado_211480" data-name="Trazado 211480" d="M104.367,3.86s12.327,1.017,13.776,7.273S102.734,22.69,99.282,17.02a9.245,9.245,0,0,1,5.085-13.16Z" transform="translate(-16.688 -3.49)" fill="#263238"/>
      <path id="Trazado_211481" data-name="Trazado 211481" d="M97.166,5s-4.407,11.4.863,17.351S108.168,6.294,108.168,6.294Z" transform="translate(-22.339 -1.117)" fill="#263238"/>
      <path id="Trazado_211482" data-name="Trazado 211482" d="M114.8,36.286A10.971,10.971,0,0,1,101.55,37.7a12.05,12.05,0,0,1-5.578-7.057,7.024,7.024,0,0,0-.339-1.264c-1.479-7.951.339-20.833,9.03-23.915a11.927,11.927,0,0,1,15.841,12.7C119.548,27.041,119.3,32.033,114.8,36.286Z" transform="translate(-22.901 -1.585)" fill="#e4897b"/>
      <path id="Trazado_211483" data-name="Trazado 211483" d="M100.216,10.626c0,.678-.431,1.233-.925,1.233s-.8-.616-.77-1.325.431-1.264.894-1.233S100.247,9.886,100.216,10.626Z" transform="translate(-15.928 7.834)" fill="#263238"/>
      <path id="Trazado_211484" data-name="Trazado 211484" d="M97.616,10.5c0,.709-.431,1.264-.894,1.233s-.832-.616-.8-1.325.462-1.264.925-1.233S97.647,9.818,97.616,10.5Z" transform="translate(-21.341 7.564)" fill="#263238"/>
      <path id="Trazado_211485" data-name="Trazado 211485" d="M99.767,9.75A25.828,25.828,0,0,1,96.1,15.636a3.976,3.976,0,0,0,3.359.8Z" transform="translate(-20.965 8.772)" fill="#de5753"/>
      <path id="Trazado_211486" data-name="Trazado 211486" d="M95.627,9.329a.431.431,0,0,0,.431,0,3.328,3.328,0,0,1,3.082-.216.431.431,0,1,0,.4-.74h0a4.13,4.13,0,0,0-3.791.216.431.431,0,0,0-.185.555h0a.308.308,0,0,0,.062.185Z" transform="translate(-22.156 5.156)" fill="#263238"/>
      <path id="Trazado_211487" data-name="Trazado 211487" d="M102.134,9.917h.247a.4.4,0,0,0,0-.586h0a4.161,4.161,0,0,0-3.637-1.14.462.462,0,0,0-.308.524h0a.4.4,0,0,0,.524.277h0a3.421,3.421,0,0,1,2.866.955.432.432,0,0,0,.308-.031Z" transform="translate(-16.119 5.399)" fill="#263238"/>
      <path id="Trazado_211488" data-name="Trazado 211488" d="M102.052,5.53l-.832,3.76a2.9,2.9,0,0,1,1.079,3.852,10.447,10.447,0,0,0,2.065,10.478s.216-1.387,1.356-.955,0,7.674-2.5,10.91a22.775,22.775,0,0,0,6.564-10.355c2.5-6.842,3.3-12.7,2.1-15.409Z" transform="translate(-10.305 -0.013)" fill="#263238"/>
      <path id="Trazado_211489" data-name="Trazado 211489" d="M110.315,15.375a8.444,8.444,0,0,1-4.962,3.945c-2.8.8-4.191-1.7-3.421-4.345s3.082-5.671,5.794-5.27a3.7,3.7,0,0,1,2.589,5.671Z" transform="translate(-9.261 8.602)" fill="#e4897b"/>
      <path id="Trazado_211490" data-name="Trazado 211490" d="M97.33,13.7a22.283,22.283,0,0,1,.955,3.082h.586c2.62-.185,3.791-1.14,4.284-2.126a3.976,3.976,0,0,0,.308-1.6,2.558,2.558,0,0,0,0-.894,12.328,12.328,0,0,1-5.085,1.418A6.163,6.163,0,0,1,97.33,13.7Z" transform="translate(-18.404 13.789)" fill="#263238"/>
      <path id="Trazado_211491" data-name="Trazado 211491" d="M97.62,13.588l.308.955a7.7,7.7,0,0,0,4.931-1.479,2.56,2.56,0,0,0,0-.894A12.327,12.327,0,0,1,97.62,13.588Z" transform="translate(-17.8 13.81)" fill="#fff"/>
      <path id="Trazado_211492" data-name="Trazado 211492" d="M97.83,15.106c2.62-.185,3.791-1.14,4.284-2.126a8.629,8.629,0,0,0-2.9.77A3.267,3.267,0,0,0,97.83,15.106Z" transform="translate(-17.363 15.496)" fill="#de5753"/>
      <path id="Trazado_211493" data-name="Trazado 211493" d="M96.063,7.623c-.493.894.955,4.253,4.407,5.948s-.185-1.942-.185-1.942,6.965,2.62,7.181,1.726-1.911-2.281-1.911-2.281a19.138,19.138,0,0,0,10.571,1.911c4.777-1.048-3.637-9.246-9.246-9.246S97.7,4.911,96.063,7.623Z" transform="translate(-21.236 -3.74)" fill="#263238"/>
      <path id="Trazado_211494" data-name="Trazado 211494" d="M124.085,27.45c-1.233,6.379-2.527,13.9-3.544,21.573C109.97,45.17,100.17,32.966,100.17,32.966l3.082-3.637,16.272,3.637,3.082-8.136S123.253,25.909,124.085,27.45Z" transform="translate(-12.491 40.166)" opacity="0.2"/>
      <path id="Trazado_211495" data-name="Trazado 211495" d="M112.763,30.491s-2-4.993-3.082-5.486-12.79-.616-14.022.678,1.572,9.677,2.311,10.17c2.034,1.418,13.5-1.726,13.5-1.726Z" transform="translate(-22.526 39.806)" fill="#e4897b"/>
      <path id="Trazado_211496" data-name="Trazado 211496" d="M101.767,25.81l11.064,5.362-1.88,6.5L99.98,31.727Z" transform="translate(-12.887 42.206)" fill="#e4897b"/>
      <path id="Trazado_211497" data-name="Trazado 211497" d="M123.906,19.57c5.116,3.76,11.341,35.133,7.3,38.708-4.684,4.13-29-8.136-29-8.136l1.633-8.783s16.087,6.164,17.2,5.27S118.451,35.9,118.451,35.9a50.849,50.849,0,0,1,2.126-11.033A16.98,16.98,0,0,1,123.906,19.57Z" transform="translate(-8.244 29.216)" fill="#263238"/>
    </g>
    <path id="Trazado_211498" data-name="Trazado 211498" d="M64.5,44.167a16,16,0,0,0-2.4-.555,8.568,8.568,0,0,1-2.373-1.048c-2.774-2.311.894-4.746.74-8.352s-2.5-3.482-3.082-5.64,2.25-3.667,0-7.828c-1.633-3.082-4.345-3.082-5.917-3.7s.555-2.558-4.037-5.578c-3.7-2.465-10.016-.37-11,2.435a6.472,6.472,0,0,0-8.013.647c-4.315,3.421-5.27,7-4.006,10.078s-4.993,5.486-5.147,8.413S21.6,36.462,20.519,38.4h0c-4.592,2.25-6.626,5.609-4.808,8.29s-1.448,4.13-4.16,6.472-5.054,3.852-2.5,5.362,2.4,3.452.247,6.934a8.968,8.968,0,0,0,3.606,11.557c3.606,1.7-1.017,6.965,3.883,10.2s33.623,9.893,41.05-.955,9.03-22.775,7.951-25.333,3.267-5.085,3.7-7.4A10.848,10.848,0,0,0,64.5,44.167Z" transform="translate(0 13.814)" fill="#263238"/>
    <path id="Trazado_211499" data-name="Trazado 211499" d="M69.914,49.337c-2.157.431-8.568-1.972-8.876-3.359,0,0-17.2,8.074-20.895,6.564a33.284,33.284,0,0,1-7.612-7.458c-3.729-4.438-7.212-9.246-7.212-9.246l.832-4.654.925-5.085c2.527.709,13.529,17.351,15.409,18.984S61.47,40.277,61.47,40.277a5.177,5.177,0,0,1,3.575-2.465,28.291,28.291,0,0,1,8.691,2.5C75.493,41.2,72.1,48.906,69.914,49.337Z" transform="translate(36.156 46.55)" fill="#9f5b53"/>
    <path id="Trazado_211500" data-name="Trazado 211500" d="M32.532,41.649C28.8,37.211,25.32,32.4,25.32,32.4l.832-4.654.8.462C29.758,30.123,32.038,34.191,32.532,41.649Z" transform="translate(36.156 49.985)" opacity="0.2"/>
    <path id="Trazado_211501" data-name="Trazado 211501" d="M11.34,29.621s7.766,7.92,8.722,41.543l34.856-2.8s5.547-24.008,1.264-40.989a88.357,88.357,0,0,0-44.841,2.25Z" transform="translate(7.052 45.279)" fill="#c3e1ac"/>
    <path id="Trazado_211503" data-name="Trazado 211503" d="M43.78,115.635l-6.965,1.233-2.866-9.492L31.36,98.654l8.044-2.8,2.311,10.478Z" transform="translate(48.731 191.759)" fill="#e4897b"/>
    <path id="Trazado_211504" data-name="Trazado 211504" d="M41.746,106.523,34.01,107.54l-2.65-8.814L39.4,95.86Z" transform="translate(48.731 191.78)" opacity="0.2"/>
    <path id="Trazado_211505" data-name="Trazado 211505" d="M26.587,117.143H19.5l-1.171-9.985L17.28,98.067l8.413-1.387.462,10.817Z" transform="translate(19.418 193.487)" fill="#e4897b"/>
    <path id="Trazado_211506" data-name="Trazado 211506" d="M26.156,107.59l-7.828-.339L17.28,98.1l8.413-1.418Z" transform="translate(19.418 193.487)" opacity="0.2"/>
    <path id="Trazado_211507" data-name="Trazado 211507" d="M82.828,215.217l-11.464,2c-11.557-28.784-19.785-52.854-25.579-72.793-3.082-10.756-5.763-20.34-7.612-28.846l.339,31.373V217.59H27.078C-1.245,82.79,19.1,43.311,19.1,43.311L53.52,41c1.264,5.054,1.418,18.491,2,24.316l1.51,11.249L70.285,144.92Z" transform="translate(8.48 77.57)" fill="#f67409"/>
    <path id="Trazado_211508" data-name="Trazado 211508" d="M27.968,114.344C24.886,103.589,22.39,94,20.51,85.5A264.293,264.293,0,0,1,22.7,55.45S27.66,94.127,27.968,114.344Z" transform="translate(26.143 107.652)" opacity="0.2"/>
    <path id="Trazado_211509" data-name="Trazado 211509" d="M14.5,42.2l34.856-2.8v5.886L14.01,48.43Z" transform="translate(12.611 74.239)"/>
    <path id="Trazado_211510" data-name="Trazado 211510" d="M27.46,40.111a2.1,2.1,0,0,0-1.633-.555l-4.315.37a2.126,2.126,0,0,0-1.942,2.126v2.774a2.157,2.157,0,0,0,.678,1.572,2.126,2.126,0,0,0,1.448.555h.185l4.315-.37a2.157,2.157,0,0,0,1.972-2.157V41.683a2.188,2.188,0,0,0-.709-1.572ZM26.1,45.474l-4.315.37a1.14,1.14,0,0,1-.8-.247,1.079,1.079,0,0,1-.308-.77V42.053a1.017,1.017,0,0,1,.925-1.017l4.315-.37h0a1.048,1.048,0,0,1,1.048,1.017v.431H25.58a.74.74,0,1,0,0,1.479h1.2v.894A1.048,1.048,0,0,1,26.1,45.474Z" transform="translate(24.186 74.544)" fill="#fff"/>
    <path id="Trazado_211511" data-name="Trazado 211511" d="M18.158,33.819a2.466,2.466,0,0,0-1.448,1.233,18.923,18.923,0,0,0,11.68,3.7c1.171,0,3.637-3.359,1.787-4.376a4.129,4.129,0,0,0-1.048-.462c-.77-.647-1.726-2.157-1.664-5.856a31.313,31.313,0,0,1,.431-4.284L17.6,21.8S21.117,28.58,18.158,33.819Z" transform="translate(18.232 37.598)" fill="#9f5b53"/>
    <path id="Trazado_211512" data-name="Trazado 211512" d="M27.252,23.71a31.31,31.31,0,0,0-.431,4.284,11.341,11.341,0,0,1-9.8-6.164Z" transform="translate(18.877 37.661)" opacity="0.2"/>
    <path id="Trazado_211513" data-name="Trazado 211513" d="M31.9,102.707l13.406-2.527v9.554s6.873,11.372,9.831,12.143a3.267,3.267,0,0,1,2.342,3.852H42.656l-3.575-4.315-.8,4.315H35.444s-3.082-8.691,0-14.762Z" transform="translate(49.855 200.773)" fill="#263238"/>
    <path id="Trazado_211514" data-name="Trazado 211514" d="M16.54,100.65,29.946,101.7l-1.171,7.181s6.873,11.372,9.831,12.143a3.267,3.267,0,0,1,2.342,3.852H26.125l-3.606-4.315-.77,4.315H18.882s-3.082-8.691,0-14.762Z" transform="translate(17.878 201.752)" fill="#263238"/>
    <path id="Trazado_211515" data-name="Trazado 211515" d="M25.678,13.122c8.876-.8,12.173,3.7,13.653,12.79,1.849,11.372,0,19.724-11.28,18.275C12.672,42.245,10.885,14.447,25.678,13.122Z" transform="translate(15.705 19.341)" fill="#9f5b53"/>
    <path id="Trazado_211516" data-name="Trazado 211516" d="M21.35,17.22a19.817,19.817,0,0,0,2.928,3.452,2.435,2.435,0,0,1-2.25,1.2Z" transform="translate(27.891 28.063)" fill="#892b29"/>
    <path id="Trazado_211517" data-name="Trazado 211517" d="M20.762,17.953c0,.74-.247,1.356-.74,1.418s-.955-.493-1.017-1.2.247-1.387.709-1.418S20.669,17.244,20.762,17.953Z" transform="translate(22.994 27.084)" fill="#263238"/>
    <path id="Trazado_211518" data-name="Trazado 211518" d="M19.17,17.332l1.51-.832S20.033,18.041,19.17,17.332Z" transform="translate(23.353 26.564)" fill="#263238"/>
    <path id="Trazado_211519" data-name="Trazado 211519" d="M23.692,17.6c0,.709-.247,1.356-.74,1.418S22,18.52,21.935,17.781s.247-1.356.709-1.418S23.6,16.856,23.692,17.6Z" transform="translate(29.094 26.27)" fill="#263238"/>
    <path id="Trazado_211520" data-name="Trazado 211520" d="M22.1,16.921l1.51-.8S22.963,17.538,22.1,16.921Z" transform="translate(29.453 25.773)" fill="#263238"/>
    <path id="Trazado_211521" data-name="Trazado 211521" d="M21.879,15.151a4.654,4.654,0,0,0-3.729,1.7" transform="translate(21.23 23.753)" fill="none" stroke="#263238" stroke-linecap="round" stroke-linejoin="round" stroke-width="0.69"/>
    <path id="Trazado_211522" data-name="Trazado 211522" d="M21.44,14.992a4.191,4.191,0,0,1,3.606.431" transform="translate(28.079 22.957)" fill="none" stroke="#263238" stroke-linecap="round" stroke-linejoin="round" stroke-width="0.69"/>
    <path id="Trazado_211523" data-name="Trazado 211523" d="M19.151,31.222A26.781,26.781,0,0,0,21.494,17.97S38.444,9.187,40.94,27c0,0,.277-16.026-15.009-15.009S12.71,35.352,21.185,41.3C21.185,41.3,16.994,36.03,19.151,31.222Z" transform="translate(13.879 17.081)" fill="#263238"/>
    <path id="Trazado_211524" data-name="Trazado 211524" d="M21.013,20.891a3.945,3.945,0,0,0-4.53-3.082c-2.712.555-3.513,6.318,3.452,7.057C20.921,24.866,21.383,23.849,21.013,20.891Z" transform="translate(13.651 29.169)" fill="#9f5b53"/>
    <path id="Trazado_211525" data-name="Trazado 211525" d="M19.66,18.87a7.581,7.581,0,0,0,6.965,3.082" transform="translate(24.373 31.498)" fill="none" stroke="#263238" stroke-linecap="round" stroke-linejoin="round" stroke-width="0.5"/>
    <path id="Trazado_211526" data-name="Trazado 211526" d="M24.182,46.838c-2.034,1.572-5.332.185-8.105-1.6a127.371,127.371,0,0,0-4.006-16.4C14.2,30.751,27.972,43.941,24.182,46.838Z" transform="translate(8.572 52.254)" opacity="0.2"/>
    <path id="Trazado_211527" data-name="Trazado 211527" d="M15.78,26.372A99.667,99.667,0,0,1,32.792,49.055s4.284-16.3.986-23.515" transform="translate(16.296 45.384)" fill="none" stroke="#fff" stroke-linecap="round" stroke-linejoin="round" stroke-width="0.5"/>
    <path id="Trazado_211528" data-name="Trazado 211528" d="M22.354,32.846c.709-.277,4.037,5.547.308,5.856S21.583,33.093,22.354,32.846Z" transform="translate(26.58 60.575)" fill="#407bff"/>
    <path id="Trazado_211529" data-name="Trazado 211529" d="M22.354,32.846c.709-.277,4.037,5.547.308,5.856S21.583,33.093,22.354,32.846Z" transform="translate(26.58 60.575)" opacity="0.2"/>
    <path id="Trazado_211530" data-name="Trazado 211530" d="M21.09,41.091l3.267-6.41a28.507,28.507,0,0,1,0-6.164A30.818,30.818,0,0,1,33.6,25.25c2.342,0,2.558,8.6,1.633,9.554a33.715,33.715,0,0,1-6.873,3.082l-5.979,4.469Z" transform="translate(27.35 44.781)" fill="#9f5b53"/>
    <path id="Trazado_211531" data-name="Trazado 211531" d="M12.124,26.83c-5.763,5.732,11.5,28.445,17.5,28.445s19.94-20.957,19.94-20.957l-4.13-3.082s-13.961,14.67-15.194,14.7S19.736,31.761,17.918,30.1a16.673,16.673,0,0,0-5.794-3.267Z" transform="translate(6.268 48.07)" fill="#9f5b53"/>
    <path id="Trazado_211532" data-name="Trazado 211532" d="M40.4,28.88a5.732,5.732,0,1,1-4.253-6.718A5.671,5.671,0,0,1,40.4,28.88Z" transform="translate(43.917 38.007)" fill="#f67409"/>
    <path id="Trazado_211533" data-name="Trazado 211533" d="M59.793,32.491a131.966,131.966,0,0,0-14.022-7.335h-.431a135.788,135.788,0,0,0-15.841,0c-4.438,1.233,9.739,3.945,9.739,3.852-.4,2.527-.8,5.023-1.171,7.551,0,0-16.149,11.033-14.485,11.834s15.933-5.424,17.875-6.472c1.264,1.849,10.91,13.992,12.82,14.022s-7.581-17.289-7.3-17.32l2.435-7.3S63.152,35.634,59.793,32.491Z" transform="translate(32.286 44.104)" fill="#f67409"/>
    <path id="Trazado_211534" data-name="Trazado 211534" d="M50.178,30.4a5.7,5.7,0,0,1-11.249-1.818A5.7,5.7,0,0,1,50.178,30.4Z" transform="translate(64.399 42.185)" fill="#f67409"/>
    <path id="Trazado_211535" data-name="Trazado 211535" d="M68.813,33.164A138.219,138.219,0,0,0,54.329,27H53.9A129.153,129.153,0,0,0,38.18,28.294c-4.315,1.572,9.985,3.082,9.985,3.082-.216,2.527-.4,5.054-.586,7.581,0,0-15.163,12.327-13.437,12.975s15.409-6.688,17.258-7.89c1.387,1.726,11.927,13.067,13.837,12.913s-8.783-16.488-8.629-16.519l1.849-7.4S72.419,36.246,68.813,33.164Z" transform="translate(54.238 48.424)" fill="#f67409"/>
    <path id="Trazado_211536" data-name="Trazado 211536" d="M60.121,31.022a5.7,5.7,0,0,1-11.341-.894,5.7,5.7,0,0,1,11.341.894Z" transform="translate(84.996 44.802)" fill="#f67409"/>
    <path id="Trazado_211537" data-name="Trazado 211537" d="M77.871,33.213A136.616,136.616,0,0,0,62.955,28.22h-.431a128.943,128.943,0,0,0-15.563,2.4c-4.161,1.911,10.17,2.311,10.17,2.219v7.643S43.046,53.984,44.8,54.477s14.762-7.89,16.519-9.246c1.541,1.633,12.913,12.081,14.824,11.8S66.1,41.287,66.221,41.225c.431-2.5.832-4.993,1.264-7.52C67.485,33.891,81.661,35.8,77.871,33.213Z" transform="translate(76.4 50.964)" fill="#f67409"/>
    <path id="Trazado_211538" data-name="Trazado 211538" d="M70.061,31.221a5.671,5.671,0,1,1-5.671-5.671A5.671,5.671,0,0,1,70.061,31.221Z" transform="translate(105.69 45.405)" fill="#f67409"/>
    <path id="Trazado_211539" data-name="Trazado 211539" d="M87.172,32.421A128.7,128.7,0,0,0,71.762,28.63h-.431a128.7,128.7,0,0,0-15.409,3.791c-3.976,2.25,10.324,1.479,10.293,1.387l.647,7.612c.154,0-12.944,14.577-11.125,14.947S69.944,47.306,71.67,45.8c1.633,1.51,13.838,11,15.717,10.571S76.108,41.481,76.108,41.42l.647-7.612S91.147,34.67,87.172,32.421Z" transform="translate(98.411 51.817)" fill="#f67409"/>
    <path id="Trazado_211540" data-name="Trazado 211540" d="M79.978,30.264a5.671,5.671,0,1,1-6.164-5.023,5.609,5.609,0,0,1,6.164,5.023Z" transform="translate(126.407 44.698)" fill="#f67409"/>
    <path id="Trazado_211541" data-name="Trazado 211541" d="M96.932,30.757A135.785,135.785,0,0,0,81.523,28.23h-.431a132.523,132.523,0,0,0-14.916,4.993c-3.791,2.558,10.386.647,10.386.586.4,2.5.8,4.993,1.233,7.52.154,0-11.742,15.409-9.924,15.779S81.184,46.968,82.694,45.334c1.757,1.356,14.7,9.862,16.519,9.246S86.885,40.619,86.885,40.557V32.945C86.762,33.069,101.093,32.7,96.932,30.757Z" transform="translate(119.87 50.984)" fill="#f67409"/>
    <path id="Trazado_211542" data-name="Trazado 211542" d="M89.861,28.633a5.7,5.7,0,1,1-6.5-4.53,5.7,5.7,0,0,1,6.5,4.53Z" transform="translate(147.003 42.23)" fill="#f67409"/>
    <path id="Trazado_211543" data-name="Trazado 211543" d="M106.925,28.356A130.174,130.174,0,0,0,91.176,27h-.462A135.965,135.965,0,0,0,76.2,33.164c-3.544,3.082,10.447,0,10.447,0L88.5,40.529s-10.478,16.4-8.629,16.457S92.347,45.8,93.734,44.043c1.849,1.233,15.409,8.66,17.258,7.92S97.4,39.081,97.556,38.988c-.185-2.527-.4-5.054-.586-7.612C96.939,31.469,111.239,30.082,106.925,28.356Z" transform="translate(140.88 48.424)" fill="#f67409"/>
    <path id="Trazado_211544" data-name="Trazado 211544" d="M99.6,26.206a5.732,5.732,0,0,1-11.125,2.743A5.732,5.732,0,0,1,99.6,26.206Z" transform="translate(167.373 38.061)" fill="#f67409"/>
    <path id="Trazado_211545" data-name="Trazado 211545" d="M116.531,25.156a135.791,135.791,0,0,0-15.841,0h-.431a131.962,131.962,0,0,0-14.022,7.335c-3.359,3.082,10.417-1.017,10.386-1.079l2.311,7.335s-9.246,17.258-7.3,17.2,11.557-12.327,12.82-14.022c1.942,1.048,16.149,7.335,17.875,6.472s-14.608-11.742-14.454-11.834l-1.2-7.52S121,26.389,116.531,25.156Z" transform="translate(161.877 44.104)" fill="#f67409"/>
  </g>
</svg>
