<svg xmlns="http://www.w3.org/2000/svg" width="263.624" height="291.773" viewBox="0 0 263.624 291.773">
  <g id="ILUSTRACIONES-05" transform="translate(-7.73 -3.989)">
    <path id="Trazado_211367" data-name="Trazado 211367" d="M11.78,96.36v31.255h96.159V96.36Z" transform="translate(7.354 167.725)" fill="#f5f5f5"/>
    <path id="Trazado_211368" data-name="Trazado 211368" d="M10.35,93.25v8.757H113.914V93.25H10.35Z" transform="translate(4.757 162.078)" fill="#e0e0e0"/>
    <path id="Trazado_211369" data-name="Trazado 211369" d="M30.047,133.262h48.4V102.007h3.379V93.25H28.02v7.94Z" transform="translate(36.842 162.078)" fill="#e0e0e0"/>
    <rect id="Rectángulo_43652" data-name="Rectángulo 43652" width="19.513" height="4.702" transform="translate(32.593 269.125)" fill="#e0e0e0"/>
    <rect id="Rectángulo_43653" data-name="Rectángulo 43653" width="25.032" height="9.94" transform="translate(30.087 279.712)" fill="#fff"/>
    <path id="Trazado_211370" data-name="Trazado 211370" d="M17.04,82.16v31.283H113.2V82.16Z" transform="translate(16.905 141.941)" fill="#f5f5f5"/>
    <path id="Trazado_211371" data-name="Trazado 211371" d="M15.6,79.06v8.729H119.164V79.06H15.6Z" transform="translate(14.29 136.312)" fill="#e0e0e0"/>
    <path id="Trazado_211372" data-name="Trazado 211372" d="M35.3,119.072H83.729V87.789h3.351V79.06H33.27V87Z" transform="translate(46.375 136.312)" fill="#e0e0e0"/>
    <rect id="Rectángulo_43654" data-name="Rectángulo 43654" width="19.513" height="4.702" transform="translate(47.376 229.141)" fill="#e0e0e0"/>
    <rect id="Rectángulo_43655" data-name="Rectángulo 43655" width="25.032" height="9.94" transform="translate(44.87 239.728)" fill="#fff"/>
    <path id="Trazado_211373" data-name="Trazado 211373" d="M109.047,49.076,73.315,36.18c2.337,28.158,4.618,56.71-2.816,83.8-.817,2.816-1.521,6.617.817,8.447a7.687,7.687,0,0,0,5.209,1.154,102.965,102.965,0,0,0,11.263-.817,18.049,18.049,0,0,0,10.953-4.027,18.64,18.64,0,0,0,4.083-8.982,234.919,234.919,0,0,0,6.223-66.677Z" transform="translate(112.568 58.452)" fill="#263238"/>
    <path id="Trazado_211374" data-name="Trazado 211374" d="M62.82,129.783l4.252-5.632,2.816-14.924L76.364,72.96S79.18,59.3,88.021,55.39L89.88,91.657,71.943,137.244Z" transform="translate(100.031 93.332)" fill="#ff725e"/>
    <path id="Trazado_211375" data-name="Trazado 211375" d="M105.245,54.462l-5.294,6.251L91.9,64.289S74.131,98.078,73.653,98.557a36.6,36.6,0,0,0-1.746,18.218,143.01,143.01,0,0,1,2.534,26.806c0,7.743-10.306,33.282-10.925,39.139S60.7,211.272,60.7,211.272l89.739-.7a160.7,160.7,0,0,0-3.351-16.895s-.31-22.526-3.632-26.806a25.962,25.962,0,0,0,2.224-9.179c-.31-3.351,13.319-21.09,15.994-27.285s13.319-20.274,13.488-30.438-1.436-18.7-6.5-25.68-14.191-11.714-17.965-14.276L143.2,50.52Z" transform="translate(96.181 84.49)" fill="#f67409"/>
    <path id="Trazado_211376" data-name="Trazado 211376" d="M65.16,174.412v-4.139c0-2.816.253-6.5.451-11.263,0-2.365.169-4.956.2-7.743V146.93a19.71,19.71,0,0,1,.451-4.59,73.459,73.459,0,0,1,2.957-9.4,46.149,46.149,0,0,0,1.549-4.956,18.976,18.976,0,0,0,.338-2.619l.253-2.816c.366-3.6.732-7.124,1.07-10.531l.732-4.815c0-1.633.366-3.238.422-4.815a123.888,123.888,0,0,1,2.253-16.529c.929-4.646,1.746-8.447,2.309-11.01l.648-2.985.169-.76a1.83,1.83,0,0,1,0-.282,1.885,1.885,0,0,1,0,.282v.788l-.563,2.985c-.479,2.619-1.3,6.392-2.168,11.038A129.527,129.527,0,0,0,73.8,102.3c0,1.577-.253,3.182-.394,4.815L72.9,112.1c-.338,3.407-.676,6.927-1.042,10.531l-.282,2.816a21.258,21.258,0,0,1-.338,2.647,44.769,44.769,0,0,1-1.577,4.984,68.677,68.677,0,0,0-2.816,9.376,20.783,20.783,0,0,0-.479,4.505c0,1.492,0,2.816,0,4.336,0,2.816-.169,5.378-.253,7.772-.2,4.73-.422,8.447-.591,11.263l-.2,3.069v.788a1.886,1.886,0,0,0-.169.225Z" transform="translate(104.28 121.35)" fill="#263238"/>
    <path id="Trazado_211377" data-name="Trazado 211377" d="M70.12,108.742a78.842,78.842,0,0,1,9.827-23.286,55.3,55.3,0,0,0,8.109-19.232V52.962l.563,1.689,33.789-4.871,1.014,4.871L100.9,75.037S90.45,77.065,90.027,77.346,70.12,108.742,70.12,108.742Z" transform="translate(113.286 83.146)" fill="#efbda8"/>
    <path id="Trazado_211378" data-name="Trazado 211378" d="M120.024,53.89s0,.169-.282.479-.507.76-.929,1.323c-.788,1.126-1.971,2.816-3.492,4.7s-3.351,4.28-5.322,6.87L106.9,71.4a9.575,9.575,0,0,1-.845,1.1,2.394,2.394,0,0,1-1.3.676,2.816,2.816,0,0,1-1.436-.422L102.144,72,97.5,69.011,95.3,67.6a3.689,3.689,0,0,0-2.281-.648,4.336,4.336,0,0,0-2.056.957c-.619.479-1.239.929-1.858,1.323a13.825,13.825,0,0,1-3.773,1.577,13.319,13.319,0,0,1-5.857,0l-.732-.084L78.1,70.5l-.507-.2.535.141.648.169.9.2a13.685,13.685,0,0,0,9.461-1.83c.591-.366,1.183-.845,1.8-1.323a4.928,4.928,0,0,1,2.224-1.042,3.914,3.914,0,0,1,2.478.7l2.224,1.408,4.646,2.985c.788.479,1.549,1.154,2.393,1.1a1.746,1.746,0,0,0,1.07-.563,10.27,10.27,0,0,0,.817-1.042c1.042-1.436,2.056-2.816,3.069-4.139,2-2.59,3.858-4.871,5.378-6.814s2.816-3.548,3.576-4.646l.986-1.267Z" transform="translate(126.85 90.609)" fill="#263238"/>
    <path id="Trazado_211379" data-name="Trazado 211379" d="M74.64,81.767a5.127,5.127,0,0,1,.507-.957c.338-.619.845-1.492,1.521-2.534A92.684,92.684,0,0,1,82.3,70.25c2.393-3.041,4.533-5.632,6.223-7.49.817-.929,1.521-1.661,2-2.14l.788-.76a5.267,5.267,0,0,1-.676.845l-1.943,2.224c-1.6,1.887-3.8,4.533-6.11,7.546s-4.224,5.857-5.632,7.94l-1.6,2.45A5.634,5.634,0,0,1,74.64,81.767Z" transform="translate(121.493 101.449)" fill="#263238"/>
    <path id="Trazado_211380" data-name="Trazado 211380" d="M79.76,68.633h.394l1.492.31,5.632,1.211,4.083.76,2.309.366a21.005,21.005,0,0,1,2.506.535c1.689.451,3.463,1.014,5.322,1.661.9.31,1.858.648,2.816,1.042a15.466,15.466,0,0,1,1.436.591l.732.31.366.169h.2a.31.31,0,0,1,0,.169h0c-2.084,6.645-4.505,14.332-7.068,22.526h0a13.659,13.659,0,0,1-1.323,2.084,9.884,9.884,0,0,1-1.774,1.83,2.957,2.957,0,0,1-.845.422l-.817.282-1.689.563-3.266,1.126L83.9,106.73h0l-6.42-5.885L75.9,99.381c-.507-.507-1.042-.957-1.521-1.492a4.027,4.027,0,0,1-.9-1.915,8.111,8.111,0,0,1,0-2.027c.9-5.181,1.943-9.743,2.816-13.516s1.774-6.73,2.365-8.785l.732-2.309.2-.619v.028l-.169.591L78.747,71.7c-.563,2.027-1.38,5.012-2.281,8.785s-1.887,8.447-2.816,13.488a5.631,5.631,0,0,0,0,1.943,3.576,3.576,0,0,0,.845,1.774,14.559,14.559,0,0,0,1.492,1.436l1.577,1.464,6.645,6.167H84.04l6.364-2.14,3.407-.957L95.5,103.1l.817-.282a3.1,3.1,0,0,0,.732-.422,8.448,8.448,0,0,0,1.718-1.746,12.053,12.053,0,0,0,1.3-2h0l7.124-22.526h0a84.215,84.215,0,0,0-11.01-3.886c-.817-.225-1.661-.422-2.45-.563l-2.309-.394c-1.492-.253-2.816-.535-4.083-.788L81.7,69.2l-1.492-.366h-.366Z" transform="translate(119.273 117.174)" fill="#263238"/>
    <g id="Grupo_145834" data-name="Grupo 145834" transform="translate(162.372 240.179)" opacity="0.3">
      <path id="Trazado_211381" data-name="Trazado 211381" d="M100.072,111.72c-7.856-1.183-18.753-4.449-27.679-6.307-3.21-.676-5.969-1.436-9.151-2.112l-.591,1.774a107.814,107.814,0,0,1,26.074,9.292,51.107,51.107,0,0,0,15.4,6.307c6.167.929,12.361-.986,18.331-2.816a20.611,20.611,0,0,0,9.264-4.815,19.541,19.541,0,0,0,3.52-6.476c2.337-6.138,4.393-12.389,6.138-18.7C130.735,99.781,115.9,114.113,100.072,111.72Z" transform="translate(-62.65 -87.87)"/>
    </g>
    <path id="Trazado_211382" data-name="Trazado 211382" d="M116.834,68.93,94.308,110.378A6.673,6.673,0,0,0,89.07,117a3.942,3.942,0,0,0-4.477,0c-1.689,1.014-6.476,2.365-9.123,3.773a3.154,3.154,0,0,0-1.577,3.632L80.9,149.743s8.447,0,9.236-2.084L101.8,144s7.546-2,10.447-7.011,20.274-30.973,20.274-30.973" transform="translate(119.931 117.918)" fill="#f67409"/>
    <path id="Trazado_211383" data-name="Trazado 211383" d="M132.6,106.221l-.169.253-.479.76-1.887,2.816-7.1,10.756-4.984,7.574c-1.774,2.816-3.717,5.632-5.632,8.926a12.671,12.671,0,0,1-4.083,4.111,22.525,22.525,0,0,1-5.632,2.619c-3.942,1.267-8.081,2.562-12.389,3.886h0a1.943,1.943,0,0,1-.873.9,5.772,5.772,0,0,1-1.154.451,13.377,13.377,0,0,1-2.393.507,41.5,41.5,0,0,1-4.984.366h0L76.9,135.815c-.732-2.591-1.436-5.153-2.112-7.659-.338-1.3-.732-2.506-1.014-3.8a3.266,3.266,0,0,1,1.661-3.407,59.978,59.978,0,0,1,6.955-2.816l1.661-.7a15.038,15.038,0,0,1,1.689-1.014,3.858,3.858,0,0,1,3.548.394H89.04a6.73,6.73,0,0,1,1.52-4.393,7.321,7.321,0,0,1,3.858-2.365h0l16.191-29.678c2-3.6,3.548-6.476,4.646-8.447l1.239-2.224.225-.591v0l-.31.563-1.183,2.253-4.562,8.447c-3.97,7.293-9.574,17.683-16.247,30.016h0a7.124,7.124,0,0,0-3.661,2.253,6.2,6.2,0,0,0-1.436,4.336v.31l-.282-.2a3.632,3.632,0,0,0-3.294-.366,14.077,14.077,0,0,0-1.6.788l-1.718.7a72.107,72.107,0,0,0-6.9,2.816,2.985,2.985,0,0,0-1.492,3.069c.282,1.211.676,2.506,1.014,3.745.676,2.534,1.38,5.1,2.112,7.659l3.942,14.36h-.169a35.616,35.616,0,0,0,4.928-.338,15.992,15.992,0,0,0,2.365-.479,5.068,5.068,0,0,0,1.07-.451,1.605,1.605,0,0,0,.732-.7h0l12.615-4.139a24.782,24.782,0,0,0,5.434-2.59,12.361,12.361,0,0,0,4.055-3.942c1.971-3.21,3.914-6.167,5.632-8.9s3.463-5.294,4.984-7.574l7.208-10.7,1.915-2.816.507-.732Z" transform="translate(119.848 117.936)" fill="#263238"/>
    <path id="Trazado_211384" data-name="Trazado 211384" d="M97.073,113.969a2.814,2.814,0,0,1,0-.394l-.31-1.154-1.042-4.28c-.9-3.6-2.14-8.447-3.632-14.079s-2.816-10.39-3.942-14.079l-1.239-4.2-.338-1.154V74.21l.169.394.394,1.126c.338.986.788,2.422,1.352,4.2,1.1,3.548,2.562,8.447,4.027,14.079s2.816,10.447,3.548,14.079c.394,1.83.732,3.294.929,4.308l.225,1.183A2.12,2.12,0,0,0,97.073,113.969Z" transform="translate(143.155 127.505)" fill="#fff"/>
    <path id="Trazado_211385" data-name="Trazado 211385" d="M92.6,121.256s-2-9.8-4.224-21.907S84.437,77.358,84.522,77.33s2,9.8,4.224,21.935S92.688,121.256,92.6,121.256Z" transform="translate(139.431 133.17)" fill="#fff"/>
    <path id="Trazado_211386" data-name="Trazado 211386" d="M83.852,72.5s-3.238,2.422-7.377,5.237-7.518,5.012-7.574,4.928,3.238-2.422,7.377-5.209S83.8,72.417,83.852,72.5Z" transform="translate(111.07 124.399)" fill="#fff"/>
    <path id="Trazado_211387" data-name="Trazado 211387" d="M82.473,75.64a5.6,5.6,0,0,1-.479.535l-1.436,1.3c-1.211,1.07-2.816,2.506-4.871,4.055s-3.717,2.816-5.04,3.829l-1.577,1.1-.619.366a3.865,3.865,0,0,1,.535-.479l1.492-1.183c1.3-.986,3.069-2.365,5.012-3.914l4.928-3.97,1.492-1.211A5.633,5.633,0,0,1,82.473,75.64Z" transform="translate(110.254 130.102)" fill="#fff"/>
    <path id="Trazado_211388" data-name="Trazado 211388" d="M74.81,85.079s-2.422-3.013-5.266-6.9S64.5,71,64.561,71s2.45,3.013,5.265,6.9S74.895,85.079,74.81,85.079Z" transform="translate(103.19 121.677)" fill="#fff"/>
    <path id="Trazado_211389" data-name="Trazado 211389" d="M72.265,85.52a7.294,7.294,0,0,1-1.211-1.042,35.11,35.11,0,0,1-2.591-2.816c-.957-1.126-1.774-2.224-2.337-3.041a4.815,4.815,0,0,1-.817-1.352,8.841,8.841,0,0,1,1.014,1.211A34.972,34.972,0,0,0,68.745,81.3c.986.986,1.858,2.14,2.506,2.816A9.882,9.882,0,0,1,72.265,85.52Z" transform="translate(104.552 133.061)" fill="#fff"/>
    <path id="Trazado_211390" data-name="Trazado 211390" d="M96.723,62.831A13.856,13.856,0,0,1,95.062,61.7l-3.914-2.816c-1.521-1.1-2.816-2.14-3.858-2.816a11.488,11.488,0,0,1-1.52-1.323,10.532,10.532,0,0,1,1.661,1.126l3.914,2.816c1.521,1.126,2.816,2.168,3.858,2.816a9.433,9.433,0,0,1,1.521,1.323Z" transform="translate(141.703 92.17)" fill="#fff"/>
    <path id="Trazado_211391" data-name="Trazado 211391" d="M96.97,61.22a48.881,48.881,0,0,1-4.956-3.829A53.785,53.785,0,0,1,87.34,53.28s2.253,1.661,4.9,3.829A60.011,60.011,0,0,1,96.97,61.22Z" transform="translate(144.553 89.501)" fill="#fff"/>
    <path id="Trazado_211392" data-name="Trazado 211392" d="M82.907,71.35s-1.126,6.758-2.816,15.036-2.844,14.952-2.928,14.952,1.1-6.73,2.816-15.008S82.794,71.35,82.907,71.35Z" transform="translate(126.066 122.312)" fill="#fff"/>
    <path id="Trazado_211393" data-name="Trazado 211393" d="M92.7,96.678l-.591-.282a17.3,17.3,0,0,1-1.521-.929,29.358,29.358,0,0,1-8.194-8.194,9.912,9.912,0,0,1-.9-1.521,2.591,2.591,0,0,1-.282-.563,20.022,20.022,0,0,1,1.38,1.943,36.606,36.606,0,0,0,3.66,4.421,41.333,41.333,0,0,0,4.393,3.717C91.882,96.143,92.726,96.622,92.7,96.678Z" transform="translate(133.423 147.442)" fill="#263238"/>
    <path id="Trazado_211394" data-name="Trazado 211394" d="M93.975,85.54a7.8,7.8,0,0,1-1.915.338,22.526,22.526,0,0,1-9.348-.985,8.194,8.194,0,0,1-1.8-.732,11.264,11.264,0,0,1,1.887.507,27.591,27.591,0,0,0,4.59.845,26.78,26.78,0,0,0,4.646,0A16.439,16.439,0,0,1,93.975,85.54Z" transform="translate(132.878 145.572)" fill="#263238"/>
    <path id="Trazado_211395" data-name="Trazado 211395" d="M75.341,61.78a.423.423,0,0,1,0,.169l-.169.451a6.734,6.734,0,0,1-.76,1.746c-.676,1.492-1.858,3.576-3.351,6.11a56.624,56.624,0,0,0-4.646,9.179l-.253.676-.2.732-.394,1.436a6.7,6.7,0,0,0-.31,1.492l-.282,1.549c0,1.042-.169,2.112-.253,3.21v1.633a16.349,16.349,0,0,0,0,1.661,104.549,104.549,0,0,0,1.746,12.5,87.284,87.284,0,0,1,1.408,10.249v4a10.527,10.527,0,0,1-.253,2.985l-.338,1.858v.648a.787.787,0,0,1,0-.169v-.479l.253-1.858a17,17,0,0,1,.2-2.985,26.6,26.6,0,0,0,0-3.97,94.637,94.637,0,0,0-1.464-10.221A97.961,97.961,0,0,1,64.5,91.852V88.5a20.2,20.2,0,0,1,.253-3.21l.282-1.577a14.547,14.547,0,0,1,.31-1.521l.422-1.464.2-.7.253-.7a51.191,51.191,0,0,1,4.759-9.179,61.847,61.847,0,0,0,3.435-6.054c.366-.732.648-1.323.817-1.718l.2-.451Z" transform="translate(103.081 104.935)" fill="#263238"/>
    <path id="Trazado_211396" data-name="Trazado 211396" d="M88.8,51.92h0l-.282.394c-.225.338-.619.845-1.126,1.464-1.014,1.239-2.562,3.013-4.533,5.153l-3.182,3.52c-1.126,1.3-2.337,2.675-3.492,4.224a27.285,27.285,0,0,0-4.364,11.742h-.338A20.641,20.641,0,0,1,73.365,75.6c.366-.507.732-.986,1.07-1.492l.507-.76.225-.394v-.2h0a.2.2,0,0,1,.169,0h0v.422a2.112,2.112,0,0,1,0,.451,1.423,1.423,0,0,0,.2.873,9.689,9.689,0,0,1,0,1.8,37.2,37.2,0,0,1-1.1,6.645c-.817,4.224-2.253,7.828-3.125,10.953a28.157,28.157,0,0,0-1.239,7.518v2.619a.788.788,0,0,1,0,.169,11.854,11.854,0,0,1-.31-2.816,27.9,27.9,0,0,1,1.154-7.6c.845-3.125,2.253-6.73,3.013-10.953a35.087,35.087,0,0,0,1.1-6.561,12.11,12.11,0,0,0,0-1.746,1.341,1.341,0,0,0-.2-.845,2.48,2.48,0,0,0,0-.422v-.2h0v.2l-.225.394-.507.788c-.366.507-.7,1.014-1.07,1.492a19.712,19.712,0,0,0-1.887,2.816L70.633,79.8l.169-1.154a27.51,27.51,0,0,1,4.477-11.854c1.183-1.577,2.393-2.816,3.548-4.224s2.224-2.45,3.21-3.52c2.478-2.253,4.111-4.083,5.294-5.209q.788-.929,1.183-1.436l.31-.366Z" transform="translate(112.632 87.032)" fill="#263238"/>
    <path id="Trazado_211397" data-name="Trazado 211397" d="M77.018,86.25a1.265,1.265,0,0,1,.225.225l.648.7c.253.31.591.7.929,1.183s.76.986,1.154,1.6.845,1.3,1.267,2.056.817,1.6,1.239,2.478a33.25,33.25,0,0,1,2.084,6,35.31,35.31,0,0,1,.9,6.279v2.816a20.861,20.861,0,0,1-.169,2.422,17.8,17.8,0,0,1-.253,1.971,10.841,10.841,0,0,1-.31,1.464l-.225.929v.31a1.577,1.577,0,0,1,0-.338v-.929a12.923,12.923,0,0,0,.253-1.464c0-.591.169-1.239.225-1.971s0-1.521,0-2.393v-2.816a37.2,37.2,0,0,0-.957-6.223A38.6,38.6,0,0,0,82,94.613c-.422-.873-.788-1.718-1.211-2.478s-.817-1.436-1.211-2.056-.788-1.154-1.126-1.633-.619-.873-.873-1.211L76.99,86.5A1.438,1.438,0,0,0,77.018,86.25Z" transform="translate(125.76 149.367)" fill="#263238"/>
    <path id="Trazado_211398" data-name="Trazado 211398" d="M101.71,77.708l-1.042-.422-2.816-1.014c-2.337-.817-5.632-1.915-9.236-2.816s-7.011-1.661-9.461-2.084l-2.816-.479a5.635,5.635,0,0,1-1.07-.225,5.321,5.321,0,0,1,1.1,0,24.2,24.2,0,0,1,2.816.366,92.106,92.106,0,0,1,18.753,4.984l2.816,1.126a5.631,5.631,0,0,1,.957.563Z" transform="translate(122.637 121.023)" fill="#263238"/>
    <g id="Grupo_145835" data-name="Grupo 145835" transform="translate(209.029 234.153)" opacity="0.3">
      <path id="Trazado_211399" data-name="Trazado 211399" d="M90.849,98.063a9.32,9.32,0,0,0-1.915-2.45L79.22,85.73v.76c2.168,1.464,2.619,4.449,3.238,6.983a15.627,15.627,0,0,0,2.816,7.18A4.646,4.646,0,0,0,88.09,102.2a2.816,2.816,0,0,0,2.816-1.126,3.126,3.126,0,0,0-.056-3.013Z" transform="translate(-79.22 -85.73)"/>
    </g>
    <g id="Grupo_145836" data-name="Grupo 145836" transform="translate(193.374 214.527)" opacity="0.3">
      <path id="Trazado_211400" data-name="Trazado 211400" d="M87.6,87.235a6.054,6.054,0,0,1-3.351.535,6.56,6.56,0,0,1-2.506-1.633L73.66,78.76c2.309,3.407,4.167,6.87,6.476,10.278A5.378,5.378,0,0,0,82.5,91.29a4.871,4.871,0,0,0,3.379-.366A28.889,28.889,0,0,0,96.214,84.11Z" transform="translate(-73.66 -78.76)"/>
    </g>
    <g id="Grupo_145837" data-name="Grupo 145837" transform="translate(197.147 152.946)" opacity="0.3">
      <path id="Trazado_211401" data-name="Trazado 211401" d="M75,85.1c7.546-3.6,10.278-13.685,17.8-17.43a13.544,13.544,0,0,1,13.628,1.1c1.3.929,2.816,2.2,4.28,1.746s1.83-1.521,2.393-2.59l5.632-11.038-7.405,8.757a3.858,3.858,0,0,1-1.915,1.492c-1.464.394-2.562-1.3-3.914-1.971-4.308-2.14-7.293-4.815-9.686-3.013a26.188,26.188,0,0,1-5.829,3.154L75,85.02" transform="translate(-75 -56.89)"/>
    </g>
    <g id="Grupo_145838" data-name="Grupo 145838" transform="translate(184.093 140.303)" opacity="0.3">
      <path id="Trazado_211402" data-name="Trazado 211402" d="M70.522,100.634a17.683,17.683,0,0,1,1.633-10.109A60.653,60.653,0,0,0,76.1,81.149a18.387,18.387,0,0,0,.282-8.025,9.4,9.4,0,0,1-.31-3.745,7.1,7.1,0,0,1,1.014-2.2,47.305,47.305,0,0,1,5.885-7.659L87.7,52.4s.2,8.278,0,9.067a55.864,55.864,0,0,1-7.434,18.162,87.715,87.715,0,0,0-6.645,12.5Z" transform="translate(-70.364 -52.4)"/>
    </g>
    <path id="Trazado_211403" data-name="Trazado 211403" d="M98.845,122.477c-9.6-2.253-12.558-7.039-12.671-15.487V96.262S75.558,95.7,73.08,79.875A157.46,157.46,0,0,1,71.447,48.9c.619-9.489,10.475-26.243,19.936-25.2l25.961,12.615a5.632,5.632,0,0,1,4.984,5.632h0l-2.168,61.243" transform="translate(115.394 35.706)" fill="#efbda8"/>
    <path id="Trazado_211404" data-name="Trazado 211404" d="M72.73,37.884A2.027,2.027,0,0,0,74.7,39.911a1.915,1.915,0,0,0,2.084-1.8,2.027,2.027,0,0,0-1.943-2.056,1.971,1.971,0,0,0-2.112,1.83Z" transform="translate(118.025 58.212)" fill="#263238"/>
    <path id="Trazado_211405" data-name="Trazado 211405" d="M72.307,35.429c.2.2,1.8,0,3.914.507S79.8,37.4,80.05,37.316s0-.338-.7-.76A9.545,9.545,0,0,0,76.3,35.288a8.138,8.138,0,0,0-3.154-.253C72.447,35.035,72.194,35.345,72.307,35.429Z" transform="translate(117.21 56.274)" fill="#263238"/>
    <path id="Trazado_211406" data-name="Trazado 211406" d="M80,38.094a2.056,2.056,0,0,0,1.943,2.056,1.971,1.971,0,0,0,2.112-1.83,2.055,2.055,0,0,0-1.943-2.056A1.971,1.971,0,0,0,80,38.094Z" transform="translate(131.226 58.593)" fill="#263238"/>
    <path id="Trazado_211407" data-name="Trazado 211407" d="M79.952,37.485a28.612,28.612,0,0,1,4.027-1.6c2.309-.591,4.167-.451,4.364-.676s-.253-.282-1.1-.366a9.4,9.4,0,0,0-3.548.338,8.448,8.448,0,0,0-3.126,1.464C79.952,37.119,79.811,37.456,79.952,37.485Z" transform="translate(131.048 55.936)" fill="#263238"/>
    <path id="Trazado_211408" data-name="Trazado 211408" d="M80.622,52.59a12.755,12.755,0,0,0-3.52-.648c-.563,0-1.1-.169-1.183-.563a2.816,2.816,0,0,1,.366-1.661c.535-1.323,1.07-2.816,1.661-4.224A70.954,70.954,0,0,0,81.663,34.4a74.7,74.7,0,0,0-4.59,10.756l-1.6,4.28a3.266,3.266,0,0,0-.282,2.168,1.352,1.352,0,0,0,.9.817,3.154,3.154,0,0,0,.957.141A14.276,14.276,0,0,0,80.622,52.59Z" transform="translate(122.354 55.219)" fill="#263238"/>
    <path id="Trazado_211409" data-name="Trazado 211409" d="M76.52,53.122a40.012,40.012,0,0,0,21.2-5.632s-5.378,11.263-21.2,9.658Z" transform="translate(124.907 78.988)" fill="#d1967c"/>
    <path id="Trazado_211410" data-name="Trazado 211410" d="M77.477,44.563a5.632,5.632,0,0,1,4.2-2.816,2.478,2.478,0,0,1,2.45,1.352,3.942,3.942,0,0,1-.338,3.632,3.351,3.351,0,0,1-3.323,1.6,5.632,5.632,0,0,1-2.816-1.774,1.718,1.718,0,0,1-.535-.788,1.323,1.323,0,0,1,.169-1.154" transform="translate(125.864 68.54)" fill="#d1967c"/>
    <path id="Trazado_211411" data-name="Trazado 211411" d="M83.864,41.4c-.366,0-.366,2.337-2.422,4.027s-4.533,1.408-4.562,1.746.563.451,1.633.479a5.829,5.829,0,0,0,3.8-1.323,5.1,5.1,0,0,0,1.858-3.379C84.286,41.964,84,41.372,83.864,41.4Z" transform="translate(125.56 67.929)" fill="#263238"/>
    <path id="Trazado_211412" data-name="Trazado 211412" d="M79.3,33.749c.282.563,2.422,0,4.984,0s4.73.563,5.012,0-.282-.788-1.183-1.3a8.841,8.841,0,0,0-7.6,0C79.611,32.961,79.189,33.468,79.3,33.749Z" transform="translate(129.925 50.126)" fill="#263238"/>
    <path id="Trazado_211413" data-name="Trazado 211413" d="M72.077,34.879c.479.479,2.337,0,4.59,0s4.139.31,4.59-.2,0-.76-.957-1.211a7.434,7.434,0,0,0-3.717-.817,7.574,7.574,0,0,0-3.661,1.014C72.133,34.119,71.936,34.625,72.077,34.879Z" transform="translate(116.763 52.037)" fill="#263238"/>
    <path id="Trazado_211414" data-name="Trazado 211414" d="M134.744,109.767c-3.463-5.632-6.279-19.457-7.462-26.5s-5.012-29.622-10.953-41.5S103.264,25.125,96.337,23.239a15.994,15.994,0,0,0-15.261,3.379c-3.126,2.816-4.2,10.953-4.2,10.953s16.726,3.717,22.357,13.262a80.109,80.109,0,0,1,8.025,16.472l2.112,5.969s-1.971,11.6-2.816,17.345.451,11.066,5.153,13.375l9.489,6.7s12.418,8.447,12.981,8.87a63.944,63.944,0,0,1,7.856,9.743A45.361,45.361,0,0,0,134.744,109.767Z" transform="translate(125.561 33.718)" fill="#263238"/>
    <path id="Trazado_211415" data-name="Trazado 211415" d="M87.562,37.046a12.812,12.812,0,0,0-13.093,9.771A135.156,135.156,0,0,0,71.653,65.8a112.886,112.886,0,0,1-.873-17.6,30.973,30.973,0,0,1,8.447-18.95,20.133,20.133,0,0,1,17.6-6,13.656,13.656,0,0,0-6.138,4.618C89.448,29.472,88.97,30.851,87.562,37.046Z" transform="translate(114.4 34.552)" fill="#263238"/>
    <path id="Trazado_211416" data-name="Trazado 211416" d="M87.922,41.755a4.815,4.815,0,0,1,7.039-4.083,6.617,6.617,0,0,1,2.816,6.617C97.355,54.2,87.5,51.751,87.471,51.47S87.725,45.866,87.922,41.755Z" transform="translate(144.788 60.169)" fill="#efbda8"/>
    <path id="Trazado_211417" data-name="Trazado 211417" d="M88.611,45.935s.141,0,.451.282a1.689,1.689,0,0,0,1.267,0,4.308,4.308,0,0,0,2.224-3.689,5.885,5.885,0,0,0-.366-2.478,2.055,2.055,0,0,0-1.239-1.38.845.845,0,0,0-1.042.422,2.311,2.311,0,0,0,0,.479s-.225-.169,0-.563a1.1,1.1,0,0,1,.394-.619,1.436,1.436,0,0,1,.986-.2,2.478,2.478,0,0,1,1.746,1.6,6.307,6.307,0,0,1,.479,2.816,4.421,4.421,0,0,1-2.816,4.167,1.915,1.915,0,0,1-1.577-.31C88.611,46.132,88.555,45.963,88.611,45.935Z" transform="translate(146.83 62.071)" fill="#d1967c"/>
    <path id="Trazado_211418" data-name="Trazado 211418" d="M92.388,22.592a27.589,27.589,0,0,0-3.52.31,11.855,11.855,0,0,0-3.6,1.1,12.08,12.08,0,0,0-3.632,2.816A18.612,18.612,0,0,0,77.6,34.193c-.563,2.084-.648,3.463-.7,3.435a3.549,3.549,0,0,1,0-.957,15.18,15.18,0,0,1,.451-2.534,17.514,17.514,0,0,1,4.027-7.546,11.911,11.911,0,0,1,3.745-2.816,11.742,11.742,0,0,1,3.717-1.014,19.428,19.428,0,0,1,2.59-.141,3.66,3.66,0,0,1,.957-.028Z" transform="translate(125.54 33.745)" fill="#455a64"/>
    <path id="Trazado_211419" data-name="Trazado 211419" d="M115.839,68.084a.788.788,0,0,1,0-.169V65.663a23.822,23.822,0,0,0,0-6.617,23.061,23.061,0,0,0-3.435-9.123,26.552,26.552,0,0,0-8.391-8.081,49.417,49.417,0,0,0-5.632-2.816c-1.858-.845-3.689-1.492-5.378-2.253A63.945,63.945,0,0,1,84.358,31.9a55.038,55.038,0,0,1-5.434-3.886c-.619-.479-1.1-.873-1.408-1.154l-.366-.282h0l.394.282,1.436,1.07c1.267.929,3.126,2.281,5.632,3.8a65.691,65.691,0,0,0,8.616,4.477c1.689.76,3.548,1.408,5.406,2.253a48.234,48.234,0,0,1,5.632,2.816,26.5,26.5,0,0,1,8.785,8.278,23.512,23.512,0,0,1,3.407,9.292,22.526,22.526,0,0,1,0,6.673l-.169,1.042-.141.9v.451a.9.9,0,0,1-.31.169Z" transform="translate(126.051 41.02)" fill="#455a64"/>
    <path id="Trazado_211420" data-name="Trazado 211420" d="M115.769,68.489V66.04a36.973,36.973,0,0,0-.619-6.645,40.209,40.209,0,0,0-3.069-9.377,37.787,37.787,0,0,0-6.927-9.883,45.052,45.052,0,0,0-9.714-7.208c-3.238-1.858-6.279-3.266-8.813-4.505s-4.618-2.253-6.026-2.985l-1.577-.873L78.6,24.31h.028l.422.2,1.633.817,6.026,2.816c2.562,1.211,5.632,2.619,8.9,4.449a43.673,43.673,0,0,1,9.714,7.265,37.76,37.76,0,0,1,6.955,10,37.112,37.112,0,0,1,3.013,9.461,33.79,33.79,0,0,1,.535,6.7v2.281Z" transform="translate(128.429 36.898)" fill="#455a64"/>
    <path id="Trazado_211421" data-name="Trazado 211421" d="M93.563,74.1v-.31l-.366-.873a13.2,13.2,0,0,1-.535-1.436c-.169-.563-.422-1.211-.591-1.915l-.31-1.126-.253-1.239c-.2-.873-.338-1.8-.479-2.816A55.527,55.527,0,0,1,90.522,58a100.136,100.136,0,0,1,.591-11.629,20.022,20.022,0,0,1,.394-3.492l.141-.957v.957l-.282,3.52c-.225,2.957-.563,7.068-.479,11.573a61.513,61.513,0,0,0,.451,6.364,13.651,13.651,0,0,0,.451,2.816c.2.929.169.845.253,1.239l.282,1.126a18.754,18.754,0,0,0,.535,1.943,14.847,14.847,0,0,0,.451,1.436l.31.9Q93.619,74.076,93.563,74.1Z" transform="translate(150.326 68.311)" fill="#455a64"/>
    <path id="Trazado_211422" data-name="Trazado 211422" d="M47.07,85.46s10.784,13.8,14.642,14.924,18.471,4.7,18.471,4.7l47.868,11.094L122.42,95.6l-45.447-.619Z" transform="translate(71.432 147.933)" fill="#efbda8"/>
    <path id="Trazado_211423" data-name="Trazado 211423" d="M25.194,61.332c3.6,8.926,21.71,49.727,25.905,59.131a4.843,4.843,0,0,0,2.816,2.59l57.048,18.105,56.6,4.224v-1.858l-45.644-13.8-14.473-1.689-21.569-53.5a7.687,7.687,0,0,0-5.772-4.7L26.32,60.009a1.014,1.014,0,0,0-1.126,1.323Z" transform="translate(31.615 101.694)" fill="#455a64"/>
    <path id="Trazado_211424" data-name="Trazado 211424" d="M115.108,101.047h-.7l-2.027-.2-7.434-.732L93.961,98.963,80.474,97.611c-4.759-.479-9.32-.845-13.488-1.07L61.1,96.175a10.868,10.868,0,0,1-1.38-.169,3.182,3.182,0,0,1-.676-.225,1.1,1.1,0,0,1-.507-.507,18.841,18.841,0,0,1-.929-2.309L54.963,86.01l-.7-1.915-.169-.507v0l.225.479.76,1.887,2.816,6.927a22.3,22.3,0,0,0,.929,2.253.732.732,0,0,0,.422.394,2.816,2.816,0,0,0,.591.2,10.019,10.019,0,0,0,1.323,0l5.913.366c4.139.2,8.729.563,13.516,1.042l13.459,1.38,10.982,1.211,7.405.845,2.027.253h.507Z" transform="translate(84.179 144.228)" fill="#263238"/>
    <path id="Trazado_211425" data-name="Trazado 211425" d="M86.015,97.076s.817-5.378,0-6.448-6.673-6.251-6.673-6.251L76.16,81.308l-7.208-1.1a2.14,2.14,0,0,0-2.2,1.014L66,82.406l-1.943-.338-1.6-2.478H57.52L54,83.56v5.068s.479,1.436,1.718.366,1.323-3.97,1.323-3.97L59.181,87l-2.365,6.9s1.577,1.464,2.816,0,2.816-3.548,2.816-3.548a13.8,13.8,0,0,0,5.181,6.73,36.239,36.239,0,0,0,12.784,2.562C82.158,99.272,85.706,99.948,86.015,97.076Z" transform="translate(84.016 137.274)" fill="#efbda8"/>
    <path id="Trazado_211426" data-name="Trazado 211426" d="M69.6,83.862a.592.592,0,0,1,0,.2,1.6,1.6,0,0,1-.563.366,3.717,3.717,0,0,1-1.042,0h-1.38a2.421,2.421,0,0,0-1.521.225A7.435,7.435,0,0,0,63.828,86a5.632,5.632,0,0,1-3.858,2.112,3.689,3.689,0,0,1-3.21-1.492h0a35.141,35.141,0,0,0,3.492-4.477A18.167,18.167,0,0,1,61.49,80.37l-.253.535c-.169.31-.451.788-.817,1.352a29.4,29.4,0,0,1-3.435,4.364v-.2A3.323,3.323,0,0,0,59.8,87.747,5.632,5.632,0,0,0,63.433,85.8,6.42,6.42,0,0,1,64.785,84.4a2.421,2.421,0,0,1,1.689-.225c.507,0,.957.169,1.352.2a1.663,1.663,0,0,0,1.774-.507Z" transform="translate(89.027 138.69)" fill="#d1967c"/>
    <path id="Trazado_211427" data-name="Trazado 211427" d="M66.458,93.9a1.767,1.767,0,0,0-.31-.817,8,8,0,0,0-1.239-1.971,27.976,27.976,0,0,1-2.253-2.816,5.237,5.237,0,0,1-.9-1.915,4.477,4.477,0,0,1,0-2.281A5.265,5.265,0,0,1,62.8,82.043a2.478,2.478,0,0,1,.873-.732,1.323,1.323,0,0,1,1.126,0,2.534,2.534,0,0,1,1.126,1.577,8.193,8.193,0,0,0,.648,1.492,6.56,6.56,0,0,0,1.521,1.746,6.7,6.7,0,0,1,.7.507,2.055,2.055,0,0,1-.732-.338A5.631,5.631,0,0,1,66.4,84.549a7.321,7.321,0,0,1-.7-1.492,2.253,2.253,0,0,0-1.042-1.38.929.929,0,0,0-.817,0,2.337,2.337,0,0,0-.76.648,5.322,5.322,0,0,0-.957,1.915,4.477,4.477,0,0,0,0,2.112,5.632,5.632,0,0,0,.817,1.83c.732,1.07,1.577,1.943,2.2,2.816a7.462,7.462,0,0,1,1.183,2.084,2.815,2.815,0,0,1,0,.648A1.266,1.266,0,0,1,66.458,93.9Z" transform="translate(97.829 140.171)" fill="#d1967c"/>
    <path id="Trazado_211428" data-name="Trazado 211428" d="M59.308,81.145a1.3,1.3,0,0,0-1.042.422A7.067,7.067,0,0,0,57,83.961c-.394,1.1-.732,2.084-1.014,2.816a4.2,4.2,0,0,1-.535,1.1,4.2,4.2,0,0,1,.31-1.183c.225-.732.507-1.718.9-2.816a6.279,6.279,0,0,1,1.464-2.619A1.436,1.436,0,0,1,59,80.92.614.614,0,0,1,59.308,81.145Z" transform="translate(86.649 139.689)" fill="#d1967c"/>
    <path id="Trazado_211429" data-name="Trazado 211429" d="M60.5,81.69a1.577,1.577,0,0,1-.788,0,3.463,3.463,0,0,1-1.8-.817h.225l-.451.394a16.613,16.613,0,0,1-2.619,2,15.571,15.571,0,0,1,2.393-2.281l.451-.366h0a4.139,4.139,0,0,0,1.633.845C60.223,81.465,60.5,81.493,60.5,81.69Z" transform="translate(85.959 139.144)" fill="#d1967c"/>
    <path id="Trazado_211430" data-name="Trazado 211430" d="M59.71,89.589a5.011,5.011,0,0,1,.535-1.211,12.9,12.9,0,0,1,1.83-2.647,14.078,14.078,0,0,1,2.365-2.14A4.309,4.309,0,0,1,65.595,83a23.616,23.616,0,0,0-3.266,3.069C60.7,87.928,59.823,89.645,59.71,89.589Z" transform="translate(94.384 143.466)" fill="#d1967c"/>
    <path id="Trazado_211431" data-name="Trazado 211431" d="M45.27,63.79v.169l.225.535.845,2.027c.732,1.8,1.746,4.364,3.041,7.518,2.506,6.392,6,15.149,9.827,24.835s7.265,18.5,9.771,24.891l2.816,7.574.76,2.056.2.535a.648.648,0,0,1,0,.2v-.169l-.084-.535-.845-2.027-3.013-7.518L58.955,99.015c-3.8-9.714-7.265-18.5-9.771-24.891l-2.816-7.546-.845-2.2-.2-.535Z" transform="translate(68.164 108.585)" fill="#263238"/>
    <ellipse id="Elipse_6984" data-name="Elipse 6984" cx="3.266" cy="4.449" rx="3.266" ry="4.449" transform="translate(93.365 197.828) rotate(-35.87)" fill="#fff"/>
    <rect id="Rectángulo_43656" data-name="Rectángulo 43656" width="143.858" height="89.175" rx="7.87" transform="translate(7.73 59.66)" fill="#263238"/>
    <circle id="Elipse_6985" data-name="Elipse 6985" cx="10.953" cy="10.953" r="10.953" transform="translate(68.72 94.491)" fill="#f67409"/>
    <path id="Trazado_211432" data-name="Trazado 211432" d="M32.34,45.6V39.124a.394.394,0,0,1,.619-.338l5.632,3.238a.422.422,0,0,1,0,.732l-5.8,3.21a.422.422,0,0,1-.451-.366Z" transform="translate(44.686 63.054)" fill="#fff"/>
    <path id="Trazado_211433" data-name="Trazado 211433" d="M11.376,52.517v.225h-1.07v-.2l.563-.535a1.008,1.008,0,0,0,.169-.31c0-.084,0-.225-.282-.225a.394.394,0,0,0-.338.169H10.25a.619.619,0,0,1,.535-.253c.338,0,.535.169.535.422a.507.507,0,0,1-.253.451l-.394.394Z" transform="translate(4.576 86.069)" fill="#fff"/>
    <path id="Trazado_211434" data-name="Trazado 211434" d="M10.7,51.641a.169.169,0,0,1,.169-.169.141.141,0,0,1,.169.169.169.169,0,1,1-.338,0Zm0,.788a.169.169,0,1,1,.169.169.169.169,0,0,1-.169-.169Z" transform="translate(5.393 86.212)" fill="#fff"/>
    <path id="Trazado_211435" data-name="Trazado 211435" d="M11.4,51.35v1.464h-.2V51.575h-.31V51.35Z" transform="translate(5.738 85.997)" fill="#fff"/>
    <path id="Trazado_211436" data-name="Trazado 211436" d="M12.512,52.476H12.23v.338h-.253v-.338H11.16v-.2l.732-.929h.282l-.676.9h.479v-.31h.253v.31h.282Z" transform="translate(6.228 85.997)" fill="#fff"/>
    <rect id="Rectángulo_43657" data-name="Rectángulo 43657" width="111.42" height="0.507" transform="translate(21.133 137.882)" fill="#fff"/>
    <rect id="Rectángulo_43658" data-name="Rectángulo 43658" width="34.831" height="1.352" transform="translate(21.049 137.347)" fill="#f67409"/>
    <path id="Trazado_211437" data-name="Trazado 211437" d="M27.4,52.719a1.689,1.689,0,1,1-1.689-1.689A1.689,1.689,0,0,1,27.4,52.719Z" transform="translate(29.579 85.416)" fill="#f67409"/>
    <path id="Trazado_211438" data-name="Trazado 211438" d="M53.8,52.316a.479.479,0,0,1-.535.479c-.394,0-.619-.282-.619-.732a.7.7,0,0,1,.7-.788.9.9,0,0,1,.394,0V51.5a.422.422,0,0,0-.282,0,.451.451,0,0,0-.451.507h0a.535.535,0,0,1,.394-.141.451.451,0,0,1,.394.45Zm-.253,0a.253.253,0,0,0-.282-.253c-.2,0-.31,0-.31.253s0,.253.31.253.394-.084.394-.253Z" transform="translate(81.543 85.819)" fill="#fff"/>
    <path id="Trazado_211439" data-name="Trazado 211439" d="M53.1,51.559a.169.169,0,1,1,.169.169.169.169,0,0,1-.169-.169Zm0,.788a.169.169,0,1,1,.169.169.169.169,0,0,1-.169-.169Z" transform="translate(82.381 86.069)" fill="#fff"/>
    <path id="Trazado_211440" data-name="Trazado 211440" d="M53.28,52.02c0-.479.282-.76.619-.76s.619.282.619.76-.253.76-.619.76S53.28,52.5,53.28,52.02Zm.957,0c0-.366,0-.535-.338-.535s-.338.169-.338.535,0,.507.338.507S54.237,52.358,54.237,52.02Z" transform="translate(82.708 85.833)" fill="#fff"/>
    <path id="Trazado_211441" data-name="Trazado 211441" d="M53.79,52.02c0-.479.253-.76.591-.76s.619.282.619.76-.253.76-.619.76S53.79,52.5,53.79,52.02Zm.929,0c0-.366,0-.535-.338-.535s-.338.169-.338.535,0,.507.338.507S54.719,52.358,54.719,52.02Z" transform="translate(83.634 85.833)" fill="#fff"/>
    <path id="Trazado_211442" data-name="Trazado 211442" d="M55.387,52.416H54.88V50.98h1.464v.507h-.957Z" transform="translate(85.614 85.325)" fill="#fff"/>
    <path id="Trazado_211443" data-name="Trazado 211443" d="M56.344,53.1H54.88V51.66h.507v.929h.957Z" transform="translate(85.614 86.56)" fill="#fff"/>
    <path id="Trazado_211444" data-name="Trazado 211444" d="M57.174,53.114H55.71v-.507h.957V51.65h.507Z" transform="translate(87.121 86.541)" fill="#fff"/>
    <path id="Trazado_211445" data-name="Trazado 211445" d="M57.174,52.416h-.507v-.929H55.71V50.98h1.464Z" transform="translate(87.121 85.325)" fill="#fff"/>
    <path id="Trazado_211446" data-name="Trazado 211446" d="M49.809,26.86a2.534,2.534,0,0,1,.788,0h2.224v4.421l-.31-.31-.394-.422-.9-1.154h.253l-1.6,1.408-.282.253V27.874a4.337,4.337,0,0,1,0-1.014v3.914H49.33l1.577-1.436h0l1.042,1.042.394.394h-.31V27h-2.14Z" transform="translate(75.536 41.472)" fill="#fff"/>
    <path id="Trazado_211447" data-name="Trazado 211447" d="M56.565,27.191l-.76.929c-.507.619-1.239,1.521-2.168,2.534l-.282.338V28.458h0l-1.3-1.267-.31-.282h3.661a11.262,11.262,0,0,1,1.154,0l-1.3.282H52.2V26.91l1.352,1.267h0v2.168h-.282c.845-.929,1.6-1.689,2.2-2.281A8.45,8.45,0,0,1,56.565,27.191Z" transform="translate(79.93 41.592)" fill="#fff"/>
    <path id="Trazado_211448" data-name="Trazado 211448" d="M55.421,27a4.111,4.111,0,0,1-1.464.788,3.8,3.8,0,0,1-1.577.479,4.139,4.139,0,0,1,1.436-.788A3.886,3.886,0,0,1,55.421,27Z" transform="translate(81.074 41.783)" fill="#fff"/>
    <path id="Trazado_211449" data-name="Trazado 211449" d="M56.884,26.84h.535a2.14,2.14,0,0,1,1.267.76,2.337,2.337,0,0,1,.366,2.168,2.309,2.309,0,0,1-2.168,1.521,2.281,2.281,0,0,1-1.83-3.689,2.14,2.14,0,0,1,1.267-.76h.056a2.59,2.59,0,0,0-1.126.788A2.14,2.14,0,0,0,55,29.543a2,2,0,0,0,3.745,0,2.14,2.14,0,0,0-.253-1.915,2.365,2.365,0,0,0-1.1-.788,3.718,3.718,0,0,1-.507,0Z" transform="translate(85.046 41.492)" fill="#fff"/>
    <path id="Trazado_211450" data-name="Trazado 211450" d="M56.3,29.264a5.14,5.14,0,0,1-1.014-.788h0a2.815,2.815,0,0,1,.169-1.3,2.816,2.816,0,0,1,.169,1.3h0v-.141C56.022,28.729,56.388,29.207,56.3,29.264Z" transform="translate(86.33 42.11)" fill="#fff"/>
    <path id="Trazado_211451" data-name="Trazado 211451" d="M79.478,27.98s-14.783.2-33.029.2-33.029,0-33.029-.2,14.783-.169,33.029-.169S79.478,27.9,79.478,27.98Z" transform="translate(10.332 43.253)" fill="#fff"/>
    <circle id="Elipse_6986" data-name="Elipse 6986" cx="2.591" cy="2.591" r="2.591" transform="translate(15.445 68.642)" fill="#fff"/>
    <path id="Trazado_211452" data-name="Trazado 211452" d="M110.683,43.919A3.379,3.379,0,0,0,112.4,43.3a3.294,3.294,0,0,0,1.239-1.8,5.632,5.632,0,0,0,0-1.408V8.666a8.9,8.9,0,0,0,0-1.746,3.126,3.126,0,0,0-.788-1.464,2.816,2.816,0,0,0-1.464-.788,13.037,13.037,0,0,0-1.83,0H97.872l-35.929.2a2.816,2.816,0,0,0-2.816,2.816V21.506c0,6.026-.141,11.826-.2,17.345v2.056a3.3,3.3,0,0,0,.451,1.8,2.816,2.816,0,0,0,1.38,1.126,4.984,4.984,0,0,0,1.858.2H103.7L83.99,44.2H62.7a5.265,5.265,0,0,1-2.056-.2,3.463,3.463,0,0,1-1.661-1.38,3.914,3.914,0,0,1-.535-2.084c0-.676,0-1.38,0-2.056V7.258a3.548,3.548,0,0,1,3.435-3.266l35.986.028h11.939a15.206,15.206,0,0,1,1.943,0,3.351,3.351,0,0,1,1.746.957,3.182,3.182,0,0,1,.9,1.718,8.053,8.053,0,0,1,0,1.83V18.578c0,8.447-.225,15.093-.282,19.71v1.661a4.984,4.984,0,0,1,0,1.464,3.435,3.435,0,0,1-1.323,1.858,3.6,3.6,0,0,1-1.323.507Z" transform="translate(92.095)" fill="#f67409"/>
    <path id="Trazado_211453" data-name="Trazado 211453" d="M73.539,12.548l6.673,4.027L73.426,20.6,66.64,24.628l.113-8.053.113-8.025Z" transform="translate(106.967 8.282)" fill="#f67409"/>
  </g>
</svg>
