<svg xmlns="http://www.w3.org/2000/svg" width="82.078" height="77.544" viewBox="0 0 82.078 77.544">
  <g id="codigo-binario" transform="translate(0 -4.242)">
    <g id="Grupo_146066" data-name="Grupo 146066" transform="translate(0 4.242)">
      <g id="Grupo_146065" data-name="Grupo 146065">
        <path id="Trazado_216300" data-name="Trazado 216300" d="M78.609,4.242H3.469A3.473,3.473,0,0,0,0,7.711V37.4a1.2,1.2,0,0,0,2.4,0V7.711A1.066,1.066,0,0,1,3.469,6.646h75.14a1.066,1.066,0,0,1,1.064,1.065V13a1.2,1.2,0,1,0,2.4,0V7.711a3.473,3.473,0,0,0-3.469-3.469Z" transform="translate(0 -4.242)" fill="#30610c"/>
        <path id="Trazado_216301" data-name="Trazado 216301" d="M80.876,28.887a1.2,1.2,0,0,0-1.2,1.2V64.3H2.4V54.49a1.2,1.2,0,0,0-2.4,0V68.416a3.474,3.474,0,0,0,3.469,3.471H31.475L28.718,85.675H21.283a2.5,2.5,0,0,0-2.5,2.5v2.592a2.5,2.5,0,0,0,2.5,2.5H60.8a2.5,2.5,0,0,0,2.5-2.5V88.172a2.5,2.5,0,0,0-2.5-2.5H53.36L50.6,71.886H78.609a3.474,3.474,0,0,0,3.469-3.471V30.089a1.2,1.2,0,0,0-1.2-1.2ZM50.908,85.675H38.739a1.2,1.2,0,1,0,0,2.4H60.8a.093.093,0,0,1,.093.093v2.592a.093.093,0,0,1-.093.093H21.283a.093.093,0,0,1-.093-.093V88.172a.093.093,0,0,1,.093-.093H33.128a1.2,1.2,0,1,0,0-2.4H31.17l2.758-13.788H48.15Zm27.7-16.193H3.469A1.066,1.066,0,0,1,2.4,68.416V66.7H79.673v1.712a1.066,1.066,0,0,1-1.064,1.066Z" transform="translate(0 -15.718)" fill="#30610c"/>
        <path id="Trazado_216302" data-name="Trazado 216302" d="M77.965,54.562a2.825,2.825,0,0,0,2.822-2.822V16.762a2.825,2.825,0,0,0-2.822-2.822H21.61a2.825,2.825,0,0,0-2.822,2.822V51.74a2.825,2.825,0,0,0,2.822,2.822ZM21.61,16.345H77.965a.418.418,0,0,1,.417.417v2.36H21.193V16.762a.417.417,0,0,1,.417-.417Zm-.417,35.4V21.527H78.382V51.74a.418.418,0,0,1-.417.417H21.61A.418.418,0,0,1,21.193,51.74Z" transform="translate(-8.749 -8.758)" fill="#30610c"/>
        <path id="Trazado_216303" data-name="Trazado 216303" d="M60.6,35.74h.459v6.571a1.2,1.2,0,0,0,2.4,0V34.538a1.2,1.2,0,0,0-1.2-1.2H60.6a1.2,1.2,0,0,0,0,2.4Z" transform="translate(-27.658 -17.789)" fill="#30610c"/>
        <path id="Trazado_216304" data-name="Trazado 216304" d="M71.351,35.74h.459v6.571a1.2,1.2,0,0,0,2.4,0V34.538a1.2,1.2,0,0,0-1.2-1.2H71.351a1.2,1.2,0,1,0,0,2.4Z" transform="translate(-32.664 -17.789)" fill="#30610c"/>
        <path id="Trazado_216305" data-name="Trazado 216305" d="M47.709,43.513a3.366,3.366,0,0,0,3.362-3.362V36.7a3.362,3.362,0,0,0-6.724,0v3.454A3.366,3.366,0,0,0,47.709,43.513ZM46.752,36.7a.957.957,0,0,1,1.915,0v3.454a.957.957,0,1,1-1.915,0Z" transform="translate(-20.65 -17.789)" fill="#30610c"/>
        <path id="Trazado_216306" data-name="Trazado 216306" d="M84.326,43.513a3.366,3.366,0,0,0,3.362-3.362V36.7a3.362,3.362,0,1,0-6.724,0v3.454A3.366,3.366,0,0,0,84.326,43.513ZM83.368,36.7a.957.957,0,1,1,1.915,0v3.454a.957.957,0,1,1-1.915,0Z" transform="translate(-37.7 -17.789)" fill="#30610c"/>
        <path id="Trazado_216307" data-name="Trazado 216307" d="M100.032,43.513a3.366,3.366,0,0,0,3.362-3.362V36.7a3.362,3.362,0,0,0-6.724,0v3.454A3.366,3.366,0,0,0,100.032,43.513ZM99.075,36.7a.957.957,0,1,1,1.915,0v3.454a.957.957,0,1,1-1.915,0Z" transform="translate(-45.013 -17.789)" fill="#30610c"/>
        <path id="Trazado_216308" data-name="Trazado 216308" d="M72.682,62.418a1.2,1.2,0,0,0,1.2,1.2h.459v6.571a1.2,1.2,0,1,0,2.4,0V62.418a1.2,1.2,0,0,0-1.2-1.2H73.884A1.2,1.2,0,0,0,72.682,62.418Z" transform="translate(-33.844 -30.771)" fill="#30610c"/>
        <path id="Trazado_216309" data-name="Trazado 216309" d="M48.143,61.216H46.482a1.2,1.2,0,1,0,0,2.4h.459v6.571a1.2,1.2,0,1,0,2.4,0V62.418A1.2,1.2,0,0,0,48.143,61.216Z" transform="translate(-21.084 -30.771)" fill="#30610c"/>
        <path id="Trazado_216310" data-name="Trazado 216310" d="M86.314,61.216H84.653a1.2,1.2,0,0,0,0,2.4h.459v6.571a1.2,1.2,0,1,0,2.4,0V62.418A1.2,1.2,0,0,0,86.314,61.216Z" transform="translate(-38.858 -30.771)" fill="#30610c"/>
        <path id="Trazado_216311" data-name="Trazado 216311" d="M56.911,68.031a3.362,3.362,0,1,0,6.724,0V64.578a3.362,3.362,0,1,0-6.724,0Zm2.4-3.454a.957.957,0,0,1,1.915,0v3.454a.957.957,0,1,1-1.915,0Z" transform="translate(-26.5 -30.771)" fill="#30610c"/>
        <path id="Trazado_216312" data-name="Trazado 216312" d="M100.032,71.393a3.366,3.366,0,0,0,3.362-3.362V64.578a3.362,3.362,0,0,0-6.724,0v3.454A3.366,3.366,0,0,0,100.032,71.393Zm-.957-6.816a.957.957,0,1,1,1.915,0v3.454a.957.957,0,0,1-1.915,0Z" transform="translate(-45.013 -30.771)" fill="#30610c"/>
      </g>
    </g>
  </g>
</svg>
