<svg xmlns="http://www.w3.org/2000/svg" width="100.883" height="102.4" viewBox="0 0 100.883 102.4">
  <g id="tarjeta-madre" transform="translate(-0.759)">
    <g id="Grupo_146143" data-name="Grupo 146143">
      <path id="Trazado_216525" data-name="Trazado 216525" d="M96.724,100.9H10.678a3.417,3.417,0,0,1-3.417-3.417V4.917A3.417,3.417,0,0,1,10.678,1.5H96.724a3.417,3.417,0,0,1,3.417,3.417V97.483A3.417,3.417,0,0,1,96.724,100.9Z" fill="#54aa13"/>
      <path id="Trazado_216526" data-name="Trazado 216526" d="M96.724,1.5h-4.4a3.417,3.417,0,0,1,3.417,3.417V97.483a3.417,3.417,0,0,1-3.417,3.417h4.4a3.417,3.417,0,0,0,3.417-3.417V4.917A3.417,3.417,0,0,0,96.724,1.5Z" fill="#54aa13"/>
      <g id="Grupo_146139" data-name="Grupo 146139">
        <path id="Trazado_216527" data-name="Trazado 216527" d="M2.259,21.317h8.089v8.089H2.259Z" fill="#fece2f"/>
      </g>
      <path id="Trazado_216528" data-name="Trazado 216528" d="M2.259,36.683h8.089V52.993H2.259Z" fill="#2432ff"/>
      <g id="Grupo_146140" data-name="Grupo 146140">
        <path id="Trazado_216529" data-name="Trazado 216529" d="M2.259,60.27h8.089v8.155H2.259Z" fill="#f9f6f9"/>
      </g>
      <g id="Grupo_146141" data-name="Grupo 146141">
        <path id="Trazado_216530" data-name="Trazado 216530" d="M2.259,75.7H14.1v8.155H2.259Z" fill="#f9f6f9"/>
      </g>
      <path id="Trazado_216531" data-name="Trazado 216531" d="M57.581,52.7h-2.6a1.7,1.7,0,0,1-1.7-1.7V1.5h5.988V51A1.7,1.7,0,0,1,57.581,52.7Z" fill="#2432ff"/>
      <path id="Trazado_216532" data-name="Trazado 216532" d="M69.872,52.7h-2.6a1.7,1.7,0,0,1-1.7-1.7V1.5h5.988V51A1.7,1.7,0,0,1,69.872,52.7Z" fill="#2432ff"/>
      <path id="Trazado_216533" data-name="Trazado 216533" d="M41.684,60.27H20.82A1.724,1.724,0,0,1,19.1,58.546V31.13a1.724,1.724,0,0,1,1.724-1.724H41.684a1.724,1.724,0,0,1,1.724,1.724V58.546A1.725,1.725,0,0,1,41.684,60.27Z" fill="#f9f6f9"/>
      <path id="Trazado_216534" data-name="Trazado 216534" d="M41.684,29.406H37.375A1.724,1.724,0,0,1,39.1,31.13V58.546a1.724,1.724,0,0,1-1.724,1.724h4.309a1.724,1.724,0,0,0,1.724-1.724V31.13A1.724,1.724,0,0,0,41.684,29.406Z" fill="#dddaec"/>
      <path id="Trazado_216535" data-name="Trazado 216535" d="M31.792,54.3H25.8a1.431,1.431,0,0,1-1.431-1.431V37.947a2.569,2.569,0,0,1,2.569-2.569h8.615a2.569,2.569,0,0,1,2.073,4.087L34.97,43.1a9.046,9.046,0,0,0-1.748,5.344v4.427A1.431,1.431,0,0,1,31.792,54.3Z" fill="#000a9b"/>
      <path id="Trazado_216536" data-name="Trazado 216536" d="M35.557,35.378H31.648a2.569,2.569,0,0,1,2.073,4.087L31.061,43.1a9.046,9.046,0,0,0-1.748,5.344v4.427A1.431,1.431,0,0,1,27.883,54.3h3.909a1.431,1.431,0,0,0,1.431-1.431V48.441A9.046,9.046,0,0,1,34.971,43.1l2.659-3.631a2.569,2.569,0,0,0-2.073-4.087Z" fill="#000a9b"/>
      <circle id="Elipse_7101" data-name="Elipse 7101" cx="3.637" cy="3.637" r="3.637" transform="translate(21.095 70.205)" fill="#dd636e"/>
      <circle id="Elipse_7102" data-name="Elipse 7102" cx="3.637" cy="3.637" r="3.637" transform="translate(47.701 70.205)" fill="#dd636e"/>
      <path id="Trazado_216537" data-name="Trazado 216537" d="M61.949,93.7H24.911a.967.967,0,0,1-.967-.967V87.224a.967.967,0,0,1,.967-.967H61.949a.967.967,0,0,1,.967.967V92.73A.967.967,0,0,1,61.949,93.7Z" fill="#fece2f"/>
      <path id="Trazado_216538" data-name="Trazado 216538" d="M61.949,86.257H57.5a.967.967,0,0,1,.967.967V92.73a.967.967,0,0,1-.967.967h4.449a.967.967,0,0,0,.967-.967V87.224A.967.967,0,0,0,61.949,86.257Z" fill="#fece2f"/>
      <path id="Trazado_216539" data-name="Trazado 216539" d="M85.172,80.32H68.238a1.058,1.058,0,0,1-1.058-1.058V62.328a1.058,1.058,0,0,1,1.058-1.058H85.172a1.058,1.058,0,0,1,1.058,1.058V79.262A1.058,1.058,0,0,1,85.172,80.32Z" fill="#000a9b"/>
      <path id="Trazado_216540" data-name="Trazado 216540" d="M85.172,61.27H81.205a1.058,1.058,0,0,1,1.058,1.058V79.263a1.058,1.058,0,0,1-1.058,1.058h3.967a1.058,1.058,0,0,0,1.058-1.058V62.328A1.058,1.058,0,0,0,85.172,61.27Z" fill="#000a9b"/>
      <path id="Trazado_216541" data-name="Trazado 216541" d="M93.051,15.25H79.491a.917.917,0,0,1-.917-.917V10.539a.917.917,0,0,1,.917-.917H93.051a.917.917,0,0,1,.917.917v3.794a.917.917,0,0,1-.917.917Z" fill="#fece2f"/>
      <path id="Trazado_216542" data-name="Trazado 216542" d="M93.051,9.622h-3.89a.917.917,0,0,1,.917.917v3.794a.917.917,0,0,1-.917.917h3.89a.917.917,0,0,0,.917-.917V10.539A.917.917,0,0,0,93.051,9.622Z" fill="#fece2f"/>
      <circle id="Elipse_7103" data-name="Elipse 7103" cx="5.646" cy="5.646" r="5.646" transform="translate(80.625 20.901)" fill="#dd636e"/>
      <path id="Trazado_216543" data-name="Trazado 216543" d="M86.271,20.9a5.633,5.633,0,0,0-1.963.351,5.647,5.647,0,0,1,0,10.59A5.646,5.646,0,1,0,86.271,20.9Z" fill="#f67409"/>
      <g id="Grupo_146142" data-name="Grupo 146142">
        <path id="Trazado_216544" data-name="Trazado 216544" d="M96.724,0H10.678A4.923,4.923,0,0,0,5.761,4.917v14.9h-3.5a1.5,1.5,0,0,0-1.5,1.5v8.089a1.5,1.5,0,0,0,1.5,1.5h3.5v4.277h-3.5a1.5,1.5,0,0,0-1.5,1.5v16.31a1.5,1.5,0,0,0,1.5,1.5h3.5V58.77h-3.5a1.5,1.5,0,0,0-1.5,1.5v8.155a1.5,1.5,0,0,0,1.5,1.5h3.5V74.2h-3.5a1.5,1.5,0,0,0-1.5,1.5v8.155a1.5,1.5,0,0,0,1.5,1.5h3.5V97.483a4.922,4.922,0,0,0,4.917,4.917h53.5a1.5,1.5,0,0,0,0-3h-53.5a1.919,1.919,0,0,1-1.917-1.917V85.357H14.1a1.5,1.5,0,0,0,1.5-1.5V75.7a1.5,1.5,0,0,0-1.5-1.5H8.761V69.925h1.587a1.5,1.5,0,0,0,1.5-1.5V60.27a1.5,1.5,0,0,0-1.5-1.5H8.761V54.493h1.587a1.5,1.5,0,0,0,1.5-1.5V36.683a1.5,1.5,0,0,0-1.5-1.5H8.761V30.906h1.587a1.5,1.5,0,0,0,1.5-1.5V21.317a1.5,1.5,0,0,0-1.5-1.5H8.761V4.917A1.919,1.919,0,0,1,10.678,3H51.789V51a3.2,3.2,0,0,0,3.2,3.2h2.6a3.2,3.2,0,0,0,3.2-3.2V3h3.3V51a3.2,3.2,0,0,0,3.2,3.2h2.6a3.2,3.2,0,0,0,3.2-3.2V21.989a1.5,1.5,0,0,0-3,0V51a.2.2,0,0,1-.2.2h-2.6a.2.2,0,0,1-.2-.2V3h2.988V15.991a1.5,1.5,0,1,0,3,0V3H96.724a1.919,1.919,0,0,1,1.917,1.917V97.483A1.919,1.919,0,0,1,96.724,99.4H70.179a1.5,1.5,0,0,0,0,3H96.724a4.923,4.923,0,0,0,4.917-4.917V4.917A4.923,4.923,0,0,0,96.724,0ZM12.6,82.357H3.759V77.2H12.6ZM8.848,66.925H3.759V61.77H8.848Zm0-15.432H3.759V38.183H8.848Zm0-23.587H3.759V22.817H8.848ZM57.777,51a.2.2,0,0,1-.2.2h-2.6a.2.2,0,0,1-.2-.2V3h2.988Z"/>
        <path id="Trazado_216545" data-name="Trazado 216545" d="M31.792,55.8a2.934,2.934,0,0,0,2.931-2.931V48.44a7.5,7.5,0,0,1,1.458-4.458l2.659-3.631a4.069,4.069,0,0,0-3.283-6.473H26.941a4.074,4.074,0,0,0-4.069,4.069v14.92A2.934,2.934,0,0,0,25.8,55.8Zm-5.92-17.851a1.07,1.07,0,0,1,1.069-1.069h8.615a1.069,1.069,0,0,1,.863,1.7L33.761,42.21a10.476,10.476,0,0,0-2.038,6.23V52.8H25.872Z"/>
        <path id="Trazado_216546" data-name="Trazado 216546" d="M77.233,40.348a1.5,1.5,0,0,0,1.5,1.5h1.117a1.5,1.5,0,0,0,0-3H78.733A1.5,1.5,0,0,0,77.233,40.348Z"/>
        <path id="Trazado_216547" data-name="Trazado 216547" d="M86.829,41.848a1.5,1.5,0,0,0,0-3H85.713a1.5,1.5,0,0,0,0,3Z"/>
        <path id="Trazado_216548" data-name="Trazado 216548" d="M92.693,41.848h1.117a1.5,1.5,0,0,0,0-3H92.693a1.5,1.5,0,0,0,0,3Z"/>
        <path id="Trazado_216549" data-name="Trazado 216549" d="M82.781,49.2h.963a1.5,1.5,0,0,0,0-3h-.963a1.5,1.5,0,0,0,0,3Z"/>
        <path id="Trazado_216550" data-name="Trazado 216550" d="M88.8,49.2h.963a1.5,1.5,0,0,0,0-3H88.8a1.5,1.5,0,0,0,0,3Z"/>
        <path id="Trazado_216551" data-name="Trazado 216551" d="M22.6,13.936a1.5,1.5,0,0,0,0-3H21.1a1.5,1.5,0,0,0,0,3Z"/>
        <path id="Trazado_216552" data-name="Trazado 216552" d="M32,10.936H30.5a1.5,1.5,0,0,0,0,3H32a1.5,1.5,0,0,0,0-3Z"/>
        <path id="Trazado_216553" data-name="Trazado 216553" d="M41.408,13.936a1.5,1.5,0,0,0,0-3H39.9a1.5,1.5,0,0,0,0,3Z"/>
        <path id="Trazado_216554" data-name="Trazado 216554" d="M27.847,19.817h-1.3a1.5,1.5,0,0,0,0,3h1.3a1.5,1.5,0,0,0,0-3Z"/>
        <path id="Trazado_216555" data-name="Trazado 216555" d="M34.656,22.817h1.3a1.5,1.5,0,0,0,0-3h-1.3a1.5,1.5,0,0,0,0,3Z"/>
        <path id="Trazado_216556" data-name="Trazado 216556" d="M24.732,78.979A5.137,5.137,0,1,0,19.6,73.842a5.143,5.143,0,0,0,5.137,5.137Zm0-7.274A2.137,2.137,0,1,1,22.6,73.842a2.139,2.139,0,0,1,2.137-2.137Z"/>
        <path id="Trazado_216557" data-name="Trazado 216557" d="M56.475,73.842a5.137,5.137,0,1,0-5.137,5.137A5.143,5.143,0,0,0,56.475,73.842Zm-7.274,0a2.137,2.137,0,1,1,2.137,2.137A2.139,2.139,0,0,1,49.2,73.842Z"/>
        <path id="Trazado_216558" data-name="Trazado 216558" d="M65.764,88.477H64.415V87.224a2.47,2.47,0,0,0-2.467-2.467H41.891V73.842A1.5,1.5,0,0,0,41.47,72.8l-4.81-4.98V61.77h5.023a3.228,3.228,0,0,0,3.224-3.224V31.13a3.228,3.228,0,0,0-3.224-3.224H20.82a3.228,3.228,0,0,0-3.225,3.224V47.1a1.5,1.5,0,0,0,3,0V31.13a.225.225,0,0,1,.225-.224H41.683a.225.225,0,0,1,.224.224V58.546a.225.225,0,0,1-.224.224H20.82a.225.225,0,0,1-.225-.224V53.1a1.5,1.5,0,1,0-3,0v5.45A3.228,3.228,0,0,0,20.82,61.77H33.661v6.655a1.5,1.5,0,0,0,.421,1.042l4.81,4.98v10.31H24.911a2.47,2.47,0,0,0-2.467,2.467v1.253H21.1a1.5,1.5,0,0,0,0,3h1.349V92.73A2.47,2.47,0,0,0,24.911,95.2H61.949a2.47,2.47,0,0,0,2.467-2.467V91.477h1.349a1.5,1.5,0,0,0,0-3ZM61.415,92.2H25.444v-4.44H61.415V92.2Z"/>
        <path id="Trazado_216559" data-name="Trazado 216559" d="M70.289,82.258a1.5,1.5,0,0,0,3,0V81.82h1.916v.438a1.5,1.5,0,0,0,3,0V81.82h1.916v.438a1.5,1.5,0,0,0,3,0V81.82h2.051a2.56,2.56,0,0,0,2.558-2.558V77.211h.438a1.5,1.5,0,0,0,0-3H87.73V72.3h.438a1.5,1.5,0,0,0,0-3H87.73V67.379h.438a1.5,1.5,0,0,0,0-3H87.73V62.328a2.561,2.561,0,0,0-2.558-2.558H83.121v-.438a1.5,1.5,0,1,0-3,0v.438H78.205v-.438a1.5,1.5,0,1,0-3,0v.438H73.289v-.438a1.5,1.5,0,1,0-3,0v.438H68.238a2.56,2.56,0,0,0-2.558,2.558v2.051h-.438a1.5,1.5,0,0,0,0,3h.438V69.3h-.438a1.5,1.5,0,0,0,0,3h.438v1.916h-.438a1.5,1.5,0,0,0,0,3h.438v2.051a2.56,2.56,0,0,0,2.558,2.558h2.051ZM68.68,62.77H84.73V78.82H68.68Z"/>
        <path id="Trazado_216560" data-name="Trazado 216560" d="M72.938,75.368a1.5,1.5,0,0,0,1.5-1.5V67.722a1.5,1.5,0,0,0-3,0v6.145A1.5,1.5,0,0,0,72.938,75.368Z"/>
        <path id="Trazado_216561" data-name="Trazado 216561" d="M80.472,75.368a1.5,1.5,0,0,0,1.5-1.5V67.722a1.5,1.5,0,0,0-3,0v6.145A1.5,1.5,0,0,0,80.472,75.368Z"/>
        <path id="Trazado_216562" data-name="Trazado 216562" d="M95.468,10.539a2.42,2.42,0,0,0-2.417-2.417H79.491a2.42,2.42,0,0,0-2.417,2.417v3.794a2.419,2.419,0,0,0,2.417,2.417H93.051a2.42,2.42,0,0,0,2.417-2.417Zm-3,3.211H80.074V11.122H92.468Z"/>
        <path id="Trazado_216563" data-name="Trazado 216563" d="M86.271,33.693a7.146,7.146,0,1,0-7.146-7.146A7.154,7.154,0,0,0,86.271,33.693Zm0-11.292a4.146,4.146,0,1,1-4.146,4.146A4.15,4.15,0,0,1,86.271,22.4Z"/>
        <path id="Trazado_216564" data-name="Trazado 216564" d="M75.453,92.388a1.5,1.5,0,0,0,0,3H87.2a1.5,1.5,0,0,0,0-3Z"/>
      </g>
    </g>
  </g>
</svg>
