<svg xmlns="http://www.w3.org/2000/svg" width="82.502" height="74.689" viewBox="0 0 82.502 74.689">
  <g id="funcion" transform="translate(0 -7.243)">
    <g id="Grupo_146064" data-name="Grupo 146064" transform="translate(0 7.244)">
      <g id="Grupo_146063" data-name="Grupo 146063">
        <path id="Trazado_216274" data-name="Trazado 216274" d="M64.012,38.962a1.271,1.271,0,0,0,1.7-.238l2.938-3.9L71.741,38.9a1.23,1.23,0,0,0,1.7.233,1.213,1.213,0,0,0,.233-1.7l-3.506-4.62L73.123,28.9a1.214,1.214,0,1,0-1.938-1.461l-2.542,3.371-2.56-3.374A1.213,1.213,0,0,0,64.149,28.9l2.975,3.92-3.351,4.444a1.214,1.214,0,0,0,.238,1.7Z" transform="translate(-29.266 -16.322)" fill="#30610c"/>
        <path id="Trazado_216275" data-name="Trazado 216275" d="M39.788,29.02h.452v8.425a1.213,1.213,0,0,0,2.427,0V29.02h.986a1.213,1.213,0,1,0,0-2.427h-.986V24.437c-.02-.471.235-.531.9-.456a1.213,1.213,0,0,0,.535-2.367,3.636,3.636,0,0,0-2.863.531,2.777,2.777,0,0,0-1,2.292v2.156h-.452a1.213,1.213,0,1,0,0,2.427Z" transform="translate(-17.77 -13.822)" fill="#30610c"/>
        <path id="Trazado_216276" data-name="Trazado 216276" d="M56.73,40.176A1.215,1.215,0,0,0,57.9,38.649c-1.741-6.53-.07-10.957-.044-11.022a1.213,1.213,0,0,0-2.255-.9c-.083.208-2.011,5.171-.046,12.544A1.214,1.214,0,0,0,56.73,40.176Z" transform="translate(-25.189 -15.869)" fill="#30610c"/>
        <path id="Trazado_216277" data-name="Trazado 216277" d="M85.792,37.985a1.214,1.214,0,0,0,.86,1.485,1.268,1.268,0,0,0,1.485-.86c1.966-7.373.037-12.337-.046-12.544a1.214,1.214,0,1,0-2.254.9c.017.043,1.715,4.415-.046,11.018Z" transform="translate(-39.503 -15.563)" fill="#30610c"/>
        <path id="Trazado_216278" data-name="Trazado 216278" d="M81.646,73.857s-6.474-4.791-6.788-4.843V20.485q.721-1.289,1.361-2.6l.81,2.195a1.254,1.254,0,0,0,1.558.718,1.213,1.213,0,0,0,.718-1.558l-1.768-4.792c-.3-.493-.3-1.153-1.629-.911l-4.984,1.839a1.213,1.213,0,0,0,.84,2.277l2.278-.841C70.077,24.9,63.488,32.828,55.236,39.38c-9.011,7.154-19.26,12.112-28.859,13.959a1.213,1.213,0,0,0-.962,1.421,1.292,1.292,0,0,0,1.421.962c17.416-3.351,35.455-16.055,45.6-31.277v47.4H10.083V56.809c3.475-.064,10.388-.2,10.861-.241a1.214,1.214,0,0,0-.221-2.417c-.454.034-6.215.149-10.64.231V17.311H10.7A2.083,2.083,0,0,0,12.384,14L8.076,8.1a2.09,2.09,0,0,0-1.684-.857h0A2.085,2.085,0,0,0,4.711,8.1L.4,14a2.083,2.083,0,0,0,1.682,3.311H2.7V78.017A1.214,1.214,0,0,0,3.916,79.23H22.428V80.3a1.213,1.213,0,1,0,2.427,0V79.23H40.094V80.3a1.213,1.213,0,1,0,2.427,0V79.23H57.76V80.3a1.213,1.213,0,1,0,2.427,0V74.276H73.645a1.226,1.226,0,0,0,.125-.006,1.214,1.214,0,0,0,1.092-1.207V71.908l4.973,3.631-4.973,3.631V78.017A1.214,1.214,0,0,0,73.648,76.8h-9a1.213,1.213,0,1,0,0,2.427h7.791v.616a2.081,2.081,0,0,0,3.311,1.684l5.9-4.308a2.081,2.081,0,0,0,0-3.365ZM5.129,76.8V16.1a1.214,1.214,0,0,0-1.213-1.213H2.762L6.393,9.911l3.631,4.973H8.87A1.214,1.214,0,0,0,7.656,16.1V73.062h0A1.214,1.214,0,0,0,8.87,74.276H22.428V76.8H5.129Zm19.726,0V74.276H40.094V76.8Zm32.9,0H42.521V74.276H57.76Z" transform="translate(0 -7.244)" fill="#30610c"/>
        <path id="Trazado_216279" data-name="Trazado 216279" d="M107.1,106.559a1.213,1.213,0,1,0,2.427,0V106.4a1.213,1.213,0,1,0-2.427,0Z" transform="translate(-49.336 -52.364)" fill="#30610c"/>
        <path id="Trazado_216280" data-name="Trazado 216280" d="M107.1,117.5a1.213,1.213,0,0,0,2.427,0v-.156a1.213,1.213,0,1,0-2.427,0Z" transform="translate(-49.336 -57.405)" fill="#30610c"/>
        <path id="Trazado_216281" data-name="Trazado 216281" d="M107.1,95.587a1.213,1.213,0,0,0,2.427,0v-.156a1.213,1.213,0,1,0-2.427,0Z" transform="translate(-49.336 -47.31)" fill="#30610c"/>
        <path id="Trazado_216282" data-name="Trazado 216282" d="M107.1,84.644a1.213,1.213,0,0,0,2.427,0v-.156a1.213,1.213,0,1,0-2.427,0Z" transform="translate(-49.336 -42.269)" fill="#30610c"/>
        <path id="Trazado_216283" data-name="Trazado 216283" d="M108.309,74.768a1.213,1.213,0,0,0,1.213-1.213V73.4a1.213,1.213,0,1,0-2.427,0v.156A1.214,1.214,0,0,0,108.309,74.768Z" transform="translate(-49.336 -37.16)" fill="#30610c"/>
        <path id="Trazado_216284" data-name="Trazado 216284" d="M74.341,106.559a1.213,1.213,0,1,0,2.427,0V106.4a1.213,1.213,0,1,0-2.427,0Z" transform="translate(-34.246 -52.364)" fill="#30610c"/>
        <path id="Trazado_216285" data-name="Trazado 216285" d="M74.341,117.5a1.213,1.213,0,0,0,2.427,0v-.156a1.213,1.213,0,1,0-2.427,0Z" transform="translate(-34.246 -57.405)" fill="#30610c"/>
        <path id="Trazado_216286" data-name="Trazado 216286" d="M75.554,96.8a1.213,1.213,0,0,0,1.213-1.213v-.156a1.213,1.213,0,1,0-2.427,0v.156A1.214,1.214,0,0,0,75.554,96.8Z" transform="translate(-34.246 -47.31)" fill="#30610c"/>
        <path id="Trazado_216287" data-name="Trazado 216287" d="M44.013,106.4a1.213,1.213,0,0,0-2.427,0v.156a1.213,1.213,0,1,0,2.427,0Z" transform="translate(-19.157 -52.364)" fill="#30610c"/>
        <path id="Trazado_216288" data-name="Trazado 216288" d="M42.8,116.132a1.213,1.213,0,0,0-1.213,1.213v.156a1.213,1.213,0,0,0,2.427,0v-.156A1.214,1.214,0,0,0,42.8,116.132Z" transform="translate(-19.157 -57.405)" fill="#30610c"/>
      </g>
    </g>
  </g>
</svg>
