<svg xmlns="http://www.w3.org/2000/svg" width="56.29" height="70" viewBox="0 0 56.29 70">
  <g id="Grupo_145754" data-name="Grupo 145754" transform="translate(-1341.185 -851.585)">
    <path id="Trazado_172303" data-name="Trazado 172303" d="M1383.935,921.585a18.1,18.1,0,0,1-2.172-.512,21.254,21.254,0,0,1-2.981-1.31,3.286,3.286,0,0,0-1.661-.451q-16,.016-32,0a6.517,6.517,0,0,1-1.49-.117,3.209,3.209,0,0,1-2.435-3.018c-.011-.25-.009-.5-.009-.752q0-21.017,0-42.035c0-.182,0-.365,0-.547a1.043,1.043,0,0,1,1.01-1.136,1.074,1.074,0,0,1,1.03,1.137c.014.227,0,.456,0,.683q0,20.949,0,41.9c0,1.522.316,1.839,1.837,1.839h30.71a11.106,11.106,0,0,1-2.436-4.591c-.345-1.626-.449-3.3-.647-4.863-.565.054-1.277.177-1.99.18-4.708.018-9.415.01-14.123.007a3.405,3.405,0,0,1-.811-.063,1,1,0,0,1,.111-1.96,5.955,5.955,0,0,1,.749-.024h15.022v-2.443h-22.746v2.443c.69,0,1.385-.007,2.08,0,.807.01,1.271.383,1.273,1.009S1351.8,907.986,1351,908c-.659.012-1.32.022-1.979,0a2.146,2.146,0,0,1-2.2-2.275c-.009-.706-.013-1.413,0-2.119a2.13,2.13,0,0,1,2.076-2.185c.226-.017.455-.009.682-.009h21.423c1.988,0,2.622.611,2.732,2.623a1.979,1.979,0,0,0,.093.3,12.96,12.96,0,0,1,4.412-5.328c-.216-.068-.347-.106-.477-.149a2.1,2.1,0,0,1-1.53-1.966,24.971,24.971,0,0,1,0-2.527,2.088,2.088,0,0,1,2.1-2.015c.75-.028,1.5-.02,2.251,0a2.139,2.139,0,0,1,2.205,2.2c.027.835.005,1.673.005,2.472l3.556-.166v-25.1h-.817c-2.82,0-5.644-.094-8.459.027-2.761.118-4.4-1.324-4.266-4.235.13-2.842.028-5.694.028-8.542v-.816c-.289-.013-.528-.034-.767-.034q-13.577,0-27.154,0c-1.291,0-1.682.383-1.683,1.656q0,3.828,0,7.655a2.974,2.974,0,0,1-.046.679.942.942,0,0,1-1.093.8.912.912,0,0,1-.892-.945c-.028-.751-.014-1.5-.014-2.255,0-2.05-.009-4.1,0-6.151a3.283,3.283,0,0,1,3.514-3.491c1.044-.005,2.087,0,3.248,0-.192-2.167.438-3.85,2.682-4.522h39.715c1.949.673,2.637,2.056,2.631,4.091-.045,14.44-.022,28.88-.034,43.32a1.342,1.342,0,0,0,.482,1.111,12.332,12.332,0,0,1-4.337,20.811c-.875.3-1.8.448-2.7.667ZM1350,856.107h.9c7.435,0,14.871.01,22.307-.015a2.391,2.391,0,0,1,1.856.783q6.318,6.38,12.685,12.709a2.248,2.248,0,0,1,.709,1.748q-.029,12.574-.012,25.148v.8l2.468.955v-.767q0-21.048,0-42.1c0-1.381-.358-1.741-1.729-1.741H1369.26q-8.868,0-17.736,0c-1.05,0-1.5.443-1.525,1.482C1349.992,855.412,1350,855.705,1350,856.107Zm24.893,53.148a10.267,10.267,0,1,0,10.246-10.33A10.281,10.281,0,0,0,1374.892,909.256Zm.028-49.353c-.008.125-.03.318-.03.512q0,3.825,0,7.649c0,1.246.388,1.641,1.623,1.644q3.886.009,7.772,0a2.607,2.607,0,0,0,.388-.045Zm5.779,36.934v-2.41h-2.385v2.41Z" fill="#30610c"/>
    <path id="Trazado_172304" data-name="Trazado 172304" d="M1385.5,1025.552q5.526,0,11.052,0a2.15,2.15,0,0,1,2.429,2.432c0,.683.017,1.368-.007,2.05a2.054,2.054,0,0,1-2.084,2.081q-11.359.017-22.718,0a2.091,2.091,0,0,1-2.1-2.085c-.027-.751-.017-1.5,0-2.255a2.123,2.123,0,0,1,2.241-2.221Q1379.9,1025.543,1385.5,1025.552Zm-11.365,4.48h22.747v-2.375h-22.747Z" transform="translate(-25.244 -142.253)" fill="#30610c"/>
    <path id="Trazado_172305" data-name="Trazado 172305" d="M1385.59,975.89q5.492,0,10.984,0a2.141,2.141,0,0,1,2.441,2.413c0,.615.007,1.23,0,1.845a2.143,2.143,0,0,1-2.351,2.318c-1.137.008-2.274,0-3.411,0H1374.7c-1.789,0-2.592-.8-2.594-2.571,0-.57-.005-1.139,0-1.709a2.128,2.128,0,0,1,2.3-2.3C1378.131,975.884,1381.861,975.89,1385.59,975.89Zm-11.4,4.485h22.726V978h-22.726Z" transform="translate(-25.279 -101.644)" fill="#30610c"/>
    <path id="Trazado_172306" data-name="Trazado 172306" d="M1385.561,1081.747q-5.492,0-10.983,0a2.181,2.181,0,0,1-2.48-2.461c0-.615-.007-1.23,0-1.845a2.162,2.162,0,0,1,2.276-2.271c.409-.007.819,0,1.228,0h20.807c1.836,0,2.6.768,2.6,2.617,0,.569.008,1.139,0,1.708a2.087,2.087,0,0,1-2.26,2.25C1393.019,1081.754,1389.29,1081.747,1385.561,1081.747Zm-11.394-2.093h22.742v-2.38h-22.742Z" transform="translate(-25.274 -182.824)" fill="#30610c"/>
    <path id="Trazado_172307" data-name="Trazado 172307" d="M1377.6,907.744c-1.046,0-2.092.007-3.138,0a2.154,2.154,0,0,1-2.377-2.361c0-.683-.015-1.367,0-2.05a2.107,2.107,0,0,1,2.1-2.157q3.444-.054,6.889,0a2.068,2.068,0,0,1,2.082,2.093c.026.8.027,1.595,0,2.391a2.064,2.064,0,0,1-2.084,2.08c-.046,0-.091,0-.136,0Zm3.462-2.092v-2.386h-6.892v2.386Z" transform="translate(-25.261 -40.528)" fill="#30610c"/>
    <path id="Trazado_172308" data-name="Trazado 172308" d="M1536.606,1032.107c-.363,0-.727.005-1.09,0a2.088,2.088,0,0,1-2.185-2.052,24.187,24.187,0,0,1,0-2.455,2.084,2.084,0,0,1,2.175-2.061q1.09-.016,2.179,0a2.1,2.1,0,0,1,2.192,2.05,21.28,21.28,0,0,1,0,2.455,2.1,2.1,0,0,1-2.182,2.063C1537.332,1032.113,1536.969,1032.107,1536.606,1032.107Zm-1.209-2.1h2.411v-2.377H1535.4Z" transform="translate(-157.093 -142.236)" fill="#30610c"/>
    <path id="Trazado_172309" data-name="Trazado 172309" d="M1536.68,975.891c.272,0,.545,0,.817,0a2.156,2.156,0,0,1,2.417,2.382c.007.659.019,1.32,0,1.978a2.152,2.152,0,0,1-2.256,2.216c-.681.012-1.362.011-2.043,0a2.145,2.145,0,0,1-2.271-2.264c-.017-.7-.02-1.41,0-2.115a2.1,2.1,0,0,1,2.249-2.2C1535.954,975.886,1536.317,975.891,1536.68,975.891Zm1.15,2.082h-2.379v2.4h2.379Z" transform="translate(-157.116 -101.645)" fill="#30610c"/>
    <path id="Trazado_172310" data-name="Trazado 172310" d="M1546.21,1138.24c1.227-1.08,2.422-2.129,3.615-3.18a2.2,2.2,0,0,1,3.452.163c.445.486.89.974,1.315,1.479a2.094,2.094,0,0,1-.163,3.054q-3.548,3.2-7.149,6.333a1.541,1.541,0,0,1-2.166-.006c-1.6-1.343-3.2-2.691-4.784-4.061a2.113,2.113,0,0,1-.207-3.1c.5-.586,1.024-1.161,1.566-1.711a2.094,2.094,0,0,1,2.9-.236C1545.121,1137.357,1545.626,1137.781,1546.21,1138.24Zm-2.958.286-1.694,1.858,4.645,3.942,6.952-6.165-1.648-1.845c-1.322,1.161-2.585,2.268-3.845,3.379-1.108.977-1.682.99-2.855.058C1544.31,1139.357,1543.811,1138.966,1543.252,1138.526Z" transform="translate(-162.197 -231.18)" fill="#30610c"/>
  </g>
</svg>
