<svg xmlns="http://www.w3.org/2000/svg" xmlns:xlink="http://www.w3.org/1999/xlink" width="105" height="105" viewBox="0 0 105 105">
  <defs>
    <clipPath id="clip-path">
      <path id="path6237" d="M0-136.533H105v105H0Z" transform="translate(0 136.533)"/>
    </clipPath>
  </defs>
  <g id="aprender-en-linea" transform="translate(0 0)">
    <g id="g6231" transform="translate(0 0)">
      <g id="g6233">
        <g id="g6235" clip-path="url(#clip-path)">
          <g id="g6241" transform="translate(35.359 78.186)">
            <path id="path6243" d="M-2.282,0V6.275a7.059,7.059,0,0,1-3.038,5.888l-4.562,3.043h34.29l-4.562-3.043a7.059,7.059,0,0,1-3.038-5.888V0Z" transform="translate(9.883 0)" fill="#fff"/>
          </g>
          <g id="g6245" transform="translate(35.359 78.186)">
            <path id="path6247" d="M-2.282,0V6.275a7.059,7.059,0,0,1-3.038,5.888l-4.562,3.043H1.185l.1-.064A7.059,7.059,0,0,0,4.32,9.254V4.909A1.931,1.931,0,0,1,6.25,2.979H16.807V0Z" transform="translate(9.883)" fill="#8a92ff"/>
          </g>
          <g id="g6249" transform="translate(30.117 93.172)">
            <path id="path6251" d="M-12.831,0H-53.505a2.051,2.051,0,0,0-2.051,2.051v2.3A2.051,2.051,0,0,0-53.505,6.4h40.674A2.051,2.051,0,0,0-10.78,4.347v-2.3A2.051,2.051,0,0,0-12.831,0" transform="translate(55.556)" fill="#fff"/>
          </g>
          <g id="g6253" transform="translate(30.117 93.172)">
            <path id="path6255" d="M-3.413-1.305V-3.6A2.051,2.051,0,0,1-1.362-5.652H-12.728A2.051,2.051,0,0,0-14.778-3.6v2.3A2.051,2.051,0,0,0-12.728.745H-1.362A2.051,2.051,0,0,1-3.413-1.305" transform="translate(14.778 5.652)" fill="#fff"/>
          </g>
          <g id="g6257" transform="translate(1.542 5.524)">
            <path id="path6259" d="M-28.834,0h-90.1a5.917,5.917,0,0,0-5.91,5.91V67.022a5.917,5.917,0,0,0,5.91,5.91h90.1a5.917,5.917,0,0,0,5.91-5.91V5.91A5.917,5.917,0,0,0-28.834,0" transform="translate(124.849)" fill="#8a92ff"/>
          </g>
          <g id="g6261" transform="translate(1.542 5.525)">
            <path id="path6263" d="M-2.053-20.128V-81.24a5.917,5.917,0,0,1,5.91-5.91H-2.979a5.917,5.917,0,0,0-5.91,5.91v61.112a5.917,5.917,0,0,0,5.91,5.91H3.857a5.917,5.917,0,0,1-5.91-5.91" transform="translate(8.89 87.15)" fill="#8a92ff"/>
          </g>
          <g id="g6265" transform="translate(7.94 19.118)">
            <path id="path6267" d="M0,0V.41H0V52.091a.85.85,0,0,0,.85.85H88.279a.85.85,0,0,0,.85-.85V0Z" fill="#fff"/>
          </g>
          <g id="g6269" transform="translate(7.94 19.118)">
            <path id="path6271" d="M-1.848-15.644V-67.325h0v-.41H-8v.41h0v51.681a.85.85,0,0,0,.85.85H-1a.85.85,0,0,1-.85-.85" transform="translate(8.001 67.735)" fill="#fff"/>
          </g>
          <g id="g6273" transform="translate(16.97 11.922)">
            <path id="path6275" d="M-23.8,0h-79.249V7.606h80.1V.85A.85.85,0,0,0-23.8,0" transform="translate(103.048)" fill="#5cb3f8"/>
          </g>
          <g id="g6277" transform="translate(7.94 11.922)">
            <path id="path6279" d="M-2.774,0h-8.385a.85.85,0,0,0-.85.85V7.606h9.236Z" transform="translate(12.009)" fill="#fece2f"/>
          </g>
          <g id="g6281" transform="translate(7.94 11.922)">
            <path id="path6283" d="M-2.1,0H-8.255a.85.85,0,0,0-.85.85V7.606h6.152V.85A.85.85,0,0,1-2.1,0" transform="translate(9.106)" fill="#fece2f"/>
          </g>
          <g id="g6285" transform="translate(34.304 42.096)">
            <path id="path6287" d="M-5.862-2.393a4.035,4.035,0,0,1-3.614,0l-15.9-7.969V1.8a3.781,3.781,0,0,0,.654.459,35.823,35.823,0,0,0,17.057,4.3,35.823,35.823,0,0,0,17.057-4.3,3.781,3.781,0,0,0,.654-.459V-10.362Z" transform="translate(25.38 10.362)" fill="#f67409"/>
          </g>
          <g id="g6289" transform="translate(34.304 42.096)">
            <path id="path6291" d="M-2.221-1.113l-7.4-3.706V7.346a3.779,3.779,0,0,0,.654.459,35.863,35.863,0,0,0,6.743,2.79Z" transform="translate(9.619 4.819)" fill="#f67409"/>
          </g>
          <g id="g6293" transform="translate(34.304 53.647)">
            <path id="path6295" d="M-10.441-.138A35.824,35.824,0,0,1-27.5,4.158a35.825,35.825,0,0,1-17.057-4.3A3.779,3.779,0,0,1-45.209-.6V3.57a3.664,3.664,0,0,0,1.9,3.233A33.219,33.219,0,0,0-27.5,10.786,33.219,33.219,0,0,0-11.683,6.8a3.663,3.663,0,0,0,1.9-3.233V-.6a3.771,3.771,0,0,1-.654.459" transform="translate(45.209 0.596)" fill="#fccea9"/>
          </g>
          <g id="g6297" transform="translate(34.304 53.647)">
            <path id="path6299" d="M-2.221-.975a35.85,35.85,0,0,1-6.743-2.79,3.768,3.768,0,0,1-.654-.459V-.057a3.663,3.663,0,0,0,1.9,3.233,33.248,33.248,0,0,0,5.5,2.355Z" transform="translate(9.619 4.224)" fill="#fccea9"/>
          </g>
          <g id="g6301" transform="translate(26.332 24.328)">
            <path id="path6303" d="M-15.13-3.573-38.022-15.042a4.034,4.034,0,0,0-3.614,0L-64.527-3.573a1.784,1.784,0,0,0,0,3.191l22.891,11.469a4.034,4.034,0,0,0,3.614,0L-15.13-.382a1.785,1.785,0,0,0,0-3.191" transform="translate(65.512 15.47)" fill="#fccea9"/>
          </g>
          <g id="g6305" transform="translate(26.332 24.328)">
            <path id="path6307" d="M-15.13-3.573-38.022-15.042a4.034,4.034,0,0,0-3.614,0L-64.527-3.573a1.784,1.784,0,0,0,0,3.191l22.891,11.469a4.034,4.034,0,0,0,3.614,0L-15.13-.382a1.785,1.785,0,0,0,0-3.191" transform="translate(65.512 15.47)" fill="#fccea9"/>
          </g>
          <g id="g6309" transform="translate(26.332 33.4)">
            <path id="path6311" d="M-9.4-4.178-33.118-16.059a1.835,1.835,0,0,1-.978-2.029l-5.638,2.825a1.784,1.784,0,0,0,0,3.191L-16.844-.6a4.035,4.035,0,0,0,3.614,0l6.357-3.185A4.176,4.176,0,0,1-9.4-4.178" transform="translate(40.72 18.088)" fill="#fccea9"/>
          </g>
          <g id="g6313" transform="translate(73.47 57.42)">
            <path id="path6315" d="M-2.517-2.206-4.335-9.553A3,3,0,0,1-6.672-8.422,3,3,0,0,1-9.008-9.553l-1.818,7.346A2.215,2.215,0,0,0-8.684.57H-4.66A2.215,2.215,0,0,0-2.517-2.206" transform="translate(10.9 9.553)" fill="#fec458"/>
          </g>
          <g id="g6317" transform="translate(73.47 57.42)">
            <path id="path6319" d="M-1.131-2.206.464-8.651a2.937,2.937,0,0,1-1.132.23A3,3,0,0,1-3-9.553L-4.822-2.206A2.215,2.215,0,0,0-2.68.57H1.012A2.215,2.215,0,0,1-1.131-2.206" transform="translate(4.896 9.553)" fill="#f9ab49"/>
          </g>
          <g id="g6321" transform="translate(49 34.805)">
            <path id="path6323" d="M-1.811-.906A3.015,3.015,0,0,1-4.826,2.11,3.015,3.015,0,0,1-7.842-.906,3.015,3.015,0,0,1-4.826-3.921,3.015,3.015,0,0,1-1.811-.906" transform="translate(7.842 3.921)" fill="#fccea9"/>
          </g>
          <g id="g6325" transform="translate(74.683 52.93)">
            <path id="path6327" d="M-1.811-.905A3.015,3.015,0,0,1-4.826,2.11,3.015,3.015,0,0,1-7.842-.905,3.015,3.015,0,0,1-4.826-3.921,3.015,3.015,0,0,1-1.811-.905" transform="translate(7.842 3.921)" fill="#ffe181"/>
          </g>
          <g id="g6329" transform="translate(74.683 52.93)">
            <path id="path6331" d="M-1.109-.905A3.006,3.006,0,0,1,.061-3.286a3,3,0,0,0-1.846-.635A3.015,3.015,0,0,0-4.8-.905,3.015,3.015,0,0,0-1.785,2.11,3,3,0,0,0,.061,1.475,3.006,3.006,0,0,1-1.109-.905" transform="translate(4.8 3.921)" fill="#fec458"/>
          </g>
          <g id="g6333" transform="translate(1.538 5.477)">
            <path id="path6335" d="M-28.834,0h-90.1a5.917,5.917,0,0,0-5.911,5.91V67.022a5.917,5.917,0,0,0,5.911,5.91h90.1a5.917,5.917,0,0,0,5.91-5.91V5.91A5.917,5.917,0,0,0-28.834,0Z" transform="translate(124.849)" fill="none" stroke="#000" stroke-linecap="round" stroke-linejoin="round" stroke-miterlimit="10" stroke-width="4"/>
          </g>
          <g id="g6337" transform="translate(7.935 11.875)">
            <path id="path6339" d="M-2.774,0h-8.385a.85.85,0,0,0-.85.85V7.606h9.236Z" transform="translate(12.009)" fill="none" stroke="#000" stroke-linecap="round" stroke-linejoin="round" stroke-miterlimit="10" stroke-width="4"/>
          </g>
          <g id="g6341" transform="translate(35.685 78.41)">
            <path id="path6343" d="M-2.183,0V6a7.058,7.058,0,0,1-3.038,5.888l-4.232,2.823h33.63l-4.232-2.823A7.058,7.058,0,0,1,16.906,6V0Z" transform="translate(9.454)" fill="none" stroke="#000" stroke-linecap="round" stroke-linejoin="round" stroke-miterlimit="10" stroke-width="4"/>
          </g>
          <g id="g6345" transform="translate(17.171 11.875)">
            <path id="path6347" d="M-23.738,0h-79.043V7.606h79.894V.85A.85.85,0,0,0-23.738,0Z" transform="translate(102.781)" fill="none" stroke="#000" stroke-linecap="round" stroke-linejoin="round" stroke-miterlimit="10" stroke-width="4"/>
          </g>
          <g id="g6349" transform="translate(26.327 24.282)">
            <path id="path6351" d="M-15.13-3.573-38.022-15.042a4.035,4.035,0,0,0-3.614,0L-64.527-3.573a1.784,1.784,0,0,0,0,3.191l22.891,11.469a4.033,4.033,0,0,0,3.614,0L-15.13-.382A1.784,1.784,0,0,0-15.13-3.573Z" transform="translate(65.512 15.469)" fill="none" stroke="#000" stroke-linecap="round" stroke-linejoin="round" stroke-miterlimit="10" stroke-width="4"/>
          </g>
          <g id="g6353" transform="translate(34.3 42.87)">
            <path id="path6355" d="M-5.862-2.393a4.035,4.035,0,0,1-3.614,0l-15.9-7.968v14.9a3.663,3.663,0,0,0,1.9,3.233A33.217,33.217,0,0,0-7.669,11.751,33.218,33.218,0,0,0,8.146,7.768a3.663,3.663,0,0,0,1.9-3.233v-14.9Z" transform="translate(25.38 10.361)" fill="none" stroke="#000" stroke-linecap="round" stroke-linejoin="round" stroke-miterlimit="10" stroke-width="4"/>
          </g>
          <g id="g6357" transform="translate(34.3 53.6)">
            <path id="path6359" d="M-10.441-.138A35.824,35.824,0,0,1-27.5,4.158a35.824,35.824,0,0,1-17.057-4.3A3.781,3.781,0,0,1-45.209-.6V3.57a3.663,3.663,0,0,0,1.9,3.233A33.217,33.217,0,0,0-27.5,10.786,33.217,33.217,0,0,0-11.683,6.8a3.663,3.663,0,0,0,1.9-3.233V-.6A3.779,3.779,0,0,1-10.441-.138Z" transform="translate(45.209 0.596)" fill="none" stroke="#000" stroke-linecap="round" stroke-linejoin="round" stroke-miterlimit="10" stroke-width="4"/>
          </g>
          <g id="g6361" transform="translate(55.026 37.774)">
            <path id="path6363" d="M0,0H22.668V15.109" fill="none" stroke="#000" stroke-linecap="round" stroke-linejoin="round" stroke-miterlimit="10" stroke-width="4"/>
          </g>
          <g id="g6365" transform="translate(48.995 34.758)">
            <path id="path6367" d="M-1.811-.906A3.015,3.015,0,0,1-4.826,2.11,3.015,3.015,0,0,1-7.842-.906,3.015,3.015,0,0,1-4.826-3.921,3.015,3.015,0,0,1-1.811-.906Z" transform="translate(7.842 3.921)" fill="none" stroke="#000" stroke-linecap="round" stroke-linejoin="round" stroke-miterlimit="10" stroke-width="4"/>
          </g>
          <g id="g6369" transform="translate(74.679 52.883)">
            <path id="path6371" d="M-1.811-.906A3.015,3.015,0,0,1-4.826,2.11,3.015,3.015,0,0,1-7.842-.906,3.015,3.015,0,0,1-4.826-3.921,3.015,3.015,0,0,1-1.811-.906Z" transform="translate(7.842 3.921)" fill="none" stroke="#000" stroke-linecap="round" stroke-linejoin="round" stroke-miterlimit="10" stroke-width="4"/>
          </g>
          <g id="g6373" transform="translate(73.466 57.783)">
            <path id="path6375" d="M-2.517-2.083-4.336-9.019A3,3,0,0,1-6.672-7.888,3,3,0,0,1-9.008-9.019l-1.818,6.936A2.215,2.215,0,0,0-8.684.694H-4.66A2.215,2.215,0,0,0-2.517-2.083Z" transform="translate(10.9 9.019)" fill="none" stroke="#000" stroke-linecap="round" stroke-linejoin="round" stroke-miterlimit="10" stroke-width="4"/>
          </g>
          <g id="g6377" transform="translate(30.112 93.125)">
            <path id="path6379" d="M-7.8-1.921H8.947A2.051,2.051,0,0,0,11-3.972v-2.3A2.051,2.051,0,0,0,8.947-8.319H-31.727a2.051,2.051,0,0,0-2.051,2.051v2.3a2.051,2.051,0,0,0,2.051,2.051h16.748" transform="translate(33.778 8.319)" fill="none" stroke="#000" stroke-linecap="round" stroke-linejoin="round" stroke-miterlimit="10" stroke-width="4"/>
          </g>
          <g id="g6381" transform="translate(7.935 19.481)">
            <path id="path6383" d="M-26.767-5.668V-24.542H-115.9V27.139a.85.85,0,0,0,.85.85h87.429a.85.85,0,0,0,.85-.85V1.51" transform="translate(115.896 24.542)" fill="none" stroke="#000" stroke-linecap="round" stroke-linejoin="round" stroke-miterlimit="10" stroke-width="4"/>
          </g>
        </g>
      </g>
    </g>
  </g>
</svg>
