<svg xmlns="http://www.w3.org/2000/svg" width="83.121" height="73.152" viewBox="0 0 83.121 73.152">
  <g id="entrevista" transform="translate(0 -9.21)">
    <g id="Grupo_146067" data-name="Grupo 146067" transform="translate(0 9.211)">
      <path id="Trazado_216313" data-name="Trazado 216313" d="M76.524,28.037H58.915V15.807a6.6,6.6,0,0,0-6.6-6.6H6.6a6.6,6.6,0,0,0-6.6,6.6V33.939a1.218,1.218,0,0,0,2.435,0V15.807A4.166,4.166,0,0,1,6.6,11.646H52.318a4.166,4.166,0,0,1,4.161,4.161V48.082a4.166,4.166,0,0,1-4.161,4.161H25.98a2.545,2.545,0,0,0-1.812.75L16.1,61.062a.127.127,0,0,1-.217-.09V54.805a2.565,2.565,0,0,0-2.562-2.562H6.6a4.166,4.166,0,0,1-4.161-4.161V38.809a1.218,1.218,0,1,0-2.435,0v9.273a6.6,6.6,0,0,0,6.6,6.6H13.32a.127.127,0,0,1,.127.127v6.167a2.562,2.562,0,0,0,4.374,1.812L24.206,56.4V66.908a6.6,6.6,0,0,0,6.6,6.6H45.548a1.218,1.218,0,0,0,0-2.435H30.8a4.166,4.166,0,0,1-4.161-4.161V54.678H52.318a6.6,6.6,0,0,0,6.6-6.6V30.472H76.524a4.166,4.166,0,0,1,4.161,4.161V66.908a4.166,4.166,0,0,1-4.161,4.161H69.8a2.565,2.565,0,0,0-2.562,2.562V79.8a.127.127,0,0,1-.217.09L58.953,71.82a2.545,2.545,0,0,0-1.812-.751H50.419a1.218,1.218,0,0,0,0,2.435h6.721a.128.128,0,0,1,.09.037L65.3,81.61A2.562,2.562,0,0,0,69.673,79.8V73.632A.127.127,0,0,1,69.8,73.5h6.724a6.6,6.6,0,0,0,6.6-6.6V34.634a6.6,6.6,0,0,0-6.6-6.6Z" transform="translate(0 -9.211)" fill="#30610c"/>
      <path id="Trazado_216314" data-name="Trazado 216314" d="M69.58,102.578a3.907,3.907,0,1,0,3.907-3.907A3.911,3.911,0,0,0,69.58,102.578Zm5.379,0a1.472,1.472,0,1,1-1.472-1.472A1.473,1.473,0,0,1,74.959,102.578Z" transform="translate(-31.927 -50.26)" fill="#30610c"/>
      <path id="Trazado_216315" data-name="Trazado 216315" d="M47.215,72.758a3.907,3.907,0,1,0,3.907-3.907A3.912,3.912,0,0,0,47.215,72.758Zm5.379,0a1.472,1.472,0,1,1-1.472-1.472A1.473,1.473,0,0,1,52.594,72.758Z" transform="translate(-21.665 -36.577)" fill="#30610c"/>
      <path id="Trazado_216316" data-name="Trazado 216316" d="M50.468,36.863a9.287,9.287,0,1,0-13.193-8.426,3.907,3.907,0,0,0,7.814,0,1.439,1.439,0,0,1,.468-1.077,1.478,1.478,0,0,1,1.116-.391,1.5,1.5,0,0,1,1.355,1.356,1.479,1.479,0,0,1-.91,1.476,7.209,7.209,0,0,0-4.465,6.705V39.2a3.907,3.907,0,1,0,7.814,0V36.863Zm-1.305-2.087a1.849,1.849,0,0,0-1.13,1.729V39.2a1.472,1.472,0,1,1-2.944,0V36.506a4.783,4.783,0,0,1,2.955-4.453,3.911,3.911,0,0,0,2.414-3.9A3.96,3.96,0,0,0,46.84,24.54q-.139-.009-.277-.01a3.907,3.907,0,0,0-3.909,3.907,1.472,1.472,0,0,1-2.944,0,6.851,6.851,0,1,1,9.452,6.339Z" transform="translate(-17.104 -13.772)" fill="#30610c"/>
      <path id="Trazado_216317" data-name="Trazado 216317" d="M122.124,102.578a3.907,3.907,0,1,0-3.907,3.907A3.911,3.911,0,0,0,122.124,102.578Zm-5.379,0a1.472,1.472,0,1,1,1.472,1.472A1.473,1.473,0,0,1,116.746,102.578Z" transform="translate(-52.452 -50.26)" fill="#30610c"/>
      <path id="Trazado_216318" data-name="Trazado 216318" d="M95.852,106.485a3.907,3.907,0,1,0-3.907-3.907A3.911,3.911,0,0,0,95.852,106.485Zm0-5.379a1.472,1.472,0,1,1-1.472,1.472A1.473,1.473,0,0,1,95.852,101.106Z" transform="translate(-42.189 -50.26)" fill="#30610c"/>
    </g>
  </g>
</svg>
