<svg xmlns="http://www.w3.org/2000/svg" width="70.283" height="70.671" viewBox="0 0 70.283 70.671">
  <g id="fisica" transform="translate(-0.422)">
    <g id="Grupo_146077" data-name="Grupo 146077" transform="translate(0.422 0)">
      <g id="Grupo_146076" data-name="Grupo 146076">
        <path id="Trazado_216325" data-name="Trazado 216325" d="M56.005,36.3H74.3a1.035,1.035,0,0,0,0-2.07H56.005a1.035,1.035,0,0,0,0,2.07Z" transform="translate(-29.873 -18.483)" fill="#30610c"/>
        <path id="Trazado_216326" data-name="Trazado 216326" d="M56.005,46.56H74.3a1.035,1.035,0,0,0,0-2.07H56.005a1.035,1.035,0,1,0,0,2.07Z" transform="translate(-29.873 -24.02)" fill="#30610c"/>
        <path id="Trazado_216327" data-name="Trazado 216327" d="M43.472,33.072a1.035,1.035,0,0,0-1.035,1.035v3.55a2.8,2.8,0,0,0,2.8,2.8H71.539a2.8,2.8,0,0,0,2.8-2.8V25.719a2.8,2.8,0,0,0-2.8-2.8H45.232a2.8,2.8,0,0,0-2.8,2.8v3.55a1.035,1.035,0,0,0,2.07,0v-3.55a.725.725,0,0,1,.725-.725H71.539a.725.725,0,0,1,.725.725V37.657a.725.725,0,0,1-.725.725H45.232a.725.725,0,0,1-.725-.725v-3.55A1.035,1.035,0,0,0,43.472,33.072Z" transform="translate(-23.106 -12.376)" fill="#30610c"/>
        <path id="Trazado_216328" data-name="Trazado 216328" d="M33.63,68.6H15.275V2.07h38.36a2.876,2.876,0,0,1,2.873,2.873V27.42a1.035,1.035,0,1,0,2.07,0V4.943A4.949,4.949,0,0,0,53.635,0H9.505A4.949,4.949,0,0,0,4.562,4.943v3.17h-.54a3.6,3.6,0,0,0,0,7.2h.54v4.612h-.54a3.6,3.6,0,0,0,0,7.2h.54v4.612h-.54a3.6,3.6,0,0,0,0,7.2h.54v4.612h-.54a3.6,3.6,0,0,0,0,7.2h.54v4.612h-.54a3.6,3.6,0,0,0,0,7.2h.54v3.17a4.949,4.949,0,0,0,4.943,4.943H33.63a1.035,1.035,0,0,0,0-2.07ZM4.022,13.242a1.529,1.529,0,0,1,0-3.059H7.173a1.529,1.529,0,0,1,0,3.059Zm0,11.811a1.529,1.529,0,0,1,0-3.059H7.173a1.529,1.529,0,0,1,0,3.059Zm0,11.811a1.529,1.529,0,1,1,0-3.058H7.173a1.529,1.529,0,1,1,0,3.058Zm0,11.811a1.529,1.529,0,0,1,0-3.059H7.173a1.529,1.529,0,0,1,0,3.059Zm0,11.812a1.529,1.529,0,0,1,0-3.059H7.173a1.529,1.529,0,0,1,0,3.059ZM13.2,68.6h-3.7a2.876,2.876,0,0,1-2.873-2.873v-3.17h.54a3.6,3.6,0,0,0,0-7.2h-.54V50.747h.54a3.6,3.6,0,0,0,0-7.2h-.54V38.935h.54a3.6,3.6,0,1,0,0-7.2h-.54V27.124h.54a3.6,3.6,0,0,0,0-7.2h-.54V15.312h.54a3.6,3.6,0,0,0,0-7.2h-.54V4.943A2.876,2.876,0,0,1,9.505,2.07h3.7Z" transform="translate(-0.422 0)" fill="#30610c"/>
        <path id="Trazado_216329" data-name="Trazado 216329" d="M111.1,99.812,99.8,78.89a1.551,1.551,0,0,1-.186-.735V75.474a3.827,3.827,0,0,0-.566-7.612H89.069a3.827,3.827,0,0,0-.566,7.612v2.681a1.55,1.55,0,0,1-.186.735l-11.3,20.921a5.082,5.082,0,0,0,4.471,7.5h25.149a5.082,5.082,0,0,0,4.471-7.5ZM87.313,71.69a1.758,1.758,0,0,1,1.756-1.756h9.978a1.756,1.756,0,0,1,0,3.513H89.069A1.758,1.758,0,0,1,87.313,71.69Zm2.826,8.185a3.627,3.627,0,0,0,.435-1.719V75.516h6.969v2.639a3.628,3.628,0,0,0,.435,1.719l5.188,9.6a4.527,4.527,0,0,0-4.429.863,2.42,2.42,0,0,1-3.354,0,4.464,4.464,0,0,0-5.883,0,2.422,2.422,0,0,1-3.355,0,5.582,5.582,0,0,0-1.239-.778Zm16.493,25.365H81.484a3.011,3.011,0,0,1-2.65-4.444l5.077-9.4a3.052,3.052,0,0,1,.969.58,4.466,4.466,0,0,0,5.883,0,2.42,2.42,0,0,1,3.354,0,4.464,4.464,0,0,0,5.883,0,2.421,2.421,0,0,1,3.355,0,4.9,4.9,0,0,0,1.666.932l4.261,7.886a3.012,3.012,0,0,1-2.65,4.444Z" transform="translate(-41.44 -36.639)" fill="#30610c"/>
      </g>
    </g>
  </g>
</svg>
