<svg xmlns="http://www.w3.org/2000/svg" width="78.9" height="62.053" viewBox="0 0 78.9 62.053">
  <g id="ajustar" transform="translate(0 -16.376)">
    <g id="Grupo_146086" data-name="Grupo 146086" transform="translate(0 16.376)">
      <g id="Grupo_146085" data-name="Grupo 146085">
        <path id="Trazado_216340" data-name="Trazado 216340" d="M14.769,27.37a1.157,1.157,0,0,0,0,2.315h.544a1.157,1.157,0,0,0,0-2.315Z" transform="translate(-6.61 -21.715)" fill="#30610c"/>
        <path id="Trazado_216341" data-name="Trazado 216341" d="M27.465,29.685h.544a1.157,1.157,0,0,0,0-2.315h-.544a1.157,1.157,0,1,0,0,2.315Z" transform="translate(-12.775 -21.715)" fill="#30610c"/>
        <path id="Trazado_216342" data-name="Trazado 216342" d="M40.7,29.685a1.157,1.157,0,1,0,0-2.315h-.544a1.157,1.157,0,0,0,0,2.315Z" transform="translate(-18.941 -21.715)" fill="#30610c"/>
        <path id="Trazado_216343" data-name="Trazado 216343" d="M32.869,86.31a1.362,1.362,0,0,0,1.21-.731L45.763,63.316a1.366,1.366,0,0,0-.727-1.913L33.352,57a1.365,1.365,0,0,0-.965,0L20.7,61.4h0a1.366,1.366,0,0,0-.727,1.913L31.66,85.578a1.361,1.361,0,0,0,1.209.732ZM31.712,80.7,23.329,64.725l8.382,3.161Zm2.315,0V67.886l8.382-3.161ZM32.869,59.289l8.7,3.28-8.7,3.28-8.7-3.28Z" transform="translate(-9.625 -36.059)" fill="#30610c"/>
        <path id="Trazado_216344" data-name="Trazado 216344" d="M78.473,61.538H96.231a4.95,4.95,0,0,0,7.2,0h5.425a1.994,1.994,0,0,0,1.992-1.992V56.712a1.994,1.994,0,0,0-1.992-1.992h-5.425a4.95,4.95,0,0,0-7.2,0H78.473a1.994,1.994,0,0,0-1.992,1.992v2.834A1.994,1.994,0,0,0,78.473,61.538Zm30.061-4.5v2.188H104.67a4.923,4.923,0,0,0,0-2.188Zm-8.7-1.553a2.647,2.647,0,1,1-2.647,2.647A2.65,2.65,0,0,1,99.831,55.482ZM78.8,57.035h16.2a4.923,4.923,0,0,0,0,2.188H78.8Z" transform="translate(-37.141 -34.243)" fill="#30610c"/>
        <path id="Trazado_216345" data-name="Trazado 216345" d="M76.481,83.7a1.994,1.994,0,0,0,1.992,1.992h3.745a4.95,4.95,0,0,0,7.2,0h19.439a1.994,1.994,0,0,0,1.992-1.992V80.863a1.994,1.994,0,0,0-1.992-1.992H89.418a4.95,4.95,0,0,0-7.2,0H78.473a1.994,1.994,0,0,0-1.992,1.992V83.7Zm32.053-2.511v2.188H90.656a4.923,4.923,0,0,0,0-2.188ZM85.818,79.632a2.647,2.647,0,1,1-2.647,2.647A2.65,2.65,0,0,1,85.818,79.632ZM78.8,81.185h2.184a4.922,4.922,0,0,0,0,2.188H78.8Z" transform="translate(-37.141 -45.971)" fill="#30610c"/>
        <path id="Trazado_216346" data-name="Trazado 216346" d="M76.481,107.847a1.994,1.994,0,0,0,1.992,1.992H94.911a4.95,4.95,0,0,0,7.2,0h6.745a1.994,1.994,0,0,0,1.992-1.992v-2.834a1.994,1.994,0,0,0-1.992-1.992h-6.745a4.95,4.95,0,0,0-7.2,0H78.473a1.994,1.994,0,0,0-1.992,1.992Zm32.053-2.511v2.188H103.35a4.924,4.924,0,0,0,0-2.188Zm-10.023-1.553a2.647,2.647,0,1,1-2.647,2.647A2.65,2.65,0,0,1,98.511,103.783ZM78.8,105.336H93.673a4.923,4.923,0,0,0,0,2.188H78.8Z" transform="translate(-37.141 -57.699)" fill="#30610c"/>
        <path id="Trazado_216347" data-name="Trazado 216347" d="M73.52,16.376H16.284a1.157,1.157,0,1,0,0,2.315H73.52a3.069,3.069,0,0,1,3.066,3.066v5.681H2.315V21.756A3.069,3.069,0,0,1,5.38,18.691h5.971a1.157,1.157,0,0,0,0-2.315H5.38A5.386,5.386,0,0,0,0,21.756V73.049a5.386,5.386,0,0,0,5.38,5.38h6.151a1.157,1.157,0,0,0,0-2.315H5.38a3.069,3.069,0,0,1-3.066-3.066v-43.3h74.27v6.68a1.157,1.157,0,0,0,2.315,0V21.756a5.386,5.386,0,0,0-5.38-5.38Z" transform="translate(0 -16.376)" fill="#30610c"/>
        <path id="Trazado_216348" data-name="Trazado 216348" d="M92.193,62.706a1.157,1.157,0,0,0-1.157,1.157V95.547a3.069,3.069,0,0,1-3.066,3.066H30.914a1.157,1.157,0,0,0,0,2.315H87.97a5.386,5.386,0,0,0,5.38-5.38V63.863A1.157,1.157,0,0,0,92.193,62.706Z" transform="translate(-14.45 -38.875)" fill="#30610c"/>
      </g>
    </g>
  </g>
</svg>
