<svg xmlns="http://www.w3.org/2000/svg" width="400" height="236.458" viewBox="0 0 400 236.458">
  <g id="ILUSTRACIONES-03" transform="translate(-4.31 -6.047)">
    <path id="Trazado_211151" data-name="Trazado 211151" d="M54.88,77.977s-3.627,1.572.8,9.236a100.963,100.963,0,0,0,7.4,11.436s.8,1.789-.725,2.152-4.835,0-5.537,1.91.919,3.747,3.868,5.222,9.308,4.835,9.888,5.246,1.16,1.112.145,1.523-8.559,1.6-7.785,5.174,9.671,6.286,10.662,6.624,1.209.7,1.16,1.233-2.635.677-4.835,1.088-4.545,1.306-3.917,3.312,6.02,6.044,18.665,6.649h5.875l2.877-5.222c5.633-11.339,4.835-18.036,3.264-19.559s-3.385.169-4.835,1.837-2.8,3.844-3.288,3.627-.7-.6-.508-1.6,2.128-10.13-.629-12.548-7.447,3.651-8.293,4.328-1.281-.266-1.257-.895,0-7.906.218-11.194-.653-5.488-2.684-5.9-3.167,2.732-4.231,3.8-2.224-.411-2.224-.411a101.686,101.686,0,0,0-6.383-12.089c-4.569-7.422-7.833-4.932-7.833-4.932" transform="translate(69.71 101.475)" fill="#ebebeb"/>
    <path id="Trazado_211152" data-name="Trazado 211152" d="M87.788,135.806c-3.312-5.585-9.066-15.618-14.023-24.177s-9.477-16.344-12.79-21.953l-3.892-6.624-1.064-1.789-.266-.484a.679.679,0,0,1,0-.169.531.531,0,0,1,0,.169l.29.459c.266.411.629,1.015,1.088,1.789L61.1,89.6c3.336,5.585,7.858,13.346,12.814,21.929s10.71,18.616,14,24.177" transform="translate(72.923 105.708)" fill="#e0e0e0"/>
    <path id="Trazado_211153" data-name="Trazado 211153" d="M56.83,88.29h.411l1.112.314c.943.29,2.224.725,3.627,1.233l3.578,1.306,1.088.387.387.145h-.411l-1.112-.338-3.6-1.33-3.6-1.281-1.064-.266Z" transform="translate(74.457 116.596)" fill="#e0e0e0"/>
    <path id="Trazado_211154" data-name="Trazado 211154" d="M61.21,96.545s.725-2.684,1.741-5.972,1.837-5.948,1.886-5.923-.725,2.684-1.717,5.972S61.258,96.569,61.21,96.545Z" transform="translate(80.667 111.435)" fill="#e0e0e0"/>
    <path id="Trazado_211155" data-name="Trazado 211155" d="M64.12,100.691l.218-.363.653-.991,2.079-3.288c.774-1.306,1.426-2.418,1.91-3.385l.556-1.04c.145-.242.218-.387.242-.363a3.313,3.313,0,0,1-.169.387L69.1,92.712c-.459.895-1.112,2.1-1.886,3.409s-1.547,2.418-2.128,3.288l-.677.943a1.716,1.716,0,0,1-.29.339Z" transform="translate(84.792 120.805)" fill="#e0e0e0"/>
    <path id="Trazado_211156" data-name="Trazado 211156" d="M59.91,94.87h1.475l3.578.314,3.578.218h0l-3.578-.218-3.578-.242H60.3A1.5,1.5,0,0,1,59.91,94.87Z" transform="translate(78.824 125.924)" fill="#e0e0e0"/>
    <path id="Trazado_211157" data-name="Trazado 211157" d="M61.85,100.152a1.619,1.619,0,0,1,.508,0h1.4l4.618.169,4.594.242h1.91a1.74,1.74,0,0,1-.508,0h-1.4l-4.618-.169-4.594-.242H61.85Z" transform="translate(81.574 133.384)" fill="#e0e0e0"/>
    <path id="Trazado_211158" data-name="Trazado 211158" d="M67.11,107.485l.266-.484.774-1.281c.653-1.088,1.547-2.587,2.418-4.255s1.765-3.216,2.418-4.352c.29-.532.508-.991.7-1.33l.266-.484a1.126,1.126,0,0,1-.218.532l-.629,1.354a46.936,46.936,0,0,1-2.418,4.376c-1.064,1.692-1.862,3.167-2.418,4.231l-.822,1.257A3.1,3.1,0,0,1,67.11,107.485Z" transform="translate(89.031 126.534)" fill="#e0e0e0"/>
    <path id="Trazado_211159" data-name="Trazado 211159" d="M155.184,27.212a18.182,18.182,0,0,1-.218,4.835l3.578,2.756L155.4,41.549l-4.424-.943a17.867,17.867,0,0,1-3.578,3.288l.58,4.473-7.011,2.563-2.418-3.8a18.085,18.085,0,0,1-4.835-.218l-2.8,3.6-6.77-3.143.943-4.424a17.867,17.867,0,0,1-3.288-3.578l-4.473.58-2.563-7.011,3.8-2.418a18.084,18.084,0,0,1,.218-4.835L115.2,22.933l3.167-6.77,4.4.943a17.867,17.867,0,0,1,3.578-3.288l-.58-4.4L132.772,7l2.418,3.772a18.084,18.084,0,0,1,4.835.218l2.78-3.578,6.745,3.167-.943,4.4a18.543,18.543,0,0,1,3.288,3.578L156.369,18l2.563,7.011-3.8,2.418Zm-10.686-.87a7.978,7.978,0,1,0-.27,6.148,8,8,0,0,0,.27-6.148Z" transform="translate(156.585 1.351)" fill="#e0e0e0" fill-rule="evenodd"/>
    <path id="Trazado_211160" data-name="Trazado 211160" d="M165.91,34.605a14.747,14.747,0,0,1-.169,3.868l2.829,2.176-2.418,5.367-3.506-.749a15.183,15.183,0,0,1-2.829,2.587l.459,3.554-5.561,2.031-1.934-3.022a14.506,14.506,0,0,1-3.844-.145l-2.2,2.8-5.343-2.418.749-3.481a14,14,0,0,1-2.684-3.022l-3.554.459L133.9,39.054l3-1.934a13.66,13.66,0,0,1,.169-3.844L134.239,31.1l2.418-5.367,3.482.749a14.507,14.507,0,0,1,2.853-2.587l-.459-3.554,5.561-2.031,1.934,3a15.667,15.667,0,0,1,3.844.169l2.2-2.829,5.343,2.418-.677,3.747a15.305,15.305,0,0,1,2.611,2.829l3.53-.435,2.031,5.537-3,1.934Zm-8.462-.6a6.334,6.334,0,1,0-3.772,8.123A6.334,6.334,0,0,0,157.448,34Z" transform="translate(183.719 17.385)" fill="#ebebeb" fill-rule="evenodd"/>
    <path id="Trazado_211161" data-name="Trazado 211161" d="M147.269,42.571a12.231,12.231,0,0,1,0,3.264l2.418,1.862-2.128,4.569-2.974-.653a11.629,11.629,0,0,1-2.418,2.224l.387,3-4.835,1.741-1.644-2.563a12.234,12.234,0,0,1-3.264-.145l-1.862,2.418-4.569-2.128.653-2.974a12.474,12.474,0,0,1-2.224-2.418l-3,.387-1.741-4.715,2.563-1.644a12.428,12.428,0,0,1,.145-3.288l-2.418-1.862,2.1-4.545,2.974.653a11.748,11.748,0,0,1,2.418-2.224l-.387-3.022L132.3,28.79l1.644,2.563a12.427,12.427,0,0,1,3.288,0l1.862-2.418,4.545,2.128-.75,3.07a12.209,12.209,0,0,1,2.2,2.418l3.022-.363,1.717,4.835-2.563,1.644Zm-7.253-.532a4.211,4.211,0,1,0,.073,0Z" transform="translate(164.113 32.243)" fill="#f5f5f5" fill-rule="evenodd"/>
    <rect id="Rectángulo_43642" data-name="Rectángulo 43642" width="18.834" height="2.587" transform="translate(132.617 146.619) rotate(180)" fill="#e0e0e0"/>
    <rect id="Rectángulo_43643" data-name="Rectángulo 43643" width="18.834" height="2.587" transform="translate(132.617 142.243) rotate(180)" fill="#e0e0e0"/>
    <rect id="Rectángulo_43644" data-name="Rectángulo 43644" width="8.148" height="2.587" transform="translate(132.593 151.285) rotate(180)" fill="#e0e0e0"/>
    <path id="Trazado_211162" data-name="Trazado 211162" d="M400.063,103.756s-88.584.169-197.864.169-197.888,0-197.888-.169,88.584-.145,197.888-.145S400.063,103.683,400.063,103.756Z" transform="translate(0 138.314)" fill="#263238"/>
    <path id="Trazado_211163" data-name="Trazado 211163" d="M122.856,92.043a5.319,5.319,0,0,0-3.336,2.418,9.163,9.163,0,0,0-1.233,4.062,16.683,16.683,0,0,0,1.862,8.293,11.267,11.267,0,0,0,4.473-6.576c.846-2.732.677-8.2-1.765-8.269" transform="translate(161.568 121.813)" fill="#fccea9"/>
    <path id="Trazado_211164" data-name="Trazado 211164" d="M121.8,103.843a4.5,4.5,0,0,0-.532-4.521A6.117,6.117,0,0,0,117.2,96.9a2.587,2.587,0,0,0-2.1.459,2.031,2.031,0,0,0-.435,1.91,3.892,3.892,0,0,0,1.136,1.717,7.809,7.809,0,0,0,6,2.732" transform="translate(156.34 128.725)" fill="#fccea9"/>
    <path id="Trazado_211165" data-name="Trazado 211165" d="M120.956,110.853a2.949,2.949,0,0,0,0-.58v-1.547a16.2,16.2,0,0,0-.508-5.1,9.864,9.864,0,0,0-2.659-4.352,5.9,5.9,0,0,0-1.257-.919l-.387-.193H116a11.486,11.486,0,0,1,1.692,1.257,10.058,10.058,0,0,1,2.563,4.328,17.5,17.5,0,0,1,.58,5.029v1.547A1.189,1.189,0,0,0,120.956,110.853Z" transform="translate(158.343 130.589)" fill="#263238"/>
    <path id="Trazado_211166" data-name="Trazado 211166" d="M122.866,93.72v.242l-.193.677q-.242.919-.653,2.539c-.508,2.128-1.209,5.1-1.886,8.389s-1.233,6.286-1.6,8.462c-.193,1.088-.339,1.958-.435,2.587v.7a1.623,1.623,0,0,0,0,.242v-.242l.145-.7a19.558,19.558,0,0,1,.459-2.563c.411-2.152.991-5.15,1.668-8.438s1.354-6.262,1.837-8.414l.58-2.418.145-.7a.847.847,0,0,0-.073-.363Z" transform="translate(161.317 124.294)" fill="#263238"/>
    <path id="Trazado_211167" data-name="Trazado 211167" d="M119.05,104.6a10.662,10.662,0,0,1,7.253-6.407,2.418,2.418,0,0,1,2.418.459,2.2,2.2,0,0,1-.314,2.418,9.09,9.09,0,0,1-9.356,3.8" transform="translate(162.666 130.433)" fill="#fccea9"/>
    <path id="Trazado_211168" data-name="Trazado 211168" d="M126.685,99.13l-.508.121a2.418,2.418,0,0,0-.6.169,4.644,4.644,0,0,0-.8.29,9.834,9.834,0,0,0-.919.411l-.991.6a10.952,10.952,0,0,0-2.031,1.717,11.312,11.312,0,0,0-1.572,2.152c-.193.363-.363.7-.508,1.04s-.242.677-.338.967-.145.556-.218.8a1.816,1.816,0,0,0,0,.629,1.765,1.765,0,0,0,0,.532,19.609,19.609,0,0,1,.508-1.91,5.782,5.782,0,0,1,.363-.943,6.624,6.624,0,0,1,.508-1.015,11.82,11.82,0,0,1,1.547-2.128,12.524,12.524,0,0,1,1.983-1.692,7.031,7.031,0,0,1,.991-.58,7.829,7.829,0,0,1,.895-.459C125.96,99.348,126.709,99.178,126.685,99.13Z" transform="translate(161.414 131.964)" fill="#263238"/>
    <path id="Trazado_211169" data-name="Trazado 211169" d="M68.735,49.421A9.889,9.889,0,0,1,70.355,47l-.919-2.418,3.651-2.418,1.886,1.837a10.856,10.856,0,0,1,2.78-.508l1.112-2.418L83.12,42v2.756a11.364,11.364,0,0,1,2.418,1.62l2.418-.895,2.418,3.651-1.862,1.886a9.672,9.672,0,0,1,.508,2.78l2.418,1.112-.919,4.255H87.786a10.252,10.252,0,0,1-1.62,2.418L87.085,64,83.41,66.417,81.549,64.58a10.855,10.855,0,0,1-2.78.508l-1.112,2.418L73.4,66.563V63.831a10.493,10.493,0,0,1-2.418-1.62l-2.418.895-2.418-3.651,1.837-1.862a10.832,10.832,0,0,1-.508-2.8L65.06,53.676l.919-4.231Zm5,3.7a4.666,4.666,0,1,0,2.081-3,4.666,4.666,0,0,0-2.081,3Z" transform="translate(86.125 49.666)" fill="#fccea9" fill-rule="evenodd"/>
    <path id="Trazado_211170" data-name="Trazado 211170" d="M64.765,38.845a5.2,5.2,0,0,1,.8-1.112l-.435-1.209,1.765-1.136.919.895a4.956,4.956,0,0,1,1.354-.242l.532-1.16,2.055.435V36.6a5.2,5.2,0,0,1,1.112.8l1.209-.435,1.136,1.765-.895.919a4.062,4.062,0,0,1,.242,1.33l1.161.556-.435,2.055H74a6.068,6.068,0,0,1-.774,1.112l.435,1.209-1.789,1.136-.895-.895a5.15,5.15,0,0,1-1.354.242l-.556,1.16-2.031-.29V45.977a4.835,4.835,0,0,1-1.136-.8l-1.209.435L63.556,43.85l.895-.919a4.836,4.836,0,0,1-.242-1.33L63,40.924l.459-2.055Zm2.418,1.813a2.273,2.273,0,1,0,2.684-1.741,2.248,2.248,0,0,0-2.659,1.741Z" transform="translate(83.205 40.877)" fill="#fccea9" fill-rule="evenodd"/>
    <path id="Trazado_211171" data-name="Trazado 211171" d="M58.667,45.318a6.02,6.02,0,0,1,1.015-1.451l-.556-1.62L61.4,40.773l1.161,1.136a8.268,8.268,0,0,1,1.717-.314l.7-1.475,2.587.677v1.62a7.785,7.785,0,0,1,1.451,1.015l1.523-.556,1.475,2.273-1.161,1.16a6,6,0,0,1,.314,1.741l1.5.677-.58,2.635H70.441a6.7,6.7,0,0,1-.991,1.451l.532,1.523-2.273,1.475-1.161-1.136a8.2,8.2,0,0,1-1.741.314l-.677,1.475-2.659-.58V54.336a7.785,7.785,0,0,1-1.451-1.015l-1.547.556L57.023,51.6l1.136-1.16a6.915,6.915,0,0,1-.314-1.741l-1.475-.677.58-2.635Zm3.119,2.3a2.9,2.9,0,1,0,3.361-2.224,2.9,2.9,0,0,0-3.361,2.224Z" transform="translate(73.805 48.305)" fill="none"/>
    <path id="Trazado_211172" data-name="Trazado 211172" d="M58.71,44.63a1.089,1.089,0,0,1,0-.193,2.418,2.418,0,0,1,.169-.508,2.974,2.974,0,0,1,4.255-1.257,3.024,3.024,0,1,1-3.893,4.521,2.853,2.853,0,0,1-.677-1.837,1.378,1.378,0,0,1,0-.532v.532a2.849,2.849,0,1,0,1.717-2.635A2.95,2.95,0,0,0,58.9,43.977a5.847,5.847,0,0,1-.193.653Z" transform="translate(76.881 51.29)" fill="#263238"/>
    <path id="Trazado_211173" data-name="Trazado 211173" d="M58.6,45.233h-1.62l-.556,2.659h0l1.5.677h0a6.286,6.286,0,0,0,.314,1.717h0L57.1,51.446v-.121L58.572,53.6h-.145l1.523-.58h0a7.832,7.832,0,0,0,1.426.991h0v1.717h0l2.635.556h-.169l.7-1.475h0a7.4,7.4,0,0,0,1.692-.314h0l1.16,1.136h-.169l2.684-1.378h0L69.355,52.7h0a6.793,6.793,0,0,0,.991-1.426h1.5l.556-2.635v.169l-1.475-.7h0a6.529,6.529,0,0,0-.29-1.692h0l1.136-1.16v.169L70.3,43.154h.169l-1.523.556h0a7.253,7.253,0,0,0-1.426-.991h0V40.833l-2.635-.58h0L64.2,41.727h0a7.5,7.5,0,0,0-1.717.29h0l-1.16-1.136h0l-2.3,1.451h0l.556,1.523h0a8.535,8.535,0,0,0-1.04,1.4h0a1.6,1.6,0,0,1,.145-.29,5.876,5.876,0,0,1,.774-1.088h0l-.58-1.523h0l2.273-1.475h0l1.185,1.136h0a5.706,5.706,0,0,1,1.741-.338h0l.7-1.5h0l2.635.556h0v1.717h0a6.818,6.818,0,0,1,1.5,1.015h-.145l1.523-.58h0l1.475,2.273h0l-1.136,1.16v-.145a7.252,7.252,0,0,1,.338,1.765h0l1.475.7h.121v.121l-.242,2.563v.121h-1.62a6.624,6.624,0,0,1-1.015,1.475v-.145l.556,1.523h0L67.977,55.75h0l-1.161-1.136h.145a6.866,6.866,0,0,1-1.789.338h.145l-.7,1.475v.121h0l-2.635-.58h0V54.251h0a5.9,5.9,0,0,1-1.475-1.015h.145l-1.547.556h0l-1.451-2.273h0l1.136-1.16h0a5.706,5.706,0,0,1-.29-1.741h0l-1.475-.7h0l.6-2.635H59.3Z" transform="translate(73.876 48.39)" fill="#263238"/>
    <path id="Trazado_211175" data-name="Trazado 211175" d="M176.475,69.048a54.978,54.978,0,0,0-13.2-32.445c-8.027-8.752-20.284-14.023-32.01-12.088s-22.1,12.088-22.871,23.838c-.435,6.31,1.668,12.548,1.33,18.858-.6,10.88-8.414,20.091-17.141,26.595-7.543,5.609-15.643,7.616-21.058,15.3a36.507,36.507,0,0,0-2.418,39.143,30.487,30.487,0,0,0,9.066,8.945,46.807,46.807,0,0,0,37.958,6.165,82.854,82.854,0,0,0,48.837-34.355C177.225,109.907,178.216,88.486,176.475,69.048Z" transform="translate(85.392 25.615)" fill="#e8505b"/>
    <g id="Grupo_145829" data-name="Grupo 145829" transform="translate(149.934 49.73)" opacity="0.8">
      <path id="Trazado_211176" data-name="Trazado 211176" d="M176.475,69.048a54.978,54.978,0,0,0-13.2-32.445c-8.027-8.752-20.284-14.023-32.01-12.088s-22.1,12.088-22.871,23.838c-.435,6.31,1.668,12.548,1.33,18.858-.6,10.88-8.414,20.091-17.141,26.595-7.543,5.609-15.643,7.616-21.058,15.3a36.507,36.507,0,0,0-2.418,39.143,30.487,30.487,0,0,0,9.066,8.945,46.807,46.807,0,0,0,37.958,6.165,82.854,82.854,0,0,0,48.837-34.355C177.225,109.907,178.216,88.486,176.475,69.048Z" transform="translate(-64.543 -24.115)" fill="#fccea9"/>
    </g>
    <circle id="Elipse_6935" data-name="Elipse 6935" cx="0.846" cy="0.846" r="0.846" transform="translate(176.208 177.372)" fill="#e8505b"/>
    <circle id="Elipse_6936" data-name="Elipse 6936" cx="0.435" cy="0.435" r="0.435" transform="translate(189.892 192.145)" fill="#e8505b"/>
    <path id="Trazado_211177" data-name="Trazado 211177" d="M97.212,85a12.451,12.451,0,0,0-6.7,9.042,10.324,10.324,0,0,0,4.279,8.776,13.805,13.805,0,0,0,9.671,2.418,10.13,10.13,0,0,0,6.576-3.046,9.671,9.671,0,0,0,2.128-7.519,12.6,12.6,0,0,0-5.391-9.26A10.13,10.13,0,0,0,97.284,85" transform="translate(122.201 110.139)" fill="#fccea9"/>
    <path id="Trazado_211179" data-name="Trazado 211179" d="M104.786,58.2a1.523,1.523,0,1,1-1.5-1.5A1.5,1.5,0,0,1,104.786,58.2Z" transform="translate(138.126 71.811)" fill="#e8505b" fill-rule="evenodd"/>
    <circle id="Elipse_6937" data-name="Elipse 6937" cx="0.846" cy="0.846" r="0.846" transform="translate(217.793 72.614)" fill="#e8505b"/>
    <path id="Trazado_211180" data-name="Trazado 211180" d="M139.424,98.315c0,.991-14.506,1.789-32.47,1.789s-32.494-.8-32.494-1.789,14.506-1.765,32.494-1.765S139.424,97.348,139.424,98.315Z" transform="translate(99.451 128.306)" fill="#fafafa"/>
    <path id="Trazado_211181" data-name="Trazado 211181" d="M67.573,112.644l7.422-15.3h81.839l9.671,15.28s-99,1.015-99,0" transform="translate(89.584 129.426)" fill="#263238"/>
    <path id="Trazado_211182" data-name="Trazado 211182" d="M88.55,111.563v-6.649C88.55,108.565,88.623,111.563,88.55,111.563Z" transform="translate(119.427 130.773)" fill="#455a64"/>
    <path id="Trazado_211183" data-name="Trazado 211183" d="M130.063,99.83h-.314l-.895.121-3.385.338-11.726,1.16h0l-2.418,3.917h-1.015l-15.5.266h-4.5l4.715-.145,15.5-.363h.8l2.418-3.941h0l11.653-1.015,3.409-.29h.895Z" transform="translate(119.498 132.956)" fill="#455a64"/>
    <path id="Trazado_211184" data-name="Trazado 211184" d="M103.2,103.4a18.688,18.688,0,0,1-.556-2.78,15.835,15.835,0,0,1-.314-2.829,15.619,15.619,0,0,1,.556,2.78,16.052,16.052,0,0,1,.314,2.829Z" transform="translate(138.963 130.064)" fill="#455a64"/>
    <path id="Trazado_211185" data-name="Trazado 211185" d="M85.668,106.629v-.242l-.314-.7-1.04-2.563h0l-5.609-.435-7.253-.58-2.2-.218a4.616,4.616,0,0,1-.822,0h.822l2.224.145c1.862,0,4.449.314,7.253.556l5.609.435h0l.967,2.563.242.7Z" transform="translate(90.903 135.877)" fill="#455a64"/>
    <path id="Trazado_211186" data-name="Trazado 211186" d="M115.515,100.028H96.221l-3.747,1.4-2.031.774h0L75.5,100.439l-4.473-.58-1.185-.169h1.209l4.449.749L90.467,102.2h0l2.031-.749,3.747-1.4h19.342Z" transform="translate(92.462 132.758)" fill="#455a64"/>
    <rect id="Rectángulo_43645" data-name="Rectángulo 43645" width="18.834" height="2.587" transform="translate(250.117 109.073)" fill="#e8505b"/>
    <rect id="Rectángulo_43646" data-name="Rectángulo 43646" width="8.148" height="2.587" transform="translate(250.117 113.739)" fill="#e8505b"/>
    <path id="Trazado_211187" data-name="Trazado 211187" d="M157.923,52.255l.121-.121.363-.29.266-.218.387-.242.411-.242L160,50.9a9.5,9.5,0,0,1,6.7,0,11.049,11.049,0,0,1,4.062,2.418,11.363,11.363,0,0,1,2.829,4.594A17.19,17.19,0,0,1,172.744,70a33.849,33.849,0,0,1-7.253,9.913c-2.708,2.684-5.295,4.835-7.253,6.89A53.817,53.817,0,0,0,153.6,91.64c-.508.629-.895,1.112-1.136,1.451l-.459.266h0v-.145l.266-.387a14.218,14.218,0,0,1,1.088-1.5,43.757,43.757,0,0,1,4.594-5c2.031-2.007,4.618-4.255,7.253-6.939a34.33,34.33,0,0,0,7.253-9.84,16.924,16.924,0,0,0,.87-11.919,10.879,10.879,0,0,0-2.756-4.5,10.541,10.541,0,0,0-3.941-2.418,9.4,9.4,0,0,0-6.576,0,9.669,9.669,0,0,0-2.128,1.547Z" transform="translate(209.38 62.475)" fill="#263238"/>
    <path id="Trazado_211188" data-name="Trazado 211188" d="M134.33,108.888V90.175c0-6.624,4.449-11.121,9.961-11.194l57.082-.7a6.842,6.842,0,0,1,6.939,6.842V108.55Z" transform="translate(184.329 102.404)" fill="#f67409"/>
    <rect id="Rectángulo_43647" data-name="Rectángulo 43647" width="23.113" height="10.807" transform="translate(362.54 186.487)" fill="#fafafa"/>
    <path id="Trazado_211189" data-name="Trazado 211189" d="M149.565,108.088s-.145-6.6-.145-14.772,0-14.8.145-14.8.145,6.624.145,14.8S149.638,108.088,149.565,108.088Z" transform="translate(205.722 102.745)" fill="#263238"/>
    <path id="Trazado_211190" data-name="Trazado 211190" d="M149.58,75.2a1.982,1.982,0,0,1,.556-.266,6.456,6.456,0,0,1,1.668-.363,6.915,6.915,0,0,1,7.64,6.673,6.333,6.333,0,0,1-.145,1.692,2.175,2.175,0,0,1-.193.6,11.49,11.49,0,0,0,0-2.418,6.963,6.963,0,0,0-7.422-6.455,11.946,11.946,0,0,0-2.1.532Z" transform="translate(205.949 97.094)" fill="#263238"/>
    <path id="Trazado_211191" data-name="Trazado 211191" d="M137.86,122.937,165.954,47.36l20.309,9.647-23.839,70.911Z" transform="translate(189.333 58.57)" fill="#f67409"/>
    <circle id="Elipse_6938" data-name="Elipse 6938" cx="11.266" cy="11.266" r="11.266" transform="translate(322.285 186.777)" opacity="0.4"/>
    <circle id="Elipse_6939" data-name="Elipse 6939" cx="11.605" cy="11.605" r="11.605" transform="translate(323.325 182.039)" fill="#263238"/>
    <circle id="Elipse_6940" data-name="Elipse 6940" cx="4.4" cy="4.4" r="4.4" transform="translate(329.398 196.496) rotate(-72.58)" fill="#455a64"/>
    <path id="Trazado_211192" data-name="Trazado 211192" d="M142.83,101.689l.145-.459.459-1.33c.411-1.185,1.015-2.829,1.741-4.835l5.9-15.957c1.523-4.11,2.974-7.954,4.183-11.218v.169l-8.269-2.925-2.418-.822-.6-.242h.024l.6.193,2.418.774,8.317,2.756h.121v.121l-4.134,11.218c-2.418,6.213-4.449,11.823-5.972,15.933-.774,2.031-1.4,3.651-1.837,4.835l-.532,1.306Z" transform="translate(196.379 82.259)" fill="#263238"/>
    <path id="Trazado_211193" data-name="Trazado 211193" d="M166.564,69.544s-5-1.813-11.1-4.231-11.025-4.424-10.976-4.521,5,1.813,11.1,4.231S166.612,69.472,166.564,69.544Z" transform="translate(198.732 77.607)" fill="#263238"/>
    <path id="Trazado_211194" data-name="Trazado 211194" d="M143.46,102.3l.8-.725a23.668,23.668,0,0,0,2.079-2.079,32.52,32.52,0,0,0,5.246-8.148,73.531,73.531,0,0,0,3.361-9.163l.846-2.829.242-.749c0-.193,0-.266.121-.266a1.088,1.088,0,0,1,0,.266l-.193.8c-.169.677-.435,1.644-.774,2.853a63.276,63.276,0,0,1-3.288,9.211,30.609,30.609,0,0,1-5.343,8.172,20.839,20.839,0,0,1-2.176,2.031l-.629.484Q143.46,102.336,143.46,102.3Z" transform="translate(197.272 102.49)" fill="#263238"/>
    <path id="Trazado_211195" data-name="Trazado 211195" d="M138.787,96.471h-.193a2.658,2.658,0,0,1-.532-.266,3.65,3.65,0,0,1-1.354-1.668,6.48,6.48,0,0,1-.29-3.191,35.54,35.54,0,0,1,.653-3.844,44.828,44.828,0,0,1,2.1-6.77c.338-.822.653-1.5.87-1.958a3.967,3.967,0,0,1,.314-.774,3.288,3.288,0,0,1-.266.725c-.193.484-.483,1.161-.8,2.007a51.792,51.792,0,0,0-2.007,6.721,13.926,13.926,0,0,0-.435,6.89,3.361,3.361,0,0,0,1.209,1.668A6.64,6.64,0,0,0,138.787,96.471Z" transform="translate(187.173 102.008)" fill="#263238"/>
    <circle id="Elipse_6941" data-name="Elipse 6941" cx="10.227" cy="10.227" r="10.227" transform="translate(311.382 216.225)" fill="#455a64"/>
    <circle id="Elipse_6942" data-name="Elipse 6942" cx="3.506" cy="3.506" r="3.506" transform="translate(318.103 222.946)" fill="#263238"/>
    <circle id="Elipse_6943" data-name="Elipse 6943" cx="10.227" cy="10.227" r="10.227" transform="translate(344.963 216.515)" fill="#455a64"/>
    <circle id="Elipse_6944" data-name="Elipse 6944" cx="3.506" cy="3.506" r="3.506" transform="translate(351.685 223.236)" fill="#263238"/>
    <circle id="Elipse_6945" data-name="Elipse 6945" cx="10.227" cy="10.227" r="10.227" transform="translate(378.787 216.515)" fill="#455a64"/>
    <circle id="Elipse_6946" data-name="Elipse 6946" cx="3.506" cy="3.506" r="3.506" transform="translate(385.508 223.236)" fill="#263238"/>
    <path id="Trazado_211196" data-name="Trazado 211196" d="M212.93,121.826h-68.01a15.522,15.522,0,1,1,0-31.019h68.01a15.522,15.522,0,0,1,0,31.019Zm-68.01-25.942a10.444,10.444,0,0,0,0,20.865h68.01a10.444,10.444,0,0,0,0-20.865Z" transform="translate(176.47 120.147)" fill="#263238"/>
    <path id="Trazado_211197" data-name="Trazado 211197" d="M149.5,95.82a32.1,32.1,0,0,1,0-4.98,32.1,32.1,0,0,1,0,4.98Z" transform="translate(205.694 120.211)" fill="#455a64"/>
    <path id="Trazado_211198" data-name="Trazado 211198" d="M154.767,95.82a32.1,32.1,0,0,1,0-4.98,32.1,32.1,0,0,1,0,4.98Z" transform="translate(213.165 120.211)" fill="#455a64"/>
    <path id="Trazado_211199" data-name="Trazado 211199" d="M160.043,95.82a42.8,42.8,0,0,1,0-4.98,32.1,32.1,0,0,1,0,4.98Z" transform="translate(220.679 120.211)" fill="#455a64"/>
    <path id="Trazado_211200" data-name="Trazado 211200" d="M164.88,95.935a18.661,18.661,0,0,1,.629-2.418,17.476,17.476,0,0,1,.822-2.418,18.672,18.672,0,0,1-.629,2.418,17.475,17.475,0,0,1-.822,2.418Z" transform="translate(227.64 120.58)" fill="#455a64"/>
    <path id="Trazado_211201" data-name="Trazado 211201" d="M167.66,97.073a16.566,16.566,0,0,1,2.176-1.209,20.649,20.649,0,0,1,2.248-1.064,15.061,15.061,0,0,1-2.176,1.233,17.891,17.891,0,0,1-2.248,1.04Z" transform="translate(231.581 125.825)" fill="#455a64"/>
    <path id="Trazado_211202" data-name="Trazado 211202" d="M149.206,101.62a16.921,16.921,0,0,1,0,2.418,16.682,16.682,0,0,1,0,2.418,16.683,16.683,0,0,1,0-2.418,16.925,16.925,0,0,1,0-2.418Z" transform="translate(205.356 135.494)" fill="#455a64"/>
    <path id="Trazado_211203" data-name="Trazado 211203" d="M154.507,101.55a32.1,32.1,0,0,1,0,4.98,32.1,32.1,0,0,1,0-4.98Z" transform="translate(212.796 135.394)" fill="#455a64"/>
    <path id="Trazado_211204" data-name="Trazado 211204" d="M159.763,101.55a32.1,32.1,0,0,1,0,4.98A42.784,42.784,0,0,1,159.763,101.55Z" transform="translate(220.282 135.395)" fill="#455a64"/>
    <path id="Trazado_211205" data-name="Trazado 211205" d="M164.62,101.42a17.477,17.477,0,0,1,.822,2.418,18.937,18.937,0,0,1,.629,2.418,16.047,16.047,0,0,1-.822-2.418A18.933,18.933,0,0,1,164.62,101.42Z" transform="translate(227.271 135.21)" fill="#455a64"/>
    <path id="Trazado_211206" data-name="Trazado 211206" d="M167.54,99a19.077,19.077,0,0,1,2.273,1.04,16.924,16.924,0,0,1,2.176,1.233,17.332,17.332,0,0,1-2.273-1.064A21.758,21.758,0,0,1,167.54,99Z" transform="translate(231.411 131.779)" fill="#455a64"/>
    <path id="Trazado_211207" data-name="Trazado 211207" d="M144.442,101.62a19.343,19.343,0,0,1,0,2.418,19.157,19.157,0,0,1,0,2.418,13.49,13.49,0,0,1,0-2.418,13.655,13.655,0,0,1,0-2.418Z" transform="translate(198.587 135.494)" fill="#455a64"/>
    <path id="Trazado_211208" data-name="Trazado 211208" d="M139.152,101.62a16.912,16.912,0,0,1,0,2.418,16.682,16.682,0,0,1,0,2.418,19.152,19.152,0,0,1,0-2.418A19.348,19.348,0,0,1,139.152,101.62Z" transform="translate(191.111 135.494)" fill="#455a64"/>
    <path id="Trazado_211209" data-name="Trazado 211209" d="M135.091,101.42a16.923,16.923,0,0,1-.653,2.418,14.508,14.508,0,0,1-.8,2.418,18.927,18.927,0,0,1,.629-2.418,17.48,17.48,0,0,1,.822-2.418Z" transform="translate(183.351 135.21)" fill="#455a64"/>
    <path id="Trazado_211210" data-name="Trazado 211210" d="M134.054,98.77A16.92,16.92,0,0,1,131.878,100a17.311,17.311,0,0,1-2.248,1.04,17.192,17.192,0,0,1,2.152-1.209,22.188,22.188,0,0,1,2.273-1.064Z" transform="translate(177.666 131.453)" fill="#455a64"/>
    <path id="Trazado_211211" data-name="Trazado 211211" d="M144.7,95.835a13.66,13.66,0,0,1,0-2.418,13.855,13.855,0,0,1,0-2.418,19.7,19.7,0,0,1,0,2.418,19.348,19.348,0,0,1,0,2.418Z" transform="translate(198.956 120.438)" fill="#455a64"/>
    <path id="Trazado_211212" data-name="Trazado 211212" d="M139.415,95.835a16.912,16.912,0,0,1,0-2.418,17.156,17.156,0,0,1,0-2.418,17.156,17.156,0,0,1,0,2.418,16.921,16.921,0,0,1,0,2.418Z" transform="translate(191.477 120.438)" fill="#455a64"/>
    <path id="Trazado_211213" data-name="Trazado 211213" d="M135.326,95.935a15.737,15.737,0,0,1-.8-2.418A14.894,14.894,0,0,1,133.9,91.1a15.739,15.739,0,0,1,.8,2.418,12.379,12.379,0,0,1,.629,2.418Z" transform="translate(183.719 120.58)" fill="#455a64"/>
    <path id="Trazado_211214" data-name="Trazado 211214" d="M134.164,96.838a14.507,14.507,0,0,1-2.248-1.04,16.565,16.565,0,0,1-2.176-1.209,14.506,14.506,0,0,1,2.248,1.04A20.715,20.715,0,0,1,134.164,96.838Z" transform="translate(177.822 125.527)" fill="#455a64"/>
    <path id="Trazado_211215" data-name="Trazado 211215" d="M123.56,69.542,161.711,54.19l2.176,8.2-36.435,15.86Z" transform="translate(169.06 68.252)" fill="#e0e0e0"/>
    <path id="Trazado_211216" data-name="Trazado 211216" d="M171.385,66.459,144.5,77.121l-6.31-16.876L168.653,47.48Z" transform="translate(189.801 58.74)" fill="#f67409"/>
    <path id="Trazado_211217" data-name="Trazado 211217" d="M157.233,58.44l16.8-6.987-2.78-6.963-16.3,6.6Z" transform="translate(213.576 54.501)" fill="#e0e0e0"/>
    <circle id="Elipse_6947" data-name="Elipse 6947" cx="10.59" cy="10.59" r="10.59" transform="translate(351.83 109.145)" opacity="0.4"/>
    <path id="Trazado_211218" data-name="Trazado 211218" d="M166.837,49.7a10.9,10.9,0,1,1-15.4-.6A10.9,10.9,0,0,1,166.837,49.7Z" transform="translate(203.609 56.929)" fill="#263238"/>
    <path id="Trazado_211219" data-name="Trazado 211219" d="M157.9,50.335A4.134,4.134,0,1,1,155.025,49a4.134,4.134,0,0,1,2.875,1.335Z" transform="translate(207.565 60.889)" fill="#455a64"/>
    <path id="Trazado_211220" data-name="Trazado 211220" d="M139.572,51.82l.435.435,1.185,1.209,4.062,4.3h-.169l3.7-1.475,8.051-3.119,2.418-.919a4.256,4.256,0,0,1,.919-.29l-.87.411-2.418.991c-2.031.846-4.835,1.983-8,3.216l-3.723,1.475h0l-3.965-4.376L140.079,52.4C139.692,52.013,139.547,51.844,139.572,51.82Z" transform="translate(191.756 64.892)" fill="#263238"/>
    <path id="Trazado_211221" data-name="Trazado 211221" d="M111.96,70.172,138.869,58.76l7.688,15.884L118.633,86.66Z" transform="translate(152.615 74.731)" fill="#f67409"/>
    <circle id="Elipse_6948" data-name="Elipse 6948" cx="8.704" cy="8.704" r="8.704" transform="translate(260.405 158.659) rotate(-76.52)" opacity="0.4"/>
    <circle id="Elipse_6949" data-name="Elipse 6949" cx="9.308" cy="9.308" r="9.308" transform="translate(255.781 159.594) rotate(-72.32)" fill="#263238"/>
    <path id="Trazado_211222" data-name="Trazado 211222" d="M113.857,65.873a3.53,3.53,0,1,1-1.886,4.618,3.53,3.53,0,0,1,1.886-4.618Z" transform="translate(152.241 84.422)" fill="#455a64"/>
    <path id="Trazado_211223" data-name="Trazado 211223" d="M119.808,77.187a2.418,2.418,0,0,1-.145-.653l-.29-1.886-.943-6.431h0l3.312-1.33c3.24-1.33,6.165-2.418,8.317-3.336l2.418-.967a6.551,6.551,0,0,1,.943-.314,4.522,4.522,0,0,1-.895.411l-2.418,1.064c-2.1.895-5.029,2.1-8.269,3.409l-3.312,1.354v-.169l.822,6.455.218,1.886A2.855,2.855,0,0,1,119.808,77.187Z" transform="translate(161.788 79.707)" fill="#263238"/>
    <rect id="Rectángulo_43648" data-name="Rectángulo 43648" width="1.112" height="6.745" transform="matrix(0.169, 0.986, -0.986, 0.169, 250.219, 158.023)" fill="#263238"/>
    <path id="Trazado_211224" data-name="Trazado 211224" d="M116.005,67.33l-3.917.677L111.75,66l-1.523.266.459,2.611-2.756.484.218,1.281.895,5.15,2.732-.459.435,2.466,1.33-.218-.266-1.6,4.086-.7Z" transform="translate(146.902 84.995)" fill="#263238"/>
    <rect id="Rectángulo_43649" data-name="Rectángulo 43649" width="6.334" height="4.183" transform="matrix(0.986, -0.169, 0.169, 0.986, 248.807, 156.721)" fill="#455a64"/>
    <path id="Trazado_211225" data-name="Trazado 211225" d="M104.76,52.216s-27.03-.87-27.03,13.491c0,16.3,5.488,46.855,27.03,46.444s25.652-43.059,25.894-44.969C130.653,67.182,131.79,53.449,104.76,52.216Z" transform="translate(104.087 65.439)" fill="#f67409"/>
    <path id="Trazado_211226" data-name="Trazado 211226" d="M129.391,57.692h0l-.363.242c-.29.193-.749.484-1.354.822a31.428,31.428,0,0,1-5.319,2.418,44.921,44.921,0,0,1-8.438,1.958,76.857,76.857,0,0,1-10.589.58,96.707,96.707,0,0,1-10.59-.532,28.264,28.264,0,0,1-8.365-2.2,18.5,18.5,0,0,1-4.835-3.143,11.756,11.756,0,0,1-1.112-1.112l-.266-.314V56.29h0l.266.29,1.161,1.088a19.342,19.342,0,0,0,4.835,3.022,28.8,28.8,0,0,0,8.317,2.1,95.671,95.671,0,0,0,10.541.508,72.7,72.7,0,0,0,10.493-.459,42.746,42.746,0,0,0,8.414-1.886,34.088,34.088,0,0,0,5.343-2.273l1.378-.749.363-.218Z" transform="translate(104.697 71.23)" fill="#263238"/>
    <path id="Trazado_211227" data-name="Trazado 211227" d="M103.932,59.11v1.572a18.255,18.255,0,0,1-.459,4.231,14.748,14.748,0,0,1-.919,2.829,11.678,11.678,0,0,1-1.765,2.877,10.179,10.179,0,0,1-4.835,3.216,8.122,8.122,0,0,1-2.031.338,7.64,7.64,0,0,1-3.747-.822A9.84,9.84,0,0,1,87.3,70.933a12.645,12.645,0,0,1-2.418-5.8,18.93,18.93,0,0,1-.266-4.255q0-.762,0-1.16v1.16A24.181,24.181,0,0,0,85,65.106a12.572,12.572,0,0,0,2.418,5.657,9.865,9.865,0,0,0,2.8,2.418,7.374,7.374,0,0,0,3.772.895,7.714,7.714,0,0,0,1.958-.314,9.527,9.527,0,0,0,1.765-.774,10.686,10.686,0,0,0,2.829-2.418,11.437,11.437,0,0,0,1.958-2.95,15.522,15.522,0,0,0,.943-2.756,21.956,21.956,0,0,0,.532-4.183v-1.16A2.568,2.568,0,0,1,103.932,59.11Z" transform="translate(113.813 75.227)" fill="#263238"/>
    <path id="Trazado_211228" data-name="Trazado 211228" d="M114.326,79.735s-.193-.58-.653-1.6a17.916,17.916,0,0,0-2.418-3.917,17.359,17.359,0,0,0-5.367-4.279,16.924,16.924,0,0,0-16.2.6,17.625,17.625,0,0,0-5.15,4.715,18.447,18.447,0,0,0-2.2,4.11c-.363,1.04-.508,1.644-.532,1.644a1.934,1.934,0,0,1,0-.459,5.592,5.592,0,0,1,.363-1.209A16.224,16.224,0,0,1,84.3,75.142a17.383,17.383,0,0,1,5.246-4.714,17.069,17.069,0,0,1,8.148-2.418,16.658,16.658,0,0,1,8.317,1.813,16.924,16.924,0,0,1,7.712,8.269,8.586,8.586,0,0,1,.435,1.209C114.3,79.566,114.35,79.735,114.326,79.735Z" transform="translate(109.849 87.821)" fill="#263238"/>
    <path id="Trazado_211229" data-name="Trazado 211229" d="M93.52,70.2l1.16-5.585h10.928c-.387,1.668-.943,3.6-1.547,5.657Z" transform="translate(126.473 83.039)" fill="#fafafa"/>
    <path id="Trazado_211230" data-name="Trazado 211230" d="M90.541,70.2,89.308,64.62H78.38c.387,1.668.7,3.6,1.33,5.657Z" transform="translate(105.009 83.039)" fill="#fafafa"/>
    <path id="Trazado_211231" data-name="Trazado 211231" d="M128.416,62.1c-2.611-4.255-9.526-9.211-24.467-9.888,0,0-16.706-.556-23.863,6.213A15.476,15.476,0,0,0,78.273,60.7c-.435.8,5.585,8.027,24.9,7.4C123.194,67.472,128.416,62.1,128.416,62.1Z" transform="translate(104.826 65.439)" opacity="0.4"/>
    <path id="Trazado_211232" data-name="Trazado 211232" d="M78.16,52.371a10.082,10.082,0,0,1-.774-6.866,6.044,6.044,0,0,1,4.835-4.424" transform="translate(103.198 49.666)" fill="#263238"/>
    <path id="Trazado_211233" data-name="Trazado 211233" d="M81.465,41.14s-.387.363-.967.991a11.074,11.074,0,0,0-1.813,2.756,29.016,29.016,0,0,0-1.136,3.167,11.54,11.54,0,0,1-.387,1.33,4.471,4.471,0,0,1,.169-1.378,21.421,21.421,0,0,1,1.064-3.216,10.25,10.25,0,0,1,1.958-2.756A3.53,3.53,0,0,1,81.465,41.14Z" transform="translate(103.278 49.751)" fill="#e8505b"/>
    <path id="Trazado_211234" data-name="Trazado 211234" d="M102.272,52.371a10.082,10.082,0,0,0,.774-6.866A6.044,6.044,0,0,0,98.21,41.08" transform="translate(133.122 49.666)" fill="#263238"/>
    <path id="Trazado_211235" data-name="Trazado 211235" d="M98.491,41.14a3.53,3.53,0,0,1,1.112.846,9.671,9.671,0,0,1,1.958,2.756,18.954,18.954,0,0,1,1.064,3.312,5.174,5.174,0,0,1,.193,1.378,8.875,8.875,0,0,1-.411-1.33,21.275,21.275,0,0,0-1.136-3.119,11.074,11.074,0,0,0-1.813-2.756C98.9,41.5,98.466,41.164,98.491,41.14Z" transform="translate(133.518 49.751)" fill="#e8505b"/>
    <path id="Trazado_211236" data-name="Trazado 211236" d="M80.327,68.919a11.315,11.315,0,0,1-3-10.227c1.547-7.882,7.253-22.074,28.335-21.759,22.122.314,26.256,15.594,26.981,22.968a11.46,11.46,0,0,1-2.587,8.438c-3.288,3.989-10.275,9.091-24.395,9.091S84.123,72.787,80.327,68.919Z" transform="translate(103.182 43.78)" fill="#f67409"/>
    <path id="Trazado_211237" data-name="Trazado 211237" d="M84.84,37.31v.266l.314.774a28.6,28.6,0,0,0,1.209,2.8A12.089,12.089,0,0,0,89,44.757a7.108,7.108,0,0,0,4.835,1.958,8.051,8.051,0,0,0,4.835-2.031,12.766,12.766,0,0,0,2.8-3.481,23.2,23.2,0,0,0,1.306-2.732,8.584,8.584,0,0,1,.459-1.015v.266a2.564,2.564,0,0,1-.266.8,22.337,22.337,0,0,1-.991,2.877,12.959,12.959,0,0,1-2.8,3.578A8.51,8.51,0,0,1,94.051,47.1a6.552,6.552,0,0,1-2.853-.58,8.244,8.244,0,0,1-2.273-1.5,11.7,11.7,0,0,1-2.635-3.7A29.588,29.588,0,0,1,85.227,38.4a2.607,2.607,0,0,0-.242-.8,2.174,2.174,0,0,1-.145-.29Z" transform="translate(114.167 44.322)" fill="#263238"/>
    <path id="Trazado_211238" data-name="Trazado 211238" d="M115.927,59.416a60.9,60.9,0,0,1-30,.121,8.293,8.293,0,0,1-6.213-8.051v-.145A8.317,8.317,0,0,1,88.051,43h25.894a8.317,8.317,0,0,1,8.317,8.317h0a8.317,8.317,0,0,1-6.334,8.1Z" transform="translate(106.894 52.388)" fill="#263238"/>
    <path id="Trazado_211239" data-name="Trazado 211239" d="M87.531,48.386a1.862,1.862,0,0,1-2.152,1.571,1.886,1.886,0,0,1,.6-3.723,1.862,1.862,0,0,1,1.547,2.152Z" transform="translate(112.685 56.939)" fill="#fff"/>
    <path id="Trazado_211240" data-name="Trazado 211240" d="M96.489,47.943a1.934,1.934,0,0,1-2.176,1.572,1.893,1.893,0,1,1,2.176-1.572Z" transform="translate(125.365 56.294)" fill="#fff"/>
    <path id="Trazado_211241" data-name="Trazado 211241" d="M95.117,46.76a2.418,2.418,0,0,1-.266,1.62,4.037,4.037,0,0,1-1.112,1.451,3.626,3.626,0,0,1-2.031.8,3.433,3.433,0,0,1-2.128-.484,3.893,3.893,0,0,1-1.257-1.257,2.8,2.8,0,0,1-.484-1.6,9.453,9.453,0,0,0,.7,1.426A3.627,3.627,0,0,0,89.75,49.83a3.481,3.481,0,0,0,3.772-.29,3.554,3.554,0,0,0,1.088-1.281,6.43,6.43,0,0,0,.508-1.5Z" transform="translate(118.42 57.719)" fill="#fff"/>
    <path id="Trazado_211242" data-name="Trazado 211242" d="M22.978,51.45h-.145l-.459.169a13.733,13.733,0,0,0-1.789.7,16.271,16.271,0,0,0-5.561,4.11,13.008,13.008,0,0,0-2.418,4.134,11.339,11.339,0,0,0-.29,5.512A10.13,10.13,0,0,0,15.024,71.4a8.22,8.22,0,0,0,2.611,1.789,9.477,9.477,0,0,0,3.191.749,16.924,16.924,0,0,0,6.431-1.04,52.357,52.357,0,0,0,5.657-2.418,31.428,31.428,0,0,1,5.246-1.886A12.524,12.524,0,0,1,43,68.277a9.115,9.115,0,0,1,6.093,3.288,5.73,5.73,0,0,1,.895,1.668l.145.484v.169a.749.749,0,0,1,0-.169l-.169-.459a2.33,2.33,0,0,0-.338-.725,5.826,5.826,0,0,0-.6-.895A9.042,9.042,0,0,0,43,68.495a12.524,12.524,0,0,0-4.835.338,33.123,33.123,0,0,0-5.2,1.886c-1.789.8-3.651,1.692-5.682,2.418A17.843,17.843,0,0,1,20.729,74.2a10.2,10.2,0,0,1-3.288-.774,8.873,8.873,0,0,1-2.708-1.813,10.638,10.638,0,0,1-2.78-5.488,11.218,11.218,0,0,1,.411-5.561,12.814,12.814,0,0,1,2.418-4.183,16.1,16.1,0,0,1,5.682-4.11A13.539,13.539,0,0,1,22.978,51.45Z" transform="translate(10.586 64.368)" fill="#263238"/>
    <path id="Trazado_211243" data-name="Trazado 211243" d="M96.045,109.4V87.329A11.315,11.315,0,0,0,85.021,76.038l-63.9-.8a7.688,7.688,0,0,0-7.761,7.688v26.208Z" transform="translate(12.83 98.095)" fill="#f67409"/>
    <rect id="Rectángulo_43650" data-name="Rectángulo 43650" width="25.869" height="12.088" transform="translate(59.772 191.951) rotate(180)" fill="#fafafa"/>
    <path id="Trazado_211244" data-name="Trazado 211244" d="M30.709,108.618s-.169-7.4-.169-16.537,0-16.561.169-16.561.145,7.422.145,16.561S30.782,108.618,30.709,108.618Z" transform="translate(37.186 98.492)" fill="#263238"/>
    <path id="Trazado_211245" data-name="Trazado 211245" d="M36.989,71.827a11.629,11.629,0,0,0-2.418-.484,8,8,0,0,0-5.657,1.886,8.2,8.2,0,0,0-2.8,5.367,12.33,12.33,0,0,0,.145,2.418,2.66,2.66,0,0,1-.145-.411,7.737,7.737,0,0,1,.484-4.835,7.471,7.471,0,0,1,5.077-4.449,8.462,8.462,0,0,1,2.829-.242,6.939,6.939,0,0,1,1.862.411A2.031,2.031,0,0,1,36.989,71.827Z" transform="translate(30.641 92.152)" fill="#263238"/>
    <path id="Trazado_211246" data-name="Trazado 211246" d="M75.381,125.235l-31.43-84.6L21.2,51.423l26.691,79.4Z" transform="translate(23.945 49.043)" fill="#f67409"/>
    <circle id="Elipse_6950" data-name="Elipse 6950" cx="12.62" cy="12.62" r="12.62" transform="translate(79.165 204.951) rotate(-88.05)" opacity="0.4"/>
    <circle id="Elipse_6951" data-name="Elipse 6951" cx="12.983" cy="12.983" r="12.983" transform="translate(73.83 195.145) rotate(-68.48)" fill="#263238"/>
    <path id="Trazado_211247" data-name="Trazado 211247" d="M38.435,86.125a4.835,4.835,0,1,0-.166-3.763A4.835,4.835,0,0,0,38.435,86.125Z" transform="translate(47.714 103.723)" fill="#455a64"/>
    <path id="Trazado_211248" data-name="Trazado 211248" d="M46.315,101.4v-.121l-.121-.387-.58-1.451c-.484-1.306-1.185-3.143-2.055-5.391L36.886,76.207c-1.717-4.594-3.312-8.9-4.666-12.572h.145l9.308-3.167,2.611-.87.7-.218h0l-.677.266-2.587.919-9.284,3.288v-.193L37.1,76.207c2.587,6.963,4.835,13.273,6.6,17.867.822,2.3,1.5,4.134,1.983,5.44l.508,1.475.145.387-.024.024Z" transform="translate(39.568 75.61)" fill="#263238"/>
    <path id="Trazado_211249" data-name="Trazado 211249" d="M26,65.528s5.464-2.418,12.306-5.053,12.379-4.835,12.4-4.835S45.245,58.058,38.4,60.693,26,65.6,26,65.528Z" transform="translate(30.75 70.308)" fill="#263238"/>
    <path id="Trazado_211250" data-name="Trazado 211250" d="M45.639,102.217l-.266-.169-.7-.532A21.566,21.566,0,0,1,42.254,99.1a34.718,34.718,0,0,1-6-9.139,71.806,71.806,0,0,1-3.675-10.3c-.387-1.354-.677-2.418-.87-3.216l-.218-.87a1.426,1.426,0,0,1,0-.314l.121.29.266.87.846,3.288A78.48,78.48,0,0,0,36.476,89.96,36.677,36.677,0,0,0,42.4,99.074c.943,1.04,1.765,1.813,2.418,2.418Z" transform="translate(38.528 98.123)" fill="#263238"/>
    <path id="Trazado_211251" data-name="Trazado 211251" d="M45.257,95.569a6.507,6.507,0,0,0,.749-.435,3.8,3.8,0,0,0,1.354-1.862,7.253,7.253,0,0,0,.266-3.457c-.169-1.306-.435-2.756-.749-4.255a58.823,58.823,0,0,0-2.248-7.543c-.363-.943-.677-1.717-.895-2.224a5.438,5.438,0,0,1-.314-.822,3.99,3.99,0,0,1,.435.774c.242.508.58,1.257.967,2.176a45.938,45.938,0,0,1,2.418,7.567c.338,1.523.58,2.974.749,4.3a7.567,7.567,0,0,1-.338,3.554,3.917,3.917,0,0,1-1.5,1.886,2.2,2.2,0,0,1-.6.29C45.33,95.569,45.257,95.593,45.257,95.569Z" transform="translate(55.446 97.712)" fill="#263238"/>
    <circle id="Elipse_6952" data-name="Elipse 6952" cx="11.436" cy="11.436" r="11.436" transform="translate(94.127 213.154)" fill="#455a64"/>
    <circle id="Elipse_6953" data-name="Elipse 6953" cx="3.917" cy="3.917" r="3.917" transform="translate(101.646 220.673)" fill="#263238"/>
    <circle id="Elipse_6954" data-name="Elipse 6954" cx="11.436" cy="11.436" r="11.436" transform="translate(56.556 213.469)" fill="#455a64"/>
    <circle id="Elipse_6955" data-name="Elipse 6955" cx="3.917" cy="3.917" r="3.917" transform="translate(64.075 220.988)" fill="#263238"/>
    <circle id="Elipse_6956" data-name="Elipse 6956" cx="11.436" cy="11.436" r="11.436" transform="translate(18.695 213.469)" fill="#455a64"/>
    <circle id="Elipse_6957" data-name="Elipse 6957" cx="3.917" cy="3.917" r="3.917" transform="translate(26.214 220.988)" fill="#263238"/>
    <path id="Trazado_211252" data-name="Trazado 211252" d="M7.64,106.619A17.383,17.383,0,0,1,25,89.26h76.109a17.359,17.359,0,1,1,0,34.718H25A17.383,17.383,0,0,1,7.64,106.619ZM25,94.966A11.677,11.677,0,1,0,25,118.3h76.109a11.677,11.677,0,1,0,0-23.331Z" transform="translate(4.721 117.971)" fill="#263238"/>
    <path id="Trazado_211253" data-name="Trazado 211253" d="M30.707,94.871a40.014,40.014,0,0,1,0-5.561,40.012,40.012,0,0,1,0,5.561Z" transform="translate(37.285 118.042)" fill="#455a64"/>
    <path id="Trazado_211254" data-name="Trazado 211254" d="M24.807,94.871a40.012,40.012,0,0,1,0-5.561,40.012,40.012,0,0,1,0,5.561Z" transform="translate(28.921 118.042)" fill="#455a64"/>
    <path id="Trazado_211255" data-name="Trazado 211255" d="M18.907,94.871a40.012,40.012,0,0,1,0-5.561,40.014,40.014,0,0,1,0,5.561Z" transform="translate(20.557 118.042)" fill="#455a64"/>
    <path id="Trazado_211256" data-name="Trazado 211256" d="M14.3,94.973s-.435-1.185-.895-2.635a20.817,20.817,0,0,1-.7-2.708s.435,1.185.895,2.635A20.816,20.816,0,0,1,14.3,94.973Z" transform="translate(11.894 118.496)" fill="#455a64"/>
    <path id="Trazado_211257" data-name="Trazado 211257" d="M13.1,96.264a20.386,20.386,0,0,1-2.418-1.185c-1.354-.7-2.418-1.306-2.418-1.33A20.378,20.378,0,0,1,10.8,94.935a22.646,22.646,0,0,1,2.3,1.33Z" transform="translate(5.6 124.336)" fill="#455a64"/>
    <path id="Trazado_211258" data-name="Trazado 211258" d="M30.967,101.37a21.227,21.227,0,0,1,0,2.78,20.915,20.915,0,0,1,0,2.78,20.914,20.914,0,0,1,0-2.78A21.229,21.229,0,0,1,30.967,101.37Z" transform="translate(37.726 135.139)" fill="#455a64"/>
    <path id="Trazado_211259" data-name="Trazado 211259" d="M25.057,101.3a40.012,40.012,0,0,1,0,5.561,40.013,40.013,0,0,1,0-5.561Z" transform="translate(29.275 135.04)" fill="#455a64"/>
    <path id="Trazado_211260" data-name="Trazado 211260" d="M19.2,101.3a40.012,40.012,0,0,1,0,5.561A40.015,40.015,0,0,1,19.2,101.3Z" transform="translate(20.968 135.04)" fill="#455a64"/>
    <path id="Trazado_211261" data-name="Trazado 211261" d="M14.61,101.15a25.942,25.942,0,0,1-.725,2.684,23.014,23.014,0,0,1-.895,2.635,21.058,21.058,0,0,1,.7-2.684,20.381,20.381,0,0,1,.919-2.635Z" transform="translate(12.306 134.827)" fill="#455a64"/>
    <path id="Trazado_211262" data-name="Trazado 211262" d="M13.286,98.43a20.5,20.5,0,0,1-2.418,1.354,20.38,20.38,0,0,1-2.539,1.185,19.747,19.747,0,0,1,2.418-1.354,21.1,21.1,0,0,1,2.539-1.185Z" transform="translate(5.699 130.971)" fill="#455a64"/>
    <path id="Trazado_211263" data-name="Trazado 211263" d="M36.324,101.37a24.371,24.371,0,0,1,0,2.78,24.179,24.179,0,0,1,0,2.78,16.924,16.924,0,0,1,0-2.78,17.141,17.141,0,0,1,0-2.78Z" transform="translate(45.304 135.139)" fill="#455a64"/>
    <path id="Trazado_211264" data-name="Trazado 211264" d="M42.217,101.37a24.369,24.369,0,0,1,0,2.78,24.179,24.179,0,0,1,0,2.78,20.911,20.911,0,0,1,0-2.78,21.227,21.227,0,0,1,0-2.78Z" transform="translate(53.675 135.139)" fill="#455a64"/>
    <path id="Trazado_211265" data-name="Trazado 211265" d="M47.67,101.15a18.52,18.52,0,0,1,.895,2.635,24.175,24.175,0,0,1,.725,2.684,18.517,18.517,0,0,1-.895-2.635A20.161,20.161,0,0,1,47.67,101.15Z" transform="translate(61.471 134.827)" fill="#455a64"/>
    <path id="Trazado_211266" data-name="Trazado 211266" d="M50.78,98.19A21.109,21.109,0,0,1,53.2,99.375a19.75,19.75,0,0,1,2.418,1.354A19.341,19.341,0,0,1,53.2,99.544,19.753,19.753,0,0,1,50.78,98.19Z" transform="translate(65.88 130.631)" fill="#455a64"/>
    <path id="Trazado_211267" data-name="Trazado 211267" d="M36.023,94.941a24.181,24.181,0,0,1,0-2.78,24.371,24.371,0,0,1,0-2.78,17.142,17.142,0,0,1,0,2.78,16.923,16.923,0,0,1,0,2.78Z" transform="translate(44.903 118.141)" fill="#455a64"/>
    <path id="Trazado_211268" data-name="Trazado 211268" d="M41.934,94.941a16.927,16.927,0,0,1,0-2.78,17.142,17.142,0,0,1,0-2.78,24.364,24.364,0,0,1,0,2.78A24.176,24.176,0,0,1,41.934,94.941Z" transform="translate(53.258 118.141)" fill="#455a64"/>
    <path id="Trazado_211269" data-name="Trazado 211269" d="M47.38,94.973a18.953,18.953,0,0,1,.725-2.708A21.759,21.759,0,0,1,49,89.63a23.815,23.815,0,0,1-.725,2.708C47.815,93.788,47.428,94.973,47.38,94.973Z" transform="translate(61.06 118.496)" fill="#455a64"/>
    <path id="Trazado_211270" data-name="Trazado 211270" d="M50.65,96.039a19.746,19.746,0,0,1,2.418-1.354A24.032,24.032,0,0,1,55.485,93.5a19.752,19.752,0,0,1-2.418,1.354,19.34,19.34,0,0,1-2.418,1.185Z" transform="translate(65.696 123.982)" fill="#455a64"/>
    <path id="Trazado_211271" data-name="Trazado 211271" d="M36.32,71.4l.145-.218.484-.6,1.789-2.418c1.547-2.1,3.747-5.15,6.213-9.066a145.23,145.23,0,0,0,7.93-14.24c1.33-2.756,2.659-5.682,3.917-8.776s2.587-6.31,4.086-9.5a55.2,55.2,0,0,1,5.174-8.994,33.848,33.848,0,0,1,6.673-6.818A23.621,23.621,0,0,1,80.467,6.78a17.843,17.843,0,0,1,7.567-.556,17.045,17.045,0,0,1,5.948,1.958,14.627,14.627,0,0,1,3.772,2.877,13.2,13.2,0,0,1,1.741,2.418l.363.7a1.33,1.33,0,0,1,0,.242,1.669,1.669,0,0,1,0-.242L99.47,13.5a15.014,15.014,0,0,0-1.789-2.418,14.8,14.8,0,0,0-3.747-2.8,17.625,17.625,0,0,0-5.9-1.886,17.818,17.818,0,0,0-7.471.58,23.6,23.6,0,0,0-7.664,3.8,34.138,34.138,0,0,0-6.6,6.939,54.3,54.3,0,0,0-5.126,9.018c-1.523,3.191-2.8,6.407-4.086,9.5S54.477,42.2,53.123,45a137.347,137.347,0,0,1-7.906,14.24c-2.418,3.917-4.835,6.939-6.31,9.018l-1.837,2.418-.508.6a.725.725,0,0,1-.242.121Z" transform="translate(45.38 0)" fill="#263238"/>
    <path id="Trazado_211272" data-name="Trazado 211272" d="M75.447,19.13,37.61,50.173l7.326,6.963,37.4-28.988Z" transform="translate(47.209 18.548)" fill="#e0e0e0"/>
    <path id="Trazado_211273" data-name="Trazado 211273" d="M42.3,68.174,68.826,46.2,54.8,29.95,24.05,54.465Z" transform="translate(27.985 33.887)" fill="#f67409"/>
    <path id="Trazado_211274" data-name="Trazado 211274" d="M37.285,50.89,20.362,64.429,14.68,57.563,30.9,44.29Z" transform="translate(14.702 54.217)" fill="#e0e0e0"/>
    <rect id="Rectángulo_43651" data-name="Rectángulo 43651" width="10.904" height="12.983" transform="translate(155.297 30.538) rotate(-34.12)" fill="#e0e0e0"/>
    <path id="Trazado_211275" data-name="Trazado 211275" d="M80.986,17.944l16.223.218,9.018,13.3-4.4,13.853-3.892-.991,2.031-9.139-6.7-8.027-8.22.459-5.609,3.868-3.554,7.374,6.359,9.381,7.567,1.6-.073,3.651-12.5-1.112L67.64,38.2l4.328-14.168,9.888-6.7" transform="translate(89.783 16.01)" fill="#263238"/>
    <circle id="Elipse_6958" data-name="Elipse 6958" cx="12.62" cy="12.62" r="12.62" transform="translate(42.107 96.217) rotate(-26.06)" opacity="0.4"/>
    <circle id="Elipse_6959" data-name="Elipse 6959" cx="12.983" cy="12.983" r="12.983" transform="translate(44.927 84.001)" fill="#263238"/>
    <path id="Trazado_211276" data-name="Trazado 211276" d="M24.71,48.113a4.835,4.835,0,1,0,.211-3.792,4.835,4.835,0,0,0-.211,3.792Z" transform="translate(28.51 50.442)" fill="#455a64"/>
    <path id="Trazado_211277" data-name="Trazado 211277" d="M42.228,31.25l.242.6.6,1.692c.532,1.523,1.233,3.578,2.079,5.972h0L41.116,42.9c-2.974,2.418-5.706,4.69-7.664,6.286l-2.418,1.886-.653.508-.242.169.218-.218.6-.532,2.273-1.958c1.934-1.644,4.618-3.917,7.616-6.383L44.888,39.3v.169c-.8-2.418-1.475-4.5-1.958-6l-.556-1.741a2.128,2.128,0,0,1-.145-.484Z" transform="translate(36.619 35.73)" fill="#263238"/>
    <path id="Trazado_211278" data-name="Trazado 211278" d="M79.024,8.69,51.68,30.28,63.865,47.373,92.418,25.106Z" transform="translate(67.156 3.747)" fill="#f67409"/>
    <circle id="Elipse_6960" data-name="Elipse 6960" cx="10.372" cy="10.372" r="10.372" transform="matrix(0.054, -0.999, 0.999, 0.054, 139.268, 33.01)" opacity="0.4"/>
    <path id="Trazado_211279" data-name="Trazado 211279" d="M65.655,9.79A11.1,11.1,0,1,0,81.225,11.6,11.1,11.1,0,0,0,65.655,9.79Z" transform="translate(80.984 1.922)" fill="#263238"/>
    <path id="Trazado_211280" data-name="Trazado 211280" d="M65.891,11.148a4.231,4.231,0,1,0,5.923.7A4.231,4.231,0,0,0,65.891,11.148Z" transform="translate(85.004 5.955)" fill="#455a64"/>
    <path id="Trazado_211281" data-name="Trazado 211281" d="M77.918,22.772l-.677-.459L75.4,21.007l-6.262-4.569h.169l-3.288,2.708-8.293,6.7-2.418,2.007-.7.532-.242.169.218-.218.653-.58,2.418-2.079c2.1-1.741,5-4.134,8.244-6.77L69.19,16.22h0L75.4,20.862l1.765,1.378Z" transform="translate(70.97 14.422)" fill="#263238"/>
  </g>
</svg>
