<svg xmlns="http://www.w3.org/2000/svg" width="71.467" height="70.997" viewBox="0 0 71.467 70.997">
  <g id="medicion" transform="translate(7.433 -0.504)">
    <g id="Grupo_146089" data-name="Grupo 146089" transform="translate(-7.433 0.505)">
      <g id="Grupo_146088" data-name="Grupo 146088">
        <path id="Trazado_216368" data-name="Trazado 216368" d="M8.426,29.677c.761.442,1.415.841,2.01,1.2,2.779,1.7,4.184,2.553,8.1,2.553H32.724a3.837,3.837,0,0,0,3.825-3.841,3.8,3.8,0,0,0-.5-1.877,4.163,4.163,0,0,0,1.99-6.7,4.159,4.159,0,0,0,1.421-5.622h6.115a4.171,4.171,0,1,0,0-8.343H32.738v-1.3a5.211,5.211,0,0,0-1.416-3.794A5.326,5.326,0,0,0,27.508.5h-.013l-7.135,0c-3.33,0-8.246,2.023-12.014,7.514A2.258,2.258,0,0,0,6.718,7.33H1.047a1.047,1.047,0,1,0,0,2.094H6.718a.178.178,0,0,1,.173.174v7.009a1.047,1.047,0,0,0,2.094,0V10.967C12.2,5.2,16.993,2.606,20.362,2.6l7.136,0h.009a3.34,3.34,0,0,1,2.339.839,3.139,3.139,0,0,1,.8,2.31l0,2.3c0,.016,0,.031,0,.047s0,.03,0,.046l0,3.361a2.357,2.357,0,0,1-1.036,1.95l-.049.031A2.367,2.367,0,0,1,25.9,11.5V7.387a1.047,1.047,0,1,0-2.094,0,5.135,5.135,0,0,1-1.764,3.5,5.435,5.435,0,0,1-3.818,1.652,1.047,1.047,0,0,0-.11,2.091A7.535,7.535,0,0,0,23.487,12.4q.184-.175.356-.357a4.436,4.436,0,0,0,1.171,2.5,4.155,4.155,0,0,0,.2,6.041,4.162,4.162,0,0,0,.836,6.84,3.8,3.8,0,0,0-.282,3.918H18.628c-3.4.015-4.408-.6-7.1-2.247-.73-.445-1.545-.942-2.542-1.511V21.464a1.047,1.047,0,1,0-2.094,0v6.73a.176.176,0,0,1-.173.17H1.047a1.047,1.047,0,1,0,0,2.094H6.718a2.26,2.26,0,0,0,1.708-.78ZM45.578,9.142a2.078,2.078,0,1,1,0,4.155H32.355a4.418,4.418,0,0,0,.38-1.8l0-2.36H45.578ZM30.443,15.391h5.4a2.078,2.078,0,1,1,0,4.155H27.977a2.074,2.074,0,0,1-1.118-3.82,4.463,4.463,0,0,0,3.585-.335ZM27.97,21.64h6.9a2.078,2.078,0,1,1,0,4.156h-6.9a2.078,2.078,0,1,1,0-4.156Zm-.52,7.977a1.731,1.731,0,0,1,1.731-1.728h3.813a1.731,1.731,0,0,1,1.461,1.7,1.763,1.763,0,0,1-1.731,1.748H29.181a1.729,1.729,0,0,1-1.731-1.724Z" transform="translate(0 -0.505)" fill="#30610c"/>
        <path id="Trazado_216369" data-name="Trazado 216369" d="M72.866,7.374a1.047,1.047,0,0,0-1.047,1.047v5.047H67.167a1.047,1.047,0,1,0,0,2.094h4.652v9.8H67.167a1.047,1.047,0,1,0,0,2.094h4.652v9.8H67.167a1.047,1.047,0,1,0,0,2.094h4.652v9.8H67.167a1.047,1.047,0,1,0,0,2.094h4.652v9.8H67.167a1.047,1.047,0,1,0,0,2.094h4.652v9.951H61.84V37.6a1.047,1.047,0,0,0-1.047-1.047H48.1A1.047,1.047,0,0,0,47.057,37.6V53.043a1.047,1.047,0,0,0,2.094,0v-14.4h10.6V72.926H49.15V57.9a1.047,1.047,0,0,0-2.094,0v15.18H43.2V50.189a1.047,1.047,0,0,0-1.047-1.047H29.467a1.047,1.047,0,0,0-1.047,1.047V73.081H24.563v-11a1.047,1.047,0,0,0-1.047-1.047H10.826a1.047,1.047,0,0,0-1.047,1.047v11H5.621a1.047,1.047,0,0,0,0,2.094H72.866a1.047,1.047,0,0,0,1.047-1.047V8.421a1.047,1.047,0,0,0-1.047-1.047ZM30.514,51.236H41.106v21.69H30.514ZM11.873,63.13h10.6v9.8h-10.6Z" transform="translate(-2.446 -4.178)" fill="#30610c"/>
      </g>
    </g>
  </g>
</svg>
